<svg xmlns="http://www.w3.org/2000/svg" width="574" height="200" fill="none"><defs><linearGradient id="c" x1=".023" x2=".625" y1="-.036" y2=".397"><stop offset="0%" stop-color="#5677A8"/><stop offset="78.571%"/></linearGradient><linearGradient id="e" x1="1.05" x2=".09" y1=".5" y2=".896"><stop offset="32.857%" stop-color="#0F0F0F"/><stop offset="100%" stop-opacity="0"/></linearGradient><filter id="b" width="1" height="1" x="0" y="0" color-interpolation-filters="sRGB" filterUnits="objectBoundingBox"><feFlood flood-opacity="0" result="BackgroundImageFix"/><feBlend in="SourceGraphic" in2="BackgroundImageFix" result="shape"/><feGaussianBlur in="BackgroundImageFix" stdDeviation="5"/><feComposite in2="SourceAlpha" operator="in" result="effect1_foregroundBlur"/><feBlend in="SourceGraphic" in2="effect1_foregroundBlur" result="shape"/></filter><filter id="a" width="1" height="1" x="0" y="0" color-interpolation-filters="sRGB" filterUnits="objectBoundingBox"><feFlood flood-opacity="0" result="BackgroundImageFix"/><feBlend in="SourceGraphic" in2="BackgroundImageFix" result="shape"/><feGaussianBlur in="BackgroundImageFix" stdDeviation="5"/><feComposite in2="SourceAlpha" operator="in" result="effect1_foregroundBlur"/><feBlend in="SourceGraphic" in2="effect1_foregroundBlur" result="shape"/></filter><mask id="d" maskUnits="objectBoundingBox" style="mask-type:alpha"><g filter="url(#a)"><path fill="#FFF" d="M17.343 13.515v168.306h390V13.515c0-5.523-4.477-10-10-10h-370c-5.523 0-10 4.477-10 10"/></g></mask></defs><g filter="url(#b)"><path fill="url(#c)" fill-rule="evenodd" d="M0 10v190h574V10c0-5.523-4.477-10-10-10H10C4.477 0 0 4.477 0 10m573 189H1V10q0-3.728 2.636-6.364T10 1h554q3.728 0 6.364 2.636T573 10z"/></g><g mask="url(#d)" style="opacity:.4000000059604645"><path fill="#A89FF8" d="M36.925 25.445a.69.69 0 0 0-.516.204c-.144.12-.204.288-.204.504 0 .204.06.372.204.516a.74.74 0 0 0 .516.204.74.74 0 0 0 .516-.204.7.7 0 0 0 .216-.516q0-.324-.216-.504a.69.69 0 0 0-.516-.204m-.48 2.34v6.204h.96v-6.204zm5.472-.168c-.696 0-1.284.324-1.752.996v-.828h-.96v6.204h.96v-3.78c0-.492.144-.912.432-1.248.288-.36.648-.528 1.092-.528.948 0 1.428.54 1.428 1.644v3.912h.96v-3.888c0-.504.132-.9.42-1.212.264-.312.612-.456 1.02-.456.528 0 .912.132 1.152.42.228.264.348.672.348 1.224v3.912h.96v-4.068c0-.708-.204-1.272-.588-1.692-.408-.408-.924-.612-1.572-.612-.432 0-.792.096-1.092.288-.336.18-.624.48-.864.888-.348-.792-.996-1.176-1.944-1.176m10.512 0c-.936 0-1.62.396-2.064 1.188v-1.02h-.9v8.58h.96v-3.504q.72 1.296 2.052 1.296c.888 0 1.572-.336 2.076-.984.456-.6.696-1.356.696-2.268 0-.936-.24-1.692-.708-2.292-.516-.672-1.224-.996-2.112-.996m-.12.792c.66 0 1.164.24 1.512.744.288.432.444 1.02.444 1.752q0 1.116-.468 1.764c-.348.456-.852.696-1.524.696-.576 0-1.02-.228-1.356-.66-.36-.444-.528-1.02-.528-1.74v-.12c0-.696.156-1.272.468-1.704.336-.492.828-.732 1.452-.732m6.96-.792c-.936 0-1.668.312-2.22.96-.528.612-.792 1.38-.792 2.316 0 .924.264 1.692.792 2.292.552.648 1.284.972 2.22.972q1.386 0 2.232-.972c.516-.6.78-1.368.78-2.292 0-.936-.264-1.704-.792-2.316-.552-.648-1.296-.96-2.22-.96m0 .804q.972 0 1.548.756c.324.456.492 1.02.492 1.716 0 .672-.168 1.248-.492 1.704q-.576.756-1.548.756c-.66 0-1.176-.252-1.536-.756-.336-.456-.492-1.02-.492-1.704 0-.696.156-1.26.492-1.716.36-.504.876-.756 1.536-.756m6.984-.804c-.432 0-.804.132-1.128.396-.264.204-.48.492-.648.852v-1.08h-.948v6.204h.948v-3.288c0-.576.156-1.068.492-1.476.324-.432.732-.636 1.212-.636.3 0 .612.036.924.132v-.96c-.228-.096-.516-.144-.852-.144m3.312-1.836-.948.396v1.608h-1.248v.804h1.248v3.948c0 .468.096.816.3 1.056.216.264.588.396 1.092.396h.936v-.804h-.792c-.216 0-.372-.06-.456-.156-.096-.096-.132-.264-.132-.492v-3.948H71.1v-.804h-1.536zm-31.776 16-.948.396v1.608h-1.248v.804h1.248v3.948c0 .468.096.816.3 1.056.216.264.588.396 1.092.396h.936v-.804h-.792c-.216 0-.372-.06-.456-.156-.096-.096-.132-.264-.132-.492v-3.948h1.536v-.804h-1.536zm5.328 1.836c-.432 0-.804.132-1.128.396-.264.204-.48.492-.648.852v-1.08h-.948v6.204h.948v-3.288c0-.576.156-1.068.492-1.476.324-.432.732-.636 1.212-.636.3 0 .612.036.924.132v-.96c-.228-.096-.516-.144-.852-.144m.972.168 2.46 6.06-1.068 2.52h1.044l3.396-8.58h-1.056l-1.836 4.896-1.896-4.896zm111.576 45.636c-.528 0-.936.144-1.212.444-.264.288-.396.684-.396 1.212v.708h-1.56v.804h1.56v5.4h.96v-5.4h1.752v-.804h-1.752v-.684q0-.45.18-.648c.12-.144.324-.204.588-.204h1.068v-.828zm4.764 2.196c-.936 0-1.668.312-2.22.96-.528.612-.792 1.38-.792 2.316 0 .924.264 1.692.792 2.292.552.648 1.284.972 2.22.972q1.386 0 2.232-.972c.516-.6.78-1.368.78-2.292 0-.936-.264-1.704-.792-2.316-.552-.648-1.296-.96-2.22-.96m0 .804q.972 0 1.548.756c.324.456.492 1.02.492 1.716 0 .672-.168 1.248-.492 1.704q-.576.756-1.548.756c-.66 0-1.176-.252-1.536-.756-.336-.456-.492-1.02-.492-1.704 0-.696.156-1.26.492-1.716.36-.504.876-.756 1.536-.756m6.984-.804c-.432 0-.804.132-1.128.396-.264.204-.48.492-.648.852v-1.08h-.948v6.204h.948v-3.288c0-.576.156-1.068.492-1.476.324-.432.732-.636 1.212-.636.3 0 .612.036.924.132v-.96c-.228-.096-.516-.144-.852-.144m16.224-2.172a.69.69 0 0 0-.516.204c-.144.12-.204.288-.204.504 0 .204.06.372.204.516a.74.74 0 0 0 .516.204.74.74 0 0 0 .516-.204.7.7 0 0 0 .216-.516q0-.324-.216-.504a.69.69 0 0 0-.516-.204m-.48 2.34v6.204h.96v-6.204zm5.664-.168q-.612 0-1.116.288-.504.27-.828.792v-.912h-.96v6.204h.96v-3.744c.036-.564.216-1.008.552-1.344a1.52 1.52 0 0 1 1.116-.468c1.08 0 1.632.6 1.632 1.812v3.744h.96v-3.816c0-1.704-.78-2.556-2.316-2.556m83.208-2.172a.69.69 0 0 0-.516.204c-.144.12-.204.288-.204.504 0 .204.06.372.204.516a.74.74 0 0 0 .516.204.74.74 0 0 0 .516-.204.7.7 0 0 0 .216-.516q0-.324-.216-.504a.69.69 0 0 0-.516-.204m-.48 2.34v6.204h.96v-6.204zm5.244-2.364c-.528 0-.936.144-1.212.444-.264.288-.396.684-.396 1.212v.708h-1.56v.804h1.56v5.4h.96v-5.4h1.752v-.804h-1.752v-.684q0-.45.18-.648c.12-.144.324-.204.588-.204h1.068v-.828zM56.905 105.445a.69.69 0 0 0-.516.204c-.144.12-.204.288-.204.504 0 .204.06.372.204.516a.74.74 0 0 0 .516.204.74.74 0 0 0 .516-.204.7.7 0 0 0 .216-.516q0-.324-.216-.504a.69.69 0 0 0-.516-.204m-.48 2.34v6.204h.96v-6.204zm5.244-2.364c-.528 0-.936.144-1.212.444-.264.288-.396.684-.396 1.212v.708H58.5v.804h1.56v5.4h.96v-5.4h1.752v-.804H61.02v-.684q0-.45.18-.648c.12-.144.324-.204.588-.204h1.068v-.828zm-22.572 66.196c-.936 0-1.62.396-2.064 1.188v-1.02h-.9v8.58h.96v-3.504q.72 1.296 2.052 1.296c.888 0 1.572-.336 2.076-.984.456-.6.696-1.356.696-2.268 0-.936-.24-1.692-.708-2.292-.516-.672-1.224-.996-2.112-.996m-.12.792c.66 0 1.164.24 1.512.744.288.432.444 1.02.444 1.752q0 1.116-.468 1.764c-.348.456-.852.696-1.524.696-.576 0-1.02-.228-1.356-.66-.36-.444-.528-1.02-.528-1.74v-.12c0-.696.156-1.272.468-1.704.336-.492.828-.732 1.452-.732m6.912-.792c-.432 0-.804.132-1.128.396-.264.204-.48.492-.648.852v-1.08h-.948v6.204h.948v-3.288c0-.576.156-1.068.492-1.476.324-.432.732-.636 1.212-.636.3 0 .612.036.924.132v-.96c-.228-.096-.516-.144-.852-.144m2.448-2.172a.69.69 0 0 0-.516.204c-.144.12-.204.288-.204.504 0 .204.06.372.204.516a.74.74 0 0 0 .516.204.74.74 0 0 0 .516-.204.7.7 0 0 0 .216-.516q0-.324-.216-.504a.69.69 0 0 0-.516-.204m-.48 2.34v6.204h.96v-6.204zm5.664-.168q-.612 0-1.116.288-.504.27-.828.792v-.912h-.96v6.204h.96v-3.744c.036-.564.216-1.008.552-1.344a1.52 1.52 0 0 1 1.116-.468c1.08 0 1.632.6 1.632 1.812v3.744h.96v-3.816c0-1.704-.78-2.556-2.316-2.556m5.46-1.836-.948.396v1.608h-1.248v.804h1.248v3.948c0 .468.096.816.3 1.056.216.264.588.396 1.092.396h.936v-.804h-.792c-.216 0-.372-.06-.456-.156-.096-.096-.132-.264-.132-.492v-3.948h1.536v-.804H58.98z"/><path fill="#FFF" d="M77.077 25.445a.69.69 0 0 0-.516.204c-.144.12-.204.288-.204.504 0 .204.06.372.204.516a.74.74 0 0 0 .516.204.77.77 0 0 0 .528-.204.74.74 0 0 0 .204-.516.65.65 0 0 0-.204-.504.71.71 0 0 0-.528-.204m-.48 2.34v6.888c0 .588-.288.888-.852.888h-.504v.804h.576c1.152 0 1.74-.552 1.74-1.656v-6.924zm4.968-.168c-.696 0-1.272.156-1.704.468-.468.312-.696.72-.696 1.248s.228.924.708 1.212c.288.192.804.372 1.536.552.672.168 1.116.3 1.32.396.384.192.588.456.588.804 0 .696-.564 1.056-1.668 1.056q-.792 0-1.188-.288c-.264-.216-.444-.564-.516-1.056h-.936c.144 1.428 1.032 2.148 2.664 2.148 1.752 0 2.628-.648 2.628-1.92 0-.54-.252-.96-.744-1.272-.324-.204-.852-.396-1.596-.576-.624-.168-1.056-.3-1.284-.408-.36-.18-.528-.408-.528-.672q0-.414.396-.648c.24-.168.576-.24 1.008-.24.492 0 .876.096 1.14.288.24.168.396.456.48.84h.936c-.168-1.296-1.008-1.932-2.544-1.932m6.636 0c-.936 0-1.668.312-2.22.96-.528.612-.792 1.38-.792 2.316 0 .924.264 1.692.792 2.292.552.648 1.284.972 2.22.972q1.386 0 2.232-.972c.516-.6.78-1.368.78-2.292 0-.936-.264-1.704-.792-2.316-.552-.648-1.296-.96-2.22-.96m0 .804q.972 0 1.548.756c.324.456.492 1.02.492 1.716 0 .672-.168 1.248-.492 1.704q-.576.756-1.548.756c-.66 0-1.176-.252-1.536-.756-.336-.456-.492-1.02-.492-1.704 0-.696.156-1.26.492-1.716.36-.504.876-.756 1.536-.756m7.164-.804q-.612 0-1.116.288-.504.27-.828.792v-.912h-.96v6.204h.96v-3.744c.036-.564.216-1.008.552-1.344a1.52 1.52 0 0 1 1.116-.468c1.08 0 1.632.6 1.632 1.812v3.744h.96v-3.816c0-1.704-.78-2.556-2.316-2.556m-43.8 16.528a.66.66 0 0 0-.516.216.7.7 0 0 0-.216.516c0 .204.072.384.216.528.132.132.3.204.516.204a.76.76 0 0 0 .516-.204.73.73 0 0 0 .216-.528.7.7 0 0 0-.216-.516.72.72 0 0 0-.516-.216m0 4.392a.66.66 0 0 0-.516.216.7.7 0 0 0-.216.516c0 .204.072.384.216.528.132.132.3.204.516.204a.76.76 0 0 0 .516-.204.73.73 0 0 0 .216-.528.7.7 0 0 0-.216-.516.72.72 0 0 0-.516-.216m9.132 8.716v3.672c-.48-.876-1.164-1.308-2.052-1.308s-1.572.324-2.076.996c-.468.6-.696 1.344-.696 2.256 0 .936.228 1.704.696 2.304.504.648 1.212.984 2.124.984.936 0 1.632-.396 2.064-1.188v1.02h.9v-8.736zm-1.848 3.156c.552 0 1.008.216 1.356.672.336.444.516 1.032.516 1.752v.12c0 .696-.156 1.26-.456 1.692-.348.48-.828.72-1.452.72-.672 0-1.176-.252-1.512-.732-.3-.432-.444-1.02-.444-1.764s.144-1.32.456-1.74c.336-.48.852-.72 1.536-.72m6.996-.792c-.744 0-1.332.144-1.788.432-.504.312-.828.804-.96 1.452l.948.072c.096-.396.3-.696.624-.888.288-.192.66-.276 1.116-.276 1.08 0 1.62.516 1.62 1.56v.324l-1.488.024c-.936.012-1.656.192-2.16.528-.576.36-.852.888-.852 1.596 0 .504.192.924.576 1.248.372.312.864.468 1.488.468a3.15 3.15 0 0 0 1.548-.384c.384-.216.708-.492.948-.828v1.044h.9v-3.984c0-.72-.192-1.284-.552-1.692-.432-.468-1.08-.696-1.968-.696m1.56 3.396v.528c0 .48-.228.912-.672 1.284a2.35 2.35 0 0 1-1.56.576c-.384 0-.696-.096-.936-.276a.85.85 0 0 1-.348-.708c0-.9.696-1.356 2.088-1.38zm4.104-5.232-.948.396v1.608h-1.248v.804h1.248v3.948c0 .468.096.816.3 1.056.216.264.588.396 1.092.396h.936v-.804h-.792c-.216 0-.372-.06-.456-.156-.096-.096-.132-.264-.132-.492v-3.948h1.536v-.804h-1.536zm5.304 1.836c-.744 0-1.332.144-1.788.432-.504.312-.828.804-.96 1.452l.948.072c.096-.396.3-.696.624-.888.288-.192.66-.276 1.116-.276 1.08 0 1.62.516 1.62 1.56v.324l-1.488.024c-.936.012-1.656.192-2.16.528-.576.36-.852.888-.852 1.596 0 .504.192.924.576 1.248.372.312.864.468 1.488.468a3.15 3.15 0 0 0 1.548-.384c.384-.216.708-.492.948-.828v1.044h.9v-3.984c0-.72-.192-1.284-.552-1.692-.432-.468-1.08-.696-1.968-.696m1.56 3.396v.528c0 .48-.228.912-.672 1.284a2.35 2.35 0 0 1-1.56.576c-.384 0-.696-.096-.936-.276a.85.85 0 0 1-.348-.708c0-.9.696-1.356 2.088-1.38zm6.3-1.764v.804h6.06v-.804zm0 2.46v.816h6.06v-.816zm12.312-6.264a.69.69 0 0 0-.516.204c-.144.12-.204.288-.204.504 0 .204.06.372.204.516a.74.74 0 0 0 .516.204.77.77 0 0 0 .528-.204.74.74 0 0 0 .204-.516.65.65 0 0 0-.204-.504.71.71 0 0 0-.528-.204m-.48 2.34v6.888c0 .588-.288.888-.852.888h-.504v.804h.576c1.152 0 1.74-.552 1.74-1.656v-6.924zm4.968-.168c-.696 0-1.272.156-1.704.468-.468.312-.696.72-.696 1.248s.228.924.708 1.212c.288.192.804.372 1.536.552.672.168 1.116.3 1.32.396.384.192.588.456.588.804 0 .696-.564 1.056-1.668 1.056q-.792 0-1.188-.288c-.264-.216-.444-.564-.516-1.056h-.936c.144 1.428 1.032 2.148 2.664 2.148 1.752 0 2.628-.648 2.628-1.92 0-.54-.252-.96-.744-1.272-.324-.204-.852-.396-1.596-.576-.624-.168-1.056-.3-1.284-.408-.36-.18-.528-.408-.528-.672q0-.414.396-.648c.24-.168.576-.24 1.008-.24.492 0 .876.096 1.14.288.24.168.396.456.48.84h.936c-.168-1.296-1.008-1.932-2.544-1.932m6.636 0c-.936 0-1.668.312-2.22.96-.528.612-.792 1.38-.792 2.316 0 .924.264 1.692.792 2.292.552.648 1.284.972 2.22.972q1.386 0 2.232-.972c.516-.6.78-1.368.78-2.292 0-.936-.264-1.704-.792-2.316-.552-.648-1.296-.96-2.22-.96m0 .804q.972 0 1.548.756c.324.456.492 1.02.492 1.716 0 .672-.168 1.248-.492 1.704q-.576.756-1.548.756c-.66 0-1.176-.252-1.536-.756-.336-.456-.492-1.02-.492-1.704 0-.696.156-1.26.492-1.716.36-.504.876-.756 1.536-.756m7.164-.804q-.612 0-1.116.288-.504.27-.828.792v-.912h-.96v6.204h.96v-3.744c.036-.564.216-1.008.552-1.344a1.52 1.52 0 0 1 1.116-.468c1.08 0 1.632.6 1.632 1.812v3.744h.96v-3.816c0-1.704-.78-2.556-2.316-2.556m4.644 4.944a.66.66 0 0 0-.516.216.7.7 0 0 0-.216.528c0 .204.072.372.216.516.132.144.3.216.516.216a.72.72 0 0 0 .516-.216.7.7 0 0 0 .216-.516.7.7 0 0 0-.216-.528.72.72 0 0 0-.516-.216m2.52-7.308v8.736h.948v-8.736zm5.4 2.364c-.936 0-1.668.312-2.22.96-.528.612-.792 1.38-.792 2.316 0 .924.264 1.692.792 2.292.552.648 1.284.972 2.22.972q1.386 0 2.232-.972c.516-.6.78-1.368.78-2.292 0-.936-.264-1.704-.792-2.316-.552-.648-1.296-.96-2.22-.96m0 .804q.972 0 1.548.756c.324.456.492 1.02.492 1.716 0 .672-.168 1.248-.492 1.704q-.576.756-1.548.756c-.66 0-1.176-.252-1.536-.756-.336-.456-.492-1.02-.492-1.704 0-.696.156-1.26.492-1.716.36-.504.876-.756 1.536-.756m6.96-.804c-.744 0-1.332.144-1.788.432-.504.312-.828.804-.96 1.452l.948.072c.096-.396.3-.696.624-.888.288-.192.66-.276 1.116-.276 1.08 0 1.62.516 1.62 1.56v.324l-1.488.024c-.936.012-1.656.192-2.16.528-.576.36-.852.888-.852 1.596 0 .504.192.924.576 1.248.372.312.864.468 1.488.468a3.15 3.15 0 0 0 1.548-.384c.384-.216.708-.492.948-.828v1.044h.9v-3.984c0-.72-.192-1.284-.552-1.692-.432-.468-1.08-.696-1.968-.696m1.56 3.396v.528c0 .48-.228.912-.672 1.284a2.35 2.35 0 0 1-1.56.576c-.384 0-.696-.096-.936-.276a.85.85 0 0 1-.348-.708c0-.9.696-1.356 2.088-1.38zm7.032-5.76v3.672c-.48-.876-1.164-1.308-2.052-1.308s-1.572.324-2.076.996c-.468.6-.696 1.344-.696 2.256 0 .936.228 1.704.696 2.304.504.648 1.212.984 2.124.984.936 0 1.632-.396 2.064-1.188v1.02h.9v-8.736zm-1.848 3.156c.552 0 1.008.216 1.356.672.336.444.516 1.032.516 1.752v.12c0 .696-.156 1.26-.456 1.692-.348.48-.828.72-1.452.72-.672 0-1.176-.252-1.512-.732-.3-.432-.444-1.02-.444-1.764s.144-1.32.456-1.74c.336-.48.852-.72 1.536-.72m6.492-.792c-.696 0-1.272.156-1.704.468-.468.312-.696.72-.696 1.248s.228.924.708 1.212c.288.192.804.372 1.536.552.672.168 1.116.3 1.32.396.384.192.588.456.588.804 0 .696-.564 1.056-1.668 1.056q-.792 0-1.188-.288c-.264-.216-.444-.564-.516-1.056h-.936c.144 1.428 1.032 2.148 2.664 2.148 1.752 0 2.628-.648 2.628-1.92 0-.54-.252-.96-.744-1.272-.324-.204-.852-.396-1.596-.576-.624-.168-1.056-.3-1.284-.408-.36-.18-.528-.408-.528-.672q0-.414.396-.648c.24-.168.576-.24 1.008-.24.492 0 .876.096 1.14.288.24.168.396.456.48.84h.936c-.168-1.296-1.008-1.932-2.544-1.932m5.58-3.552a10.1 10.1 0 0 0-1.236 2.472 9.5 9.5 0 0 0-.528 3.144c0 1.044.168 2.088.528 3.12.3.864.708 1.692 1.236 2.472h.84a11 11 0 0 1-1.14-2.484 9.6 9.6 0 0 1-.528-3.12c0-1.032.168-2.064.528-3.12.264-.864.648-1.692 1.14-2.484zm2.472 1.188v8.736h.948v-8.736zm3.42.192a.69.69 0 0 0-.516.204c-.144.12-.204.288-.204.504 0 .204.06.372.204.516a.74.74 0 0 0 .516.204.74.74 0 0 0 .516-.204.7.7 0 0 0 .216-.516q0-.324-.216-.504a.69.69 0 0 0-.516-.204m-.48 2.34v6.204h.96v-6.204zm5.664-.168q-.612 0-1.116.288-.504.27-.828.792v-.912h-.96v6.204h.96v-3.744c.036-.564.216-1.008.552-1.344a1.52 1.52 0 0 1 1.116-.468c1.08 0 1.632.6 1.632 1.812v3.744h.96v-3.816c0-1.704-.78-2.556-2.316-2.556m6.36 0c-.9 0-1.608.324-2.136.972-.528.612-.78 1.38-.78 2.292 0 1.008.264 1.8.816 2.4.528.576 1.248.876 2.136.876.804 0 1.464-.24 1.98-.696.42-.384.696-.864.84-1.464h-.96c-.156.432-.36.756-.624.972-.312.252-.732.384-1.236.384-.588 0-1.056-.192-1.392-.576s-.516-.924-.564-1.62h4.896c-.024-1.08-.264-1.932-.72-2.532-.504-.672-1.26-1.008-2.256-1.008m.024.804c1.176 0 1.836.66 1.956 1.992h-3.876c.06-.612.252-1.092.588-1.452q.504-.54 1.332-.54m4.032-4.356c.48.792.864 1.62 1.14 2.484.348 1.056.528 2.088.528 3.12 0 1.02-.18 2.064-.528 3.12-.276.852-.66 1.68-1.14 2.484h.84c.516-.78.924-1.608 1.236-2.472a9.7 9.7 0 0 0 .528-3.12c0-1.068-.18-2.112-.528-3.144a11 11 0 0 0-1.236-2.472zM55.429 91.785l2.34 6.204h.972l2.352-6.204h-1.056l-1.776 5.004-1.776-5.004zm9.168-.168c-.744 0-1.332.144-1.788.432-.504.312-.828.804-.96 1.452l.948.072c.096-.396.3-.696.624-.888.288-.192.66-.276 1.116-.276 1.08 0 1.62.516 1.62 1.56v.324l-1.488.024c-.936.012-1.656.192-2.16.528-.576.36-.852.888-.852 1.596 0 .504.192.924.576 1.248.372.312.864.468 1.488.468a3.15 3.15 0 0 0 1.548-.384c.384-.216.708-.492.948-.828v1.044h.9v-3.984c0-.72-.192-1.284-.552-1.692-.432-.468-1.08-.696-1.968-.696m1.56 3.396v.528c0 .48-.228.912-.672 1.284a2.35 2.35 0 0 1-1.56.576c-.384 0-.696-.096-.936-.276a.85.85 0 0 1-.348-.708c0-.9.696-1.356 2.088-1.38zm2.64-5.76v8.736h.948v-8.736zm2.628 2.532v3.84c0 1.68.744 2.532 2.256 2.532.84 0 1.512-.384 2.016-1.128v.96h.96v-6.204h-.96v3.78q-.108.792-.612 1.296c-.324.312-.696.48-1.104.48-.564 0-.972-.156-1.224-.444s-.372-.732-.372-1.32v-3.792zm9.276-.168c-.9 0-1.608.324-2.136.972-.528.612-.78 1.38-.78 2.292 0 1.008.264 1.8.816 2.4.528.576 1.248.876 2.136.876.804 0 1.464-.24 1.98-.696.42-.384.696-.864.84-1.464h-.96c-.156.432-.36.756-.624.972-.312.252-.732.384-1.236.384-.588 0-1.056-.192-1.392-.576s-.516-.924-.564-1.62h4.896c-.024-1.08-.264-1.932-.72-2.532-.504-.672-1.26-1.008-2.256-1.008m.024.804c1.176 0 1.836.66 1.956 1.992h-3.876c.06-.612.252-1.092.588-1.452q.504-.54 1.332-.54M87 91.617c-.696 0-1.272.156-1.704.468-.468.312-.696.72-.696 1.248s.228.924.708 1.212c.288.192.804.372 1.536.552.672.168 1.116.3 1.32.396.384.192.588.456.588.804 0 .696-.564 1.056-1.668 1.056q-.792 0-1.188-.288c-.264-.216-.444-.564-.516-1.056h-.936c.144 1.428 1.032 2.148 2.664 2.148 1.752 0 2.628-.648 2.628-1.92 0-.54-.252-.96-.744-1.272-.324-.204-.852-.396-1.596-.576-.624-.168-1.056-.3-1.284-.408-.36-.18-.528-.408-.528-.672q0-.414.396-.648c.24-.168.576-.24 1.008-.24.492 0 .876.096 1.14.288.24.168.396.456.48.84h.936c-.168-1.296-1.008-1.932-2.544-1.932m7.716 1.632v.804h6.06v-.804zm0 2.46v.816h6.06v-.816zm11.184-7.644v11.208h2.94v-.804h-2.052v-9.6h2.052v-.804zm31.224 0a10.1 10.1 0 0 0-1.236 2.472 9.5 9.5 0 0 0-.528 3.144c0 1.044.168 2.088.528 3.12.3.864.708 1.692 1.236 2.472h.84a11 11 0 0 1-1.14-2.484 9.6 9.6 0 0 1-.528-3.12c0-1.032.168-2.064.528-3.12.264-.864.648-1.692 1.14-2.484zm1.596 3.72 2.34 6.204h.972l2.352-6.204h-1.056l-1.776 5.004-1.776-5.004zm6.42-3.72c.48.792.864 1.62 1.14 2.484.348 1.056.528 2.088.528 3.12 0 1.02-.18 2.064-.528 3.12-.276.852-.66 1.68-1.14 2.484h.84c.516-.78.924-1.608 1.236-2.472a9.7 9.7 0 0 0 .528-3.12c0-1.068-.18-2.112-.528-3.144a11 11 0 0 0-1.236-2.472zm27.24 3.72 2.34 6.204h.972l2.352-6.204h-1.056l-1.776 5.004-1.776-5.004zm28.824-2.532v3.672c-.48-.876-1.164-1.308-2.052-1.308s-1.572.324-2.076.996c-.468.6-.696 1.344-.696 2.256 0 .936.228 1.704.696 2.304.504.648 1.212.984 2.124.984.936 0 1.632-.396 2.064-1.188v1.02h.9v-8.736zm-1.848 3.156c.552 0 1.008.216 1.356.672.336.444.516 1.032.516 1.752v.12c0 .696-.156 1.26-.456 1.692-.348.48-.828.72-1.452.72-.672 0-1.176-.252-1.512-.732-.3-.432-.444-1.02-.444-1.764s.144-1.32.456-1.74c.336-.48.852-.72 1.536-.72m6.996-.792c-.744 0-1.332.144-1.788.432-.504.312-.828.804-.96 1.452l.948.072c.096-.396.3-.696.624-.888.288-.192.66-.276 1.116-.276 1.08 0 1.62.516 1.62 1.56v.324l-1.488.024c-.936.012-1.656.192-2.16.528-.576.36-.852.888-.852 1.596 0 .504.192.924.576 1.248.372.312.864.468 1.488.468a3.15 3.15 0 0 0 1.548-.384c.384-.216.708-.492.948-.828v1.044h.9v-3.984c0-.72-.192-1.284-.552-1.692-.432-.468-1.08-.696-1.968-.696m1.56 3.396v.528c0 .48-.228.912-.672 1.284a2.35 2.35 0 0 1-1.56.576c-.384 0-.696-.096-.936-.276a.85.85 0 0 1-.348-.708c0-.9.696-1.356 2.088-1.38zm4.104-5.232-.948.396v1.608h-1.248v.804h1.248v3.948c0 .468.096.816.3 1.056.216.264.588.396 1.092.396h.936v-.804h-.792c-.216 0-.372-.06-.456-.156-.096-.096-.132-.264-.132-.492v-3.948h1.536v-.804h-1.536zm5.304 1.836c-.744 0-1.332.144-1.788.432-.504.312-.828.804-.96 1.452l.948.072c.096-.396.3-.696.624-.888.288-.192.66-.276 1.116-.276 1.08 0 1.62.516 1.62 1.56v.324l-1.488.024c-.936.012-1.656.192-2.16.528-.576.36-.852.888-.852 1.596 0 .504.192.924.576 1.248.372.312.864.468 1.488.468a3.15 3.15 0 0 0 1.548-.384c.384-.216.708-.492.948-.828v1.044h.9v-3.984c0-.72-.192-1.284-.552-1.692-.432-.468-1.08-.696-1.968-.696m1.56 3.396v.528c0 .48-.228.912-.672 1.284a2.35 2.35 0 0 1-1.56.576c-.384 0-.696-.096-.936-.276a.85.85 0 0 1-.348-.708c0-.9.696-1.356 2.088-1.38zm3.288 1.548a.66.66 0 0 0-.516.216.7.7 0 0 0-.216.528c0 .204.072.372.216.516.132.144.3.216.516.216a.72.72 0 0 0 .516-.216.7.7 0 0 0 .216-.516.7.7 0 0 0-.216-.528.72.72 0 0 0-.516-.216m1.644-4.776 2.34 6.204h.972l2.352-6.204h-1.056l-1.776 5.004-1.776-5.004zm9.168-.168c-.744 0-1.332.144-1.788.432-.504.312-.828.804-.96 1.452l.948.072c.096-.396.3-.696.624-.888.288-.192.66-.276 1.116-.276 1.08 0 1.62.516 1.62 1.56v.324l-1.488.024c-.936.012-1.656.192-2.16.528-.576.36-.852.888-.852 1.596 0 .504.192.924.576 1.248.372.312.864.468 1.488.468a3.15 3.15 0 0 0 1.548-.384c.384-.216.708-.492.948-.828v1.044h.9v-3.984c0-.72-.192-1.284-.552-1.692-.432-.468-1.08-.696-1.968-.696m1.56 3.396v.528c0 .48-.228.912-.672 1.284a2.35 2.35 0 0 1-1.56.576c-.384 0-.696-.096-.936-.276a.85.85 0 0 1-.348-.708c0-.9.696-1.356 2.088-1.38zm2.64-5.76v8.736h.948v-8.736zm2.628 2.532v3.84c0 1.68.744 2.532 2.256 2.532.84 0 1.512-.384 2.016-1.128v.96h.96v-6.204h-.96v3.78q-.108.792-.612 1.296c-.324.312-.696.48-1.104.48-.564 0-.972-.156-1.224-.444s-.372-.732-.372-1.32v-3.792zm9.276-.168c-.9 0-1.608.324-2.136.972-.528.612-.78 1.38-.78 2.292 0 1.008.264 1.8.816 2.4.528.576 1.248.876 2.136.876.804 0 1.464-.24 1.98-.696.42-.384.696-.864.84-1.464h-.96c-.156.432-.36.756-.624.972-.312.252-.732.384-1.236.384-.588 0-1.056-.192-1.392-.576s-.516-.924-.564-1.62h4.896c-.024-1.08-.264-1.932-.72-2.532-.504-.672-1.26-1.008-2.256-1.008m.024.804c1.176 0 1.836.66 1.956 1.992h-3.876c.06-.612.252-1.092.588-1.452q.504-.54 1.332-.54m6.276-.804c-.696 0-1.272.156-1.704.468-.468.312-.696.72-.696 1.248s.228.924.708 1.212c.288.192.804.372 1.536.552.672.168 1.116.3 1.32.396.384.192.588.456.588.804 0 .696-.564 1.056-1.668 1.056q-.792 0-1.188-.288c-.264-.216-.444-.564-.516-1.056h-.936c.144 1.428 1.032 2.148 2.664 2.148 1.752 0 2.628-.648 2.628-1.92 0-.54-.252-.96-.744-1.272-.324-.204-.852-.396-1.596-.576-.624-.168-1.056-.3-1.284-.408-.36-.18-.528-.408-.528-.672q0-.414.396-.648c.24-.168.576-.24 1.008-.24.492 0 .876.096 1.14.288.24.168.396.456.48.84h.936c-.168-1.296-1.008-1.932-2.544-1.932m5.58-3.552a10.1 10.1 0 0 0-1.236 2.472 9.5 9.5 0 0 0-.528 3.144c0 1.044.168 2.088.528 3.12.3.864.708 1.692 1.236 2.472h.84a11 11 0 0 1-1.14-2.484 9.6 9.6 0 0 1-.528-3.12c0-1.032.168-2.064.528-3.12.264-.864.648-1.692 1.14-2.484zm2.232 0c.48.792.864 1.62 1.14 2.484.348 1.056.528 2.088.528 3.12 0 1.02-.18 2.064-.528 3.12-.276.852-.66 1.68-1.14 2.484h.84c.516-.78.924-1.608 1.236-2.472a9.7 9.7 0 0 0 .528-3.12c0-1.068-.18-2.112-.528-3.144a11 11 0 0 0-1.236-2.472zm77.172 0a10.1 10.1 0 0 0-1.236 2.472 9.5 9.5 0 0 0-.528 3.144c0 1.044.168 2.088.528 3.12.3.864.708 1.692 1.236 2.472h.84a11 11 0 0 1-1.14-2.484 9.6 9.6 0 0 1-.528-3.12c0-1.032.168-2.064.528-3.12.264-.864.648-1.692 1.14-2.484zm1.596 3.72 2.34 6.204h.972l2.352-6.204h-1.056l-1.776 5.004-1.776-5.004zm7.308 4.776c-.24 0-.42.06-.552.204-.156.132-.228.312-.228.54 0 .204.072.384.216.528a.7.7 0 0 0 .516.216.7.7 0 0 0 .264-.048c0 .288-.084.552-.264.804a1.67 1.67 0 0 1-.768.528v.588a2.3 2.3 0 0 0 1.248-.78q.468-.612.468-1.404c0-.348-.084-.624-.24-.84a.79.79 0 0 0-.66-.336m8.04-8.496a10.1 10.1 0 0 0-1.236 2.472 9.5 9.5 0 0 0-.528 3.144c0 1.044.168 2.088.528 3.12.3.864.708 1.692 1.236 2.472h.84a11 11 0 0 1-1.14-2.484 9.6 9.6 0 0 1-.528-3.12c0-1.032.168-2.064.528-3.12.264-.864.648-1.692 1.14-2.484zm17.16 8.496c-.24 0-.42.06-.552.204-.156.132-.228.312-.228.54 0 .204.072.384.216.528a.7.7 0 0 0 .516.216.7.7 0 0 0 .264-.048c0 .288-.084.552-.264.804a1.67 1.67 0 0 1-.768.528v.588a2.3 2.3 0 0 0 1.248-.78q.468-.612.468-1.404c0-.348-.084-.624-.24-.84a.79.79 0 0 0-.66-.336m31.572-8.496c.48.792.864 1.62 1.14 2.484.348 1.056.528 2.088.528 3.12 0 1.02-.18 2.064-.528 3.12-.276.852-.66 1.68-1.14 2.484h.84c.516-.78.924-1.608 1.236-2.472a9.7 9.7 0 0 0 .528-3.12c0-1.068-.18-2.112-.528-3.144a11 11 0 0 0-1.236-2.472zm3.996 0c.48.792.864 1.62 1.14 2.484.348 1.056.528 2.088.528 3.12 0 1.02-.18 2.064-.528 3.12-.276.852-.66 1.68-1.14 2.484h.84c.516-.78.924-1.608 1.236-2.472a9.7 9.7 0 0 0 .528-3.12c0-1.068-.18-2.112-.528-3.144a11 11 0 0 0-1.236-2.472zm3.828 0v.804h2.052v9.6h-2.052v.804h2.94V88.065zm-346.896 19.72 2.34 6.204h.972l2.352-6.204H71.58l-1.776 5.004-1.776-5.004zm9.168-.168c-.744 0-1.332.144-1.788.432-.504.312-.828.804-.96 1.452l.948.072c.096-.396.3-.696.624-.888.288-.192.66-.276 1.116-.276 1.08 0 1.62.516 1.62 1.56v.324l-1.488.024c-.936.012-1.656.192-2.16.528-.576.36-.852.888-.852 1.596 0 .504.192.924.576 1.248.372.312.864.468 1.488.468a3.15 3.15 0 0 0 1.548-.384c.384-.216.708-.492.948-.828v1.044h.9v-3.984c0-.72-.192-1.284-.552-1.692-.432-.468-1.08-.696-1.968-.696m1.56 3.396v.528c0 .48-.228.912-.672 1.284a2.35 2.35 0 0 1-1.56.576c-.384 0-.696-.096-.936-.276a.85.85 0 0 1-.348-.708c0-.9.696-1.356 2.088-1.38zm2.64-5.76v8.736h.948v-8.736zm2.628 2.532v3.84c0 1.68.744 2.532 2.256 2.532.84 0 1.512-.384 2.016-1.128v.96h.96v-6.204h-.96v3.78q-.108.792-.612 1.296c-.324.312-.696.48-1.104.48-.564 0-.972-.156-1.224-.444s-.372-.732-.372-1.32v-3.792zm9.276-.168c-.9 0-1.608.324-2.136.972-.528.612-.78 1.38-.78 2.292 0 1.008.264 1.8.816 2.4.528.576 1.248.876 2.136.876.804 0 1.464-.24 1.98-.696.42-.384.696-.864.84-1.464h-.96c-.156.432-.36.756-.624.972-.312.252-.732.384-1.236.384-.588 0-1.056-.192-1.392-.576s-.516-.924-.564-1.62h4.896c-.024-1.08-.264-1.932-.72-2.532-.504-.672-1.26-1.008-2.256-1.008m.024.804c1.176 0 1.836.66 1.956 1.992h-3.876c.06-.612.252-1.092.588-1.452q.504-.54 1.332-.54m6.276-.804c-.696 0-1.272.156-1.704.468-.468.312-.696.72-.696 1.248s.228.924.708 1.212c.288.192.804.372 1.536.552.672.168 1.116.3 1.32.396.384.192.588.456.588.804 0 .696-.564 1.056-1.668 1.056q-.792 0-1.188-.288c-.264-.216-.444-.564-.516-1.056h-.936c.144 1.428 1.032 2.148 2.664 2.148 1.752 0 2.628-.648 2.628-1.92 0-.54-.252-.96-.744-1.272-.324-.204-.852-.396-1.596-.576-.624-.168-1.056-.3-1.284-.408-.36-.18-.528-.408-.528-.672q0-.414.396-.648c.24-.168.576-.24 1.008-.24.492 0 .876.096 1.14.288.24.168.396.456.48.84h.936c-.168-1.296-1.008-1.932-2.544-1.932m4.704.528a.66.66 0 0 0-.516.216.7.7 0 0 0-.216.516c0 .204.072.384.216.528.132.132.3.204.516.204a.76.76 0 0 0 .516-.204.73.73 0 0 0 .216-.528.7.7 0 0 0-.216-.516.72.72 0 0 0-.516-.216m0 4.392a.66.66 0 0 0-.516.216.7.7 0 0 0-.216.516c0 .204.072.384.216.528.132.132.3.204.516.204a.76.76 0 0 0 .516-.204.73.73 0 0 0 .216-.528.7.7 0 0 0-.216-.516.72.72 0 0 0-.516-.216m-22.572 8.716v3.672c-.48-.876-1.164-1.308-2.052-1.308s-1.572.324-2.076.996c-.468.6-.696 1.344-.696 2.256 0 .936.228 1.704.696 2.304.504.648 1.212.984 2.124.984.936 0 1.632-.396 2.064-1.188v1.02h.9v-8.736zm-1.848 3.156c.552 0 1.008.216 1.356.672.336.444.516 1.032.516 1.752v.12c0 .696-.156 1.26-.456 1.692-.348.48-.828.72-1.452.72-.672 0-1.176-.252-1.512-.732-.3-.432-.444-1.02-.444-1.764s.144-1.32.456-1.74c.336-.48.852-.72 1.536-.72m6.996-.792c-.744 0-1.332.144-1.788.432-.504.312-.828.804-.96 1.452l.948.072c.096-.396.3-.696.624-.888.288-.192.66-.276 1.116-.276 1.08 0 1.62.516 1.62 1.56v.324l-1.488.024c-.936.012-1.656.192-2.16.528-.576.36-.852.888-.852 1.596 0 .504.192.924.576 1.248.372.312.864.468 1.488.468a3.15 3.15 0 0 0 1.548-.384c.384-.216.708-.492.948-.828v1.044h.9v-3.984c0-.72-.192-1.284-.552-1.692-.432-.468-1.08-.696-1.968-.696m1.56 3.396v.528c0 .48-.228.912-.672 1.284a2.35 2.35 0 0 1-1.56.576c-.384 0-.696-.096-.936-.276a.85.85 0 0 1-.348-.708c0-.9.696-1.356 2.088-1.38zm4.104-5.232-.948.396v1.608h-1.248v.804h1.248v3.948c0 .468.096.816.3 1.056.216.264.588.396 1.092.396h.936v-.804h-.792c-.216 0-.372-.06-.456-.156-.096-.096-.132-.264-.132-.492v-3.948h1.536v-.804h-1.536zm5.304 1.836c-.744 0-1.332.144-1.788.432-.504.312-.828.804-.96 1.452l.948.072c.096-.396.3-.696.624-.888.288-.192.66-.276 1.116-.276 1.08 0 1.62.516 1.62 1.56v.324l-1.488.024c-.936.012-1.656.192-2.16.528-.576.36-.852.888-.852 1.596 0 .504.192.924.576 1.248.372.312.864.468 1.488.468a3.15 3.15 0 0 0 1.548-.384c.384-.216.708-.492.948-.828v1.044h.9v-3.984c0-.72-.192-1.284-.552-1.692-.432-.468-1.08-.696-1.968-.696m1.56 3.396v.528c0 .48-.228.912-.672 1.284a2.35 2.35 0 0 1-1.56.576c-.384 0-.696-.096-.936-.276a.85.85 0 0 1-.348-.708c0-.9.696-1.356 2.088-1.38zm2.232-6.948v11.208h2.94v-.804h-2.052v-9.6h2.052v-.804zm4.428 1.356.12 2.988h.78l.108-2.988zm46.92 0 .12 2.988h.78l.108-2.988zm2.496-1.356v.804h2.052v9.6h-2.052v.804h2.94v-11.208zm8.064 5.184v.804h6.06v-.804zm0 2.46v.816h6.06v-.816zm36.156-7.644a10.1 10.1 0 0 0-1.236 2.472 9.5 9.5 0 0 0-.528 3.144c0 1.044.168 2.088.528 3.12.3.864.708 1.692 1.236 2.472h.84a11 11 0 0 1-1.14-2.484 9.6 9.6 0 0 1-.528-3.12c0-1.032.168-2.064.528-3.12.264-.864.648-1.692 1.14-2.484zm1.596 3.72 2.34 6.204h.972l2.352-6.204h-1.056l-1.776 5.004-1.776-5.004zm9.168-.168c-.744 0-1.332.144-1.788.432-.504.312-.828.804-.96 1.452l.948.072c.096-.396.3-.696.624-.888.288-.192.66-.276 1.116-.276 1.08 0 1.62.516 1.62 1.56v.324l-1.488.024c-.936.012-1.656.192-2.16.528-.576.36-.852.888-.852 1.596 0 .504.192.924.576 1.248.372.312.864.468 1.488.468a3.15 3.15 0 0 0 1.548-.384c.384-.216.708-.492.948-.828v1.044h.9v-3.984c0-.72-.192-1.284-.552-1.692-.432-.468-1.08-.696-1.968-.696m1.56 3.396v.528c0 .48-.228.912-.672 1.284a2.35 2.35 0 0 1-1.56.576c-.384 0-.696-.096-.936-.276a.85.85 0 0 1-.348-.708c0-.9.696-1.356 2.088-1.38zm2.64-5.76v8.736h.948v-8.736zm2.628 2.532v3.84c0 1.68.744 2.532 2.256 2.532.84 0 1.512-.384 2.016-1.128v.96h.96v-6.204h-.96v3.78q-.108.792-.612 1.296c-.324.312-.696.48-1.104.48-.564 0-.972-.156-1.224-.444s-.372-.732-.372-1.32v-3.792zm9.276-.168c-.9 0-1.608.324-2.136.972-.528.612-.78 1.38-.78 2.292 0 1.008.264 1.8.816 2.4.528.576 1.248.876 2.136.876.804 0 1.464-.24 1.98-.696.42-.384.696-.864.84-1.464h-.96c-.156.432-.36.756-.624.972-.312.252-.732.384-1.236.384-.588 0-1.056-.192-1.392-.576s-.516-.924-.564-1.62h4.896c-.024-1.08-.264-1.932-.72-2.532-.504-.672-1.26-1.008-2.256-1.008m.024.804c1.176 0 1.836.66 1.956 1.992h-3.876c.06-.612.252-1.092.588-1.452q.504-.54 1.332-.54m6.276-.804c-.696 0-1.272.156-1.704.468-.468.312-.696.72-.696 1.248s.228.924.708 1.212c.288.192.804.372 1.536.552.672.168 1.116.3 1.32.396.384.192.588.456.588.804 0 .696-.564 1.056-1.668 1.056q-.792 0-1.188-.288c-.264-.216-.444-.564-.516-1.056h-.936c.144 1.428 1.032 2.148 2.664 2.148 1.752 0 2.628-.648 2.628-1.92 0-.54-.252-.96-.744-1.272-.324-.204-.852-.396-1.596-.576-.624-.168-1.056-.3-1.284-.408-.36-.18-.528-.408-.528-.672q0-.414.396-.648c.24-.168.576-.24 1.008-.24.492 0 .876.096 1.14.288.24.168.396.456.48.84h.936c-.168-1.296-1.008-1.932-2.544-1.932m3.816-3.552c.48.792.864 1.62 1.14 2.484.348 1.056.528 2.088.528 3.12 0 1.02-.18 2.064-.528 3.12-.276.852-.66 1.68-1.14 2.484h.84c.516-.78.924-1.608 1.236-2.472a9.7 9.7 0 0 0 .528-3.12c0-1.068-.18-2.112-.528-3.144a11 11 0 0 0-1.236-2.472zm12 .084-4.26 11.04h.864l4.248-11.04zm23.94-.084a10.1 10.1 0 0 0-1.236 2.472 9.5 9.5 0 0 0-.528 3.144c0 1.044.168 2.088.528 3.12.3.864.708 1.692 1.236 2.472h.84a11 11 0 0 1-1.14-2.484 9.6 9.6 0 0 1-.528-3.12c0-1.032.168-2.064.528-3.12.264-.864.648-1.692 1.14-2.484zm1.596 3.72 2.34 6.204h.972l2.352-6.204h-1.056L276 128.789l-1.776-5.004zm9.168-.168c-.744 0-1.332.144-1.788.432-.504.312-.828.804-.96 1.452l.948.072c.096-.396.3-.696.624-.888.288-.192.66-.276 1.116-.276 1.08 0 1.62.516 1.62 1.56v.324l-1.488.024c-.936.012-1.656.192-2.16.528-.576.36-.852.888-.852 1.596 0 .504.192.924.576 1.248.372.312.864.468 1.488.468a3.15 3.15 0 0 0 1.548-.384c.384-.216.708-.492.948-.828v1.044h.9v-3.984c0-.72-.192-1.284-.552-1.692-.432-.468-1.08-.696-1.968-.696m1.56 3.396v.528c0 .48-.228.912-.672 1.284a2.35 2.35 0 0 1-1.56.576c-.384 0-.696-.096-.936-.276a.85.85 0 0 1-.348-.708c0-.9.696-1.356 2.088-1.38zm2.64-5.76v8.736h.948v-8.736zm2.628 2.532v3.84c0 1.68.744 2.532 2.256 2.532.84 0 1.512-.384 2.016-1.128v.96h.96v-6.204h-.96v3.78q-.108.792-.612 1.296c-.324.312-.696.48-1.104.48-.564 0-.972-.156-1.224-.444s-.372-.732-.372-1.32v-3.792zm9.276-.168c-.9 0-1.608.324-2.136.972-.528.612-.78 1.38-.78 2.292 0 1.008.264 1.8.816 2.4.528.576 1.248.876 2.136.876.804 0 1.464-.24 1.98-.696.42-.384.696-.864.84-1.464h-.96c-.156.432-.36.756-.624.972-.312.252-.732.384-1.236.384-.588 0-1.056-.192-1.392-.576s-.516-.924-.564-1.62h4.896c-.024-1.08-.264-1.932-.72-2.532-.504-.672-1.26-1.008-2.256-1.008m.024.804c1.176 0 1.836.66 1.956 1.992h-3.876c.06-.612.252-1.092.588-1.452q.504-.54 1.332-.54m6.276-.804c-.696 0-1.272.156-1.704.468-.468.312-.696.72-.696 1.248s.228.924.708 1.212c.288.192.804.372 1.536.552.672.168 1.116.3 1.32.396.384.192.588.456.588.804 0 .696-.564 1.056-1.668 1.056q-.792 0-1.188-.288c-.264-.216-.444-.564-.516-1.056h-.936c.144 1.428 1.032 2.148 2.664 2.148 1.752 0 2.628-.648 2.628-1.92 0-.54-.252-.96-.744-1.272-.324-.204-.852-.396-1.596-.576-.624-.168-1.056-.3-1.284-.408-.36-.18-.528-.408-.528-.672q0-.414.396-.648c.24-.168.576-.24 1.008-.24.492 0 .876.096 1.14.288.24.168.396.456.48.84h.936c-.168-1.296-1.008-1.932-2.544-1.932m3.816-3.552c.48.792.864 1.62 1.14 2.484.348 1.056.528 2.088.528 3.12 0 1.02-.18 2.064-.528 3.12-.276.852-.66 1.68-1.14 2.484h.84c.516-.78.924-1.608 1.236-2.472a9.7 9.7 0 0 0 .528-3.12c0-1.068-.18-2.112-.528-3.144a11 11 0 0 0-1.236-2.472zm-269.7 35.552c-.432 0-.804.132-1.128.396-.264.204-.48.492-.648.852v-1.08h-.948v6.204h.948v-3.288c0-.576.156-1.068.492-1.476.324-.432.732-.636 1.212-.636.3 0 .612.036.924.132v-.96c-.228-.096-.516-.144-.852-.144m4.212 0c-.9 0-1.608.324-2.136.972-.528.612-.78 1.38-.78 2.292 0 1.008.264 1.8.816 2.4.528.576 1.248.876 2.136.876.804 0 1.464-.24 1.98-.696.42-.384.696-.864.84-1.464h-.96c-.156.432-.36.756-.624.972-.312.252-.732.384-1.236.384-.588 0-1.056-.192-1.392-.576s-.516-.924-.564-1.62h4.896c-.024-1.08-.264-1.932-.72-2.532-.504-.672-1.26-1.008-2.256-1.008m.024.804c1.176 0 1.836.66 1.956 1.992h-3.876c.06-.612.252-1.092.588-1.452q.504-.54 1.332-.54m6.276-.804c-.696 0-1.272.156-1.704.468-.468.312-.696.72-.696 1.248s.228.924.708 1.212c.288.192.804.372 1.536.552.672.168 1.116.3 1.32.396.384.192.588.456.588.804 0 .696-.564 1.056-1.668 1.056q-.792 0-1.188-.288c-.264-.216-.444-.564-.516-1.056h-.936c.144 1.428 1.032 2.148 2.664 2.148 1.752 0 2.628-.648 2.628-1.92 0-.54-.252-.96-.744-1.272-.324-.204-.852-.396-1.596-.576-.624-.168-1.056-.3-1.284-.408-.36-.18-.528-.408-.528-.672q0-.414.396-.648c.24-.168.576-.24 1.008-.24.492 0 .876.096 1.14.288.24.168.396.456.48.84h.936c-.168-1.296-1.008-1.932-2.544-1.932m3.864.168v3.84c0 1.68.744 2.532 2.256 2.532.84 0 1.512-.384 2.016-1.128v.96h.96v-6.204h-.96v3.78q-.108.792-.612 1.296c-.324.312-.696.48-1.104.48-.564 0-.972-.156-1.224-.444s-.372-.732-.372-1.32v-3.792zm6.912-2.532v8.736h.948v-8.736zm4.284.528-.948.396v1.608h-1.248v.804h1.248v3.948c0 .468.096.816.3 1.056.216.264.588.396 1.092.396h.936v-.804h-.792c-.216 0-.372-.06-.456-.156-.096-.096-.132-.264-.132-.492v-3.948h1.536v-.804h-1.536zm6.456 3.468v.804h6.06v-.804zm0 2.46v.816h6.06v-.816zm14.364-4.092c-.936 0-1.62.396-2.064 1.188v-1.02h-.9v8.58h.96v-3.504q.72 1.296 2.052 1.296c.888 0 1.572-.336 2.076-.984.456-.6.696-1.356.696-2.268 0-.936-.24-1.692-.708-2.292-.516-.672-1.224-.996-2.112-.996m-.12.792c.66 0 1.164.24 1.512.744.288.432.444 1.02.444 1.752q0 1.116-.468 1.764c-.348.456-.852.696-1.524.696-.576 0-1.02-.228-1.356-.66-.36-.444-.528-1.02-.528-1.74v-.12c0-.696.156-1.272.468-1.704.336-.492.828-.732 1.452-.732m6.912-.792c-.432 0-.804.132-1.128.396-.264.204-.48.492-.648.852v-1.08h-.948v6.204h.948v-3.288c0-.576.156-1.068.492-1.476.324-.432.732-.636 1.212-.636.3 0 .612.036.924.132v-.96c-.228-.096-.516-.144-.852-.144m4.428 0c-.936 0-1.668.312-2.22.96-.528.612-.792 1.38-.792 2.316 0 .924.264 1.692.792 2.292.552.648 1.284.972 2.22.972q1.386 0 2.232-.972c.516-.6.78-1.368.78-2.292 0-.936-.264-1.704-.792-2.316-.552-.648-1.296-.96-2.22-.96m0 .804q.972 0 1.548.756c.324.456.492 1.02.492 1.716 0 .672-.168 1.248-.492 1.704q-.576.756-1.548.756c-.66 0-1.176-.252-1.536-.756-.336-.456-.492-1.02-.492-1.704 0-.696.156-1.26.492-1.716.36-.504.876-.756 1.536-.756m6.936-.804c-.924 0-1.656.324-2.184.984-.492.6-.732 1.368-.732 2.316s.24 1.716.732 2.304c.516.624 1.236.936 2.172.936.768 0 1.38-.204 1.848-.6.48-.408.78-1.02.924-1.812h-.96c-.144 1.068-.756 1.608-1.812 1.608-.624 0-1.104-.228-1.428-.66-.336-.432-.492-1.032-.492-1.788q0-1.134.504-1.8c.348-.456.828-.684 1.428-.684.492 0 .888.108 1.2.348q.45.36.576 1.08h.948c-.108-.756-.396-1.32-.876-1.692-.468-.36-1.08-.54-1.848-.54m6.444 0c-.9 0-1.608.324-2.136.972-.528.612-.78 1.38-.78 2.292 0 1.008.264 1.8.816 2.4.528.576 1.248.876 2.136.876.804 0 1.464-.24 1.98-.696.42-.384.696-.864.84-1.464h-.96c-.156.432-.36.756-.624.972-.312.252-.732.384-1.236.384-.588 0-1.056-.192-1.392-.576s-.516-.924-.564-1.62h4.896c-.024-1.08-.264-1.932-.72-2.532-.504-.672-1.26-1.008-2.256-1.008m.024.804c1.176 0 1.836.66 1.956 1.992h-3.876c.06-.612.252-1.092.588-1.452q.504-.54 1.332-.54m6.276-.804c-.696 0-1.272.156-1.704.468-.468.312-.696.72-.696 1.248s.228.924.708 1.212c.288.192.804.372 1.536.552.672.168 1.116.3 1.32.396.384.192.588.456.588.804 0 .696-.564 1.056-1.668 1.056q-.792 0-1.188-.288c-.264-.216-.444-.564-.516-1.056h-.936c.144 1.428 1.032 2.148 2.664 2.148 1.752 0 2.628-.648 2.628-1.92 0-.54-.252-.96-.744-1.272-.324-.204-.852-.396-1.596-.576-.624-.168-1.056-.3-1.284-.408-.36-.18-.528-.408-.528-.672q0-.414.396-.648c.24-.168.576-.24 1.008-.24.492 0 .876.096 1.14.288.24.168.396.456.48.84h.936c-.168-1.296-1.008-1.932-2.544-1.932m6.06 0c-.696 0-1.272.156-1.704.468-.468.312-.696.72-.696 1.248s.228.924.708 1.212c.288.192.804.372 1.536.552.672.168 1.116.3 1.32.396.384.192.588.456.588.804 0 .696-.564 1.056-1.668 1.056q-.792 0-1.188-.288c-.264-.216-.444-.564-.516-1.056h-.936c.144 1.428 1.032 2.148 2.664 2.148 1.752 0 2.628-.648 2.628-1.92 0-.54-.252-.96-.744-1.272-.324-.204-.852-.396-1.596-.576-.624-.168-1.056-.3-1.284-.408-.36-.18-.528-.408-.528-.672q0-.414.396-.648c.24-.168.576-.24 1.008-.24.492 0 .876.096 1.14.288.24.168.396.456.48.84h.936c-.168-1.296-1.008-1.932-2.544-1.932m3.12 7.248v.804h6v-.804zm11.328-9.612v3.672c-.48-.876-1.164-1.308-2.052-1.308s-1.572.324-2.076.996c-.468.6-.696 1.344-.696 2.256 0 .936.228 1.704.696 2.304.504.648 1.212.984 2.124.984.936 0 1.632-.396 2.064-1.188v1.02h.9v-8.736zm-1.848 3.156c.552 0 1.008.216 1.356.672.336.444.516 1.032.516 1.752v.12c0 .696-.156 1.26-.456 1.692-.348.48-.828.72-1.452.72-.672 0-1.176-.252-1.512-.732-.3-.432-.444-1.02-.444-1.764s.144-1.32.456-1.74c.336-.48.852-.72 1.536-.72m6.996-.792c-.744 0-1.332.144-1.788.432-.504.312-.828.804-.96 1.452l.948.072c.096-.396.3-.696.624-.888.288-.192.66-.276 1.116-.276 1.08 0 1.62.516 1.62 1.56v.324l-1.488.024c-.936.012-1.656.192-2.16.528-.576.36-.852.888-.852 1.596 0 .504.192.924.576 1.248.372.312.864.468 1.488.468a3.15 3.15 0 0 0 1.548-.384c.384-.216.708-.492.948-.828v1.044h.9v-3.984c0-.72-.192-1.284-.552-1.692-.432-.468-1.08-.696-1.968-.696m1.56 3.396v.528c0 .48-.228.912-.672 1.284a2.35 2.35 0 0 1-1.56.576c-.384 0-.696-.096-.936-.276a.85.85 0 0 1-.348-.708c0-.9.696-1.356 2.088-1.38zm4.104-5.232-.948.396v1.608h-1.248v.804h1.248v3.948c0 .468.096.816.3 1.056.216.264.588.396 1.092.396h.936v-.804h-.792c-.216 0-.372-.06-.456-.156-.096-.096-.132-.264-.132-.492v-3.948h1.536v-.804h-1.536zm5.304 1.836c-.744 0-1.332.144-1.788.432-.504.312-.828.804-.96 1.452l.948.072c.096-.396.3-.696.624-.888.288-.192.66-.276 1.116-.276 1.08 0 1.62.516 1.62 1.56v.324l-1.488.024c-.936.012-1.656.192-2.16.528-.576.36-.852.888-.852 1.596 0 .504.192.924.576 1.248.372.312.864.468 1.488.468a3.15 3.15 0 0 0 1.548-.384c.384-.216.708-.492.948-.828v1.044h.9v-3.984c0-.72-.192-1.284-.552-1.692-.432-.468-1.08-.696-1.968-.696m1.56 3.396v.528c0 .48-.228.912-.672 1.284a2.35 2.35 0 0 1-1.56.576c-.384 0-.696-.096-.936-.276a.85.85 0 0 1-.348-.708c0-.9.696-1.356 2.088-1.38zm4.164-6.948a10.1 10.1 0 0 0-1.236 2.472 9.5 9.5 0 0 0-.528 3.144c0 1.044.168 2.088.528 3.12.3.864.708 1.692 1.236 2.472h.84a11 11 0 0 1-1.14-2.484 9.6 9.6 0 0 1-.528-3.12c0-1.032.168-2.064.528-3.12.264-.864.648-1.692 1.14-2.484zm113.82 8.496c-.24 0-.42.06-.552.204-.156.132-.228.312-.228.54 0 .204.072.384.216.528a.7.7 0 0 0 .516.216.7.7 0 0 0 .264-.048c0 .288-.084.552-.264.804a1.67 1.67 0 0 1-.768.528v.588a2.3 2.3 0 0 0 1.248-.78q.468-.612.468-1.404c0-.348-.084-.624-.24-.84a.79.79 0 0 0-.66-.336m20.676-8.496c.48.792.864 1.62 1.14 2.484.348 1.056.528 2.088.528 3.12 0 1.02-.18 2.064-.528 3.12-.276.852-.66 1.68-1.14 2.484h.84c.516-.78.924-1.608 1.236-2.472a9.7 9.7 0 0 0 .528-3.12c0-1.068-.18-2.112-.528-3.144a11 11 0 0 0-1.236-2.472zm-229.692 16a10.1 10.1 0 0 0-1.236 2.472 9.5 9.5 0 0 0-.528 3.144c0 1.044.168 2.088.528 3.12.3.864.708 1.692 1.236 2.472h.84a11 11 0 0 1-1.14-2.484 9.6 9.6 0 0 1-.528-3.12c0-1.032.168-2.064.528-3.12.264-.864.648-1.692 1.14-2.484zm76.2 0c-.492 0-.876.156-1.14.468-.264.288-.384.696-.384 1.2v2.436c0 .36-.084.624-.228.792-.168.192-.48.288-.912.312v.792c.432.012.744.12.912.312.144.168.228.432.228.792v2.448c0 .504.12.9.384 1.188.264.312.648.468 1.14.468h.828v-.756h-.672c-.528 0-.792-.3-.792-.876v-2.508c0-.708-.336-1.2-.984-1.464.648-.252.984-.744.984-1.464v-2.496c0-.6.264-.888.792-.888h.672v-.756zm4.548 3.552c-.432 0-.804.132-1.128.396-.264.204-.48.492-.648.852v-1.08h-.948v6.204h.948v-3.288c0-.576.156-1.068.492-1.476.324-.432.732-.636 1.212-.636.3 0 .612.036.924.132v-.96c-.228-.096-.516-.144-.852-.144m4.212 0c-.9 0-1.608.324-2.136.972-.528.612-.78 1.38-.78 2.292 0 1.008.264 1.8.816 2.4.528.576 1.248.876 2.136.876.804 0 1.464-.24 1.98-.696.42-.384.696-.864.84-1.464h-.96c-.156.432-.36.756-.624.972-.312.252-.732.384-1.236.384-.588 0-1.056-.192-1.392-.576s-.516-.924-.564-1.62h4.896c-.024-1.08-.264-1.932-.72-2.532-.504-.672-1.26-1.008-2.256-1.008m.024.804c1.176 0 1.836.66 1.956 1.992h-3.876c.06-.612.252-1.092.588-1.452q.504-.54 1.332-.54m6.276-.804c-.696 0-1.272.156-1.704.468-.468.312-.696.72-.696 1.248s.228.924.708 1.212c.288.192.804.372 1.536.552.672.168 1.116.3 1.32.396.384.192.588.456.588.804 0 .696-.564 1.056-1.668 1.056q-.792 0-1.188-.288c-.264-.216-.444-.564-.516-1.056h-.936c.144 1.428 1.032 2.148 2.664 2.148 1.752 0 2.628-.648 2.628-1.92 0-.54-.252-.96-.744-1.272-.324-.204-.852-.396-1.596-.576-.624-.168-1.056-.3-1.284-.408-.36-.18-.528-.408-.528-.672q0-.414.396-.648c.24-.168.576-.24 1.008-.24.492 0 .876.096 1.14.288.24.168.396.456.48.84h.936c-.168-1.296-1.008-1.932-2.544-1.932m3.864.168v3.84c0 1.68.744 2.532 2.256 2.532.84 0 1.512-.384 2.016-1.128v.96h.96v-6.204h-.96v3.78q-.108.792-.612 1.296c-.324.312-.696.48-1.104.48-.564 0-.972-.156-1.224-.444s-.372-.732-.372-1.32v-3.792zm6.912-2.532v8.736h.948v-8.736zm4.284.528-.948.396v1.608h-1.248v.804h1.248v3.948c0 .468.096.816.3 1.056.216.264.588.396 1.092.396H171v-.804h-.792c-.216 0-.372-.06-.456-.156-.096-.096-.132-.264-.132-.492v-3.948h1.536v-.804h-1.536zm2.388-1.716v11.208h2.94v-.804h-2.052v-9.6h2.052v-.804zm98.652 0v.804h2.052v9.6h-2.052v.804h2.94v-11.208zm3.72 0v.756h.672c.528 0 .792.288.792.888v2.496c0 .72.324 1.212.984 1.464-.66.264-.984.756-.984 1.464v2.508c0 .576-.264.876-.792.876h-.672v.756h.828c.48 0 .864-.156 1.14-.468.252-.288.384-.684.384-1.188v-2.448c0-.36.072-.624.228-.792.168-.192.468-.3.912-.312v-.792c-.444-.024-.744-.12-.912-.3-.156-.18-.228-.444-.228-.804v-2.436c0-.504-.132-.912-.384-1.2-.276-.312-.66-.468-1.14-.468zm67.032 0c-.492 0-.876.156-1.14.468-.264.288-.384.696-.384 1.2v2.436c0 .36-.084.624-.228.792-.168.192-.48.288-.912.312v.792c.432.012.744.12.912.312.144.168.228.432.228.792v2.448c0 .504.12.9.384 1.188.264.312.648.468 1.14.468h.828v-.756h-.672c-.528 0-.792-.3-.792-.876v-2.508c0-.708-.336-1.2-.984-1.464.648-.252.984-.744.984-1.464v-2.496c0-.6.264-.888.792-.888h.672v-.756zm19.728 0a10.1 10.1 0 0 0-1.236 2.472 9.5 9.5 0 0 0-.528 3.144c0 1.044.168 2.088.528 3.12.3.864.708 1.692 1.236 2.472h.84a11 11 0 0 1-1.14-2.484 9.6 9.6 0 0 1-.528-3.12c0-1.032.168-2.064.528-3.12.264-.864.648-1.692 1.14-2.484zm5.004 3.552c-.432 0-.804.132-1.128.396-.264.204-.48.492-.648.852v-1.08h-.948v6.204h.948v-3.288c0-.576.156-1.068.492-1.476.324-.432.732-.636 1.212-.636.3 0 .612.036.924.132v-.96c-.228-.096-.516-.144-.852-.144m4.212 0c-.9 0-1.608.324-2.136.972-.528.612-.78 1.38-.78 2.292 0 1.008.264 1.8.816 2.4.528.576 1.248.876 2.136.876.804 0 1.464-.24 1.98-.696.42-.384.696-.864.84-1.464h-.96c-.156.432-.36.756-.624.972-.312.252-.732.384-1.236.384-.588 0-1.056-.192-1.392-.576s-.516-.924-.564-1.62h4.896c-.024-1.08-.264-1.932-.72-2.532-.504-.672-1.26-1.008-2.256-1.008m.024.804c1.176 0 1.836.66 1.956 1.992h-3.876c.06-.612.252-1.092.588-1.452q.504-.54 1.332-.54m6.276-.804c-.696 0-1.272.156-1.704.468-.468.312-.696.72-.696 1.248s.228.924.708 1.212c.288.192.804.372 1.536.552.672.168 1.116.3 1.32.396.384.192.588.456.588.804 0 .696-.564 1.056-1.668 1.056q-.792 0-1.188-.288c-.264-.216-.444-.564-.516-1.056h-.936c.144 1.428 1.032 2.148 2.664 2.148 1.752 0 2.628-.648 2.628-1.92 0-.54-.252-.96-.744-1.272-.324-.204-.852-.396-1.596-.576-.624-.168-1.056-.3-1.284-.408-.36-.18-.528-.408-.528-.672q0-.414.396-.648c.24-.168.576-.24 1.008-.24.492 0 .876.096 1.14.288.24.168.396.456.48.84h.936c-.168-1.296-1.008-1.932-2.544-1.932m3.864.168v3.84c0 1.68.744 2.532 2.256 2.532.84 0 1.512-.384 2.016-1.128v.96h.96v-6.204h-.96v3.78q-.108.792-.612 1.296c-.324.312-.696.48-1.104.48-.564 0-.972-.156-1.224-.444s-.372-.732-.372-1.32v-3.792zm6.912-2.532v8.736h.948v-8.736zm4.284.528-.948.396v1.608h-1.248v.804h1.248v3.948c0 .468.096.816.3 1.056.216.264.588.396 1.092.396h.936v-.804h-.792c-.216 0-.372-.06-.456-.156-.096-.096-.132-.264-.132-.492v-3.948h1.536v-.804h-1.536z"/><path fill="#A89FF8" d="M112.597 89.421c-.528 0-.936.144-1.212.444-.264.288-.396.684-.396 1.212v.708h-1.56v.804h1.56v5.4h.96v-5.4h1.752v-.804h-1.752v-.684q0-.45.18-.648c.12-.144.324-.204.588-.204h1.068v-.828zm2.184-.168v8.736h.948v-8.736zm5.4 2.364c-.936 0-1.668.312-2.22.96-.528.612-.792 1.38-.792 2.316 0 .924.264 1.692.792 2.292.552.648 1.284.972 2.22.972q1.386 0 2.232-.972c.516-.6.78-1.368.78-2.292 0-.936-.264-1.704-.792-2.316-.552-.648-1.296-.96-2.22-.96m0 .804q.972 0 1.548.756c.324.456.492 1.02.492 1.716 0 .672-.168 1.248-.492 1.704q-.576.756-1.548.756c-.66 0-1.176-.252-1.536-.756-.336-.456-.492-1.02-.492-1.704 0-.696.156-1.26.492-1.716.36-.504.876-.756 1.536-.756m6.96-.804c-.744 0-1.332.144-1.788.432-.504.312-.828.804-.96 1.452l.948.072c.096-.396.3-.696.624-.888.288-.192.66-.276 1.116-.276 1.08 0 1.62.516 1.62 1.56v.324l-1.488.024c-.936.012-1.656.192-2.16.528-.576.36-.852.888-.852 1.596 0 .504.192.924.576 1.248.372.312.864.468 1.488.468a3.15 3.15 0 0 0 1.548-.384c.384-.216.708-.492.948-.828v1.044h.9v-3.984c0-.72-.192-1.284-.552-1.692-.432-.468-1.08-.696-1.968-.696m1.56 3.396v.528c0 .48-.228.912-.672 1.284a2.35 2.35 0 0 1-1.56.576c-.384 0-.696-.096-.936-.276a.85.85 0 0 1-.348-.708c0-.9.696-1.356 2.088-1.38zm4.104-5.232-.948.396v1.608h-1.248v.804h1.248v3.948c0 .468.096.816.3 1.056.216.264.588.396 1.092.396h.936v-.804h-.792c-.216 0-.372-.06-.456-.156-.096-.096-.132-.264-.132-.492v-3.948h1.536v-.804h-1.536zm150.768-.336a.69.69 0 0 0-.516.204c-.144.12-.204.288-.204.504 0 .204.06.372.204.516a.74.74 0 0 0 .516.204.74.74 0 0 0 .516-.204.7.7 0 0 0 .216-.516q0-.324-.216-.504a.69.69 0 0 0-.516-.204m-.48 2.34v6.204h.96v-6.204zm4.956-.168c-.696 0-1.272.156-1.704.468-.468.312-.696.72-.696 1.248s.228.924.708 1.212c.288.192.804.372 1.536.552.672.168 1.116.3 1.32.396.384.192.588.456.588.804 0 .696-.564 1.056-1.668 1.056q-.792 0-1.188-.288c-.264-.216-.444-.564-.516-1.056h-.936c.144 1.428 1.032 2.148 2.664 2.148 1.752 0 2.628-.648 2.628-1.92 0-.54-.252-.96-.744-1.272-.324-.204-.852-.396-1.596-.576-.624-.168-1.056-.3-1.284-.408-.36-.18-.528-.408-.528-.672q0-.414.396-.648c.24-.168.576-.24 1.008-.24.492 0 .876.096 1.14.288.24.168.396.456.48.84h.936c-.168-1.296-1.008-1.932-2.544-1.932m4.656-2.172a.69.69 0 0 0-.516.204c-.144.12-.204.288-.204.504 0 .204.06.372.204.516a.74.74 0 0 0 .516.204.74.74 0 0 0 .516-.204.7.7 0 0 0 .216-.516q0-.324-.216-.504a.69.69 0 0 0-.516-.204m-.48 2.34v6.204h.96v-6.204zm5.664-.168q-.612 0-1.116.288-.504.27-.828.792v-.912h-.96v6.204h.96v-3.744c.036-.564.216-1.008.552-1.344a1.52 1.52 0 0 1 1.116-.468c1.08 0 1.632.6 1.632 1.812v3.744h.96v-3.816c0-1.704-.78-2.556-2.316-2.556m6 0c-.696 0-1.272.156-1.704.468-.468.312-.696.72-.696 1.248s.228.924.708 1.212c.288.192.804.372 1.536.552.672.168 1.116.3 1.32.396.384.192.588.456.588.804 0 .696-.564 1.056-1.668 1.056q-.792 0-1.188-.288c-.264-.216-.444-.564-.516-1.056h-.936c.144 1.428 1.032 2.148 2.664 2.148 1.752 0 2.628-.648 2.628-1.92 0-.54-.252-.96-.744-1.272-.324-.204-.852-.396-1.596-.576-.624-.168-1.056-.3-1.284-.408-.36-.18-.528-.408-.528-.672q0-.414.396-.648c.24-.168.576-.24 1.008-.24.492 0 .876.096 1.14.288.24.168.396.456.48.84h.936c-.168-1.296-1.008-1.932-2.544-1.932m5.52-1.836-.948.396v1.608h-1.248v.804h1.248v3.948c0 .468.096.816.3 1.056.216.264.588.396 1.092.396h.936v-.804h-.792c-.216 0-.372-.06-.456-.156-.096-.096-.132-.264-.132-.492v-3.948h1.536v-.804h-1.536zm5.304 1.836c-.744 0-1.332.144-1.788.432-.504.312-.828.804-.96 1.452l.948.072c.096-.396.3-.696.624-.888.288-.192.66-.276 1.116-.276 1.08 0 1.62.516 1.62 1.56v.324l-1.488.024c-.936.012-1.656.192-2.16.528-.576.36-.852.888-.852 1.596 0 .504.192.924.576 1.248.372.312.864.468 1.488.468a3.15 3.15 0 0 0 1.548-.384c.384-.216.708-.492.948-.828v1.044h.9v-3.984c0-.72-.192-1.284-.552-1.692-.432-.468-1.08-.696-1.968-.696m1.56 3.396v.528c0 .48-.228.912-.672 1.284a2.35 2.35 0 0 1-1.56.576c-.384 0-.696-.096-.936-.276a.85.85 0 0 1-.348-.708c0-.9.696-1.356 2.088-1.38zm5.352-3.396q-.612 0-1.116.288-.504.27-.828.792v-.912h-.96v6.204h.96v-3.744c.036-.564.216-1.008.552-1.344a1.52 1.52 0 0 1 1.116-.468c1.08 0 1.632.6 1.632 1.812v3.744h.96v-3.816c0-1.704-.78-2.556-2.316-2.556m6.48 0c-.924 0-1.656.324-2.184.984-.492.6-.732 1.368-.732 2.316s.24 1.716.732 2.304c.516.624 1.236.936 2.172.936.768 0 1.38-.204 1.848-.6.48-.408.78-1.02.924-1.812h-.96c-.144 1.068-.756 1.608-1.812 1.608-.624 0-1.104-.228-1.428-.66-.336-.432-.492-1.032-.492-1.788q0-1.134.504-1.8c.348-.456.828-.684 1.428-.684.492 0 .888.108 1.2.348q.45.36.576 1.08h.948c-.108-.756-.396-1.32-.876-1.692-.468-.36-1.08-.54-1.848-.54m6.444 0c-.9 0-1.608.324-2.136.972-.528.612-.78 1.38-.78 2.292 0 1.008.264 1.8.816 2.4.528.576 1.248.876 2.136.876.804 0 1.464-.24 1.98-.696.42-.384.696-.864.84-1.464h-.96c-.156.432-.36.756-.624.972-.312.252-.732.384-1.236.384-.588 0-1.056-.192-1.392-.576s-.516-.924-.564-1.62h4.896c-.024-1.08-.264-1.932-.72-2.532-.504-.672-1.26-1.008-2.256-1.008m.024.804c1.176 0 1.836.66 1.956 1.992h-3.876c.06-.612.252-1.092.588-1.452q.504-.54 1.332-.54m25.812-2.976a.69.69 0 0 0-.516.204c-.144.12-.204.288-.204.504 0 .204.06.372.204.516a.74.74 0 0 0 .516.204.74.74 0 0 0 .516-.204.7.7 0 0 0 .216-.516q0-.324-.216-.504a.69.69 0 0 0-.516-.204m-.48 2.34v6.204h.96v-6.204zm5.664-.168q-.612 0-1.116.288-.504.27-.828.792v-.912h-.96v6.204h.96v-3.744c.036-.564.216-1.008.552-1.344a1.52 1.52 0 0 1 1.116-.468c1.08 0 1.632.6 1.632 1.812v3.744h.96v-3.816c0-1.704-.78-2.556-2.316-2.556m5.46-1.836-.948.396v1.608h-1.248v.804h1.248v3.948c0 .468.096.816.3 1.056.216.264.588.396 1.092.396h.936v-.804h-.792c-.216 0-.372-.06-.456-.156-.096-.096-.132-.264-.132-.492v-3.948h1.536v-.804h-1.536zm12.252-.36c-.528 0-.936.144-1.212.444-.264.288-.396.684-.396 1.212v.708h-1.56v.804h1.56v5.4h.96v-5.4h1.752v-.804h-1.752v-.684q0-.45.18-.648c.12-.144.324-.204.588-.204h1.068v-.828zm2.184-.168v8.736h.948v-8.736zm5.4 2.364c-.936 0-1.668.312-2.22.96-.528.612-.792 1.38-.792 2.316 0 .924.264 1.692.792 2.292.552.648 1.284.972 2.22.972q1.386 0 2.232-.972c.516-.6.78-1.368.78-2.292 0-.936-.264-1.704-.792-2.316-.552-.648-1.296-.96-2.22-.96m0 .804q.972 0 1.548.756c.324.456.492 1.02.492 1.716 0 .672-.168 1.248-.492 1.704q-.576.756-1.548.756c-.66 0-1.176-.252-1.536-.756-.336-.456-.492-1.02-.492-1.704 0-.696.156-1.26.492-1.716.36-.504.876-.756 1.536-.756m6.96-.804c-.744 0-1.332.144-1.788.432-.504.312-.828.804-.96 1.452l.948.072c.096-.396.3-.696.624-.888.288-.192.66-.276 1.116-.276 1.08 0 1.62.516 1.62 1.56v.324l-1.488.024c-.936.012-1.656.192-2.16.528-.576.36-.852.888-.852 1.596 0 .504.192.924.576 1.248.372.312.864.468 1.488.468a3.15 3.15 0 0 0 1.548-.384c.384-.216.708-.492.948-.828v1.044h.9v-3.984c0-.72-.192-1.284-.552-1.692-.432-.468-1.08-.696-1.968-.696m1.56 3.396v.528c0 .48-.228.912-.672 1.284a2.35 2.35 0 0 1-1.56.576c-.384 0-.696-.096-.936-.276a.85.85 0 0 1-.348-.708c0-.9.696-1.356 2.088-1.38zm4.104-5.232-.948.396v1.608h-1.248v.804h1.248v3.948c0 .468.096.816.3 1.056.216.264.588.396 1.092.396h.936v-.804h-.792c-.216 0-.372-.06-.456-.156-.096-.096-.132-.264-.132-.492v-3.948h1.536v-.804h-1.536zm-227.4 33.836c-.696 0-1.272.156-1.704.468-.468.312-.696.72-.696 1.248s.228.924.708 1.212c.288.192.804.372 1.536.552.672.168 1.116.3 1.32.396.384.192.588.456.588.804 0 .696-.564 1.056-1.668 1.056q-.792 0-1.188-.288c-.264-.216-.444-.564-.516-1.056h-.936c.144 1.428 1.032 2.148 2.664 2.148 1.752 0 2.628-.648 2.628-1.92 0-.54-.252-.96-.744-1.272-.324-.204-.852-.396-1.596-.576-.624-.168-1.056-.3-1.284-.408-.36-.18-.528-.408-.528-.672q0-.414.396-.648c.24-.168.576-.24 1.008-.24.492 0 .876.096 1.14.288.24.168.396.456.48.84h.936c-.168-1.296-1.008-1.932-2.544-1.932m3.864.168v3.84c0 1.68.744 2.532 2.256 2.532.84 0 1.512-.384 2.016-1.128v.96h.96v-6.204h-.96v3.78q-.108.792-.612 1.296c-.324.312-.696.48-1.104.48-.564 0-.972-.156-1.224-.444s-.372-.732-.372-1.32v-3.792zm9.432-.168c-.696 0-1.284.324-1.752.996v-.828h-.96v6.204h.96v-3.78c0-.492.144-.912.432-1.248.288-.36.648-.528 1.092-.528.948 0 1.428.54 1.428 1.644v3.912h.96v-3.888c0-.504.132-.9.42-1.212.264-.312.612-.456 1.02-.456.528 0 .912.132 1.152.42.228.264.348.672.348 1.224v3.912h.96v-4.068c0-.708-.204-1.272-.588-1.692-.408-.408-.924-.612-1.572-.612-.432 0-.792.096-1.092.288-.336.18-.624.48-.864.888-.348-.792-.996-1.176-1.944-1.176m64.476-2.364v8.736h.948v-8.736zm5.184 2.364c-.9 0-1.608.324-2.136.972-.528.612-.78 1.38-.78 2.292 0 1.008.264 1.8.816 2.4.528.576 1.248.876 2.136.876.804 0 1.464-.24 1.98-.696.42-.384.696-.864.84-1.464h-.96c-.156.432-.36.756-.624.972-.312.252-.732.384-1.236.384-.588 0-1.056-.192-1.392-.576s-.516-.924-.564-1.62h4.896c-.024-1.08-.264-1.932-.72-2.532-.504-.672-1.26-1.008-2.256-1.008m.024.804c1.176 0 1.836.66 1.956 1.992h-3.876c.06-.612.252-1.092.588-1.452q.504-.54 1.332-.54m6.984-.804q-.612 0-1.116.288-.504.27-.828.792v-.912h-.96v6.204h.96v-3.744c.036-.564.216-1.008.552-1.344a1.52 1.52 0 0 1 1.116-.468c1.08 0 1.632.6 1.632 1.812v3.744h.96v-3.816c0-1.704-.78-2.556-2.316-2.556"/><path fill="#FFF" d="M110.425 123.617c-.744 0-1.332.144-1.788.432-.504.312-.828.804-.96 1.452l.948.072c.096-.396.3-.696.624-.888.288-.192.66-.276 1.116-.276 1.08 0 1.62.516 1.62 1.56v.324l-1.488.024c-.936.012-1.656.192-2.16.528-.576.36-.852.888-.852 1.596 0 .504.192.924.576 1.248.372.312.864.468 1.488.468a3.15 3.15 0 0 0 1.548-.384c.384-.216.708-.492.948-.828v1.044h.9v-3.984c0-.72-.192-1.284-.552-1.692-.432-.468-1.08-.696-1.968-.696m1.56 3.396v.528c0 .48-.228.912-.672 1.284a2.35 2.35 0 0 1-1.56.576c-.384 0-.696-.096-.936-.276a.85.85 0 0 1-.348-.708c0-.9.696-1.356 2.088-1.38zm1.764-3.228 2.34 6.204h.972l2.352-6.204h-1.056l-1.776 5.004-1.776-5.004zm9.024-.168c-.9 0-1.608.324-2.136.972-.528.612-.78 1.38-.78 2.292 0 1.008.264 1.8.816 2.4.528.576 1.248.876 2.136.876.804 0 1.464-.24 1.98-.696.42-.384.696-.864.84-1.464h-.96c-.156.432-.36.756-.624.972-.312.252-.732.384-1.236.384-.588 0-1.056-.192-1.392-.576s-.516-.924-.564-1.62h4.896c-.024-1.08-.264-1.932-.72-2.532-.504-.672-1.26-1.008-2.256-1.008m.024.804c1.176 0 1.836.66 1.956 1.992h-3.876c.06-.612.252-1.092.588-1.452q.504-.54 1.332-.54m6.804-.804c-.432 0-.804.132-1.128.396-.264.204-.48.492-.648.852v-1.08h-.948v6.204h.948v-3.288c0-.576.156-1.068.492-1.476.324-.432.732-.636 1.212-.636.3 0 .612.036.924.132v-.96c-.228-.096-.516-.144-.852-.144m4.356 0c-.744 0-1.332.144-1.788.432-.504.312-.828.804-.96 1.452l.948.072c.096-.396.3-.696.624-.888.288-.192.66-.276 1.116-.276 1.08 0 1.62.516 1.62 1.56v.324l-1.488.024c-.936.012-1.656.192-2.16.528-.576.36-.852.888-.852 1.596 0 .504.192.924.576 1.248.372.312.864.468 1.488.468a3.15 3.15 0 0 0 1.548-.384c.384-.216.708-.492.948-.828v1.044h.9v-3.984c0-.72-.192-1.284-.552-1.692-.432-.468-1.08-.696-1.968-.696m1.56 3.396v.528c0 .48-.228.912-.672 1.284a2.35 2.35 0 0 1-1.56.576c-.384 0-.696-.096-.936-.276a.85.85 0 0 1-.348-.708c0-.9.696-1.356 2.088-1.38zm5.004-3.396c-.864 0-1.548.3-2.052.912-.504.576-.744 1.308-.744 2.22 0 .9.24 1.632.744 2.208.504.588 1.188.888 2.052.888.936 0 1.632-.42 2.088-1.248v1.092c0 1.368-.624 2.064-1.872 2.064-.564 0-.984-.108-1.26-.312-.276-.192-.456-.504-.528-.924h-.96q.162 1.008.828 1.512c.432.336 1.08.504 1.92.504 1.884 0 2.832-.996 2.832-2.976v-5.772h-.96v1.068c-.456-.828-1.152-1.236-2.088-1.236m.144.792c.612 0 1.092.216 1.452.672.336.408.504.972.504 1.668 0 .672-.168 1.224-.504 1.644-.36.432-.84.648-1.464.648-.672 0-1.164-.24-1.5-.696-.3-.408-.444-.948-.444-1.596 0-.696.168-1.26.504-1.668.348-.456.828-.672 1.452-.672m6.948-.792c-.9 0-1.608.324-2.136.972-.528.612-.78 1.38-.78 2.292 0 1.008.264 1.8.816 2.4.528.576 1.248.876 2.136.876.804 0 1.464-.24 1.98-.696.42-.384.696-.864.84-1.464h-.96c-.156.432-.36.756-.624.972-.312.252-.732.384-1.236.384-.588 0-1.056-.192-1.392-.576s-.516-.924-.564-1.62h4.896c-.024-1.08-.264-1.932-.72-2.532-.504-.672-1.26-1.008-2.256-1.008m.024.804c1.176 0 1.836.66 1.956 1.992h-3.876c.06-.612.252-1.092.588-1.452q.504-.54 1.332-.54"/><path fill="#83BBF4" d="m160.993 153.421.12 2.988h.78l.108-2.988zm6.672-1.272-4.26 11.04h.864l4.248-11.04zm5.004 3.468c-.936 0-1.62.396-2.064 1.188v-1.02h-.9v8.58h.96v-3.504q.72 1.296 2.052 1.296c.888 0 1.572-.336 2.076-.984.456-.6.696-1.356.696-2.268 0-.936-.24-1.692-.708-2.292-.516-.672-1.224-.996-2.112-.996m-.12.792c.66 0 1.164.24 1.512.744.288.432.444 1.02.444 1.752q0 1.116-.468 1.764c-.348.456-.852.696-1.524.696-.576 0-1.02-.228-1.356-.66-.36-.444-.528-1.02-.528-1.74v-.12c0-.696.156-1.272.468-1.704.336-.492.828-.732 1.452-.732m6.888-.792c-.744 0-1.332.144-1.788.432-.504.312-.828.804-.96 1.452l.948.072c.096-.396.3-.696.624-.888.288-.192.66-.276 1.116-.276 1.08 0 1.62.516 1.62 1.56v.324l-1.488.024c-.936.012-1.656.192-2.16.528-.576.36-.852.888-.852 1.596 0 .504.192.924.576 1.248.372.312.864.468 1.488.468a3.15 3.15 0 0 0 1.548-.384c.384-.216.708-.492.948-.828v1.044h.9v-3.984c0-.72-.192-1.284-.552-1.692-.432-.468-1.08-.696-1.968-.696m1.56 3.396v.528c0 .48-.228.912-.672 1.284a2.35 2.35 0 0 1-1.56.576c-.384 0-.696-.096-.936-.276a.85.85 0 0 1-.348-.708c0-.9.696-1.356 2.088-1.38zm4.104-5.232-.948.396v1.608h-1.248v.804h1.248v3.948c0 .468.096.816.3 1.056.216.264.588.396 1.092.396h.936v-.804h-.792c-.216 0-.372-.06-.456-.156-.096-.096-.132-.264-.132-.492v-3.948h1.536v-.804H185.1zm2.604-.528v8.736h.96v-3.54c0-.576.156-1.068.48-1.452q.468-.576 1.188-.576c.516 0 .912.156 1.2.468.264.312.408.756.408 1.332v3.768h.96v-3.912c0-.792-.192-1.404-.576-1.824-.384-.432-.948-.636-1.668-.636-.42 0-.792.096-1.128.288q-.54.306-.864.9v-3.552zm10.632-1.104-4.26 11.04h.864l4.248-11.04zm3.696 1.632-.948.396v1.608h-1.248v.804h1.248v3.948c0 .468.096.816.3 1.056.216.264.588.396 1.092.396h.936v-.804h-.792c-.216 0-.372-.06-.456-.156-.096-.096-.132-.264-.132-.492v-3.948h1.536v-.804h-1.536zm5.376 1.836c-.936 0-1.668.312-2.22.96-.528.612-.792 1.38-.792 2.316 0 .924.264 1.692.792 2.292.552.648 1.284.972 2.22.972q1.386 0 2.232-.972c.516-.6.78-1.368.78-2.292 0-.936-.264-1.704-.792-2.316-.552-.648-1.296-.96-2.22-.96m0 .804q.972 0 1.548.756c.324.456.492 1.02.492 1.716 0 .672-.168 1.248-.492 1.704q-.576.756-1.548.756c-.66 0-1.176-.252-1.536-.756-.336-.456-.492-1.02-.492-1.704 0-.696.156-1.26.492-1.716.36-.504.876-.756 1.536-.756m8.22-4.272-4.26 11.04h.864l4.248-11.04zm6.624 1.104v3.672c-.48-.876-1.164-1.308-2.052-1.308s-1.572.324-2.076.996c-.468.6-.696 1.344-.696 2.256 0 .936.228 1.704.696 2.304.504.648 1.212.984 2.124.984.936 0 1.632-.396 2.064-1.188v1.02h.9v-8.736zm-1.848 3.156c.552 0 1.008.216 1.356.672.336.444.516 1.032.516 1.752v.12c0 .696-.156 1.26-.456 1.692-.348.48-.828.72-1.452.72-.672 0-1.176-.252-1.512-.732-.3-.432-.444-1.02-.444-1.764s.144-1.32.456-1.74c.336-.48.852-.72 1.536-.72m6.996-.792c-.744 0-1.332.144-1.788.432-.504.312-.828.804-.96 1.452l.948.072c.096-.396.3-.696.624-.888.288-.192.66-.276 1.116-.276 1.08 0 1.62.516 1.62 1.56v.324l-1.488.024c-.936.012-1.656.192-2.16.528-.576.36-.852.888-.852 1.596 0 .504.192.924.576 1.248.372.312.864.468 1.488.468a3.15 3.15 0 0 0 1.548-.384c.384-.216.708-.492.948-.828v1.044h.9v-3.984c0-.72-.192-1.284-.552-1.692-.432-.468-1.08-.696-1.968-.696m1.56 3.396v.528c0 .48-.228.912-.672 1.284a2.35 2.35 0 0 1-1.56.576c-.384 0-.696-.096-.936-.276a.85.85 0 0 1-.348-.708c0-.9.696-1.356 2.088-1.38zm4.104-5.232-.948.396v1.608h-1.248v.804h1.248v3.948c0 .468.096.816.3 1.056.216.264.588.396 1.092.396h.936v-.804h-.792c-.216 0-.372-.06-.456-.156-.096-.096-.132-.264-.132-.492v-3.948h1.536v-.804h-1.536zm5.304 1.836c-.744 0-1.332.144-1.788.432-.504.312-.828.804-.96 1.452l.948.072c.096-.396.3-.696.624-.888.288-.192.66-.276 1.116-.276 1.08 0 1.62.516 1.62 1.56v.324l-1.488.024c-.936.012-1.656.192-2.16.528-.576.36-.852.888-.852 1.596 0 .504.192.924.576 1.248.372.312.864.468 1.488.468a3.15 3.15 0 0 0 1.548-.384c.384-.216.708-.492.948-.828v1.044h.9v-3.984c0-.72-.192-1.284-.552-1.692-.432-.468-1.08-.696-1.968-.696m1.56 3.396v.528c0 .48-.228.912-.672 1.284a2.35 2.35 0 0 1-1.56.576c-.384 0-.696-.096-.936-.276a.85.85 0 0 1-.348-.708c0-.9.696-1.356 2.088-1.38zm3.288 1.548a.66.66 0 0 0-.516.216.7.7 0 0 0-.216.528c0 .204.072.372.216.516.132.144.3.216.516.216a.72.72 0 0 0 .516-.216.7.7 0 0 0 .216-.516.7.7 0 0 0-.216-.528.72.72 0 0 0-.516-.216m3.24-7.116a.69.69 0 0 0-.516.204c-.144.12-.204.288-.204.504 0 .204.06.372.204.516a.74.74 0 0 0 .516.204.77.77 0 0 0 .528-.204.74.74 0 0 0 .204-.516.65.65 0 0 0-.204-.504.71.71 0 0 0-.528-.204m-.48 2.34v6.888c0 .588-.288.888-.852.888h-.504v.804h.576c1.152 0 1.74-.552 1.74-1.656v-6.924zm4.968-.168c-.696 0-1.272.156-1.704.468-.468.312-.696.72-.696 1.248s.228.924.708 1.212c.288.192.804.372 1.536.552.672.168 1.116.3 1.32.396.384.192.588.456.588.804 0 .696-.564 1.056-1.668 1.056q-.792 0-1.188-.288c-.264-.216-.444-.564-.516-1.056h-.936c.144 1.428 1.032 2.148 2.664 2.148 1.752 0 2.628-.648 2.628-1.92 0-.54-.252-.96-.744-1.272-.324-.204-.852-.396-1.596-.576-.624-.168-1.056-.3-1.284-.408-.36-.18-.528-.408-.528-.672q0-.414.396-.648c.24-.168.576-.24 1.008-.24.492 0 .876.096 1.14.288.24.168.396.456.48.84h.936c-.168-1.296-1.008-1.932-2.544-1.932m6.636 0c-.936 0-1.668.312-2.22.96-.528.612-.792 1.38-.792 2.316 0 .924.264 1.692.792 2.292.552.648 1.284.972 2.22.972q1.386 0 2.232-.972c.516-.6.78-1.368.78-2.292 0-.936-.264-1.704-.792-2.316-.552-.648-1.296-.96-2.22-.96m0 .804q.972 0 1.548.756c.324.456.492 1.02.492 1.716 0 .672-.168 1.248-.492 1.704q-.576.756-1.548.756c-.66 0-1.176-.252-1.536-.756-.336-.456-.492-1.02-.492-1.704 0-.696.156-1.26.492-1.716.36-.504.876-.756 1.536-.756m7.164-.804q-.612 0-1.116.288-.504.27-.828.792v-.912h-.96v6.204h.96v-3.744c.036-.564.216-1.008.552-1.344a1.52 1.52 0 0 1 1.116-.468c1.08 0 1.632.6 1.632 1.812v3.744h.96v-3.816c0-1.704-.78-2.556-2.316-2.556m4.02-2.196.12 2.988h.78l.108-2.988zm-92.328 16 .12 2.988h.78l.108-2.988zm5.676 2.196c-.936 0-1.62.396-2.064 1.188v-1.02h-.9v8.58h.96v-3.504q.72 1.296 2.052 1.296c.888 0 1.572-.336 2.076-.984.456-.6.696-1.356.696-2.268 0-.936-.24-1.692-.708-2.292-.516-.672-1.224-.996-2.112-.996m-.12.792c.66 0 1.164.24 1.512.744.288.432.444 1.02.444 1.752q0 1.116-.468 1.764c-.348.456-.852.696-1.524.696-.576 0-1.02-.228-1.356-.66-.36-.444-.528-1.02-.528-1.74v-.12c0-.696.156-1.272.468-1.704.336-.492.828-.732 1.452-.732m6.912-.792c-.432 0-.804.132-1.128.396-.264.204-.48.492-.648.852v-1.08h-.948v6.204h.948v-3.288c0-.576.156-1.068.492-1.476.324-.432.732-.636 1.212-.636.3 0 .612.036.924.132v-.96c-.228-.096-.516-.144-.852-.144m4.428 0c-.936 0-1.668.312-2.22.96-.528.612-.792 1.38-.792 2.316 0 .924.264 1.692.792 2.292.552.648 1.284.972 2.22.972q1.386 0 2.232-.972c.516-.6.78-1.368.78-2.292 0-.936-.264-1.704-.792-2.316-.552-.648-1.296-.96-2.22-.96m0 .804q.972 0 1.548.756c.324.456.492 1.02.492 1.716 0 .672-.168 1.248-.492 1.704q-.576.756-1.548.756c-.66 0-1.176-.252-1.536-.756-.336-.456-.492-1.02-.492-1.704 0-.696.156-1.26.492-1.716.36-.504.876-.756 1.536-.756m6.936-.804c-.924 0-1.656.324-2.184.984-.492.6-.732 1.368-.732 2.316s.24 1.716.732 2.304c.516.624 1.236.936 2.172.936.768 0 1.38-.204 1.848-.6.48-.408.78-1.02.924-1.812h-.96c-.144 1.068-.756 1.608-1.812 1.608-.624 0-1.104-.228-1.428-.66-.336-.432-.492-1.032-.492-1.788q0-1.134.504-1.8c.348-.456.828-.684 1.428-.684.492 0 .888.108 1.2.348q.45.36.576 1.08h.948c-.108-.756-.396-1.32-.876-1.692-.468-.36-1.08-.54-1.848-.54m6.444 0c-.9 0-1.608.324-2.136.972-.528.612-.78 1.38-.78 2.292 0 1.008.264 1.8.816 2.4.528.576 1.248.876 2.136.876.804 0 1.464-.24 1.98-.696.42-.384.696-.864.84-1.464h-.96c-.156.432-.36.756-.624.972-.312.252-.732.384-1.236.384-.588 0-1.056-.192-1.392-.576s-.516-.924-.564-1.62h4.896c-.024-1.08-.264-1.932-.72-2.532-.504-.672-1.26-1.008-2.256-1.008m.024.804c1.176 0 1.836.66 1.956 1.992h-3.876c.06-.612.252-1.092.588-1.452q.504-.54 1.332-.54m6.276-.804c-.696 0-1.272.156-1.704.468-.468.312-.696.72-.696 1.248s.228.924.708 1.212c.288.192.804.372 1.536.552.672.168 1.116.3 1.32.396.384.192.588.456.588.804 0 .696-.564 1.056-1.668 1.056q-.792 0-1.188-.288c-.264-.216-.444-.564-.516-1.056h-.936c.144 1.428 1.032 2.148 2.664 2.148 1.752 0 2.628-.648 2.628-1.92 0-.54-.252-.96-.744-1.272-.324-.204-.852-.396-1.596-.576-.624-.168-1.056-.3-1.284-.408-.36-.18-.528-.408-.528-.672q0-.414.396-.648c.24-.168.576-.24 1.008-.24.492 0 .876.096 1.14.288.24.168.396.456.48.84h.936c-.168-1.296-1.008-1.932-2.544-1.932m6.06 0c-.696 0-1.272.156-1.704.468-.468.312-.696.72-.696 1.248s.228.924.708 1.212c.288.192.804.372 1.536.552.672.168 1.116.3 1.32.396.384.192.588.456.588.804 0 .696-.564 1.056-1.668 1.056q-.792 0-1.188-.288c-.264-.216-.444-.564-.516-1.056h-.936c.144 1.428 1.032 2.148 2.664 2.148 1.752 0 2.628-.648 2.628-1.92 0-.54-.252-.96-.744-1.272-.324-.204-.852-.396-1.596-.576-.624-.168-1.056-.3-1.284-.408-.36-.18-.528-.408-.528-.672q0-.414.396-.648c.24-.168.576-.24 1.008-.24.492 0 .876.096 1.14.288.24.168.396.456.48.84h.936c-.168-1.296-1.008-1.932-2.544-1.932m6.42 0c-.9 0-1.608.324-2.136.972-.528.612-.78 1.38-.78 2.292 0 1.008.264 1.8.816 2.4.528.576 1.248.876 2.136.876.804 0 1.464-.24 1.98-.696.42-.384.696-.864.84-1.464h-.96c-.156.432-.36.756-.624.972-.312.252-.732.384-1.236.384-.588 0-1.056-.192-1.392-.576s-.516-.924-.564-1.62h4.896c-.024-1.08-.264-1.932-.72-2.532-.504-.672-1.26-1.008-2.256-1.008m.024.804c1.176 0 1.836.66 1.956 1.992h-3.876c.06-.612.252-1.092.588-1.452q.504-.54 1.332-.54m8.664-3.168v3.672c-.48-.876-1.164-1.308-2.052-1.308s-1.572.324-2.076.996c-.468.6-.696 1.344-.696 2.256 0 .936.228 1.704.696 2.304.504.648 1.212.984 2.124.984.936 0 1.632-.396 2.064-1.188v1.02h.9v-8.736zm-1.848 3.156c.552 0 1.008.216 1.356.672.336.444.516 1.032.516 1.752v.12c0 .696-.156 1.26-.456 1.692-.348.48-.828.72-1.452.72-.672 0-1.176-.252-1.512-.732-.3-.432-.444-1.02-.444-1.764s.144-1.32.456-1.74c.336-.48.852-.72 1.536-.72m3.552 6.456v.804h6v-.804zm6.936-9.612v8.736h.948v-8.736zm3.42.192a.69.69 0 0 0-.516.204c-.144.12-.204.288-.204.504 0 .204.06.372.204.516a.74.74 0 0 0 .516.204.74.74 0 0 0 .516-.204.7.7 0 0 0 .216-.516q0-.324-.216-.504a.69.69 0 0 0-.516-.204m-.48 2.34v6.204h.96v-6.204zm5.664-.168q-.612 0-1.116.288-.504.27-.828.792v-.912h-.96v6.204h.96v-3.744c.036-.564.216-1.008.552-1.344a1.52 1.52 0 0 1 1.116-.468c1.08 0 1.632.6 1.632 1.812v3.744h.96v-3.816c0-1.704-.78-2.556-2.316-2.556m6.36 0c-.9 0-1.608.324-2.136.972-.528.612-.78 1.38-.78 2.292 0 1.008.264 1.8.816 2.4.528.576 1.248.876 2.136.876.804 0 1.464-.24 1.98-.696.42-.384.696-.864.84-1.464h-.96c-.156.432-.36.756-.624.972-.312.252-.732.384-1.236.384-.588 0-1.056-.192-1.392-.576s-.516-.924-.564-1.62h4.896c-.024-1.08-.264-1.932-.72-2.532-.504-.672-1.26-1.008-2.256-1.008m.024.804c1.176 0 1.836.66 1.956 1.992h-3.876c.06-.612.252-1.092.588-1.452q.504-.54 1.332-.54m6.276-.804c-.696 0-1.272.156-1.704.468-.468.312-.696.72-.696 1.248s.228.924.708 1.212c.288.192.804.372 1.536.552.672.168 1.116.3 1.32.396.384.192.588.456.588.804 0 .696-.564 1.056-1.668 1.056q-.792 0-1.188-.288c-.264-.216-.444-.564-.516-1.056h-.936c.144 1.428 1.032 2.148 2.664 2.148 1.752 0 2.628-.648 2.628-1.92 0-.54-.252-.96-.744-1.272-.324-.204-.852-.396-1.596-.576-.624-.168-1.056-.3-1.284-.408-.36-.18-.528-.408-.528-.672q0-.414.396-.648c.24-.168.576-.24 1.008-.24.492 0 .876.096 1.14.288.24.168.396.456.48.84h.936c-.168-1.296-1.008-1.932-2.544-1.932m4.08-2.196.12 2.988h.78l.108-2.988zm14.892-.168v8.736h.948v-8.736zm3.42.192a.69.69 0 0 0-.516.204c-.144.12-.204.288-.204.504 0 .204.06.372.204.516a.74.74 0 0 0 .516.204.74.74 0 0 0 .516-.204.7.7 0 0 0 .216-.516q0-.324-.216-.504a.69.69 0 0 0-.516-.204m-.48 2.34v6.204h.96v-6.204zm5.664-.168q-.612 0-1.116.288-.504.27-.828.792v-.912h-.96v6.204h.96v-3.744c.036-.564.216-1.008.552-1.344a1.52 1.52 0 0 1 1.116-.468c1.08 0 1.632.6 1.632 1.812v3.744h.96v-3.816c0-1.704-.78-2.556-2.316-2.556m6.36 0c-.9 0-1.608.324-2.136.972-.528.612-.78 1.38-.78 2.292 0 1.008.264 1.8.816 2.4.528.576 1.248.876 2.136.876.804 0 1.464-.24 1.98-.696.42-.384.696-.864.84-1.464h-.96c-.156.432-.36.756-.624.972-.312.252-.732.384-1.236.384-.588 0-1.056-.192-1.392-.576s-.516-.924-.564-1.62h4.896c-.024-1.08-.264-1.932-.72-2.532-.504-.672-1.26-1.008-2.256-1.008m.024.804c1.176 0 1.836.66 1.956 1.992h-3.876c.06-.612.252-1.092.588-1.452q.504-.54 1.332-.54m6.276-.804c-.696 0-1.272.156-1.704.468-.468.312-.696.72-.696 1.248s.228.924.708 1.212c.288.192.804.372 1.536.552.672.168 1.116.3 1.32.396.384.192.588.456.588.804 0 .696-.564 1.056-1.668 1.056q-.792 0-1.188-.288c-.264-.216-.444-.564-.516-1.056h-.936c.144 1.428 1.032 2.148 2.664 2.148 1.752 0 2.628-.648 2.628-1.92 0-.54-.252-.96-.744-1.272-.324-.204-.852-.396-1.596-.576-.624-.168-1.056-.3-1.284-.408-.36-.18-.528-.408-.528-.672q0-.414.396-.648c.24-.168.576-.24 1.008-.24.492 0 .876.096 1.14.288.24.168.396.456.48.84h.936c-.168-1.296-1.008-1.932-2.544-1.932m7.176.168 2.112 6.204h.9l1.464-4.992 1.44 4.992h.912l2.112-6.204h-1.056l-1.524 5.028-1.44-5.028h-.9l-1.44 5.028-1.524-5.028zm10.536-2.34a.69.69 0 0 0-.516.204c-.144.12-.204.288-.204.504 0 .204.06.372.204.516a.74.74 0 0 0 .516.204.74.74 0 0 0 .516-.204.7.7 0 0 0 .216-.516q0-.324-.216-.504a.69.69 0 0 0-.516-.204m-.48 2.34v6.204h.96v-6.204zm4.416-2.004-.948.396v1.608h-1.248v.804h1.248v3.948c0 .468.096.816.3 1.056.216.264.588.396 1.092.396h.936v-.804h-.792c-.216 0-.372-.06-.456-.156-.096-.096-.132-.264-.132-.492v-3.948h1.536v-.804h-1.536zm2.604-.528v8.736h.96v-3.54c0-.576.156-1.068.48-1.452q.468-.576 1.188-.576c.516 0 .912.156 1.2.468.264.312.408.756.408 1.332v3.768h.96v-3.912c0-.792-.192-1.404-.576-1.824-.384-.432-.948-.636-1.668-.636-.42 0-.792.096-1.128.288q-.54.306-.864.9v-3.552z"/><path fill="#FFF" d="m279.157 153.421-.456 4.728h.936a1.7 1.7 0 0 1 .768-.768c.324-.18.684-.264 1.092-.264.624 0 1.116.18 1.464.564.36.372.552.9.552 1.584 0 .6-.204 1.092-.588 1.476-.396.384-.888.576-1.488.576-.528 0-.972-.132-1.308-.384-.384-.288-.6-.708-.648-1.248h-.972c.06.78.384 1.404.984 1.86.528.408 1.176.612 1.932.612.84 0 1.56-.264 2.136-.78.612-.552.924-1.26.924-2.124 0-.924-.264-1.644-.768-2.172-.504-.516-1.164-.768-1.98-.768-.396 0-.756.06-1.092.204-.372.144-.684.36-.924.648h-.048l.288-2.868h4.176v-.876zm9.54-.168c-1.032 0-1.8.444-2.316 1.356q-.684 1.152-.684 3.096t.684 3.096c.516.9 1.284 1.356 2.316 1.356 1.02 0 1.788-.456 2.316-1.356q.684-1.152.684-3.096t-.684-3.096c-.528-.912-1.296-1.356-2.316-1.356m0 .84c.768 0 1.32.408 1.656 1.236.24.576.372 1.368.372 2.376 0 .996-.132 1.788-.372 2.376-.336.816-.888 1.236-1.656 1.236s-1.32-.42-1.656-1.236q-.36-.882-.36-2.376 0-1.512.36-2.376c.336-.828.888-1.236 1.656-1.236"/><path fill="#A89FF8" d="M68.065 169.421c-.528 0-.936.144-1.212.444-.264.288-.396.684-.396 1.212v.708h-1.56v.804h1.56v5.4h.96v-5.4h1.752v-.804h-1.752v-.684q0-.45.18-.648c.12-.144.324-.204.588-.204h1.068v-.828zm4.404 0 .108 2.988h.78l.12-2.988zm-2.196 0 .12 2.988h.78l.108-2.988zm5.028 0v8.568h.984v-3.504h2.508c1.968 0 2.964-.852 2.964-2.544q0-2.52-2.952-2.52zm.984.852h2.46c.684 0 1.188.132 1.524.42.336.252.504.672.504 1.248s-.168.996-.492 1.272c-.336.276-.84.42-1.536.42h-2.46zm9.324 1.344c-.432 0-.804.132-1.128.396-.264.204-.48.492-.648.852v-1.08h-.948v6.204h.948v-3.288c0-.576.156-1.068.492-1.476.324-.432.732-.636 1.212-.636.3 0 .612.036.924.132v-.96c-.228-.096-.516-.144-.852-.144m4.428 0c-.936 0-1.668.312-2.22.96-.528.612-.792 1.38-.792 2.316 0 .924.264 1.692.792 2.292.552.648 1.284.972 2.22.972q1.386 0 2.232-.972c.516-.6.78-1.368.78-2.292 0-.936-.264-1.704-.792-2.316-.552-.648-1.296-.96-2.22-.96m0 .804q.972 0 1.548.756c.324.456.492 1.02.492 1.716 0 .672-.168 1.248-.492 1.704q-.576.756-1.548.756c-.66 0-1.176-.252-1.536-.756-.336-.456-.492-1.02-.492-1.704 0-.696.156-1.26.492-1.716.36-.504.876-.756 1.536-.756m6.936-.804c-.924 0-1.656.324-2.184.984-.492.6-.732 1.368-.732 2.316s.24 1.716.732 2.304c.516.624 1.236.936 2.172.936.768 0 1.38-.204 1.848-.6.48-.408.78-1.02.924-1.812h-.96c-.144 1.068-.756 1.608-1.812 1.608-.624 0-1.104-.228-1.428-.66-.336-.432-.492-1.032-.492-1.788q0-1.134.504-1.8c.348-.456.828-.684 1.428-.684.492 0 .888.108 1.2.348q.45.36.576 1.08h.948c-.108-.756-.396-1.32-.876-1.692-.468-.36-1.08-.54-1.848-.54m6.444 0c-.9 0-1.608.324-2.136.972-.528.612-.78 1.38-.78 2.292 0 1.008.264 1.8.816 2.4.528.576 1.248.876 2.136.876.804 0 1.464-.24 1.98-.696.42-.384.696-.864.84-1.464h-.96c-.156.432-.36.756-.624.972-.312.252-.732.384-1.236.384-.588 0-1.056-.192-1.392-.576s-.516-.924-.564-1.62h4.896c-.024-1.08-.264-1.932-.72-2.532-.504-.672-1.26-1.008-2.256-1.008m.024.804c1.176 0 1.836.66 1.956 1.992h-3.876c.06-.612.252-1.092.588-1.452q.504-.54 1.332-.54m6.276-.804c-.696 0-1.272.156-1.704.468-.468.312-.696.72-.696 1.248s.228.924.708 1.212c.288.192.804.372 1.536.552.672.168 1.116.3 1.32.396.384.192.588.456.588.804 0 .696-.564 1.056-1.668 1.056q-.792 0-1.188-.288c-.264-.216-.444-.564-.516-1.056h-.936c.144 1.428 1.032 2.148 2.664 2.148 1.752 0 2.628-.648 2.628-1.92 0-.54-.252-.96-.744-1.272-.324-.204-.852-.396-1.596-.576-.624-.168-1.056-.3-1.284-.408-.36-.18-.528-.408-.528-.672q0-.414.396-.648c.24-.168.576-.24 1.008-.24.492 0 .876.096 1.14.288.24.168.396.456.48.84h.936c-.168-1.296-1.008-1.932-2.544-1.932m6.06 0c-.696 0-1.272.156-1.704.468-.468.312-.696.72-.696 1.248s.228.924.708 1.212c.288.192.804.372 1.536.552.672.168 1.116.3 1.32.396.384.192.588.456.588.804 0 .696-.564 1.056-1.668 1.056q-.792 0-1.188-.288c-.264-.216-.444-.564-.516-1.056h-.936c.144 1.428 1.032 2.148 2.664 2.148 1.752 0 2.628-.648 2.628-1.92 0-.54-.252-.96-.744-1.272-.324-.204-.852-.396-1.596-.576-.624-.168-1.056-.3-1.284-.408-.36-.18-.528-.408-.528-.672q0-.414.396-.648c.24-.168.576-.24 1.008-.24.492 0 .876.096 1.14.288.24.168.396.456.48.84h.936c-.168-1.296-1.008-1.932-2.544-1.932m6.42 0c-.9 0-1.608.324-2.136.972-.528.612-.78 1.38-.78 2.292 0 1.008.264 1.8.816 2.4.528.576 1.248.876 2.136.876.804 0 1.464-.24 1.98-.696.42-.384.696-.864.84-1.464h-.96c-.156.432-.36.756-.624.972-.312.252-.732.384-1.236.384-.588 0-1.056-.192-1.392-.576s-.516-.924-.564-1.62h4.896c-.024-1.08-.264-1.932-.72-2.532-.504-.672-1.26-1.008-2.256-1.008m.024.804c1.176 0 1.836.66 1.956 1.992H120.3c.06-.612.252-1.092.588-1.452q.504-.54 1.332-.54m8.664-3.168v3.672c-.48-.876-1.164-1.308-2.052-1.308s-1.572.324-2.076.996c-.468.6-.696 1.344-.696 2.256 0 .936.228 1.704.696 2.304.504.648 1.212.984 2.124.984.936 0 1.632-.396 2.064-1.188v1.02h.9v-8.736zm-1.848 3.156c.552 0 1.008.216 1.356.672.336.444.516 1.032.516 1.752v.12c0 .696-.156 1.26-.456 1.692-.348.48-.828.72-1.452.72-.672 0-1.176-.252-1.512-.732-.3-.432-.444-1.02-.444-1.764s.144-1.32.456-1.74c.336-.48.852-.72 1.536-.72"/><path fill="#FFF" d="M343.429 169.253v8.736h.948v-8.736zm5.184 2.364c-.9 0-1.608.324-2.136.972-.528.612-.78 1.38-.78 2.292 0 1.008.264 1.8.816 2.4.528.576 1.248.876 2.136.876.804 0 1.464-.24 1.98-.696.42-.384.696-.864.84-1.464h-.96c-.156.432-.36.756-.624.972-.312.252-.732.384-1.236.384-.588 0-1.056-.192-1.392-.576s-.516-.924-.564-1.62h4.896c-.024-1.08-.264-1.932-.72-2.532-.504-.672-1.26-1.008-2.256-1.008m.024.804c1.176 0 1.836.66 1.956 1.992h-3.876c.06-.612.252-1.092.588-1.452q.504-.54 1.332-.54m6.984-.804q-.612 0-1.116.288-.504.27-.828.792v-.912h-.96v6.204h.96v-3.744c.036-.564.216-1.008.552-1.344a1.52 1.52 0 0 1 1.116-.468c1.08 0 1.632.6 1.632 1.812v3.744h.96v-3.816c0-1.704-.78-2.556-2.316-2.556"/></g><rect width="45.761" height="574" x="574" y="150.109" fill="url(#e)" rx="0" transform="rotate(90 574 150.11)"/><rect width="64" height="22" x="215.317" y="25.696" fill="#FFF" fill-opacity=".07" rx="11"/><rect width="63" height="21" x="215.817" y="26.196" stroke="#FFF" stroke-opacity=".3" rx="10.5"/><path fill="#50A7FF" d="M225.667 32.128v8.568h1.404v-5.904h.048l2.52 5.904h1.212l2.52-5.904h.048v5.904h1.404v-8.568h-1.644l-2.904 6.72h-.048l-2.916-6.72zm13.596 2.196c-.948 0-1.704.3-2.268.924-.576.612-.852 1.392-.852 2.352 0 .948.276 1.728.84 2.328.576.624 1.332.936 2.28.936.936 0 1.704-.312 2.28-.936.552-.6.84-1.38.84-2.328 0-.96-.288-1.74-.852-2.352-.576-.624-1.332-.924-2.268-.924m0 1.116c.564 0 1.008.216 1.32.672.264.384.408.888.408 1.488 0 .588-.144 1.08-.408 1.476-.312.444-.756.672-1.32.672-.576 0-1.008-.228-1.32-.672q-.396-.576-.396-1.476c0-.6.132-1.104.396-1.488.312-.456.744-.672 1.32-.672m8.736-3.48v3.384c-.516-.684-1.128-1.02-1.848-1.02-.888 0-1.596.324-2.1.972-.48.6-.708 1.356-.708 2.268 0 .948.24 1.728.72 2.328q.774.972 2.16.972 1.224 0 1.872-.828v.66h1.272V31.96zm-1.524 3.468c.432 0 .804.18 1.092.54.312.384.48.912.48 1.572v.096c0 .6-.132 1.104-.384 1.488-.288.42-.708.636-1.236.636q-.918 0-1.332-.648c-.24-.36-.348-.876-.348-1.548s.12-1.176.372-1.524c.288-.408.732-.612 1.356-.612m6.972-1.104c-.924 0-1.656.312-2.184.948-.552.624-.816 1.392-.816 2.316 0 1.032.288 1.836.864 2.424.54.564 1.272.852 2.196.852.828 0 1.512-.24 2.064-.708.432-.384.72-.876.864-1.452h-1.368c-.168.348-.348.6-.552.756-.264.192-.6.288-1.02.288-.492 0-.876-.156-1.14-.456s-.42-.744-.468-1.32h4.644c0-1.116-.252-1.992-.744-2.616-.54-.696-1.32-1.032-2.34-1.032m.036 1.116c.96 0 1.5.492 1.62 1.5h-3.192q.126-.738.504-1.116c.264-.264.612-.384 1.068-.384m4.248-3.48v8.736h1.368V31.96zm8.988.168a5.4 5.4 0 0 1-1.08.84 5 5 0 0 1-1.224.504v1.392c.792-.228 1.44-.576 1.956-1.044v6.876h1.404v-8.568z"/><rect width="64" height="22" x="298.099" y="131.09" fill="#FFF" fill-opacity=".07" rx="11"/><rect width="63" height="21" x="298.599" y="131.59" stroke="#FFF" stroke-opacity=".3" rx="10.5"/><path fill="#8679FF" d="M308.448 137.522v8.568h1.404v-5.904h.048l2.52 5.904h1.212l2.52-5.904h.048v5.904h1.404v-8.568h-1.644l-2.904 6.72h-.048l-2.916-6.72zm13.596 2.196c-.948 0-1.704.3-2.268.924-.576.612-.852 1.392-.852 2.352 0 .948.276 1.728.84 2.328.576.624 1.332.936 2.28.936.936 0 1.704-.312 2.28-.936.552-.6.84-1.38.84-2.328 0-.96-.288-1.74-.852-2.352-.576-.624-1.332-.924-2.268-.924m0 1.116c.564 0 1.008.216 1.32.672.264.384.408.888.408 1.488 0 .588-.144 1.08-.408 1.476-.312.444-.756.672-1.32.672-.576 0-1.008-.228-1.32-.672q-.396-.576-.396-1.476c0-.6.132-1.104.396-1.488.312-.456.744-.672 1.32-.672m8.736-3.48v3.384c-.516-.684-1.128-1.02-1.848-1.02-.888 0-1.596.324-2.1.972-.48.6-.708 1.356-.708 2.268 0 .948.24 1.728.72 2.328q.774.972 2.16.972 1.224 0 1.872-.828v.66h1.272v-8.736zm-1.524 3.468c.432 0 .804.18 1.092.54.312.384.48.912.48 1.572v.096c0 .6-.132 1.104-.384 1.488-.288.42-.708.636-1.236.636q-.918 0-1.332-.648c-.24-.36-.348-.876-.348-1.548s.12-1.176.372-1.524c.288-.408.732-.612 1.356-.612m6.972-1.104c-.924 0-1.656.312-2.184.948-.552.624-.816 1.392-.816 2.316 0 1.032.288 1.836.864 2.424.54.564 1.272.852 2.196.852.828 0 1.512-.24 2.064-.708.432-.384.72-.876.864-1.452h-1.368c-.168.348-.348.6-.552.756-.264.192-.6.288-1.02.288-.492 0-.876-.156-1.14-.456s-.42-.744-.468-1.32h4.644c0-1.116-.252-1.992-.744-2.616-.54-.696-1.32-1.032-2.34-1.032m.036 1.116c.96 0 1.5.492 1.62 1.5h-3.192q.126-.738.504-1.116c.264-.264.612-.384 1.068-.384m4.248-3.48v8.736h1.368v-8.736zm9.936 0q-1.386 0-2.232.936c-.552.588-.828 1.356-.84 2.316h1.404c.024-.672.168-1.188.432-1.524q.396-.54 1.188-.54c.492 0 .864.108 1.116.336.24.228.372.576.372 1.044 0 .48-.192.936-.564 1.356-.24.252-.624.576-1.176.96-.996.684-1.656 1.212-1.968 1.572-.576.648-.852 1.404-.852 2.28h5.976v-1.236h-4.224c.192-.432.72-.936 1.596-1.512.84-.564 1.44-1.02 1.776-1.38.552-.612.84-1.284.84-2.028 0-.768-.264-1.38-.792-1.86q-.81-.72-2.052-.72"/><rect width="64" height="22" x="141.251" y="128.09" fill="#FFF" fill-opacity=".07" rx="11"/><rect width="63" height="21" x="141.751" y="128.59" stroke="#FFF" stroke-opacity=".3" rx="10.5"/><path fill="#76C750" d="M151.6 134.522v8.568h1.404v-5.904h.048l2.52 5.904h1.212l2.52-5.904h.048v5.904h1.404v-8.568h-1.644l-2.904 6.72h-.048l-2.916-6.72zm13.596 2.196c-.948 0-1.704.3-2.268.924-.576.612-.852 1.392-.852 2.352 0 .948.276 1.728.84 2.328.576.624 1.332.936 2.28.936.936 0 1.704-.312 2.28-.936.552-.6.84-1.38.84-2.328 0-.96-.288-1.74-.852-2.352-.576-.624-1.332-.924-2.268-.924m0 1.116c.564 0 1.008.216 1.32.672.264.384.408.888.408 1.488 0 .588-.144 1.08-.408 1.476-.312.444-.756.672-1.32.672-.576 0-1.008-.228-1.32-.672q-.396-.576-.396-1.476c0-.6.132-1.104.396-1.488.312-.456.744-.672 1.32-.672m8.736-3.48v3.384c-.516-.684-1.128-1.02-1.848-1.02-.888 0-1.596.324-2.1.972-.48.6-.708 1.356-.708 2.268 0 .948.24 1.728.72 2.328q.774.972 2.16.972 1.224 0 1.872-.828v.66h1.272v-8.736zm-1.524 3.468c.432 0 .804.18 1.092.54.312.384.48.912.48 1.572v.096c0 .6-.132 1.104-.384 1.488-.288.42-.708.636-1.236.636q-.918 0-1.332-.648c-.24-.36-.348-.876-.348-1.548s.12-1.176.372-1.524c.288-.408.732-.612 1.356-.612m6.972-1.104c-.924 0-1.656.312-2.184.948-.552.624-.816 1.392-.816 2.316 0 1.032.288 1.836.864 2.424.54.564 1.272.852 2.196.852.828 0 1.512-.24 2.064-.708.432-.384.72-.876.864-1.452H181c-.168.348-.348.6-.552.756-.264.192-.6.288-1.02.288-.492 0-.876-.156-1.14-.456s-.42-.744-.468-1.32h4.644c0-1.116-.252-1.992-.744-2.616-.54-.696-1.32-1.032-2.34-1.032m.036 1.116c.96 0 1.5.492 1.62 1.5h-3.192q.126-.738.504-1.116c.264-.264.612-.384 1.068-.384m4.248-3.48v8.736h1.368v-8.736zm9.888 0c-.84 0-1.536.228-2.076.708-.576.48-.888 1.152-.96 2.016h1.38q.072-.774.504-1.152c.276-.252.66-.372 1.164-.372q.738 0 1.116.324c.228.216.348.528.348.948s-.132.744-.384.96q-.396.324-1.152.324h-.6v1.056h.6c.552 0 .972.108 1.26.348.288.228.444.588.444 1.08 0 .408-.144.744-.42 1.02-.312.3-.744.456-1.284.456-.492 0-.888-.144-1.188-.42-.336-.3-.504-.732-.528-1.284h-1.428c.072.96.408 1.704 1.008 2.208.54.456 1.26.684 2.148.684.936 0 1.692-.264 2.268-.78q.828-.756.828-1.944c0-.504-.144-.924-.432-1.248-.264-.312-.66-.54-1.164-.696.948-.312 1.428-.936 1.428-1.872 0-.744-.264-1.32-.78-1.74-.528-.42-1.236-.624-2.1-.624"/><ellipse cx="249.167" cy="90.839" fill="#FFF" fill-opacity=".1" rx="26.551" ry="26.267"/><path fill="#F06565" fill-rule="evenodd" d="M245.418 85.636h8.085v-.532q0-1.674-1.184-2.858t-2.859-1.184-2.858 1.184-1.184 2.858zm10.085 0h.792q1.628 0 2.78-1.151 1.15-1.151 1.15-2.78h2q0 2.457-1.736 4.194-.746.746-1.625 1.171v5.14h4.042v2h-4.042v.456q0 1.412-.362 2.674 1.228.352 2.2 1.323 1.523 1.524 1.523 3.678v.729h-2v-.729q0-1.326-.937-2.264-.681-.68-1.566-.867-.632 1.125-1.612 2.105-2.755 2.755-6.65 2.755t-6.65-2.755q-.98-.98-1.611-2.105-.885.187-1.566.867-.938.938-.938 2.264v.729h-2v-.729q0-2.154 1.524-3.678.971-.971 2.2-1.323-.362-1.262-.362-2.674v-.457h-4.043v-2h4.043V87.07q-.88-.425-1.625-1.171-1.737-1.737-1.737-4.193h2q0 1.628 1.151 2.779 1.151 1.15 2.78 1.15h.792v-.53q0-2.503 1.77-4.273t4.272-1.77 4.273 1.77 1.77 4.272zm-13.446 1.976v7.054q0 3.067 2.168 5.235t5.235 2.169 5.235-2.169 2.169-5.235v-7.054q-.28.024-.569.024h-13.67q-.29 0-.568-.024"/><path fill="#A0A7B2" d="m290.18 126.728-15.604-15.452a31.93 31.93 0 0 0 7.361-20.47c0-8.646-3.398-16.773-9.57-22.886s-14.367-9.473-23.09-9.473c-8.721 0-16.92 3.365-23.09 9.473-6.168 6.108-9.57 14.24-9.57 22.886s3.402 16.773 9.57 22.886c6.17 6.112 14.369 9.473 23.09 9.473 7.776 0 15.136-2.675 21.012-7.585l15.615 15.465a3.038 3.038 0 1 0 4.275-4.317m-40.901-9.622c-7.1 0-13.77-2.737-18.792-7.707s-7.777-11.57-7.777-18.593 2.762-13.625 7.777-18.592 11.693-7.708 18.792-7.708 13.769 2.738 18.791 7.708 7.777 11.57 7.777 18.592c0 7.023-2.762 13.626-7.778 18.593-5.015 4.966-11.69 7.707-18.79 7.707" style="mix-blend-mode:passthrough"/><path fill="#FFF" fill-opacity=".5" fill-rule="evenodd" d="M286.376 36.004q.8.541 1.586 1.105l.583-.812q-.797-.572-1.61-1.122zm-76.861 1.105q.785-.564 1.586-1.105l-.56-.829q-.812.55-1.61 1.122zm80 1.15q1.536 1.17 3.003 2.428l.65-.76q-1.488-1.275-3.047-2.464zm-84.556 2.428q1.467-1.258 3.003-2.428l-.606-.796q-1.559 1.188-3.047 2.464zm91.407 3.565.387.39.71-.704-.386-.39-.031-.03q-1.176-1.177-2.407-2.294l-.672.74q1.213 1.101 2.37 2.26zm-95.228-.028q1.16-1.158 2.372-2.26l-.672-.74q-1.231 1.117-2.407 2.293l-.417.421.71.704zm96.947 1.813q1.315 1.417 2.547 2.906l.77-.638q-1.25-1.51-2.584-2.948zm-101.24 2.906q1.232-1.49 2.547-2.906l-.733-.68q-1.335 1.437-2.585 2.948zm104.996 1.504q1.189 1.524 2.289 3.113l.822-.57q-1.116-1.612-2.323-3.158zM193.347 53.56q1.1-1.589 2.289-3.113l-.788-.615q-1.207 1.547-2.323 3.159zm-3.088 4.9q.958-1.677 2.012-3.297l-.838-.545q-1.07 1.644-2.042 3.345zm114.947-3.297q1.054 1.62 2.012 3.296l.868-.496q-.972-1.7-2.042-3.345zm2.947 4.988q.91 1.703 1.72 3.455l.908-.42q-.822-1.778-1.746-3.506zm-120.55 3.455q.81-1.752 1.72-3.455l-.882-.471q-.923 1.729-1.745 3.506zm123.057 1.769q.759 1.773 1.414 3.587l.94-.34q-.664-1.84-1.434-3.64zm-125.257 3.587q.655-1.814 1.414-3.587l-.92-.394q-.77 1.8-1.434 3.641zm-1.728 5.527q.496-1.865 1.098-3.698l-.95-.312q-.612 1.86-1.114 3.753zm129.029-3.698q.602 1.833 1.098 3.698l.966-.257q-.503-1.893-1.114-3.753zm1.567 5.573q.442 1.878.775 3.782l.985-.173q-.338-1.932-.786-3.838zm-131.84 3.782q.333-1.903.775-3.782l-.974-.229q-.448 1.907-.786 3.838zm132.92 1.905q.278 1.913.446 3.842l.997-.087q-.171-1.958-.454-3.9zM181.68 85.893q.168-1.93.446-3.842l-.99-.144q-.282 1.94-.453 3.9zm-.258 5.796q.004-1.944.117-3.878l-.998-.059q-.115 1.962-.119 3.935zm134.515-3.878q.114 1.933.118 3.878l1-.002q-.004-1.973-.12-3.935zm-134.28 9.68q-.16-1.921-.211-3.854l-1 .026q.052 1.961.214 3.91zm134.374-3.854q-.051 1.933-.211 3.853l.997.083q.162-1.949.214-3.91zm-133.645 9.603q-.326-1.906-.542-3.832l-.994.111q.22 1.955.55 3.89zm133.247-3.832q-.216 1.926-.542 3.832l.986.168q.33-1.934.549-3.889zm-132.026 9.493q-.49-1.872-.87-3.772l-.981.197q.386 1.927.883 3.828zm131.134-3.772q-.381 1.9-.871 3.772l.968.253q.497-1.9.883-3.828zm-129.428 9.306q-.65-1.821-1.192-3.677l-.96.281q.551 1.883 1.21 3.731zm128.043-3.677q-.543 1.856-1.192 3.677l.942.335q.659-1.848 1.21-3.73zm-126.644 7.269q-.375-.887-.725-1.784l-.931.363q.354.91.735 1.81zm124.778-1.784q-.35.897-.725 1.784l.92.39q.382-.901.736-1.81zM200.43 140.132q.702.702 1.425 1.384l.687-.727q-.712-.672-1.405-1.364zm95.19 1.384q.722-.682 1.425-1.384l-.707-.707q-.693.692-1.405 1.364zm-92.3 1.343q1.485 1.322 3.043 2.556l.62-.784q-1.535-1.216-2.998-2.52zm87.792 2.556q1.558-1.234 3.043-2.556l-.665-.747q-1.463 1.303-2.998 2.519zm-80.569 3.06.647.43.555-.83-.647-.432q-1.301-.88-2.562-1.82l-.598.802q1.28.955 2.605 1.85m76.39-.002q1.324-.893 2.604-1.848l-.598-.801q-1.261.94-2.564 1.82l-.645.43.555.832zm-5.766 3.495q1.749-.945 3.443-1.992l-.526-.85q-1.67 1.03-3.393 1.963zm-68.302-1.992q1.693 1.047 3.443 1.992l.476-.88q-1.724-.931-3.393-1.962zm5.201 2.91q1.778.894 3.604 1.683l.397-.918q-1.8-.777-3.551-1.66zm57.739 1.683q1.826-.79 3.603-1.683l-.45-.894q-1.75.882-3.55 1.659zm-5.568 2.12q1.887-.625 3.735-1.36l-.37-.93q-1.82.725-3.68 1.34zm-46.734-1.36q1.848.735 3.735 1.36l.314-.95q-1.859-.615-3.68-1.34zm5.632 1.958q1.901.569 3.834 1.025l.23-.973q-1.904-.45-3.778-1.01zm35.37 1.025q1.934-.456 3.835-1.025l-.286-.958q-1.874.56-3.778 1.01zm-29.586.43q1.94.399 3.901.684l.144-.99q-1.933-.28-3.844-.673zm23.736.684q1.961-.285 3.9-.683l-.2-.98q-1.912.393-3.844.674zm-17.857.259q1.967.227 3.949.34l.057-.997q-1.953-.112-3.891-.337zm11.93.34q1.982-.113 3.949-.34l-.115-.994q-1.938.225-3.891.337zm-3.99.116q1.002 0 2.002-.03l-.029-.998q-.985.028-1.974.028-.988 0-1.973-.028l-.03.999q1 .029 2.003.029"/></svg>