<svg xmlns="http://www.w3.org/2000/svg" xmlns:xlink="http://www.w3.org/1999/xlink" fill="none" version="1.1" width="473.8924560546875" height="50" viewBox="0 0 473.8924560546875 50"><defs><clipPath id="master_svg0_120_14879"><rect x="468.7608642578125" y="0.923583984375" width="5.131591320037842" height="5.1314697265625" rx="0"/></clipPath><linearGradient x1="6.7132569551467896" y1="14.341796934604645" x2="155.09924697875977" y2="36.19763255119324" gradientUnits="userSpaceOnUse" id="master_svg1_129_12839"><stop offset="0%" stop-color="#2A7FFF" stop-opacity="1"/><stop offset="93.57143044471741%" stop-color="#FFFFFF" stop-opacity="1"/></linearGradient></defs><g><g><g clip-path="url(#master_svg0_120_14879)"><g><path d="M469.3367214609375,3.919056318359375L470.3112274609375,4.451996318359376C470.3344274609375,4.464676318359375,470.3534174609375,4.483666318359375,470.3660974609375,4.506866318359375L470.8990474609375,5.481346318359375C470.9429974609375,5.561676318359375,471.0075474609375,5.627626318359375,471.0857274609375,5.672026318359375C471.1590374609375,5.713666318359375,471.2428274609375,5.735666318359375,471.3280174609375,5.735666318359375C471.4132074609375,5.735666318359375,471.4969974609375,5.713666318359375,471.5703174609375,5.672026318359375C471.6484974609375,5.627626318359375,471.7130874609375,5.561676318359375,471.7569874609375,5.481346318359375L472.2899474609375,4.506866318359375C472.3026174609375,4.483666318359375,472.3216174609375,4.464676318359375,472.3448174609375,4.451996318359376L473.3194174609375,3.919056318359375C473.3997474609375,3.875106318359375,473.4656974609375,3.810566318359375,473.5100974609375,3.732386318359375C473.5517474609375,3.659076318359375,473.5737474609375,3.575286318359375,473.5737474609375,3.490096318359375C473.5737474609375,3.404906318359375,473.5517474609375,3.321116318359375,473.5100974609375,3.247806318359375C473.4656974609375,3.169626318359375,473.3997474609375,3.105036318359375,473.3194174609375,3.0611363183593747L472.3094374609375,2.5087563183593753L471.7570874609375,1.498794318359375C471.7131374609375,1.418465318359375,471.6485974609375,1.352517318359375,471.5704174609375,1.308118618359375C471.4970974609375,1.266475518359375,471.4133174609375,1.244476318359375,471.3281174609375,1.244476318359375C471.2429274609375,1.244476318359375,471.1591374609375,1.266475518359375,471.0858274609375,1.308118618359375C471.0076474609375,1.352517318359375,470.9430474609375,1.418465318359375,470.8991474609375,1.498794318359375L470.3661474609375,2.4732763183593747C470.3534974609375,2.496446318359375,470.3344474609375,2.515496318359375,470.3112774609375,2.528146318359375L469.3367214609375,3.061086318359375C469.2563904609375,3.105036318359375,469.1904414609375,3.169576318359375,469.1460412609375,3.247756318359375C469.1043971609375,3.321066318359375,469.0823974609375,3.404856318359375,469.0823974609375,3.490046318359375C469.0823974609375,3.575236318359375,469.1043971609375,3.659026318359375,469.1460412609375,3.732336318359375C469.1904914609375,3.810566318359375,469.2563904609375,3.875106318359375,469.3367214609375,3.919056318359375Z" fill="#0066FE" fill-opacity="1" style="mix-blend-mode:passthrough"/></g></g><g><g><path d="M456.1821757890625,11.0778536328125L458.8573587890625,12.5409136328125C458.9210587890625,12.5757136328125,458.9731987890625,12.6278536328125,459.0079987890625,12.6915536328125L460.4710587890625,15.3667736328125C460.5917087890625,15.5872736328125,460.7688887890625,15.7682736328125,460.9834987890625,15.8901736328125C461.1847687890625,16.0044736328125,461.4147887890625,16.0648736328125,461.6486587890625,16.0648736328125C461.8825187890625,16.0648736328125,462.1125387890625,16.0044736328125,462.3138087890625,15.8901736328125C462.5284087890625,15.7682736328125,462.7057387890625,15.5872736328125,462.8262487890625,15.3667736328125L464.2893087890625,12.6915536328125C464.3241087890625,12.6278536328125,464.3762487890625,12.5757136328125,464.4399487890625,12.5409136328125L467.1154087890625,11.0778536328125C467.3359087890625,10.9572036328125,467.5170087890625,10.7800136328125,467.6389087890625,10.565403632812501C467.7532087890625,10.3641436328125,467.8136087890625,10.1341236328125,467.8136087890625,9.9002536328125C467.8136087890625,9.6663836328125,467.7532087890625,9.4363736328125,467.6389087890625,9.2351036328125C467.5170087890625,9.0204936328125,467.3359087890625,8.843173632812501,467.1154087890625,8.7226536328125L464.3428187890625,7.2062236328125L462.8265287890625,4.4336406328125C462.7058787890625,4.2131166328125,462.52868878906247,4.0320746328125,462.3140787890625,3.9101876328125C462.1128187890625,3.7958668328125,461.8827987890625,3.7354736328125,461.6489287890625,3.7354736328125C461.4150587890625,3.7354736328125,461.1850387890625,3.7958668328125,460.9837787890625,3.9101876328125C460.7691687890625,4.0320746328125,460.5918387890625,4.2131166328125,460.4713287890625,4.4336406328125L459.0081387890625,7.1088236328125C458.9734087890625,7.1724436328125005,458.9211187890625,7.2247336328125,458.8574987890625,7.2594636328124995L456.1821757890625,8.7225236328125C455.9616517890625,8.843173632812501,455.7806097890625,9.020353632812501,455.6587227890625,9.2349636328125C455.5444019890625,9.436233632812499,455.4840087890625,9.6662536328125,455.4840087890625,9.9001236328125C455.4840087890625,10.1339836328125,455.5444019890625,10.3640036328125,455.6587227890625,10.565273632812499C455.7807467890625,10.7800136328125,455.9616517890625,10.9572036328125,456.1821757890625,11.0778536328125Z" fill="#FFFFFF" fill-opacity="1" style="mix-blend-mode:passthrough"/></g></g></g><g><g><path d="M32.832,16.724L21.492,18.236C21.276,15.356,21.168,12.08,21.168,8.408L17.712,8.408C17.748,12.224,17.892,15.68,18.108,18.704L10.368,19.748L10.908,22.988L18.396,21.98C18.648,24.464,19.008,26.552,19.44,28.244C20.484,32.312,22.068,35.624,24.156,38.144C26.064,40.448,27.936,41.6,29.736,41.6C30.852,41.564,31.752,40.988,32.472,39.908C33.264,38.468,33.948,36.272,34.452,33.32L31.464,31.592C31.032,35.912,30.384,38.072,29.556,38.144C28.404,38.072,27.144,37.1,25.848,35.228C24.444,33.248,23.328,30.368,22.5,26.624C22.212,25.184,21.96,23.456,21.744,21.512L33.372,19.964L32.832,16.724ZM5.652,22.556L5.652,41.78L9.108,41.78L9.108,17.444C10.476,15.068,11.628,12.512,12.528,9.812L9.324,8.3C7.596,13.844,4.86,18.704,1.116,22.88L2.196,26.444C3.42,25.184,4.572,23.888,5.652,22.556ZM25.02,8.552L22.824,10.676C25.128,12.656,26.892,14.492,28.152,16.22L30.492,13.916C28.98,12.116,27.18,10.352,25.02,8.552ZM50.004,20.864L43.416,20.864C44.244,18.596,44.892,16.148,45.36,13.52L50.652,13.52L50.652,10.208L38.16,10.208L38.16,13.52L42.12,13.52C41.256,18.488,39.6,22.952,37.116,26.912L38.808,29.648C39.42,28.784,39.996,27.884,40.572,26.948L40.572,40.52L43.74,40.52L43.74,38.072L46.836,38.072L46.836,39.836L50.004,39.836L50.004,20.864ZM43.74,34.94L43.74,23.96L46.836,23.96L46.836,34.94L43.74,34.94ZM54.072,15.068L52.128,27.128L66.672,27.128C66.672,32.42,66.384,35.624,65.808,36.74C65.304,37.82,63.684,38.36,60.984,38.36C60.372,38.36,59.292,38.252,57.708,38.072L58.644,41.384C59.724,41.456,60.804,41.528,61.812,41.528C65.124,41.528,67.32,40.844,68.364,39.476C69.372,38.108,69.912,32.924,69.912,23.924L66.24,23.924L68.148,9.704L52.092,9.704L52.092,12.944L64.404,12.944L62.784,23.924L55.908,23.924L57.42,15.284L54.072,15.068ZM51.3,30.908L51.3,34.148L64.692,34.148L64.692,30.908L51.3,30.908ZM81.18,28.208L88.416,28.208L88.416,31.556L81.18,31.556L81.18,28.208ZM88.416,34.688L88.416,41.816L91.8,41.816L91.8,34.688L99.144,34.688L99.144,36.524L102.492,36.524L102.492,18.668L91.8,18.668L91.8,15.536L88.416,15.536L88.416,18.668L77.832,18.668L77.832,36.632L81.18,36.632L81.18,34.688L88.416,34.688ZM91.8,31.556L91.8,28.208L99.144,28.208L99.144,31.556L91.8,31.556ZM99.144,25.22L91.8,25.22L91.8,21.836L99.144,21.836L99.144,25.22ZM88.416,21.836L88.416,25.22L81.18,25.22L81.18,21.836L88.416,21.836ZM105.264,10.928L91.584,10.928C91.296,9.92,90.972,8.984,90.684,8.156L87.048,8.732C87.408,9.416,87.732,10.136,88.056,10.928L74.592,10.928L74.592,17.912L77.904,17.912L77.904,14.06L101.952,14.06L101.952,17.732L105.264,17.732L105.264,10.928ZM115.056,21.836L115.056,35.444L137.088,35.444L137.088,21.836L115.056,21.836ZM133.776,32.42L118.368,32.42L118.368,30.152L133.776,30.152L133.776,32.42ZM118.368,27.272L118.368,24.86L133.776,24.86L133.776,27.272L118.368,27.272ZM111.168,11.432L111.168,14.6L121.428,14.6C118.692,16.688,114.696,18.452,109.404,19.892L111.24,22.916C117.216,20.756,121.608,17.984,124.416,14.672L124.416,20.756L127.728,20.756L127.728,14.636C130.428,18.02,134.856,20.792,141.048,22.916L142.524,19.82C137.376,18.524,133.452,16.76,130.788,14.6L140.976,14.6L140.976,11.432L127.728,11.432L127.728,8.408L124.416,8.408L124.416,11.432L111.168,11.432ZM110.448,37.604L110.448,40.736L141.588,40.736L141.588,37.604L110.448,37.604Z" fill="url(#master_svg1_129_12839)" fill-opacity="1"/></g><g><path d="" fill="#3D3D3D" fill-opacity="1"/><path d="M175.148,8.228C173.456,10.568,172.16,13.016,171.26,15.608C170.144,18.632,169.60399999999998,21.8,169.60399999999998,25.076C169.60399999999998,28.316,170.144,31.448,171.26,34.508C172.16,37.028,173.456,39.476,175.148,41.852L178.352,41.852C176.84,39.368,175.688,36.884,174.89600000000002,34.4C173.816,31.268,173.312,28.136,173.312,25.04C173.312,21.908,173.816,18.776,174.89600000000002,15.68C175.688,13.16,176.84,10.676,178.352,8.228L175.148,8.228ZM189.872,12.296L179.972,38L184.148,38L186.56,31.376L197.612,31.376L200.024,38L204.236,38L194.336,12.296L189.872,12.296ZM187.748,28.136L192.03199999999998,16.508L192.176,16.508L196.424,28.136L187.748,28.136ZM206.828,12.296L206.828,38L210.716,38L210.716,12.296L206.828,12.296ZM238.976,11.792C234.872,11.792,231.776,13.124,229.61599999999999,15.86C227.672,18.272,226.736,21.368,226.736,25.184C226.736,29.072,227.636,32.168,229.50799999999998,34.472C231.632,37.136,234.8,38.504,239.012,38.504C241.784,38.504,244.16,37.712,246.14,36.128C248.264,34.436,249.596,32.096,250.172,29.108L246.356,29.108C245.852,31.124,244.952,32.636,243.656,33.644C242.43200000000002,34.58,240.848,35.048,238.976,35.048C236.096,35.048,233.97199999999998,34.148,232.60399999999998,32.348C231.308,30.656,230.66,28.28,230.66,25.184C230.66,22.196,231.308,19.82,232.64,18.092C234.04399999999998,16.184,236.132,15.248,238.904,15.248C240.776,15.248,242.288,15.644,243.512,16.472C244.736,17.3,245.564,18.596,245.99599999999998,20.324L249.812,20.324C249.416,17.732,248.264,15.644,246.392,14.132C244.44799999999998,12.548,241.964,11.792,238.976,11.792ZM262.34000000000003,18.884C259.532,18.884,257.264,19.82,255.572,21.692C253.88,23.528,253.05200000000002,25.868,253.05200000000002,28.712C253.05200000000002,31.52,253.88,33.86,255.536,35.66C257.264,37.532,259.532,38.504,262.34000000000003,38.504C265.148,38.504,267.416,37.532,269.144,35.66C270.8,33.86,271.628,31.52,271.628,28.712C271.628,25.868,270.764,23.528,269.108,21.692C267.416,19.82,265.148,18.884,262.34000000000003,18.884ZM262.34000000000003,22.016C264.104,22.016,265.472,22.7,266.48,24.104C267.344,25.292,267.776,26.84,267.776,28.712C267.776,30.548,267.344,32.06,266.48,33.284C265.472,34.652,264.104,35.372,262.34000000000003,35.372C260.576,35.372,259.20799999999997,34.652,258.236,33.284C257.372,32.096,256.976,30.584,256.976,28.712C256.976,26.84,257.372,25.292,258.236,24.104C259.20799999999997,22.7,260.576,22.016,262.34000000000003,22.016ZM288.656,11.792L288.656,22.16C287.144,19.964,285.236,18.884,282.96799999999996,18.884C280.304,18.884,278.18,19.856,276.668,21.8C275.228,23.6,274.544,25.868,274.544,28.604C274.544,31.448,275.264,33.788,276.704,35.588C278.252,37.532,280.41200000000003,38.504,283.148,38.504C285.668,38.504,287.61199999999997,37.568,288.908,35.768L288.908,38L292.472,38L292.472,11.792L288.656,11.792ZM283.832,21.98C285.236,21.98,286.38800000000003,22.52,287.324,23.672C288.26,24.896,288.764,26.516,288.764,28.532L288.764,28.856C288.764,30.728,288.368,32.24,287.576,33.428C286.64,34.724,285.38,35.408,283.724,35.408C281.852,35.408,280.448,34.724,279.584,33.392C278.828,32.24,278.46799999999996,30.656,278.46799999999996,28.604C278.46799999999996,26.552,278.86400000000003,24.968,279.656,23.888C280.55600000000004,22.592,281.96000000000004,21.98,283.832,21.98ZM304.676,18.884C301.94,18.884,299.744,19.82,298.15999999999997,21.728C296.504,23.6,295.712,25.904,295.712,28.676C295.712,31.736,296.576,34.148,298.304,35.948C299.88800000000003,37.64,302.084,38.504,304.82,38.504C307.304,38.504,309.356,37.784,310.976,36.38C312.272,35.228,313.1,33.752,313.53200000000004,32.024L309.716,32.024C309.212,33.104,308.672,33.932,308.024,34.436C307.196,35.048,306.116,35.372,304.784,35.372C303.272,35.372,302.084,34.868,301.22,33.932C300.356,32.96,299.88800000000003,31.556,299.744,29.756L313.856,29.756C313.82,26.444,313.06399999999996,23.852,311.624,21.98C310.03999999999996,19.892,307.7,18.884,304.676,18.884ZM304.784,22.016C307.808,22.016,309.5,23.636,309.86,26.876L299.81600000000003,26.876C300.03200000000004,25.292,300.572,24.104,301.36400000000003,23.276C302.228,22.412,303.344,22.016,304.784,22.016ZM317.456,12.296L317.456,38L321.38,38L321.38,27.38L328.328,27.38C329.804,27.38,330.91999999999996,27.668,331.712,28.316C332.46799999999996,28.964,332.93600000000004,29.972,333.08000000000004,31.412L333.404,34.616C333.548,36.056,333.908,37.208,334.52,38L338.76800000000003,38C337.904,37.064,337.4,35.804,337.256,34.22L336.824,30.116C336.536,27.596,335.276,26.084,332.972,25.58L332.972,25.508C334.376,25.148,335.49199999999996,24.392,336.32,23.24C337.03999999999996,22.196,337.4,21.008,337.4,19.64C337.4,17.192,336.608,15.356,335.024,14.06C333.512,12.872,331.424,12.296,328.832,12.296L317.456,12.296ZM321.38,15.644L328.29200000000003,15.644C330.092,15.644,331.38800000000003,15.968,332.252,16.652C333.044,17.3,333.476,18.344,333.476,19.784C333.476,21.152,333.044,22.196,332.216,22.916C331.352,23.636,330.05600000000004,24.032,328.328,24.032L321.38,24.032L321.38,15.644ZM349.892,18.884C347.156,18.884,344.96000000000004,19.82,343.376,21.728C341.72,23.6,340.928,25.904,340.928,28.676C340.928,31.736,341.79200000000003,34.148,343.52,35.948C345.10400000000004,37.64,347.3,38.504,350.036,38.504C352.52,38.504,354.572,37.784,356.192,36.38C357.488,35.228,358.31600000000003,33.752,358.748,32.024L354.932,32.024C354.428,33.104,353.88800000000003,33.932,353.24,34.436C352.41200000000003,35.048,351.332,35.372,350,35.372C348.488,35.372,347.3,34.868,346.43600000000004,33.932C345.572,32.96,345.10400000000004,31.556,344.96000000000004,29.756L359.072,29.756C359.036,26.444,358.28,23.852,356.84000000000003,21.98C355.256,19.892,352.916,18.884,349.892,18.884ZM350,22.016C353.024,22.016,354.716,23.636,355.076,26.876L345.03200000000004,26.876C345.248,25.292,345.788,24.104,346.58000000000004,23.276C347.44399999999996,22.412,348.56,22.016,350,22.016ZM360.332,19.388L367.244,38L371.06,38L377.972,19.388L373.832,19.388L369.152,33.248L364.472,19.388L360.332,19.388ZM383.012,11.936C382.256,11.936,381.644,12.152,381.14,12.656C380.63599999999997,13.124,380.384,13.736,380.384,14.492C380.384,15.212,380.63599999999997,15.86,381.14,16.364C381.644,16.832,382.256,17.084,383.012,17.084C383.73199999999997,17.084,384.38,16.832,384.884,16.364C385.38800000000003,15.86,385.676,15.248,385.676,14.492C385.676,13.736,385.424,13.124,384.91999999999996,12.656C384.416,12.152,383.76800000000003,11.936,383.012,11.936ZM381.10400000000004,19.388L381.10400000000004,38L384.91999999999996,38L384.91999999999996,19.388L381.10400000000004,19.388ZM397.952,18.884C395.216,18.884,393.02,19.82,391.43600000000004,21.728C389.78,23.6,388.988,25.904,388.988,28.676C388.988,31.736,389.852,34.148,391.58000000000004,35.948C393.164,37.64,395.36,38.504,398.096,38.504C400.58,38.504,402.632,37.784,404.252,36.38C405.548,35.228,406.376,33.752,406.808,32.024L402.992,32.024C402.488,33.104,401.948,33.932,401.3,34.436C400.472,35.048,399.392,35.372,398.06,35.372C396.548,35.372,395.36,34.868,394.496,33.932C393.632,32.96,393.164,31.556,393.02,29.756L407.132,29.756C407.096,26.444,406.34,23.852,404.9,21.98C403.316,19.892,400.976,18.884,397.952,18.884ZM398.06,22.016C401.084,22.016,402.776,23.636,403.136,26.876L393.092,26.876C393.308,25.292,393.848,24.104,394.64,23.276C395.504,22.412,396.62,22.016,398.06,22.016ZM408.392,19.388L414.692,38L418.22,38L422.108,24.068L425.996,38L429.524,38L435.824,19.388L431.612,19.388L427.688,33.464L423.872,19.388L420.344,19.388L416.528,33.464L412.604,19.388L408.392,19.388ZM437.624,8.228C439.1,10.676,440.252,13.16,441.08,15.68C442.124,18.776,442.664,21.908,442.664,25.04C442.664,28.136,442.124,31.268,441.08,34.4C440.252,36.884,439.1,39.368,437.624,41.852L440.828,41.852C442.484,39.476,443.78,37.028,444.716,34.508C445.796,31.448,446.372,28.316,446.372,25.076C446.372,21.8,445.796,18.632,444.716,15.608C443.78,13.016,442.484,10.568,440.828,8.228L437.624,8.228Z" fill="#FFFFFF" fill-opacity="1"/></g></g></g></svg>