<svg xmlns="http://www.w3.org/2000/svg" width="574" height="200" fill="none"><defs><linearGradient id="c" x1=".023" x2=".534" y1="-.036" y2=".781"><stop offset="0%" stop-color="#5677A8"/><stop offset="74.878%"/></linearGradient><linearGradient id="e" x1="1" x2="-.072" y1=".5" y2=".501"><stop offset="17.143%" stop-color="#0B0B0B"/><stop offset="100%" stop-color="#212121" stop-opacity="0"/></linearGradient><linearGradient id="f" x1="1.05" x2=".036" y1=".5" y2=".832"><stop offset="32.857%" stop-color="#0F0F0F"/><stop offset="100%" stop-opacity="0"/></linearGradient><linearGradient id="g" x1=".043" x2=".96" y1=".716" y2=".716"><stop offset="0%" stop-color="#608F4A"/><stop offset="100%" stop-color="#608F4A" stop-opacity="0"/></linearGradient><linearGradient id="h" x1=".043" x2=".96" y1=".716" y2=".716"><stop offset="0%" stop-color="#524A8F"/><stop offset="100%" stop-color="#524A8F" stop-opacity="0"/></linearGradient><linearGradient id="i" x1=".043" x2=".96" y1=".716" y2=".716"><stop offset="0%" stop-color="#A4A100"/><stop offset="100%" stop-color="#A4A100" stop-opacity="0"/></linearGradient><linearGradient id="j" x1=".043" x2=".96" y1=".716" y2=".716"><stop offset="0%" stop-color="#478CD3"/><stop offset="100%" stop-color="#478CD3" stop-opacity="0"/></linearGradient><filter id="b" width="1" height="1" x="0" y="0" color-interpolation-filters="sRGB" filterUnits="objectBoundingBox"><feFlood flood-opacity="0" result="BackgroundImageFix"/><feBlend in="SourceGraphic" in2="BackgroundImageFix" result="shape"/><feGaussianBlur in="BackgroundImageFix" stdDeviation="5"/><feComposite in2="SourceAlpha" operator="in" result="effect1_foregroundBlur"/><feBlend in="SourceGraphic" in2="effect1_foregroundBlur" result="shape"/></filter><filter id="a" width="1" height="1" x="0" y="0" color-interpolation-filters="sRGB" filterUnits="objectBoundingBox"><feFlood flood-opacity="0" result="BackgroundImageFix"/><feBlend in="SourceGraphic" in2="BackgroundImageFix" result="shape"/><feGaussianBlur in="BackgroundImageFix" stdDeviation="5"/><feComposite in2="SourceAlpha" operator="in" result="effect1_foregroundBlur"/><feBlend in="SourceGraphic" in2="effect1_foregroundBlur" result="shape"/></filter><mask id="d" maskUnits="objectBoundingBox" style="mask-type:alpha"><g filter="url(#a)"><path fill="#FFF" d="M172.234 10v178.909H574V10c0-5.523-4.477-10-10-10H182.234c-5.523 0-10 4.477-10 10"/></g></mask></defs><g filter="url(#b)"><path fill="url(#c)" fill-rule="evenodd" d="M172.234 10v190H574V10c0-5.523-4.477-10-10-10H182.234c-5.523 0-10 4.477-10 10M573 199H173.234V10q0-3.728 2.636-6.364T182.234 1H564q3.728 0 6.364 2.636T573 10z"/></g><g mask="url(#d)" style="opacity:.699999988079071"><path fill="#A89FF8" d="M192.36 23.028a.69.69 0 0 0-.516.204c-.144.12-.204.288-.204.504 0 .204.06.372.204.516a.74.74 0 0 0 .516.204.74.74 0 0 0 .516-.204.7.7 0 0 0 .216-.516q0-.324-.216-.504a.69.69 0 0 0-.516-.204m-.48 2.34v6.204h.96v-6.204zm5.472-.168c-.696 0-1.284.324-1.752.996v-.828h-.96v6.204h.96v-3.78c0-.492.144-.912.432-1.248.288-.36.648-.528 1.092-.528.948 0 1.428.54 1.428 1.644v3.912h.96v-3.888c0-.504.132-.9.42-1.212.264-.312.612-.456 1.02-.456.528 0 .912.132 1.152.42.228.264.348.672.348 1.224v3.912h.96v-4.068c0-.708-.204-1.272-.588-1.692-.408-.408-.924-.612-1.572-.612-.432 0-.792.096-1.092.288-.336.18-.624.48-.864.888-.348-.792-.996-1.176-1.944-1.176m10.512 0c-.936 0-1.62.396-2.064 1.188v-1.02h-.9v8.58h.96v-3.504q.72 1.296 2.052 1.296c.888 0 1.572-.336 2.076-.984.456-.6.696-1.356.696-2.268 0-.936-.24-1.692-.708-2.292-.516-.672-1.224-.996-2.112-.996m-.12.792c.66 0 1.164.24 1.512.744.288.432.444 1.02.444 1.752q0 1.116-.468 1.764c-.348.456-.852.696-1.524.696-.576 0-1.02-.228-1.356-.66-.36-.444-.528-1.02-.528-1.74v-.12c0-.696.156-1.272.468-1.704.336-.492.828-.732 1.452-.732m6.96-.792c-.936 0-1.668.312-2.22.96-.528.612-.792 1.38-.792 2.316 0 .924.264 1.692.792 2.292.552.648 1.284.972 2.22.972q1.386 0 2.232-.972c.516-.6.78-1.368.78-2.292 0-.936-.264-1.704-.792-2.316-.552-.648-1.296-.96-2.22-.96m0 .804q.972 0 1.548.756c.324.456.492 1.02.492 1.716 0 .672-.168 1.248-.492 1.704q-.576.756-1.548.756c-.66 0-1.176-.252-1.536-.756-.336-.456-.492-1.02-.492-1.704 0-.696.156-1.26.492-1.716.36-.504.876-.756 1.536-.756m6.984-.804c-.432 0-.804.132-1.128.396-.264.204-.48.492-.648.852v-1.08h-.948v6.204h.948v-3.288c0-.576.156-1.068.492-1.476.324-.432.732-.636 1.212-.636.3 0 .612.036.924.132v-.96c-.228-.096-.516-.144-.852-.144M225 23.364l-.948.396v1.608h-1.248v.804h1.248v3.948c0 .468.096.816.3 1.056.216.264.588.396 1.092.396h.936v-.804h-.792c-.216 0-.372-.06-.456-.156-.096-.096-.132-.264-.132-.492v-3.948h1.536v-.804H225zm-31.776 16-.948.396v1.608h-1.248v.804h1.248v3.948c0 .468.096.816.3 1.056.216.264.588.396 1.092.396h.936v-.804h-.792c-.216 0-.372-.06-.456-.156-.096-.096-.132-.264-.132-.492v-3.948h1.536v-.804h-1.536zm5.328 1.836c-.432 0-.804.132-1.128.396-.264.204-.48.492-.648.852v-1.08h-.948v6.204h.948v-3.288c0-.576.156-1.068.492-1.476.324-.432.732-.636 1.212-.636.3 0 .612.036.924.132v-.96c-.228-.096-.516-.144-.852-.144m.972.168 2.46 6.06-1.068 2.52h1.044l3.396-8.58H204.3l-1.836 4.896-1.896-4.896zM311.1 87.004c-.528 0-.936.144-1.212.444-.264.288-.396.684-.396 1.212v.708h-1.56v.804h1.56v5.4h.96v-5.4h1.752v-.804h-1.752v-.684q0-.45.18-.648c.12-.144.324-.204.588-.204h1.068v-.828zm4.764 2.196c-.936 0-1.668.312-2.22.96-.528.612-.792 1.38-.792 2.316 0 .924.264 1.692.792 2.292.552.648 1.284.972 2.22.972q1.386 0 2.232-.972c.516-.6.78-1.368.78-2.292 0-.936-.264-1.704-.792-2.316-.552-.648-1.296-.96-2.22-.96m0 .804q.972 0 1.548.756c.324.456.492 1.02.492 1.716 0 .672-.168 1.248-.492 1.704q-.576.756-1.548.756c-.66 0-1.176-.252-1.536-.756-.336-.456-.492-1.02-.492-1.704 0-.696.156-1.26.492-1.716.36-.504.876-.756 1.536-.756m6.984-.804c-.432 0-.804.132-1.128.396-.264.204-.48.492-.648.852v-1.08h-.948v6.204h.948v-3.288c0-.576.156-1.068.492-1.476.324-.432.732-.636 1.212-.636.3 0 .612.036.924.132v-.96c-.228-.096-.516-.144-.852-.144m16.224-2.172a.69.69 0 0 0-.516.204c-.144.12-.204.288-.204.504 0 .204.06.372.204.516a.74.74 0 0 0 .516.204.74.74 0 0 0 .516-.204.7.7 0 0 0 .216-.516q0-.324-.216-.504a.69.69 0 0 0-.516-.204m-.48 2.34v6.204h.96v-6.204zm5.664-.168q-.612 0-1.116.288-.504.27-.828.792v-.912h-.96v6.204h.96v-3.744c.036-.564.216-1.008.552-1.344a1.52 1.52 0 0 1 1.116-.468c1.08 0 1.632.6 1.632 1.812v3.744h.96v-3.816c0-1.704-.78-2.556-2.316-2.556m83.208-2.172a.69.69 0 0 0-.516.204c-.144.12-.204.288-.204.504 0 .204.06.372.204.516a.74.74 0 0 0 .516.204.74.74 0 0 0 .516-.204.7.7 0 0 0 .216-.516q0-.324-.216-.504a.69.69 0 0 0-.516-.204m-.48 2.34v6.204h.96v-6.204zm5.244-2.364c-.528 0-.936.144-1.212.444-.264.288-.396.684-.396 1.212v.708h-1.56v.804h1.56v5.4h.96v-5.4h1.752v-.804h-1.752v-.684q0-.45.18-.648c.12-.144.324-.204.588-.204h1.068v-.828zM212.34 103.028a.69.69 0 0 0-.516.204c-.144.12-.204.288-.204.504 0 .204.06.372.204.516a.74.74 0 0 0 .516.204.74.74 0 0 0 .516-.204.7.7 0 0 0 .216-.516q0-.324-.216-.504a.69.69 0 0 0-.516-.204m-.48 2.34v6.204h.96v-6.204zm5.244-2.364c-.528 0-.936.144-1.212.444-.264.288-.396.684-.396 1.212v.708h-1.56v.804h1.56v5.4h.96v-5.4h1.752v-.804h-1.752v-.684q0-.45.18-.648c.12-.144.324-.204.588-.204h1.068v-.828zM194.532 169.2c-.936 0-1.62.396-2.064 1.188v-1.02h-.9v8.58h.96v-3.504q.72 1.296 2.052 1.296c.888 0 1.572-.336 2.076-.984.456-.6.696-1.356.696-2.268 0-.936-.24-1.692-.708-2.292-.516-.672-1.224-.996-2.112-.996m-.12.792c.66 0 1.164.24 1.512.744.288.432.444 1.02.444 1.752q0 1.116-.468 1.764c-.348.456-.852.696-1.524.696-.576 0-1.02-.228-1.356-.66-.36-.444-.528-1.02-.528-1.74v-.12c0-.696.156-1.272.468-1.704.336-.492.828-.732 1.452-.732m6.912-.792c-.432 0-.804.132-1.128.396-.264.204-.48.492-.648.852v-1.08h-.948v6.204h.948v-3.288c0-.576.156-1.068.492-1.476.324-.432.732-.636 1.212-.636.3 0 .612.036.924.132v-.96c-.228-.096-.516-.144-.852-.144m2.448-2.172a.69.69 0 0 0-.516.204c-.144.12-.204.288-.204.504 0 .204.06.372.204.516a.74.74 0 0 0 .516.204.74.74 0 0 0 .516-.204.7.7 0 0 0 .216-.516q0-.324-.216-.504a.69.69 0 0 0-.516-.204m-.48 2.34v6.204h.96v-6.204zm5.664-.168q-.612 0-1.116.288-.504.27-.828.792v-.912h-.96v6.204h.96v-3.744c.036-.564.216-1.008.552-1.344a1.52 1.52 0 0 1 1.116-.468c1.08 0 1.632.6 1.632 1.812v3.744h.96v-3.816c0-1.704-.78-2.556-2.316-2.556m5.46-1.836-.948.396v1.608h-1.248v.804h1.248v3.948c0 .468.096.816.3 1.056.216.264.588.396 1.092.396h.936v-.804h-.792c-.216 0-.372-.06-.456-.156-.096-.096-.132-.264-.132-.492v-3.948h1.536v-.804h-1.536z"/><path fill="#FFF" d="M232.512 23.028a.69.69 0 0 0-.516.204c-.144.12-.204.288-.204.504 0 .204.06.372.204.516a.74.74 0 0 0 .516.204.77.77 0 0 0 .528-.204.74.74 0 0 0 .204-.516.65.65 0 0 0-.204-.504.71.71 0 0 0-.528-.204m-.48 2.34v6.888c0 .588-.288.888-.852.888h-.504v.804h.576c1.152 0 1.74-.552 1.74-1.656v-6.924zM237 25.2c-.696 0-1.272.156-1.704.468-.468.312-.696.72-.696 1.248s.228.924.708 1.212c.288.192.804.372 1.536.552.672.168 1.116.3 1.32.396.384.192.588.456.588.804 0 .696-.564 1.056-1.668 1.056q-.792 0-1.188-.288c-.264-.216-.444-.564-.516-1.056h-.936c.144 1.428 1.032 2.148 2.664 2.148 1.752 0 2.628-.648 2.628-1.92 0-.54-.252-.96-.744-1.272-.324-.204-.852-.396-1.596-.576-.624-.168-1.056-.3-1.284-.408-.36-.18-.528-.408-.528-.672q0-.414.396-.648c.24-.168.576-.24 1.008-.24.492 0 .876.096 1.14.288.24.168.396.456.48.84h.936c-.168-1.296-1.008-1.932-2.544-1.932m6.636 0c-.936 0-1.668.312-2.22.96-.528.612-.792 1.38-.792 2.316 0 .924.264 1.692.792 2.292.552.648 1.284.972 2.22.972q1.386 0 2.232-.972c.516-.6.78-1.368.78-2.292 0-.936-.264-1.704-.792-2.316-.552-.648-1.296-.96-2.22-.96m0 .804q.972 0 1.548.756c.324.456.492 1.02.492 1.716 0 .672-.168 1.248-.492 1.704q-.576.756-1.548.756c-.66 0-1.176-.252-1.536-.756-.336-.456-.492-1.02-.492-1.704 0-.696.156-1.26.492-1.716.36-.504.876-.756 1.536-.756m7.164-.804q-.612 0-1.116.288-.504.27-.828.792v-.912h-.96v6.204h.96v-3.744c.036-.564.216-1.008.552-1.344a1.52 1.52 0 0 1 1.116-.468c1.08 0 1.632.6 1.632 1.812v3.744h.96v-3.816c0-1.704-.78-2.556-2.316-2.556M207 41.728a.66.66 0 0 0-.516.216.7.7 0 0 0-.216.516c0 .204.072.384.216.528.132.132.3.204.516.204a.76.76 0 0 0 .516-.204.73.73 0 0 0 .216-.528.7.7 0 0 0-.216-.516.72.72 0 0 0-.516-.216m0 4.392a.66.66 0 0 0-.516.216.7.7 0 0 0-.216.516c0 .204.072.384.216.528.132.132.3.204.516.204a.76.76 0 0 0 .516-.204.73.73 0 0 0 .216-.528.7.7 0 0 0-.216-.516.72.72 0 0 0-.516-.216m9.132 8.716v3.672c-.48-.876-1.164-1.308-2.052-1.308s-1.572.324-2.076.996c-.468.6-.696 1.344-.696 2.256 0 .936.228 1.704.696 2.304.504.648 1.212.984 2.124.984.936 0 1.632-.396 2.064-1.188v1.02h.9v-8.736zm-1.848 3.156c.552 0 1.008.216 1.356.672.336.444.516 1.032.516 1.752v.12c0 .696-.156 1.26-.456 1.692-.348.48-.828.72-1.452.72-.672 0-1.176-.252-1.512-.732-.3-.432-.444-1.02-.444-1.764s.144-1.32.456-1.74c.336-.48.852-.72 1.536-.72m6.996-.792c-.744 0-1.332.144-1.788.432-.504.312-.828.804-.96 1.452l.948.072c.096-.396.3-.696.624-.888.288-.192.66-.276 1.116-.276 1.08 0 1.62.516 1.62 1.56v.324l-1.488.024c-.936.012-1.656.192-2.16.528-.576.36-.852.888-.852 1.596 0 .504.192.924.576 1.248.372.312.864.468 1.488.468a3.15 3.15 0 0 0 1.548-.384c.384-.216.708-.492.948-.828v1.044h.9v-3.984c0-.72-.192-1.284-.552-1.692-.432-.468-1.08-.696-1.968-.696m1.56 3.396v.528c0 .48-.228.912-.672 1.284a2.35 2.35 0 0 1-1.56.576c-.384 0-.696-.096-.936-.276a.85.85 0 0 1-.348-.708c0-.9.696-1.356 2.088-1.38zm4.104-5.232-.948.396v1.608h-1.248v.804h1.248v3.948c0 .468.096.816.3 1.056.216.264.588.396 1.092.396h.936v-.804h-.792c-.216 0-.372-.06-.456-.156-.096-.096-.132-.264-.132-.492v-3.948h1.536v-.804h-1.536zm5.304 1.836c-.744 0-1.332.144-1.788.432-.504.312-.828.804-.96 1.452l.948.072c.096-.396.3-.696.624-.888.288-.192.66-.276 1.116-.276 1.08 0 1.62.516 1.62 1.56v.324l-1.488.024c-.936.012-1.656.192-2.16.528-.576.36-.852.888-.852 1.596 0 .504.192.924.576 1.248.372.312.864.468 1.488.468a3.15 3.15 0 0 0 1.548-.384c.384-.216.708-.492.948-.828v1.044h.9v-3.984c0-.72-.192-1.284-.552-1.692-.432-.468-1.08-.696-1.968-.696m1.56 3.396v.528c0 .48-.228.912-.672 1.284a2.35 2.35 0 0 1-1.56.576c-.384 0-.696-.096-.936-.276a.85.85 0 0 1-.348-.708c0-.9.696-1.356 2.088-1.38zm6.3-1.764v.804h6.06v-.804zm0 2.46v.816h6.06v-.816zm12.312-6.264a.69.69 0 0 0-.516.204c-.144.12-.204.288-.204.504 0 .204.06.372.204.516a.74.74 0 0 0 .516.204.77.77 0 0 0 .528-.204.74.74 0 0 0 .204-.516.65.65 0 0 0-.204-.504.71.71 0 0 0-.528-.204m-.48 2.34v6.888c0 .588-.288.888-.852.888h-.504v.804h.576c1.152 0 1.74-.552 1.74-1.656v-6.924zm4.968-.168c-.696 0-1.272.156-1.704.468-.468.312-.696.72-.696 1.248s.228.924.708 1.212c.288.192.804.372 1.536.552.672.168 1.116.3 1.32.396.384.192.588.456.588.804 0 .696-.564 1.056-1.668 1.056q-.792 0-1.188-.288c-.264-.216-.444-.564-.516-1.056h-.936c.144 1.428 1.032 2.148 2.664 2.148 1.752 0 2.628-.648 2.628-1.92 0-.54-.252-.96-.744-1.272-.324-.204-.852-.396-1.596-.576-.624-.168-1.056-.3-1.284-.408-.36-.18-.528-.408-.528-.672q0-.414.396-.648c.24-.168.576-.24 1.008-.24.492 0 .876.096 1.14.288.24.168.396.456.48.84h.936c-.168-1.296-1.008-1.932-2.544-1.932m6.636 0c-.936 0-1.668.312-2.22.96-.528.612-.792 1.38-.792 2.316 0 .924.264 1.692.792 2.292.552.648 1.284.972 2.22.972q1.386 0 2.232-.972c.516-.6.78-1.368.78-2.292 0-.936-.264-1.704-.792-2.316-.552-.648-1.296-.96-2.22-.96m0 .804q.972 0 1.548.756c.324.456.492 1.02.492 1.716 0 .672-.168 1.248-.492 1.704q-.576.756-1.548.756c-.66 0-1.176-.252-1.536-.756-.336-.456-.492-1.02-.492-1.704 0-.696.156-1.26.492-1.716.36-.504.876-.756 1.536-.756m7.164-.804q-.612 0-1.116.288-.504.27-.828.792v-.912h-.96v6.204h.96v-3.744c.036-.564.216-1.008.552-1.344a1.52 1.52 0 0 1 1.116-.468c1.08 0 1.632.6 1.632 1.812v3.744h.96v-3.816c0-1.704-.78-2.556-2.316-2.556m4.644 4.944a.66.66 0 0 0-.516.216.7.7 0 0 0-.216.528c0 .204.072.372.216.516.132.144.3.216.516.216a.72.72 0 0 0 .516-.216.7.7 0 0 0 .216-.516.7.7 0 0 0-.216-.528.72.72 0 0 0-.516-.216m2.52-7.308v8.736h.948v-8.736zm5.4 2.364c-.936 0-1.668.312-2.22.96-.528.612-.792 1.38-.792 2.316 0 .924.264 1.692.792 2.292.552.648 1.284.972 2.22.972q1.386 0 2.232-.972c.516-.6.78-1.368.78-2.292 0-.936-.264-1.704-.792-2.316-.552-.648-1.296-.96-2.22-.96m0 .804q.972 0 1.548.756c.324.456.492 1.02.492 1.716 0 .672-.168 1.248-.492 1.704q-.576.756-1.548.756c-.66 0-1.176-.252-1.536-.756-.336-.456-.492-1.02-.492-1.704 0-.696.156-1.26.492-1.716.36-.504.876-.756 1.536-.756m6.96-.804c-.744 0-1.332.144-1.788.432-.504.312-.828.804-.96 1.452l.948.072c.096-.396.3-.696.624-.888.288-.192.66-.276 1.116-.276 1.08 0 1.62.516 1.62 1.56v.324l-1.488.024c-.936.012-1.656.192-2.16.528-.576.36-.852.888-.852 1.596 0 .504.192.924.576 1.248.372.312.864.468 1.488.468a3.15 3.15 0 0 0 1.548-.384c.384-.216.708-.492.948-.828v1.044h.9v-3.984c0-.72-.192-1.284-.552-1.692-.432-.468-1.08-.696-1.968-.696m1.56 3.396v.528c0 .48-.228.912-.672 1.284a2.35 2.35 0 0 1-1.56.576c-.384 0-.696-.096-.936-.276a.85.85 0 0 1-.348-.708c0-.9.696-1.356 2.088-1.38zm7.032-5.76v3.672c-.48-.876-1.164-1.308-2.052-1.308s-1.572.324-2.076.996c-.468.6-.696 1.344-.696 2.256 0 .936.228 1.704.696 2.304.504.648 1.212.984 2.124.984.936 0 1.632-.396 2.064-1.188v1.02h.9v-8.736zm-1.848 3.156c.552 0 1.008.216 1.356.672.336.444.516 1.032.516 1.752v.12c0 .696-.156 1.26-.456 1.692-.348.48-.828.72-1.452.72-.672 0-1.176-.252-1.512-.732-.3-.432-.444-1.02-.444-1.764s.144-1.32.456-1.74c.336-.48.852-.72 1.536-.72m6.492-.792c-.696 0-1.272.156-1.704.468-.468.312-.696.72-.696 1.248s.228.924.708 1.212c.288.192.804.372 1.536.552.672.168 1.116.3 1.32.396.384.192.588.456.588.804 0 .696-.564 1.056-1.668 1.056q-.792 0-1.188-.288c-.264-.216-.444-.564-.516-1.056h-.936c.144 1.428 1.032 2.148 2.664 2.148 1.752 0 2.628-.648 2.628-1.92 0-.54-.252-.96-.744-1.272-.324-.204-.852-.396-1.596-.576-.624-.168-1.056-.3-1.284-.408-.36-.18-.528-.408-.528-.672q0-.414.396-.648c.24-.168.576-.24 1.008-.24.492 0 .876.096 1.14.288.24.168.396.456.48.84h.936c-.168-1.296-1.008-1.932-2.544-1.932m5.58-3.552a10.1 10.1 0 0 0-1.236 2.472 9.5 9.5 0 0 0-.528 3.144c0 1.044.168 2.088.528 3.12.3.864.708 1.692 1.236 2.472h.84a11 11 0 0 1-1.14-2.484 9.6 9.6 0 0 1-.528-3.12c0-1.032.168-2.064.528-3.12.264-.864.648-1.692 1.14-2.484zm2.472 1.188v8.736h.948v-8.736zm3.42.192a.69.69 0 0 0-.516.204c-.144.12-.204.288-.204.504 0 .204.06.372.204.516a.74.74 0 0 0 .516.204.74.74 0 0 0 .516-.204.7.7 0 0 0 .216-.516q0-.324-.216-.504a.69.69 0 0 0-.516-.204m-.48 2.34v6.204h.96v-6.204zm5.664-.168q-.612 0-1.116.288-.504.27-.828.792v-.912h-.96v6.204h.96v-3.744c.036-.564.216-1.008.552-1.344a1.52 1.52 0 0 1 1.116-.468c1.08 0 1.632.6 1.632 1.812v3.744h.96v-3.816c0-1.704-.78-2.556-2.316-2.556m6.36 0c-.9 0-1.608.324-2.136.972-.528.612-.78 1.38-.78 2.292 0 1.008.264 1.8.816 2.4.528.576 1.248.876 2.136.876.804 0 1.464-.24 1.98-.696.42-.384.696-.864.84-1.464h-.96c-.156.432-.36.756-.624.972-.312.252-.732.384-1.236.384-.588 0-1.056-.192-1.392-.576s-.516-.924-.564-1.62h4.896c-.024-1.08-.264-1.932-.72-2.532-.504-.672-1.26-1.008-2.256-1.008m.024.804c1.176 0 1.836.66 1.956 1.992h-3.876c.06-.612.252-1.092.588-1.452q.504-.54 1.332-.54m4.032-4.356c.48.792.864 1.62 1.14 2.484.348 1.056.528 2.088.528 3.12 0 1.02-.18 2.064-.528 3.12-.276.852-.66 1.68-1.14 2.484h.84c.516-.78.924-1.608 1.236-2.472a9.7 9.7 0 0 0 .528-3.12c0-1.068-.18-2.112-.528-3.144a11 11 0 0 0-1.236-2.472zm-119.676 35.72 2.34 6.204h.972l2.352-6.204h-1.056l-1.776 5.004-1.776-5.004zm9.168-.168c-.744 0-1.332.144-1.788.432-.504.312-.828.804-.96 1.452l.948.072c.096-.396.3-.696.624-.888.288-.192.66-.276 1.116-.276 1.08 0 1.62.516 1.62 1.56v.324l-1.488.024c-.936.012-1.656.192-2.16.528-.576.36-.852.888-.852 1.596 0 .504.192.924.576 1.248.372.312.864.468 1.488.468a3.15 3.15 0 0 0 1.548-.384c.384-.216.708-.492.948-.828v1.044h.9v-3.984c0-.72-.192-1.284-.552-1.692-.432-.468-1.08-.696-1.968-.696m1.56 3.396v.528c0 .48-.228.912-.672 1.284a2.35 2.35 0 0 1-1.56.576c-.384 0-.696-.096-.936-.276a.85.85 0 0 1-.348-.708c0-.9.696-1.356 2.088-1.38zm2.64-5.76v8.736h.948v-8.736zm2.628 2.532v3.84c0 1.68.744 2.532 2.256 2.532.84 0 1.512-.384 2.016-1.128v.96h.96v-6.204h-.96v3.78q-.108.792-.612 1.296c-.324.312-.696.48-1.104.48-.564 0-.972-.156-1.224-.444s-.372-.732-.372-1.32v-3.792zm9.276-.168c-.9 0-1.608.324-2.136.972-.528.612-.78 1.38-.78 2.292 0 1.008.264 1.8.816 2.4.528.576 1.248.876 2.136.876.804 0 1.464-.24 1.98-.696.42-.384.696-.864.84-1.464h-.96c-.156.432-.36.756-.624.972-.312.252-.732.384-1.236.384-.588 0-1.056-.192-1.392-.576s-.516-.924-.564-1.62h4.896c-.024-1.08-.264-1.932-.72-2.532-.504-.672-1.26-1.008-2.256-1.008m.024.804c1.176 0 1.836.66 1.956 1.992h-3.876c.06-.612.252-1.092.588-1.452q.504-.54 1.332-.54m6.276-.804c-.696 0-1.272.156-1.704.468-.468.312-.696.72-.696 1.248s.228.924.708 1.212c.288.192.804.372 1.536.552.672.168 1.116.3 1.32.396.384.192.588.456.588.804 0 .696-.564 1.056-1.668 1.056q-.792 0-1.188-.288c-.264-.216-.444-.564-.516-1.056h-.936c.144 1.428 1.032 2.148 2.664 2.148 1.752 0 2.628-.648 2.628-1.92 0-.54-.252-.96-.744-1.272-.324-.204-.852-.396-1.596-.576-.624-.168-1.056-.3-1.284-.408-.36-.18-.528-.408-.528-.672q0-.414.396-.648c.24-.168.576-.24 1.008-.24.492 0 .876.096 1.14.288.24.168.396.456.48.84h.936c-.168-1.296-1.008-1.932-2.544-1.932m7.716 1.632v.804h6.06v-.804zm0 2.46v.816h6.06v-.816zm11.184-7.644v11.208h2.94v-.804h-2.052v-9.6h2.052v-.804zm31.224 0a10.1 10.1 0 0 0-1.236 2.472 9.5 9.5 0 0 0-.528 3.144c0 1.044.168 2.088.528 3.12.3.864.708 1.692 1.236 2.472h.84a11 11 0 0 1-1.14-2.484 9.6 9.6 0 0 1-.528-3.12c0-1.032.168-2.064.528-3.12.264-.864.648-1.692 1.14-2.484zm1.596 3.72 2.34 6.204h.972l2.352-6.204h-1.056l-1.776 5.004-1.776-5.004zm6.42-3.72c.48.792.864 1.62 1.14 2.484.348 1.056.528 2.088.528 3.12 0 1.02-.18 2.064-.528 3.12-.276.852-.66 1.68-1.14 2.484h.84c.516-.78.924-1.608 1.236-2.472a9.7 9.7 0 0 0 .528-3.12c0-1.068-.18-2.112-.528-3.144a11 11 0 0 0-1.236-2.472zm27.24 3.72 2.34 6.204h.972l2.352-6.204h-1.056l-1.776 5.004-1.776-5.004zm28.824-2.532v3.672c-.48-.876-1.164-1.308-2.052-1.308s-1.572.324-2.076.996c-.468.6-.696 1.344-.696 2.256 0 .936.228 1.704.696 2.304.504.648 1.212.984 2.124.984.936 0 1.632-.396 2.064-1.188v1.02h.9v-8.736zm-1.848 3.156c.552 0 1.008.216 1.356.672.336.444.516 1.032.516 1.752v.12c0 .696-.156 1.26-.456 1.692-.348.48-.828.72-1.452.72-.672 0-1.176-.252-1.512-.732-.3-.432-.444-1.02-.444-1.764s.144-1.32.456-1.74c.336-.48.852-.72 1.536-.72m6.996-.792c-.744 0-1.332.144-1.788.432-.504.312-.828.804-.96 1.452l.948.072c.096-.396.3-.696.624-.888.288-.192.66-.276 1.116-.276 1.08 0 1.62.516 1.62 1.56v.324l-1.488.024c-.936.012-1.656.192-2.16.528-.576.36-.852.888-.852 1.596 0 .504.192.924.576 1.248.372.312.864.468 1.488.468a3.15 3.15 0 0 0 1.548-.384c.384-.216.708-.492.948-.828v1.044h.9v-3.984c0-.72-.192-1.284-.552-1.692-.432-.468-1.08-.696-1.968-.696m1.56 3.396v.528c0 .48-.228.912-.672 1.284a2.35 2.35 0 0 1-1.56.576c-.384 0-.696-.096-.936-.276a.85.85 0 0 1-.348-.708c0-.9.696-1.356 2.088-1.38zm4.104-5.232-.948.396v1.608h-1.248v.804h1.248v3.948c0 .468.096.816.3 1.056.216.264.588.396 1.092.396h.936v-.804h-.792c-.216 0-.372-.06-.456-.156-.096-.096-.132-.264-.132-.492v-3.948h1.536v-.804h-1.536zm5.304 1.836c-.744 0-1.332.144-1.788.432-.504.312-.828.804-.96 1.452l.948.072c.096-.396.3-.696.624-.888.288-.192.66-.276 1.116-.276 1.08 0 1.62.516 1.62 1.56v.324l-1.488.024c-.936.012-1.656.192-2.16.528-.576.36-.852.888-.852 1.596 0 .504.192.924.576 1.248.372.312.864.468 1.488.468a3.15 3.15 0 0 0 1.548-.384c.384-.216.708-.492.948-.828v1.044h.9v-3.984c0-.72-.192-1.284-.552-1.692-.432-.468-1.08-.696-1.968-.696m1.56 3.396v.528c0 .48-.228.912-.672 1.284a2.35 2.35 0 0 1-1.56.576c-.384 0-.696-.096-.936-.276A.85.85 0 0 1 370.8 94c0-.9.696-1.356 2.088-1.38zm3.288 1.548a.66.66 0 0 0-.516.216.7.7 0 0 0-.216.528c0 .204.072.372.216.516.132.144.3.216.516.216a.72.72 0 0 0 .516-.216.7.7 0 0 0 .216-.516.7.7 0 0 0-.216-.528.72.72 0 0 0-.516-.216m1.644-4.776 2.34 6.204h.972l2.352-6.204h-1.056l-1.776 5.004-1.776-5.004zm9.168-.168c-.744 0-1.332.144-1.788.432-.504.312-.828.804-.96 1.452l.948.072c.096-.396.3-.696.624-.888.288-.192.66-.276 1.116-.276 1.08 0 1.62.516 1.62 1.56v.324l-1.488.024c-.936.012-1.656.192-2.16.528-.576.36-.852.888-.852 1.596 0 .504.192.924.576 1.248.372.312.864.468 1.488.468a3.15 3.15 0 0 0 1.548-.384c.384-.216.708-.492.948-.828v1.044h.9v-3.984c0-.72-.192-1.284-.552-1.692-.432-.468-1.08-.696-1.968-.696m1.56 3.396v.528c0 .48-.228.912-.672 1.284a2.35 2.35 0 0 1-1.56.576c-.384 0-.696-.096-.936-.276a.85.85 0 0 1-.348-.708c0-.9.696-1.356 2.088-1.38zm2.64-5.76v8.736h.948v-8.736zm2.628 2.532v3.84c0 1.68.744 2.532 2.256 2.532.84 0 1.512-.384 2.016-1.128v.96h.96v-6.204h-.96v3.78q-.108.792-.612 1.296c-.324.312-.696.48-1.104.48-.564 0-.972-.156-1.224-.444s-.372-.732-.372-1.32v-3.792zm9.276-.168c-.9 0-1.608.324-2.136.972-.528.612-.78 1.38-.78 2.292 0 1.008.264 1.8.816 2.4.528.576 1.248.876 2.136.876.804 0 1.464-.24 1.98-.696.42-.384.696-.864.84-1.464h-.96c-.156.432-.36.756-.624.972-.312.252-.732.384-1.236.384-.588 0-1.056-.192-1.392-.576s-.516-.924-.564-1.62h4.896c-.024-1.08-.264-1.932-.72-2.532-.504-.672-1.26-1.008-2.256-1.008m.024.804c1.176 0 1.836.66 1.956 1.992h-3.876c.06-.612.252-1.092.588-1.452q.504-.54 1.332-.54m6.276-.804c-.696 0-1.272.156-1.704.468-.468.312-.696.72-.696 1.248s.228.924.708 1.212c.288.192.804.372 1.536.552.672.168 1.116.3 1.32.396.384.192.588.456.588.804 0 .696-.564 1.056-1.668 1.056q-.792 0-1.188-.288c-.264-.216-.444-.564-.516-1.056h-.936c.144 1.428 1.032 2.148 2.664 2.148 1.752 0 2.628-.648 2.628-1.92 0-.54-.252-.96-.744-1.272-.324-.204-.852-.396-1.596-.576-.624-.168-1.056-.3-1.284-.408-.36-.18-.528-.408-.528-.672q0-.414.396-.648c.24-.168.576-.24 1.008-.24.492 0 .876.096 1.14.288.24.168.396.456.48.84h.936c-.168-1.296-1.008-1.932-2.544-1.932m5.58-3.552a10.1 10.1 0 0 0-1.236 2.472 9.5 9.5 0 0 0-.528 3.144c0 1.044.168 2.088.528 3.12.3.864.708 1.692 1.236 2.472h.84a11 11 0 0 1-1.14-2.484 9.6 9.6 0 0 1-.528-3.12c0-1.032.168-2.064.528-3.12.264-.864.648-1.692 1.14-2.484zm2.232 0c.48.792.864 1.62 1.14 2.484.348 1.056.528 2.088.528 3.12 0 1.02-.18 2.064-.528 3.12-.276.852-.66 1.68-1.14 2.484h.84c.516-.78.924-1.608 1.236-2.472a9.7 9.7 0 0 0 .528-3.12c0-1.068-.18-2.112-.528-3.144a11 11 0 0 0-1.236-2.472zm77.172 0a10.1 10.1 0 0 0-1.236 2.472 9.5 9.5 0 0 0-.528 3.144c0 1.044.168 2.088.528 3.12.3.864.708 1.692 1.236 2.472h.84a11 11 0 0 1-1.14-2.484 9.6 9.6 0 0 1-.528-3.12c0-1.032.168-2.064.528-3.12.264-.864.648-1.692 1.14-2.484zm1.596 3.72 2.34 6.204h.972l2.352-6.204h-1.056l-1.776 5.004-1.776-5.004zm7.308 4.776c-.24 0-.42.06-.552.204-.156.132-.228.312-.228.54 0 .204.072.384.216.528a.7.7 0 0 0 .516.216.7.7 0 0 0 .264-.048c0 .288-.084.552-.264.804a1.67 1.67 0 0 1-.768.528v.588a2.3 2.3 0 0 0 1.248-.78q.468-.612.468-1.404c0-.348-.084-.624-.24-.84a.79.79 0 0 0-.66-.336m8.04-8.496a10.1 10.1 0 0 0-1.236 2.472 9.5 9.5 0 0 0-.528 3.144c0 1.044.168 2.088.528 3.12.3.864.708 1.692 1.236 2.472h.84a11 11 0 0 1-1.14-2.484 9.6 9.6 0 0 1-.528-3.12c0-1.032.168-2.064.528-3.12.264-.864.648-1.692 1.14-2.484zm17.16 8.496c-.24 0-.42.06-.552.204-.156.132-.228.312-.228.54 0 .204.072.384.216.528a.7.7 0 0 0 .516.216.7.7 0 0 0 .264-.048c0 .288-.084.552-.264.804a1.67 1.67 0 0 1-.768.528v.588a2.3 2.3 0 0 0 1.248-.78q.468-.612.468-1.404c0-.348-.084-.624-.24-.84a.79.79 0 0 0-.66-.336m-307.5 11.224 2.34 6.204h.972l2.352-6.204h-1.056l-1.776 5.004-1.776-5.004zm9.168-.168c-.744 0-1.332.144-1.788.432-.504.312-.828.804-.96 1.452l.948.072c.096-.396.3-.696.624-.888.288-.192.66-.276 1.116-.276 1.08 0 1.62.516 1.62 1.56v.324l-1.488.024c-.936.012-1.656.192-2.16.528-.576.36-.852.888-.852 1.596 0 .504.192.924.576 1.248.372.312.864.468 1.488.468a3.15 3.15 0 0 0 1.548-.384c.384-.216.708-.492.948-.828v1.044h.9v-3.984c0-.72-.192-1.284-.552-1.692-.432-.468-1.08-.696-1.968-.696m1.56 3.396v.528c0 .48-.228.912-.672 1.284a2.35 2.35 0 0 1-1.56.576c-.384 0-.696-.096-.936-.276a.85.85 0 0 1-.348-.708c0-.9.696-1.356 2.088-1.38zm2.64-5.76v8.736h.948v-8.736zm2.628 2.532v3.84c0 1.68.744 2.532 2.256 2.532.84 0 1.512-.384 2.016-1.128v.96h.96v-6.204h-.96v3.78q-.108.792-.612 1.296c-.324.312-.696.48-1.104.48-.564 0-.972-.156-1.224-.444s-.372-.732-.372-1.32v-3.792zm9.276-.168c-.9 0-1.608.324-2.136.972-.528.612-.78 1.38-.78 2.292 0 1.008.264 1.8.816 2.4.528.576 1.248.876 2.136.876.804 0 1.464-.24 1.98-.696.42-.384.696-.864.84-1.464h-.96c-.156.432-.36.756-.624.972-.312.252-.732.384-1.236.384-.588 0-1.056-.192-1.392-.576s-.516-.924-.564-1.62h4.896c-.024-1.08-.264-1.932-.72-2.532-.504-.672-1.26-1.008-2.256-1.008m.024.804c1.176 0 1.836.66 1.956 1.992h-3.876c.06-.612.252-1.092.588-1.452q.504-.54 1.332-.54m6.276-.804c-.696 0-1.272.156-1.704.468-.468.312-.696.72-.696 1.248s.228.924.708 1.212c.288.192.804.372 1.536.552.672.168 1.116.3 1.32.396.384.192.588.456.588.804 0 .696-.564 1.056-1.668 1.056q-.792 0-1.188-.288c-.264-.216-.444-.564-.516-1.056h-.936c.144 1.428 1.032 2.148 2.664 2.148 1.752 0 2.628-.648 2.628-1.92 0-.54-.252-.96-.744-1.272-.324-.204-.852-.396-1.596-.576-.624-.168-1.056-.3-1.284-.408-.36-.18-.528-.408-.528-.672q0-.414.396-.648c.24-.168.576-.24 1.008-.24.492 0 .876.096 1.14.288.24.168.396.456.48.84h.936c-.168-1.296-1.008-1.932-2.544-1.932m4.704.528a.66.66 0 0 0-.516.216.7.7 0 0 0-.216.516c0 .204.072.384.216.528.132.132.3.204.516.204a.76.76 0 0 0 .516-.204.73.73 0 0 0 .216-.528.7.7 0 0 0-.216-.516.72.72 0 0 0-.516-.216m0 4.392a.66.66 0 0 0-.516.216.7.7 0 0 0-.216.516c0 .204.072.384.216.528.132.132.3.204.516.204a.76.76 0 0 0 .516-.204.73.73 0 0 0 .216-.528.7.7 0 0 0-.216-.516.72.72 0 0 0-.516-.216m-22.572 8.716v3.672c-.48-.876-1.164-1.308-2.052-1.308s-1.572.324-2.076.996c-.468.6-.696 1.344-.696 2.256 0 .936.228 1.704.696 2.304.504.648 1.212.984 2.124.984.936 0 1.632-.396 2.064-1.188v1.02h.9v-8.736zm-1.848 3.156c.552 0 1.008.216 1.356.672.336.444.516 1.032.516 1.752v.12c0 .696-.156 1.26-.456 1.692-.348.48-.828.72-1.452.72-.672 0-1.176-.252-1.512-.732-.3-.432-.444-1.02-.444-1.764s.144-1.32.456-1.74c.336-.48.852-.72 1.536-.72m6.996-.792c-.744 0-1.332.144-1.788.432-.504.312-.828.804-.96 1.452l.948.072c.096-.396.3-.696.624-.888.288-.192.66-.276 1.116-.276 1.08 0 1.62.516 1.62 1.56v.324l-1.488.024c-.936.012-1.656.192-2.16.528-.576.36-.852.888-.852 1.596 0 .504.192.924.576 1.248.372.312.864.468 1.488.468a3.15 3.15 0 0 0 1.548-.384c.384-.216.708-.492.948-.828v1.044h.9v-3.984c0-.72-.192-1.284-.552-1.692-.432-.468-1.08-.696-1.968-.696m1.56 3.396v.528c0 .48-.228.912-.672 1.284a2.35 2.35 0 0 1-1.56.576c-.384 0-.696-.096-.936-.276a.85.85 0 0 1-.348-.708c0-.9.696-1.356 2.088-1.38zm4.104-5.232-.948.396v1.608h-1.248v.804h1.248v3.948c0 .468.096.816.3 1.056.216.264.588.396 1.092.396h.936v-.804h-.792c-.216 0-.372-.06-.456-.156-.096-.096-.132-.264-.132-.492v-3.948h1.536v-.804h-1.536zm5.304 1.836c-.744 0-1.332.144-1.788.432-.504.312-.828.804-.96 1.452l.948.072c.096-.396.3-.696.624-.888.288-.192.66-.276 1.116-.276 1.08 0 1.62.516 1.62 1.56v.324l-1.488.024c-.936.012-1.656.192-2.16.528-.576.36-.852.888-.852 1.596 0 .504.192.924.576 1.248.372.312.864.468 1.488.468a3.15 3.15 0 0 0 1.548-.384c.384-.216.708-.492.948-.828v1.044h.9v-3.984c0-.72-.192-1.284-.552-1.692-.432-.468-1.08-.696-1.968-.696m1.56 3.396v.528c0 .48-.228.912-.672 1.284a2.35 2.35 0 0 1-1.56.576c-.384 0-.696-.096-.936-.276a.85.85 0 0 1-.348-.708c0-.9.696-1.356 2.088-1.38zm2.232-6.948v11.208h2.94v-.804h-2.052v-9.6h2.052v-.804zm4.428 1.356.12 2.988h.78l.108-2.988zm46.92 0 .12 2.988h.78l.108-2.988zm2.496-1.356v.804h2.052v9.6h-2.052v.804h2.94v-11.208zm8.064 5.184v.804h6.06v-.804zm0 2.46v.816h6.06v-.816zm36.156-7.644a10.1 10.1 0 0 0-1.236 2.472 9.5 9.5 0 0 0-.528 3.144c0 1.044.168 2.088.528 3.12.3.864.708 1.692 1.236 2.472h.84a11 11 0 0 1-1.14-2.484 9.6 9.6 0 0 1-.528-3.12c0-1.032.168-2.064.528-3.12.264-.864.648-1.692 1.14-2.484zm1.596 3.72 2.34 6.204h.972l2.352-6.204h-1.056l-1.776 5.004-1.776-5.004zm9.168-.168c-.744 0-1.332.144-1.788.432-.504.312-.828.804-.96 1.452l.948.072c.096-.396.3-.696.624-.888.288-.192.66-.276 1.116-.276 1.08 0 1.62.516 1.62 1.56v.324l-1.488.024c-.936.012-1.656.192-2.16.528-.576.36-.852.888-.852 1.596 0 .504.192.924.576 1.248.372.312.864.468 1.488.468a3.15 3.15 0 0 0 1.548-.384c.384-.216.708-.492.948-.828v1.044h.9v-3.984c0-.72-.192-1.284-.552-1.692-.432-.468-1.08-.696-1.968-.696m1.56 3.396v.528c0 .48-.228.912-.672 1.284a2.35 2.35 0 0 1-1.56.576c-.384 0-.696-.096-.936-.276a.85.85 0 0 1-.348-.708c0-.9.696-1.356 2.088-1.38zm2.64-5.76v8.736h.948v-8.736zm2.628 2.532v3.84c0 1.68.744 2.532 2.256 2.532.84 0 1.512-.384 2.016-1.128v.96h.96v-6.204h-.96v3.78q-.108.792-.612 1.296c-.324.312-.696.48-1.104.48-.564 0-.972-.156-1.224-.444s-.372-.732-.372-1.32v-3.792zm9.276-.168c-.9 0-1.608.324-2.136.972-.528.612-.78 1.38-.78 2.292 0 1.008.264 1.8.816 2.4.528.576 1.248.876 2.136.876.804 0 1.464-.24 1.98-.696.42-.384.696-.864.84-1.464h-.96c-.156.432-.36.756-.624.972-.312.252-.732.384-1.236.384-.588 0-1.056-.192-1.392-.576s-.516-.924-.564-1.62h4.896c-.024-1.08-.264-1.932-.72-2.532-.504-.672-1.26-1.008-2.256-1.008m.024.804c1.176 0 1.836.66 1.956 1.992h-3.876c.06-.612.252-1.092.588-1.452q.504-.54 1.332-.54m6.276-.804c-.696 0-1.272.156-1.704.468-.468.312-.696.72-.696 1.248s.228.924.708 1.212c.288.192.804.372 1.536.552.672.168 1.116.3 1.32.396.384.192.588.456.588.804 0 .696-.564 1.056-1.668 1.056q-.792 0-1.188-.288c-.264-.216-.444-.564-.516-1.056h-.936c.144 1.428 1.032 2.148 2.664 2.148 1.752 0 2.628-.648 2.628-1.92 0-.54-.252-.96-.744-1.272-.324-.204-.852-.396-1.596-.576-.624-.168-1.056-.3-1.284-.408-.36-.18-.528-.408-.528-.672q0-.414.396-.648c.24-.168.576-.24 1.008-.24.492 0 .876.096 1.14.288.24.168.396.456.48.84h.936c-.168-1.296-1.008-1.932-2.544-1.932m3.816-3.552c.48.792.864 1.62 1.14 2.484.348 1.056.528 2.088.528 3.12 0 1.02-.18 2.064-.528 3.12-.276.852-.66 1.68-1.14 2.484h.84c.516-.78.924-1.608 1.236-2.472a9.7 9.7 0 0 0 .528-3.12c0-1.068-.18-2.112-.528-3.144a11 11 0 0 0-1.236-2.472zm12 .084-4.26 11.04h.864l4.248-11.04zm23.94-.084a10.1 10.1 0 0 0-1.236 2.472 9.5 9.5 0 0 0-.528 3.144c0 1.044.168 2.088.528 3.12.3.864.708 1.692 1.236 2.472h.84a11 11 0 0 1-1.14-2.484 9.6 9.6 0 0 1-.528-3.12c0-1.032.168-2.064.528-3.12.264-.864.648-1.692 1.14-2.484zm1.596 3.72 2.34 6.204h.972l2.352-6.204h-1.056l-1.776 5.004-1.776-5.004zm9.168-.168c-.744 0-1.332.144-1.788.432-.504.312-.828.804-.96 1.452l.948.072c.096-.396.3-.696.624-.888.288-.192.66-.276 1.116-.276 1.08 0 1.62.516 1.62 1.56v.324l-1.488.024c-.936.012-1.656.192-2.16.528-.576.36-.852.888-.852 1.596 0 .504.192.924.576 1.248.372.312.864.468 1.488.468a3.15 3.15 0 0 0 1.548-.384c.384-.216.708-.492.948-.828v1.044h.9v-3.984c0-.72-.192-1.284-.552-1.692-.432-.468-1.08-.696-1.968-.696m1.56 3.396v.528c0 .48-.228.912-.672 1.284a2.35 2.35 0 0 1-1.56.576c-.384 0-.696-.096-.936-.276a.85.85 0 0 1-.348-.708c0-.9.696-1.356 2.088-1.38zm2.64-5.76v8.736h.948v-8.736zm2.628 2.532v3.84c0 1.68.744 2.532 2.256 2.532.84 0 1.512-.384 2.016-1.128v.96h.96v-6.204h-.96v3.78q-.108.792-.612 1.296c-.324.312-.696.48-1.104.48-.564 0-.972-.156-1.224-.444s-.372-.732-.372-1.32v-3.792zm9.276-.168c-.9 0-1.608.324-2.136.972-.528.612-.78 1.38-.78 2.292 0 1.008.264 1.8.816 2.4.528.576 1.248.876 2.136.876.804 0 1.464-.24 1.98-.696.42-.384.696-.864.84-1.464h-.96c-.156.432-.36.756-.624.972-.312.252-.732.384-1.236.384-.588 0-1.056-.192-1.392-.576s-.516-.924-.564-1.62h4.896c-.024-1.08-.264-1.932-.72-2.532-.504-.672-1.26-1.008-2.256-1.008m.024.804c1.176 0 1.836.66 1.956 1.992h-3.876c.06-.612.252-1.092.588-1.452q.504-.54 1.332-.54m6.276-.804c-.696 0-1.272.156-1.704.468-.468.312-.696.72-.696 1.248s.228.924.708 1.212c.288.192.804.372 1.536.552.672.168 1.116.3 1.32.396.384.192.588.456.588.804 0 .696-.564 1.056-1.668 1.056q-.792 0-1.188-.288c-.264-.216-.444-.564-.516-1.056h-.936c.144 1.428 1.032 2.148 2.664 2.148 1.752 0 2.628-.648 2.628-1.92 0-.54-.252-.96-.744-1.272-.324-.204-.852-.396-1.596-.576-.624-.168-1.056-.3-1.284-.408-.36-.18-.528-.408-.528-.672q0-.414.396-.648c.24-.168.576-.24 1.008-.24.492 0 .876.096 1.14.288.24.168.396.456.48.84h.936c-.168-1.296-1.008-1.932-2.544-1.932m3.816-3.552c.48.792.864 1.62 1.14 2.484.348 1.056.528 2.088.528 3.12 0 1.02-.18 2.064-.528 3.12-.276.852-.66 1.68-1.14 2.484h.84c.516-.78.924-1.608 1.236-2.472a9.7 9.7 0 0 0 .528-3.12c0-1.068-.18-2.112-.528-3.144a11 11 0 0 0-1.236-2.472zm-269.7 35.552c-.432 0-.804.132-1.128.396-.264.204-.48.492-.648.852v-1.08h-.948v6.204h.948v-3.288c0-.576.156-1.068.492-1.476.324-.432.732-.636 1.212-.636.3 0 .612.036.924.132v-.96c-.228-.096-.516-.144-.852-.144m4.212 0c-.9 0-1.608.324-2.136.972-.528.612-.78 1.38-.78 2.292 0 1.008.264 1.8.816 2.4.528.576 1.248.876 2.136.876.804 0 1.464-.24 1.98-.696.42-.384.696-.864.84-1.464h-.96c-.156.432-.36.756-.624.972-.312.252-.732.384-1.236.384-.588 0-1.056-.192-1.392-.576s-.516-.924-.564-1.62h4.896c-.024-1.08-.264-1.932-.72-2.532-.504-.672-1.26-1.008-2.256-1.008m.024.804c1.176 0 1.836.66 1.956 1.992h-3.876c.06-.612.252-1.092.588-1.452q.504-.54 1.332-.54m6.276-.804c-.696 0-1.272.156-1.704.468-.468.312-.696.72-.696 1.248s.228.924.708 1.212c.288.192.804.372 1.536.552.672.168 1.116.3 1.32.396.384.192.588.456.588.804 0 .696-.564 1.056-1.668 1.056q-.792 0-1.188-.288c-.264-.216-.444-.564-.516-1.056h-.936c.144 1.428 1.032 2.148 2.664 2.148 1.752 0 2.628-.648 2.628-1.92 0-.54-.252-.96-.744-1.272-.324-.204-.852-.396-1.596-.576-.624-.168-1.056-.3-1.284-.408-.36-.18-.528-.408-.528-.672q0-.414.396-.648c.24-.168.576-.24 1.008-.24.492 0 .876.096 1.14.288.24.168.396.456.48.84h.936c-.168-1.296-1.008-1.932-2.544-1.932m3.864.168v3.84c0 1.68.744 2.532 2.256 2.532.84 0 1.512-.384 2.016-1.128v.96h.96v-6.204h-.96v3.78q-.108.792-.612 1.296c-.324.312-.696.48-1.104.48-.564 0-.972-.156-1.224-.444s-.372-.732-.372-1.32v-3.792zm6.912-2.532v8.736h.948v-8.736zm4.284.528-.948.396v1.608h-1.248v.804h1.248v3.948c0 .468.096.816.3 1.056.216.264.588.396 1.092.396h.936v-.804h-.792c-.216 0-.372-.06-.456-.156-.096-.096-.132-.264-.132-.492v-3.948h1.536v-.804h-1.536zm6.456 3.468v.804h6.06v-.804zm0 2.46v.816h6.06v-.816zm14.364-4.092c-.936 0-1.62.396-2.064 1.188v-1.02h-.9v8.58h.96v-3.504q.72 1.296 2.052 1.296c.888 0 1.572-.336 2.076-.984.456-.6.696-1.356.696-2.268 0-.936-.24-1.692-.708-2.292-.516-.672-1.224-.996-2.112-.996m-.12.792c.66 0 1.164.24 1.512.744.288.432.444 1.02.444 1.752q0 1.116-.468 1.764c-.348.456-.852.696-1.524.696-.576 0-1.02-.228-1.356-.66-.36-.444-.528-1.02-.528-1.74v-.12c0-.696.156-1.272.468-1.704.336-.492.828-.732 1.452-.732m6.912-.792c-.432 0-.804.132-1.128.396-.264.204-.48.492-.648.852v-1.08h-.948v6.204h.948v-3.288c0-.576.156-1.068.492-1.476.324-.432.732-.636 1.212-.636.3 0 .612.036.924.132v-.96c-.228-.096-.516-.144-.852-.144m4.428 0c-.936 0-1.668.312-2.22.96-.528.612-.792 1.38-.792 2.316 0 .924.264 1.692.792 2.292.552.648 1.284.972 2.22.972q1.386 0 2.232-.972c.516-.6.78-1.368.78-2.292 0-.936-.264-1.704-.792-2.316-.552-.648-1.296-.96-2.22-.96m0 .804q.972 0 1.548.756c.324.456.492 1.02.492 1.716 0 .672-.168 1.248-.492 1.704q-.576.756-1.548.756c-.66 0-1.176-.252-1.536-.756-.336-.456-.492-1.02-.492-1.704 0-.696.156-1.26.492-1.716.36-.504.876-.756 1.536-.756m6.936-.804c-.924 0-1.656.324-2.184.984-.492.6-.732 1.368-.732 2.316s.24 1.716.732 2.304c.516.624 1.236.936 2.172.936.768 0 1.38-.204 1.848-.6.48-.408.78-1.02.924-1.812h-.96c-.144 1.068-.756 1.608-1.812 1.608-.624 0-1.104-.228-1.428-.66-.336-.432-.492-1.032-.492-1.788q0-1.134.504-1.8c.348-.456.828-.684 1.428-.684.492 0 .888.108 1.2.348q.45.36.576 1.08h.948c-.108-.756-.396-1.32-.876-1.692-.468-.36-1.08-.54-1.848-.54m6.444 0c-.9 0-1.608.324-2.136.972-.528.612-.78 1.38-.78 2.292 0 1.008.264 1.8.816 2.4.528.576 1.248.876 2.136.876.804 0 1.464-.24 1.98-.696.42-.384.696-.864.84-1.464h-.96c-.156.432-.36.756-.624.972-.312.252-.732.384-1.236.384-.588 0-1.056-.192-1.392-.576s-.516-.924-.564-1.62h4.896c-.024-1.08-.264-1.932-.72-2.532-.504-.672-1.26-1.008-2.256-1.008m.024.804c1.176 0 1.836.66 1.956 1.992h-3.876c.06-.612.252-1.092.588-1.452q.504-.54 1.332-.54m6.276-.804c-.696 0-1.272.156-1.704.468-.468.312-.696.72-.696 1.248s.228.924.708 1.212c.288.192.804.372 1.536.552.672.168 1.116.3 1.32.396.384.192.588.456.588.804 0 .696-.564 1.056-1.668 1.056q-.792 0-1.188-.288c-.264-.216-.444-.564-.516-1.056h-.936c.144 1.428 1.032 2.148 2.664 2.148 1.752 0 2.628-.648 2.628-1.92 0-.54-.252-.96-.744-1.272-.324-.204-.852-.396-1.596-.576-.624-.168-1.056-.3-1.284-.408-.36-.18-.528-.408-.528-.672q0-.414.396-.648c.24-.168.576-.24 1.008-.24.492 0 .876.096 1.14.288.24.168.396.456.48.84h.936c-.168-1.296-1.008-1.932-2.544-1.932m6.06 0c-.696 0-1.272.156-1.704.468-.468.312-.696.72-.696 1.248s.228.924.708 1.212c.288.192.804.372 1.536.552.672.168 1.116.3 1.32.396.384.192.588.456.588.804 0 .696-.564 1.056-1.668 1.056q-.792 0-1.188-.288c-.264-.216-.444-.564-.516-1.056h-.936c.144 1.428 1.032 2.148 2.664 2.148 1.752 0 2.628-.648 2.628-1.92 0-.54-.252-.96-.744-1.272-.324-.204-.852-.396-1.596-.576-.624-.168-1.056-.3-1.284-.408-.36-.18-.528-.408-.528-.672q0-.414.396-.648c.24-.168.576-.24 1.008-.24.492 0 .876.096 1.14.288.24.168.396.456.48.84h.936c-.168-1.296-1.008-1.932-2.544-1.932m3.12 7.248v.804h6v-.804zm11.328-9.612v3.672c-.48-.876-1.164-1.308-2.052-1.308s-1.572.324-2.076.996c-.468.6-.696 1.344-.696 2.256 0 .936.228 1.704.696 2.304.504.648 1.212.984 2.124.984.936 0 1.632-.396 2.064-1.188v1.02h.9v-8.736zm-1.848 3.156c.552 0 1.008.216 1.356.672.336.444.516 1.032.516 1.752v.12c0 .696-.156 1.26-.456 1.692-.348.48-.828.72-1.452.72-.672 0-1.176-.252-1.512-.732-.3-.432-.444-1.02-.444-1.764s.144-1.32.456-1.74c.336-.48.852-.72 1.536-.72m6.996-.792c-.744 0-1.332.144-1.788.432-.504.312-.828.804-.96 1.452l.948.072c.096-.396.3-.696.624-.888.288-.192.66-.276 1.116-.276 1.08 0 1.62.516 1.62 1.56v.324l-1.488.024c-.936.012-1.656.192-2.16.528-.576.36-.852.888-.852 1.596 0 .504.192.924.576 1.248.372.312.864.468 1.488.468a3.15 3.15 0 0 0 1.548-.384c.384-.216.708-.492.948-.828v1.044h.9v-3.984c0-.72-.192-1.284-.552-1.692-.432-.468-1.08-.696-1.968-.696m1.56 3.396v.528c0 .48-.228.912-.672 1.284a2.35 2.35 0 0 1-1.56.576c-.384 0-.696-.096-.936-.276a.85.85 0 0 1-.348-.708c0-.9.696-1.356 2.088-1.38zm4.104-5.232-.948.396v1.608h-1.248v.804h1.248v3.948c0 .468.096.816.3 1.056.216.264.588.396 1.092.396h.936v-.804h-.792c-.216 0-.372-.06-.456-.156-.096-.096-.132-.264-.132-.492v-3.948h1.536v-.804h-1.536zm5.304 1.836c-.744 0-1.332.144-1.788.432-.504.312-.828.804-.96 1.452l.948.072c.096-.396.3-.696.624-.888.288-.192.66-.276 1.116-.276 1.08 0 1.62.516 1.62 1.56v.324l-1.488.024c-.936.012-1.656.192-2.16.528-.576.36-.852.888-.852 1.596 0 .504.192.924.576 1.248.372.312.864.468 1.488.468a3.15 3.15 0 0 0 1.548-.384c.384-.216.708-.492.948-.828v1.044h.9v-3.984c0-.72-.192-1.284-.552-1.692-.432-.468-1.08-.696-1.968-.696m1.56 3.396v.528c0 .48-.228.912-.672 1.284a2.35 2.35 0 0 1-1.56.576c-.384 0-.696-.096-.936-.276a.85.85 0 0 1-.348-.708c0-.9.696-1.356 2.088-1.38zm4.164-6.948a10.1 10.1 0 0 0-1.236 2.472 9.5 9.5 0 0 0-.528 3.144c0 1.044.168 2.088.528 3.12.3.864.708 1.692 1.236 2.472h.84a11 11 0 0 1-1.14-2.484 9.6 9.6 0 0 1-.528-3.12c0-1.032.168-2.064.528-3.12.264-.864.648-1.692 1.14-2.484zm113.82 8.496c-.24 0-.42.06-.552.204-.156.132-.228.312-.228.54 0 .204.072.384.216.528a.7.7 0 0 0 .516.216.7.7 0 0 0 .264-.048c0 .288-.084.552-.264.804a1.67 1.67 0 0 1-.768.528v.588a2.3 2.3 0 0 0 1.248-.78q.468-.612.468-1.404c0-.348-.084-.624-.24-.84a.79.79 0 0 0-.66-.336m20.676-8.496c.48.792.864 1.62 1.14 2.484.348 1.056.528 2.088.528 3.12 0 1.02-.18 2.064-.528 3.12-.276.852-.66 1.68-1.14 2.484h.84c.516-.78.924-1.608 1.236-2.472a9.7 9.7 0 0 0 .528-3.12c0-1.068-.18-2.112-.528-3.144a11 11 0 0 0-1.236-2.472zm-229.692 16a10.1 10.1 0 0 0-1.236 2.472 9.5 9.5 0 0 0-.528 3.144c0 1.044.168 2.088.528 3.12.3.864.708 1.692 1.236 2.472h.84a11 11 0 0 1-1.14-2.484 9.6 9.6 0 0 1-.528-3.12c0-1.032.168-2.064.528-3.12.264-.864.648-1.692 1.14-2.484zm76.2 0c-.492 0-.876.156-1.14.468-.264.288-.384.696-.384 1.2v2.436c0 .36-.084.624-.228.792-.168.192-.48.288-.912.312v.792c.432.012.744.12.912.312.144.168.228.432.228.792v2.448c0 .504.12.9.384 1.188.264.312.648.468 1.14.468h.828v-.756h-.672c-.528 0-.792-.3-.792-.876v-2.508c0-.708-.336-1.2-.984-1.464.648-.252.984-.744.984-1.464v-2.496c0-.6.264-.888.792-.888h.672v-.756zm4.548 3.552c-.432 0-.804.132-1.128.396-.264.204-.48.492-.648.852v-1.08h-.948v6.204h.948v-3.288c0-.576.156-1.068.492-1.476.324-.432.732-.636 1.212-.636.3 0 .612.036.924.132v-.96c-.228-.096-.516-.144-.852-.144m4.212 0c-.9 0-1.608.324-2.136.972-.528.612-.78 1.38-.78 2.292 0 1.008.264 1.8.816 2.4.528.576 1.248.876 2.136.876.804 0 1.464-.24 1.98-.696.42-.384.696-.864.84-1.464h-.96c-.156.432-.36.756-.624.972-.312.252-.732.384-1.236.384-.588 0-1.056-.192-1.392-.576s-.516-.924-.564-1.62h4.896c-.024-1.08-.264-1.932-.72-2.532-.504-.672-1.26-1.008-2.256-1.008m.024.804c1.176 0 1.836.66 1.956 1.992H301.8c.06-.612.252-1.092.588-1.452q.504-.54 1.332-.54m6.276-.804c-.696 0-1.272.156-1.704.468-.468.312-.696.72-.696 1.248s.228.924.708 1.212c.288.192.804.372 1.536.552.672.168 1.116.3 1.32.396.384.192.588.456.588.804 0 .696-.564 1.056-1.668 1.056q-.792 0-1.188-.288c-.264-.216-.444-.564-.516-1.056h-.936c.144 1.428 1.032 2.148 2.664 2.148 1.752 0 2.628-.648 2.628-1.92 0-.54-.252-.96-.744-1.272-.324-.204-.852-.396-1.596-.576-.624-.168-1.056-.3-1.284-.408-.36-.18-.528-.408-.528-.672q0-.414.396-.648c.24-.168.576-.24 1.008-.24.492 0 .876.096 1.14.288.24.168.396.456.48.84h.936c-.168-1.296-1.008-1.932-2.544-1.932m3.864.168v3.84c0 1.68.744 2.532 2.256 2.532.84 0 1.512-.384 2.016-1.128v.96h.96v-6.204h-.96v3.78q-.108.792-.612 1.296c-.324.312-.696.48-1.104.48-.564 0-.972-.156-1.224-.444s-.372-.732-.372-1.32v-3.792zm6.912-2.532v8.736h.948v-8.736zm4.284.528-.948.396v1.608h-1.248v.804h1.248v3.948c0 .468.096.816.3 1.056.216.264.588.396 1.092.396h.936v-.804h-.792c-.216 0-.372-.06-.456-.156-.096-.096-.132-.264-.132-.492v-3.948h1.536v-.804h-1.536zm2.388-1.716v11.208h2.94v-.804h-2.052v-9.6h2.052v-.804zm98.652 0v.804h2.052v9.6h-2.052v.804h2.94v-11.208zm3.72 0v.756h.672c.528 0 .792.288.792.888v2.496c0 .72.324 1.212.984 1.464-.66.264-.984.756-.984 1.464v2.508c0 .576-.264.876-.792.876h-.672v.756h.828c.48 0 .864-.156 1.14-.468.252-.288.384-.684.384-1.188v-2.448c0-.36.072-.624.228-.792.168-.192.468-.3.912-.312v-.792c-.444-.024-.744-.12-.912-.3-.156-.18-.228-.444-.228-.804v-2.436c0-.504-.132-.912-.384-1.2-.276-.312-.66-.468-1.14-.468zm67.032 0c-.492 0-.876.156-1.14.468-.264.288-.384.696-.384 1.2v2.436c0 .36-.084.624-.228.792-.168.192-.48.288-.912.312v.792c.432.012.744.12.912.312.144.168.228.432.228.792v2.448c0 .504.12.9.384 1.188.264.312.648.468 1.14.468h.828v-.756h-.672c-.528 0-.792-.3-.792-.876v-2.508c0-.708-.336-1.2-.984-1.464.648-.252.984-.744.984-1.464v-2.496c0-.6.264-.888.792-.888h.672v-.756zm19.728 0a10.1 10.1 0 0 0-1.236 2.472 9.5 9.5 0 0 0-.528 3.144c0 1.044.168 2.088.528 3.12.3.864.708 1.692 1.236 2.472h.84a11 11 0 0 1-1.14-2.484 9.6 9.6 0 0 1-.528-3.12c0-1.032.168-2.064.528-3.12.264-.864.648-1.692 1.14-2.484zm5.004 3.552c-.432 0-.804.132-1.128.396-.264.204-.48.492-.648.852v-1.08h-.948v6.204h.948v-3.288c0-.576.156-1.068.492-1.476.324-.432.732-.636 1.212-.636.3 0 .612.036.924.132v-.96c-.228-.096-.516-.144-.852-.144m4.212 0c-.9 0-1.608.324-2.136.972-.528.612-.78 1.38-.78 2.292 0 1.008.264 1.8.816 2.4.528.576 1.248.876 2.136.876.804 0 1.464-.24 1.98-.696.42-.384.696-.864.84-1.464h-.96c-.156.432-.36.756-.624.972-.312.252-.732.384-1.236.384-.588 0-1.056-.192-1.392-.576s-.516-.924-.564-1.62h4.896c-.024-1.08-.264-1.932-.72-2.532-.504-.672-1.26-1.008-2.256-1.008m.024.804c1.176 0 1.836.66 1.956 1.992h-3.876c.06-.612.252-1.092.588-1.452q.504-.54 1.332-.54m6.276-.804c-.696 0-1.272.156-1.704.468-.468.312-.696.72-.696 1.248s.228.924.708 1.212c.288.192.804.372 1.536.552.672.168 1.116.3 1.32.396.384.192.588.456.588.804 0 .696-.564 1.056-1.668 1.056q-.792 0-1.188-.288c-.264-.216-.444-.564-.516-1.056h-.936c.144 1.428 1.032 2.148 2.664 2.148 1.752 0 2.628-.648 2.628-1.92 0-.54-.252-.96-.744-1.272-.324-.204-.852-.396-1.596-.576-.624-.168-1.056-.3-1.284-.408-.36-.18-.528-.408-.528-.672q0-.414.396-.648c.24-.168.576-.24 1.008-.24.492 0 .876.096 1.14.288.24.168.396.456.48.84h.936c-.168-1.296-1.008-1.932-2.544-1.932m3.864.168v3.84c0 1.68.744 2.532 2.256 2.532.84 0 1.512-.384 2.016-1.128v.96h.96v-6.204h-.96v3.78q-.108.792-.612 1.296c-.324.312-.696.48-1.104.48-.564 0-.972-.156-1.224-.444s-.372-.732-.372-1.32v-3.792zm6.912-2.532v8.736h.948v-8.736zm4.284.528-.948.396v1.608h-1.248v.804h1.248v3.948c0 .468.096.816.3 1.056.216.264.588.396 1.092.396h.936v-.804h-.792c-.216 0-.372-.06-.456-.156-.096-.096-.132-.264-.132-.492v-3.948h1.536v-.804h-1.536z"/><path fill="#A89FF8" d="M268.032 87.004c-.528 0-.936.144-1.212.444-.264.288-.396.684-.396 1.212v.708h-1.56v.804h1.56v5.4h.96v-5.4h1.752v-.804h-1.752v-.684q0-.45.18-.648c.12-.144.324-.204.588-.204h1.068v-.828zm2.184-.168v8.736h.948v-8.736zm5.4 2.364c-.936 0-1.668.312-2.22.96-.528.612-.792 1.38-.792 2.316 0 .924.264 1.692.792 2.292.552.648 1.284.972 2.22.972q1.386 0 2.232-.972c.516-.6.78-1.368.78-2.292 0-.936-.264-1.704-.792-2.316-.552-.648-1.296-.96-2.22-.96m0 .804q.972 0 1.548.756c.324.456.492 1.02.492 1.716 0 .672-.168 1.248-.492 1.704q-.576.756-1.548.756c-.66 0-1.176-.252-1.536-.756-.336-.456-.492-1.02-.492-1.704 0-.696.156-1.26.492-1.716.36-.504.876-.756 1.536-.756m6.96-.804c-.744 0-1.332.144-1.788.432-.504.312-.828.804-.96 1.452l.948.072c.096-.396.3-.696.624-.888.288-.192.66-.276 1.116-.276 1.08 0 1.62.516 1.62 1.56v.324l-1.488.024c-.936.012-1.656.192-2.16.528-.576.36-.852.888-.852 1.596 0 .504.192.924.576 1.248.372.312.864.468 1.488.468a3.15 3.15 0 0 0 1.548-.384c.384-.216.708-.492.948-.828v1.044h.9v-3.984c0-.72-.192-1.284-.552-1.692-.432-.468-1.08-.696-1.968-.696m1.56 3.396v.528c0 .48-.228.912-.672 1.284a2.35 2.35 0 0 1-1.56.576c-.384 0-.696-.096-.936-.276a.85.85 0 0 1-.348-.708c0-.9.696-1.356 2.088-1.38zm4.104-5.232-.948.396v1.608h-1.248v.804h1.248v3.948c0 .468.096.816.3 1.056.216.264.588.396 1.092.396h.936v-.804h-.792c-.216 0-.372-.06-.456-.156-.096-.096-.132-.264-.132-.492v-3.948h1.536v-.804h-1.536zm150.768-.336a.69.69 0 0 0-.516.204c-.144.12-.204.288-.204.504 0 .204.06.372.204.516a.74.74 0 0 0 .516.204.74.74 0 0 0 .516-.204.7.7 0 0 0 .216-.516q0-.324-.216-.504a.69.69 0 0 0-.516-.204m-.48 2.34v6.204h.96v-6.204zm4.956-.168c-.696 0-1.272.156-1.704.468-.468.312-.696.72-.696 1.248s.228.924.708 1.212c.288.192.804.372 1.536.552.672.168 1.116.3 1.32.396.384.192.588.456.588.804 0 .696-.564 1.056-1.668 1.056q-.792 0-1.188-.288c-.264-.216-.444-.564-.516-1.056h-.936c.144 1.428 1.032 2.148 2.664 2.148 1.752 0 2.628-.648 2.628-1.92 0-.54-.252-.96-.744-1.272-.324-.204-.852-.396-1.596-.576-.624-.168-1.056-.3-1.284-.408-.36-.18-.528-.408-.528-.672q0-.414.396-.648c.24-.168.576-.24 1.008-.24.492 0 .876.096 1.14.288.24.168.396.456.48.84h.936c-.168-1.296-1.008-1.932-2.544-1.932m4.656-2.172a.69.69 0 0 0-.516.204c-.144.12-.204.288-.204.504 0 .204.06.372.204.516a.74.74 0 0 0 .516.204.74.74 0 0 0 .516-.204.7.7 0 0 0 .216-.516q0-.324-.216-.504a.69.69 0 0 0-.516-.204m-.48 2.34v6.204h.96v-6.204zm5.664-.168q-.612 0-1.116.288-.504.27-.828.792v-.912h-.96v6.204h.96v-3.744c.036-.564.216-1.008.552-1.344a1.52 1.52 0 0 1 1.116-.468c1.08 0 1.632.6 1.632 1.812v3.744h.96v-3.816c0-1.704-.78-2.556-2.316-2.556m6 0c-.696 0-1.272.156-1.704.468-.468.312-.696.72-.696 1.248s.228.924.708 1.212c.288.192.804.372 1.536.552.672.168 1.116.3 1.32.396.384.192.588.456.588.804 0 .696-.564 1.056-1.668 1.056q-.792 0-1.188-.288c-.264-.216-.444-.564-.516-1.056h-.936c.144 1.428 1.032 2.148 2.664 2.148 1.752 0 2.628-.648 2.628-1.92 0-.54-.252-.96-.744-1.272-.324-.204-.852-.396-1.596-.576-.624-.168-1.056-.3-1.284-.408-.36-.18-.528-.408-.528-.672q0-.414.396-.648c.24-.168.576-.24 1.008-.24.492 0 .876.096 1.14.288.24.168.396.456.48.84h.936c-.168-1.296-1.008-1.932-2.544-1.932m5.52-1.836-.948.396v1.608h-1.248v.804h1.248v3.948c0 .468.096.816.3 1.056.216.264.588.396 1.092.396h.936v-.804h-.792c-.216 0-.372-.06-.456-.156-.096-.096-.132-.264-.132-.492v-3.948h1.536v-.804h-1.536zm5.304 1.836c-.744 0-1.332.144-1.788.432-.504.312-.828.804-.96 1.452l.948.072c.096-.396.3-.696.624-.888.288-.192.66-.276 1.116-.276 1.08 0 1.62.516 1.62 1.56v.324l-1.488.024c-.936.012-1.656.192-2.16.528-.576.36-.852.888-.852 1.596 0 .504.192.924.576 1.248.372.312.864.468 1.488.468a3.15 3.15 0 0 0 1.548-.384c.384-.216.708-.492.948-.828v1.044h.9v-3.984c0-.72-.192-1.284-.552-1.692-.432-.468-1.08-.696-1.968-.696m1.56 3.396v.528c0 .48-.228.912-.672 1.284a2.35 2.35 0 0 1-1.56.576c-.384 0-.696-.096-.936-.276a.85.85 0 0 1-.348-.708c0-.9.696-1.356 2.088-1.38zm5.352-3.396q-.612 0-1.116.288-.504.27-.828.792v-.912h-.96v6.204h.96v-3.744c.036-.564.216-1.008.552-1.344a1.52 1.52 0 0 1 1.116-.468c1.08 0 1.632.6 1.632 1.812v3.744h.96v-3.816c0-1.704-.78-2.556-2.316-2.556m6.48 0c-.924 0-1.656.324-2.184.984-.492.6-.732 1.368-.732 2.316s.24 1.716.732 2.304c.516.624 1.236.936 2.172.936.768 0 1.38-.204 1.848-.6.48-.408.78-1.02.924-1.812h-.96c-.144 1.068-.756 1.608-1.812 1.608-.624 0-1.104-.228-1.428-.66-.336-.432-.492-1.032-.492-1.788q0-1.134.504-1.8c.348-.456.828-.684 1.428-.684.492 0 .888.108 1.2.348q.45.36.576 1.08h.948c-.108-.756-.396-1.32-.876-1.692-.468-.36-1.08-.54-1.848-.54m6.444 0c-.9 0-1.608.324-2.136.972-.528.612-.78 1.38-.78 2.292 0 1.008.264 1.8.816 2.4.528.576 1.248.876 2.136.876.804 0 1.464-.24 1.98-.696.42-.384.696-.864.84-1.464h-.96c-.156.432-.36.756-.624.972-.312.252-.732.384-1.236.384-.588 0-1.056-.192-1.392-.576s-.516-.924-.564-1.62h4.896c-.024-1.08-.264-1.932-.72-2.532-.504-.672-1.26-1.008-2.256-1.008m.024.804c1.176 0 1.836.66 1.956 1.992h-3.876c.06-.612.252-1.092.588-1.452q.504-.54 1.332-.54m25.812-2.976a.69.69 0 0 0-.516.204c-.144.12-.204.288-.204.504 0 .204.06.372.204.516a.74.74 0 0 0 .516.204.74.74 0 0 0 .516-.204.7.7 0 0 0 .216-.516q0-.324-.216-.504a.69.69 0 0 0-.516-.204m-.48 2.34v6.204h.96v-6.204zm5.664-.168q-.612 0-1.116.288-.504.27-.828.792v-.912h-.96v6.204h.96v-3.744c.036-.564.216-1.008.552-1.344a1.52 1.52 0 0 1 1.116-.468c1.08 0 1.632.6 1.632 1.812v3.744h.96v-3.816c0-1.704-.78-2.556-2.316-2.556m5.46-1.836-.948.396v1.608h-1.248v.804h1.248v3.948c0 .468.096.816.3 1.056.216.264.588.396 1.092.396h.936v-.804h-.792c-.216 0-.372-.06-.456-.156-.096-.096-.132-.264-.132-.492v-3.948H528v-.804h-1.536zm12.252-.36c-.528 0-.936.144-1.212.444-.264.288-.396.684-.396 1.212v.708h-1.56v.804h1.56v5.4h.96v-5.4h1.752v-.804h-1.752v-.684q0-.45.18-.648c.12-.144.324-.204.588-.204h1.068v-.828zm2.184-.168v8.736h.948v-8.736zm5.4 2.364c-.936 0-1.668.312-2.22.96-.528.612-.792 1.38-.792 2.316 0 .924.264 1.692.792 2.292.552.648 1.284.972 2.22.972q1.386 0 2.232-.972c.516-.6.78-1.368.78-2.292 0-.936-.264-1.704-.792-2.316-.552-.648-1.296-.96-2.22-.96m0 .804q.972 0 1.548.756c.324.456.492 1.02.492 1.716 0 .672-.168 1.248-.492 1.704q-.576.756-1.548.756c-.66 0-1.176-.252-1.536-.756-.336-.456-.492-1.02-.492-1.704 0-.696.156-1.26.492-1.716.36-.504.876-.756 1.536-.756m6.96-.804c-.744 0-1.332.144-1.788.432-.504.312-.828.804-.96 1.452l.948.072c.096-.396.3-.696.624-.888.288-.192.66-.276 1.116-.276 1.08 0 1.62.516 1.62 1.56v.324l-1.488.024c-.936.012-1.656.192-2.16.528-.576.36-.852.888-.852 1.596 0 .504.192.924.576 1.248.372.312.864.468 1.488.468a3.15 3.15 0 0 0 1.548-.384c.384-.216.708-.492.948-.828v1.044h.9v-3.984c0-.72-.192-1.284-.552-1.692-.432-.468-1.08-.696-1.968-.696m1.56 3.396v.528c0 .48-.228.912-.672 1.284a2.35 2.35 0 0 1-1.56.576c-.384 0-.696-.096-.936-.276a.85.85 0 0 1-.348-.708c0-.9.696-1.356 2.088-1.38zm4.104-5.232-.948.396v1.608h-1.248v.804h1.248v3.948c0 .468.096.816.3 1.056.216.264.588.396 1.092.396h.936v-.804h-.792c-.216 0-.372-.06-.456-.156-.096-.096-.132-.264-.132-.492v-3.948h1.536v-.804h-1.536zm-227.4 33.836c-.696 0-1.272.156-1.704.468-.468.312-.696.72-.696 1.248s.228.924.708 1.212c.288.192.804.372 1.536.552.672.168 1.116.3 1.32.396.384.192.588.456.588.804 0 .696-.564 1.056-1.668 1.056q-.792 0-1.188-.288c-.264-.216-.444-.564-.516-1.056h-.936c.144 1.428 1.032 2.148 2.664 2.148 1.752 0 2.628-.648 2.628-1.92 0-.54-.252-.96-.744-1.272-.324-.204-.852-.396-1.596-.576-.624-.168-1.056-.3-1.284-.408-.36-.18-.528-.408-.528-.672q0-.414.396-.648c.24-.168.576-.24 1.008-.24.492 0 .876.096 1.14.288.24.168.396.456.48.84h.936c-.168-1.296-1.008-1.932-2.544-1.932m3.864.168v3.84c0 1.68.744 2.532 2.256 2.532.84 0 1.512-.384 2.016-1.128v.96h.96v-6.204h-.96v3.78q-.108.792-.612 1.296c-.324.312-.696.48-1.104.48-.564 0-.972-.156-1.224-.444s-.372-.732-.372-1.32v-3.792zm9.432-.168c-.696 0-1.284.324-1.752.996v-.828h-.96v6.204h.96v-3.78c0-.492.144-.912.432-1.248.288-.36.648-.528 1.092-.528.948 0 1.428.54 1.428 1.644v3.912h.96v-3.888c0-.504.132-.9.42-1.212.264-.312.612-.456 1.02-.456.528 0 .912.132 1.152.42.228.264.348.672.348 1.224v3.912h.96v-4.068c0-.708-.204-1.272-.588-1.692-.408-.408-.924-.612-1.572-.612-.432 0-.792.096-1.092.288-.336.18-.624.48-.864.888-.348-.792-.996-1.176-1.944-1.176m64.476-2.364v8.736h.948v-8.736zm5.184 2.364c-.9 0-1.608.324-2.136.972-.528.612-.78 1.38-.78 2.292 0 1.008.264 1.8.816 2.4.528.576 1.248.876 2.136.876.804 0 1.464-.24 1.98-.696.42-.384.696-.864.84-1.464h-.96c-.156.432-.36.756-.624.972-.312.252-.732.384-1.236.384-.588 0-1.056-.192-1.392-.576s-.516-.924-.564-1.62h4.896c-.024-1.08-.264-1.932-.72-2.532-.504-.672-1.26-1.008-2.256-1.008m.024.804c1.176 0 1.836.66 1.956 1.992h-3.876c.06-.612.252-1.092.588-1.452q.504-.54 1.332-.54m6.984-.804q-.612 0-1.116.288-.504.27-.828.792v-.912h-.96v6.204h.96v-3.744c.036-.564.216-1.008.552-1.344a1.52 1.52 0 0 1 1.116-.468c1.08 0 1.632.6 1.632 1.812v3.744h.96v-3.816c0-1.704-.78-2.556-2.316-2.556"/><path fill="#FFF" d="M265.86 121.2c-.744 0-1.332.144-1.788.432-.504.312-.828.804-.96 1.452l.948.072c.096-.396.3-.696.624-.888.288-.192.66-.276 1.116-.276 1.08 0 1.62.516 1.62 1.56v.324l-1.488.024c-.936.012-1.656.192-2.16.528-.576.36-.852.888-.852 1.596 0 .504.192.924.576 1.248.372.312.864.468 1.488.468a3.15 3.15 0 0 0 1.548-.384c.384-.216.708-.492.948-.828v1.044h.9v-3.984c0-.72-.192-1.284-.552-1.692-.432-.468-1.08-.696-1.968-.696m1.56 3.396v.528c0 .48-.228.912-.672 1.284a2.35 2.35 0 0 1-1.56.576c-.384 0-.696-.096-.936-.276a.85.85 0 0 1-.348-.708c0-.9.696-1.356 2.088-1.38zm1.764-3.228 2.34 6.204h.972l2.352-6.204h-1.056l-1.776 5.004-1.776-5.004zm9.024-.168c-.9 0-1.608.324-2.136.972-.528.612-.78 1.38-.78 2.292 0 1.008.264 1.8.816 2.4.528.576 1.248.876 2.136.876.804 0 1.464-.24 1.98-.696.42-.384.696-.864.84-1.464h-.96c-.156.432-.36.756-.624.972-.312.252-.732.384-1.236.384-.588 0-1.056-.192-1.392-.576s-.516-.924-.564-1.62h4.896c-.024-1.08-.264-1.932-.72-2.532-.504-.672-1.26-1.008-2.256-1.008m.024.804c1.176 0 1.836.66 1.956 1.992h-3.876c.06-.612.252-1.092.588-1.452q.504-.54 1.332-.54m6.804-.804c-.432 0-.804.132-1.128.396-.264.204-.48.492-.648.852v-1.08h-.948v6.204h.948v-3.288c0-.576.156-1.068.492-1.476.324-.432.732-.636 1.212-.636.3 0 .612.036.924.132v-.96c-.228-.096-.516-.144-.852-.144m4.356 0c-.744 0-1.332.144-1.788.432-.504.312-.828.804-.96 1.452l.948.072c.096-.396.3-.696.624-.888.288-.192.66-.276 1.116-.276 1.08 0 1.62.516 1.62 1.56v.324l-1.488.024c-.936.012-1.656.192-2.16.528-.576.36-.852.888-.852 1.596 0 .504.192.924.576 1.248.372.312.864.468 1.488.468a3.15 3.15 0 0 0 1.548-.384c.384-.216.708-.492.948-.828v1.044h.9v-3.984c0-.72-.192-1.284-.552-1.692-.432-.468-1.08-.696-1.968-.696m1.56 3.396v.528c0 .48-.228.912-.672 1.284a2.35 2.35 0 0 1-1.56.576c-.384 0-.696-.096-.936-.276a.85.85 0 0 1-.348-.708c0-.9.696-1.356 2.088-1.38zm5.004-3.396c-.864 0-1.548.3-2.052.912-.504.576-.744 1.308-.744 2.22 0 .9.24 1.632.744 2.208.504.588 1.188.888 2.052.888.936 0 1.632-.42 2.088-1.248v1.092c0 1.368-.624 2.064-1.872 2.064-.564 0-.984-.108-1.26-.312-.276-.192-.456-.504-.528-.924h-.96q.162 1.008.828 1.512c.432.336 1.08.504 1.92.504 1.884 0 2.832-.996 2.832-2.976v-5.772h-.96v1.068c-.456-.828-1.152-1.236-2.088-1.236m.144.792c.612 0 1.092.216 1.452.672.336.408.504.972.504 1.668 0 .672-.168 1.224-.504 1.644-.36.432-.84.648-1.464.648-.672 0-1.164-.24-1.5-.696-.3-.408-.444-.948-.444-1.596 0-.696.168-1.26.504-1.668.348-.456.828-.672 1.452-.672m6.948-.792c-.9 0-1.608.324-2.136.972-.528.612-.78 1.38-.78 2.292 0 1.008.264 1.8.816 2.4.528.576 1.248.876 2.136.876.804 0 1.464-.24 1.98-.696.42-.384.696-.864.84-1.464h-.96c-.156.432-.36.756-.624.972-.312.252-.732.384-1.236.384-.588 0-1.056-.192-1.392-.576s-.516-.924-.564-1.62h4.896c-.024-1.08-.264-1.932-.72-2.532-.504-.672-1.26-1.008-2.256-1.008m.024.804c1.176 0 1.836.66 1.956 1.992h-3.876c.06-.612.252-1.092.588-1.452q.504-.54 1.332-.54"/><path fill="#83BBF4" d="m316.428 151.004.12 2.988h.78l.108-2.988zm6.672-1.272-4.26 11.04h.864l4.248-11.04zm5.004 3.468c-.936 0-1.62.396-2.064 1.188v-1.02h-.9v8.58h.96v-3.504q.72 1.296 2.052 1.296c.888 0 1.572-.336 2.076-.984.456-.6.696-1.356.696-2.268 0-.936-.24-1.692-.708-2.292-.516-.672-1.224-.996-2.112-.996m-.12.792c.66 0 1.164.24 1.512.744.288.432.444 1.02.444 1.752q0 1.116-.468 1.764c-.348.456-.852.696-1.524.696-.576 0-1.02-.228-1.356-.66-.36-.444-.528-1.02-.528-1.74v-.12c0-.696.156-1.272.468-1.704.336-.492.828-.732 1.452-.732m6.888-.792c-.744 0-1.332.144-1.788.432-.504.312-.828.804-.96 1.452l.948.072c.096-.396.3-.696.624-.888.288-.192.66-.276 1.116-.276 1.08 0 1.62.516 1.62 1.56v.324l-1.488.024c-.936.012-1.656.192-2.16.528-.576.36-.852.888-.852 1.596 0 .504.192.924.576 1.248.372.312.864.468 1.488.468a3.15 3.15 0 0 0 1.548-.384c.384-.216.708-.492.948-.828v1.044h.9v-3.984c0-.72-.192-1.284-.552-1.692-.432-.468-1.08-.696-1.968-.696m1.56 3.396v.528c0 .48-.228.912-.672 1.284a2.35 2.35 0 0 1-1.56.576c-.384 0-.696-.096-.936-.276a.85.85 0 0 1-.348-.708c0-.9.696-1.356 2.088-1.38zm4.104-5.232-.948.396v1.608h-1.248v.804h1.248v3.948c0 .468.096.816.3 1.056.216.264.588.396 1.092.396h.936v-.804h-.792c-.216 0-.372-.06-.456-.156-.096-.096-.132-.264-.132-.492v-3.948h1.536v-.804h-1.536zm2.604-.528v8.736h.96v-3.54c0-.576.156-1.068.48-1.452q.468-.576 1.188-.576c.516 0 .912.156 1.2.468.264.312.408.756.408 1.332v3.768h.96v-3.912c0-.792-.192-1.404-.576-1.824-.384-.432-.948-.636-1.668-.636-.42 0-.792.096-1.128.288q-.54.306-.864.9v-3.552zm10.632-1.104-4.26 11.04h.864l4.248-11.04zm3.696 1.632-.948.396v1.608h-1.248v.804h1.248v3.948c0 .468.096.816.3 1.056.216.264.588.396 1.092.396h.936v-.804h-.792c-.216 0-.372-.06-.456-.156-.096-.096-.132-.264-.132-.492v-3.948h1.536v-.804h-1.536zm5.376 1.836c-.936 0-1.668.312-2.22.96-.528.612-.792 1.38-.792 2.316 0 .924.264 1.692.792 2.292.552.648 1.284.972 2.22.972q1.386 0 2.232-.972c.516-.6.78-1.368.78-2.292 0-.936-.264-1.704-.792-2.316-.552-.648-1.296-.96-2.22-.96m0 .804q.972 0 1.548.756c.324.456.492 1.02.492 1.716 0 .672-.168 1.248-.492 1.704q-.576.756-1.548.756c-.66 0-1.176-.252-1.536-.756-.336-.456-.492-1.02-.492-1.704 0-.696.156-1.26.492-1.716.36-.504.876-.756 1.536-.756m8.22-4.272-4.26 11.04h.864l4.248-11.04zm6.624 1.104v3.672c-.48-.876-1.164-1.308-2.052-1.308s-1.572.324-2.076.996c-.468.6-.696 1.344-.696 2.256 0 .936.228 1.704.696 2.304.504.648 1.212.984 2.124.984.936 0 1.632-.396 2.064-1.188v1.02h.9v-8.736zm-1.848 3.156c.552 0 1.008.216 1.356.672.336.444.516 1.032.516 1.752v.12c0 .696-.156 1.26-.456 1.692-.348.48-.828.72-1.452.72-.672 0-1.176-.252-1.512-.732-.3-.432-.444-1.02-.444-1.764s.144-1.32.456-1.74c.336-.48.852-.72 1.536-.72m6.996-.792c-.744 0-1.332.144-1.788.432-.504.312-.828.804-.96 1.452l.948.072c.096-.396.3-.696.624-.888.288-.192.66-.276 1.116-.276 1.08 0 1.62.516 1.62 1.56v.324l-1.488.024c-.936.012-1.656.192-2.16.528-.576.36-.852.888-.852 1.596 0 .504.192.924.576 1.248.372.312.864.468 1.488.468a3.15 3.15 0 0 0 1.548-.384c.384-.216.708-.492.948-.828v1.044h.9v-3.984c0-.72-.192-1.284-.552-1.692-.432-.468-1.08-.696-1.968-.696m1.56 3.396v.528c0 .48-.228.912-.672 1.284a2.35 2.35 0 0 1-1.56.576c-.384 0-.696-.096-.936-.276a.85.85 0 0 1-.348-.708c0-.9.696-1.356 2.088-1.38zm4.104-5.232-.948.396v1.608h-1.248v.804h1.248v3.948c0 .468.096.816.3 1.056.216.264.588.396 1.092.396h.936v-.804h-.792c-.216 0-.372-.06-.456-.156-.096-.096-.132-.264-.132-.492v-3.948h1.536v-.804H388.5zm5.304 1.836c-.744 0-1.332.144-1.788.432-.504.312-.828.804-.96 1.452l.948.072c.096-.396.3-.696.624-.888.288-.192.66-.276 1.116-.276 1.08 0 1.62.516 1.62 1.56v.324l-1.488.024c-.936.012-1.656.192-2.16.528-.576.36-.852.888-.852 1.596 0 .504.192.924.576 1.248.372.312.864.468 1.488.468a3.15 3.15 0 0 0 1.548-.384c.384-.216.708-.492.948-.828v1.044h.9v-3.984c0-.72-.192-1.284-.552-1.692-.432-.468-1.08-.696-1.968-.696m1.56 3.396v.528c0 .48-.228.912-.672 1.284a2.35 2.35 0 0 1-1.56.576c-.384 0-.696-.096-.936-.276a.85.85 0 0 1-.348-.708c0-.9.696-1.356 2.088-1.38zm3.288 1.548a.66.66 0 0 0-.516.216.7.7 0 0 0-.216.528c0 .204.072.372.216.516.132.144.3.216.516.216a.72.72 0 0 0 .516-.216.7.7 0 0 0 .216-.516.7.7 0 0 0-.216-.528.72.72 0 0 0-.516-.216m3.24-7.116a.69.69 0 0 0-.516.204c-.144.12-.204.288-.204.504 0 .204.06.372.204.516a.74.74 0 0 0 .516.204.77.77 0 0 0 .528-.204.74.74 0 0 0 .204-.516.65.65 0 0 0-.204-.504.71.71 0 0 0-.528-.204m-.48 2.34v6.888c0 .588-.288.888-.852.888h-.504v.804h.576c1.152 0 1.74-.552 1.74-1.656v-6.924zm4.968-.168c-.696 0-1.272.156-1.704.468-.468.312-.696.72-.696 1.248s.228.924.708 1.212c.288.192.804.372 1.536.552.672.168 1.116.3 1.32.396.384.192.588.456.588.804 0 .696-.564 1.056-1.668 1.056q-.792 0-1.188-.288c-.264-.216-.444-.564-.516-1.056h-.936c.144 1.428 1.032 2.148 2.664 2.148 1.752 0 2.628-.648 2.628-1.92 0-.54-.252-.96-.744-1.272-.324-.204-.852-.396-1.596-.576-.624-.168-1.056-.3-1.284-.408-.36-.18-.528-.408-.528-.672q0-.414.396-.648c.24-.168.576-.24 1.008-.24.492 0 .876.096 1.14.288.24.168.396.456.48.84h.936c-.168-1.296-1.008-1.932-2.544-1.932m6.636 0c-.936 0-1.668.312-2.22.96-.528.612-.792 1.38-.792 2.316 0 .924.264 1.692.792 2.292.552.648 1.284.972 2.22.972q1.386 0 2.232-.972c.516-.6.78-1.368.78-2.292 0-.936-.264-1.704-.792-2.316-.552-.648-1.296-.96-2.22-.96m0 .804q.972 0 1.548.756c.324.456.492 1.02.492 1.716 0 .672-.168 1.248-.492 1.704q-.576.756-1.548.756c-.66 0-1.176-.252-1.536-.756-.336-.456-.492-1.02-.492-1.704 0-.696.156-1.26.492-1.716.36-.504.876-.756 1.536-.756m7.164-.804q-.612 0-1.116.288-.504.27-.828.792v-.912h-.96v6.204h.96v-3.744c.036-.564.216-1.008.552-1.344a1.52 1.52 0 0 1 1.116-.468c1.08 0 1.632.6 1.632 1.812v3.744h.96v-3.816c0-1.704-.78-2.556-2.316-2.556m4.02-2.196.12 2.988h.78l.108-2.988zm-92.328 16 .12 2.988h.78l.108-2.988zm5.676 2.196c-.936 0-1.62.396-2.064 1.188v-1.02h-.9v8.58h.96v-3.504q.72 1.296 2.052 1.296c.888 0 1.572-.336 2.076-.984.456-.6.696-1.356.696-2.268 0-.936-.24-1.692-.708-2.292-.516-.672-1.224-.996-2.112-.996m-.12.792c.66 0 1.164.24 1.512.744.288.432.444 1.02.444 1.752q0 1.116-.468 1.764c-.348.456-.852.696-1.524.696-.576 0-1.02-.228-1.356-.66-.36-.444-.528-1.02-.528-1.74v-.12c0-.696.156-1.272.468-1.704.336-.492.828-.732 1.452-.732m6.912-.792c-.432 0-.804.132-1.128.396-.264.204-.48.492-.648.852v-1.08h-.948v6.204h.948v-3.288c0-.576.156-1.068.492-1.476.324-.432.732-.636 1.212-.636.3 0 .612.036.924.132v-.96c-.228-.096-.516-.144-.852-.144m4.428 0c-.936 0-1.668.312-2.22.96-.528.612-.792 1.38-.792 2.316 0 .924.264 1.692.792 2.292.552.648 1.284.972 2.22.972q1.386 0 2.232-.972c.516-.6.78-1.368.78-2.292 0-.936-.264-1.704-.792-2.316-.552-.648-1.296-.96-2.22-.96m0 .804q.972 0 1.548.756c.324.456.492 1.02.492 1.716 0 .672-.168 1.248-.492 1.704q-.576.756-1.548.756c-.66 0-1.176-.252-1.536-.756-.336-.456-.492-1.02-.492-1.704 0-.696.156-1.26.492-1.716.36-.504.876-.756 1.536-.756m6.936-.804c-.924 0-1.656.324-2.184.984-.492.6-.732 1.368-.732 2.316s.24 1.716.732 2.304c.516.624 1.236.936 2.172.936.768 0 1.38-.204 1.848-.6.48-.408.78-1.02.924-1.812h-.96c-.144 1.068-.756 1.608-1.812 1.608-.624 0-1.104-.228-1.428-.66-.336-.432-.492-1.032-.492-1.788q0-1.134.504-1.8c.348-.456.828-.684 1.428-.684.492 0 .888.108 1.2.348q.45.36.576 1.08h.948c-.108-.756-.396-1.32-.876-1.692-.468-.36-1.08-.54-1.848-.54m6.444 0c-.9 0-1.608.324-2.136.972-.528.612-.78 1.38-.78 2.292 0 1.008.264 1.8.816 2.4.528.576 1.248.876 2.136.876.804 0 1.464-.24 1.98-.696.42-.384.696-.864.84-1.464h-.96c-.156.432-.36.756-.624.972-.312.252-.732.384-1.236.384-.588 0-1.056-.192-1.392-.576s-.516-.924-.564-1.62h4.896c-.024-1.08-.264-1.932-.72-2.532-.504-.672-1.26-1.008-2.256-1.008m.024.804c1.176 0 1.836.66 1.956 1.992h-3.876c.06-.612.252-1.092.588-1.452q.504-.54 1.332-.54m6.276-.804c-.696 0-1.272.156-1.704.468-.468.312-.696.72-.696 1.248s.228.924.708 1.212c.288.192.804.372 1.536.552.672.168 1.116.3 1.32.396.384.192.588.456.588.804 0 .696-.564 1.056-1.668 1.056q-.792 0-1.188-.288c-.264-.216-.444-.564-.516-1.056h-.936c.144 1.428 1.032 2.148 2.664 2.148 1.752 0 2.628-.648 2.628-1.92 0-.54-.252-.96-.744-1.272-.324-.204-.852-.396-1.596-.576-.624-.168-1.056-.3-1.284-.408-.36-.18-.528-.408-.528-.672q0-.414.396-.648c.24-.168.576-.24 1.008-.24.492 0 .876.096 1.14.288.24.168.396.456.48.84h.936c-.168-1.296-1.008-1.932-2.544-1.932m6.06 0c-.696 0-1.272.156-1.704.468-.468.312-.696.72-.696 1.248s.228.924.708 1.212c.288.192.804.372 1.536.552.672.168 1.116.3 1.32.396.384.192.588.456.588.804 0 .696-.564 1.056-1.668 1.056q-.792 0-1.188-.288c-.264-.216-.444-.564-.516-1.056h-.936c.144 1.428 1.032 2.148 2.664 2.148 1.752 0 2.628-.648 2.628-1.92 0-.54-.252-.96-.744-1.272-.324-.204-.852-.396-1.596-.576-.624-.168-1.056-.3-1.284-.408-.36-.18-.528-.408-.528-.672q0-.414.396-.648c.24-.168.576-.24 1.008-.24.492 0 .876.096 1.14.288.24.168.396.456.48.84h.936c-.168-1.296-1.008-1.932-2.544-1.932m6.42 0c-.9 0-1.608.324-2.136.972-.528.612-.78 1.38-.78 2.292 0 1.008.264 1.8.816 2.4.528.576 1.248.876 2.136.876.804 0 1.464-.24 1.98-.696.42-.384.696-.864.84-1.464h-.96c-.156.432-.36.756-.624.972-.312.252-.732.384-1.236.384-.588 0-1.056-.192-1.392-.576s-.516-.924-.564-1.62h4.896c-.024-1.08-.264-1.932-.72-2.532-.504-.672-1.26-1.008-2.256-1.008m.024.804c1.176 0 1.836.66 1.956 1.992h-3.876c.06-.612.252-1.092.588-1.452q.504-.54 1.332-.54m8.664-3.168v3.672c-.48-.876-1.164-1.308-2.052-1.308s-1.572.324-2.076.996c-.468.6-.696 1.344-.696 2.256 0 .936.228 1.704.696 2.304.504.648 1.212.984 2.124.984.936 0 1.632-.396 2.064-1.188v1.02h.9v-8.736zm-1.848 3.156c.552 0 1.008.216 1.356.672.336.444.516 1.032.516 1.752v.12c0 .696-.156 1.26-.456 1.692-.348.48-.828.72-1.452.72-.672 0-1.176-.252-1.512-.732-.3-.432-.444-1.02-.444-1.764s.144-1.32.456-1.74c.336-.48.852-.72 1.536-.72m3.552 6.456v.804h6v-.804zm6.936-9.612v8.736h.948v-8.736zm3.42.192a.69.69 0 0 0-.516.204c-.144.12-.204.288-.204.504 0 .204.06.372.204.516a.74.74 0 0 0 .516.204.74.74 0 0 0 .516-.204.7.7 0 0 0 .216-.516q0-.324-.216-.504a.69.69 0 0 0-.516-.204m-.48 2.34v6.204h.96v-6.204zm5.664-.168q-.612 0-1.116.288-.504.27-.828.792v-.912h-.96v6.204h.96v-3.744c.036-.564.216-1.008.552-1.344a1.52 1.52 0 0 1 1.116-.468c1.08 0 1.632.6 1.632 1.812v3.744h.96v-3.816c0-1.704-.78-2.556-2.316-2.556m6.36 0c-.9 0-1.608.324-2.136.972-.528.612-.78 1.38-.78 2.292 0 1.008.264 1.8.816 2.4.528.576 1.248.876 2.136.876.804 0 1.464-.24 1.98-.696.42-.384.696-.864.84-1.464h-.96c-.156.432-.36.756-.624.972-.312.252-.732.384-1.236.384-.588 0-1.056-.192-1.392-.576s-.516-.924-.564-1.62h4.896c-.024-1.08-.264-1.932-.72-2.532-.504-.672-1.26-1.008-2.256-1.008m.024.804c1.176 0 1.836.66 1.956 1.992h-3.876c.06-.612.252-1.092.588-1.452q.504-.54 1.332-.54m6.276-.804c-.696 0-1.272.156-1.704.468-.468.312-.696.72-.696 1.248s.228.924.708 1.212c.288.192.804.372 1.536.552.672.168 1.116.3 1.32.396.384.192.588.456.588.804 0 .696-.564 1.056-1.668 1.056q-.792 0-1.188-.288c-.264-.216-.444-.564-.516-1.056h-.936c.144 1.428 1.032 2.148 2.664 2.148 1.752 0 2.628-.648 2.628-1.92 0-.54-.252-.96-.744-1.272-.324-.204-.852-.396-1.596-.576-.624-.168-1.056-.3-1.284-.408-.36-.18-.528-.408-.528-.672q0-.414.396-.648c.24-.168.576-.24 1.008-.24.492 0 .876.096 1.14.288.24.168.396.456.48.84h.936c-.168-1.296-1.008-1.932-2.544-1.932m4.08-2.196.12 2.988h.78l.108-2.988zm14.892-.168v8.736h.948v-8.736zm3.42.192a.69.69 0 0 0-.516.204c-.144.12-.204.288-.204.504 0 .204.06.372.204.516a.74.74 0 0 0 .516.204.74.74 0 0 0 .516-.204.7.7 0 0 0 .216-.516q0-.324-.216-.504a.69.69 0 0 0-.516-.204m-.48 2.34v6.204h.96v-6.204zm5.664-.168q-.612 0-1.116.288-.504.27-.828.792v-.912h-.96v6.204h.96v-3.744c.036-.564.216-1.008.552-1.344a1.52 1.52 0 0 1 1.116-.468c1.08 0 1.632.6 1.632 1.812v3.744h.96v-3.816c0-1.704-.78-2.556-2.316-2.556m6.36 0c-.9 0-1.608.324-2.136.972-.528.612-.78 1.38-.78 2.292 0 1.008.264 1.8.816 2.4.528.576 1.248.876 2.136.876.804 0 1.464-.24 1.98-.696.42-.384.696-.864.84-1.464h-.96c-.156.432-.36.756-.624.972-.312.252-.732.384-1.236.384-.588 0-1.056-.192-1.392-.576s-.516-.924-.564-1.62h4.896c-.024-1.08-.264-1.932-.72-2.532-.504-.672-1.26-1.008-2.256-1.008m.024.804c1.176 0 1.836.66 1.956 1.992h-3.876c.06-.612.252-1.092.588-1.452q.504-.54 1.332-.54m6.276-.804c-.696 0-1.272.156-1.704.468-.468.312-.696.72-.696 1.248s.228.924.708 1.212c.288.192.804.372 1.536.552.672.168 1.116.3 1.32.396.384.192.588.456.588.804 0 .696-.564 1.056-1.668 1.056q-.792 0-1.188-.288c-.264-.216-.444-.564-.516-1.056h-.936c.144 1.428 1.032 2.148 2.664 2.148 1.752 0 2.628-.648 2.628-1.92 0-.54-.252-.96-.744-1.272-.324-.204-.852-.396-1.596-.576-.624-.168-1.056-.3-1.284-.408-.36-.18-.528-.408-.528-.672q0-.414.396-.648c.24-.168.576-.24 1.008-.24.492 0 .876.096 1.14.288.24.168.396.456.48.84h.936c-.168-1.296-1.008-1.932-2.544-1.932m7.176.168 2.112 6.204h.9l1.464-4.992 1.44 4.992h.912l2.112-6.204h-1.056l-1.524 5.028-1.44-5.028h-.9l-1.44 5.028-1.524-5.028zm10.536-2.34a.69.69 0 0 0-.516.204c-.144.12-.204.288-.204.504 0 .204.06.372.204.516a.74.74 0 0 0 .516.204.74.74 0 0 0 .516-.204.7.7 0 0 0 .216-.516q0-.324-.216-.504a.69.69 0 0 0-.516-.204m-.48 2.34v6.204h.96v-6.204zm4.416-2.004-.948.396v1.608h-1.248v.804h1.248v3.948c0 .468.096.816.3 1.056.216.264.588.396 1.092.396h.936v-.804h-.792c-.216 0-.372-.06-.456-.156-.096-.096-.132-.264-.132-.492v-3.948h1.536v-.804h-1.536zm2.604-.528v8.736h.96v-3.54c0-.576.156-1.068.48-1.452q.468-.576 1.188-.576c.516 0 .912.156 1.2.468.264.312.408.756.408 1.332v3.768h.96v-3.912c0-.792-.192-1.404-.576-1.824-.384-.432-.948-.636-1.668-.636-.42 0-.792.096-1.128.288q-.54.306-.864.9v-3.552z"/><path fill="#FFF" d="m434.592 151.004-.456 4.728h.936a1.7 1.7 0 0 1 .768-.768c.324-.18.684-.264 1.092-.264.624 0 1.116.18 1.464.564.36.372.552.9.552 1.584 0 .6-.204 1.092-.588 1.476-.396.384-.888.576-1.488.576-.528 0-.972-.132-1.308-.384-.384-.288-.6-.708-.648-1.248h-.972c.06.78.384 1.404.984 1.86.528.408 1.176.612 1.932.612.84 0 1.56-.264 2.136-.78.612-.552.924-1.26.924-2.124 0-.924-.264-1.644-.768-2.172-.504-.516-1.164-.768-1.98-.768-.396 0-.756.06-1.092.204-.372.144-.684.36-.924.648h-.048l.288-2.868h4.176v-.876zm9.54-.168c-1.032 0-1.8.444-2.316 1.356q-.684 1.152-.684 3.096t.684 3.096c.516.9 1.284 1.356 2.316 1.356 1.02 0 1.788-.456 2.316-1.356q.684-1.152.684-3.096t-.684-3.096c-.528-.912-1.296-1.356-2.316-1.356m0 .84c.768 0 1.32.408 1.656 1.236.24.576.372 1.368.372 2.376 0 .996-.132 1.788-.372 2.376-.336.816-.888 1.236-1.656 1.236s-1.32-.42-1.656-1.236q-.36-.882-.36-2.376 0-1.512.36-2.376c.336-.828.888-1.236 1.656-1.236"/><path fill="#A89FF8" d="M223.5 167.004c-.528 0-.936.144-1.212.444-.264.288-.396.684-.396 1.212v.708h-1.56v.804h1.56v5.4h.96v-5.4h1.752v-.804h-1.752v-.684q0-.45.18-.648c.12-.144.324-.204.588-.204h1.068v-.828zm4.404 0 .108 2.988h.78l.12-2.988zm-2.196 0 .12 2.988h.78l.108-2.988zm5.028 0v8.568h.984v-3.504h2.508c1.968 0 2.964-.852 2.964-2.544q0-2.52-2.952-2.52zm.984.852h2.46c.684 0 1.188.132 1.524.42.336.252.504.672.504 1.248s-.168.996-.492 1.272c-.336.276-.84.42-1.536.42h-2.46zm9.324 1.344c-.432 0-.804.132-1.128.396-.264.204-.48.492-.648.852v-1.08h-.948v6.204h.948v-3.288c0-.576.156-1.068.492-1.476.324-.432.732-.636 1.212-.636.3 0 .612.036.924.132v-.96c-.228-.096-.516-.144-.852-.144m4.428 0c-.936 0-1.668.312-2.22.96-.528.612-.792 1.38-.792 2.316 0 .924.264 1.692.792 2.292.552.648 1.284.972 2.22.972q1.386 0 2.232-.972c.516-.6.78-1.368.78-2.292 0-.936-.264-1.704-.792-2.316-.552-.648-1.296-.96-2.22-.96m0 .804q.972 0 1.548.756c.324.456.492 1.02.492 1.716 0 .672-.168 1.248-.492 1.704q-.576.756-1.548.756c-.66 0-1.176-.252-1.536-.756-.336-.456-.492-1.02-.492-1.704 0-.696.156-1.26.492-1.716.36-.504.876-.756 1.536-.756m6.936-.804c-.924 0-1.656.324-2.184.984-.492.6-.732 1.368-.732 2.316s.24 1.716.732 2.304c.516.624 1.236.936 2.172.936.768 0 1.38-.204 1.848-.6.48-.408.78-1.02.924-1.812h-.96c-.144 1.068-.756 1.608-1.812 1.608-.624 0-1.104-.228-1.428-.66-.336-.432-.492-1.032-.492-1.788q0-1.134.504-1.8c.348-.456.828-.684 1.428-.684.492 0 .888.108 1.2.348q.45.36.576 1.08h.948c-.108-.756-.396-1.32-.876-1.692-.468-.36-1.08-.54-1.848-.54m6.444 0c-.9 0-1.608.324-2.136.972-.528.612-.78 1.38-.78 2.292 0 1.008.264 1.8.816 2.4.528.576 1.248.876 2.136.876.804 0 1.464-.24 1.98-.696.42-.384.696-.864.84-1.464h-.96c-.156.432-.36.756-.624.972-.312.252-.732.384-1.236.384-.588 0-1.056-.192-1.392-.576s-.516-.924-.564-1.62h4.896c-.024-1.08-.264-1.932-.72-2.532-.504-.672-1.26-1.008-2.256-1.008m.024.804c1.176 0 1.836.66 1.956 1.992h-3.876c.06-.612.252-1.092.588-1.452q.504-.54 1.332-.54m6.276-.804c-.696 0-1.272.156-1.704.468-.468.312-.696.72-.696 1.248s.228.924.708 1.212c.288.192.804.372 1.536.552.672.168 1.116.3 1.32.396.384.192.588.456.588.804 0 .696-.564 1.056-1.668 1.056q-.792 0-1.188-.288c-.264-.216-.444-.564-.516-1.056h-.936c.144 1.428 1.032 2.148 2.664 2.148 1.752 0 2.628-.648 2.628-1.92 0-.54-.252-.96-.744-1.272-.324-.204-.852-.396-1.596-.576-.624-.168-1.056-.3-1.284-.408-.36-.18-.528-.408-.528-.672q0-.414.396-.648c.24-.168.576-.24 1.008-.24.492 0 .876.096 1.14.288.24.168.396.456.48.84h.936c-.168-1.296-1.008-1.932-2.544-1.932m6.06 0c-.696 0-1.272.156-1.704.468-.468.312-.696.72-.696 1.248s.228.924.708 1.212c.288.192.804.372 1.536.552.672.168 1.116.3 1.32.396.384.192.588.456.588.804 0 .696-.564 1.056-1.668 1.056q-.792 0-1.188-.288c-.264-.216-.444-.564-.516-1.056h-.936c.144 1.428 1.032 2.148 2.664 2.148 1.752 0 2.628-.648 2.628-1.92 0-.54-.252-.96-.744-1.272-.324-.204-.852-.396-1.596-.576-.624-.168-1.056-.3-1.284-.408-.36-.18-.528-.408-.528-.672q0-.414.396-.648c.24-.168.576-.24 1.008-.24.492 0 .876.096 1.14.288.24.168.396.456.48.84h.936c-.168-1.296-1.008-1.932-2.544-1.932m6.42 0c-.9 0-1.608.324-2.136.972-.528.612-.78 1.38-.78 2.292 0 1.008.264 1.8.816 2.4.528.576 1.248.876 2.136.876.804 0 1.464-.24 1.98-.696.42-.384.696-.864.84-1.464h-.96c-.156.432-.36.756-.624.972-.312.252-.732.384-1.236.384-.588 0-1.056-.192-1.392-.576s-.516-.924-.564-1.62h4.896c-.024-1.08-.264-1.932-.72-2.532-.504-.672-1.26-1.008-2.256-1.008m.024.804c1.176 0 1.836.66 1.956 1.992h-3.876c.06-.612.252-1.092.588-1.452q.504-.54 1.332-.54m8.664-3.168v3.672c-.48-.876-1.164-1.308-2.052-1.308s-1.572.324-2.076.996c-.468.6-.696 1.344-.696 2.256 0 .936.228 1.704.696 2.304.504.648 1.212.984 2.124.984.936 0 1.632-.396 2.064-1.188v1.02h.9v-8.736zm-1.848 3.156c.552 0 1.008.216 1.356.672.336.444.516 1.032.516 1.752v.12c0 .696-.156 1.26-.456 1.692-.348.48-.828.72-1.452.72-.672 0-1.176-.252-1.512-.732-.3-.432-.444-1.02-.444-1.764s.144-1.32.456-1.74c.336-.48.852-.72 1.536-.72"/><path fill="#FFF" d="M498.864 166.836v8.736h.948v-8.736zm5.184 2.364c-.9 0-1.608.324-2.136.972-.528.612-.78 1.38-.78 2.292 0 1.008.264 1.8.816 2.4.528.576 1.248.876 2.136.876.804 0 1.464-.24 1.98-.696.42-.384.696-.864.84-1.464h-.96c-.156.432-.36.756-.624.972-.312.252-.732.384-1.236.384-.588 0-1.056-.192-1.392-.576s-.516-.924-.564-1.62h4.896c-.024-1.08-.264-1.932-.72-2.532-.504-.672-1.26-1.008-2.256-1.008m.024.804c1.176 0 1.836.66 1.956 1.992h-3.876c.06-.612.252-1.092.588-1.452q.504-.54 1.332-.54m6.984-.804q-.612 0-1.116.288-.504.27-.828.792v-.912h-.96v6.204h.96v-3.744c.036-.564.216-1.008.552-1.344a1.52 1.52 0 0 1 1.116-.468c1.08 0 1.632.6 1.632 1.812v3.744h.96v-3.816c0-1.704-.78-2.556-2.316-2.556"/></g><rect width="124.781" height="72" x="447.807" y="67.923" fill="url(#e)" rx="0"/><rect width="35.444" height="396.393" x="574" y="156.033" fill="url(#f)" rx="0" transform="rotate(90 574 156.033)"/><rect width="143.321" height="25.169" x="11.984" fill="url(#g)" fill-opacity=".5" rx="0"/><path fill="#FFF" d="m31.993 7.703.13 3.585h.935l.144-3.585zm-2.635 0 .144 3.585h.936l.13-3.585zM39.87 6.81v.95h2.822l-.346 1.599h-2.13v.936h1.929l-.403 1.9h-2.247v.965h8.698v-.965h-1.354V9.36h-3.456l.346-1.599h4.017v-.95zm2.908 5.385.404-1.9h2.62v1.9zm4.464 2.276H40.59v4.982h1.022v-.691h4.608v.691h1.022zm-5.63 3.312V15.42h4.608v2.362zM36.745 6.42l-.72.706c.993.748 1.771 1.44 2.347 2.102l.72-.706c-.634-.705-1.426-1.41-2.347-2.102m-1.786 4.205v.993h2.117v5.746c0 .23-.115.432-.317.62l.403.92a18.5 18.5 0 0 0 2.664-2.217l-.273-1.094a32 32 0 0 1-1.483 1.411v-6.38zm22.176-4.407v2.319h-3.413v1.008h3.413v2.693h-4.104v1.008h3.413c-1.094 2.577-1.987 4.161-2.664 4.752-.058.028-.13.072-.216.1l.245.908a82 82 0 0 0 7.085-.98c.201.461.388.936.59 1.44l.98-.432a31.5 31.5 0 0 0-2.276-4.636l-.994.33c.432.72.864 1.513 1.282 2.377-1.786.345-3.557.619-5.328.806q1.037-1.36 2.42-4.665h4.722v-1.008H58.2V9.546h3.702V8.538H58.2V6.219zm-6.537.23-.735.706c1.008.764 1.786 1.484 2.362 2.175l.734-.749c-.633-.72-1.425-1.426-2.361-2.131m-.346 3.37-.734.706c.921.778 1.641 1.498 2.16 2.174l.748-.734c-.59-.72-1.31-1.44-2.174-2.146m1.656 3.99a41 41 0 0 1-2.174 5.054l1.036.446a48 48 0 0 0 2.074-5.126zm14.5-7.647-.676 6.321h8.194c0 2.736-.173 4.407-.504 4.997-.317.547-1.296.821-2.924.821-.288 0-.777-.043-1.483-.1l.274.95c.49.028.965.057 1.425.057 1.757 0 2.91-.302 3.442-.893.547-.619.82-2.88.82-6.796h-8.092l.245-2.348h8.827v-.993H67.23l.201-1.93zm-2.534 8.64v.993h8.136v-.993zm19.613 1.742c-1.469.533-3.168.965-5.126 1.282l.13 1.008c1.871-.346 3.527-.778 4.996-1.31zM80.823 6.176c-.576 1.714-1.267 3.226-2.073 4.55q-.195.281-.432.39l.259.95c.835-.115 1.656-.23 2.477-.36-.807 1.353-1.484 2.304-2.03 2.865q-.195.173-.476.303l.274.936q2.16-.28 4.492-1.08v-.922q-1.597.54-3.24.864c.879-1.037 1.973-2.765 3.284-5.198l-.908-.331c-.288.547-.576 1.08-.85 1.598-.69.115-1.367.216-2.044.302.749-1.123 1.498-2.62 2.232-4.492zm2.491 1.829v1.008h3.442v2.131H83.79v1.008h7.027v-1.008h-3.01V9.013h3.427V8.005h-3.427V6.263h-1.051v1.742zm7.085 5.587H84.25v5.789h1.023v-.691h4.118v.691H90.4zm-5.126 4.119v-3.14h4.118v3.14zM99.514 6.205c-.33 2.045-.95 3.773-1.843 5.184l.663.864c.576-.864 1.065-1.858 1.468-2.966h4.378q-.021 6.696-.216 7.948c-.13.75-.547 1.138-1.238 1.138-.461 0-.994-.029-1.628-.058l.23.936q1.103.044 1.556.044c1.195 0 1.872-.59 2.045-1.757.144-1.152.23-4.234.23-9.216h-5.054q.26-.95.432-1.987zm-1.18 10.109a58 58 0 0 0 3.772-.879c.116.404.245.836.375 1.296l.907-.403a30 30 0 0 0-1.296-3.614l-.864.302c.202.49.418 1.037.62 1.642-.692.173-1.484.345-2.348.518q.627-1.145 1.685-4.017l-.907-.332c-1.023 2.88-1.728 4.421-2.132 4.637zm-2.448-4.234c.403.519.892 1.21 1.454 2.045l.576-.878a38 38 0 0 0-2.03-2.304v-.908h1.77v-.993h-1.77V6.234h-1.023v2.808h-2.088v.993h2.016c-.46 1.815-1.224 3.442-2.304 4.868l.447 1.123c.806-1.195 1.44-2.52 1.93-3.989v7.33h1.022zm21.859 7.258c1.094 0 1.656-.547 1.656-1.613V7.055h-6.639v1.008h5.588v9.388q0 .95-.821.95l-1.584-.028.259.965zM107.708 8.61v10.829h1.051V8.609zm3.226 2.073v5.415h5.184v-5.415zm4.132 4.421h-3.081v-3.427h3.081zm-5.212-9-.965.418a15.5 15.5 0 0 1 1.829 2.664l.921-.475a16 16 0 0 0-1.785-2.607m21.485 12.11c-2.952 0-4.839-.129-5.674-.388a2 2 0 0 0-.216-.087v-1.57h1.973v-.92h-1.973v-1.527h2.333v-.95h-6.106v.95h2.851v3.499c-.446-.331-.864-.792-1.238-1.382.072-.432.115-.879.144-1.368l-.922-.116c-.072 1.642-.49 3.11-1.267 4.421l.749.663q.69-1.167 1.08-2.55c.59.836 1.267 1.426 2.03 1.743.864.375 3.01.562 6.466.562h2.837l.173-1.037c-.72.029-1.8.058-3.24.058m-9.015-11.433v5.026h4.91V6.78zm3.902 4.162h-2.894V9.719h2.894zm-2.894-2.03V7.644h2.894v1.267zm4.651-2.118v.95h2.693c-.043.39-.1.778-.187 1.153h-2.06v5.817h.923V9.791h3.484v4.924h.965V8.898h-2.376c.087-.375.144-.749.187-1.152h2.592v-.95zm4.148 7.964-.691.662c.936.749 1.67 1.469 2.203 2.131l.734-.72q-.907-1.036-2.246-2.073m-1.512-4.292v2.03c-.03 1.08-.245 1.96-.62 2.636-.417.648-1.137 1.166-2.174 1.54l.562.894c1.094-.432 1.9-1.023 2.39-1.786.49-.82.763-1.915.792-3.283v-2.03zm8.323-2.764.13 3.585h.936l.144-3.585zm-2.635 0 .144 3.585h.936l.129-3.585z"/><circle cx="12.584" cy="12.584" r="12.584" fill="#608F4A"/><path fill="#FFF" d="M8 9.679v1.44h3.37v8.841h1.685V11.12h3.37v-1.44z"/><circle cx="12.584" cy="53.753" r="12.584" fill="#524A8F"/><rect width="143.321" height="25.169" x="11.984" y="41.169" fill="url(#h)" fill-opacity=".5" rx="0"/><path fill="#FFF" d="M12.839 49.647v6.898q0 1.101-.39 1.598c-.258.331-.676.504-1.238.504-1.022 0-1.526-.59-1.526-1.771v-.317H8v.331q0 1.512.821 2.376c.533.576 1.325.864 2.362.864 1.195 0 2.059-.302 2.606-.907.49-.576.734-1.44.734-2.62v-6.956zM31.993 48.871l.13 3.586h.935l.144-3.586zm-2.635 0 .144 3.586h.936l.13-3.586zm6.81-1.253-.705.677c1.051.807 1.872 1.57 2.477 2.29l.734-.72q-1.015-1.124-2.505-2.247m8.425 12.716h3.269l.244-1.037c-.374.029-.907.043-1.598.057-.706.015-1.397.03-2.06.03-1.137 0-2.087-.015-2.85-.03-.864-.028-1.512-.144-1.973-.345q-.605-.281-1.123-.907a2.4 2.4 0 0 0-.36-.332v-5.4h-3.01v.965h2.045v4.378c-.576.259-1.253.993-2.002 2.203l.778.706q1.166-1.988 1.685-1.988c.172 0 .36.116.561.36.447.519.965.879 1.541 1.052.576.158 1.34.244 2.275.259.922.014 1.786.029 2.578.029m-2.045-8.453c-.907 1.267-2.074 2.29-3.485 3.081l.648.764a12.2 12.2 0 0 0 2.39-1.858h3.975c-.432.922-1.152 1.728-2.131 2.42a13.2 13.2 0 0 0-1.757-1.7l-.677.634a16 16 0 0 1 1.656 1.555c-.95.518-2.117.95-3.47 1.281l.49.893c3.772-.993 6.09-2.707 6.926-5.14v-.836h-4.22c.217-.288.433-.576.634-.878zm-2.765-3.903v3.888h7.79v-3.888zm6.869 2.967h-1.469v-2.06h1.469zm-2.29 0h-1.396v-2.06h1.396zm-2.217 0h-1.44v-2.06h1.44zm10.065.432v2.145h-1.497c.36-.907.705-1.958 1.022-3.139h3.269v-.98H51.98c.13-.604.26-1.223.389-1.885l-.98-.144c-.143.72-.273 1.396-.417 2.03h-1.483v.98h1.253c-.346 1.28-.706 2.346-1.08 3.182l.23.892h2.318v2.175c-.878.144-1.814.288-2.808.403l.13.994c.922-.116 1.814-.26 2.678-.404v2.981h1.008v-3.182c.634-.13 1.239-.274 1.815-.418v-.95q-.843.194-1.815.389v-1.988h1.599v-.936h-1.599v-2.145zm3.744-3.442v3.01h5.703v-3.01zm4.71 2.218h-3.716V48.77h3.715zm-4.594 2.592v5.774l-1.383.115.13.922a90 90 0 0 0 5.601-.634v1.7h.994v-1.844l1.21-.216v-.892c-.39.057-.792.13-1.21.201v-5.126h1.066v-.922h-7.445v.922zm4.348 0v1.267h-3.37v-1.267zm-3.37 5.673v-1.454h3.37v1.051a122 122 0 0 1-3.37.403m0-2.304v-1.252h3.37v1.252zm12.04-3.873v.907h3.282v1.138h-3.11v6.177h.85v-5.342h2.26v5.256h.893V55.12h2.333v4.06q0 .476-.389.476l-1.065-.03.216.807h1.166q.95 0 .95-.993v-5.155h-3.21v-1.138h3.369v-.907zm1.828 3.384-.504.475c.533.432.95.85 1.267 1.224l.49-.49a10 10 0 0 0-1.253-1.21m3.125 1.77-.49.476c.519.432.936.835 1.239 1.224l.49-.49a10 10 0 0 0-1.24-1.21m-3.14.16-.503.475c.518.432.936.85 1.224 1.252l.49-.49a9 9 0 0 0-1.21-1.238m3.197-1.916-.49.475c.534.404.966.792 1.282 1.152l.49-.49c-.346-.388-.778-.762-1.282-1.137m-9.144-8.035-.676.634q1.36 1.058 2.16 1.987l.69-.691a16.5 16.5 0 0 0-2.174-1.93m-.504 3.5-.69.647c.92.706 1.655 1.368 2.188 2.002l.706-.706a17 17 0 0 0-2.204-1.944m1.11 3.858a45 45 0 0 1-1.671 5.012l.95.417a60 60 0 0 0 1.613-5.069zm9.72-6.134v1.411h-6.553v-1.411zm-6.553 2.29h7.517v-3.183h-8.467v5.371c-.015 2.708-.504 4.925-1.455 6.639l.764.705q1.62-3.066 1.641-7.344zm10.469-3.514-.72.677c1.051.734 1.872 1.425 2.477 2.059l.705-.706q-.993-1.014-2.462-2.03m-.216 3.398-.706.677q1.512 1.124 2.376 2.117l.706-.72q-.951-1.036-2.376-2.074m1.7 3.96a40 40 0 0 1-2.391 5.055l.979.417a43 43 0 0 0 2.333-5.112zm3.83-2.059v4.839h4.003v-4.839zm3.081 3.946h-2.145V53.81h2.145zm1.728 3.657c.95 0 1.426-.46 1.426-1.353v-11.19h-8.54V60.55h1.009V48.929h6.523v10.008c0 .389-.26.59-.778.59l-1.713-.043.259 1.022zm-5.184-9.993v.936h4.795v-.936zm11.607-1.642.13 3.586h.935l.144-3.586zm-2.636 0 .144 3.586h.936l.13-3.586z"/><rect width="143.321" height="25.169" x="11.984" y="82.337" fill="url(#i)" fill-opacity=".5" rx="0"/><circle cx="12.584" cy="94.921" r="12.584" fill="#A4A100"/><path fill="#FFF" d="m8.087 90.816 3.441 4.968-3.672 5.313h2.06l2.65-3.974 2.649 3.974h2.059l-3.7-5.313 3.47-4.968h-2.06l-2.419 3.629-2.42-3.63zM31.993 90.04l.13 3.585h.935l.144-3.585zm-2.635 0 .144 3.585h.936l.13-3.585zm6.062 1.296a19 19 0 0 1-.518 3.93l.85.246a21 21 0 0 0 .489-4.119zm3.614-.303-.763.245c.331.806.605 1.656.821 2.534l.72-.187q-.195.432-.432.907l.763.692c.504-.893.893-1.872 1.152-2.924h2.247v3.485h-3.298v1.023h3.298v3.513h-4.119v1.008h8.698v-1.008h-3.514v-3.513h2.923v-1.023h-2.923V92.3h3.14v-.993h-3.14v-2.693h-1.065v2.693h-2.06a16 16 0 0 0 .173-1.728l-.936-.13a12.7 12.7 0 0 1-.85 4.018c-.244-.922-.518-1.728-.835-2.434M36.975 88.6v13.104h1.051V88.6zm14.357 8.222h3.326v1.34h-3.326zm3.326-.864h-3.326v-1.397h3.326zm-3.326 3.082h3.326v1.166c0 .36-.187.547-.547.547l-1.08-.043.26.98h1.151c.807 0 1.21-.433 1.21-1.268v-6.768h-5.314v8.136h.994zm9.374-4.19c.504 0 .879-.116 1.11-.332.258-.26.446-.98.546-2.16l-.964-.302c-.058.892-.144 1.425-.288 1.627-.116.144-.317.23-.605.23h-1.887c-.388 0-.576-.23-.576-.69v-1.8c1.584-.231 2.981-.505 4.19-.807l-.33-.908c-.994.26-2.276.519-3.86.764V88.6H57.02v4.838c0 .936.432 1.411 1.31 1.411zm-2.664 3.254c1.498-.13 2.895-.375 4.19-.75l-.33-.92c-1.138.345-2.42.59-3.86.734v-1.772H57.02v4.997c0 .763.418 1.152 1.282 1.152h2.448c.518 0 .892-.115 1.123-.33.273-.26.46-.966.547-2.132l-.936-.288c-.058.878-.158 1.411-.317 1.613-.115.13-.331.201-.619.201H58.59c-.375 0-.548-.158-.548-.446zm-3.427-8.525-.806.504c.345.49.677.98.979 1.44a57 57 0 0 1-3.845.36c.807-.735 1.527-1.743 2.189-3.024l-.98-.303a12.5 12.5 0 0 1-2.217 3.11c-.13.116-.288.217-.475.274l.288.864c2.131-.115 3.974-.288 5.515-.532q.28.474.519.95l.85-.605c-.476-.864-1.153-1.872-2.017-3.038m19.93 12.096c1.094 0 1.656-.547 1.656-1.613v-10.67h-6.639V90.4h5.588v9.388q0 .95-.821.95l-1.584-.028.259.965zM64.508 90.947v10.829h1.051v-10.83zm3.226 2.073v5.415h5.184V93.02zm4.132 4.421h-3.081v-3.427h3.081zm-5.212-9-.965.418a15.5 15.5 0 0 1 1.829 2.664l.921-.475a16 16 0 0 0-1.785-2.607m21.484 12.11c-2.952 0-4.838-.129-5.673-.388a2 2 0 0 0-.216-.087v-1.57h1.973v-.92h-1.973v-1.527h2.333v-.95h-6.106v.95h2.851v3.5c-.446-.332-.864-.793-1.238-1.383.072-.432.115-.879.144-1.368l-.922-.116c-.072 1.642-.49 3.11-1.267 4.421l.749.663q.69-1.167 1.08-2.55c.59.836 1.267 1.426 2.03 1.743.864.375 3.01.562 6.466.562h2.837l.172-1.037c-.72.029-1.8.058-3.24.058m-9.014-11.433v5.026h4.91v-5.026zm3.902 4.162h-2.894v-1.224h2.894zm-2.894-2.03v-1.268h2.894v1.267zm4.651-2.118v.95h2.693c-.043.39-.1.778-.187 1.153h-2.06v5.817h.922v-4.924h3.485v4.924h.965v-5.817h-2.376c.086-.375.144-.749.187-1.152h2.592v-.95zm4.147 7.964-.69.662c.935.749 1.67 1.469 2.202 2.131l.735-.72q-.907-1.036-2.247-2.073m-1.512-4.292v2.03c-.028 1.08-.244 1.96-.619 2.636-.417.648-1.137 1.166-2.174 1.54l.561.894c1.095-.432 1.901-1.023 2.39-1.786.49-.82.764-1.915.793-3.283v-2.03zm8.324-2.764.13 3.585h.935l.144-3.585zm-2.636 0 .144 3.585h.936l.13-3.585z"/><rect width="141.964" height="25.169" x="13.341" y="123.506" fill="url(#j)" fill-opacity=".5" rx="0"/><path fill="#FFF" d="m33.35 131.208.13 3.586h.935l.144-3.586zm-2.636 0 .144 3.586h.936l.13-3.586zm18.173-.072H43.53a14 14 0 0 0-.648-1.526l-1.152.201c.245.404.461.836.663 1.325H36.92v3.082h1.065v-2.074h9.835v2.088h1.066zm-12.312 4.003v1.008h3.47c-.46.792-.95 1.599-1.468 2.405 1.339.432 2.678.936 4.032 1.512-1.527 1.167-3.528 1.757-5.976 1.771l.604.965c2.679-.086 4.81-.835 6.423-2.275a50 50 0 0 1 4.58 2.39l.69-.907a45 45 0 0 0-4.521-2.246c.763-.893 1.44-2.088 2.03-3.615h2.837v-1.008H41.83q.519-.95 1.08-2.03l-1.066-.317a75 75 0 0 1-1.238 2.347zm4.694 1.008h4.032c-.49 1.268-1.123 2.333-1.9 3.183a31 31 0 0 0-3.341-1.195q.56-.864 1.21-1.988m15.668-6.379c-1.67 1.815-3.773 3.341-6.308 4.565l.504.907q3.824-1.922 6.178-4.536c1.7 1.829 3.73 3.312 6.12 4.464l.518-.921a20.5 20.5 0 0 1-6.264-4.479zm-3.644 4.55v.994h3.485v2.506h-4.176v.993h4.176v2.664h-5.457v1.023h11.995v-1.023h-5.472v-2.664h4.161v-.993h-4.161v-2.506h3.485v-.993zm23.962 3.889v-4.882h-2.26c.431-.518.878-1.123 1.31-1.843v-.763h-3.341a9 9 0 0 0 .403-.922l-1.037-.13c-.49 1.325-1.44 2.434-2.85 3.356l.604.792c.173-.116.36-.26.561-.404v.836h5.616v1.094H70.43v.893h5.832v1.08h-6.148v.893zm-4.853-6.581h2.75c-.417.648-.835 1.21-1.267 1.699h-3.124a8.7 8.7 0 0 0 1.641-1.7m-6.681-1.31v12.628h1.008v-11.65h2.088a41 41 0 0 1-1.426 4.076c.763 1.224 1.152 2.333 1.152 3.326 0 .303-.072.519-.187.648-.115.13-.36.202-.72.23-.159 0-.346-.028-.562-.057l.331 1.051q1.254-.021 1.772-.518c.23-.288.36-.735.36-1.354-.058-1.037-.432-2.203-1.124-3.485a64 64 0 0 0 1.426-4.075v-.82zm11.332 8.51-.892.288c.504.864.964 1.872 1.396 2.995l.864-.389a22 22 0 0 0-1.368-2.894m-6.81.273c-.231 1.023-.577 1.959-1.066 2.808l.864.548c.475-.893.85-1.944 1.108-3.168zm4.766 3.716c.432 0 .763-.101.964-.274.23-.23.404-.82.49-1.8l-.893-.302c-.057.705-.13 1.137-.245 1.281-.1.101-.259.159-.49.159h-1.554q-.519 0-.519-.605v-2.347h-.965v2.563c0 .878.39 1.325 1.181 1.325zm-.936-4.22-.735.476c.519.619.936 1.18 1.239 1.699l.777-.547c-.302-.461-.734-1.008-1.281-1.628m7.084-8.035v2.794h4.421v.965H80.74v3.052h4.838v.836h1.066v-.836h4.853v-3.052h-4.853v-.965h4.45v-2.794h-4.45v-.907h-1.066v.907zm8.943 1.973h-3.456v-1.138H90.1zm-4.522 0h-3.427v-1.138h3.427zm4.91 3.946h-3.844v-1.296h3.845zm-4.91 0h-3.83v-1.296h3.83zm-4.608 2.246a8.9 8.9 0 0 1-1.296 2.966l.893.562c.605-.922 1.08-2.03 1.426-3.312zm7.143 4.018c.561 0 .964-.101 1.224-.303q.453-.367.604-1.987l-.979-.317c-.057.792-.187 1.267-.36 1.426-.144.13-.36.201-.677.201h-3.11c-.46 0-.677-.244-.677-.705v-2.39h-1.065v2.606q0 1.469 1.425 1.469zm-1.93-4.19-.878.532a15 15 0 0 1 1.526 1.886l.864-.604q-.519-.779-1.512-1.815m4.334-.03-.878.548q1.339 1.641 2.117 3.024l.864-.59c-.49-.865-1.18-1.858-2.103-2.982m6.581-7.315.13 3.586h.936l.144-3.586zm-2.635 0 .144 3.586h.936l.13-3.586z"/><circle cx="12.584" cy="136.09" r="12.584" fill="#478CD3"/><path fill="#FFF" d="m5.456 131.984 2.952 10.282h1.8l2.016-7.733h.058l2.001 7.733h1.786l2.966-10.282h-1.9l-1.93 7.82h-.058l-2.03-7.82h-1.742l-2.03 7.82h-.058l-1.93-7.82z"/></svg>