<svg xmlns="http://www.w3.org/2000/svg" xmlns:xlink="http://www.w3.org/1999/xlink" fill="none" version="1.1" width="221.1585235595703" height="38" viewBox="0 0 221.1585235595703 38"><defs><clipPath id="master_svg0_93_33529"><rect x="0" y="0" width="221.1585235595703" height="38" rx="0"/></clipPath><linearGradient x1="0.8318989276885986" y1="0.23354509472846985" x2="0.01724224165081978" y2="0.23354509472846985" id="master_svg1_93_33353"><stop offset="0%" stop-color="#B0CBF3" stop-opacity="1"/><stop offset="100%" stop-color="#DEEAFA" stop-opacity="1"/></linearGradient><linearGradient x1="1" y1="0.5" x2="0" y2="0.5" id="master_svg2_93_33359"><stop offset="0%" stop-color="#98B8E7" stop-opacity="1"/><stop offset="100%" stop-color="#7495C5" stop-opacity="1"/></linearGradient><linearGradient x1="0.5" y1="0.039383772760629654" x2="0.5" y2="1.020851969718933" id="master_svg3_93_31148"><stop offset="0%" stop-color="#ECA34A" stop-opacity="1"/><stop offset="100%" stop-color="#CA7604" stop-opacity="1"/></linearGradient><linearGradient x1="0.6394273042678833" y1="0.9153091907501221" x2="0.269255667924881" y2="-0.039026133716106415" id="master_svg4_93_33314"><stop offset="0%" stop-color="#EB9918" stop-opacity="1"/><stop offset="100%" stop-color="#FEF5A7" stop-opacity="1"/></linearGradient><linearGradient x1="0.7213248014450073" y1="0.7687666416168213" x2="0.17271788418293" y2="0" id="master_svg5_93_33315"><stop offset="0%" stop-color="#8CB0E4" stop-opacity="1"/><stop offset="100%" stop-color="#DEEAFA" stop-opacity="1"/></linearGradient><linearGradient x1="0.7213248014450073" y1="0.7687666416168213" x2="0.17271788418293" y2="0" id="master_svg6_93_33309"><stop offset="0%" stop-color="#B0CBF3" stop-opacity="1"/><stop offset="100%" stop-color="#DEEAFA" stop-opacity="1"/></linearGradient><mask id="master_svg7_93_33536" style="mask-type:alpha" maskUnits="userSpaceOnUse"><g><path d="M12.842571875,3.973813328125L4.448610875,11.601826328125C4.052188875,11.962076328125,3.826171875,12.472866328125,3.826171875,13.008526328125L3.826171875,15.677136328125C3.826171875,16.170536328125,4.018025875,16.644636328125,4.361178875,16.999136328124997L21.317071875,34.516636328125C22.063971875,35.288336328125,23.301571875,35.288336328125,24.048571875,34.516636328125L41.004371875,16.999136328124997C41.347571875,16.644636328125,41.539471875,16.170536328125,41.539471875,15.677136328125L41.539471875,13.008526328125C41.539471875,12.472866328125,41.313371875,11.962076328125,40.916971875,11.601826328125L32.523071875,3.973813328125C32.173171875,3.655888328125,31.717371875,3.479736328125,31.244671875,3.479736328125L14.120871875,3.479736328125C13.648181875,3.479736328125,13.192421875,3.655888328125,12.842571875,3.973813328125" fill-rule="evenodd" fill="#FFFFFF" fill-opacity="1"/></g></mask><filter id="master_svg8_93_33537" filterUnits="objectBoundingBox" color-interpolation-filters="sRGB" x="0" y="0" width="18.82659912109375" height="15.38216495513916"><feFlood flood-opacity="0" result="BackgroundImageFix"/><feBlend mode="normal" in="SourceGraphic" in2="BackgroundImageFix" result="shape"/><feColorMatrix in="SourceAlpha" type="matrix" result="hardAlpha" values="0 0 0 0 0 0 0 0 0 0 0 0 0 0 0 0 0 0 127 0"/><feOffset dy="0" dx="0"/><feGaussianBlur stdDeviation="0.9503884315490723"/><feComposite in2="hardAlpha" operator="arithmetic" k2="-1" k3="1"/><feColorMatrix type="matrix" values="0 0 0 0 0.2078431397676468 0 0 0 0 0.2823529541492462 0 0 0 0 0.4431372582912445 0 0 0 1 0"/><feBlend mode="normal" in2="shape" result="effect1_innerShadow"/></filter><linearGradient x1="0.5948174595832825" y1="0" x2="0.06967850029468536" y2="0.8411635160446167" id="master_svg9_93_31164"><stop offset="0%" stop-color="#FFFFFF" stop-opacity="1"/><stop offset="100%" stop-color="#FFFFFF" stop-opacity="0.47479718923568726"/></linearGradient></defs><g clip-path="url(#master_svg0_93_33529)"><g><g><path d="M24.871161328124998,8.4444580078125L216.134861328125,8.4444580078125C217.343861328125,8.4444580078125,218.322861328125,9.4241920078125,218.322861328125,10.6327580078125L218.322861328125,35.8117580078125C218.322861328125,37.0202580078125,217.343861328125,38.0000580078125,216.134861328125,38.0000580078125L24.871151328125,38.0000580078125C23.662595328125,38.0000580078125,22.682861328125,37.0202580078125,22.682861328125,35.8117580078125L22.682861328125,10.6327580078125C22.682861328125,9.4241920078125,23.662595328125,8.4444580078125,24.871161328124998,8.4444580078125" fill-rule="evenodd" fill="url(#master_svg1_93_33353)" fill-opacity="1"/><path d="M24.871161328124998,8.4444580078125L216.134861328125,8.4444580078125C217.343861328125,8.4444580078125,218.322861328125,9.4241920078125,218.322861328125,10.6327580078125L218.322861328125,35.8117580078125C218.322861328125,37.0202580078125,217.343861328125,38.0000580078125,216.134861328125,38.0000580078125L24.871151328125,38.0000580078125C23.662595328125,38.0000580078125,22.682861328125,37.0202580078125,22.682861328125,35.8117580078125L22.682861328125,10.6327580078125C22.682861328125,9.4241920078125,23.662595328125,8.4444580078125,24.871161328124998,8.4444580078125ZM24.871161328124998,8.8821180078125Q24.146021328125,8.8821180078125,23.633271328125,9.3948680078125Q23.120521328125,9.9076180078125,23.120521328125,10.6327580078125L23.120520328125,35.8117580078125Q23.120520328125,36.5368580078125,23.633270328125,37.0495580078125Q24.146021328125,37.5623580078125,24.871151328125,37.5623580078125L216.134861328125,37.5623580078125Q216.859861328125,37.5623580078125,217.372861328125,37.0495580078125Q217.885861328125,36.5368580078125,217.885861328125,35.8117580078125L217.885861328125,10.6327580078125Q217.885861328125,9.9076280078125,217.372861328125,9.3948670078125Q216.859861328125,8.8821180078125,216.134861328125,8.8821180078125L24.871161328124998,8.8821180078125Z" fill-rule="evenodd" fill="url(#master_svg2_93_33359)" fill-opacity="1"/></g><g><g><path d="M32.714771875,3.7628083281249998Q32.089571875000004,3.194620328125,31.244671875,3.194620328125L14.120871875,3.194619328125Q13.276071875,3.194620328125,12.650821875,3.7628083281249998L4.256859875,11.390816328125Q3.541055875,12.041306328125,3.541055875,13.008526328125L3.541054875,15.677136328125Q3.541054875,16.561736328125,4.156313875,17.197436328125L21.112171875,34.714936328125Q21.756471875,35.380536328125004,22.682771875,35.380536328125004Q23.609171875,35.380536328125004,24.253471875,34.714936328125L41.209271875,17.197436328125Q41.824571875,16.561736328125,41.824571875,15.677136328125L41.824571875,13.008526328125Q41.824571875,12.041306328125,41.108771875,11.390816328125L32.714771875,3.7628083281249998ZM14.120871875,3.764853328125L31.244671875,3.764853328125Q31.869171875,3.764852328125,32.331271875,4.184818328125L40.725271875,11.812826328125Q41.254271875,12.293626328125,41.254271875,13.008526328125L41.254271875,15.677136328125Q41.254271875,16.331036328125002,40.799571875,16.800836328125L23.843671875,34.318336328125Q23.367471875,34.810336328125004,22.682771875,34.810336328125004Q21.998071875,34.810336328125004,21.521871875,34.318336328125L4.566044875,16.800836328125Q4.111288875,16.331036328125002,4.111288875,15.677136328125L4.111288875,13.008526328125Q4.111287875,12.293626328125,4.640361875,11.812826328125L13.034321875,4.184818328125Q13.496461875,3.764852328125,14.120871875,3.764853328125Z" fill-rule="evenodd" fill="url(#master_svg3_93_31148)" fill-opacity="1"/></g><g><g><path d="M11.655224609375,1.9014866679687499L2.040163609375,10.63920966796875C1.643741609375,10.99945966796875,1.417724609375,11.51020966796875,1.417724609375,12.04590966796875L1.417724609375,15.26110966796875C1.417724609375,15.75450966796875,1.609578609375,16.22850966796875,1.952732609375,16.58310966796875L21.317224609375,36.58900966796875C22.064224609375,37.36070966796875,23.301724609375,37.36070966796875,24.048724609375,36.58900966796875L43.413224609375,16.58310966796875C43.756324609375,16.22850966796875,43.948224609375,15.75450966796875,43.948224609375,15.26110966796875L43.948224609375,12.04590966796875C43.948224609375,11.51020966796875,43.722224609375,10.99945966796875,43.325724609375,10.63920966796875L33.710624609375,1.9014866679687499C33.360824609375,1.58356166796875,32.905024609375005,1.40740966796875,32.432324609375,1.40740966796875L12.933624609375,1.40740966796875C12.460924609375,1.40740966796875,12.005124609375,1.58356166796875,11.655224609375,1.9014866679687499" fill-rule="evenodd" fill="url(#master_svg4_93_33314)" fill-opacity="1"/><path d="M11.655224609375,1.9014866679687499L2.040163609375,10.63920966796875C1.643741609375,10.99945966796875,1.417724609375,11.51020966796875,1.417724609375,12.04590966796875L1.417724609375,15.26110966796875C1.417724609375,15.75450966796875,1.609578609375,16.22850966796875,1.952732609375,16.58310966796875L21.317224609375,36.58900966796875C22.064224609375,37.36070966796875,23.301724609375,37.36070966796875,24.048724609375,36.58900966796875L43.413224609375,16.58310966796875C43.756324609375,16.22850966796875,43.948224609375,15.75450966796875,43.948224609375,15.26110966796875L43.948224609375,12.04590966796875C43.948224609375,11.51020966796875,43.722224609375,10.99945966796875,43.325724609375,10.63920966796875L33.710624609375,1.9014866679687499C33.360824609375,1.58356166796875,32.905024609375005,1.40740966796875,32.432324609375,1.40740966796875L12.933624609375,1.40740966796875C12.460924609375,1.40740966796875,12.005124609375,1.58356166796875,11.655224609375,1.9014866679687499" fill-rule="evenodd" fill="url(#master_svg5_93_33315)" fill-opacity="1"/></g><g mask="url(#master_svg7_93_33536)"><g><path d="M12.842571875,3.973813328125L4.448610875,11.601826328125C4.052188875,11.962076328125,3.826171875,12.472866328125,3.826171875,13.008526328125L3.826171875,15.677136328125C3.826171875,16.170536328125,4.018025875,16.644636328125,4.361178875,16.999136328124997L21.317071875,34.516636328125C22.063971875,35.288336328125,23.301571875,35.288336328125,24.048571875,34.516636328125L41.004371875,16.999136328124997C41.347571875,16.644636328125,41.539471875,16.170536328125,41.539471875,15.677136328125L41.539471875,13.008526328125C41.539471875,12.472866328125,41.313371875,11.962076328125,40.916971875,11.601826328125L32.523071875,3.973813328125C32.173171875,3.655888328125,31.717371875,3.479736328125,31.244671875,3.479736328125L14.120871875,3.479736328125C13.648181875,3.479736328125,13.192421875,3.655888328125,12.842571875,3.973813328125" fill-rule="evenodd" fill="url(#master_svg6_93_33309)" fill-opacity="1"/></g><g filter="url(#master_svg8_93_33537)"><path d="M13.26904296875,11.0306396484375L13.26904296875,13.349869648437501L14.39347296875,13.349869648437501L22.36669296875,26.412839648437497L23.097822968750002,26.412839648437497L31.04234296875,13.349869648437501L32.09564296875,13.349869648437501L32.09564296875,11.0306396484375L28.11364296875,11.0306396484375L22.68234296875,19.7167196484375L17.37328296875,11.0306396484375L13.26904296875,11.0306396484375Z" fill-rule="evenodd" fill="#354871" fill-opacity="1"/></g><g style="opacity:0.31872761249542236;"><path d="M41.53890234375,5.721897373046875Q21.38400234375,6.655157373046875,7.53208234375,23.033207373046874Q5.38017234375,26.234607373046874,0.21240234375000078,14.393707373046874L15.12370234375,-0.378692626953125Q27.12820234375,0.26021237304687495,32.09560234375,1.407427373046875Q37.06290234375,2.554637373046875,41.53890234375,5.721897373046875Z" fill-rule="evenodd" fill="url(#master_svg9_93_31164)" fill-opacity="1"/></g></g></g></g></g><g><path d="M61.9720703125,14.091837158203125L61.9720703125,16.305837158203126L55.1140703125,16.305837158203126L55.1140703125,17.961837158203124L61.9720703125,17.961837158203124L61.9720703125,20.319837158203125L56.4820703125,20.319837158203125L56.4820703125,21.921837158203125L57.7420703125,21.921837158203125C58.0120703125,22.821837158203124,58.4620703125,23.667837158203128,59.0920703125,24.459837158203126C59.7580703125,25.323837158203126,60.5500703125,26.115837158203124,61.4500703125,26.817837158203126C59.596070312500004,27.861837158203127,57.346070312500004,28.689837158203126,54.7180703125,29.283837158203124L55.7080703125,30.813837158203125C58.5160703125,30.057837158203125,60.9280703125,29.067837158203126,62.9260703125,27.825837158203125C63.7720703125,28.329837158203127,64.6900703125,28.797837158203127,65.68007031249999,29.229837158203125C67.0840703125,29.823837158203126,68.5600703125,30.327837158203124,70.1260703125,30.741837158203126L71.1160703125,29.229837158203125C69.6760703125,28.905837158203123,68.32607031250001,28.491837158203126,67.0300703125,28.023837158203126C66.07607031250001,27.663837158203126,65.1940703125,27.249837158203125,64.3840703125,26.817837158203126C66.1840703125,25.431837158203123,67.57007031250001,23.775837158203124,68.5240703125,21.831837158203125L68.5240703125,20.319837158203125L63.736070312500004,20.319837158203125L63.736070312500004,17.961837158203124L70.6300703125,17.961837158203124L70.6300703125,16.305837158203126L63.736070312500004,16.305837158203126L63.736070312500004,14.091837158203125L61.9720703125,14.091837158203125ZM62.8900703125,25.917837158203124C62.1340703125,25.395837158203125,61.4500703125,24.801837158203124,60.8380703125,24.153837158203125C60.2260703125,23.505837158203125,59.7580703125,22.767837158203125,59.4340703125,21.921837158203125L66.5800703125,21.921837158203125C65.7160703125,23.451837158203126,64.4740703125,24.783837158203127,62.8900703125,25.917837158203124ZM82.9960703125,14.199837158203124L82.9960703125,15.873837158203125L79.6120703125,15.873837158203125L79.6120703125,17.439837158203126L82.9960703125,17.439837158203126L82.9960703125,19.149837158203127L78.9640703125,19.149837158203127L78.9640703125,20.769837158203124L88.90007031249999,20.769837158203124L88.90007031249999,19.149837158203127L84.6700703125,19.149837158203127L84.6700703125,17.439837158203126L88.2160703125,17.439837158203126L88.2160703125,15.873837158203125L84.6700703125,15.873837158203125L84.6700703125,14.199837158203124L82.9960703125,14.199837158203124ZM78.6760703125,22.677837158203126L78.6760703125,24.279837158203126L85.0840703125,24.279837158203126L85.0840703125,28.347837158203124C85.0840703125,28.779837158203126,84.85007031250001,29.013837158203124,84.40007031249999,29.013837158203124C83.7160703125,29.013837158203124,83.0140703125,28.977837158203126,82.2580703125,28.923837158203124L82.6360703125,30.579837158203127L85.0120703125,30.579837158203127C86.2000703125,30.579837158203127,86.7940703125,29.967837158203125,86.7940703125,28.779837158203126L86.7940703125,24.279837158203126L88.91807031249999,24.279837158203126L88.91807031249999,22.677837158203126L86.7940703125,22.677837158203126L86.7940703125,21.435837158203125L85.0840703125,21.435837158203125L85.0840703125,22.677837158203126L78.6760703125,22.677837158203126ZM74.8420703125,30.543837158203125C75.9940703125,30.543837158203125,76.58807031250001,29.931837158203123,76.58807031250001,28.743837158203124L76.58807031250001,23.883837158203125C77.1640703125,23.631837158203126,77.7580703125,23.361837158203123,78.3340703125,23.073837158203126L78.3340703125,21.327837158203124C77.7580703125,21.615837158203124,77.1820703125,21.903837158203125,76.58807031250001,22.173837158203124L76.58807031250001,19.041837158203123L78.3160703125,19.041837158203123L78.3160703125,17.403837158203125L76.58807031250001,17.403837158203125L76.58807031250001,14.325837158203125L74.9140703125,14.325837158203125L74.9140703125,17.403837158203125L72.8620703125,17.403837158203125L72.8620703125,19.041837158203123L74.9140703125,19.041837158203123L74.9140703125,22.803837158203123C74.1400703125,23.055837158203126,73.3660703125,23.271837158203127,72.5740703125,23.451837158203126L73.0060703125,25.179837158203124C73.6540703125,24.981837158203128,74.2840703125,24.765837158203126,74.9140703125,24.549837158203125L74.9140703125,28.311837158203126C74.9140703125,28.779837158203126,74.68007031249999,29.013837158203124,74.2480703125,29.013837158203124C73.8160703125,29.013837158203124,73.3660703125,28.977837158203126,72.8980703125,28.905837158203123L73.2580703125,30.543837158203125L74.8420703125,30.543837158203125ZM80.8720703125,24.855837158203123L79.4860703125,25.701837158203126C80.31407031250001,26.763837158203124,80.9800703125,27.735837158203125,81.4660703125,28.599837158203126L82.8160703125,27.663837158203126C82.3660703125,26.853837158203124,81.7180703125,25.917837158203124,80.8720703125,24.855837158203123ZM98.2420703125,14.109837158203124C96.1540703125,16.449837158203124,93.5260703125,18.393837158203127,90.37607031249999,19.941837158203125L91.2940703125,21.597837158203127C94.4260703125,19.923837158203124,96.9640703125,17.943837158203124,98.8720703125,15.639837158203125C100.9420703125,18.087837158203126,103.4440703125,20.067837158203126,106.3780703125,21.579837158203127L107.31407031250001,19.923837158203124C104.36207031250001,18.519837158203124,101.7700703125,16.575837158203125,99.5020703125,14.109837158203124L98.2420703125,14.109837158203124ZM98.5300703125,18.951837158203126L98.5300703125,28.401837158203126L95.5060703125,28.401837158203126L95.5060703125,21.543837158203125L93.81407031250001,21.543837158203125L93.81407031250001,28.401837158203126L91.2220703125,28.401837158203126L91.2220703125,30.057837158203125L106.3060703125,30.057837158203125L106.3060703125,28.401837158203126L100.2400703125,28.401837158203126L100.2400703125,24.441837158203125L105.0100703125,24.441837158203125L105.0100703125,22.803837158203123L100.2400703125,22.803837158203123L100.2400703125,18.951837158203126L98.5300703125,18.951837158203126ZM114.06407031250001,14.235837158203125L114.06407031250001,28.383837158203125L108.84407031250001,28.383837158203125L108.84407031250001,30.057837158203125L124.9000703125,30.057837158203125L124.9000703125,28.383837158203125L119.6440703125,28.383837158203125L119.6440703125,14.235837158203125L117.9340703125,14.235837158203125L117.9340703125,28.383837158203125L115.7740703125,28.383837158203125L115.7740703125,14.235837158203125L114.06407031250001,14.235837158203125ZM123.0100703125,17.583837158203124C122.2540703125,20.823837158203126,121.3540703125,23.505837158203125,120.3460703125,25.593837158203126L121.8760703125,26.133837158203125C122.9560703125,23.811837158203126,123.8380703125,21.111837158203123,124.5220703125,18.015837158203126L123.0100703125,17.583837158203124ZM110.66207031249999,17.547837158203123L109.2040703125,18.015837158203126C110.1400703125,20.643837158203127,110.9320703125,23.379837158203124,111.5440703125,26.205837158203124L113.1100703125,25.809837158203123C112.3900703125,22.713837158203127,111.5800703125,19.959837158203126,110.66207031249999,17.547837158203123ZM140.5240703125,21.381837158203126L139.0120703125,21.903837158203125C139.60607031249998,23.613837158203125,140.1280703125,25.377837158203125,140.5960703125,27.213837158203123C139.17407031250002,27.501837158203124,137.5000703125,27.771837158203127,135.5560703125,28.059837158203123L139.2820703125,14.811837158203126L137.5720703125,14.577837158203124L133.8820703125,27.861837158203127C133.8100703125,28.113837158203125,133.5400703125,28.311837158203126,133.0720703125,28.437837158203124L133.3960703125,30.075837158203125C136.11407031250002,29.679837158203124,138.6520703125,29.265837158203126,140.9920703125,28.815837158203124C141.1360703125,29.427837158203126,141.2620703125,30.057837158203125,141.4060703125,30.705837158203124L143.0980703125,30.273837158203126C142.3420703125,26.925837158203127,141.4960703125,23.973837158203125,140.5240703125,21.381837158203126ZM127.0060703125,18.807837158203125L127.0060703125,20.445837158203126L129.94007031249998,20.445837158203126C129.25607031250001,22.263837158203124,128.1400703125,23.883837158203125,126.6280703125,25.323837158203126L127.4020703125,27.267837158203125C128.4820703125,25.989837158203127,129.36407031250002,24.585837158203127,130.06607031250002,23.055837158203126L130.06607031250002,30.651837158203126L131.7760703125,30.651837158203126L131.7760703125,22.623837158203123C132.2440703125,23.271837158203127,132.7840703125,24.135837158203124,133.4320703125,25.179837158203124L134.40407031249998,23.739837158203123C133.5220703125,22.731837158203128,132.6400703125,21.831837158203125,131.7760703125,21.021837158203127L131.7760703125,20.445837158203126L134.5480703125,20.445837158203126L134.5480703125,18.807837158203125L131.7760703125,18.807837158203125L131.7760703125,16.323837158203126C132.7660703125,16.143837158203127,133.70207031249998,15.945837158203126,134.5840703125,15.729837158203125L133.9900703125,14.145837158203125C131.9740703125,14.685837158203125,129.6700703125,15.045837158203124,127.0780703125,15.225837158203124L127.4380703125,16.863837158203125C128.3380703125,16.791837158203126,129.2200703125,16.683837158203126,130.06607031250002,16.575837158203125L130.06607031250002,18.807837158203125L127.0060703125,18.807837158203125ZM150.38807031250002,20.805837158203126L157.1200703125,20.805837158203126L157.1200703125,22.389837158203125L150.38807031250002,22.389837158203125L150.38807031250002,20.805837158203126ZM157.1200703125,23.883837158203125L157.1200703125,25.431837158203123L150.38807031250002,25.431837158203123L150.38807031250002,23.883837158203125L157.1200703125,23.883837158203125ZM157.1200703125,26.907837158203126L157.1200703125,28.545837158203124C157.1200703125,28.941837158203125,156.8860703125,29.139837158203125,156.4540703125,29.139837158203125C155.8600703125,29.139837158203125,155.2300703125,29.103837158203124,154.5640703125,29.049837158203125L154.9780703125,30.597837158203124L156.9940703125,30.597837158203124C158.1460703125,30.561837158203126,158.7220703125,30.057837158203125,158.7220703125,29.067837158203126L158.7220703125,19.329837158203127L150.5140703125,19.329837158203127C150.85607031249998,18.771837158203127,151.1800703125,18.195837158203126,151.4680703125,17.601837158203125L160.90007031250002,17.601837158203125L160.90007031250002,15.945837158203126L152.2060703125,15.945837158203126C152.4220703125,15.387837158203125,152.6200703125,14.793837158203125,152.8000703125,14.181837158203125L151.05407031250002,13.983837158203125C150.8380703125,14.631837158203126,150.6040703125,15.297837158203125,150.3340703125,15.945837158203126L145.0600703125,15.945837158203126L145.0600703125,17.601837158203125L149.50607031250001,17.601837158203125C148.3180703125,19.725837158203127,146.66207031250002,21.633837158203125,144.5740703125,23.289837158203127L145.6720703125,24.729837158203125C146.8240703125,23.793837158203125,147.8500703125,22.785837158203122,148.7860703125,21.687837158203124L148.7860703125,30.669837158203126L150.38807031250002,30.669837158203126L150.38807031250002,26.907837158203126L157.1200703125,26.907837158203126ZM165.5260703125,17.781837158203125L163.9780703125,18.339837158203125C164.35607031249998,19.059837158203123,164.6800703125,19.833837158203124,164.9680703125,20.643837158203127L162.7360703125,20.643837158203127L162.7360703125,22.281837158203125L171.7900703125,22.281837158203125L171.7900703125,20.643837158203127L169.8460703125,20.643837158203127C170.2240703125,19.923837158203124,170.56607031250002,19.113837158203125,170.8900703125,18.213837158203127L169.3240703125,17.673837158203124C169.0000703125,18.717837158203125,168.6040703125,19.707837158203127,168.1720703125,20.643837158203127L166.57007031249998,20.643837158203127C166.2460703125,19.527837158203127,165.90407031249998,18.573837158203126,165.5260703125,17.781837158203125ZM172.4920703125,14.703837158203125L172.4920703125,30.669837158203126L174.1480703125,30.669837158203126L174.1480703125,16.287837158203125L176.8480703125,16.287837158203125C176.2720703125,18.159837158203125,175.6960703125,19.779837158203126,175.10207031250002,21.129837158203124C176.50607031250001,22.803837158203123,177.22607031249998,24.153837158203125,177.2440703125,25.179837158203124C177.22607031249998,25.809837158203123,177.1720703125,26.223837158203125,177.0640703125,26.403837158203125C176.9560703125,26.619837158203126,176.6860703125,26.727837158203126,176.2900703125,26.745837158203123C175.84007031250002,26.745837158203123,175.3000703125,26.709837158203126,174.6520703125,26.637837158203126L175.1920703125,28.437837158203124C176.7040703125,28.437837158203124,177.7300703125,28.185837158203125,178.2340703125,27.717837158203125C178.70207031249998,27.249837158203125,178.9540703125,26.403837158203125,178.9540703125,25.179837158203124C178.9360703125,24.135837158203124,178.2520703125,22.785837158203122,176.9200703125,21.129837158203124C177.5680703125,19.545837158203128,178.1800703125,17.835837158203127,178.73807031249999,15.999837158203125L178.73807031249999,14.703837158203125L172.4920703125,14.703837158203125ZM163.07807031250002,15.711837158203124L163.07807031250002,17.349837158203126L171.6280703125,17.349837158203126L171.6280703125,15.711837158203124L168.0640703125,15.711837158203124C167.9200703125,15.081837158203125,167.7580703125,14.505837158203125,167.5960703125,13.983837158203125L165.8500703125,14.271837158203125C166.03007031250002,14.703837158203125,166.2100703125,15.189837158203126,166.3900703125,15.711837158203124L163.07807031250002,15.711837158203124ZM171.07007031249998,23.595837158203125L163.69007031249998,23.595837158203125L163.69007031249998,30.651837158203126L165.36407031250002,30.651837158203126L165.36407031250002,29.715837158203126L169.3600703125,29.715837158203126L169.3600703125,30.651837158203126L171.07007031249998,30.651837158203126L171.07007031249998,23.595837158203125ZM165.36407031250002,28.095837158203125L165.36407031250002,25.215837158203126L169.3600703125,25.215837158203126L169.3600703125,28.095837158203125L165.36407031250002,28.095837158203125ZM182.3020703125,14.667837158203124L182.3020703125,18.321837158203124L187.4680703125,18.321837158203124L187.4680703125,19.203837158203125L182.8600703125,19.203837158203125L182.8600703125,20.535837158203122L187.4680703125,20.535837158203122L187.4680703125,21.525837158203124L180.8980703125,21.525837158203124L180.8980703125,22.983837158203123L188.3680703125,22.983837158203123C186.2080703125,23.811837158203126,183.6880703125,24.387837158203126,180.8260703125,24.675837158203123L181.7440703125,26.079837158203127C182.5720703125,25.917837158203124,183.4000703125,25.737837158203124,184.1920703125,25.557837158203125L184.1920703125,30.831837158203125L185.8660703125,30.831837158203125L185.8660703125,30.093837158203126L193.1020703125,30.093837158203126L193.1020703125,30.831837158203125L194.7760703125,30.831837158203125L194.7760703125,23.991837158203126L189.0880703125,23.991837158203126C189.8620703125,23.667837158203128,190.6000703125,23.343837158203126,191.2840703125,22.983837158203123L196.9360703125,22.983837158203123L196.9360703125,21.525837158203124L193.6960703125,21.525837158203124C194.5960703125,20.877837158203125,195.4240703125,20.175837158203123,196.1620703125,19.401837158203126L194.7580703125,18.663837158203123C194.1820703125,19.293837158203125,193.5340703125,19.905837158203127,192.8140703125,20.481837158203128L192.8140703125,19.203837158203125L189.1240703125,19.203837158203125L189.1240703125,18.321837158203124L195.3700703125,18.321837158203124L195.3700703125,14.667837158203124L182.3020703125,14.667837158203124ZM191.3200703125,21.525837158203124L189.1240703125,21.525837158203124L189.1240703125,20.535837158203122L192.7420703125,20.535837158203122C192.2920703125,20.877837158203125,191.8240703125,21.201837158203126,191.3200703125,21.525837158203124ZM193.7500703125,17.079837158203127L191.5180703125,17.079837158203127L191.5180703125,15.927837158203126L193.7500703125,15.927837158203126L193.7500703125,17.079837158203127ZM189.9520703125,17.079837158203127L187.7560703125,17.079837158203127L187.7560703125,15.927837158203126L189.9520703125,15.927837158203126L189.9520703125,17.079837158203127ZM186.1900703125,17.079837158203127L183.9220703125,17.079837158203127L183.9220703125,15.927837158203126L186.1900703125,15.927837158203126L186.1900703125,17.079837158203127ZM185.8660703125,27.663837158203126L193.1020703125,27.663837158203126L193.1020703125,28.707837158203127L185.8660703125,28.707837158203127L185.8660703125,27.663837158203126ZM193.1020703125,26.367837158203123L185.8660703125,26.367837158203123L185.8660703125,25.287837158203125L193.1020703125,25.287837158203125L193.1020703125,26.367837158203123Z" fill="#2E3E58" fill-opacity="1"/></g></g></svg>