<svg xmlns="http://www.w3.org/2000/svg" xmlns:xlink="http://www.w3.org/1999/xlink" fill="none" version="1.1" width="179" height="40" viewBox="0 0 179 40"><defs><linearGradient x1="-0.10665636509656906" y1="0.5" x2="1.0454939603805542" y2="0.9259277582168579" id="master_svg0_113_22709"><stop offset="0%" stop-color="#FFFFFF" stop-opacity="1"/><stop offset="100%" stop-color="#0066FE" stop-opacity="1"/></linearGradient></defs><g><rect x="0" y="0" width="179" height="40" rx="20" fill="#FFFFFF" fill-opacity="0.10000000149011612"/><rect x="0.5" y="0.5" width="178" height="39" rx="19.5" stroke="url(#master_svg0_113_22709)" fill-opacity="0" fill="none" stroke-width="1"/><g><path d="M34.176,23.712C33.824,23.712,33.552,23.823999999999998,33.344,24.048C33.104,24.272,32.992,24.56,32.992,24.912C32.992,25.232,33.104,25.52,33.344,25.76C33.552,25.968,33.824,26.08,34.176,26.08C34.496,26.08,34.784,25.968,35.024,25.76C35.248,25.52,35.376,25.232,35.376,24.912C35.376,24.56,35.248,24.272,35.024,24.048C34.784,23.823999999999998,34.496,23.712,34.176,23.712ZM38.528,23.712C38.176,23.712,37.903999999999996,23.823999999999998,37.696,24.048C37.456,24.272,37.344,24.56,37.344,24.912C37.344,25.232,37.456,25.52,37.696,25.76C37.903999999999996,25.968,38.176,26.08,38.528,26.08C38.848,26.08,39.136,25.968,39.376,25.76C39.6,25.52,39.728,25.232,39.728,24.912C39.728,24.56,39.6,24.272,39.376,24.048C39.136,23.823999999999998,38.848,23.712,38.528,23.712ZM42.88,23.712C42.528,23.712,42.256,23.823999999999998,42.048,24.048C41.808,24.272,41.696,24.56,41.696,24.912C41.696,25.232,41.808,25.52,42.048,25.76C42.256,25.968,42.528,26.08,42.88,26.08C43.2,26.08,43.488,25.968,43.728,25.76C43.952,25.52,44.08,25.232,44.08,24.912C44.08,24.56,43.952,24.272,43.728,24.048C43.488,23.823999999999998,43.2,23.712,42.88,23.712ZM57.84,12.864C55.984,14.832,53.664,16.48,50.879999999999995,17.808L51.616,19.136C52.416,18.736,53.184,18.32,53.92,17.872L53.92,19.311999999999998L57.616,19.311999999999998L57.616,21.712L53.104,21.712L53.104,23.183999999999997L57.616,23.183999999999997L57.616,25.712L51.68,25.712L51.68,27.2L65.104,27.2L65.104,25.712L59.152,25.712L59.152,23.183999999999997L63.647999999999996,23.183999999999997L63.647999999999996,21.712L59.152,21.712L59.152,19.311999999999998L62.848,19.311999999999998L62.848,17.872C63.552,18.32,64.288,18.72,65.088,19.104L65.84,17.744C63.232,16.560000000000002,60.928,14.928,58.928,12.864L57.84,12.864ZM53.952,17.856C55.68,16.784,57.168,15.584,58.384,14.24C59.664,15.616,61.152,16.832,62.816,17.856L53.952,17.856ZM69.632,16.16L68.256,16.656C68.592,17.296,68.88,17.984,69.136,18.704L67.152,18.704L67.152,20.16L75.2,20.16L75.2,18.704L73.47200000000001,18.704C73.80799999999999,18.064,74.112,17.344,74.4,16.544L73.00800000000001,16.064C72.72,16.992,72.368,17.872,71.98400000000001,18.704L70.56,18.704C70.27199999999999,17.712,69.968,16.864,69.632,16.16ZM75.824,13.424L75.824,27.616L77.29599999999999,27.616L77.29599999999999,14.832L79.696,14.832C79.184,16.496000000000002,78.672,17.936,78.144,19.136C79.392,20.624000000000002,80.032,21.823999999999998,80.048,22.736C80.032,23.296,79.98400000000001,23.664,79.888,23.823999999999998C79.792,24.016,79.55199999999999,24.112,79.2,24.128C78.8,24.128,78.32,24.096,77.744,24.032L78.22399999999999,25.632C79.568,25.632,80.47999999999999,25.408,80.928,24.992C81.344,24.576,81.568,23.823999999999998,81.568,22.736C81.55199999999999,21.808,80.944,20.608,79.75999999999999,19.136C80.336,17.728,80.88,16.208,81.376,14.576L81.376,13.424L75.824,13.424ZM67.456,14.32L67.456,15.776L75.056,15.776L75.056,14.32L71.888,14.32C71.75999999999999,13.76,71.616,13.248000000000001,71.47200000000001,12.783999999999999L69.92,13.04C70.08,13.424,70.24000000000001,13.856,70.4,14.32L67.456,14.32ZM74.56,21.328L68,21.328L68,27.6L69.488,27.6L69.488,26.768L73.03999999999999,26.768L73.03999999999999,27.6L74.56,27.6L74.56,21.328ZM69.488,25.328L69.488,22.768L73.03999999999999,22.768L73.03999999999999,25.328L69.488,25.328ZM84.096,13.728L84.096,15.2L86.912,15.2L86.912,18.688000000000002C86.912,18.784,86.896,18.912,86.896,19.04L83.26400000000001,19.04L83.26400000000001,20.512L86.78399999999999,20.512C86.656,21.648,86.44800000000001,22.64,86.144,23.472C85.68,24.624,84.8,25.584,83.52000000000001,26.336L84.336,27.616C85.75999999999999,26.896,86.78399999999999,25.856,87.392,24.512C87.872,23.439999999999998,88.176,22.112000000000002,88.336,20.512L92.624,20.512L92.624,27.44L94.144,27.44L94.144,20.512L97.52,20.512L97.52,19.04L94.144,19.04L94.144,15.2L96.704,15.2L96.704,13.728L84.096,13.728ZM88.44800000000001,15.2L92.624,15.2L92.624,19.04L88.432,19.04C88.432,18.928,88.44800000000001,18.816000000000003,88.44800000000001,18.688000000000002L88.44800000000001,15.2ZM100.032,18.016L103.936,18.016C102.848,21.375999999999998,101.2,24.032,98.992,25.984L99.776,27.392C101.52,25.984,102.976,24.096,104.128,21.728C104.64,22.672,105.424,23.567999999999998,106.464,24.4C105.328,25.088,103.952,25.728,102.352,26.304L103.152,27.744C104.992,27.024,106.544,26.224,107.808,25.344C109.12,26.176,110.752,26.96,112.688,27.664L113.472,26.224C111.76,25.648,110.288,25.024,109.072,24.352C110.256,23.296,111.04,22.112000000000002,111.456,20.8L111.456,19.52L105.056,19.52C105.216,19.04,105.392,18.544,105.552,18.016L113.264,18.016L113.264,16.560000000000002L105.936,16.560000000000002C106.208,15.456,106.448,14.272,106.64,13.008L105.088,12.815999999999999C104.896,14.128,104.656,15.376000000000001,104.352,16.560000000000002L101.984,16.560000000000002L102.816,13.6L101.296,13.344000000000001L100.032,18.016ZM105.232,20.896L109.92,20.896C109.472,21.823999999999998,108.736,22.704,107.728,23.52C106.592,22.72,105.76,21.84,105.232,20.896ZM109.328,12.832L108.304,13.84C109.488,14.751999999999999,110.384,15.616,111.024,16.448L112.112,15.36C111.36,14.512,110.432,13.664,109.328,12.832ZM120.464,13.440000000000001L120.464,14.847999999999999L123.424,14.847999999999999L123.12,16.256L120.848,16.256L120.848,17.631999999999998L122.832,17.631999999999998L122.464,19.344L120.08,19.344L120.08,20.752000000000002L129.824,20.752000000000002L129.824,19.344L128.4,19.344L128.4,16.256L124.624,16.256L124.928,14.847999999999999L129.312,14.847999999999999L129.312,13.440000000000001L120.464,13.440000000000001ZM123.968,19.344L124.336,17.631999999999998L126.88,17.631999999999998L126.88,19.344L123.968,19.344ZM128.816,21.968L121.2,21.968L121.2,27.68L122.688,27.68L122.688,27.008L127.328,27.008L127.328,27.68L128.816,27.68L128.816,21.968ZM122.688,25.584L122.688,23.36L127.328,23.36L127.328,25.584L122.688,25.584ZM117.184,13.024000000000001L116.112,14.064C117.232,14.896,118.096,15.664,118.72,16.4L119.76,15.344000000000001C119.056,14.576,118.192,13.792,117.184,13.024000000000001ZM114.992,17.648L114.992,19.104L117.232,19.104L117.232,24.992C117.232,25.312,117.088,25.584,116.832,25.808L117.408,27.168C118.496,26.432,119.536,25.584,120.496,24.64L120.08,23.04C119.584,23.536,119.12,23.984,118.688,24.384L118.688,17.648L114.992,17.648ZM131.168,14.704L131.168,16.128L145.61599999999999,16.128L145.61599999999999,14.704L139.296,14.704L139.376,14.672C139.2,14.096,138.94400000000002,13.456,138.59199999999998,12.751999999999999L136.99200000000002,13.184000000000001C137.28,13.68,137.536,14.192,137.76,14.704L131.168,14.704ZM133.2,17.264L133.2,18.624000000000002L143.584,18.624000000000002L143.584,17.264L133.2,17.264ZM133.2,19.712L133.2,21.072L143.584,21.072L143.584,19.712L133.2,19.712ZM143.904,22.288L132.864,22.288L132.864,27.68L134.352,27.68L134.352,27.04L142.416,27.04L142.416,27.68L143.904,27.68L143.904,22.288ZM134.352,25.6L134.352,23.728L142.416,23.728L142.416,25.6L134.352,25.6Z" fill="#FFFFFF" fill-opacity="1"/></g></g></svg>