<svg xmlns="http://www.w3.org/2000/svg" xmlns:xlink="http://www.w3.org/1999/xlink" fill="none" version="1.1" width="221.1585235595703" height="38" viewBox="0 0 221.1585235595703 38"><defs><clipPath id="master_svg0_93_33513"><rect x="0" y="0" width="221.1585235595703" height="38" rx="0"/></clipPath><linearGradient x1="0.8318989276885986" y1="0.23354509472846985" x2="0.01724224165081978" y2="0.23354509472846985" id="master_svg1_93_33353"><stop offset="0%" stop-color="#B0CBF3" stop-opacity="1"/><stop offset="100%" stop-color="#DEEAFA" stop-opacity="1"/></linearGradient><linearGradient x1="1" y1="0.5" x2="0" y2="0.5" id="master_svg2_93_33359"><stop offset="0%" stop-color="#98B8E7" stop-opacity="1"/><stop offset="100%" stop-color="#7495C5" stop-opacity="1"/></linearGradient><linearGradient x1="0.5" y1="0.039383772760629654" x2="0.5" y2="1.020851969718933" id="master_svg3_93_31148"><stop offset="0%" stop-color="#ECA34A" stop-opacity="1"/><stop offset="100%" stop-color="#CA7604" stop-opacity="1"/></linearGradient><linearGradient x1="0.6394273042678833" y1="0.9153091907501221" x2="0.269255667924881" y2="-0.039026133716106415" id="master_svg4_93_33314"><stop offset="0%" stop-color="#EB9918" stop-opacity="1"/><stop offset="100%" stop-color="#FEF5A7" stop-opacity="1"/></linearGradient><linearGradient x1="0.7213248014450073" y1="0.7687666416168213" x2="0.17271788418293" y2="0" id="master_svg5_93_33315"><stop offset="0%" stop-color="#8CB0E4" stop-opacity="1"/><stop offset="100%" stop-color="#DEEAFA" stop-opacity="1"/></linearGradient><linearGradient x1="0.7213248014450073" y1="0.7687666416168213" x2="0.17271788418293" y2="0" id="master_svg6_93_33309"><stop offset="0%" stop-color="#B0CBF3" stop-opacity="1"/><stop offset="100%" stop-color="#DEEAFA" stop-opacity="1"/></linearGradient><mask id="master_svg7_93_33520" style="mask-type:alpha" maskUnits="userSpaceOnUse"><g><path d="M12.842571875,3.973813328125L4.448610875,11.601826328125C4.052188875,11.962076328125,3.826171875,12.472866328125,3.826171875,13.008526328125L3.826171875,15.677136328125C3.826171875,16.170536328125,4.018025875,16.644636328125,4.361178875,16.999136328124997L21.317071875,34.516636328125C22.063971875,35.288336328125,23.301571875,35.288336328125,24.048571875,34.516636328125L41.004371875,16.999136328124997C41.347571875,16.644636328125,41.539471875,16.170536328125,41.539471875,15.677136328125L41.539471875,13.008526328125C41.539471875,12.472866328125,41.313371875,11.962076328125,40.916971875,11.601826328125L32.523071875,3.973813328125C32.173171875,3.655888328125,31.717371875,3.479736328125,31.244671875,3.479736328125L14.120871875,3.479736328125C13.648181875,3.479736328125,13.192421875,3.655888328125,12.842571875,3.973813328125" fill-rule="evenodd" fill="#FFFFFF" fill-opacity="1"/></g></mask><filter id="master_svg8_93_33521" filterUnits="objectBoundingBox" color-interpolation-filters="sRGB" x="0" y="0" width="18.82659912109375" height="15.38216495513916"><feFlood flood-opacity="0" result="BackgroundImageFix"/><feBlend mode="normal" in="SourceGraphic" in2="BackgroundImageFix" result="shape"/><feColorMatrix in="SourceAlpha" type="matrix" result="hardAlpha" values="0 0 0 0 0 0 0 0 0 0 0 0 0 0 0 0 0 0 127 0"/><feOffset dy="0" dx="0"/><feGaussianBlur stdDeviation="0.9503884315490723"/><feComposite in2="hardAlpha" operator="arithmetic" k2="-1" k3="1"/><feColorMatrix type="matrix" values="0 0 0 0 0.2078431397676468 0 0 0 0 0.2823529541492462 0 0 0 0 0.4431372582912445 0 0 0 1 0"/><feBlend mode="normal" in2="shape" result="effect1_innerShadow"/></filter><linearGradient x1="0.5948174595832825" y1="0" x2="0.06967850029468536" y2="0.8411635160446167" id="master_svg9_93_31164"><stop offset="0%" stop-color="#FFFFFF" stop-opacity="1"/><stop offset="100%" stop-color="#FFFFFF" stop-opacity="0.47479718923568726"/></linearGradient></defs><g clip-path="url(#master_svg0_93_33513)"><g><g><path d="M24.871161328124998,8.4444580078125L216.134861328125,8.4444580078125C217.343861328125,8.4444580078125,218.322861328125,9.4241920078125,218.322861328125,10.6327580078125L218.322861328125,35.8117580078125C218.322861328125,37.0202580078125,217.343861328125,38.0000580078125,216.134861328125,38.0000580078125L24.871151328125,38.0000580078125C23.662595328125,38.0000580078125,22.682861328125,37.0202580078125,22.682861328125,35.8117580078125L22.682861328125,10.6327580078125C22.682861328125,9.4241920078125,23.662595328125,8.4444580078125,24.871161328124998,8.4444580078125" fill-rule="evenodd" fill="url(#master_svg1_93_33353)" fill-opacity="1"/><path d="M24.871161328124998,8.4444580078125L216.134861328125,8.4444580078125C217.343861328125,8.4444580078125,218.322861328125,9.4241920078125,218.322861328125,10.6327580078125L218.322861328125,35.8117580078125C218.322861328125,37.0202580078125,217.343861328125,38.0000580078125,216.134861328125,38.0000580078125L24.871151328125,38.0000580078125C23.662595328125,38.0000580078125,22.682861328125,37.0202580078125,22.682861328125,35.8117580078125L22.682861328125,10.6327580078125C22.682861328125,9.4241920078125,23.662595328125,8.4444580078125,24.871161328124998,8.4444580078125ZM24.871161328124998,8.8821180078125Q24.146021328125,8.8821180078125,23.633271328125,9.3948680078125Q23.120521328125,9.9076180078125,23.120521328125,10.6327580078125L23.120520328125,35.8117580078125Q23.120520328125,36.5368580078125,23.633270328125,37.0495580078125Q24.146021328125,37.5623580078125,24.871151328125,37.5623580078125L216.134861328125,37.5623580078125Q216.859861328125,37.5623580078125,217.372861328125,37.0495580078125Q217.885861328125,36.5368580078125,217.885861328125,35.8117580078125L217.885861328125,10.6327580078125Q217.885861328125,9.9076280078125,217.372861328125,9.3948670078125Q216.859861328125,8.8821180078125,216.134861328125,8.8821180078125L24.871161328124998,8.8821180078125Z" fill-rule="evenodd" fill="url(#master_svg2_93_33359)" fill-opacity="1"/></g><g><g><path d="M32.714771875,3.7628083281249998Q32.089571875000004,3.194620328125,31.244671875,3.194620328125L14.120871875,3.194619328125Q13.276071875,3.194620328125,12.650821875,3.7628083281249998L4.256859875,11.390816328125Q3.541055875,12.041306328125,3.541055875,13.008526328125L3.541054875,15.677136328125Q3.541054875,16.561736328125,4.156313875,17.197436328125L21.112171875,34.714936328125Q21.756471875,35.380536328125004,22.682771875,35.380536328125004Q23.609171875,35.380536328125004,24.253471875,34.714936328125L41.209271875,17.197436328125Q41.824571875,16.561736328125,41.824571875,15.677136328125L41.824571875,13.008526328125Q41.824571875,12.041306328125,41.108771875,11.390816328125L32.714771875,3.7628083281249998ZM14.120871875,3.764853328125L31.244671875,3.764853328125Q31.869171875,3.764852328125,32.331271875,4.184818328125L40.725271875,11.812826328125Q41.254271875,12.293626328125,41.254271875,13.008526328125L41.254271875,15.677136328125Q41.254271875,16.331036328125002,40.799571875,16.800836328125L23.843671875,34.318336328125Q23.367471875,34.810336328125004,22.682771875,34.810336328125004Q21.998071875,34.810336328125004,21.521871875,34.318336328125L4.566044875,16.800836328125Q4.111288875,16.331036328125002,4.111288875,15.677136328125L4.111288875,13.008526328125Q4.111287875,12.293626328125,4.640361875,11.812826328125L13.034321875,4.184818328125Q13.496461875,3.764852328125,14.120871875,3.764853328125Z" fill-rule="evenodd" fill="url(#master_svg3_93_31148)" fill-opacity="1"/></g><g><g><path d="M11.655224609375,1.9014866679687499L2.040163609375,10.63920966796875C1.643741609375,10.99945966796875,1.417724609375,11.51020966796875,1.417724609375,12.04590966796875L1.417724609375,15.26110966796875C1.417724609375,15.75450966796875,1.609578609375,16.22850966796875,1.952732609375,16.58310966796875L21.317224609375,36.58900966796875C22.064224609375,37.36070966796875,23.301724609375,37.36070966796875,24.048724609375,36.58900966796875L43.413224609375,16.58310966796875C43.756324609375,16.22850966796875,43.948224609375,15.75450966796875,43.948224609375,15.26110966796875L43.948224609375,12.04590966796875C43.948224609375,11.51020966796875,43.722224609375,10.99945966796875,43.325724609375,10.63920966796875L33.710624609375,1.9014866679687499C33.360824609375,1.58356166796875,32.905024609375005,1.40740966796875,32.432324609375,1.40740966796875L12.933624609375,1.40740966796875C12.460924609375,1.40740966796875,12.005124609375,1.58356166796875,11.655224609375,1.9014866679687499" fill-rule="evenodd" fill="url(#master_svg4_93_33314)" fill-opacity="1"/><path d="M11.655224609375,1.9014866679687499L2.040163609375,10.63920966796875C1.643741609375,10.99945966796875,1.417724609375,11.51020966796875,1.417724609375,12.04590966796875L1.417724609375,15.26110966796875C1.417724609375,15.75450966796875,1.609578609375,16.22850966796875,1.952732609375,16.58310966796875L21.317224609375,36.58900966796875C22.064224609375,37.36070966796875,23.301724609375,37.36070966796875,24.048724609375,36.58900966796875L43.413224609375,16.58310966796875C43.756324609375,16.22850966796875,43.948224609375,15.75450966796875,43.948224609375,15.26110966796875L43.948224609375,12.04590966796875C43.948224609375,11.51020966796875,43.722224609375,10.99945966796875,43.325724609375,10.63920966796875L33.710624609375,1.9014866679687499C33.360824609375,1.58356166796875,32.905024609375005,1.40740966796875,32.432324609375,1.40740966796875L12.933624609375,1.40740966796875C12.460924609375,1.40740966796875,12.005124609375,1.58356166796875,11.655224609375,1.9014866679687499" fill-rule="evenodd" fill="url(#master_svg5_93_33315)" fill-opacity="1"/></g><g mask="url(#master_svg7_93_33520)"><g><path d="M12.842571875,3.973813328125L4.448610875,11.601826328125C4.052188875,11.962076328125,3.826171875,12.472866328125,3.826171875,13.008526328125L3.826171875,15.677136328125C3.826171875,16.170536328125,4.018025875,16.644636328125,4.361178875,16.999136328124997L21.317071875,34.516636328125C22.063971875,35.288336328125,23.301571875,35.288336328125,24.048571875,34.516636328125L41.004371875,16.999136328124997C41.347571875,16.644636328125,41.539471875,16.170536328125,41.539471875,15.677136328125L41.539471875,13.008526328125C41.539471875,12.472866328125,41.313371875,11.962076328125,40.916971875,11.601826328125L32.523071875,3.973813328125C32.173171875,3.655888328125,31.717371875,3.479736328125,31.244671875,3.479736328125L14.120871875,3.479736328125C13.648181875,3.479736328125,13.192421875,3.655888328125,12.842571875,3.973813328125" fill-rule="evenodd" fill="url(#master_svg6_93_33309)" fill-opacity="1"/></g><g filter="url(#master_svg8_93_33521)"><path d="M13.26904296875,11.0306396484375L13.26904296875,13.349869648437501L14.39347296875,13.349869648437501L22.36669296875,26.412839648437497L23.097822968750002,26.412839648437497L31.04234296875,13.349869648437501L32.09564296875,13.349869648437501L32.09564296875,11.0306396484375L28.11364296875,11.0306396484375L22.68234296875,19.7167196484375L17.37328296875,11.0306396484375L13.26904296875,11.0306396484375Z" fill-rule="evenodd" fill="#354871" fill-opacity="1"/></g><g style="opacity:0.31872761249542236;"><path d="M41.53890234375,5.721897373046875Q21.38400234375,6.655157373046875,7.53208234375,23.033207373046874Q5.38017234375,26.234607373046874,0.21240234375000078,14.393707373046874L15.12370234375,-0.378692626953125Q27.12820234375,0.26021237304687495,32.09560234375,1.407427373046875Q37.06290234375,2.554637373046875,41.53890234375,5.721897373046875Z" fill-rule="evenodd" fill="url(#master_svg9_93_31164)" fill-opacity="1"/></g></g></g></g></g><g><path d="M61.971826171875,14.091837158203125L61.971826171875,16.305837158203126L55.113826171875,16.305837158203126L55.113826171875,17.961837158203124L61.971826171875,17.961837158203124L61.971826171875,20.319837158203125L56.481826171875,20.319837158203125L56.481826171875,21.921837158203125L57.741826171875,21.921837158203125C58.011826171875,22.821837158203124,58.461826171875,23.667837158203128,59.091826171875,24.459837158203126C59.757826171875,25.323837158203126,60.549826171875,26.115837158203124,61.449826171875,26.817837158203126C59.595826171875004,27.861837158203127,57.345826171875004,28.689837158203126,54.717826171875,29.283837158203124L55.707826171875,30.813837158203125C58.515826171875,30.057837158203125,60.927826171875,29.067837158203126,62.925826171875,27.825837158203125C63.771826171875,28.329837158203127,64.689826171875,28.797837158203127,65.67982617187499,29.229837158203125C67.083826171875,29.823837158203126,68.559826171875,30.327837158203124,70.125826171875,30.741837158203126L71.115826171875,29.229837158203125C69.675826171875,28.905837158203123,68.32582617187501,28.491837158203126,67.029826171875,28.023837158203126C66.07582617187501,27.663837158203126,65.193826171875,27.249837158203125,64.383826171875,26.817837158203126C66.183826171875,25.431837158203123,67.56982617187501,23.775837158203124,68.523826171875,21.831837158203125L68.523826171875,20.319837158203125L63.735826171875004,20.319837158203125L63.735826171875004,17.961837158203124L70.629826171875,17.961837158203124L70.629826171875,16.305837158203126L63.735826171875004,16.305837158203126L63.735826171875004,14.091837158203125L61.971826171875,14.091837158203125ZM62.889826171875,25.917837158203124C62.133826171875,25.395837158203125,61.449826171875,24.801837158203124,60.837826171875,24.153837158203125C60.225826171875,23.505837158203125,59.757826171875,22.767837158203125,59.433826171875,21.921837158203125L66.579826171875,21.921837158203125C65.715826171875,23.451837158203126,64.473826171875,24.783837158203127,62.889826171875,25.917837158203124ZM82.995826171875,14.199837158203124L82.995826171875,15.873837158203125L79.611826171875,15.873837158203125L79.611826171875,17.439837158203126L82.995826171875,17.439837158203126L82.995826171875,19.149837158203127L78.963826171875,19.149837158203127L78.963826171875,20.769837158203124L88.89982617187499,20.769837158203124L88.89982617187499,19.149837158203127L84.669826171875,19.149837158203127L84.669826171875,17.439837158203126L88.215826171875,17.439837158203126L88.215826171875,15.873837158203125L84.669826171875,15.873837158203125L84.669826171875,14.199837158203124L82.995826171875,14.199837158203124ZM78.675826171875,22.677837158203126L78.675826171875,24.279837158203126L85.083826171875,24.279837158203126L85.083826171875,28.347837158203124C85.083826171875,28.779837158203126,84.84982617187501,29.013837158203124,84.39982617187499,29.013837158203124C83.715826171875,29.013837158203124,83.013826171875,28.977837158203126,82.257826171875,28.923837158203124L82.635826171875,30.579837158203127L85.011826171875,30.579837158203127C86.199826171875,30.579837158203127,86.793826171875,29.967837158203125,86.793826171875,28.779837158203126L86.793826171875,24.279837158203126L88.91782617187499,24.279837158203126L88.91782617187499,22.677837158203126L86.793826171875,22.677837158203126L86.793826171875,21.435837158203125L85.083826171875,21.435837158203125L85.083826171875,22.677837158203126L78.675826171875,22.677837158203126ZM74.841826171875,30.543837158203125C75.993826171875,30.543837158203125,76.58782617187501,29.931837158203123,76.58782617187501,28.743837158203124L76.58782617187501,23.883837158203125C77.163826171875,23.631837158203126,77.757826171875,23.361837158203123,78.333826171875,23.073837158203126L78.333826171875,21.327837158203124C77.757826171875,21.615837158203124,77.181826171875,21.903837158203125,76.58782617187501,22.173837158203124L76.58782617187501,19.041837158203123L78.315826171875,19.041837158203123L78.315826171875,17.403837158203125L76.58782617187501,17.403837158203125L76.58782617187501,14.325837158203125L74.913826171875,14.325837158203125L74.913826171875,17.403837158203125L72.861826171875,17.403837158203125L72.861826171875,19.041837158203123L74.913826171875,19.041837158203123L74.913826171875,22.803837158203123C74.139826171875,23.055837158203126,73.365826171875,23.271837158203127,72.573826171875,23.451837158203126L73.005826171875,25.179837158203124C73.653826171875,24.981837158203128,74.283826171875,24.765837158203126,74.913826171875,24.549837158203125L74.913826171875,28.311837158203126C74.913826171875,28.779837158203126,74.67982617187499,29.013837158203124,74.247826171875,29.013837158203124C73.815826171875,29.013837158203124,73.365826171875,28.977837158203126,72.897826171875,28.905837158203123L73.257826171875,30.543837158203125L74.841826171875,30.543837158203125ZM80.871826171875,24.855837158203123L79.485826171875,25.701837158203126C80.31382617187501,26.763837158203124,80.979826171875,27.735837158203125,81.465826171875,28.599837158203126L82.815826171875,27.663837158203126C82.365826171875,26.853837158203124,81.717826171875,25.917837158203124,80.871826171875,24.855837158203123ZM98.007826171875,19.455837158203124L98.007826171875,30.687837158203124L99.735826171875,30.687837158203124L99.735826171875,19.455837158203124L98.007826171875,19.455837158203124ZM98.115826171875,14.091837158203125C96.315826171875,16.719837158203127,93.759826171875,18.861837158203123,90.447826171875,20.517837158203125L91.473826171875,22.065837158203124C94.461826171875,20.571837158203124,96.927826171875,18.447837158203125,98.871826171875,15.693837158203124C100.491826171875,18.213837158203127,102.957826171875,20.337837158203126,106.269826171875,22.047837158203123L107.295826171875,20.481837158203128C103.677826171875,18.645837158203125,101.121826171875,16.503837158203126,99.627826171875,14.091837158203125L98.115826171875,14.091837158203125ZM117.681826171875,14.127837158203125L115.953826171875,14.127837158203125C115.953826171875,14.811837158203126,115.935826171875,15.747837158203126,115.935826171875,16.953837158203125C115.791826171875,22.119837158203126,113.289826171875,26.169837158203126,108.42982617187499,29.121837158203125L109.473826171875,30.651837158203126C113.253826171875,28.203837158203125,115.737826171875,25.107837158203125,116.925826171875,21.363837158203125C118.293826171875,25.215837158203126,120.705826171875,28.311837158203126,124.161826171875,30.615837158203124L125.295826171875,29.121837158203125C121.191826171875,26.601837158203125,118.599826171875,22.947837158203125,117.555826171875,18.159837158203125C117.627826171875,17.043837158203125,117.681826171875,15.711837158203124,117.681826171875,14.127837158203125ZM128.823826171875,19.851837158203125L128.823826171875,24.693837158203124L133.107826171875,24.693837158203124C133.035826171875,24.837837158203126,132.945826171875,24.999837158203125,132.873826171875,25.179837158203124C131.901826171875,26.853837158203124,129.885826171875,28.275837158203124,126.789826171875,29.427837158203126L127.869826171875,30.759837158203126C131.397826171875,29.391837158203124,133.611826171875,27.663837158203126,134.547826171875,25.611837158203123C134.691826171875,25.323837158203126,134.817826171875,25.017837158203125,134.925826171875,24.693837158203124L135.555826171875,24.693837158203124L135.555826171875,28.329837158203127C135.555826171875,29.733837158203126,136.167826171875,30.435837158203125,137.409826171875,30.435837158203125L140.991826171875,30.435837158203125C141.639826171875,30.435837158203125,142.107826171875,30.273837158203126,142.413826171875,29.949837158203124C142.73782617187499,29.589837158203125,142.953826171875,28.527837158203123,143.097826171875,26.727837158203126L141.477826171875,26.205837158203124C141.441826171875,27.447837158203125,141.35182617187502,28.185837158203125,141.207826171875,28.437837158203124C141.099826171875,28.653837158203125,140.919826171875,28.779837158203126,140.667826171875,28.779837158203126L137.931826171875,28.779837158203126C137.481826171875,28.779837158203126,137.265826171875,28.509837158203126,137.265826171875,27.969837158203124L137.265826171875,24.693837158203124L141.333826171875,24.693837158203124L141.333826171875,18.915837158203125L137.211826171875,18.915837158203125C137.841826171875,18.339837158203125,138.471826171875,17.637837158203126,139.119826171875,16.827837158203124L139.119826171875,15.531837158203125L133.107826171875,15.531837158203125C133.377826171875,15.153837158203125,133.647826171875,14.775837158203124,133.89982617187502,14.379837158203124L132.171826171875,14.001837158203125C130.659826171875,16.233837158203123,128.859826171875,17.961837158203124,126.735826171875,19.221837158203122L127.815826171875,20.535837158203122C128.157826171875,20.319837158203125,128.499826171875,20.085837158203127,128.823826171875,19.851837158203125ZM135.06982617187498,18.915837158203125L129.993826171875,18.915837158203125C130.64182617187498,18.357837158203125,131.253826171875,17.745837158203123,131.865826171875,17.079837158203127L136.905826171875,17.079837158203127C136.293826171875,17.763837158203124,135.681826171875,18.375837158203126,135.06982617187498,18.915837158203125ZM139.695826171875,23.091837158203127L135.393826171875,23.091837158203127C135.555826171875,22.299837158203125,135.663826171875,21.435837158203125,135.699826171875,20.499837158203125L139.695826171875,20.499837158203125L139.695826171875,23.091837158203127ZM133.62982617187498,23.091837158203127L130.479826171875,23.091837158203127L130.479826171875,20.499837158203125L133.989826171875,20.499837158203125C133.935826171875,21.435837158203125,133.809826171875,22.299837158203125,133.62982617187498,23.091837158203127ZM147.957826171875,18.429837158203124L150.009826171875,18.429837158203124C149.973826171875,18.735837158203125,149.919826171875,19.023837158203126,149.847826171875,19.311837158203126L147.705826171875,19.311837158203126L147.957826171875,18.429837158203124ZM151.66582617187498,18.429837158203124L154.00582617187501,18.429837158203124L154.00582617187501,19.311837158203126L151.557826171875,19.311837158203126C151.611826171875,19.023837158203126,151.647826171875,18.735837158203125,151.66582617187498,18.429837158203124ZM155.66182617187502,18.429837158203124L159.477826171875,18.429837158203124L159.477826171875,14.847837158203125L155.66182617187502,14.847837158203125L155.66182617187502,14.055837158203126L154.00582617187501,14.055837158203126L154.00582617187501,14.847837158203125L151.683826171875,14.847837158203125L151.683826171875,14.055837158203126L150.027826171875,14.055837158203126L150.027826171875,14.847837158203125L146.031826171875,14.847837158203125L146.031826171875,16.233837158203123L150.027826171875,16.233837158203123L150.027826171875,17.115837158203124L146.571826171875,17.115837158203124L145.869826171875,20.607837158203125L149.145826171875,20.607837158203125C149.109826171875,20.643837158203127,149.055826171875,20.715837158203126,148.983826171875,20.787837158203125C148.335826171875,21.399837158203127,147.111826171875,21.903837158203125,145.293826171875,22.299837158203125L146.157826171875,23.631837158203126C146.55382617187502,23.541837158203123,146.931826171875,23.433837158203126,147.29182617187502,23.325837158203125L147.29182617187502,27.825837158203125L148.965826171875,27.825837158203125L148.965826171875,24.333837158203124L157.245826171875,24.333837158203124L157.245826171875,27.825837158203125L158.937826171875,27.825837158203125L158.937826171875,22.821837158203124L148.659826171875,22.821837158203124C149.325826171875,22.497837158203126,149.865826171875,22.155837158203127,150.27982617187502,21.759837158203126C150.603826171875,21.435837158203125,150.873826171875,21.039837158203127,151.107826171875,20.607837158203125L154.00582617187501,20.607837158203125L154.00582617187501,22.479837158203125L155.66182617187502,22.479837158203125L155.66182617187502,20.607837158203125L158.793826171875,20.607837158203125C158.793826171875,20.895837158203125,158.739826171875,21.093837158203126,158.64982617187502,21.237837158203124C158.54182617187502,21.363837158203125,158.253826171875,21.435837158203125,157.785826171875,21.435837158203125C157.479826171875,21.435837158203125,157.155826171875,21.417837158203128,156.83182617187498,21.381837158203126L157.13782617187502,22.551837158203124C157.407826171875,22.569837158203125,157.695826171875,22.587837158203126,157.983826171875,22.587837158203126C159.027826171875,22.569837158203125,159.693826171875,22.371837158203125,159.981826171875,21.975837158203127C160.269826171875,21.597837158203127,160.413826171875,20.715837158203126,160.413826171875,19.311837158203126L155.66182617187502,19.311837158203126L155.66182617187502,18.429837158203124ZM151.683826171875,16.233837158203123L154.00582617187501,16.233837158203123L154.00582617187501,17.115837158203124L151.683826171875,17.115837158203124L151.683826171875,16.233837158203123ZM155.66182617187502,16.233837158203123L157.893826171875,16.233837158203123L157.893826171875,17.115837158203124L155.66182617187502,17.115837158203124L155.66182617187502,16.233837158203123ZM154.203826171875,27.465837158203126L153.33982617187502,28.761837158203125C155.499826171875,29.265837158203126,157.587826171875,29.949837158203124,159.621826171875,30.849837158203126L160.557826171875,29.427837158203126C158.64982617187502,28.653837158203125,156.525826171875,28.005837158203125,154.203826171875,27.465837158203126ZM152.205826171875,24.783837158203127C152.061826171875,26.331837158203125,151.611826171875,27.429837158203124,150.81982617187498,28.077837158203124C149.919826171875,28.725837158203124,148.047826171875,29.103837158203124,145.221826171875,29.229837158203125L145.905826171875,30.759837158203126C149.253826171875,30.507837158203124,151.377826171875,29.931837158203123,152.277826171875,29.067837158203126C153.123826171875,28.383837158203125,153.663826171875,27.015837158203126,153.897826171875,24.945837158203126L152.205826171875,24.783837158203127ZM168.027826171875,15.783837158203125L168.027826171875,17.421837158203125L172.545826171875,17.421837158203125L172.545826171875,18.843837158203126L168.531826171875,18.843837158203126L168.531826171875,24.189837158203126L172.455826171875,24.189837158203126C172.347826171875,25.215837158203126,172.131826171875,26.061837158203126,171.84382617187498,26.745837158203123C170.979826171875,26.133837158203125,170.205826171875,25.395837158203125,169.521826171875,24.549837158203125L168.207826171875,25.449837158203124C168.999826171875,26.421837158203125,169.881826171875,27.285837158203126,170.871826171875,28.023837158203126C170.061826171875,28.689837158203126,168.801826171875,29.103837158203124,167.109826171875,29.247837158203126L167.847826171875,30.795837158203124C169.89982617187502,30.507837158203124,171.41182617187502,29.913837158203126,172.383826171875,28.995837158203123C174.23782617187499,30.039837158203124,176.37982617187498,30.633837158203125,178.82782617187502,30.795837158203124L179.241826171875,29.157837158203126C177.045826171875,29.049837158203125,175.083826171875,28.563837158203125,173.35582617187498,27.681837158203123C173.769826171875,26.835837158203127,174.039826171875,25.665837158203125,174.183826171875,24.189837158203126L178.413826171875,24.189837158203126L178.413826171875,18.843837158203126L174.25582617187501,18.843837158203126L174.25582617187501,17.421837158203125L179.097826171875,17.421837158203125L179.097826171875,15.783837158203125L174.25582617187501,15.783837158203125L174.25582617187501,14.091837158203125L172.545826171875,14.091837158203125L172.545826171875,15.783837158203125L168.027826171875,15.783837158203125ZM176.811826171875,22.659837158203125L174.25582617187501,22.659837158203125L174.25582617187501,20.355837158203123L176.811826171875,20.355837158203123L176.811826171875,22.659837158203125ZM172.545826171875,22.659837158203125L170.133826171875,22.659837158203125L170.133826171875,20.355837158203123L172.545826171875,20.355837158203123L172.545826171875,22.659837158203125ZM164.499826171875,21.273837158203126L164.499826171875,30.741837158203126L166.227826171875,30.741837158203126L166.227826171875,18.627837158203125C166.91182617187502,17.367837158203123,167.469826171875,16.071837158203124,167.901826171875,14.703837158203125L166.281826171875,13.947837158203125C165.453826171875,16.737837158203124,164.157826171875,19.167837158203128,162.393826171875,21.255837158203125L162.95182617187498,23.091837158203127C163.491826171875,22.497837158203126,164.013826171875,21.885837158203124,164.499826171875,21.273837158203126ZM183.939826171875,20.625837158203126L188.079826171875,20.625837158203126L188.079826171875,23.379837158203124L183.939826171875,23.379837158203124L183.939826171875,20.625837158203126ZM183.849826171875,24.963837158203127L188.079826171875,24.963837158203127L188.079826171875,30.093837158203126L189.807826171875,30.093837158203126L189.807826171875,24.963837158203127L194.271826171875,24.963837158203127L194.271826171875,27.645837158203125C194.271826171875,28.347837158203124,193.965826171875,28.707837158203127,193.389826171875,28.707837158203127C192.777826171875,28.707837158203127,192.129826171875,28.671837158203125,191.427826171875,28.617837158203123L191.877826171875,30.291837158203126L193.947826171875,30.291837158203126C195.315826171875,30.291837158203126,196.017826171875,29.607837158203125,196.017826171875,28.257837158203124L196.017826171875,14.703837158203125L182.211826171875,14.703837158203125L182.211826171875,23.523837158203126C182.175826171875,25.899837158203123,181.61782617187498,27.861837158203127,180.537826171875,29.409837158203125L181.85182617187502,30.579837158203127C182.967826171875,29.103837158203124,183.633826171875,27.231837158203124,183.849826171875,24.963837158203127ZM194.271826171875,23.379837158203124L189.807826171875,23.379837158203124L189.807826171875,20.625837158203126L194.271826171875,20.625837158203126L194.271826171875,23.379837158203124ZM194.271826171875,19.059837158203123L189.807826171875,19.059837158203123L189.807826171875,16.359837158203124L194.271826171875,16.359837158203124L194.271826171875,19.059837158203123ZM188.079826171875,16.359837158203124L188.079826171875,19.059837158203123L183.939826171875,19.059837158203123L183.939826171875,16.359837158203124L188.079826171875,16.359837158203124Z" fill="#2E3E58" fill-opacity="1"/></g></g></svg>