<svg xmlns="http://www.w3.org/2000/svg" xmlns:xlink="http://www.w3.org/1999/xlink" fill="none" version="1.1" width="575" height="198" viewBox="0 0 575 198"><defs><linearGradient x1="44.1210655272007" y1="32.747406005859375" x2="140.90169286727905" y2="41.26596117019653" gradientUnits="userSpaceOnUse" id="master_svg0_113_18584"><stop offset="0%" stop-color="#FFFFFF" stop-opacity="1"/><stop offset="100%" stop-color="#0066FE" stop-opacity="1"/></linearGradient><linearGradient x1="269.02675527334213" y1="32.747406005859375" x2="333.54717350006104" y2="41.26596117019653" gradientUnits="userSpaceOnUse" id="master_svg1_113_18584"><stop offset="0%" stop-color="#FFFFFF" stop-opacity="1"/><stop offset="100%" stop-color="#0066FE" stop-opacity="1"/></linearGradient><linearGradient x1="459.94704335927963" y1="32.747406005859375" x2="524.4674615859985" y2="41.26596117019653" gradientUnits="userSpaceOnUse" id="master_svg2_113_18584"><stop offset="0%" stop-color="#FFFFFF" stop-opacity="1"/><stop offset="100%" stop-color="#0066FE" stop-opacity="1"/></linearGradient><linearGradient x1="459.94704335927963" y1="117.63607788085938" x2="524.4674615859985" y2="126.15463304519653" gradientUnits="userSpaceOnUse" id="master_svg3_113_18584"><stop offset="0%" stop-color="#FFFFFF" stop-opacity="1"/><stop offset="100%" stop-color="#0066FE" stop-opacity="1"/></linearGradient><linearGradient x1="1" y1="-0.04527157545089722" x2="0.9993046335905971" y2="0.6337426063733654" id="master_svg4_499_31411"><stop offset="0%" stop-color="#FFFFFF" stop-opacity="0"/><stop offset="100%" stop-color="#FFFFFF" stop-opacity="1"/></linearGradient><linearGradient x1="1" y1="-0.04527157545089722" x2="0.9993046335905971" y2="0.6337426063733654" id="master_svg5_499_31411"><stop offset="0%" stop-color="#FFFFFF" stop-opacity="0"/><stop offset="100%" stop-color="#FFFFFF" stop-opacity="1"/></linearGradient><linearGradient x1="1" y1="-0.04527157545089722" x2="0.9977283923897887" y2="0.6337698384508422" id="master_svg6_499_31411"><stop offset="0%" stop-color="#FFFFFF" stop-opacity="0"/><stop offset="100%" stop-color="#FFFFFF" stop-opacity="1"/></linearGradient><linearGradient x1="0" y1="0.03625616803765297" x2="0.963677638694873" y2="0.07691093232666191" id="master_svg7_499_38019"><stop offset="0%" stop-color="#FFFFFF" stop-opacity="1"/><stop offset="100%" stop-color="#FFFFFF" stop-opacity="0"/></linearGradient><linearGradient x1="0" y1="0.03625616803765297" x2="1.3513884422693125" y2="0.24826453368844348" id="master_svg8_499_38015"><stop offset="0%" stop-color="#FFFFFF" stop-opacity="1"/><stop offset="100%" stop-color="#FFFFFF" stop-opacity="0"/></linearGradient></defs><g><g><path d="M125.0107822265625,97.689486328125C124.7707822265625,98.025486328125,124.5067822265625,98.373486328125,124.2307822265625,98.721486328125L121.0627822265625,98.721486328125L121.0627822265625,99.417486328125L123.6667822265625,99.417486328125C123.3787822265625,99.753486328125,123.0787822265625,100.089486328125,122.7667822265625,100.449486328125C123.5947822265625,100.605486328125,124.4227822265625,100.785486328125,125.2627822265625,101.001486328125C124.2067822265625,101.337486328125,122.7667822265625,101.505486328125,120.9427822265625,101.505486328125L121.4107822265625,102.213486328125C123.4507822265625,102.189486328125,125.0947822265625,101.877486328125,126.3547822265625,101.289486328125C127.5667822265625,101.61348632812499,128.7787822265625,101.985486328125,129.9787822265625,102.417486328125L130.4827822265625,101.757486328125C129.3667822265625,101.385486328125,128.2747822265625,101.061486328125,127.2187822265625,100.797486328125C127.7107822265625,100.437486328125,128.1667822265625,99.981486328125,128.5987822265625,99.417486328125L130.6147822265625,99.417486328125L130.6147822265625,98.721486328125L125.1787822265625,98.721486328125C125.3707822265625,98.469486328125,125.5747822265625,98.205486328125,125.7907822265625,97.917486328125L125.0107822265625,97.689486328125ZM126.2587822265625,100.557486328125C125.5027822265625,100.365486328125,124.7587822265625,100.209486328125,124.0267822265625,100.089486328125C124.2067822265625,99.897486328125,124.4107822265625,99.669486328125,124.6267822265625,99.417486328125L127.6747822265625,99.417486328125C127.3147822265625,99.849486328125,126.8347822265625,100.221486328125,126.2587822265625,100.557486328125ZM130.6507822265625,96.717486328125L126.2947822265625,96.717486328125C126.1507822265625,96.357486328125,126.0067822265625,96.021486328125,125.8387822265625,95.721486328125L124.9387822265625,95.865486328125C125.1187822265625,96.129486328125,125.2867822265625,96.405486328125,125.4427822265625,96.717486328125L121.0027822265625,96.717486328125L121.0027822265625,98.409486328125L121.8187822265625,98.409486328125L121.8187822265625,97.449486328125L129.8347822265625,97.449486328125L129.8347822265625,98.409486328125L130.6507822265625,98.409486328125L130.6507822265625,96.717486328125ZM120.6907822265625,102.909486328125L120.6907822265625,103.677486328125L124.6387822265625,103.677486328125C123.8947822265625,104.445486328125,122.5267822265625,105.129486328125,120.5347822265625,105.729486328125L121.0147822265625,106.497486328125C123.1747822265625,105.705486328125,124.6387822265625,104.769486328125,125.4067822265625,103.689486328125L125.4067822265625,106.749486328125L126.2947822265625,106.749486328125L126.2947822265625,103.725486328125C127.1827822265625,104.829486328125,128.6707822265625,105.729486328125,130.7587822265625,106.413486328125L131.1307822265625,105.657486328125C129.2947822265625,105.165486328125,127.9387822265625,104.505486328125,127.0747822265625,103.677486328125L130.9747822265625,103.677486328125L130.9747822265625,102.909486328125L126.2947822265625,102.909486328125L126.2947822265625,101.973486328125L125.4067822265625,101.973486328125L125.4067822265625,102.909486328125L120.6907822265625,102.909486328125ZM135.6067822265625,96.465486328125L135.6067822265625,97.293486328125L136.5427822265625,97.293486328125C136.3507822265625,99.417486328125,135.7867822265625,101.097486328125,134.8507822265625,102.321486328125L135.2827822265625,103.161486328125C135.5587822265625,102.813486328125,135.8107822265625,102.429486328125,136.0507822265625,102.009486328125C136.5427822265625,102.321486328125,137.0467822265625,102.717486328125,137.5507822265625,103.209486328125C136.9987822265625,104.385486328125,136.2427822265625,105.309486328125,135.2827822265625,105.969486328125L135.7147822265625,106.737486328125C137.6827822265625,105.393486328125,138.8947822265625,103.065486328125,139.3267822265625,99.741486328125L139.3267822265625,98.997486328125L137.1187822265625,98.997486328125C137.2267822265625,98.457486328125,137.3107822265625,97.893486328125,137.3707822265625,97.293486328125L139.5547822265625,97.293486328125L139.5547822265625,96.465486328125L135.6067822265625,96.465486328125ZM136.3987822265625,101.301486328125C136.6027822265625,100.833486328125,136.7827822265625,100.329486328125,136.9267822265625,99.789486328125L138.5227822265625,99.789486328125C138.3787822265625,100.725486328125,138.1747822265625,101.601486328125,137.8867822265625,102.393486328125C137.41878222656248,101.985486328125,136.9267822265625,101.61348632812499,136.3987822265625,101.301486328125ZM141.7387822265625,106.689486328125C142.4587822265625,106.689486328125,142.8307822265625,106.317486328125,142.8307822265625,105.597486328125L142.8307822265625,95.805486328125L141.9667822265625,95.805486328125L141.9667822265625,105.38148632812499C141.9667822265625,105.741486328125,141.7867822265625,105.921486328125,141.4387822265625,105.921486328125C141.0547822265625,105.921486328125,140.6587822265625,105.897486328125,140.2267822265625,105.861486328125L140.41878222656248,106.689486328125L141.7387822265625,106.689486328125ZM133.4707822265625,100.269486328125L133.4707822265625,106.797486328125L134.3347822265625,106.797486328125L134.3347822265625,98.757486328125C134.7427822265625,97.917486328125,135.0907822265625,97.029486328125,135.3547822265625,96.081486328125L134.5387822265625,95.709486328125C134.0587822265625,97.569486328125,133.2907822265625,99.213486328125,132.2347822265625,100.653486328125L132.5227822265625,101.565486328125C132.8587822265625,101.157486328125,133.1707822265625,100.725486328125,133.4707822265625,100.269486328125ZM140.0707822265625,96.909486328125L140.0707822265625,104.349486328125L140.8627822265625,104.349486328125L140.8627822265625,96.909486328125L140.0707822265625,96.909486328125ZM153.3187822265625,106.701486328125C154.2307822265625,106.701486328125,154.6987822265625,106.245486328125,154.6987822265625,105.357486328125L154.6987822265625,96.465486328125L149.1667822265625,96.465486328125L149.1667822265625,97.305486328125L153.8227822265625,97.305486328125L153.8227822265625,105.129486328125C153.8227822265625,105.657486328125,153.5947822265625,105.921486328125,153.1387822265625,105.921486328125L151.8187822265625,105.897486328125L152.0347822265625,106.701486328125L153.3187822265625,106.701486328125ZM144.9547822265625,97.761486328125L144.9547822265625,106.785486328125L145.8307822265625,106.785486328125L145.8307822265625,97.761486328125L144.9547822265625,97.761486328125ZM147.6427822265625,99.489486328125L147.6427822265625,104.001486328125L151.9627822265625,104.001486328125L151.9627822265625,99.489486328125L147.6427822265625,99.489486328125ZM151.0867822265625,103.173486328125L148.5187822265625,103.173486328125L148.5187822265625,100.317486328125L151.0867822265625,100.317486328125L151.0867822265625,103.173486328125ZM146.7427822265625,95.673486328125L145.9387822265625,96.021486328125C146.4907822265625,96.669486328125,147.0067822265625,97.401486328125,147.4627822265625,98.241486328125L148.2307822265625,97.845486328125C147.7987822265625,97.053486328125,147.2947822265625,96.333486328125,146.7427822265625,95.673486328125ZM164.6467822265625,105.76548632812501C162.1867822265625,105.76548632812501,160.6147822265625,105.657486328125,159.91878222656248,105.441486328125C159.87078222656248,105.417486328125,159.8107822265625,105.393486328125,159.7387822265625,105.36948632812499L159.7387822265625,104.061486328125L161.38278222656248,104.061486328125L161.38278222656248,103.293486328125L159.7387822265625,103.293486328125L159.7387822265625,102.02148632812501L161.6827822265625,102.02148632812501L161.6827822265625,101.229486328125L156.5947822265625,101.229486328125L156.5947822265625,102.02148632812501L158.9707822265625,102.02148632812501L158.9707822265625,104.937486328125C158.5987822265625,104.661486328125,158.2507822265625,104.27748632812501,157.9387822265625,103.785486328125C157.9987822265625,103.425486328125,158.0347822265625,103.053486328125,158.0587822265625,102.645486328125L157.2907822265625,102.549486328125C157.2307822265625,103.917486328125,156.88278222656248,105.141486328125,156.23478222656252,106.233486328125L156.85878222656248,106.785486328125C157.2427822265625,106.137486328125,157.5427822265625,105.429486328125,157.75878222656252,104.661486328125C158.2507822265625,105.357486328125,158.8147822265625,105.849486328125,159.4507822265625,106.11348632812499C160.1707822265625,106.425486328125,161.9587822265625,106.581486328125,164.8387822265625,106.581486328125L167.2027822265625,106.581486328125L167.3467822265625,105.717486328125C166.74678222656252,105.741486328125,165.8467822265625,105.76548632812501,164.6467822265625,105.76548632812501ZM157.1347822265625,96.237486328125L157.1347822265625,100.425486328125L161.2267822265625,100.425486328125L161.2267822265625,96.237486328125L157.1347822265625,96.237486328125ZM160.3867822265625,99.705486328125L157.9747822265625,99.705486328125L157.9747822265625,98.685486328125L160.3867822265625,98.685486328125L160.3867822265625,99.705486328125ZM157.9747822265625,98.013486328125L157.9747822265625,96.957486328125L160.3867822265625,96.957486328125L160.3867822265625,98.013486328125L157.9747822265625,98.013486328125ZM161.8507822265625,96.249486328125L161.8507822265625,97.041486328125L164.0947822265625,97.041486328125C164.0587822265625,97.365486328125,164.0107822265625,97.689486328125,163.9387822265625,98.001486328125L162.22278222656252,98.001486328125L162.22278222656252,102.849486328125L162.9907822265625,102.849486328125L162.9907822265625,98.745486328125L165.89478222656248,98.745486328125L165.89478222656248,102.849486328125L166.6987822265625,102.849486328125L166.6987822265625,98.001486328125L164.7187822265625,98.001486328125C164.7907822265625,97.689486328125,164.8387822265625,97.377486328125,164.8747822265625,97.041486328125L167.0347822265625,97.041486328125L167.0347822265625,96.249486328125L161.8507822265625,96.249486328125ZM165.3067822265625,102.885486328125L164.7307822265625,103.437486328125C165.5107822265625,104.061486328125,166.1227822265625,104.661486328125,166.5667822265625,105.213486328125L167.1787822265625,104.61348632812499C166.6747822265625,104.037486328125,166.0507822265625,103.461486328125,165.3067822265625,102.885486328125ZM164.0467822265625,99.309486328125L164.0467822265625,101.001486328125C164.0227822265625,101.901486328125,163.8427822265625,102.633486328125,163.5307822265625,103.197486328125C163.1827822265625,103.737486328125,162.5827822265625,104.169486328125,161.7187822265625,104.481486328125L162.1867822265625,105.225486328125C163.0987822265625,104.865486328125,163.77078222656252,104.373486328125,164.1787822265625,103.737486328125C164.5867822265625,103.053486328125,164.8147822265625,102.141486328125,164.8387822265625,101.001486328125L164.8387822265625,99.309486328125L164.0467822265625,99.309486328125ZM169.8067822265625,106.665486328125C170.4907822265625,106.665486328125,170.8387822265625,106.317486328125,170.8387822265625,105.645486328125L170.8387822265625,102.105486328125C171.1867822265625,101.937486328125,171.5347822265625,101.769486328125,171.87078222656248,101.589486328125L171.87078222656248,100.713486328125C171.5347822265625,100.905486328125,171.1867822265625,101.073486328125,170.8387822265625,101.241486328125L170.8387822265625,98.901486328125L172.0507822265625,98.901486328125L172.0507822265625,98.073486328125L170.8387822265625,98.073486328125L170.8387822265625,95.805486328125L169.9507822265625,95.805486328125L169.9507822265625,98.073486328125L168.4987822265625,98.073486328125L168.4987822265625,98.901486328125L169.9507822265625,98.901486328125L169.9507822265625,101.61348632812499C169.4227822265625,101.817486328125,168.89478222656248,101.985486328125,168.3547822265625,102.117486328125L168.5587822265625,102.981486328125C169.0267822265625,102.837486328125,169.4947822265625,102.669486328125,169.9507822265625,102.489486328125L169.9507822265625,105.417486328125C169.9507822265625,105.717486328125,169.79478222656252,105.873486328125,169.5067822265625,105.873486328125C169.1947822265625,105.873486328125,168.88278222656248,105.849486328125,168.5467822265625,105.825486328125L168.7267822265625,106.665486328125L169.8067822265625,106.665486328125ZM172.9867822265625,96.189486328125L172.9867822265625,100.353486328125L178.2187822265625,100.353486328125L178.2187822265625,96.189486328125L172.9867822265625,96.189486328125ZM177.3787822265625,99.645486328125L173.8267822265625,99.645486328125L173.8267822265625,98.613486328125L177.3787822265625,98.613486328125L177.3787822265625,99.645486328125ZM173.8267822265625,97.941486328125L173.8267822265625,96.897486328125L177.3787822265625,96.897486328125L177.3787822265625,97.941486328125L173.8267822265625,97.941486328125ZM172.1467822265625,101.193486328125L172.1467822265625,101.961486328125L175.1827822265625,101.961486328125L175.1827822265625,105.465486328125C175.0747822265625,105.429486328125,174.9787822265625,105.393486328125,174.89478222656248,105.357486328125C174.3907822265625,105.129486328125,173.9467822265625,104.61348632812499,173.5627822265625,103.809486328125C173.6587822265625,103.401486328125,173.7187822265625,102.993486328125,173.7427822265625,102.561486328125L172.9747822265625,102.477486328125C172.8787822265625,103.845486328125,172.3747822265625,105.093486328125,171.4627822265625,106.197486328125L172.0987822265625,106.749486328125C172.6147822265625,106.12548632812499,173.0107822265625,105.441486328125,173.2987822265625,104.697486328125C173.6587822265625,105.36948632812499,174.0787822265625,105.825486328125,174.5347822265625,106.065486328125C175.1107822265625,106.353486328125,176.1907822265625,106.509486328125,177.7747822265625,106.52148632812501C178.1587822265625,106.52148632812501,178.6027822265625,106.53348632812501,179.0827822265625,106.53348632812501L179.3227822265625,105.693486328125C178.8787822265625,105.729486328125,178.3387822265625,105.753486328125,177.7147822265625,105.753486328125C177.0547822265625,105.753486328125,176.4907822265625,105.717486328125,176.0107822265625,105.645486328125L176.0107822265625,104.097486328125L178.5187822265625,104.097486328125L178.5187822265625,103.317486328125L176.0107822265625,103.317486328125L176.0107822265625,101.961486328125L179.0107822265625,101.961486328125L179.0107822265625,101.193486328125L172.1467822265625,101.193486328125ZM180.5227822265625,97.197486328125L180.5227822265625,98.025486328125L191.1427822265625,98.025486328125L191.1427822265625,97.197486328125L186.4147822265625,97.197486328125C186.1987822265625,96.645486328125,185.9587822265625,96.141486328125,185.7187822265625,95.685486328125L184.75878222656252,95.853486328125C185.0227822265625,96.261486328125,185.2627822265625,96.705486328125,185.4787822265625,97.197486328125L180.5227822265625,97.197486328125ZM187.72278222656252,98.385486328125L187.1347822265625,98.949486328125C188.5387822265625,100.101486328125,189.6427822265625,101.169486328125,190.4347822265625,102.177486328125L191.0707822265625,101.541486328125C190.1707822265625,100.485486328125,189.0547822265625,99.441486328125,187.72278222656252,98.385486328125ZM187.84278222656252,100.629486328125C187.3267822265625,101.637486328125,186.6547822265625,102.513486328125,185.8387822265625,103.281486328125C184.9867822265625,102.549486328125,184.2907822265625,101.697486328125,183.7627822265625,100.713486328125L183.0187822265625,101.133486328125C183.5827822265625,102.141486328125,184.3027822265625,103.053486328125,185.1787822265625,103.845486328125C183.91878222656248,104.805486328125,182.3467822265625,105.525486328125,180.4507822265625,106.005486328125L180.9787822265625,106.797486328125C182.8987822265625,106.293486328125,184.5307822265625,105.501486328125,185.8747822265625,104.421486328125C187.1707822265625,105.429486328125,188.7907822265625,106.197486328125,190.73478222656252,106.749486328125L191.27478222656248,105.945486328125C189.4027822265625,105.465486328125,187.83078222656252,104.769486328125,186.5347822265625,103.833486328125C187.3627822265625,103.029486328125,188.0587822265625,102.081486328125,188.6347822265625,100.977486328125L187.84278222656252,100.629486328125ZM183.85878222656248,98.397486328125C182.9587822265625,99.525486328125,181.8547822265625,100.497486328125,180.5467822265625,101.337486328125L181.0987822265625,102.069486328125C182.44278222656249,101.181486328125,183.5707822265625,100.137486328125,184.4827822265625,98.949486328125L183.85878222656248,98.397486328125ZM198.77478222656248,95.733486328125C198.4147822265625,96.741486328125,197.7427822265625,97.593486328125,196.75878222656252,98.289486328125L197.2507822265625,98.937486328125C197.5387822265625,98.721486328125,197.8027822265625,98.505486328125,198.0547822265625,98.26548632812501C198.34278222656252,98.721486328125,198.7507822265625,99.153486328125,199.2547822265625,99.537486328125C198.5347822265625,99.873486328125,197.6827822265625,100.161486328125,196.71078222656251,100.389486328125L197.0347822265625,101.169486328125C198.1987822265625,100.88148632812499,199.1947822265625,100.509486328125,200.0347822265625,100.053486328125C200.8147822265625,100.485486328125,201.78678222656248,100.845486328125,202.9507822265625,101.133486328125L203.28678222656248,100.329486328125C202.3627822265625,100.113486328125,201.5587822265625,99.849486328125,200.8627822265625,99.537486328125C201.6667822265625,98.961486328125,202.2667822265625,98.277486328125,202.6627822265625,97.485486328125L202.6627822265625,96.741486328125L199.2307822265625,96.741486328125C199.3747822265625,96.453486328125,199.5067822265625,96.153486328125,199.6147822265625,95.841486328125L198.77478222656248,95.733486328125ZM198.5947822265625,97.689486328125C198.6307822265625,97.641486328125,198.6667822265625,97.581486328125,198.7147822265625,97.533486328125L201.7267822265625,97.533486328125C201.31878222656252,98.133486328125,200.7667822265625,98.649486328125,200.0467822265625,99.105486328125C199.4107822265625,98.697486328125,198.93078222656248,98.229486328125,198.5947822265625,97.689486328125ZM194.8507822265625,95.757486328125C194.31078222656248,97.617486328125,193.4467822265625,99.261486328125,192.25878222656252,100.701486328125L192.5107822265625,101.565486328125C192.9547822265625,101.085486328125,193.3627822265625,100.569486328125,193.73478222656252,100.029486328125L193.73478222656252,106.785486328125L194.5627822265625,106.785486328125L194.5627822265625,98.661486328125C194.9827822265625,97.869486328125,195.33078222656252,97.017486328125,195.6187822265625,96.117486328125L194.8507822265625,95.757486328125ZM195.6307822265625,97.88148632812499L195.6307822265625,104.673486328125L196.4107822265625,104.673486328125L196.4107822265625,97.88148632812499L195.6307822265625,97.88148632812499ZM200.43078222656248,100.833486328125C200.0227822265625,101.145486328125,199.5907822265625,101.421486328125,199.1107822265625,101.661486328125C198.5587822265625,101.913486328125,197.9467822265625,102.117486328125,197.27478222656248,102.285486328125L197.6947822265625,102.969486328125C198.5107822265625,102.705486328125,199.1707822265625,102.441486328125,199.6747822265625,102.177486328125C200.1427822265625,101.925486328125,200.5987822265625,101.61348632812499,201.0547822265625,101.229486328125L200.43078222656248,100.833486328125ZM201.5707822265625,101.721486328125C200.6827822265625,102.77748632812501,199.3507822265625,103.545486328125,197.5747822265625,104.013486328125L197.9227822265625,104.745486328125C199.78278222656252,104.217486328125,201.1867822265625,103.365486328125,202.1467822265625,102.165486328125L201.5707822265625,101.721486328125ZM197.44278222656249,106.857486328125C198.5947822265625,106.545486328125,199.71078222656251,106.077486328125,200.7907822265625,105.477486328125C201.87078222656248,104.853486328125,202.6747822265625,104.121486328125,203.2027822265625,103.293486328125L202.5907822265625,102.837486328125C201.9907822265625,103.629486328125,201.25878222656252,104.27748632812501,200.40678222656248,104.769486328125C199.5547822265625,105.273486328125,198.4507822265625,105.705486328125,197.0827822265625,106.065486328125L197.44278222656249,106.857486328125ZM210.9787822265625,98.373486328125L213.28278222656252,98.373486328125C213.25878222656252,100.101486328125,212.8987822265625,101.589486328125,212.2147822265625,102.825486328125C211.5907822265625,101.793486328125,211.0747822265625,100.569486328125,210.6907822265625,99.177486328125C210.78678222656248,98.925486328125,210.88278222656248,98.661486328125,210.9787822265625,98.373486328125ZM214.1107822265625,98.373486328125L215.0467822265625,98.373486328125L215.0467822265625,97.545486328125L211.2187822265625,97.545486328125C211.3387822265625,97.041486328125,211.4587822265625,96.489486328125,211.5547822265625,95.901486328125L210.7147822265625,95.757486328125C210.4027822265625,97.857486328125,209.8147822265625,99.525486328125,208.9387822265625,100.749486328125L209.4667822265625,101.421486328125C209.7427822265625,101.061486328125,209.9947822265625,100.653486328125,210.23478222656252,100.197486328125C210.6307822265625,101.481486328125,211.1347822265625,102.609486328125,211.73478222656252,103.581486328125C210.9547822265625,104.637486328125,209.8867822265625,105.453486328125,208.5307822265625,106.053486328125L209.0707822265625,106.761486328125C210.36678222656252,106.149486328125,211.4227822265625,105.333486328125,212.2147822265625,104.313486328125C212.9707822265625,105.36948632812499,213.88278222656248,106.197486328125,214.9387822265625,106.797486328125L215.43078222656248,106.077486328125C214.3747822265625,105.477486328125,213.4747822265625,104.649486328125,212.7187822265625,103.593486328125C213.5947822265625,102.189486328125,214.0627822265625,100.449486328125,214.1107822265625,98.373486328125ZM205.9507822265625,104.949486328125L205.9507822265625,101.085486328125L208.6387822265625,101.085486328125L208.6387822265625,96.621486328125L204.5107822265625,96.621486328125L204.5107822265625,97.449486328125L207.79878222656248,97.449486328125L207.79878222656248,100.293486328125L205.1107822265625,100.293486328125L205.1107822265625,104.769486328125C205.1107822265625,105.081486328125,204.9907822265625,105.273486328125,204.77478222656248,105.36948632812499L205.0267822265625,106.11348632812499C206.5627822265625,105.609486328125,207.94278222656249,105.045486328125,209.1907822265625,104.445486328125L209.0587822265625,103.653486328125C208.0027822265625,104.181486328125,206.9587822265625,104.61348632812499,205.9507822265625,104.949486328125Z" fill="#FFFFFF" fill-opacity="0.699999988079071"/></g><g><path d="M335.6037529296875,98.637486328125L331.7037529296875,99.129486328125C331.6317529296875,98.157486328125,331.5957529296875,97.029486328125,331.5957529296875,95.745486328125L330.7077529296875,95.745486328125C330.7197529296875,97.065486328125,330.7677529296875,98.229486328125,330.8517529296875,99.237486328125L328.1877529296875,99.585486328125L328.3197529296875,100.413486328125L330.9237529296875,100.077486328125C331.0077529296875,100.965486328125,331.1277529296875,101.697486328125,331.2837529296875,102.297486328125C331.6197529296875,103.641486328125,332.1237529296875,104.733486328125,332.8077529296875,105.573486328125C333.4317529296875,106.329486328125,334.0437529296875,106.713486328125,334.6317529296875,106.713486328125C334.9557529296875,106.701486328125,335.2317529296875,106.52148632812501,335.4477529296875,106.173486328125C335.7117529296875,105.693486328125,335.9157529296875,104.961486328125,336.0717529296875,103.977486328125L335.3157529296875,103.545486328125C335.1477529296875,105.057486328125,334.9077529296875,105.825486328125,334.5837529296875,105.837486328125C334.1757529296875,105.825486328125,333.7317529296875,105.501486328125,333.2637529296875,104.853486328125C332.7477529296875,104.157486328125,332.3517529296875,103.197486328125,332.0637529296875,101.949486328125C331.9437529296875,101.397486328125,331.8477529296875,100.737486328125,331.7757529296875,99.969486328125L335.7357529296875,99.465486328125L335.6037529296875,98.637486328125ZM326.6877529296875,100.041486328125L326.6877529296875,106.797486328125L327.5757529296875,106.797486328125L327.5757529296875,98.685486328125C328.0437529296875,97.88148632812499,328.4277529296875,97.017486328125,328.7397529296875,96.105486328125L327.9357529296875,95.721486328125C327.3357529296875,97.593486328125,326.3877529296875,99.261486328125,325.0677529296875,100.713486328125L325.3437529296875,101.61348632812499C325.8237529296875,101.109486328125,326.2797529296875,100.593486328125,326.6877529296875,100.041486328125ZM332.90375292968747,95.829486328125L332.3517529296875,96.369486328125C333.1197529296875,97.029486328125,333.7317529296875,97.653486328125,334.1637529296875,98.241486328125L334.7637529296875,97.653486328125C334.2597529296875,97.053486328125,333.6357529296875,96.441486328125,332.90375292968747,95.829486328125ZM341.2077529296875,99.981486328125L338.9997529296875,99.981486328125C339.3117529296875,99.141486328125,339.5397529296875,98.241486328125,339.7077529296875,97.281486328125L341.5197529296875,97.281486328125L341.5197529296875,96.441486328125L337.4277529296875,96.441486328125L337.4277529296875,97.281486328125L338.8917529296875,97.281486328125C338.6037529296875,99.069486328125,338.0037529296875,100.665486328125,337.0917529296875,102.057486328125L337.5237529296875,102.753486328125C337.8117529296875,102.345486328125,338.0757529296875,101.925486328125,338.3157529296875,101.493486328125L338.3157529296875,106.377486328125L339.1197529296875,106.377486328125L339.1197529296875,105.465486328125L340.4157529296875,105.465486328125L340.4157529296875,106.149486328125L341.2077529296875,106.149486328125L341.2077529296875,99.981486328125ZM339.1197529296875,104.685486328125L339.1197529296875,100.773486328125L340.4157529296875,100.773486328125L340.4157529296875,104.685486328125L339.1197529296875,104.685486328125ZM342.8277529296875,97.929486328125L342.1797529296875,101.817486328125L347.0277529296875,101.817486328125C347.0277529296875,103.737486328125,346.9317529296875,104.901486328125,346.7397529296875,105.309486328125C346.5597529296875,105.693486328125,346.0077529296875,105.897486328125,345.0837529296875,105.897486328125C344.8677529296875,105.897486328125,344.4957529296875,105.873486328125,343.9677529296875,105.825486328125L344.2077529296875,106.665486328125C344.5917529296875,106.689486328125,344.9517529296875,106.701486328125,345.2877529296875,106.701486328125C346.3437529296875,106.701486328125,347.0277529296875,106.473486328125,347.3637529296875,106.041486328125C347.6757529296875,105.585486328125,347.8437529296875,103.917486328125,347.8437529296875,101.013486328125L346.5717529296875,101.013486328125L347.2317529296875,96.273486328125L342.0717529296875,96.273486328125L342.0717529296875,97.089486328125L346.2957529296875,97.089486328125L345.6957529296875,101.013486328125L343.1517529296875,101.013486328125L343.6797529296875,97.989486328125L342.8277529296875,97.929486328125ZM341.8077529296875,103.341486328125L341.8077529296875,104.157486328125L346.1997529296875,104.157486328125L346.1997529296875,103.341486328125L341.8077529296875,103.341486328125ZM358.1637529296875,106.701486328125C359.0757529296875,106.701486328125,359.5437529296875,106.245486328125,359.5437529296875,105.357486328125L359.5437529296875,96.465486328125L354.0117529296875,96.465486328125L354.0117529296875,97.305486328125L358.6677529296875,97.305486328125L358.6677529296875,105.129486328125C358.6677529296875,105.657486328125,358.43975292968753,105.921486328125,357.9837529296875,105.921486328125L356.6637529296875,105.897486328125L356.87975292968747,106.701486328125L358.1637529296875,106.701486328125ZM349.7997529296875,97.761486328125L349.7997529296875,106.785486328125L350.6757529296875,106.785486328125L350.6757529296875,97.761486328125L349.7997529296875,97.761486328125ZM352.4877529296875,99.489486328125L352.4877529296875,104.001486328125L356.8077529296875,104.001486328125L356.8077529296875,99.489486328125L352.4877529296875,99.489486328125ZM355.9317529296875,103.173486328125L353.3637529296875,103.173486328125L353.3637529296875,100.317486328125L355.9317529296875,100.317486328125L355.9317529296875,103.173486328125ZM351.5877529296875,95.673486328125L350.7837529296875,96.021486328125C351.3357529296875,96.669486328125,351.8517529296875,97.401486328125,352.3077529296875,98.241486328125L353.0757529296875,97.845486328125C352.6437529296875,97.053486328125,352.1397529296875,96.333486328125,351.5877529296875,95.673486328125ZM369.4917529296875,105.76548632812501C367.0317529296875,105.76548632812501,365.4597529296875,105.657486328125,364.7637529296875,105.441486328125C364.7157529296875,105.417486328125,364.6557529296875,105.393486328125,364.5837529296875,105.36948632812499L364.5837529296875,104.061486328125L366.2277529296875,104.061486328125L366.2277529296875,103.293486328125L364.5837529296875,103.293486328125L364.5837529296875,102.02148632812501L366.5277529296875,102.02148632812501L366.5277529296875,101.229486328125L361.43975292968753,101.229486328125L361.43975292968753,102.02148632812501L363.8157529296875,102.02148632812501L363.8157529296875,104.937486328125C363.4437529296875,104.661486328125,363.0957529296875,104.27748632812501,362.7837529296875,103.785486328125C362.8437529296875,103.425486328125,362.87975292968747,103.053486328125,362.90375292968747,102.645486328125L362.1357529296875,102.549486328125C362.0757529296875,103.917486328125,361.7277529296875,105.141486328125,361.0797529296875,106.233486328125L361.7037529296875,106.785486328125C362.0877529296875,106.137486328125,362.3877529296875,105.429486328125,362.6037529296875,104.661486328125C363.0957529296875,105.357486328125,363.6597529296875,105.849486328125,364.2957529296875,106.11348632812499C365.0157529296875,106.425486328125,366.8037529296875,106.581486328125,369.6837529296875,106.581486328125L372.0477529296875,106.581486328125L372.1917529296875,105.717486328125C371.5917529296875,105.741486328125,370.6917529296875,105.76548632812501,369.4917529296875,105.76548632812501ZM361.9797529296875,96.237486328125L361.9797529296875,100.425486328125L366.0717529296875,100.425486328125L366.0717529296875,96.237486328125L361.9797529296875,96.237486328125ZM365.2317529296875,99.705486328125L362.8197529296875,99.705486328125L362.8197529296875,98.685486328125L365.2317529296875,98.685486328125L365.2317529296875,99.705486328125ZM362.8197529296875,98.013486328125L362.8197529296875,96.957486328125L365.2317529296875,96.957486328125L365.2317529296875,98.013486328125L362.8197529296875,98.013486328125ZM366.6957529296875,96.249486328125L366.6957529296875,97.041486328125L368.93975292968753,97.041486328125C368.90375292968747,97.365486328125,368.85575292968747,97.689486328125,368.7837529296875,98.001486328125L367.0677529296875,98.001486328125L367.0677529296875,102.849486328125L367.8357529296875,102.849486328125L367.8357529296875,98.745486328125L370.7397529296875,98.745486328125L370.7397529296875,102.849486328125L371.5437529296875,102.849486328125L371.5437529296875,98.001486328125L369.5637529296875,98.001486328125C369.6357529296875,97.689486328125,369.6837529296875,97.377486328125,369.7197529296875,97.041486328125L371.87975292968747,97.041486328125L371.87975292968747,96.249486328125L366.6957529296875,96.249486328125ZM370.1517529296875,102.885486328125L369.5757529296875,103.437486328125C370.35575292968747,104.061486328125,370.9677529296875,104.661486328125,371.4117529296875,105.213486328125L372.0237529296875,104.61348632812499C371.5197529296875,104.037486328125,370.8957529296875,103.461486328125,370.1517529296875,102.885486328125ZM368.8917529296875,99.309486328125L368.8917529296875,101.001486328125C368.8677529296875,101.901486328125,368.6877529296875,102.633486328125,368.3757529296875,103.197486328125C368.0277529296875,103.737486328125,367.4277529296875,104.169486328125,366.5637529296875,104.481486328125L367.0317529296875,105.225486328125C367.9437529296875,104.865486328125,368.6157529296875,104.373486328125,369.0237529296875,103.737486328125C369.4317529296875,103.053486328125,369.6597529296875,102.141486328125,369.6837529296875,101.001486328125L369.6837529296875,99.309486328125L368.8917529296875,99.309486328125ZM374.6517529296875,106.665486328125C375.3357529296875,106.665486328125,375.6837529296875,106.317486328125,375.6837529296875,105.645486328125L375.6837529296875,102.105486328125C376.0317529296875,101.937486328125,376.37975292968747,101.769486328125,376.7157529296875,101.589486328125L376.7157529296875,100.713486328125C376.37975292968747,100.905486328125,376.0317529296875,101.073486328125,375.6837529296875,101.241486328125L375.6837529296875,98.901486328125L376.8957529296875,98.901486328125L376.8957529296875,98.073486328125L375.6837529296875,98.073486328125L375.6837529296875,95.805486328125L374.7957529296875,95.805486328125L374.7957529296875,98.073486328125L373.3437529296875,98.073486328125L373.3437529296875,98.901486328125L374.7957529296875,98.901486328125L374.7957529296875,101.61348632812499C374.2677529296875,101.817486328125,373.7397529296875,101.985486328125,373.1997529296875,102.117486328125L373.40375292968747,102.981486328125C373.8717529296875,102.837486328125,374.3397529296875,102.669486328125,374.7957529296875,102.489486328125L374.7957529296875,105.417486328125C374.7957529296875,105.717486328125,374.6397529296875,105.873486328125,374.3517529296875,105.873486328125C374.0397529296875,105.873486328125,373.7277529296875,105.849486328125,373.3917529296875,105.825486328125L373.5717529296875,106.665486328125L374.6517529296875,106.665486328125ZM377.83175292968747,96.189486328125L377.83175292968747,100.353486328125L383.0637529296875,100.353486328125L383.0637529296875,96.189486328125L377.83175292968747,96.189486328125ZM382.2237529296875,99.645486328125L378.6717529296875,99.645486328125L378.6717529296875,98.613486328125L382.2237529296875,98.613486328125L382.2237529296875,99.645486328125ZM378.6717529296875,97.941486328125L378.6717529296875,96.897486328125L382.2237529296875,96.897486328125L382.2237529296875,97.941486328125L378.6717529296875,97.941486328125ZM376.9917529296875,101.193486328125L376.9917529296875,101.961486328125L380.0277529296875,101.961486328125L380.0277529296875,105.465486328125C379.9197529296875,105.429486328125,379.8237529296875,105.393486328125,379.7397529296875,105.357486328125C379.2357529296875,105.129486328125,378.7917529296875,104.61348632812499,378.4077529296875,103.809486328125C378.5037529296875,103.401486328125,378.5637529296875,102.993486328125,378.5877529296875,102.561486328125L377.8197529296875,102.477486328125C377.7237529296875,103.845486328125,377.2197529296875,105.093486328125,376.3077529296875,106.197486328125L376.9437529296875,106.749486328125C377.4597529296875,106.12548632812499,377.85575292968747,105.441486328125,378.1437529296875,104.697486328125C378.5037529296875,105.36948632812499,378.9237529296875,105.825486328125,379.37975292968747,106.065486328125C379.9557529296875,106.353486328125,381.0357529296875,106.509486328125,382.6197529296875,106.52148632812501C383.0037529296875,106.52148632812501,383.4477529296875,106.53348632812501,383.9277529296875,106.53348632812501L384.1677529296875,105.693486328125C383.7237529296875,105.729486328125,383.1837529296875,105.753486328125,382.5597529296875,105.753486328125C381.8997529296875,105.753486328125,381.3357529296875,105.717486328125,380.85575292968747,105.645486328125L380.85575292968747,104.097486328125L383.3637529296875,104.097486328125L383.3637529296875,103.317486328125L380.85575292968747,103.317486328125L380.85575292968747,101.961486328125L383.85575292968747,101.961486328125L383.85575292968747,101.193486328125L376.9917529296875,101.193486328125ZM385.3677529296875,97.197486328125L385.3677529296875,98.025486328125L395.98775292968753,98.025486328125L395.98775292968753,97.197486328125L391.25975292968747,97.197486328125C391.0437529296875,96.645486328125,390.8037529296875,96.141486328125,390.5637529296875,95.685486328125L389.6037529296875,95.853486328125C389.8677529296875,96.261486328125,390.10775292968754,96.705486328125,390.3237529296875,97.197486328125L385.3677529296875,97.197486328125ZM392.5677529296875,98.385486328125L391.9797529296875,98.949486328125C393.3837529296875,100.101486328125,394.48775292968753,101.169486328125,395.2797529296875,102.177486328125L395.9157529296875,101.541486328125C395.0157529296875,100.485486328125,393.8997529296875,99.441486328125,392.5677529296875,98.385486328125ZM392.6877529296875,100.629486328125C392.1717529296875,101.637486328125,391.4997529296875,102.513486328125,390.6837529296875,103.281486328125C389.83175292968747,102.549486328125,389.1357529296875,101.697486328125,388.6077529296875,100.713486328125L387.8637529296875,101.133486328125C388.4277529296875,102.141486328125,389.1477529296875,103.053486328125,390.0237529296875,103.845486328125C388.7637529296875,104.805486328125,387.1917529296875,105.525486328125,385.2957529296875,106.005486328125L385.8237529296875,106.797486328125C387.7437529296875,106.293486328125,389.3757529296875,105.501486328125,390.7197529296875,104.421486328125C392.0157529296875,105.429486328125,393.6357529296875,106.197486328125,395.5797529296875,106.749486328125L396.1197529296875,105.945486328125C394.2477529296875,105.465486328125,392.6757529296875,104.769486328125,391.37975292968747,103.833486328125C392.2077529296875,103.029486328125,392.90375292968747,102.081486328125,393.4797529296875,100.977486328125L392.6877529296875,100.629486328125ZM388.7037529296875,98.397486328125C387.8037529296875,99.525486328125,386.6997529296875,100.497486328125,385.3917529296875,101.337486328125L385.9437529296875,102.069486328125C387.2877529296875,101.181486328125,388.4157529296875,100.137486328125,389.3277529296875,98.949486328125L388.7037529296875,98.397486328125ZM403.6197529296875,95.733486328125C403.25975292968747,96.741486328125,402.5877529296875,97.593486328125,401.6037529296875,98.289486328125L402.0957529296875,98.937486328125C402.3837529296875,98.721486328125,402.6477529296875,98.505486328125,402.8997529296875,98.26548632812501C403.1877529296875,98.721486328125,403.5957529296875,99.153486328125,404.0997529296875,99.537486328125C403.37975292968747,99.873486328125,402.5277529296875,100.161486328125,401.5557529296875,100.389486328125L401.87975292968747,101.169486328125C403.0437529296875,100.88148632812499,404.0397529296875,100.509486328125,404.87975292968747,100.053486328125C405.6597529296875,100.485486328125,406.6317529296875,100.845486328125,407.7957529296875,101.133486328125L408.1317529296875,100.329486328125C407.2077529296875,100.113486328125,406.40375292968747,99.849486328125,405.7077529296875,99.537486328125C406.51175292968753,98.961486328125,407.1117529296875,98.277486328125,407.5077529296875,97.485486328125L407.5077529296875,96.741486328125L404.0757529296875,96.741486328125C404.2197529296875,96.453486328125,404.3517529296875,96.153486328125,404.4597529296875,95.841486328125L403.6197529296875,95.733486328125ZM403.43975292968753,97.689486328125C403.4757529296875,97.641486328125,403.51175292968753,97.581486328125,403.55975292968753,97.533486328125L406.5717529296875,97.533486328125C406.1637529296875,98.133486328125,405.6117529296875,98.649486328125,404.8917529296875,99.105486328125C404.2557529296875,98.697486328125,403.7757529296875,98.229486328125,403.43975292968753,97.689486328125ZM399.6957529296875,95.757486328125C399.1557529296875,97.617486328125,398.2917529296875,99.261486328125,397.1037529296875,100.701486328125L397.35575292968747,101.565486328125C397.7997529296875,101.085486328125,398.2077529296875,100.569486328125,398.5797529296875,100.029486328125L398.5797529296875,106.785486328125L399.4077529296875,106.785486328125L399.4077529296875,98.661486328125C399.8277529296875,97.869486328125,400.1757529296875,97.017486328125,400.46375292968753,96.117486328125L399.6957529296875,95.757486328125ZM400.4757529296875,97.88148632812499L400.4757529296875,104.673486328125L401.2557529296875,104.673486328125L401.2557529296875,97.88148632812499L400.4757529296875,97.88148632812499ZM405.2757529296875,100.833486328125C404.8677529296875,101.145486328125,404.4357529296875,101.421486328125,403.9557529296875,101.661486328125C403.40375292968747,101.913486328125,402.7917529296875,102.117486328125,402.1197529296875,102.285486328125L402.5397529296875,102.969486328125C403.35575292968747,102.705486328125,404.0157529296875,102.441486328125,404.5197529296875,102.177486328125C404.98775292968753,101.925486328125,405.4437529296875,101.61348632812499,405.8997529296875,101.229486328125L405.2757529296875,100.833486328125ZM406.4157529296875,101.721486328125C405.5277529296875,102.77748632812501,404.1957529296875,103.545486328125,402.4197529296875,104.013486328125L402.7677529296875,104.745486328125C404.6277529296875,104.217486328125,406.0317529296875,103.365486328125,406.9917529296875,102.165486328125L406.4157529296875,101.721486328125ZM402.2877529296875,106.857486328125C403.43975292968753,106.545486328125,404.5557529296875,106.077486328125,405.6357529296875,105.477486328125C406.7157529296875,104.853486328125,407.5197529296875,104.121486328125,408.0477529296875,103.293486328125L407.4357529296875,102.837486328125C406.8357529296875,103.629486328125,406.1037529296875,104.27748632812501,405.2517529296875,104.769486328125C404.3997529296875,105.273486328125,403.2957529296875,105.705486328125,401.9277529296875,106.065486328125L402.2877529296875,106.857486328125ZM415.8237529296875,98.373486328125L418.1277529296875,98.373486328125C418.1037529296875,100.101486328125,417.7437529296875,101.589486328125,417.05975292968753,102.825486328125C416.4357529296875,101.793486328125,415.9197529296875,100.569486328125,415.53575292968753,99.177486328125C415.6317529296875,98.925486328125,415.7277529296875,98.661486328125,415.8237529296875,98.373486328125ZM418.9557529296875,98.373486328125L419.8917529296875,98.373486328125L419.8917529296875,97.545486328125L416.0637529296875,97.545486328125C416.1837529296875,97.041486328125,416.3037529296875,96.489486328125,416.3997529296875,95.901486328125L415.55975292968753,95.757486328125C415.2477529296875,97.857486328125,414.6597529296875,99.525486328125,413.78375292968747,100.749486328125L414.3117529296875,101.421486328125C414.5877529296875,101.061486328125,414.8397529296875,100.653486328125,415.0797529296875,100.197486328125C415.4757529296875,101.481486328125,415.9797529296875,102.609486328125,416.5797529296875,103.581486328125C415.7997529296875,104.637486328125,414.7317529296875,105.453486328125,413.3757529296875,106.053486328125L413.9157529296875,106.761486328125C415.2117529296875,106.149486328125,416.2677529296875,105.333486328125,417.05975292968753,104.313486328125C417.8157529296875,105.36948632812499,418.7277529296875,106.197486328125,419.78375292968747,106.797486328125L420.2757529296875,106.077486328125C419.2197529296875,105.477486328125,418.3197529296875,104.649486328125,417.5637529296875,103.593486328125C418.43975292968753,102.189486328125,418.9077529296875,100.449486328125,418.9557529296875,98.373486328125ZM410.7957529296875,104.949486328125L410.7957529296875,101.085486328125L413.4837529296875,101.085486328125L413.4837529296875,96.621486328125L409.35575292968747,96.621486328125L409.35575292968747,97.449486328125L412.6437529296875,97.449486328125L412.6437529296875,100.293486328125L409.9557529296875,100.293486328125L409.9557529296875,104.769486328125C409.9557529296875,105.081486328125,409.8357529296875,105.273486328125,409.6197529296875,105.36948632812499L409.8717529296875,106.11348632812499C411.4077529296875,105.609486328125,412.7877529296875,105.045486328125,414.03575292968753,104.445486328125L413.90375292968747,103.653486328125C412.8477529296875,104.181486328125,411.8037529296875,104.61348632812499,410.7957529296875,104.949486328125Z" fill="#FFFFFF" fill-opacity="0.699999988079071"/></g><g><g><rect x="33.0802001953125" y="16.184814453125" width="126.9991455078125" height="33.12516403198242" rx="16.56258201599121" fill="#FFFFFF" fill-opacity="0.10000000149011612"/><rect x="33.5802001953125" y="16.684814453125" width="125.9991455078125" height="32.12516403198242" rx="16.06258201599121" fill-opacity="0" stroke-opacity="0.30000001192092896" stroke="#FFFFFF" fill="none" stroke-width="1"/><g><path d="M54.5922001953125,26.603406005859377L53.9062001953125,27.261406005859374C54.7602001953125,27.919406005859376,55.4322001953125,28.549406005859375,55.9082001953125,29.137406005859376L56.5662001953125,28.465406005859375C56.0342001953125,27.849406005859375,55.3762001953125,27.219406005859376,54.5922001953125,26.603406005859377ZM54.3682001953125,30.047406005859376L53.6822001953125,30.691406005859374C54.5082001953125,31.405406005859376,55.1522001953125,32.07740600585937,55.6282001953125,32.707406005859376L56.2862001953125,32.049406005859375C55.7682001953125,31.377406005859378,55.1242001953125,30.719406005859376,54.3682001953125,30.047406005859376ZM55.6002001953125,33.81340600585938C55.0682001953125,35.43740600585937,54.4522001953125,37.033406005859376,53.7522001953125,38.58740600585938L54.676200195312504,38.979406005859374C55.3202001953125,37.467406005859374,55.9222001953125,35.857406005859374,56.4542001953125,34.149406005859376L55.6002001953125,33.81340600585938ZM61.816200195312504,26.995406005859376L57.1262001953125,26.995406005859376L57.1262001953125,35.619406005859375L58.0222001953125,35.619406005859375L58.0222001953125,27.863406005859375L60.9202001953125,27.863406005859375L60.9202001953125,35.53540600585937L61.816200195312504,35.53540600585937L61.816200195312504,26.995406005859376ZM60.3182001953125,36.19340600585937L59.7022001953125,36.781406005859374C60.5982001953125,37.62140600585938,61.2842001953125,38.405406005859376,61.7882001953125,39.147406005859374L62.4602001953125,38.47540600585938C61.8862001953125,37.719406005859376,61.1722001953125,36.94940600585937,60.3182001953125,36.19340600585937ZM59.0582001953125,28.829406005859376L59.0582001953125,33.26740600585937C59.0302001953125,34.56940600585938,58.8202001953125,35.619406005859375,58.4562001953125,36.43140600585937C58.0642001953125,37.21540600585938,57.3642001953125,37.845406005859374,56.356200195312496,38.32140600585937L56.8882001953125,39.16140600585938C57.9242001953125,38.65740600585937,58.6802001953125,37.957406005859376,59.1422001953125,37.089406005859374C59.6182001953125,36.137406005859376,59.8702001953125,34.863406005859375,59.8982001953125,33.26740600585937L59.8982001953125,28.829406005859376L59.0582001953125,28.829406005859376ZM64.8402001953125,39.03540600585937C65.5682001953125,39.03540600585937,65.9462001953125,38.62940600585937,65.9462001953125,37.845406005859374L65.9462001953125,26.393406005859376L64.9942001953125,26.393406005859376L64.9942001953125,37.607406005859374C64.9942001953125,37.97140600585938,64.8262001953125,38.16740600585938,64.5042001953125,38.16740600585938C64.0562001953125,38.16740600585938,63.5802001953125,38.13940600585937,63.0902001953125,38.097406005859376L63.3002001953125,39.03540600585937L64.8402001953125,39.03540600585937ZM62.9222001953125,27.541406005859375L62.9222001953125,36.277406005859376L63.804200195312504,36.277406005859376L63.804200195312504,27.541406005859375L62.9222001953125,27.541406005859375ZM73.6602001953125,32.945406005859375L73.6602001953125,36.93540600585938C73.2122001953125,37.01940600585937,72.7502001953125,37.089406005859374,72.2882001953125,37.14540600585937L72.54020019531251,38.097406005859376C73.9402001953125,37.85940600585938,75.2562001953125,37.56540600585937,76.4742001953125,37.21540600585938L76.4742001953125,36.277406005859376C75.8862001953125,36.445406005859375,75.2702001953125,36.59940600585938,74.6542001953125,36.73940600585938L74.6542001953125,32.945406005859375L75.9702001953125,32.945406005859375L75.9702001953125,32.00740600585937L72.3442001953125,32.00740600585937L72.3442001953125,32.945406005859375L73.6602001953125,32.945406005859375ZM78.9662001953125,38.93740600585937C79.6102001953125,38.93740600585937,80.1562001953125,37.92940600585938,80.6182001953125,35.91340600585937L79.8202001953125,35.26940600585937C79.54020019531251,36.93540600585938,79.2462001953125,37.78940600585938,78.9662001953125,37.845406005859374C78.54620019531251,37.78940600585938,78.1822001953125,36.97740600585938,77.8742001953125,35.381406005859375C77.6502001953125,34.06540600585937,77.4962001953125,32.217406005859374,77.4262001953125,29.809406005859376L80.1982001953125,29.809406005859376L80.1982001953125,28.829406005859376L77.4122001953125,28.829406005859376C77.3842001953125,28.031406005859374,77.3842001953125,27.177406005859375,77.3842001953125,26.267406005859375L76.4042001953125,26.267406005859375C76.4042001953125,27.163406005859375,76.4042001953125,28.017406005859375,76.4322001953125,28.829406005859376L72.02220019531251,28.829406005859376L72.02220019531251,29.809406005859376L76.4602001953125,29.809406005859376C76.5162001953125,31.643406005859376,76.61420019531249,33.183406005859375,76.7682001953125,34.415406005859374C76.9642001953125,35.87140600585938,77.27220019531251,37.00540600585937,77.6922001953125,37.845406005859374C78.0562001953125,38.573406005859376,78.4902001953125,38.93740600585937,78.9662001953125,38.93740600585937ZM78.5882001953125,26.253406005859375L77.8742001953125,26.687406005859376C78.4622001953125,27.359406005859377,78.9382001953125,27.961406005859374,79.2882001953125,28.507406005859373L79.9882001953125,28.017406005859375C79.6522001953125,27.513406005859373,79.1902001953125,26.925406005859376,78.5882001953125,26.253406005859375ZM69.3482001953125,26.449406005859373L68.6482001953125,27.135406005859373C69.6002001953125,27.891406005859373,70.3562001953125,28.619406005859375,70.9162001953125,29.305406005859375L71.60220019531249,28.605406005859376C70.9862001953125,27.877406005859374,70.2442001953125,27.163406005859375,69.3482001953125,26.449406005859373ZM67.6682001953125,30.593406005859375L67.6682001953125,31.559406005859373L69.6282001953125,31.559406005859373L69.6282001953125,37.17340600585938C69.6282001953125,37.38340600585937,69.5162001953125,37.579406005859376,69.3202001953125,37.747406005859375L69.7122001953125,38.643406005859376C70.5802001953125,37.99940600585938,71.3922001953125,37.25740600585937,72.1622001953125,36.41740600585938L71.8962001953125,35.35340600585938C71.4482001953125,35.84340600585938,71.02820019531251,36.29140600585937,70.60820019531249,36.69740600585938L70.60820019531249,30.593406005859375L67.6682001953125,30.593406005859375ZM87.1282001953125,28.549406005859375C86.8482001953125,28.941406005859374,86.54020019531251,29.347406005859376,86.2182001953125,29.753406005859375L82.52220019531251,29.753406005859375L82.52220019531251,30.565406005859373L85.56020019531249,30.565406005859373C85.2242001953125,30.957406005859376,84.8742001953125,31.349406005859375,84.5102001953125,31.769406005859373C85.4762001953125,31.951406005859376,86.4422001953125,32.16140600585938,87.4222001953125,32.41340600585937C86.1902001953125,32.805406005859375,84.5102001953125,33.00140600585937,82.38220019531249,33.00140600585937L82.9282001953125,33.82740600585937C85.30820019531251,33.799406005859375,87.2262001953125,33.43540600585938,88.6962001953125,32.74940600585938C90.1102001953125,33.12740600585938,91.5242001953125,33.561406005859375,92.9242001953125,34.06540600585937L93.5122001953125,33.29540600585938C92.2102001953125,32.86140600585938,90.9362001953125,32.48340600585938,89.7042001953125,32.17540600585937C90.27820019531251,31.755406005859374,90.81020019531249,31.223406005859374,91.31420019531251,30.565406005859373L93.6662001953125,30.565406005859373L93.6662001953125,29.753406005859375L87.3242001953125,29.753406005859375C87.5482001953125,29.459406005859375,87.7862001953125,29.151406005859375,88.0382001953125,28.815406005859373L87.1282001953125,28.549406005859375ZM88.58420019531249,31.895406005859375C87.7022001953125,31.671406005859374,86.83420019531249,31.489406005859376,85.9802001953125,31.349406005859375C86.1902001953125,31.125406005859375,86.4282001953125,30.859406005859377,86.6802001953125,30.565406005859373L90.2362001953125,30.565406005859373C89.81620019531249,31.069406005859374,89.2562001953125,31.503406005859375,88.58420019531249,31.895406005859375ZM93.7082001953125,27.415406005859374L88.62620019531249,27.415406005859374C88.4582001953125,26.995406005859376,88.29020019531251,26.603406005859377,88.09420019531251,26.253406005859375L87.0442001953125,26.421406005859374C87.2542001953125,26.729406005859374,87.4502001953125,27.051406005859377,87.63220019531249,27.415406005859374L82.4522001953125,27.415406005859374L82.4522001953125,29.389406005859374L83.4042001953125,29.389406005859374L83.4042001953125,28.269406005859373L92.7562001953125,28.269406005859373L92.7562001953125,29.389406005859374L93.7082001953125,29.389406005859374L93.7082001953125,27.415406005859374ZM82.0882001953125,34.63940600585937L82.0882001953125,35.53540600585937L86.6942001953125,35.53540600585937C85.82620019531251,36.43140600585937,84.2302001953125,37.229406005859374,81.9062001953125,37.92940600585938L82.4662001953125,38.82540600585938C84.9862001953125,37.90140600585937,86.6942001953125,36.80940600585937,87.59020019531249,35.549406005859375L87.59020019531249,39.119406005859375L88.62620019531249,39.119406005859375L88.62620019531249,35.591406005859376C89.6622001953125,36.87940600585937,91.3982001953125,37.92940600585938,93.83420019531249,38.72740600585938L94.2682001953125,37.845406005859374C92.12620019531249,37.271406005859376,90.5442001953125,36.50140600585937,89.5362001953125,35.53540600585937L94.0862001953125,35.53540600585937L94.0862001953125,34.63940600585937L88.62620019531249,34.63940600585937L88.62620019531249,33.54740600585937L87.59020019531249,33.54740600585937L87.59020019531249,34.63940600585937L82.0882001953125,34.63940600585937ZM99.4902001953125,27.121406005859374L99.4902001953125,28.087406005859375L100.58220019531251,28.087406005859375C100.35820019531249,30.565406005859373,99.7002001953125,32.525406005859374,98.60820019531249,33.95340600585938L99.1122001953125,34.933406005859375C99.4342001953125,34.527406005859376,99.7282001953125,34.079406005859376,100.0082001953125,33.589406005859374C100.58220019531251,33.95340600585938,101.1702001953125,34.415406005859374,101.7582001953125,34.98940600585938C101.11420019531249,36.36140600585938,100.2322001953125,37.439406005859375,99.1122001953125,38.20940600585938L99.6162001953125,39.10540600585938C101.9122001953125,37.537406005859374,103.32620019531251,34.82140600585937,103.8302001953125,30.943406005859373L103.8302001953125,30.075406005859374L101.2542001953125,30.075406005859374C101.3802001953125,29.445406005859375,101.4782001953125,28.787406005859374,101.5482001953125,28.087406005859375L104.09620019531249,28.087406005859375L104.09620019531249,27.121406005859374L99.4902001953125,27.121406005859374ZM100.4142001953125,32.76340600585937C100.6522001953125,32.217406005859374,100.8622001953125,31.629406005859373,101.0302001953125,30.999406005859377L102.8922001953125,30.999406005859377C102.7242001953125,32.091406005859376,102.4862001953125,33.113406005859375,102.1502001953125,34.037406005859374C101.6042001953125,33.561406005859375,101.0302001953125,33.12740600585938,100.4142001953125,32.76340600585937ZM106.6442001953125,39.049406005859375C107.4842001953125,39.049406005859375,107.9182001953125,38.61540600585938,107.9182001953125,37.775406005859374L107.9182001953125,26.351406005859374L106.9102001953125,26.351406005859374L106.9102001953125,37.52340600585937C106.9102001953125,37.94340600585937,106.7002001953125,38.153406005859374,106.2942001953125,38.153406005859374C105.84620019531249,38.153406005859374,105.3842001953125,38.125406005859375,104.8802001953125,38.08340600585937L105.1042001953125,39.049406005859375L106.6442001953125,39.049406005859375ZM96.9982001953125,31.559406005859373L96.9982001953125,39.17540600585937L98.0062001953125,39.17540600585937L98.0062001953125,29.795406005859377C98.4822001953125,28.815406005859373,98.88820019531249,27.779406005859375,99.1962001953125,26.673406005859377L98.2442001953125,26.239406005859376C97.6842001953125,28.409406005859374,96.7882001953125,30.327406005859373,95.5562001953125,32.00740600585937L95.8922001953125,33.07140600585937C96.28420019531251,32.595406005859374,96.6482001953125,32.091406005859376,96.9982001953125,31.559406005859373ZM104.6982001953125,27.639406005859374L104.6982001953125,36.31940600585938L105.6222001953125,36.31940600585938L105.6222001953125,27.639406005859374L104.6982001953125,27.639406005859374ZM112.4542001953125,29.893406005859376L115.81420019531251,29.893406005859376L115.81420019531251,33.12740600585938L111.6982001953125,33.12740600585938L111.6982001953125,34.107406005859374L115.81420019531251,34.107406005859374L115.81420019531251,37.66340600585937L110.0042001953125,37.66340600585937L110.0042001953125,38.671406005859374L122.3382001953125,38.671406005859374L122.3382001953125,37.66340600585937L116.8362001953125,37.66340600585937L116.8362001953125,34.107406005859374L121.1622001953125,34.107406005859374L121.1622001953125,33.12740600585938L116.8362001953125,33.12740600585938L116.8362001953125,29.893406005859376L121.4422001953125,29.893406005859376L121.4422001953125,28.913406005859375L116.8362001953125,28.913406005859375L116.8362001953125,26.421406005859374L115.81420019531251,26.421406005859374L115.81420019531251,28.913406005859375L112.8182001953125,28.913406005859375C113.02820019531251,28.283406005859376,113.2102001953125,27.611406005859376,113.36420019531249,26.883406005859374L112.3422001953125,26.701406005859376C111.8802001953125,29.039406005859377,110.9842001953125,30.901406005859375,109.6682001953125,32.27340600585937L110.3122001953125,33.09940600585938C111.1802001953125,32.23140600585938,111.8942001953125,31.167406005859377,112.4542001953125,29.893406005859376ZM133.4962001953125,26.267406005859375L132.8522001953125,26.883406005859374C133.5662001953125,27.429406005859377,134.1262001953125,27.947406005859374,134.5462001953125,28.451406005859376L131.9282001953125,28.451406005859376C131.9002001953125,27.779406005859375,131.88620019531248,27.065406005859373,131.88620019531248,26.281406005859374L130.85020019531248,26.281406005859374C130.85020019531248,27.037406005859374,130.8642001953125,27.751406005859373,130.8922001953125,28.451406005859376L125.1102001953125,28.451406005859376L125.1102001953125,33.113406005859375C125.0682001953125,35.39540600585937,124.6062001953125,37.17340600585938,123.7102001953125,38.461406005859374L124.4802001953125,39.147406005859374C125.5162001953125,37.63540600585937,126.0762001953125,35.619406005859375,126.1322001953125,33.113406005859375L126.1322001953125,32.69340600585937L128.5542001953125,32.69340600585937C128.5262001953125,34.23340600585938,128.4842001953125,35.241406005859375,128.4002001953125,35.717406005859374C128.3162001953125,36.10940600585938,128.12020019531252,36.31940600585938,127.8122001953125,36.33340600585937C127.4342001953125,36.33340600585937,126.9722001953125,36.31940600585938,126.4262001953125,36.29140600585937L126.7342001953125,37.201406005859376C127.1822001953125,37.229406005859374,127.5882001953125,37.25740600585937,127.9242001953125,37.25740600585937C128.62420019531248,37.229406005859374,129.0582001953125,36.921406005859374,129.2402001953125,36.31940600585938C129.42220019531248,35.63340600585937,129.5342001953125,34.107406005859374,129.5622001953125,31.741406005859375L126.1322001953125,31.741406005859375L126.1322001953125,29.417406005859377L130.93420019531248,29.417406005859377C131.0462001953125,31.167406005859377,131.2422001953125,32.637406005859376,131.5502001953125,33.81340600585938C131.7042001953125,34.415406005859374,131.88620019531248,34.97540600585938,132.0822001953125,35.49340600585938C131.1162001953125,36.711406005859374,129.9262001953125,37.63540600585937,128.5262001953125,38.265406005859376L129.0862001953125,39.10540600585938C130.4022001953125,38.51740600585937,131.5502001953125,37.66340600585937,132.5302001953125,36.515406005859376C132.7402001953125,36.94940600585937,132.9782001953125,37.341406005859376,133.2302001953125,37.677406005859375C133.9022001953125,38.51740600585937,134.5322001953125,38.93740600585937,135.12020019531252,38.93740600585937C135.75020019531252,38.93740600585937,136.22620019531252,37.99940600585938,136.5622001953125,36.137406005859376L135.6522001953125,35.63340600585937C135.4422001953125,37.07540600585938,135.2042001953125,37.80340600585937,134.9522001953125,37.817406005859375C134.67220019531248,37.817406005859375,134.2942001953125,37.48140600585938,133.8322001953125,36.80940600585937C133.60820019531252,36.48740600585938,133.39820019531248,36.095406005859374,133.2022001953125,35.647406005859374C134.0982001953125,34.387406005859376,134.82620019531248,32.81940600585938,135.38620019531248,30.971406005859375L134.47620019531252,30.579406005859376C134.0422001953125,32.07740600585937,133.4822001953125,33.393406005859376,132.7822001953125,34.51340600585937C132.68420019531248,34.20540600585937,132.5862001953125,33.88340600585937,132.5022001953125,33.533406005859376C132.25020019531252,32.525406005859374,132.0682001953125,31.153406005859374,131.9702001953125,29.417406005859377L136.2822001953125,29.417406005859377L136.2822001953125,28.451406005859376L134.5742001953125,28.451406005859376L135.2182001953125,27.807406005859374C134.7422001953125,27.289406005859377,134.1682001953125,26.771406005859376,133.4962001953125,26.267406005859375Z" fill="url(#master_svg0_113_18584)" fill-opacity="1"/></g></g></g><g><g><rect x="254.99951171875" y="16.184814453125" width="96" height="33.12516403198242" rx="16.56258201599121" fill="#FFFFFF" fill-opacity="0.10000000149011612"/><rect x="255.49951171875" y="16.684814453125" width="95" height="32.12516403198242" rx="16.06258201599121" fill-opacity="0" stroke-opacity="0.30000001192092896" stroke="#FFFFFF" fill="none" stroke-width="1"/><g><path d="M287.75351171875,29.655406005859376L283.20351171875,30.229406005859374C283.11951171875,29.095406005859374,283.07751171875,27.779406005859375,283.07751171875,26.281406005859374L282.04151171875,26.281406005859374C282.05551171875,27.821406005859373,282.11151171875,29.179406005859377,282.20951171875,30.355406005859376L279.10151171875,30.761406005859374L279.25551171875,31.727406005859375L282.29351171875,31.335406005859376C282.39151171875,32.37140600585938,282.53151171875,33.22540600585938,282.71351171875,33.92540600585937C283.10551171875,35.49340600585938,283.69351171875,36.76740600585937,284.49151171875,37.747406005859375C285.21951171875,38.62940600585937,285.93351171875,39.07740600585937,286.61951171875,39.07740600585937C286.99751171875,39.06340600585938,287.31951171875,38.85340600585938,287.57151171875,38.44740600585938C287.87951171875,37.887406005859376,288.11751171875,37.033406005859376,288.29951171875,35.88540600585937L287.41751171875,35.381406005859375C287.22151171875,37.14540600585937,286.94151171875,38.04140600585937,286.56351171875,38.055406005859375C286.08751171875,38.04140600585937,285.56951171875,37.66340600585937,285.02351171875,36.90740600585937C284.42151171875,36.095406005859374,283.95951171875,34.97540600585938,283.62351171875,33.51940600585937C283.48351171875,32.875406005859375,283.37151171875,32.10540600585938,283.28751171875,31.209406005859375L287.90751171875,30.621406005859374L287.75351171875,29.655406005859376ZM277.35151171875,31.293406005859374L277.35151171875,39.17540600585937L278.38751171875,39.17540600585937L278.38751171875,29.711406005859374C278.93351171875,28.773406005859375,279.38151171875,27.765406005859376,279.74551171875,26.701406005859376L278.80751171875,26.253406005859375C278.10751171875,28.437406005859376,277.00151171875,30.383406005859374,275.46151171875,32.07740600585937L275.78351171875,33.12740600585938C276.34351171875,32.53940600585938,276.87551171875,31.937406005859373,277.35151171875,31.293406005859374ZM284.60351171875,26.379406005859376L283.95951171875,27.009406005859375C284.85551171875,27.779406005859375,285.56951171875,28.507406005859373,286.07351171875,29.193406005859373L286.77351171875,28.507406005859373C286.18551171875,27.807406005859374,285.45751171875,27.093406005859375,284.60351171875,26.379406005859376ZM294.29151171875003,31.223406005859374L291.71551171875,31.223406005859374C292.07951171875,30.243406005859377,292.34551171875,29.193406005859373,292.54151171875003,28.073406005859376L294.65551171875,28.073406005859376L294.65551171875,27.093406005859375L289.88151171875,27.093406005859375L289.88151171875,28.073406005859376L291.58951171875,28.073406005859376C291.25351171875,30.159406005859374,290.55351171875,32.021406005859376,289.48951171875,33.64540600585937L289.99351171875,34.457406005859376C290.32951171875,33.98140600585938,290.63751171875,33.491406005859375,290.91751171875,32.98740600585938L290.91751171875,38.68540600585938L291.85551171875,38.68540600585938L291.85551171875,37.62140600585938L293.36751171875,37.62140600585938L293.36751171875,38.41940600585937L294.29151171875003,38.41940600585937L294.29151171875003,31.223406005859374ZM291.85551171875,36.711406005859374L291.85551171875,32.147406005859374L293.36751171875,32.147406005859374L293.36751171875,36.711406005859374L291.85551171875,36.711406005859374ZM296.18151171875,28.829406005859376L295.42551171875,33.36540600585938L301.08151171875,33.36540600585938C301.08151171875,35.60540600585938,300.96951171875,36.963406005859376,300.74551171875,37.439406005859375C300.53551171875,37.887406005859376,299.89151171875,38.125406005859375,298.81351171875,38.125406005859375C298.56151171875,38.125406005859375,298.12751171875,38.097406005859376,297.51151171875,38.04140600585937L297.79151171875003,39.021406005859376C298.23951171875,39.049406005859375,298.65951171875,39.06340600585938,299.05151171875,39.06340600585938C300.28351171875,39.06340600585938,301.08151171875,38.79740600585937,301.47351171875,38.293406005859374C301.83751171875,37.76140600585937,302.03351171875,35.81540600585937,302.03351171875,32.427406005859375L300.54951171875,32.427406005859375L301.31951171875,26.897406005859374L295.29951171875,26.897406005859374L295.29951171875,27.849406005859375L300.22751171875,27.849406005859375L299.52751171875,32.427406005859375L296.55951171875,32.427406005859375L297.17551171875,28.899406005859376L296.18151171875,28.829406005859376ZM294.99151171875,35.143406005859376L294.99151171875,36.095406005859374L300.11551171875,36.095406005859374L300.11551171875,35.143406005859376L294.99151171875,35.143406005859376ZM306.37351171875,29.893406005859376L309.73351171875,29.893406005859376L309.73351171875,33.12740600585938L305.61751171875,33.12740600585938L305.61751171875,34.107406005859374L309.73351171875,34.107406005859374L309.73351171875,37.66340600585937L303.92351171875,37.66340600585937L303.92351171875,38.671406005859374L316.25751171875,38.671406005859374L316.25751171875,37.66340600585937L310.75551171875,37.66340600585937L310.75551171875,34.107406005859374L315.08151171875,34.107406005859374L315.08151171875,33.12740600585938L310.75551171875,33.12740600585938L310.75551171875,29.893406005859376L315.36151171875,29.893406005859376L315.36151171875,28.913406005859375L310.75551171875,28.913406005859375L310.75551171875,26.421406005859374L309.73351171875,26.421406005859374L309.73351171875,28.913406005859375L306.73751171875,28.913406005859375C306.94751171875,28.283406005859376,307.12951171875,27.611406005859376,307.28351171875,26.883406005859374L306.26151171875,26.701406005859376C305.79951171875,29.039406005859377,304.90351171875,30.901406005859375,303.58751171875,32.27340600585937L304.23151171874997,33.09940600585938C305.09951171875,32.23140600585938,305.81351171875,31.167406005859377,306.37351171875,29.893406005859376ZM327.41551171875,26.267406005859375L326.77151171875,26.883406005859374C327.48551171875,27.429406005859377,328.04551171875,27.947406005859374,328.46551171875,28.451406005859376L325.84751171875,28.451406005859376C325.81951171875,27.779406005859375,325.80551171875,27.065406005859373,325.80551171875,26.281406005859374L324.76951171875,26.281406005859374C324.76951171875,27.037406005859374,324.78351171875,27.751406005859373,324.81151171875,28.451406005859376L319.02951171875,28.451406005859376L319.02951171875,33.113406005859375C318.98751171875,35.39540600585937,318.52551171875,37.17340600585938,317.62951171875,38.461406005859374L318.39951171875,39.147406005859374C319.43551171875,37.63540600585937,319.99551171875,35.619406005859375,320.05151171875,33.113406005859375L320.05151171875,32.69340600585937L322.47351171875,32.69340600585937C322.44551171875,34.23340600585938,322.40351171875,35.241406005859375,322.31951171875,35.717406005859374C322.23551171875,36.10940600585938,322.03951171875,36.31940600585938,321.73151171874997,36.33340600585937C321.35351171875,36.33340600585937,320.89151171875,36.31940600585938,320.34551171875,36.29140600585937L320.65351171875,37.201406005859376C321.10151171875,37.229406005859374,321.50751171875,37.25740600585937,321.84351171875,37.25740600585937C322.54351171875,37.229406005859374,322.97751171875,36.921406005859374,323.15951171874997,36.31940600585938C323.34151171875,35.63340600585937,323.45351171875,34.107406005859374,323.48151171874997,31.741406005859375L320.05151171875,31.741406005859375L320.05151171875,29.417406005859377L324.85351171875,29.417406005859377C324.96551171875,31.167406005859377,325.16151171875,32.637406005859376,325.46951171875,33.81340600585938C325.62351171875,34.415406005859374,325.80551171875,34.97540600585938,326.00151171875,35.49340600585938C325.03551171875,36.711406005859374,323.84551171875,37.63540600585937,322.44551171875,38.265406005859376L323.00551171875,39.10540600585938C324.32151171875,38.51740600585937,325.46951171875,37.66340600585937,326.44951171875,36.515406005859376C326.65951171874997,36.94940600585937,326.89751171875,37.341406005859376,327.14951171875,37.677406005859375C327.82151171875,38.51740600585937,328.45151171875,38.93740600585937,329.03951171875,38.93740600585937C329.66951171875,38.93740600585937,330.14551171875,37.99940600585938,330.48151171874997,36.137406005859376L329.57151171875,35.63340600585937C329.36151171875,37.07540600585938,329.12351171875,37.80340600585937,328.87151171875,37.817406005859375C328.59151171875,37.817406005859375,328.21351171875,37.48140600585938,327.75151171875,36.80940600585937C327.52751171875,36.48740600585938,327.31751171875,36.095406005859374,327.12151171875,35.647406005859374C328.01751171875003,34.387406005859376,328.74551171875,32.81940600585938,329.30551171875,30.971406005859375L328.39551171875,30.579406005859376C327.96151171875,32.07740600585937,327.40151171875,33.393406005859376,326.70151171875,34.51340600585937C326.60351171875,34.20540600585937,326.50551171875,33.88340600585937,326.42151171875,33.533406005859376C326.16951171875,32.525406005859374,325.98751171875,31.153406005859374,325.88951171875,29.417406005859377L330.20151171875,29.417406005859377L330.20151171875,28.451406005859376L328.49351171875,28.451406005859376L329.13751171875,27.807406005859374C328.66151171875,27.289406005859377,328.08751171875,26.771406005859376,327.41551171875,26.267406005859375Z" fill="url(#master_svg1_113_18584)" fill-opacity="1"/></g></g></g><g><g><rect x="445.9197998046875" y="16.184814453125" width="96" height="33.12516403198242" rx="16.56258201599121" fill="#FFFFFF" fill-opacity="0.10000000149011612"/><rect x="446.4197998046875" y="16.684814453125" width="95" height="32.12516403198242" rx="16.06258201599121" fill-opacity="0" stroke-opacity="0.30000001192092896" stroke="#FFFFFF" fill="none" stroke-width="1"/><g><path d="M467.4317998046875,26.603406005859377L466.7457998046875,27.261406005859374C467.5997998046875,27.919406005859376,468.2717998046875,28.549406005859375,468.7477998046875,29.137406005859376L469.4057998046875,28.465406005859375C468.8737998046875,27.849406005859375,468.2157998046875,27.219406005859376,467.4317998046875,26.603406005859377ZM467.2077998046875,30.047406005859376L466.5217998046875,30.691406005859374C467.3477998046875,31.405406005859376,467.9917998046875,32.07740600585937,468.4677998046875,32.707406005859376L469.1257998046875,32.049406005859375C468.6077998046875,31.377406005859378,467.9637998046875,30.719406005859376,467.2077998046875,30.047406005859376ZM468.4397998046875,33.81340600585938C467.9077998046875,35.43740600585937,467.2917998046875,37.033406005859376,466.5917998046875,38.58740600585938L467.5157998046875,38.979406005859374C468.1597998046875,37.467406005859374,468.7617998046875,35.857406005859374,469.2937998046875,34.149406005859376L468.4397998046875,33.81340600585938ZM474.6557998046875,26.995406005859376L469.9657998046875,26.995406005859376L469.9657998046875,35.619406005859375L470.8617998046875,35.619406005859375L470.8617998046875,27.863406005859375L473.7597998046875,27.863406005859375L473.7597998046875,35.53540600585937L474.6557998046875,35.53540600585937L474.6557998046875,26.995406005859376ZM473.1577998046875,36.19340600585937L472.5417998046875,36.781406005859374C473.4377998046875,37.62140600585938,474.1237998046875,38.405406005859376,474.6277998046875,39.147406005859374L475.2997998046875,38.47540600585938C474.7257998046875,37.719406005859376,474.0117998046875,36.94940600585937,473.1577998046875,36.19340600585937ZM471.8977998046875,28.829406005859376L471.8977998046875,33.26740600585937C471.8697998046875,34.56940600585938,471.6597998046875,35.619406005859375,471.2957998046875,36.43140600585937C470.9037998046875,37.21540600585938,470.2037998046875,37.845406005859374,469.1957998046875,38.32140600585937L469.7277998046875,39.16140600585938C470.7637998046875,38.65740600585937,471.5197998046875,37.957406005859376,471.9817998046875,37.089406005859374C472.4577998046875,36.137406005859376,472.7097998046875,34.863406005859375,472.7377998046875,33.26740600585937L472.7377998046875,28.829406005859376L471.8977998046875,28.829406005859376ZM477.6797998046875,39.03540600585937C478.4077998046875,39.03540600585937,478.7857998046875,38.62940600585937,478.7857998046875,37.845406005859374L478.7857998046875,26.393406005859376L477.8337998046875,26.393406005859376L477.8337998046875,37.607406005859374C477.8337998046875,37.97140600585938,477.6657998046875,38.16740600585938,477.3437998046875,38.16740600585938C476.8957998046875,38.16740600585938,476.4197998046875,38.13940600585937,475.9297998046875,38.097406005859376L476.1397998046875,39.03540600585937L477.6797998046875,39.03540600585937ZM475.7617998046875,27.541406005859375L475.7617998046875,36.277406005859376L476.6437998046875,36.277406005859376L476.6437998046875,27.541406005859375L475.7617998046875,27.541406005859375ZM486.4997998046875,32.945406005859375L486.4997998046875,36.93540600585938C486.0517998046875,37.01940600585937,485.5897998046875,37.089406005859374,485.12779980468747,37.14540600585937L485.3797998046875,38.097406005859376C486.7797998046875,37.85940600585938,488.0957998046875,37.56540600585937,489.3137998046875,37.21540600585938L489.3137998046875,36.277406005859376C488.7257998046875,36.445406005859375,488.1097998046875,36.59940600585938,487.4937998046875,36.73940600585938L487.4937998046875,32.945406005859375L488.8097998046875,32.945406005859375L488.8097998046875,32.00740600585937L485.1837998046875,32.00740600585937L485.1837998046875,32.945406005859375L486.4997998046875,32.945406005859375ZM491.8057998046875,38.93740600585937C492.4497998046875,38.93740600585937,492.9957998046875,37.92940600585938,493.4577998046875,35.91340600585937L492.6597998046875,35.26940600585937C492.3797998046875,36.93540600585938,492.0857998046875,37.78940600585938,491.8057998046875,37.845406005859374C491.3857998046875,37.78940600585938,491.0217998046875,36.97740600585938,490.7137998046875,35.381406005859375C490.4897998046875,34.06540600585937,490.3357998046875,32.217406005859374,490.2657998046875,29.809406005859376L493.0377998046875,29.809406005859376L493.0377998046875,28.829406005859376L490.2517998046875,28.829406005859376C490.2237998046875,28.031406005859374,490.2237998046875,27.177406005859375,490.2237998046875,26.267406005859375L489.2437998046875,26.267406005859375C489.2437998046875,27.163406005859375,489.2437998046875,28.017406005859375,489.2717998046875,28.829406005859376L484.8617998046875,28.829406005859376L484.8617998046875,29.809406005859376L489.2997998046875,29.809406005859376C489.3557998046875,31.643406005859376,489.4537998046875,33.183406005859375,489.6077998046875,34.415406005859374C489.8037998046875,35.87140600585938,490.1117998046875,37.00540600585937,490.5317998046875,37.845406005859374C490.8957998046875,38.573406005859376,491.3297998046875,38.93740600585937,491.8057998046875,38.93740600585937ZM491.4277998046875,26.253406005859375L490.7137998046875,26.687406005859376C491.3017998046875,27.359406005859377,491.7777998046875,27.961406005859374,492.12779980468747,28.507406005859373L492.8277998046875,28.017406005859375C492.4917998046875,27.513406005859373,492.0297998046875,26.925406005859376,491.4277998046875,26.253406005859375ZM482.18779980468753,26.449406005859373L481.4877998046875,27.135406005859373C482.4397998046875,27.891406005859373,483.1957998046875,28.619406005859375,483.7557998046875,29.305406005859375L484.4417998046875,28.605406005859376C483.8257998046875,27.877406005859374,483.0837998046875,27.163406005859375,482.18779980468753,26.449406005859373ZM480.5077998046875,30.593406005859375L480.5077998046875,31.559406005859373L482.4677998046875,31.559406005859373L482.4677998046875,37.17340600585938C482.4677998046875,37.38340600585937,482.3557998046875,37.579406005859376,482.1597998046875,37.747406005859375L482.5517998046875,38.643406005859376C483.4197998046875,37.99940600585938,484.2317998046875,37.25740600585937,485.0017998046875,36.41740600585938L484.7357998046875,35.35340600585938C484.2877998046875,35.84340600585938,483.8677998046875,36.29140600585937,483.4477998046875,36.69740600585938L483.4477998046875,30.593406005859375L480.5077998046875,30.593406005859375ZM506.0437998046875,39.06340600585938C506.3237998046875,39.06340600585938,506.5757998046875,38.85340600585938,506.7997998046875,38.433406005859375C507.0377998046875,37.985406005859375,507.2477998046875,37.10340600585938,507.4437998046875,35.81540600585937L506.5897998046875,35.409406005859374C506.5057998046875,36.067406005859375,506.4217998046875,36.62740600585938,506.3377998046875,37.07540600585938C506.2257998046875,37.59340600585938,506.0857998046875,37.85940600585938,505.9457998046875,37.85940600585938C505.6937998046875,37.85940600585938,505.5257998046875,37.579406005859376,505.4137998046875,37.01940600585937C505.2737998046875,36.473406005859374,505.2177998046875,35.19940600585937,505.2177998046875,33.19740600585938L505.2177998046875,28.689406005859375L502.2497998046875,28.689406005859375L502.2497998046875,26.337406005859375L501.2277998046875,26.337406005859375L501.2277998046875,28.689406005859375L499.4357998046875,28.689406005859375L499.4357998046875,29.669406005859376L501.2277998046875,29.669406005859376L501.2277998046875,31.209406005859375C501.2137998046875,31.741406005859375,501.1857998046875,32.24540600585937,501.1437998046875,32.74940600585938C500.6957998046875,32.469406005859376,500.2477998046875,32.189406005859375,499.7717998046875,31.937406005859373L499.2257998046875,32.74940600585938C499.8137998046875,33.05740600585938,500.40179980468747,33.40740600585937,500.9897998046875,33.82740600585937C500.5977998046875,35.84340600585938,499.7577998046875,37.397406005859374,498.4557998046875,38.48940600585938L499.21179980468753,39.147406005859374C500.5277998046875,38.027406005859376,501.4097998046875,36.48740600585938,501.8857998046875,34.49940600585938C502.3757998046875,34.87740600585938,502.8797998046875,35.311406005859375,503.3837998046875,35.80140600585938L503.9577998046875,34.933406005859375C503.3697998046875,34.387406005859376,502.7397998046875,33.88340600585937,502.0817998046875,33.40740600585937C502.1797998046875,32.72140600585938,502.23579980468753,31.993406005859377,502.2497998046875,31.209406005859375L502.2497998046875,29.669406005859376L504.2237998046875,29.669406005859376L504.2237998046875,33.19740600585938C504.2237998046875,35.56340600585938,504.3637998046875,37.131406005859375,504.6717998046875,37.90140600585937C504.9657998046875,38.65740600585937,505.4277998046875,39.049406005859375,506.0437998046875,39.06340600585938ZM496.2017998046875,39.021406005859376C497.0417998046875,39.021406005859376,497.4757998046875,38.601406005859374,497.4757998046875,37.775406005859374L497.4757998046875,33.701406005859376C497.9517998046875,33.50540600585937,498.4137998046875,33.30940600585937,498.8757998046875,33.085406005859376L498.8757998046875,32.07740600585937C498.4137998046875,32.31540600585937,497.9517998046875,32.53940600585938,497.4757998046875,32.735406005859375L497.4757998046875,29.963406005859376L498.7917998046875,29.963406005859376L498.7917998046875,28.997406005859375L497.4757998046875,28.997406005859375L497.4757998046875,26.351406005859374L496.4537998046875,26.351406005859374L496.4537998046875,28.997406005859375L494.6757998046875,28.997406005859375L494.6757998046875,29.963406005859376L496.4537998046875,29.963406005859376L496.4537998046875,33.12740600585938C495.7957998046875,33.36540600585938,495.1097998046875,33.561406005859375,494.4097998046875,33.729406005859374L494.6617998046875,34.68140600585937C495.2777998046875,34.49940600585938,495.8657998046875,34.30340600585937,496.4537998046875,34.09340600585938L496.4537998046875,37.52340600585937C496.4537998046875,37.90140600585937,496.2437998046875,38.097406005859376,495.8517998046875,38.097406005859376C495.4597998046875,38.097406005859376,495.0677998046875,38.06940600585938,494.6477998046875,38.04140600585937L494.8577998046875,39.021406005859376L496.2017998046875,39.021406005859376ZM513.8697998046875,27.205406005859373L513.8697998046875,28.199406005859373L520.5757998046874,28.199406005859373L520.5757998046874,27.205406005859373L513.8697998046875,27.205406005859373ZM513.4917998046875,30.761406005859374L513.4917998046875,31.755406005859374L517.9017998046875,31.755406005859374L517.9017998046875,37.62140600585938C517.9017998046875,37.985406005859375,517.6637998046875,38.16740600585938,517.2157998046875,38.16740600585938C516.5997998046874,38.16740600585938,515.9697998046875,38.13940600585937,515.2977998046875,38.097406005859376L515.5077998046875,39.091406005859376L517.5657998046875,39.091406005859376C518.4617998046875,39.091406005859376,518.9237998046875,38.68540600585938,518.9237998046875,37.87340600585937L518.9237998046875,31.755406005859374L521.1917998046875,31.755406005859374L521.1917998046875,30.761406005859374L513.4917998046875,30.761406005859374ZM511.6577998046875,26.435406005859374C510.9997998046875,27.751406005859373,509.9497998046875,28.927406005859375,508.4937998046875,29.963406005859376L508.7877998046875,30.971406005859375C510.5237998046875,29.781406005859374,511.7837998046875,28.409406005859374,512.5677998046875,26.855406005859376L511.6577998046875,26.435406005859374ZM512.3157998046875,29.627406005859374C511.5317998046875,31.181406005859372,510.2857998046875,32.55340600585937,508.5777998046875,33.75740600585937L508.8717998046875,34.765406005859376C509.5437998046875,34.30340600585937,510.1457998046875,33.81340600585938,510.7057998046875,33.30940600585937L510.7057998046875,39.147406005859374L511.6997998046875,39.147406005859374L511.6997998046875,32.287406005859374C512.3157998046875,31.587406005859375,512.8197998046875,30.831406005859375,513.2257998046875,30.047406005859376L512.3157998046875,29.627406005859374Z" fill="url(#master_svg2_113_18584)" fill-opacity="1"/></g></g></g><g><g><rect x="445.9197998046875" y="101.073486328125" width="96" height="33.12516403198242" rx="16.56258201599121" fill="#FFFFFF" fill-opacity="0.10000000149011612"/><rect x="446.4197998046875" y="101.573486328125" width="95" height="32.12516403198242" rx="16.06258201599121" fill-opacity="0" stroke-opacity="0.30000001192092896" stroke="#FFFFFF" fill="none" stroke-width="1"/><g><path d="M467.5437998046875,115.49607788085937L471.0157998046875,115.49607788085937C470.0357998046875,118.61807788085937,468.5377998046875,121.06807788085938,466.4937998046875,122.86007788085938L467.0117998046875,123.78407788085937C468.6077998046875,122.48207788085938,469.9237998046875,120.73207788085938,470.9457998046875,118.52007788085938C471.4077998046875,119.50007788085938,472.1777998046875,120.41007788085938,473.2697998046875,121.25007788085938C472.2197998046875,121.93607788085937,470.9177998046875,122.56607788085938,469.3497998046875,123.14007788085938L469.8817998046875,124.07807788085938C471.5757998046875,123.42007788085938,473.0037998046875,122.69207788085937,474.15179980468747,121.88007788085937C475.3277998046875,122.65007788085937,476.8117998046875,123.36407788085937,478.6037998046875,124.02207788085937L479.1217998046875,123.08407788085938C477.4977998046875,122.52407788085938,476.1117998046875,121.90807788085938,474.9777998046875,121.23607788085937C476.1257998046875,120.25607788085938,476.8817998046875,119.16407788085938,477.2597998046875,117.96007788085937L477.2597998046875,117.09207788085938L471.5337998046875,117.09207788085938C471.7297998046875,116.58807788085937,471.8977998046875,116.05607788085938,472.0657998046875,115.49607788085937L478.8837998046875,115.49607788085937L478.8837998046875,114.53007788085938L472.3317998046875,114.53007788085938C472.5837998046875,113.49407788085938,472.8077998046875,112.40207788085938,472.9897998046875,111.22607788085938L471.9677998046875,111.10007788085937C471.7997998046875,112.30407788085938,471.5757998046875,113.43807788085937,471.2957998046875,114.53007788085938L468.8457998046875,114.53007788085938L469.6437998046875,111.77207788085937L468.6497998046875,111.60407788085938L467.5437998046875,115.49607788085937ZM471.7017998046875,118.01607788085937L476.2377998046875,118.01607788085937C475.8457998046875,118.96807788085937,475.1317998046875,119.85007788085937,474.0957998046875,120.66207788085937C472.9757998046875,119.85007788085937,472.1777998046875,118.96807788085937,471.7017998046875,118.01607788085937ZM475.3417998046875,111.21207788085937L474.6697998046875,111.87007788085937C475.7197998046875,112.71007788085937,476.5457998046875,113.49407788085938,477.1337998046875,114.23607788085937L477.8477998046875,113.52207788085937C477.1757998046875,112.75207788085937,476.3497998046875,111.98207788085938,475.3417998046875,111.21207788085937ZM492.21179980468753,111.75807788085937L485.9957998046875,111.75807788085937L485.9957998046875,119.50007788085938L486.9897998046875,119.50007788085938L486.9897998046875,112.72407788085937L491.1897998046875,112.72407788085937L491.1897998046875,119.50007788085938L492.21179980468753,119.50007788085938L492.21179980468753,111.75807788085937ZM491.9037998046875,123.81207788085938C492.3517998046875,123.81207788085938,492.68779980468753,123.70007788085937,492.9117998046875,123.49007788085937C493.1497998046875,123.23807788085938,493.3177998046875,122.52407788085938,493.40179980468747,121.37607788085937L492.4637998046875,121.08207788085937C492.4077998046875,121.95007788085937,492.3237998046875,122.48207788085938,492.21179980468753,122.66407788085938C492.1137998046875,122.80407788085938,491.9457998046875,122.88807788085937,491.7217998046875,122.88807788085937L490.7417998046875,122.88807788085937C490.4477998046875,122.88807788085937,490.3077998046875,122.73407788085937,490.3077998046875,122.44007788085938L490.3077998046875,119.44407788085937L489.2997998046875,119.44407788085937L489.2997998046875,122.65007788085937C489.2997998046875,123.42007788085938,489.6777998046875,123.81207788085938,490.4477998046875,123.81207788085938L491.9037998046875,123.81207788085938ZM488.5577998046875,113.71807788085937L488.5577998046875,117.13407788085938C488.5297998046875,118.70207788085938,488.2217998046875,119.97607788085938,487.6617998046875,120.95607788085937C487.0597998046875,121.88007788085937,485.9957998046875,122.63607788085938,484.4837998046875,123.22407788085937L485.0297998046875,124.07807788085938C486.5977998046875,123.49007788085937,487.7177998046875,122.66407788085938,488.3897998046875,121.62807788085938C489.0897998046875,120.50807788085937,489.4677998046875,119.01007788085937,489.5237998046875,117.13407788085938L489.5237998046875,113.71807788085937L488.5577998046875,113.71807788085937ZM480.8017998046875,116.37807788085938L480.8017998046875,117.35807788085937L482.4117998046875,117.35807788085937L482.4117998046875,120.84407788085937C481.7957998046875,121.01207788085938,481.1797998046875,121.15207788085938,480.5497998046875,121.26407788085938L480.7877998046875,122.23007788085937C482.3697998046875,121.85207788085937,483.8537998046875,121.39007788085938,485.2397998046875,120.83007788085938L485.2397998046875,119.86407788085937C484.65179980468747,120.10207788085937,484.0637998046875,120.32607788085937,483.4477998046875,120.53607788085938L483.4477998046875,117.35807788085937L485.0157998046875,117.35807788085937L485.0157998046875,116.37807788085938L483.4477998046875,116.37807788085938L483.4477998046875,113.10207788085937L485.21179980468753,113.10207788085937L485.21179980468753,112.13607788085938L480.6197998046875,112.13607788085938L480.6197998046875,113.10207788085937L482.4117998046875,113.10207788085937L482.4117998046875,116.37807788085938L480.8017998046875,116.37807788085938ZM504.9937998046875,123.95207788085938C506.0577998046875,123.95207788085938,506.60379980468747,123.42007788085938,506.60379980468747,122.38407788085938L506.60379980468747,112.01007788085937L500.1497998046875,112.01007788085937L500.1497998046875,112.99007788085937L505.5817998046875,112.99007788085937L505.5817998046875,122.11807788085937C505.5817998046875,122.73407788085937,505.3157998046875,123.04207788085938,504.7837998046875,123.04207788085938L503.2437998046875,123.01407788085938L503.4957998046875,123.95207788085938L504.9937998046875,123.95207788085938ZM495.2357998046875,113.52207788085937L495.2357998046875,124.05007788085938L496.2577998046875,124.05007788085938L496.2577998046875,113.52207788085937L495.2357998046875,113.52207788085937ZM498.3717998046875,115.53807788085938L498.3717998046875,120.80207788085937L503.4117998046875,120.80207788085937L503.4117998046875,115.53807788085938L498.3717998046875,115.53807788085938ZM502.3897998046875,119.83607788085938L499.3937998046875,119.83607788085938L499.3937998046875,116.50407788085937L502.3897998046875,116.50407788085937L502.3897998046875,119.83607788085938ZM497.3217998046875,111.08607788085938L496.3837998046875,111.49207788085937C497.0277998046875,112.24807788085937,497.6297998046875,113.10207788085937,498.1617998046875,114.08207788085937L499.0577998046875,113.62007788085937C498.5537998046875,112.69607788085938,497.9657998046875,111.85607788085937,497.3217998046875,111.08607788085938ZM518.2097998046875,122.86007788085938C515.3397998046875,122.86007788085938,513.5057998046875,122.73407788085937,512.6937998046875,122.48207788085938C512.6377998046875,122.45407788085937,512.5677998046875,122.42607788085937,512.4837998046875,122.39807788085938L512.4837998046875,120.87207788085938L514.4017998046875,120.87207788085938L514.4017998046875,119.97607788085938L512.4837998046875,119.97607788085938L512.4837998046875,118.49207788085937L514.7517998046875,118.49207788085937L514.7517998046875,117.56807788085938L508.8157998046875,117.56807788085938L508.8157998046875,118.49207788085937L511.5877998046875,118.49207788085937L511.5877998046875,121.89407788085937C511.1537998046875,121.57207788085938,510.7477998046875,121.12407788085937,510.3837998046875,120.55007788085938C510.4537998046875,120.13007788085937,510.4957998046875,119.69607788085938,510.5237998046875,119.22007788085938L509.62779980468747,119.10807788085937C509.5577998046875,120.70407788085937,509.15179980468747,122.13207788085937,508.3957998046875,123.40607788085937L509.1237998046875,124.05007788085938C509.5717998046875,123.29407788085938,509.9217998046875,122.46807788085937,510.1737998046875,121.57207788085938C510.7477998046875,122.38407788085938,511.4057998046875,122.95807788085938,512.1477998046875,123.26607788085937C512.9877998046875,123.63007788085937,515.0737998046875,123.81207788085938,518.4337998046875,123.81207788085938L521.1917998046875,123.81207788085938L521.3597998046876,122.80407788085938C520.6597998046875,122.83207788085937,519.6097998046876,122.86007788085938,518.2097998046875,122.86007788085938ZM509.4457998046875,111.74407788085938L509.4457998046875,116.63007788085937L514.2197998046875,116.63007788085937L514.2197998046875,111.74407788085938L509.4457998046875,111.74407788085938ZM513.2397998046876,115.79007788085937L510.4257998046875,115.79007788085937L510.4257998046875,114.60007788085937L513.2397998046876,114.60007788085937L513.2397998046876,115.79007788085937ZM510.4257998046875,113.81607788085938L510.4257998046875,112.58407788085938L513.2397998046876,112.58407788085938L513.2397998046876,113.81607788085938L510.4257998046875,113.81607788085938ZM514.9477998046875,111.75807788085937L514.9477998046875,112.68207788085938L517.5657998046875,112.68207788085938C517.5237998046875,113.06007788085938,517.4677998046875,113.43807788085937,517.3837998046874,113.80207788085937L515.3817998046875,113.80207788085937L515.3817998046875,119.45807788085938L516.2777998046874,119.45807788085938L516.2777998046874,114.67007788085938L519.6657998046875,114.67007788085938L519.6657998046875,119.45807788085938L520.6037998046875,119.45807788085938L520.6037998046875,113.80207788085937L518.2937998046875,113.80207788085937C518.3777998046875,113.43807788085937,518.4337998046875,113.07407788085938,518.4757998046875,112.68207788085938L520.9957998046875,112.68207788085938L520.9957998046875,111.75807788085937L514.9477998046875,111.75807788085937ZM518.9797998046874,119.50007788085938L518.3077998046875,120.14407788085937C519.2177998046875,120.87207788085938,519.9317998046874,121.57207788085938,520.4497998046875,122.21607788085937L521.1637998046875,121.51607788085937C520.5757998046874,120.84407788085937,519.8477998046875,120.17207788085938,518.9797998046874,119.50007788085938ZM517.5097998046875,115.32807788085938L517.5097998046875,117.30207788085937C517.4817998046875,118.35207788085937,517.2717998046875,119.20607788085937,516.9077998046876,119.86407788085937C516.5017998046875,120.49407788085938,515.8017998046874,120.99807788085937,514.7937998046875,121.36207788085937L515.3397998046875,122.23007788085937C516.4037998046875,121.81007788085938,517.1877998046875,121.23607788085937,517.6637998046875,120.49407788085938C518.1397998046875,119.69607788085938,518.4057998046875,118.63207788085937,518.4337998046875,117.30207788085937L518.4337998046875,115.32807788085938L517.5097998046875,115.32807788085938Z" fill="url(#master_svg3_113_18584)" fill-opacity="1"/></g></g></g><g><g transform="matrix(0,-1,1,0,136.95091915130615,214.97119998931885)"><path d="M185.8294095703125,39.01014041900635L179.8294095703125,39.01014041900635L179.8294095703125,93.34124041900634L175.9610862950125,93.34124041900634L182.9316895703125,102.16694041900635L189.6977595703125,93.34124041900634L185.8294095703125,93.34124041900634L185.8294095703125,39.01014041900635Z" fill-rule="evenodd" fill="url(#master_svg4_499_31411)" fill-opacity="0.5"/></g></g><g><g transform="matrix(0,-1,1,0,327.87108516693115,405.89136600494385)"><path d="M376.7495755859375,39.01014041900635L370.7495755859375,39.01014041900635L370.7495755859375,93.34124041900634L366.8812523106375,93.34124041900634L373.8518555859375,102.16694041900635L380.6179255859375,93.34124041900634L376.7495755859375,93.34124041900634L376.7495755859375,39.01014041900635Z" fill-rule="evenodd" fill="url(#master_svg5_499_31411)" fill-opacity="0.5"/></g></g><g transform="matrix(0,1,-1,0,558.508056640625,-443.068115234375)"><g transform="matrix(0,-1,1,0,429.33141231536865,572.2447595596313)"><path d="M510.6564959375,71.45667362213135L504.6564959375,71.45667362213135L504.6564959375,97.57467362213134L500.7881126622,97.57467362213134L507.7587159375,106.40037362213135L514.5247859375,97.57467362213134L510.6564959375,97.57467362213134L510.6564959375,71.45667362213135Z" fill-rule="evenodd" fill="url(#master_svg6_499_31411)" fill-opacity="0.5"/></g></g><g><g><path d="M96.50523001953125,50.500241279605L101.59547001953125,56.945254140624996L97.58014001953126,56.945254140624996L97.58014001953126,100.546544140625Q97.58014001953126,108.416544140625,103.14507001953125,113.981544140625Q108.71007001953126,119.546544140625,116.58017001953125,119.546544140625L444.68527001953123,119.546544140625L444.68527001953123,121.546544140625L116.58017001953125,121.546544140625Q107.88167001953124,121.546544140625,101.73087001953125,115.395744140625Q95.58014001953126,109.244944140625,95.58014001953126,100.546544140625L95.58014001953126,56.945254140624996L91.56429576873126,56.945254140624996L96.50523001953125,50.500241279605Z" fill-rule="evenodd" fill="url(#master_svg7_499_38019)" fill-opacity="0.5"/></g></g><g><g><path d="M301.39643623046874,50.500247478485L306.47086623046874,56.925204140625L302.40032623046875,56.925204140625L302.40032623046875,100.546544140625Q302.40032623046875,108.41664414062501,307.96528623046873,113.98164414062501Q313.53028623046873,119.546544140625,321.40028623046874,119.546544140625L445.91988623046876,119.546544140625L445.91988623046876,121.546544140625L321.40028623046874,121.546544140625Q312.70188623046874,121.546544140625,306.55108623046874,115.395844140625Q300.40032623046875,109.245044140625,300.40032623046875,100.546544140625L300.40032623046875,56.925204140625L296.47086620326877,56.925204140625L301.39643623046874,50.500247478485Z" fill-rule="evenodd" fill="url(#master_svg8_499_38015)" fill-opacity="0.5"/></g></g><g><rect x="0" y="0" width="575" height="198" rx="0" fill="#D8D8D8" fill-opacity="0"/></g></g></svg>