<svg xmlns="http://www.w3.org/2000/svg" xmlns:xlink="http://www.w3.org/1999/xlink" fill="none" version="1.1" width="419.4083251953125" height="50" viewBox="0 0 419.4083251953125 50"><defs><clipPath id="master_svg0_494_26518"><rect x="414.2767333984375" y="0.923583984375" width="5.131591320037842" height="5.1314697265625" rx="0"/></clipPath><linearGradient x1="6.7132569551467896" y1="14.341796934604645" x2="155.09924697875977" y2="36.19763255119324" gradientUnits="userSpaceOnUse" id="master_svg1_129_12839"><stop offset="0%" stop-color="#2A7FFF" stop-opacity="1"/><stop offset="93.57143044471741%" stop-color="#FFFFFF" stop-opacity="1"/></linearGradient></defs><g><g><g clip-path="url(#master_svg0_494_26518)"><g><path d="M414.8525906015625,3.919056318359375L415.8270966015625,4.451996318359376C415.8502966015625,4.464676318359375,415.8692866015625,4.483666318359375,415.8819666015625,4.506866318359375L416.4149166015625,5.481346318359375C416.4588666015625,5.561676318359375,416.5234166015625,5.627626318359375,416.6015966015625,5.672026318359375C416.6749066015625,5.713666318359375,416.7586966015625,5.735666318359375,416.8438866015625,5.735666318359375C416.9290766015625,5.735666318359375,417.0128666015625,5.713666318359375,417.0861866015625,5.672026318359375C417.1643666015625,5.627626318359375,417.2289566015625,5.561676318359375,417.2728566015625,5.481346318359375L417.8058166015625,4.506866318359375C417.8184866015625,4.483666318359375,417.8374866015625,4.464676318359375,417.8606866015625,4.451996318359376L418.8352866015625,3.919056318359375C418.9156166015625,3.875106318359375,418.9815666015625,3.810566318359375,419.0259666015625,3.732386318359375C419.0676166015625,3.659076318359375,419.0896166015625,3.575286318359375,419.0896166015625,3.490096318359375C419.0896166015625,3.404906318359375,419.0676166015625,3.321116318359375,419.0259666015625,3.247806318359375C418.9815666015625,3.169626318359375,418.9156166015625,3.105036318359375,418.8352866015625,3.0611363183593747L417.8253066015625,2.5087563183593753L417.2729566015625,1.498794318359375C417.2290066015625,1.418465318359375,417.1644666015625,1.352517318359375,417.0862866015625,1.308118618359375C417.0129666015625,1.266475518359375,416.9291866015625,1.244476318359375,416.8439866015625,1.244476318359375C416.7587966015625,1.244476318359375,416.6750066015625,1.266475518359375,416.6016966015625,1.308118618359375C416.5235166015625,1.352517318359375,416.4589166015625,1.418465318359375,416.4150166015625,1.498794318359375L415.8820166015625,2.4732763183593747C415.8693666015625,2.496446318359375,415.8503166015625,2.515496318359375,415.8271466015625,2.528146318359375L414.8525906015625,3.061086318359375C414.7722596015625,3.105036318359375,414.7063106015625,3.169576318359375,414.6619104015625,3.247756318359375C414.6202663015625,3.321066318359375,414.5982666015625,3.404856318359375,414.5982666015625,3.490046318359375C414.5982666015625,3.575236318359375,414.6202663015625,3.659026318359375,414.6619104015625,3.732336318359375C414.7063606015625,3.810566318359375,414.7722596015625,3.875106318359375,414.8525906015625,3.919056318359375Z" fill="#0066FE" fill-opacity="1" style="mix-blend-mode:passthrough"/></g></g><g><g><path d="M401.6980449296875,11.0778536328125L404.3732279296875,12.5409136328125C404.4369279296875,12.5757136328125,404.4890679296875,12.6278536328125,404.5238679296875,12.6915536328125L405.9869279296875,15.3667736328125C406.1075779296875,15.5872736328125,406.2847579296875,15.7682736328125,406.4993679296875,15.8901736328125C406.7006379296875,16.0044736328125,406.9306579296875,16.0648736328125,407.1645279296875,16.0648736328125C407.3983879296875,16.0648736328125,407.6284079296875,16.0044736328125,407.8296779296875,15.8901736328125C408.0442779296875,15.7682736328125,408.2216079296875,15.5872736328125,408.3421179296875,15.3667736328125L409.8051779296875,12.6915536328125C409.8399779296875,12.6278536328125,409.8921179296875,12.5757136328125,409.9558179296875,12.5409136328125L412.6312779296875,11.0778536328125C412.8517779296875,10.9572036328125,413.0328779296875,10.7800136328125,413.1547779296875,10.565403632812501C413.2690779296875,10.3641436328125,413.3294779296875,10.1341236328125,413.3294779296875,9.9002536328125C413.3294779296875,9.6663836328125,413.2690779296875,9.4363736328125,413.1547779296875,9.2351036328125C413.0328779296875,9.0204936328125,412.8517779296875,8.843173632812501,412.6312779296875,8.7226536328125L409.8586879296875,7.2062236328125L408.3423979296875,4.4336406328125C408.2217479296875,4.2131166328125,408.04455792968747,4.0320746328125,407.8299479296875,3.9101876328125C407.6286879296875,3.7958668328125,407.3986679296875,3.7354736328125,407.1647979296875,3.7354736328125C406.9309279296875,3.7354736328125,406.7009079296875,3.7958668328125,406.4996479296875,3.9101876328125C406.2850379296875,4.0320746328125,406.1077079296875,4.2131166328125,405.9871979296875,4.4336406328125L404.5240079296875,7.1088236328125C404.4892779296875,7.1724436328125005,404.4369879296875,7.2247336328125,404.3733679296875,7.2594636328124995L401.6980449296875,8.7225236328125C401.4775209296875,8.843173632812501,401.2964789296875,9.020353632812501,401.1745919296875,9.2349636328125C401.0602711296875,9.436233632812499,400.9998779296875,9.6662536328125,400.9998779296875,9.9001236328125C400.9998779296875,10.1339836328125,401.0602711296875,10.3640036328125,401.1745919296875,10.565273632812499C401.2966159296875,10.7800136328125,401.4775209296875,10.9572036328125,401.6980449296875,11.0778536328125Z" fill="#FFFFFF" fill-opacity="1" style="mix-blend-mode:passthrough"/></g></g></g><g><g><path d="M4.824,9.668L4.824,12.872L13.896,12.872L13.896,21.044L4.788,21.044L4.788,29.396C4.644,33.788,3.42,37.172,1.116,39.62L3.672,41.924C6.552,38.792,8.064,34.616,8.208,29.396L8.208,24.284L33.48,24.284L33.48,21.044L23.58,21.044L23.58,12.872L32.796,12.872L32.796,9.668L4.824,9.668ZM17.1,21.044L17.1,12.872L20.376,12.872L20.376,21.044L17.1,21.044ZM27.972,13.808C27.252,15.968,26.424,17.768,25.488,19.208L28.26,20.216C29.268,18.596,30.096,16.724,30.744,14.564L27.972,13.808ZM9.144,13.736L6.264,14.672C7.2,16.292,8.1,18.164,8.892,20.252L11.664,19.028C10.944,17.156,10.116,15.392,9.144,13.736ZM66.06,24.248L66.06,19.028L70.02,19.028L70.02,15.896L66.06,15.896L66.06,10.64L55.584,10.64L55.584,8.552L52.272,8.552L52.272,10.64L42.12,10.64L42.12,13.7L52.272,13.7L52.272,15.896L37.98,15.896L37.98,19.028L52.272,19.028L52.272,21.188L42.156,21.188L42.156,24.248L52.272,24.248L52.272,41.636L55.584,41.636L55.584,24.248L66.06,24.248ZM55.584,13.7L62.712,13.7L62.712,15.896L55.584,15.896L55.584,13.7ZM55.584,19.028L62.712,19.028L62.712,21.188L55.584,21.188L55.584,19.028ZM63.936,25.724L63.936,41.744L67.176,41.744L67.176,25.724L63.936,25.724ZM47.592,27.236C47.232,31.196,46.26,34.688,44.676,37.748L47.628,38.648C49.14,35.408,50.076,31.736,50.436,27.596L47.592,27.236ZM60.012,27.056L57.204,27.632C58.14,30.728,58.896,34.328,59.544,38.396L62.532,37.748C61.812,33.86,60.984,30.296,60.012,27.056ZM41.472,25.688L41.472,28.352C41.436,33.536,40.068,37.316,37.332,39.656L39.852,41.888C42.948,39.044,44.568,34.544,44.64,28.352L44.64,25.688L41.472,25.688ZM82.764,33.572C80.208,34.832,77.256,35.84,73.872,36.56L74.304,39.872C77.472,39.08,80.28,38.036,82.764,36.74L82.764,33.572ZM78.732,8.372C77.58,12.224,76.212,15.716,74.664,18.884C74.268,19.532,73.8,19.928,73.26,20.144L74.124,23.204C75.852,22.952,77.508,22.7,79.164,22.412C77.616,25.184,76.32,27.128,75.276,28.28C74.844,28.712,74.34,29.036,73.728,29.252L74.664,32.276C77.616,31.916,80.748,31.16,84.06,30.044L84.06,27.02C82.188,27.668,80.352,28.208,78.552,28.604C80.424,26.156,82.728,22.232,85.536,16.832L82.548,15.752C81.936,17.048,81.36,18.236,80.784,19.352C79.56,19.568,78.372,19.784,77.148,19.928C78.768,17.264,80.352,13.808,81.9,9.596L78.732,8.372ZM102.744,41.564C104.544,41.564,105.48,40.628,105.48,38.828L105.48,24.176L88.956,24.176L89.064,21.692L105.336,21.692L105.336,11.9L97.236,11.9C96.84,10.532,96.444,9.308,96.012,8.228L92.484,8.804C92.988,9.74,93.456,10.784,93.888,11.9L85.932,11.9L85.932,20.972C85.896,28.532,84.492,34.724,81.756,39.512L84.204,41.672C86.508,37.568,87.984,32.852,88.632,27.596L88.632,41.744L91.404,41.744L91.404,33.932L93.6,33.932L93.6,40.988L96.012,40.988L96.012,33.932L98.028,33.932L98.028,40.988L100.44,40.988L100.44,33.932L102.636,33.932L102.636,38.18C102.636,38.756,102.384,39.08,101.88,39.08L100.476,38.972L101.196,41.564L102.744,41.564ZM91.404,31.124L91.404,27.056L93.6,27.056L93.6,31.124L91.404,31.124ZM96.012,27.056L98.028,27.056L98.028,31.124L96.012,31.124L96.012,27.056ZM100.44,27.056L102.636,27.056L102.636,31.124L100.44,31.124L100.44,27.056ZM102.204,14.924L102.204,18.812L89.064,18.812L89.064,14.924L102.204,14.924ZM124.56,9.668L124.56,20.576L140.364,20.576L140.364,9.668L124.56,9.668ZM137.052,17.516L127.908,17.516L127.908,12.692L137.052,12.692L137.052,17.516ZM123.444,23.348L123.444,26.444L130.536,26.444L130.536,30.188L124.272,30.188L124.272,33.248L130.536,33.248L130.536,37.244L122.076,37.244L122.076,40.484L142.416,40.484L142.416,37.244L133.992,37.244L133.992,33.248L140.436,33.248L140.436,30.188L133.992,30.188L133.992,26.444L141.552,26.444L141.552,23.348L123.444,23.348ZM109.98,18.056L109.98,21.332L114.552,21.332C113.4,24.968,111.6,28.208,109.08,31.088L110.592,34.904C112.356,32.384,113.796,29.576,114.948,26.552L114.948,41.564L118.224,41.564L118.224,26.084C119.088,27.308,120.06,28.856,121.212,30.728L123.12,27.848C121.464,26.048,119.844,24.356,118.224,22.844L118.224,21.332L122.364,21.332L122.364,18.056L118.224,18.056L118.224,13.16C119.952,12.836,121.572,12.476,123.12,12.044L121.932,8.804C118.44,9.884,114.48,10.64,110.016,11L110.7,14.204C112.14,14.06,113.58,13.88,114.948,13.7L114.948,18.056L109.98,18.056Z" fill="url(#master_svg1_129_12839)" fill-opacity="1"/></g><g><path d="" fill="#3D3D3D" fill-opacity="1"/><path d="M175.62,8.228C173.928,10.568,172.632,13.016,171.732,15.608C170.61599999999999,18.632,170.076,21.8,170.076,25.076C170.076,28.316,170.61599999999999,31.448,171.732,34.508C172.632,37.028,173.928,39.476,175.62,41.852L178.824,41.852C177.312,39.368,176.16,36.884,175.368,34.4C174.288,31.268,173.784,28.136,173.784,25.04C173.784,21.908,174.288,18.776,175.368,15.68C176.16,13.16,177.312,10.676,178.824,8.228L175.62,8.228ZM191.964,11.792C189.228,11.792,186.96,12.404,185.16,13.628C183.252,14.924,182.316,16.688,182.316,18.956C182.316,21.188,183.288,22.916,185.268,24.104C186.06,24.536,188.004,25.22,191.172,26.228C194.016,27.092,195.708,27.668,196.284,27.956C197.904,28.784,198.732,29.9,198.732,31.34C198.732,32.492,198.156,33.392,197.004,34.04C195.852,34.688,194.304,35.048,192.36,35.048C190.2,35.048,188.61599999999999,34.652,187.572,33.86C186.42000000000002,32.996,185.7,31.52,185.412,29.504L181.524,29.504C181.74,32.744,182.892,35.12,185.016,36.632C186.78,37.856,189.228,38.504,192.36,38.504C195.6,38.504,198.12,37.856,199.92000000000002,36.56C201.72,35.228,202.62,33.428,202.62,31.124C202.62,28.748,201.504,26.912,199.308,25.58C198.3,24.968,196.03199999999998,24.14,192.576,23.06C190.164,22.34,188.688,21.8,188.112,21.476C186.816,20.792,186.204,19.892,186.204,18.74C186.204,17.444,186.744,16.508,187.86,15.932C188.76,15.428,190.05599999999998,15.176,191.748,15.176C193.692,15.176,195.132,15.536,196.14,16.292C197.148,17.012,197.796,18.236,198.156,19.892L202.04399999999998,19.892C201.792,17.084,200.784,15.032,198.984,13.7C197.292,12.404,194.952,11.792,191.964,11.792ZM211.548,13.376L207.732,14.96L207.732,19.388L204.276,19.388L204.276,22.556L207.732,22.556L207.732,33.356C207.732,34.832,208.05599999999998,35.948,208.776,36.74C209.49599999999998,37.568,210.684,38,212.268,38L215.328,38L215.328,34.832L212.88,34.832C212.412,34.832,212.088,34.688,211.872,34.472C211.656,34.22,211.548,33.86,211.548,33.356L211.548,22.556L215.796,22.556L215.796,19.388L211.548,19.388L211.548,13.376ZM227.49599999999998,18.884C226.344,18.884,225.336,19.208,224.47199999999998,19.928C223.752,20.432,223.14,21.188,222.672,22.196L222.672,19.388L218.856,19.388L218.856,38L222.672,38L222.672,28.136C222.672,26.516,223.14,25.184,224.112,24.176C225.012,23.24,226.05599999999998,22.772,227.208,22.772C228.072,22.772,228.97199999999998,22.88,229.90800000000002,23.168L229.90800000000002,19.352C229.26,19.028,228.43200000000002,18.884,227.49599999999998,18.884ZM234.94799999999998,11.936C234.192,11.936,233.57999999999998,12.152,233.076,12.656C232.572,13.124,232.32,13.736,232.32,14.492C232.32,15.212,232.572,15.86,233.076,16.364C233.57999999999998,16.832,234.192,17.084,234.94799999999998,17.084C235.668,17.084,236.316,16.832,236.82,16.364C237.324,15.86,237.612,15.248,237.612,14.492C237.612,13.736,237.36,13.124,236.856,12.656C236.352,12.152,235.704,11.936,234.94799999999998,11.936ZM233.04000000000002,19.388L233.04000000000002,38L236.856,38L236.856,19.388L233.04000000000002,19.388ZM250.284,18.884C247.404,18.884,245.172,19.856,243.55200000000002,21.8C242.04000000000002,23.6,241.284,25.904,241.284,28.712C241.284,31.592,242.04000000000002,33.896,243.588,35.696C245.172,37.568,247.368,38.504,250.212,38.504C252.588,38.504,254.53199999999998,37.892,255.97199999999998,36.704C257.41200000000003,35.48,258.384,33.608,258.81600000000003,31.124L255.036,31.124C254.676,33.932,253.09199999999998,35.372,250.248,35.372C248.59199999999998,35.372,247.368,34.76,246.54000000000002,33.608C245.64,32.42,245.208,30.764,245.208,28.676C245.208,26.588,245.64,24.932,246.576,23.78C247.476,22.592,248.7,22.016,250.284,22.016C251.57999999999998,22.016,252.624,22.304,253.416,22.916C254.208,23.492,254.712,24.428,254.964,25.688L258.744,25.688C258.384,23.384,257.448,21.656,256.008,20.504C254.56799999999998,19.424,252.66,18.884,250.284,18.884ZM267.744,13.376L263.928,14.96L263.928,19.388L260.472,19.388L260.472,22.556L263.928,22.556L263.928,33.356C263.928,34.832,264.252,35.948,264.972,36.74C265.692,37.568,266.88,38,268.464,38L271.524,38L271.524,34.832L269.076,34.832C268.608,34.832,268.284,34.688,268.068,34.472C267.852,34.22,267.744,33.86,267.744,33.356L267.744,22.556L271.992,22.556L271.992,19.388L267.744,19.388L267.744,13.376ZM287.4,12.296L287.4,38L291.324,38L291.324,19.64L291.46799999999996,19.64L299.352,38L302.736,38L310.62,19.64L310.764,19.64L310.764,38L314.688,38L314.688,12.296L310.044,12.296L301.116,32.888L301.00800000000004,32.888L292.044,12.296L287.4,12.296ZM327.93600000000004,18.884C325.128,18.884,322.86,19.82,321.168,21.692C319.476,23.528,318.648,25.868,318.648,28.712C318.648,31.52,319.476,33.86,321.132,35.66C322.86,37.532,325.128,38.504,327.93600000000004,38.504C330.744,38.504,333.012,37.532,334.74,35.66C336.39599999999996,33.86,337.224,31.52,337.224,28.712C337.224,25.868,336.36,23.528,334.704,21.692C333.012,19.82,330.744,18.884,327.93600000000004,18.884ZM327.93600000000004,22.016C329.7,22.016,331.068,22.7,332.076,24.104C332.94,25.292,333.372,26.84,333.372,28.712C333.372,30.548,332.94,32.06,332.076,33.284C331.068,34.652,329.7,35.372,327.93600000000004,35.372C326.172,35.372,324.804,34.652,323.832,33.284C322.96799999999996,32.096,322.572,30.584,322.572,28.712C322.572,26.84,322.96799999999996,25.292,323.832,24.104C324.804,22.7,326.172,22.016,327.93600000000004,22.016ZM354.252,11.792L354.252,22.16C352.74,19.964,350.832,18.884,348.56399999999996,18.884C345.9,18.884,343.776,19.856,342.264,21.8C340.824,23.6,340.14,25.868,340.14,28.604C340.14,31.448,340.86,33.788,342.3,35.588C343.848,37.532,346.00800000000004,38.504,348.744,38.504C351.264,38.504,353.20799999999997,37.568,354.504,35.768L354.504,38L358.068,38L358.068,11.792L354.252,11.792ZM349.428,21.98C350.832,21.98,351.98400000000004,22.52,352.91999999999996,23.672C353.856,24.896,354.36,26.516,354.36,28.532L354.36,28.856C354.36,30.728,353.964,32.24,353.172,33.428C352.236,34.724,350.976,35.408,349.32,35.408C347.448,35.408,346.044,34.724,345.18,33.392C344.424,32.24,344.06399999999996,30.656,344.06399999999996,28.604C344.06399999999996,26.552,344.46000000000004,24.968,345.252,23.888C346.152,22.592,347.55600000000004,21.98,349.428,21.98ZM370.272,18.884C367.536,18.884,365.34000000000003,19.82,363.756,21.728C362.1,23.6,361.308,25.904,361.308,28.676C361.308,31.736,362.172,34.148,363.9,35.948C365.48400000000004,37.64,367.68,38.504,370.416,38.504C372.9,38.504,374.952,37.784,376.572,36.38C377.868,35.228,378.696,33.752,379.128,32.024L375.312,32.024C374.808,33.104,374.26800000000003,33.932,373.62,34.436C372.79200000000003,35.048,371.712,35.372,370.38,35.372C368.868,35.372,367.68,34.868,366.81600000000003,33.932C365.952,32.96,365.48400000000004,31.556,365.34000000000003,29.756L379.452,29.756C379.416,26.444,378.65999999999997,23.852,377.22,21.98C375.63599999999997,19.892,373.296,18.884,370.272,18.884ZM370.38,22.016C373.404,22.016,375.096,23.636,375.456,26.876L365.41200000000003,26.876C365.628,25.292,366.168,24.104,366.96000000000004,23.276C367.824,22.412,368.94,22.016,370.38,22.016ZM382.152,8.228C383.628,10.676,384.78,13.16,385.608,15.68C386.652,18.776,387.192,21.908,387.192,25.04C387.192,28.136,386.652,31.268,385.608,34.4C384.78,36.884,383.628,39.368,382.152,41.852L385.356,41.852C387.012,39.476,388.308,37.028,389.244,34.508C390.324,31.448,390.9,28.316,390.9,25.076C390.9,21.8,390.324,18.632,389.244,15.608C388.308,13.016,387.012,10.568,385.356,8.228L382.152,8.228Z" fill="#FFFFFF" fill-opacity="1"/></g></g></g></svg>