<svg xmlns="http://www.w3.org/2000/svg" xmlns:xlink="http://www.w3.org/1999/xlink" fill="none" version="1.1" width="520.6885986328125" height="64" viewBox="0 0 520.6885986328125 64"><defs><radialGradient cx="0" cy="0" r="1" gradientUnits="userSpaceOnUse" id="master_svg0_113_30029" gradientTransform="translate(260.34429931640625 32) rotate(90) scale(32 260.34429931640625)"><stop offset="25.714287161827087%" stop-color="#00297C" stop-opacity="1"/><stop offset="100%" stop-color="#16274A" stop-opacity="0"/></radialGradient><linearGradient x1="-0.10665636509656906" y1="0.5" x2="1.0478367951747485" y2="0.506447954639242" id="master_svg1_113_29631"><stop offset="0%" stop-color="#0066FE" stop-opacity="0"/><stop offset="51.428574323654175%" stop-color="#FFFFFF" stop-opacity="1"/><stop offset="100%" stop-color="#0066FE" stop-opacity="0"/></linearGradient><clipPath id="master_svg2_120_14785"><rect x="130.84429931640625" y="8" width="48" height="48" rx="2"/></clipPath></defs><g><rect x="0" y="0" width="520.6885986328125" height="64" rx="0" fill="url(#master_svg0_113_30029)" fill-opacity="1"/><path d="M520.689,0L0,0L0,2L520.689,2L520.689,0ZM520.689,62L0,62L0,64L520.689,64L520.689,62Z" fill-rule="evenodd" fill="url(#master_svg1_113_29631)" fill-opacity="1"/><g><g clip-path="url(#master_svg2_120_14785)"><g><g><path d="M175.33567666015625,14.722186718749999L166.25427666015625,10.34998571875C165.20307666015626,9.84315271875,163.94637666015626,10.05671851875,163.12157666015625,10.88233471875L133.39347766015624,37.98493671875C132.64238266015624,38.66643671875,132.58597166015625,39.82783671875,133.26747766015626,40.57893671875C133.30685266015624,40.621436718750005,133.34622766015625,40.66243671875,133.38875266015626,40.70023671875L135.81582666015626,42.90523671875C136.47022666015624,43.50083671875,137.45647666015626,43.54453671875,138.16100666015626,43.00913671875L173.96857666015626,15.85618671875C174.52027666015624,15.43754671875,175.26147666015623,15.367486718750001,175.88187666015625,15.67532671875C176.50217666015624,15.983166718749999,176.89467666015625,16.61579671875,176.89497666015626,17.30833671875L176.89497666015626,17.20280671875C176.89487666015626,16.14505671875,176.28887666015623,15.18086671875,175.33567666015625,14.722186718749999Z" fill="#0084DC" fill-opacity="1"/></g><g><path d="M175.33567666015625,49.27764609375L166.25427666015625,53.65144609375C165.20287666015625,54.15674609375,163.94707666015626,53.94334609375,163.12157666015625,53.11904609375L133.39347766015624,26.01488609375C132.64238266015624,25.333356093749998,132.58597166015625,24.17198609375,133.26747766015626,23.42086609375C133.30685266015624,23.37833609375,133.34622766015625,23.33738609375,133.38875266015626,23.29958609375L135.81582666015626,21.09459009375C136.47099666015626,20.49640309375,137.46029666015625,20.45264009375,138.16572666015625,20.99064109375L173.96857666015626,48.14364609375C174.52027666015624,48.562246093750005,175.26147666015623,48.63234609375,175.88187666015625,48.32444609375C176.50217666015624,48.01664609375,176.89467666015625,47.38404609375,176.89497666015626,46.69144609375L176.89497666015626,46.80484609375C176.89147666015626,47.85964609375,176.28607666015625,48.819946093750005,175.33567666015625,49.27764609375Z" fill="#0065A8" fill-opacity="1"/></g><g><path d="M166.2540823046875,53.65086015625C165.2027023046875,54.15626015625,163.9468433046875,53.94286015625,163.1214107646875,53.11856015625C163.5838443046875,53.57496015625,164.2748223046875,53.70966015625,164.8748223046875,53.46036015625C165.4748223046875,53.21106015625,165.8669123046875,52.62636015625,165.8697823046875,51.97666015625L165.8697823046875,12.02206015625C165.8703223046875,11.36913015625,165.4771323046875,10.78029115625,164.8738423046875,10.53055915625C164.2705523046875,10.28082715625,163.5762153046875,10.41948215625,163.1151123046875,10.88176415625C163.9399493046875,10.05649775625,165.1961523046875,9.84239415625,166.2477823046875,10.34783915625L175.3276123046875,14.713740156250001C176.2838123046875,15.17017015625,176.8933123046875,16.13482015625,176.8948123046875,17.19436015625L176.8948123046875,46.80436015625C176.8950123046875,47.86306015625,176.2882123046875,48.82806015625,175.3339123046875,49.28656015625L166.2540823046875,53.65086015625Z" fill="#45B4FF" fill-opacity="1"/></g></g></g><g><path d="M190.92429931640626,26.576L195.02029931640624,38L197.13229931640626,38L201.22829931640626,26.576L199.34029931640626,26.576L196.10829931640626,36.048L196.06029931640626,36.048L192.81229931640624,26.576L190.92429931640626,26.576ZM203.46829931640625,26.416C203.13229931640626,26.416,202.86029931640624,26.512,202.63629931640625,26.736C202.41229931640626,26.944,202.30029931640624,27.216,202.30029931640624,27.552C202.30029931640624,27.872,202.41229931640626,28.16,202.63629931640625,28.384C202.86029931640624,28.592,203.13229931640626,28.704,203.46829931640625,28.704C203.78829931640624,28.704,204.07629931640625,28.592,204.30029931640624,28.384C204.52429931640626,28.16,204.65229931640624,27.887999999999998,204.65229931640624,27.552C204.65229931640624,27.216,204.54029931640625,26.944,204.31629931640626,26.736C204.09229931640624,26.512,203.80429931640626,26.416,203.46829931640625,26.416ZM202.62029931640626,29.728L202.62029931640626,38L204.31629931640626,38L204.31629931640626,29.728L202.62029931640626,29.728ZM209.69229931640626,29.503999999999998C208.70029931640624,29.503999999999998,207.88429931640624,29.712,207.26029931640625,30.144C206.63629931640625,30.560000000000002,206.33229931640625,31.152,206.33229931640625,31.904C206.33229931640625,32.608000000000004,206.65229931640624,33.168,207.29229931640626,33.568C207.67629931640624,33.824,208.36429931640626,34.064,209.34029931640626,34.288C210.18829931640624,34.480000000000004,210.74829931640625,34.64,211.00429931640625,34.768C211.48429931640624,34.992000000000004,211.74029931640627,35.312,211.74029931640627,35.712C211.74029931640627,36.448,211.06829931640624,36.832,209.75629931640626,36.832C209.11629931640624,36.832,208.66829931640626,36.72,208.38029931640625,36.512C208.09229931640624,36.288,207.88429931640624,35.888,207.78829931640624,35.328L206.12429931640625,35.328C206.31629931640626,37.248000000000005,207.53229931640624,38.224000000000004,209.80429931640626,38.224000000000004C212.25229931640627,38.224000000000004,213.48429931640624,37.344,213.48429931640624,35.6C213.48429931640624,34.864000000000004,213.14829931640625,34.288,212.49229931640625,33.872C212.04429931640624,33.584,211.34029931640626,33.312,210.39629931640624,33.088C209.56429931640625,32.88,209.02029931640624,32.72,208.73229931640626,32.592C208.28429931640625,32.384,208.06029931640626,32.144,208.06029931640626,31.856C208.06029931640626,31.536,208.20429931640626,31.28,208.50829931640624,31.119999999999997C208.76429931640627,30.96,209.14829931640625,30.896,209.66029931640625,30.896C210.23629931640625,30.896,210.68429931640625,30.992,210.97229931640624,31.183999999999997C211.24429931640626,31.36,211.43629931640623,31.664,211.56429931640625,32.112L213.21229931640624,32.112C213.02029931640624,30.368000000000002,211.83629931640624,29.503999999999998,209.69229931640626,29.503999999999998ZM214.92429931640623,29.728L214.92429931640623,34.88C214.92429931640623,37.104,215.91629931640625,38.224000000000004,217.91629931640625,38.224000000000004C218.95629931640624,38.224000000000004,219.82029931640625,37.775999999999996,220.52429931640626,36.879999999999995L220.52429931640626,38L222.22029931640625,38L222.22029931640625,29.728L220.52429931640626,29.728L220.52429931640626,34.784C220.38029931640625,35.391999999999996,220.10829931640626,35.888,219.72429931640625,36.256C219.34029931640626,36.608000000000004,218.94029931640625,36.8,218.49229931640625,36.8C217.83629931640624,36.8,217.35629931640625,36.623999999999995,217.06829931640624,36.304C216.76429931640627,35.984,216.62029931640626,35.472,216.62029931640626,34.768L216.62029931640626,29.728L214.92429931640623,29.728ZM227.88429931640624,29.503999999999998C226.86029931640624,29.503999999999998,226.02829931640625,29.68,225.42029931640624,30.064C224.71629931640626,30.48,224.26829931640626,31.152,224.09229931640624,32.048L225.77229931640625,32.192C225.86829931640625,31.728,226.10829931640626,31.392,226.49229931640625,31.168C226.81229931640627,30.976,227.24429931640626,30.880000000000003,227.77229931640625,30.880000000000003C229.02029931640624,30.880000000000003,229.64429931640626,31.456,229.64429931640626,32.608000000000004L229.64429931640626,32.944L227.78829931640627,32.992000000000004C226.57229931640626,33.024,225.61229931640625,33.263999999999996,224.94029931640625,33.744C224.20429931640626,34.24,223.83629931640624,34.96,223.83629931640624,35.888C223.83629931640624,36.576,224.09229931640624,37.135999999999996,224.62029931640626,37.568C225.10029931640625,38,225.77229931640625,38.224000000000004,226.63629931640625,38.224000000000004C227.37229931640624,38.224000000000004,228.01229931640626,38.08,228.55629931640624,37.824C229.03629931640626,37.584,229.43629931640623,37.248000000000005,229.75629931640626,36.832L229.75629931640626,38L231.32429931640624,38L231.32429931640624,32.72C231.32429931640624,31.712,231.06829931640624,30.944000000000003,230.57229931640626,30.416C229.99629931640624,29.808,229.10029931640625,29.503999999999998,227.88429931640624,29.503999999999998ZM229.64429931640626,34.176L229.64429931640626,34.656C229.64429931640626,35.296,229.37229931640624,35.84,228.86029931640624,36.272C228.34829931640624,36.704,227.74029931640627,36.928,227.02029931640624,36.928C226.58829931640625,36.928,226.23629931640625,36.816,225.98029931640625,36.608000000000004C225.70829931640625,36.4,225.58029931640624,36.144,225.58029931640624,35.824C225.58029931640624,34.8,226.34829931640624,34.256,227.90029931640623,34.224000000000004L229.64429931640626,34.176ZM233.45229931640625,26.352L233.45229931640625,38L235.14829931640625,38L235.14829931640625,26.352L233.45229931640625,26.352ZM246.74829931640625,26.352C245.53229931640624,26.352,244.52429931640626,26.624,243.72429931640625,27.168C242.87629931640623,27.744,242.46029931640624,28.528,242.46029931640624,29.536C242.46029931640624,30.528,242.89229931640625,31.296,243.77229931640625,31.823999999999998C244.12429931640625,32.016,244.98829931640626,32.32,246.39629931640624,32.768C247.66029931640625,33.152,248.41229931640623,33.408,248.66829931640626,33.536C249.38829931640623,33.903999999999996,249.75629931640626,34.4,249.75629931640626,35.04C249.75629931640626,35.552,249.50029931640626,35.952,248.98829931640626,36.239999999999995C248.47629931640626,36.528,247.78829931640627,36.688,246.92429931640623,36.688C245.96429931640625,36.688,245.26029931640625,36.512,244.79629931640625,36.16C244.28429931640625,35.775999999999996,243.96429931640625,35.12,243.83629931640624,34.224000000000004L242.10829931640626,34.224000000000004C242.20429931640626,35.664,242.71629931640626,36.72,243.66029931640625,37.391999999999996C244.44429931640624,37.936,245.53229931640624,38.224000000000004,246.92429931640623,38.224000000000004C248.36429931640626,38.224000000000004,249.48429931640624,37.936,250.28429931640625,37.36C251.08429931640626,36.768,251.48429931640624,35.968,251.48429931640624,34.944C251.48429931640624,33.888,250.98829931640626,33.072,250.01229931640626,32.480000000000004C249.56429931640625,32.208,248.55629931640624,31.84,247.02029931640624,31.36C245.94829931640623,31.04,245.29229931640626,30.8,245.03629931640626,30.656C244.46029931640624,30.352,244.18829931640624,29.951999999999998,244.18829931640624,29.439999999999998C244.18829931640624,28.864,244.42829931640625,28.448,244.92429931640623,28.192C245.32429931640624,27.968,245.90029931640623,27.856,246.65229931640624,27.856C247.51629931640625,27.856,248.15629931640626,28.016,248.60429931640624,28.352C249.05229931640625,28.672,249.34029931640626,29.216,249.50029931640626,29.951999999999998L251.22829931640626,29.951999999999998C251.11629931640624,28.704,250.66829931640626,27.792,249.86829931640625,27.2C249.11629931640624,26.624,248.07629931640625,26.352,246.74829931640625,26.352ZM255.45229931640625,27.056L253.75629931640626,27.759999999999998L253.75629931640626,29.728L252.22029931640625,29.728L252.22029931640625,31.136L253.75629931640626,31.136L253.75629931640626,35.936C253.75629931640626,36.592,253.90029931640623,37.088,254.22029931640625,37.44C254.54029931640625,37.808,255.06829931640624,38,255.77229931640625,38L257.13229931640626,38L257.13229931640626,36.592L256.04429931640624,36.592C255.83629931640627,36.592,255.69229931640626,36.528,255.59629931640626,36.432C255.50029931640626,36.32,255.45229931640625,36.16,255.45229931640625,35.936L255.45229931640625,31.136L257.34029931640623,31.136L257.34029931640623,29.728L255.45229931640625,29.728L255.45229931640625,27.056ZM258.70029931640624,29.728L258.70029931640624,34.88C258.70029931640624,37.104,259.69229931640626,38.224000000000004,261.69229931640626,38.224000000000004C262.7322993164063,38.224000000000004,263.59629931640626,37.775999999999996,264.30029931640627,36.879999999999995L264.30029931640627,38L265.99629931640624,38L265.99629931640624,29.728L264.30029931640627,29.728L264.30029931640627,34.784C264.15629931640626,35.391999999999996,263.88429931640627,35.888,263.50029931640626,36.256C263.11629931640624,36.608000000000004,262.71629931640626,36.8,262.2682993164062,36.8C261.6122993164063,36.8,261.13229931640626,36.623999999999995,260.84429931640625,36.304C260.5402993164063,35.984,260.39629931640627,35.472,260.39629931640627,34.768L260.39629931640627,29.728L258.70029931640624,29.728ZM273.88429931640627,26.352L273.88429931640627,30.96C273.21229931640624,29.984,272.36429931640623,29.503999999999998,271.35629931640625,29.503999999999998C270.1722993164062,29.503999999999998,269.22829931640626,29.936,268.55629931640624,30.8C267.91629931640625,31.6,267.6122993164063,32.608000000000004,267.6122993164063,33.824C267.6122993164063,35.088,267.9322993164062,36.128,268.57229931640626,36.928C269.26029931640625,37.792,270.2202993164062,38.224000000000004,271.43629931640623,38.224000000000004C272.55629931640624,38.224000000000004,273.4202993164063,37.808,273.99629931640624,37.007999999999996L273.99629931640624,38L275.58029931640624,38L275.58029931640624,26.352L273.88429931640627,26.352ZM271.74029931640627,30.880000000000003C272.36429931640623,30.880000000000003,272.87629931640623,31.119999999999997,273.29229931640623,31.631999999999998C273.7082993164063,32.176,273.9322993164062,32.896,273.9322993164062,33.792L273.9322993164062,33.936C273.9322993164062,34.768,273.7562993164063,35.44,273.40429931640625,35.968C272.98829931640626,36.544,272.42829931640625,36.848,271.69229931640626,36.848C270.86029931640627,36.848,270.23629931640625,36.544,269.85229931640623,35.952C269.5162993164063,35.44,269.35629931640625,34.736000000000004,269.35629931640625,33.824C269.35629931640625,32.912,269.53229931640624,32.208,269.88429931640627,31.728C270.28429931640625,31.152,270.9082993164062,30.880000000000003,271.74029931640627,30.880000000000003ZM278.70029931640624,26.416C278.36429931640623,26.416,278.09229931640624,26.512,277.86829931640625,26.736C277.64429931640626,26.944,277.53229931640624,27.216,277.53229931640624,27.552C277.53229931640624,27.872,277.64429931640626,28.16,277.86829931640625,28.384C278.09229931640624,28.592,278.36429931640623,28.704,278.70029931640624,28.704C279.02029931640624,28.704,279.30829931640625,28.592,279.53229931640624,28.384C279.7562993164063,28.16,279.88429931640627,27.887999999999998,279.88429931640627,27.552C279.88429931640627,27.216,279.77229931640625,26.944,279.54829931640626,26.736C279.32429931640627,26.512,279.03629931640626,26.416,278.70029931640624,26.416ZM277.85229931640623,29.728L277.85229931640623,38L279.54829931640626,38L279.54829931640626,29.728L277.85229931640623,29.728ZM285.64429931640626,29.503999999999998C284.39629931640627,29.503999999999998,283.38829931640623,29.92,282.6362993164063,30.752000000000002C281.88429931640627,31.567999999999998,281.5162993164063,32.608000000000004,281.5162993164063,33.872C281.5162993164063,35.12,281.88429931640627,36.16,282.62029931640626,36.96C283.38829931640623,37.792,284.39629931640627,38.224000000000004,285.64429931640626,38.224000000000004C286.89229931640625,38.224000000000004,287.90029931640623,37.792,288.66829931640626,36.96C289.40429931640625,36.16,289.77229931640625,35.12,289.77229931640625,33.872C289.77229931640625,32.608000000000004,289.38829931640623,31.567999999999998,288.65229931640624,30.752000000000002C287.90029931640623,29.92,286.89229931640625,29.503999999999998,285.64429931640626,29.503999999999998ZM285.64429931640626,30.896C286.42829931640625,30.896,287.03629931640626,31.2,287.48429931640624,31.823999999999998C287.86829931640625,32.352000000000004,288.06029931640626,33.04,288.06029931640626,33.872C288.06029931640626,34.688,287.86829931640625,35.36,287.48429931640624,35.903999999999996C287.03629931640626,36.512,286.42829931640625,36.832,285.64429931640626,36.832C284.86029931640627,36.832,284.25229931640627,36.512,283.82029931640625,35.903999999999996C283.43629931640623,35.376,283.26029931640625,34.704,283.26029931640625,33.872C283.26029931640625,33.04,283.43629931640623,32.352000000000004,283.82029931640625,31.823999999999998C284.25229931640627,31.2,284.86029931640627,30.896,285.64429931640626,30.896ZM301.83629931640627,26.352C300.01229931640626,26.352,298.6362993164063,26.944,297.67629931640624,28.16C296.81229931640627,29.232,296.39629931640627,30.608,296.39629931640627,32.304C296.39629931640627,34.032,296.79629931640625,35.408,297.62829931640624,36.432C298.57229931640626,37.616,299.9802993164062,38.224000000000004,301.85229931640623,38.224000000000004C303.08429931640626,38.224000000000004,304.14029931640624,37.872,305.02029931640624,37.168C305.96429931640625,36.416,306.55629931640624,35.376,306.81229931640627,34.048L305.11629931640624,34.048C304.89229931640625,34.944,304.4922993164063,35.616,303.91629931640625,36.064C303.37229931640627,36.480000000000004,302.66829931640626,36.688,301.83629931640627,36.688C300.55629931640624,36.688,299.6122993164063,36.288,299.0042993164062,35.488C298.42829931640625,34.736000000000004,298.14029931640624,33.68,298.14029931640624,32.304C298.14029931640624,30.976,298.42829931640625,29.92,299.02029931640624,29.152C299.64429931640626,28.304000000000002,300.57229931640626,27.887999999999998,301.80429931640623,27.887999999999998C302.6362993164063,27.887999999999998,303.30829931640625,28.064,303.85229931640623,28.432000000000002C304.39629931640627,28.8,304.76429931640627,29.375999999999998,304.9562993164062,30.144L306.65229931640624,30.144C306.47629931640626,28.992,305.96429931640625,28.064,305.13229931640626,27.392C304.2682993164062,26.688,303.16429931640624,26.352,301.83629931640627,26.352ZM312.2202993164062,29.503999999999998C310.97229931640624,29.503999999999998,309.96429931640625,29.92,309.21229931640624,30.752000000000002C308.46029931640624,31.567999999999998,308.09229931640624,32.608000000000004,308.09229931640624,33.872C308.09229931640624,35.12,308.46029931640624,36.16,309.1962993164062,36.96C309.96429931640625,37.792,310.97229931640624,38.224000000000004,312.2202993164062,38.224000000000004C313.4682993164063,38.224000000000004,314.47629931640626,37.792,315.2442993164062,36.96C315.9802993164062,36.16,316.34829931640627,35.12,316.34829931640627,33.872C316.34829931640627,32.608000000000004,315.96429931640625,31.567999999999998,315.22829931640626,30.752000000000002C314.47629931640626,29.92,313.4682993164063,29.503999999999998,312.2202993164062,29.503999999999998ZM312.2202993164062,30.896C313.0042993164062,30.896,313.6122993164063,31.2,314.06029931640626,31.823999999999998C314.4442993164063,32.352000000000004,314.6362993164063,33.04,314.6362993164063,33.872C314.6362993164063,34.688,314.4442993164063,35.36,314.06029931640626,35.903999999999996C313.6122993164063,36.512,313.0042993164062,36.832,312.2202993164062,36.832C311.43629931640623,36.832,310.82829931640623,36.512,310.39629931640627,35.903999999999996C310.01229931640626,35.376,309.83629931640627,34.704,309.83629931640627,33.872C309.83629931640627,33.04,310.01229931640626,32.352000000000004,310.39629931640627,31.823999999999998C310.82829931640623,31.2,311.43629931640623,30.896,312.2202993164062,30.896ZM323.91629931640625,26.352L323.91629931640625,30.96C323.2442993164062,29.984,322.39629931640627,29.503999999999998,321.38829931640623,29.503999999999998C320.20429931640626,29.503999999999998,319.26029931640625,29.936,318.5882993164063,30.8C317.94829931640623,31.6,317.64429931640626,32.608000000000004,317.64429931640626,33.824C317.64429931640626,35.088,317.96429931640625,36.128,318.60429931640624,36.928C319.29229931640623,37.792,320.25229931640627,38.224000000000004,321.4682993164063,38.224000000000004C322.5882993164063,38.224000000000004,323.45229931640625,37.808,324.0282993164062,37.007999999999996L324.0282993164062,38L325.6122993164063,38L325.6122993164063,26.352L323.91629931640625,26.352ZM321.77229931640625,30.880000000000003C322.39629931640627,30.880000000000003,322.9082993164062,31.119999999999997,323.32429931640627,31.631999999999998C323.7402993164062,32.176,323.96429931640625,32.896,323.96429931640625,33.792L323.96429931640625,33.936C323.96429931640625,34.768,323.7882993164062,35.44,323.43629931640623,35.968C323.02029931640624,36.544,322.46029931640624,36.848,321.72429931640625,36.848C320.89229931640625,36.848,320.2682993164062,36.544,319.8842993164062,35.952C319.54829931640626,35.44,319.38829931640623,34.736000000000004,319.38829931640623,33.824C319.38829931640623,32.912,319.5642993164063,32.208,319.91629931640625,31.728C320.31629931640623,31.152,320.94029931640625,30.880000000000003,321.77229931640625,30.880000000000003ZM331.03629931640626,29.503999999999998C329.82029931640625,29.503999999999998,328.84429931640625,29.92,328.14029931640624,30.768C327.40429931640625,31.6,327.0522993164062,32.624,327.0522993164062,33.856C327.0522993164062,35.216,327.43629931640623,36.288,328.20429931640626,37.088C328.9082993164062,37.84,329.8842993164062,38.224000000000004,331.1002993164062,38.224000000000004C332.20429931640626,38.224000000000004,333.11629931640624,37.903999999999996,333.8362993164062,37.28C334.41229931640623,36.768,334.7802993164063,36.111999999999995,334.97229931640624,35.344L333.27629931640627,35.344C333.0522993164062,35.824,332.8122993164062,36.192,332.52429931640626,36.416C332.15629931640626,36.688,331.67629931640624,36.832,331.08429931640626,36.832C330.41229931640623,36.832,329.8842993164062,36.608000000000004,329.50029931640626,36.192C329.11629931640624,35.76,328.9082993164062,35.135999999999996,328.84429931640625,34.336L335.11629931640624,34.336C335.1002993164062,32.864000000000004,334.7642993164062,31.712,334.1242993164062,30.880000000000003C333.4202993164063,29.951999999999998,332.38029931640625,29.503999999999998,331.03629931640626,29.503999999999998ZM331.08429931640626,30.896C332.42829931640625,30.896,333.18029931640626,31.616,333.34029931640623,33.056L328.8762993164063,33.056C328.97229931640624,32.352000000000004,329.21229931640624,31.823999999999998,329.5642993164063,31.456C329.9482993164063,31.072,330.4442993164063,30.896,331.08429931640626,30.896ZM354.42829931640625,32.352000000000004L354.42829931640625,25.631999999999998L342.31629931640623,25.631999999999998L342.31629931640623,27.088L352.8762993164063,27.088L352.8762993164063,30.896L344.50829931640624,30.896L344.50829931640624,28.704L342.97229931640624,28.704L342.97229931640624,37.024C342.97229931640624,38.432,343.64429931640626,39.135999999999996,345.0042993164062,39.135999999999996L353.8362993164062,39.135999999999996C354.4922993164063,39.104,355.0042993164062,38.912,355.38829931640623,38.56C355.72429931640625,38.192,355.99629931640624,36.992000000000004,356.18829931640624,34.976L354.70029931640624,34.496C354.60429931640624,36.176,354.4442993164063,37.135999999999996,354.18829931640624,37.376000000000005C353.96429931640625,37.568,353.69229931640626,37.664,353.40429931640625,37.664L345.4202993164063,37.664C344.8122993164062,37.664,344.50829931640624,37.36,344.50829931640624,36.751999999999995L344.50829931640624,32.352000000000004L354.42829931640625,32.352000000000004ZM364.1242993164062,24.88L364.1242993164062,26.848L358.0282993164062,26.848L358.0282993164062,28.32L364.1242993164062,28.32L364.1242993164062,30.416L359.2442993164062,30.416L359.2442993164062,31.84L360.36429931640623,31.84C360.60429931640624,32.64,361.0042993164062,33.391999999999996,361.5642993164063,34.096000000000004C362.15629931640626,34.864000000000004,362.8602993164062,35.568,363.6602993164063,36.192C362.01229931640626,37.120000000000005,360.01229931640626,37.856,357.67629931640624,38.384L358.55629931640624,39.744C361.0522993164062,39.072,363.1962993164062,38.192,364.97229931640624,37.088C365.72429931640625,37.536,366.5402993164063,37.952,367.4202993164063,38.336C368.66829931640626,38.864000000000004,369.9802993164062,39.312,371.37229931640627,39.68L372.25229931640627,38.336C370.97229931640624,38.048,369.77229931640625,37.68,368.62029931640626,37.263999999999996C367.77229931640625,36.944,366.98829931640626,36.576,366.2682993164062,36.192C367.86829931640625,34.96,369.1002993164062,33.488,369.9482993164063,31.759999999999998L369.9482993164063,30.416L365.69229931640626,30.416L365.69229931640626,28.32L371.82029931640625,28.32L371.82029931640625,26.848L365.69229931640626,26.848L365.69229931640626,24.88L364.1242993164062,24.88ZM364.94029931640625,35.391999999999996C364.2682993164062,34.928,363.6602993164063,34.4,363.11629931640624,33.824C362.57229931640626,33.248,362.15629931640626,32.592,361.86829931640625,31.84L368.2202993164062,31.84C367.45229931640625,33.2,366.34829931640627,34.384,364.94029931640625,35.391999999999996ZM382.8122993164062,24.976L382.8122993164062,26.464L379.8042993164063,26.464L379.8042993164063,27.856L382.8122993164062,27.856L382.8122993164062,29.375999999999998L379.22829931640626,29.375999999999998L379.22829931640626,30.816000000000003L388.06029931640626,30.816000000000003L388.06029931640626,29.375999999999998L384.30029931640627,29.375999999999998L384.30029931640627,27.856L387.45229931640625,27.856L387.45229931640625,26.464L384.30029931640627,26.464L384.30029931640627,24.976L382.8122993164062,24.976ZM378.97229931640624,32.512L378.97229931640624,33.936L384.66829931640626,33.936L384.66829931640626,37.552C384.66829931640626,37.936,384.46029931640624,38.144,384.06029931640626,38.144C383.45229931640625,38.144,382.8282993164063,38.111999999999995,382.15629931640626,38.064L382.4922993164063,39.536L384.60429931640624,39.536C385.6602993164063,39.536,386.18829931640624,38.992000000000004,386.18829931640624,37.936L386.18829931640624,33.936L388.0762993164062,33.936L388.0762993164062,32.512L386.18829931640624,32.512L386.18829931640624,31.408L384.66829931640626,31.408L384.66829931640626,32.512L378.97229931640624,32.512ZM375.5642993164063,39.504000000000005C376.5882993164063,39.504000000000005,377.11629931640624,38.96,377.11629931640624,37.903999999999996L377.11629931640624,33.584C377.62829931640624,33.36,378.15629931640626,33.12,378.66829931640626,32.864000000000004L378.66829931640626,31.311999999999998C378.15629931640626,31.567999999999998,377.64429931640626,31.823999999999998,377.11629931640624,32.064L377.11629931640624,29.28L378.65229931640624,29.28L378.65229931640624,27.823999999999998L377.11629931640624,27.823999999999998L377.11629931640624,25.088L375.62829931640624,25.088L375.62829931640624,27.823999999999998L373.8042993164063,27.823999999999998L373.8042993164063,29.28L375.62829931640624,29.28L375.62829931640624,32.624C374.94029931640625,32.848,374.25229931640627,33.04,373.54829931640626,33.2L373.9322993164062,34.736000000000004C374.50829931640624,34.56,375.06829931640624,34.368,375.62829931640624,34.176L375.62829931640624,37.519999999999996C375.62829931640624,37.936,375.4202993164063,38.144,375.03629931640626,38.144C374.65229931640624,38.144,374.25229931640627,38.111999999999995,373.8362993164062,38.048L374.15629931640626,39.504000000000005L375.5642993164063,39.504000000000005ZM380.9242993164063,34.448L379.69229931640626,35.2C380.42829931640625,36.144,381.02029931640624,37.007999999999996,381.45229931640625,37.775999999999996L382.65229931640624,36.944C382.25229931640627,36.224000000000004,381.67629931640624,35.391999999999996,380.9242993164063,34.448Z" fill="#FFFFFF" fill-opacity="1"/></g></g></g></svg>