<svg xmlns="http://www.w3.org/2000/svg" xmlns:xlink="http://www.w3.org/1999/xlink" fill="none" version="1.1" width="286.908447265625" height="50" viewBox="0 0 286.908447265625 50"><defs><clipPath id="master_svg0_129_10710"><rect x="281.77685546875" y="0.923583984375" width="5.131591320037842" height="5.1314697265625" rx="0"/></clipPath><linearGradient x1="11.981237836182117" y1="14.341796934604645" x2="276.80901169776917" y2="36.19763255119324" gradientUnits="userSpaceOnUse" id="master_svg1_113_31463"><stop offset="0%" stop-color="#2A7FFF" stop-opacity="1"/><stop offset="93.57143044471741%" stop-color="#FFFFFF" stop-opacity="1"/></linearGradient></defs><g><g><g clip-path="url(#master_svg0_129_10710)"><g><path d="M282.352712671875,3.919056318359375L283.327218671875,4.451996318359376C283.350418671875,4.464676318359375,283.369408671875,4.483666318359375,283.382088671875,4.506866318359375L283.915038671875,5.481346318359375C283.958988671875,5.561676318359375,284.023538671875,5.627626318359375,284.101718671875,5.672026318359375C284.175028671875,5.713666318359375,284.258818671875,5.735666318359375,284.344008671875,5.735666318359375C284.429198671875,5.735666318359375,284.512988671875,5.713666318359375,284.586308671875,5.672026318359375C284.664488671875,5.627626318359375,284.729078671875,5.561676318359375,284.772978671875,5.481346318359375L285.305938671875,4.506866318359375C285.318608671875,4.483666318359375,285.337608671875,4.464676318359375,285.360808671875,4.451996318359376L286.335408671875,3.919056318359375C286.415738671875,3.875106318359375,286.481688671875,3.810566318359375,286.526088671875,3.732386318359375C286.567738671875,3.659076318359375,286.589738671875,3.575286318359375,286.589738671875,3.490096318359375C286.589738671875,3.404906318359375,286.567738671875,3.321116318359375,286.526088671875,3.247806318359375C286.481688671875,3.169626318359375,286.415738671875,3.105036318359375,286.335408671875,3.0611363183593747L285.325428671875,2.5087563183593753L284.773078671875,1.498794318359375C284.729128671875,1.418465318359375,284.664588671875,1.352517318359375,284.586408671875,1.308118618359375C284.513088671875,1.266475518359375,284.429308671875,1.244476318359375,284.344108671875,1.244476318359375C284.258918671875,1.244476318359375,284.175128671875,1.266475518359375,284.101818671875,1.308118618359375C284.023638671875,1.352517318359375,283.959038671875,1.418465318359375,283.915138671875,1.498794318359375L283.382138671875,2.4732763183593747C283.369488671875,2.496446318359375,283.350438671875,2.515496318359375,283.327268671875,2.528146318359375L282.352712671875,3.061086318359375C282.272381671875,3.105036318359375,282.206432671875,3.169576318359375,282.162032471875,3.247756318359375C282.120388371875,3.321066318359375,282.098388671875,3.404856318359375,282.098388671875,3.490046318359375C282.098388671875,3.575236318359375,282.120388371875,3.659026318359375,282.162032471875,3.732336318359375C282.206482671875,3.810566318359375,282.272381671875,3.875106318359375,282.352712671875,3.919056318359375Z" fill="#FFFFFF" fill-opacity="0.5" style="mix-blend-mode:passthrough"/></g></g><g><g><path d="M269.198167,11.0778536328125L271.87335,12.5409136328125C271.93705,12.5757136328125,271.98919,12.6278536328125,272.02399,12.6915536328125L273.48705,15.3667736328125C273.6077,15.5872736328125,273.78488,15.7682736328125,273.99949,15.8901736328125C274.20076,16.0044736328125,274.43078,16.0648736328125,274.66465,16.0648736328125C274.89851,16.0648736328125,275.12853,16.0044736328125,275.3298,15.8901736328125C275.5444,15.7682736328125,275.72173,15.5872736328125,275.84224,15.3667736328125L277.3053,12.6915536328125C277.3401,12.6278536328125,277.39224,12.5757136328125,277.45594,12.5409136328125L280.1314,11.0778536328125C280.3519,10.9572036328125,280.533,10.7800136328125,280.6549,10.565403632812501C280.7692,10.3641436328125,280.8296,10.1341236328125,280.8296,9.9002536328125C280.8296,9.6663836328125,280.7692,9.4363736328125,280.6549,9.2351036328125C280.533,9.0204936328125,280.3519,8.843173632812501,280.1314,8.7226536328125L277.35881,7.2062236328125L275.84252,4.4336406328125C275.72187,4.2131166328125,275.54467999999997,4.0320746328125,275.33007,3.9101876328125C275.12881,3.7958668328125,274.89879,3.7354736328125,274.66492,3.7354736328125C274.43105,3.7354736328125,274.20103,3.7958668328125,273.99977,3.9101876328125C273.78516,4.0320746328125,273.60783,4.2131166328125,273.48732,4.4336406328125L272.02413,7.1088236328125C271.9894,7.1724436328125005,271.93711,7.2247336328125,271.87349,7.2594636328124995L269.198167,8.7225236328125C268.977643,8.843173632812501,268.796601,9.020353632812501,268.674714,9.2349636328125C268.5603932,9.436233632812499,268.5,9.6662536328125,268.5,9.9001236328125C268.5,10.1339836328125,268.5603932,10.3640036328125,268.674714,10.565273632812499C268.796738,10.7800136328125,268.977643,10.9572036328125,269.198167,11.0778536328125Z" fill="#2688FF" fill-opacity="1" style="mix-blend-mode:passthrough"/></g></g></g><g><g><path d="M10.38393896484375,12.296L0.48394796484375,38L4.65994896484375,38L7.07194896484375,31.376L18.12393896484375,31.376L20.53593896484375,38L24.74793896484375,38L14.84793896484375,12.296L10.38393896484375,12.296ZM8.25994896484375,28.136L12.54393896484375,16.508L12.68793896484375,16.508L16.93593896484375,28.136L8.25994896484375,28.136ZM27.33993896484375,12.296L27.33993896484375,38L31.22793896484375,38L31.22793896484375,12.296L27.33993896484375,12.296ZM59.48793896484375,11.792C55.38393896484375,11.792,52.28793896484375,13.124,50.12793896484375,15.86C48.18393896484375,18.272,47.24793896484375,21.368,47.24793896484375,25.184C47.24793896484375,29.072,48.14793896484375,32.168,50.01993896484375,34.472C52.14393896484375,37.136,55.31193896484375,38.504,59.52393896484375,38.504C62.29593896484375,38.504,64.67193896484375,37.712,66.65193896484375,36.128C68.77593896484375,34.436,70.10793896484375,32.096,70.68393896484375,29.108L66.86793896484374,29.108C66.36393896484375,31.124,65.46393896484375,32.636,64.16793896484376,33.644C62.94393896484375,34.58,61.35993896484375,35.048,59.48793896484375,35.048C56.60793896484375,35.048,54.48393896484375,34.148,53.11593896484375,32.348C51.81993896484375,30.656,51.17193896484375,28.28,51.17193896484375,25.184C51.17193896484375,22.196,51.81993896484375,19.82,53.15193896484375,18.092C54.55593896484375,16.184,56.64393896484375,15.248,59.41593896484375,15.248C61.28793896484375,15.248,62.79993896484375,15.644,64.02393896484375,16.472C65.24793896484375,17.3,66.07593896484374,18.596,66.50793896484375,20.324L70.32393896484375,20.324C69.92793896484375,17.732,68.77593896484375,15.644,66.90393896484375,14.132C64.95993896484374,12.548,62.47593896484375,11.792,59.48793896484375,11.792ZM82.85193896484375,18.884C80.04393896484375,18.884,77.77593896484375,19.82,76.08393896484375,21.692C74.39193896484375,23.528,73.56393896484374,25.868,73.56393896484374,28.712C73.56393896484374,31.52,74.39193896484375,33.86,76.04793896484375,35.66C77.77593896484375,37.532,80.04393896484375,38.504,82.85193896484375,38.504C85.65993896484375,38.504,87.92793896484375,37.532,89.65593896484376,35.66C91.31193896484375,33.86,92.13993896484375,31.52,92.13993896484375,28.712C92.13993896484375,25.868,91.27593896484375,23.528,89.61993896484375,21.692C87.92793896484375,19.82,85.65993896484375,18.884,82.85193896484375,18.884ZM82.85193896484375,22.016C84.61593896484375,22.016,85.98393896484374,22.7,86.99193896484375,24.104C87.85593896484374,25.292,88.28793896484375,26.84,88.28793896484375,28.712C88.28793896484375,30.548,87.85593896484374,32.06,86.99193896484375,33.284C85.98393896484374,34.652,84.61593896484375,35.372,82.85193896484375,35.372C81.08793896484374,35.372,79.71993896484375,34.652,78.74793896484375,33.284C77.88393896484375,32.096,77.48793896484375,30.584,77.48793896484375,28.712C77.48793896484375,26.84,77.88393896484375,25.292,78.74793896484375,24.104C79.71993896484375,22.7,81.08793896484374,22.016,82.85193896484375,22.016ZM109.16793896484376,11.792L109.16793896484376,22.16C107.65593896484376,19.964,105.74793896484375,18.884,103.47993896484375,18.884C100.81593896484375,18.884,98.69193896484374,19.856,97.17993896484376,21.8C95.73993896484374,23.6,95.05593896484375,25.868,95.05593896484375,28.604C95.05593896484375,31.448,95.77593896484375,33.788,97.21593896484374,35.588C98.76393896484375,37.532,100.92393896484376,38.504,103.65993896484375,38.504C106.17993896484376,38.504,108.12393896484375,37.568,109.41993896484375,35.768L109.41993896484375,38L112.98393896484374,38L112.98393896484374,11.792L109.16793896484376,11.792ZM104.34393896484374,21.98C105.74793896484375,21.98,106.89993896484376,22.52,107.83593896484375,23.672C108.77193896484376,24.896,109.27593896484375,26.516,109.27593896484375,28.532L109.27593896484375,28.856C109.27593896484375,30.728,108.87993896484375,32.24,108.08793896484374,33.428C107.15193896484375,34.724,105.89193896484375,35.408,104.23593896484375,35.408C102.36393896484375,35.408,100.95993896484374,34.724,100.09593896484375,33.392C99.33993896484375,32.24,98.97993896484375,30.656,98.97993896484375,28.604C98.97993896484375,26.552,99.37593896484375,24.968,100.16793896484376,23.888C101.06793896484375,22.592,102.47193896484374,21.98,104.34393896484374,21.98ZM125.18793896484375,18.884C122.45193896484375,18.884,120.25593896484375,19.82,118.67193896484375,21.728C117.01593896484376,23.6,116.22393896484375,25.904,116.22393896484375,28.676C116.22393896484375,31.736,117.08793896484374,34.148,118.81593896484375,35.948C120.39993896484376,37.64,122.59593896484375,38.504,125.33193896484374,38.504C127.81593896484375,38.504,129.86793896484374,37.784,131.48793896484375,36.38C132.78393896484374,35.228,133.61193896484374,33.752,134.04393896484376,32.024L130.22793896484376,32.024C129.72393896484374,33.104,129.18393896484375,33.932,128.53593896484375,34.436C127.70793896484375,35.048,126.62793896484375,35.372,125.29593896484376,35.372C123.78393896484376,35.372,122.59593896484375,34.868,121.73193896484375,33.932C120.86793896484374,32.96,120.39993896484376,31.556,120.25593896484375,29.756L134.36793896484374,29.756C134.33193896484374,26.444,133.57593896484374,23.852,132.13593896484375,21.98C130.55193896484374,19.892,128.21193896484374,18.884,125.18793896484375,18.884ZM125.29593896484376,22.016C128.31993896484374,22.016,130.01193896484375,23.636,130.37193896484376,26.876L120.32793896484375,26.876C120.54393896484375,25.292,121.08393896484375,24.104,121.87593896484375,23.276C122.73993896484374,22.412,123.85593896484374,22.016,125.29593896484376,22.016ZM137.96793896484374,12.296L137.96793896484374,38L141.89193896484375,38L141.89193896484375,27.38L148.83993896484375,27.38C150.31593896484375,27.38,151.43193896484374,27.668,152.22393896484374,28.316C152.97993896484374,28.964,153.44793896484376,29.972,153.59193896484376,31.412L153.91593896484375,34.616C154.05993896484375,36.056,154.41993896484374,37.208,155.03193896484376,38L159.27993896484375,38C158.41593896484375,37.064,157.91193896484376,35.804,157.76793896484375,34.22L157.33593896484376,30.116C157.04793896484375,27.596,155.78793896484376,26.084,153.48393896484376,25.58L153.48393896484376,25.508C154.88793896484376,25.148,156.00393896484374,24.392,156.83193896484374,23.24C157.55193896484374,22.196,157.91193896484376,21.008,157.91193896484376,19.64C157.91193896484376,17.192,157.11993896484375,15.356,155.53593896484375,14.06C154.02393896484375,12.872,151.93593896484376,12.296,149.34393896484374,12.296L137.96793896484374,12.296ZM141.89193896484375,15.644L148.80393896484375,15.644C150.60393896484376,15.644,151.89993896484376,15.968,152.76393896484376,16.652C153.55593896484376,17.3,153.98793896484375,18.344,153.98793896484375,19.784C153.98793896484375,21.152,153.55593896484376,22.196,152.72793896484376,22.916C151.86393896484375,23.636,150.56793896484376,24.032,148.83993896484375,24.032L141.89193896484375,24.032L141.89193896484375,15.644ZM170.40393896484375,18.884C167.66793896484376,18.884,165.47193896484376,19.82,163.88793896484376,21.728C162.23193896484375,23.6,161.43993896484375,25.904,161.43993896484375,28.676C161.43993896484375,31.736,162.30393896484375,34.148,164.03193896484376,35.948C165.61593896484376,37.64,167.81193896484376,38.504,170.54793896484375,38.504C173.03193896484376,38.504,175.08393896484375,37.784,176.70393896484376,36.38C177.99993896484375,35.228,178.82793896484375,33.752,179.25993896484374,32.024L175.44393896484374,32.024C174.93993896484375,33.104,174.39993896484376,33.932,173.75193896484376,34.436C172.92393896484376,35.048,171.84393896484374,35.372,170.51193896484375,35.372C168.99993896484375,35.372,167.81193896484376,34.868,166.94793896484376,33.932C166.08393896484375,32.96,165.61593896484376,31.556,165.47193896484376,29.756L179.58393896484375,29.756C179.54793896484375,26.444,178.79193896484375,23.852,177.35193896484375,21.98C175.76793896484375,19.892,173.42793896484375,18.884,170.40393896484375,18.884ZM170.51193896484375,22.016C173.53593896484375,22.016,175.22793896484376,23.636,175.58793896484374,26.876L165.54393896484376,26.876C165.75993896484374,25.292,166.29993896484376,24.104,167.09193896484376,23.276C167.95593896484374,22.412,169.07193896484375,22.016,170.51193896484375,22.016ZM180.84393896484374,19.388L187.75593896484375,38L191.57193896484375,38L198.48393896484376,19.388L194.34393896484374,19.388L189.66393896484374,33.248L184.98393896484376,19.388L180.84393896484374,19.388ZM203.52393896484375,11.936C202.76793896484375,11.936,202.15593896484376,12.152,201.65193896484374,12.656C201.14793896484375,13.124,200.89593896484374,13.736,200.89593896484374,14.492C200.89593896484374,15.212,201.14793896484375,15.86,201.65193896484374,16.364C202.15593896484376,16.832,202.76793896484375,17.084,203.52393896484375,17.084C204.24393896484375,17.084,204.89193896484375,16.832,205.39593896484374,16.364C205.89993896484376,15.86,206.18793896484374,15.248,206.18793896484374,14.492C206.18793896484374,13.736,205.93593896484376,13.124,205.43193896484374,12.656C204.92793896484375,12.152,204.27993896484375,11.936,203.52393896484375,11.936ZM201.61593896484376,19.388L201.61593896484376,38L205.43193896484374,38L205.43193896484374,19.388L201.61593896484376,19.388ZM218.46393896484375,18.884C215.72793896484376,18.884,213.53193896484376,19.82,211.94793896484376,21.728C210.29193896484375,23.6,209.49993896484375,25.904,209.49993896484375,28.676C209.49993896484375,31.736,210.36393896484375,34.148,212.09193896484376,35.948C213.67593896484374,37.64,215.87193896484376,38.504,218.60793896484375,38.504C221.09193896484376,38.504,223.14393896484376,37.784,224.76393896484376,36.38C226.05993896484375,35.228,226.88793896484376,33.752,227.31993896484374,32.024L223.50393896484374,32.024C222.99993896484375,33.104,222.45993896484376,33.932,221.81193896484376,34.436C220.98393896484376,35.048,219.90393896484375,35.372,218.57193896484375,35.372C217.05993896484375,35.372,215.87193896484376,34.868,215.00793896484376,33.932C214.14393896484376,32.96,213.67593896484374,31.556,213.53193896484376,29.756L227.64393896484376,29.756C227.60793896484375,26.444,226.85193896484375,23.852,225.41193896484376,21.98C223.82793896484375,19.892,221.48793896484375,18.884,218.46393896484375,18.884ZM218.57193896484375,22.016C221.59593896484375,22.016,223.28793896484376,23.636,223.64793896484375,26.876L213.60393896484376,26.876C213.81993896484374,25.292,214.35993896484376,24.104,215.15193896484374,23.276C216.01593896484374,22.412,217.13193896484376,22.016,218.57193896484375,22.016ZM228.90393896484375,19.388L235.20393896484376,38L238.73193896484375,38L242.61993896484375,24.068L246.50793896484376,38L250.03593896484375,38L256.33593896484376,19.388L252.12393896484375,19.388L248.19993896484374,33.464L244.38393896484374,19.388L240.85593896484374,19.388L237.03993896484374,33.464L233.11593896484376,19.388L228.90393896484375,19.388Z" fill="url(#master_svg1_113_31463)" fill-opacity="1"/></g></g></g></svg>