<svg xmlns="http://www.w3.org/2000/svg" width="573.723" height="190" fill="none"><defs><linearGradient id="c" x1=".023" x2=".553" y1="-.036" y2=".75"><stop offset="0%" stop-color="#5677A8"/><stop offset="74.878%"/></linearGradient><linearGradient id="e" x1="0" x2="1" y1=".5" y2=".5"><stop offset="0%" stop-color="#222" stop-opacity="0"/><stop offset="100%" stop-color="#232323"/></linearGradient><linearGradient id="f" x1=".953" x2=".13" y1=".5" y2=".5"><stop offset="0%"/><stop offset="100%" stop-opacity="0"/></linearGradient><linearGradient id="g" x1=".043" x2=".96" y1=".716" y2=".716"><stop offset="0%" stop-color="#608F4A"/><stop offset="100%" stop-color="#608F4A" stop-opacity="0"/></linearGradient><linearGradient id="h" x1=".043" x2=".96" y1=".716" y2=".716"><stop offset="0%" stop-color="#524A8F"/><stop offset="100%" stop-color="#524A8F" stop-opacity="0"/></linearGradient><linearGradient id="i" x1=".043" x2=".96" y1=".716" y2=".716"><stop offset="0%" stop-color="#A4A100"/><stop offset="100%" stop-color="#A4A100" stop-opacity="0"/></linearGradient><linearGradient id="j" x1=".043" x2=".96" y1=".716" y2=".716"><stop offset="0%" stop-color="#478CD3"/><stop offset="100%" stop-color="#478CD3" stop-opacity="0"/></linearGradient><filter id="b" width="1" height="1" x="0" y="0" color-interpolation-filters="sRGB" filterUnits="objectBoundingBox"><feFlood flood-opacity="0" result="BackgroundImageFix"/><feBlend in="SourceGraphic" in2="BackgroundImageFix" result="shape"/><feGaussianBlur in="BackgroundImageFix" stdDeviation="5"/><feComposite in2="SourceAlpha" operator="in" result="effect1_foregroundBlur"/><feBlend in="SourceGraphic" in2="effect1_foregroundBlur" result="shape"/></filter><filter id="a" width="1" height="1" x="0" y="0" color-interpolation-filters="sRGB" filterUnits="objectBoundingBox"><feFlood flood-opacity="0" result="BackgroundImageFix"/><feBlend in="SourceGraphic" in2="BackgroundImageFix" result="shape"/><feGaussianBlur in="BackgroundImageFix" stdDeviation="5"/><feComposite in2="SourceAlpha" operator="in" result="effect1_foregroundBlur"/><feBlend in="SourceGraphic" in2="effect1_foregroundBlur" result="shape"/></filter><mask id="d" maskUnits="objectBoundingBox" style="mask-type:alpha"><g filter="url(#a)"><path fill="#FFF" d="M176.835 10v167.578h386.316V10c0-5.523-4.477-10-10-10H186.835c-5.523 0-10 4.477-10 10"/></g></mask></defs><g filter="url(#b)"><path fill="url(#c)" fill-rule="evenodd" d="M177.723 10v179.79h396V10c0-5.523-4.477-10-10-10h-376c-5.523 0-10 4.477-10 10m395 178.79h-394V10q0-3.728 2.636-6.364T187.723 1h376q3.728 0 6.364 2.636T572.723 10z"/></g><g mask="url(#d)" style="opacity:.699999988079071"><path fill="#A89FF8" d="M196.417 21.854a.69.69 0 0 0-.516.204c-.144.12-.204.288-.204.504 0 .204.06.372.204.516a.74.74 0 0 0 .516.204.74.74 0 0 0 .516-.204.7.7 0 0 0 .216-.516q0-.324-.216-.504a.69.69 0 0 0-.516-.204m-.48 2.34v6.204h.96v-6.204zm5.472-.168c-.696 0-1.284.324-1.752.996v-.828h-.96v6.204h.96v-3.78c0-.492.144-.912.432-1.248.288-.36.648-.528 1.092-.528.948 0 1.428.54 1.428 1.644v3.912h.96V26.51c0-.504.132-.9.42-1.212.264-.312.612-.456 1.02-.456.528 0 .912.132 1.152.42.228.264.348.672.348 1.224v3.912h.96V26.33c0-.708-.204-1.272-.588-1.692-.408-.408-.924-.612-1.572-.612-.432 0-.792.096-1.092.288-.336.18-.624.48-.864.888-.348-.792-.996-1.176-1.944-1.176m10.512 0c-.936 0-1.62.396-2.064 1.188v-1.02h-.9v8.58h.96V29.27q.72 1.296 2.052 1.296c.888 0 1.572-.336 2.076-.984.456-.6.696-1.356.696-2.268 0-.936-.24-1.692-.708-2.292-.516-.672-1.224-.996-2.112-.996m-.12.792c.66 0 1.164.24 1.512.744.288.432.444 1.02.444 1.752q0 1.116-.468 1.764c-.348.456-.852.696-1.524.696-.576 0-1.02-.228-1.356-.66-.36-.444-.528-1.02-.528-1.74v-.12c0-.696.156-1.272.468-1.704.336-.492.828-.732 1.452-.732m6.96-.792c-.936 0-1.668.312-2.22.96-.528.612-.792 1.38-.792 2.316 0 .924.264 1.692.792 2.292.552.648 1.284.972 2.22.972q1.386 0 2.232-.972c.516-.6.78-1.368.78-2.292 0-.936-.264-1.704-.792-2.316-.552-.648-1.296-.96-2.22-.96m0 .804q.972 0 1.548.756c.324.456.492 1.02.492 1.716 0 .672-.168 1.248-.492 1.704q-.576.756-1.548.756c-.66 0-1.176-.252-1.536-.756-.336-.456-.492-1.02-.492-1.704 0-.696.156-1.26.492-1.716.36-.504.876-.756 1.536-.756m6.984-.804c-.432 0-.804.132-1.128.396-.264.204-.48.492-.648.852v-1.08h-.948v6.204h.948V27.11c0-.576.156-1.068.492-1.476.324-.432.732-.636 1.212-.636.3 0 .612.036.924.132v-.96c-.228-.096-.516-.144-.852-.144m3.312-1.836-.948.396v1.608h-1.248v.804h1.248v3.948c0 .468.096.816.3 1.056.216.264.588.396 1.092.396h.936v-.804h-.792c-.216 0-.372-.06-.456-.156-.096-.096-.132-.264-.132-.492v-3.948h1.536v-.804h-1.536zm-31.776 16-.948.396v1.608h-1.248v.804h1.248v3.948c0 .468.096.816.3 1.056.216.264.588.396 1.092.396h.936v-.804h-.792c-.216 0-.372-.06-.456-.156-.096-.096-.132-.264-.132-.492v-3.948h1.536v-.804h-1.536zm5.328 1.836c-.432 0-.804.132-1.128.396-.264.204-.48.492-.648.852v-1.08h-.948v6.204h.948V43.11c0-.576.156-1.068.492-1.476.324-.432.732-.636 1.212-.636.3 0 .612.036.924.132v-.96c-.228-.096-.516-.144-.852-.144m.972.168 2.46 6.06-1.068 2.52h1.044l3.396-8.58h-1.056l-1.836 4.896-1.896-4.896zM315.157 85.83c-.528 0-.936.144-1.212.444-.264.288-.396.684-.396 1.212v.708h-1.56v.804h1.56v5.4h.96v-5.4h1.752v-.804h-1.752v-.684q0-.45.18-.648c.12-.144.324-.204.588-.204h1.068v-.828zm4.764 2.196c-.936 0-1.668.312-2.22.96-.528.612-.792 1.38-.792 2.316 0 .924.264 1.692.792 2.292.552.648 1.284.972 2.22.972q1.386 0 2.232-.972c.516-.6.78-1.368.78-2.292 0-.936-.264-1.704-.792-2.316-.552-.648-1.296-.96-2.22-.96m0 .804q.972 0 1.548.756c.324.456.492 1.02.492 1.716 0 .672-.168 1.248-.492 1.704q-.576.756-1.548.756c-.66 0-1.176-.252-1.536-.756-.336-.456-.492-1.02-.492-1.704 0-.696.156-1.26.492-1.716.36-.504.876-.756 1.536-.756m6.984-.804c-.432 0-.804.132-1.128.396-.264.204-.48.492-.648.852v-1.08h-.948v6.204h.948V91.11c0-.576.156-1.068.492-1.476.324-.432.732-.636 1.212-.636.3 0 .612.036.924.132v-.96c-.228-.096-.516-.144-.852-.144m16.224-2.172a.69.69 0 0 0-.516.204c-.144.12-.204.288-.204.504 0 .204.06.372.204.516a.74.74 0 0 0 .516.204.74.74 0 0 0 .516-.204.7.7 0 0 0 .216-.516q0-.324-.216-.504a.69.69 0 0 0-.516-.204m-.48 2.34v6.204h.96v-6.204zm5.664-.168q-.612 0-1.116.288-.504.27-.828.792v-.912h-.96v6.204h.96v-3.744c.036-.564.216-1.008.552-1.344a1.52 1.52 0 0 1 1.116-.468c1.08 0 1.632.6 1.632 1.812v3.744h.96v-3.816c0-1.704-.78-2.556-2.316-2.556m83.208-2.172a.69.69 0 0 0-.516.204c-.144.12-.204.288-.204.504 0 .204.06.372.204.516a.74.74 0 0 0 .516.204.74.74 0 0 0 .516-.204.7.7 0 0 0 .216-.516q0-.324-.216-.504a.69.69 0 0 0-.516-.204m-.48 2.34v6.204h.96v-6.204zm5.244-2.364c-.528 0-.936.144-1.212.444-.264.288-.396.684-.396 1.212v.708h-1.56v.804h1.56v5.4h.96v-5.4h1.752v-.804h-1.752v-.684q0-.45.18-.648c.12-.144.324-.204.588-.204h1.068v-.828zm-219.888 16.024a.69.69 0 0 0-.516.204c-.144.12-.204.288-.204.504 0 .204.06.372.204.516a.74.74 0 0 0 .516.204.74.74 0 0 0 .516-.204.7.7 0 0 0 .216-.516q0-.324-.216-.504a.69.69 0 0 0-.516-.204m-.48 2.34v6.204h.96v-6.204zm5.244-2.364c-.528 0-.936.144-1.212.444-.264.288-.396.684-.396 1.212v.708h-1.56v.804h1.56v5.4h.96v-5.4h1.752v-.804h-1.752v-.684q0-.45.18-.648c.12-.144.324-.204.588-.204h1.068v-.828zm-22.572 66.196c-.936 0-1.62.396-2.064 1.188v-1.02h-.9v8.58h.96v-3.504q.72 1.296 2.052 1.296c.888 0 1.572-.336 2.076-.984.456-.6.696-1.356.696-2.268 0-.936-.24-1.692-.708-2.292-.516-.672-1.224-.996-2.112-.996m-.12.792c.66 0 1.164.24 1.512.744.288.432.444 1.02.444 1.752q0 1.116-.468 1.764c-.348.456-.852.696-1.524.696-.576 0-1.02-.228-1.356-.66-.36-.444-.528-1.02-.528-1.74v-.12c0-.696.156-1.272.468-1.704.336-.492.828-.732 1.452-.732m6.912-.792c-.432 0-.804.132-1.128.396-.264.204-.48.492-.648.852v-1.08h-.948v6.204h.948v-3.288c0-.576.156-1.068.492-1.476.324-.432.732-.636 1.212-.636.3 0 .612.036.924.132v-.96c-.228-.096-.516-.144-.852-.144m2.448-2.172a.69.69 0 0 0-.516.204c-.144.12-.204.288-.204.504 0 .204.06.372.204.516a.74.74 0 0 0 .516.204.74.74 0 0 0 .516-.204.7.7 0 0 0 .216-.516q0-.324-.216-.504a.69.69 0 0 0-.516-.204m-.48 2.34v6.204h.96v-6.204zm5.664-.168q-.612 0-1.116.288-.504.27-.828.792v-.912h-.96v6.204h.96v-3.744c.036-.564.216-1.008.552-1.344a1.52 1.52 0 0 1 1.116-.468c1.08 0 1.632.6 1.632 1.812v3.744h.96v-3.816c0-1.704-.78-2.556-2.316-2.556m5.46-1.836-.948.396v1.608h-1.248v.804h1.248v3.948c0 .468.096.816.3 1.056.216.264.588.396 1.092.396h.936v-.804h-.792c-.216 0-.372-.06-.456-.156-.096-.096-.132-.264-.132-.492v-3.948h1.536v-.804h-1.536z"/><path fill="#FFF" d="M236.569 21.854a.69.69 0 0 0-.516.204c-.144.12-.204.288-.204.504 0 .204.06.372.204.516a.74.74 0 0 0 .516.204.77.77 0 0 0 .528-.204.74.74 0 0 0 .204-.516.65.65 0 0 0-.204-.504.71.71 0 0 0-.528-.204m-.48 2.34v6.888c0 .588-.288.888-.852.888h-.504v.804h.576c1.152 0 1.74-.552 1.74-1.656v-6.924zm4.968-.168c-.696 0-1.272.156-1.704.468-.468.312-.696.72-.696 1.248s.228.924.708 1.212c.288.192.804.372 1.536.552.672.168 1.116.3 1.32.396.384.192.588.456.588.804 0 .696-.564 1.056-1.668 1.056q-.792 0-1.188-.288c-.264-.216-.444-.564-.516-1.056h-.936c.144 1.428 1.032 2.148 2.664 2.148 1.752 0 2.628-.648 2.628-1.92 0-.54-.252-.96-.744-1.272-.324-.204-.852-.396-1.596-.576-.624-.168-1.056-.3-1.284-.408-.36-.18-.528-.408-.528-.672q0-.414.396-.648c.24-.168.576-.24 1.008-.24.492 0 .876.096 1.14.288.24.168.396.456.48.84h.936c-.168-1.296-1.008-1.932-2.544-1.932m6.636 0c-.936 0-1.668.312-2.22.96-.528.612-.792 1.38-.792 2.316 0 .924.264 1.692.792 2.292.552.648 1.284.972 2.22.972q1.386 0 2.232-.972c.516-.6.78-1.368.78-2.292 0-.936-.264-1.704-.792-2.316-.552-.648-1.296-.96-2.22-.96m0 .804q.972 0 1.548.756c.324.456.492 1.02.492 1.716 0 .672-.168 1.248-.492 1.704q-.576.756-1.548.756c-.66 0-1.176-.252-1.536-.756-.336-.456-.492-1.02-.492-1.704 0-.696.156-1.26.492-1.716.36-.504.876-.756 1.536-.756m7.164-.804q-.612 0-1.116.288-.504.27-.828.792v-.912h-.96v6.204h.96v-3.744c.036-.564.216-1.008.552-1.344a1.52 1.52 0 0 1 1.116-.468c1.08 0 1.632.6 1.632 1.812v3.744h.96v-3.816c0-1.704-.78-2.556-2.316-2.556m-43.8 16.528a.66.66 0 0 0-.516.216.7.7 0 0 0-.216.516c0 .204.072.384.216.528.132.132.3.204.516.204a.76.76 0 0 0 .516-.204.73.73 0 0 0 .216-.528.7.7 0 0 0-.216-.516.72.72 0 0 0-.516-.216m0 4.392a.66.66 0 0 0-.516.216.7.7 0 0 0-.216.516c0 .204.072.384.216.528.132.132.3.204.516.204a.76.76 0 0 0 .516-.204.73.73 0 0 0 .216-.528.7.7 0 0 0-.216-.516.72.72 0 0 0-.516-.216m9.132 8.716v3.672c-.48-.876-1.164-1.308-2.052-1.308s-1.572.324-2.076.996c-.468.6-.696 1.344-.696 2.256 0 .936.228 1.704.696 2.304.504.648 1.212.984 2.124.984.936 0 1.632-.396 2.064-1.188v1.02h.9v-8.736zm-1.848 3.156c.552 0 1.008.216 1.356.672.336.444.516 1.032.516 1.752v.12c0 .696-.156 1.26-.456 1.692-.348.48-.828.72-1.452.72-.672 0-1.176-.252-1.512-.732-.3-.432-.444-1.02-.444-1.764s.144-1.32.456-1.74c.336-.48.852-.72 1.536-.72m6.996-.792c-.744 0-1.332.144-1.788.432-.504.312-.828.804-.96 1.452l.948.072c.096-.396.3-.696.624-.888.288-.192.66-.276 1.116-.276 1.08 0 1.62.516 1.62 1.56v.324l-1.488.024c-.936.012-1.656.192-2.16.528-.576.36-.852.888-.852 1.596 0 .504.192.924.576 1.248.372.312.864.468 1.488.468a3.15 3.15 0 0 0 1.548-.384c.384-.216.708-.492.948-.828v1.044h.9v-3.984c0-.72-.192-1.284-.552-1.692-.432-.468-1.08-.696-1.968-.696m1.56 3.396v.528c0 .48-.228.912-.672 1.284a2.35 2.35 0 0 1-1.56.576c-.384 0-.696-.096-.936-.276a.85.85 0 0 1-.348-.708c0-.9.696-1.356 2.088-1.38zM231 54.19l-.948.396v1.608h-1.248v.804h1.248v3.948c0 .468.096.816.3 1.056.216.264.588.396 1.092.396h.936v-.804h-.792c-.216 0-.372-.06-.456-.156-.096-.096-.132-.264-.132-.492v-3.948h1.536v-.804H231zm5.304 1.836c-.744 0-1.332.144-1.788.432-.504.312-.828.804-.96 1.452l.948.072c.096-.396.3-.696.624-.888.288-.192.66-.276 1.116-.276 1.08 0 1.62.516 1.62 1.56v.324l-1.488.024c-.936.012-1.656.192-2.16.528-.576.36-.852.888-.852 1.596 0 .504.192.924.576 1.248.372.312.864.468 1.488.468a3.15 3.15 0 0 0 1.548-.384c.384-.216.708-.492.948-.828v1.044h.9v-3.984c0-.72-.192-1.284-.552-1.692-.432-.468-1.08-.696-1.968-.696m1.56 3.396v.528c0 .48-.228.912-.672 1.284a2.35 2.35 0 0 1-1.56.576c-.384 0-.696-.096-.936-.276a.85.85 0 0 1-.348-.708c0-.9.696-1.356 2.088-1.38zm6.3-1.764v.804h6.06v-.804zm0 2.46v.816h6.06v-.816zm12.312-6.264a.69.69 0 0 0-.516.204c-.144.12-.204.288-.204.504 0 .204.06.372.204.516a.74.74 0 0 0 .516.204.77.77 0 0 0 .528-.204.74.74 0 0 0 .204-.516.65.65 0 0 0-.204-.504.71.71 0 0 0-.528-.204m-.48 2.34v6.888c0 .588-.288.888-.852.888h-.504v.804h.576c1.152 0 1.74-.552 1.74-1.656v-6.924zm4.968-.168c-.696 0-1.272.156-1.704.468-.468.312-.696.72-.696 1.248s.228.924.708 1.212c.288.192.804.372 1.536.552.672.168 1.116.3 1.32.396.384.192.588.456.588.804 0 .696-.564 1.056-1.668 1.056q-.792 0-1.188-.288c-.264-.216-.444-.564-.516-1.056h-.936c.144 1.428 1.032 2.148 2.664 2.148 1.752 0 2.628-.648 2.628-1.92 0-.54-.252-.96-.744-1.272-.324-.204-.852-.396-1.596-.576-.624-.168-1.056-.3-1.284-.408-.36-.18-.528-.408-.528-.672q0-.414.396-.648c.24-.168.576-.24 1.008-.24.492 0 .876.096 1.14.288.24.168.396.456.48.84h.936c-.168-1.296-1.008-1.932-2.544-1.932m6.636 0c-.936 0-1.668.312-2.22.96-.528.612-.792 1.38-.792 2.316 0 .924.264 1.692.792 2.292.552.648 1.284.972 2.22.972q1.386 0 2.232-.972c.516-.6.78-1.368.78-2.292 0-.936-.264-1.704-.792-2.316-.552-.648-1.296-.96-2.22-.96m0 .804q.972 0 1.548.756c.324.456.492 1.02.492 1.716 0 .672-.168 1.248-.492 1.704q-.576.756-1.548.756c-.66 0-1.176-.252-1.536-.756-.336-.456-.492-1.02-.492-1.704 0-.696.156-1.26.492-1.716.36-.504.876-.756 1.536-.756m7.164-.804q-.612 0-1.116.288-.504.27-.828.792v-.912h-.96v6.204h.96v-3.744c.036-.564.216-1.008.552-1.344a1.52 1.52 0 0 1 1.116-.468c1.08 0 1.632.6 1.632 1.812v3.744h.96v-3.816c0-1.704-.78-2.556-2.316-2.556m4.644 4.944a.66.66 0 0 0-.516.216.7.7 0 0 0-.216.528c0 .204.072.372.216.516.132.144.3.216.516.216a.72.72 0 0 0 .516-.216.7.7 0 0 0 .216-.516.7.7 0 0 0-.216-.528.72.72 0 0 0-.516-.216m2.52-7.308v8.736h.948v-8.736zm5.4 2.364c-.936 0-1.668.312-2.22.96-.528.612-.792 1.38-.792 2.316 0 .924.264 1.692.792 2.292.552.648 1.284.972 2.22.972q1.386 0 2.232-.972c.516-.6.78-1.368.78-2.292 0-.936-.264-1.704-.792-2.316-.552-.648-1.296-.96-2.22-.96m0 .804q.972 0 1.548.756c.324.456.492 1.02.492 1.716 0 .672-.168 1.248-.492 1.704q-.576.756-1.548.756c-.66 0-1.176-.252-1.536-.756-.336-.456-.492-1.02-.492-1.704 0-.696.156-1.26.492-1.716.36-.504.876-.756 1.536-.756m6.96-.804c-.744 0-1.332.144-1.788.432-.504.312-.828.804-.96 1.452l.948.072c.096-.396.3-.696.624-.888.288-.192.66-.276 1.116-.276 1.08 0 1.62.516 1.62 1.56v.324l-1.488.024c-.936.012-1.656.192-2.16.528-.576.36-.852.888-.852 1.596 0 .504.192.924.576 1.248.372.312.864.468 1.488.468a3.15 3.15 0 0 0 1.548-.384c.384-.216.708-.492.948-.828v1.044h.9v-3.984c0-.72-.192-1.284-.552-1.692-.432-.468-1.08-.696-1.968-.696m1.56 3.396v.528c0 .48-.228.912-.672 1.284a2.35 2.35 0 0 1-1.56.576c-.384 0-.696-.096-.936-.276a.85.85 0 0 1-.348-.708c0-.9.696-1.356 2.088-1.38zm7.032-5.76v3.672c-.48-.876-1.164-1.308-2.052-1.308s-1.572.324-2.076.996c-.468.6-.696 1.344-.696 2.256 0 .936.228 1.704.696 2.304.504.648 1.212.984 2.124.984.936 0 1.632-.396 2.064-1.188v1.02h.9v-8.736zm-1.848 3.156c.552 0 1.008.216 1.356.672.336.444.516 1.032.516 1.752v.12c0 .696-.156 1.26-.456 1.692-.348.48-.828.72-1.452.72-.672 0-1.176-.252-1.512-.732-.3-.432-.444-1.02-.444-1.764s.144-1.32.456-1.74c.336-.48.852-.72 1.536-.72m6.492-.792c-.696 0-1.272.156-1.704.468-.468.312-.696.72-.696 1.248s.228.924.708 1.212c.288.192.804.372 1.536.552.672.168 1.116.3 1.32.396.384.192.588.456.588.804 0 .696-.564 1.056-1.668 1.056q-.792 0-1.188-.288c-.264-.216-.444-.564-.516-1.056h-.936c.144 1.428 1.032 2.148 2.664 2.148 1.752 0 2.628-.648 2.628-1.92 0-.54-.252-.96-.744-1.272-.324-.204-.852-.396-1.596-.576-.624-.168-1.056-.3-1.284-.408-.36-.18-.528-.408-.528-.672q0-.414.396-.648c.24-.168.576-.24 1.008-.24.492 0 .876.096 1.14.288.24.168.396.456.48.84h.936c-.168-1.296-1.008-1.932-2.544-1.932m5.58-3.552a10.1 10.1 0 0 0-1.236 2.472 9.5 9.5 0 0 0-.528 3.144c0 1.044.168 2.088.528 3.12.3.864.708 1.692 1.236 2.472h.84a11 11 0 0 1-1.14-2.484 9.6 9.6 0 0 1-.528-3.12c0-1.032.168-2.064.528-3.12.264-.864.648-1.692 1.14-2.484zm2.472 1.188v8.736h.948v-8.736zm3.42.192a.69.69 0 0 0-.516.204c-.144.12-.204.288-.204.504 0 .204.06.372.204.516a.74.74 0 0 0 .516.204.74.74 0 0 0 .516-.204.7.7 0 0 0 .216-.516q0-.324-.216-.504a.69.69 0 0 0-.516-.204m-.48 2.34v6.204h.96v-6.204zm5.664-.168q-.612 0-1.116.288-.504.27-.828.792v-.912h-.96v6.204h.96v-3.744c.036-.564.216-1.008.552-1.344a1.52 1.52 0 0 1 1.116-.468c1.08 0 1.632.6 1.632 1.812v3.744h.96v-3.816c0-1.704-.78-2.556-2.316-2.556m6.36 0c-.9 0-1.608.324-2.136.972-.528.612-.78 1.38-.78 2.292 0 1.008.264 1.8.816 2.4.528.576 1.248.876 2.136.876.804 0 1.464-.24 1.98-.696.42-.384.696-.864.84-1.464h-.96c-.156.432-.36.756-.624.972-.312.252-.732.384-1.236.384-.588 0-1.056-.192-1.392-.576s-.516-.924-.564-1.62h4.896c-.024-1.08-.264-1.932-.72-2.532-.504-.672-1.26-1.008-2.256-1.008m.024.804c1.176 0 1.836.66 1.956 1.992h-3.876c.06-.612.252-1.092.588-1.452q.504-.54 1.332-.54m4.032-4.356c.48.792.864 1.62 1.14 2.484.348 1.056.528 2.088.528 3.12 0 1.02-.18 2.064-.528 3.12-.276.852-.66 1.68-1.14 2.484h.84c.516-.78.924-1.608 1.236-2.472a9.7 9.7 0 0 0 .528-3.12c0-1.068-.18-2.112-.528-3.144a11 11 0 0 0-1.236-2.472zM214.92 88.194l2.34 6.204h.972l2.352-6.204h-1.056l-1.776 5.004-1.776-5.004zm9.168-.168c-.744 0-1.332.144-1.788.432-.504.312-.828.804-.96 1.452l.948.072c.096-.396.3-.696.624-.888.288-.192.66-.276 1.116-.276 1.08 0 1.62.516 1.62 1.56v.324l-1.488.024c-.936.012-1.656.192-2.16.528-.576.36-.852.888-.852 1.596 0 .504.192.924.576 1.248.372.312.864.468 1.488.468a3.15 3.15 0 0 0 1.548-.384c.384-.216.708-.492.948-.828v1.044h.9v-3.984c0-.72-.192-1.284-.552-1.692-.432-.468-1.08-.696-1.968-.696m1.56 3.396v.528c0 .48-.228.912-.672 1.284a2.35 2.35 0 0 1-1.56.576c-.384 0-.696-.096-.936-.276a.85.85 0 0 1-.348-.708c0-.9.696-1.356 2.088-1.38zm2.64-5.76v8.736h.948v-8.736zm2.628 2.532v3.84c0 1.68.744 2.532 2.256 2.532.84 0 1.512-.384 2.016-1.128v.96h.96v-6.204h-.96v3.78q-.108.792-.612 1.296c-.324.312-.696.48-1.104.48-.564 0-.972-.156-1.224-.444s-.372-.732-.372-1.32v-3.792zm9.276-.168c-.9 0-1.608.324-2.136.972-.528.612-.78 1.38-.78 2.292 0 1.008.264 1.8.816 2.4.528.576 1.248.876 2.136.876.804 0 1.464-.24 1.98-.696.42-.384.696-.864.84-1.464h-.96c-.156.432-.36.756-.624.972-.312.252-.732.384-1.236.384-.588 0-1.056-.192-1.392-.576s-.516-.924-.564-1.62h4.896c-.024-1.08-.264-1.932-.72-2.532-.504-.672-1.26-1.008-2.256-1.008m.024.804c1.176 0 1.836.66 1.956 1.992h-3.876c.06-.612.252-1.092.588-1.452q.504-.54 1.332-.54m6.276-.804c-.696 0-1.272.156-1.704.468-.468.312-.696.72-.696 1.248s.228.924.708 1.212c.288.192.804.372 1.536.552.672.168 1.116.3 1.32.396.384.192.588.456.588.804 0 .696-.564 1.056-1.668 1.056q-.792 0-1.188-.288c-.264-.216-.444-.564-.516-1.056h-.936c.144 1.428 1.032 2.148 2.664 2.148 1.752 0 2.628-.648 2.628-1.92 0-.54-.252-.96-.744-1.272-.324-.204-.852-.396-1.596-.576-.624-.168-1.056-.3-1.284-.408-.36-.18-.528-.408-.528-.672q0-.414.396-.648c.24-.168.576-.24 1.008-.24.492 0 .876.096 1.14.288.24.168.396.456.48.84h.936c-.168-1.296-1.008-1.932-2.544-1.932m7.716 1.632v.804h6.06v-.804zm0 2.46v.816h6.06v-.816zm11.184-7.644v11.208h2.94v-.804h-2.052v-9.6h2.052v-.804zm31.224 0a10.1 10.1 0 0 0-1.236 2.472 9.5 9.5 0 0 0-.528 3.144c0 1.044.168 2.088.528 3.12.3.864.708 1.692 1.236 2.472h.84a11 11 0 0 1-1.14-2.484 9.6 9.6 0 0 1-.528-3.12c0-1.032.168-2.064.528-3.12.264-.864.648-1.692 1.14-2.484zm1.596 3.72 2.34 6.204h.972l2.352-6.204h-1.056l-1.776 5.004-1.776-5.004zm6.42-3.72c.48.792.864 1.62 1.14 2.484.348 1.056.528 2.088.528 3.12 0 1.02-.18 2.064-.528 3.12-.276.852-.66 1.68-1.14 2.484h.84c.516-.78.924-1.608 1.236-2.472a9.7 9.7 0 0 0 .528-3.12c0-1.068-.18-2.112-.528-3.144a11 11 0 0 0-1.236-2.472zm27.24 3.72 2.34 6.204h.972l2.352-6.204h-1.056l-1.776 5.004-1.776-5.004zm28.824-2.532v3.672c-.48-.876-1.164-1.308-2.052-1.308s-1.572.324-2.076.996c-.468.6-.696 1.344-.696 2.256 0 .936.228 1.704.696 2.304.504.648 1.212.984 2.124.984.936 0 1.632-.396 2.064-1.188v1.02h.9v-8.736zm-1.848 3.156c.552 0 1.008.216 1.356.672.336.444.516 1.032.516 1.752v.12c0 .696-.156 1.26-.456 1.692-.348.48-.828.72-1.452.72-.672 0-1.176-.252-1.512-.732-.3-.432-.444-1.02-.444-1.764s.144-1.32.456-1.74c.336-.48.852-.72 1.536-.72m6.996-.792c-.744 0-1.332.144-1.788.432-.504.312-.828.804-.96 1.452l.948.072c.096-.396.3-.696.624-.888.288-.192.66-.276 1.116-.276 1.08 0 1.62.516 1.62 1.56v.324l-1.488.024c-.936.012-1.656.192-2.16.528-.576.36-.852.888-.852 1.596 0 .504.192.924.576 1.248.372.312.864.468 1.488.468a3.15 3.15 0 0 0 1.548-.384c.384-.216.708-.492.948-.828v1.044h.9v-3.984c0-.72-.192-1.284-.552-1.692-.432-.468-1.08-.696-1.968-.696m1.56 3.396v.528c0 .48-.228.912-.672 1.284a2.35 2.35 0 0 1-1.56.576c-.384 0-.696-.096-.936-.276a.85.85 0 0 1-.348-.708c0-.9.696-1.356 2.088-1.38zm4.104-5.232-.948.396v1.608h-1.248v.804h1.248v3.948c0 .468.096.816.3 1.056.216.264.588.396 1.092.396h.936v-.804h-.792c-.216 0-.372-.06-.456-.156-.096-.096-.132-.264-.132-.492v-3.948h1.536v-.804h-1.536zm5.304 1.836c-.744 0-1.332.144-1.788.432-.504.312-.828.804-.96 1.452l.948.072c.096-.396.3-.696.624-.888.288-.192.66-.276 1.116-.276 1.08 0 1.62.516 1.62 1.56v.324l-1.488.024c-.936.012-1.656.192-2.16.528-.576.36-.852.888-.852 1.596 0 .504.192.924.576 1.248.372.312.864.468 1.488.468a3.15 3.15 0 0 0 1.548-.384c.384-.216.708-.492.948-.828v1.044h.9v-3.984c0-.72-.192-1.284-.552-1.692-.432-.468-1.08-.696-1.968-.696m1.56 3.396v.528c0 .48-.228.912-.672 1.284a2.35 2.35 0 0 1-1.56.576c-.384 0-.696-.096-.936-.276a.85.85 0 0 1-.348-.708c0-.9.696-1.356 2.088-1.38zm3.288 1.548a.66.66 0 0 0-.516.216.7.7 0 0 0-.216.528c0 .204.072.372.216.516.132.144.3.216.516.216a.72.72 0 0 0 .516-.216.7.7 0 0 0 .216-.516.7.7 0 0 0-.216-.528.72.72 0 0 0-.516-.216m1.644-4.776 2.34 6.204h.972l2.352-6.204h-1.056l-1.776 5.004-1.776-5.004zm9.168-.168c-.744 0-1.332.144-1.788.432-.504.312-.828.804-.96 1.452l.948.072c.096-.396.3-.696.624-.888.288-.192.66-.276 1.116-.276 1.08 0 1.62.516 1.62 1.56v.324l-1.488.024c-.936.012-1.656.192-2.16.528-.576.36-.852.888-.852 1.596 0 .504.192.924.576 1.248.372.312.864.468 1.488.468a3.15 3.15 0 0 0 1.548-.384c.384-.216.708-.492.948-.828v1.044h.9v-3.984c0-.72-.192-1.284-.552-1.692-.432-.468-1.08-.696-1.968-.696m1.56 3.396v.528c0 .48-.228.912-.672 1.284a2.35 2.35 0 0 1-1.56.576c-.384 0-.696-.096-.936-.276a.85.85 0 0 1-.348-.708c0-.9.696-1.356 2.088-1.38zm2.64-5.76v8.736h.948v-8.736zm2.628 2.532v3.84c0 1.68.744 2.532 2.256 2.532.84 0 1.512-.384 2.016-1.128v.96h.96v-6.204h-.96v3.78q-.108.792-.612 1.296c-.324.312-.696.48-1.104.48-.564 0-.972-.156-1.224-.444s-.372-.732-.372-1.32v-3.792zm9.276-.168c-.9 0-1.608.324-2.136.972-.528.612-.78 1.38-.78 2.292 0 1.008.264 1.8.816 2.4.528.576 1.248.876 2.136.876.804 0 1.464-.24 1.98-.696.42-.384.696-.864.84-1.464h-.96c-.156.432-.36.756-.624.972-.312.252-.732.384-1.236.384-.588 0-1.056-.192-1.392-.576s-.516-.924-.564-1.62h4.896c-.024-1.08-.264-1.932-.72-2.532-.504-.672-1.26-1.008-2.256-1.008m.024.804c1.176 0 1.836.66 1.956 1.992h-3.876c.06-.612.252-1.092.588-1.452q.504-.54 1.332-.54m6.276-.804c-.696 0-1.272.156-1.704.468-.468.312-.696.72-.696 1.248s.228.924.708 1.212c.288.192.804.372 1.536.552.672.168 1.116.3 1.32.396.384.192.588.456.588.804 0 .696-.564 1.056-1.668 1.056q-.792 0-1.188-.288c-.264-.216-.444-.564-.516-1.056h-.936c.144 1.428 1.032 2.148 2.664 2.148 1.752 0 2.628-.648 2.628-1.92 0-.54-.252-.96-.744-1.272-.324-.204-.852-.396-1.596-.576-.624-.168-1.056-.3-1.284-.408-.36-.18-.528-.408-.528-.672q0-.414.396-.648c.24-.168.576-.24 1.008-.24.492 0 .876.096 1.14.288.24.168.396.456.48.84h.936c-.168-1.296-1.008-1.932-2.544-1.932m5.58-3.552a10.1 10.1 0 0 0-1.236 2.472 9.5 9.5 0 0 0-.528 3.144c0 1.044.168 2.088.528 3.12.3.864.708 1.692 1.236 2.472h.84a11 11 0 0 1-1.14-2.484 9.6 9.6 0 0 1-.528-3.12c0-1.032.168-2.064.528-3.12.264-.864.648-1.692 1.14-2.484zm2.232 0c.48.792.864 1.62 1.14 2.484.348 1.056.528 2.088.528 3.12 0 1.02-.18 2.064-.528 3.12-.276.852-.66 1.68-1.14 2.484h.84c.516-.78.924-1.608 1.236-2.472a9.7 9.7 0 0 0 .528-3.12c0-1.068-.18-2.112-.528-3.144a11 11 0 0 0-1.236-2.472zm77.172 0a10.1 10.1 0 0 0-1.236 2.472 9.5 9.5 0 0 0-.528 3.144c0 1.044.168 2.088.528 3.12.3.864.708 1.692 1.236 2.472h.84a11 11 0 0 1-1.14-2.484 9.6 9.6 0 0 1-.528-3.12c0-1.032.168-2.064.528-3.12.264-.864.648-1.692 1.14-2.484zm1.596 3.72 2.34 6.204h.972l2.352-6.204h-1.056l-1.776 5.004-1.776-5.004zm7.308 4.776c-.24 0-.42.06-.552.204-.156.132-.228.312-.228.54 0 .204.072.384.216.528a.7.7 0 0 0 .516.216.7.7 0 0 0 .264-.048c0 .288-.084.552-.264.804a1.67 1.67 0 0 1-.768.528v.588a2.3 2.3 0 0 0 1.248-.78q.468-.612.468-1.404c0-.348-.084-.624-.24-.84a.79.79 0 0 0-.66-.336m8.04-8.496a10.1 10.1 0 0 0-1.236 2.472 9.5 9.5 0 0 0-.528 3.144c0 1.044.168 2.088.528 3.12.3.864.708 1.692 1.236 2.472h.84a11 11 0 0 1-1.14-2.484 9.6 9.6 0 0 1-.528-3.12c0-1.032.168-2.064.528-3.12.264-.864.648-1.692 1.14-2.484zm17.16 8.496c-.24 0-.42.06-.552.204-.156.132-.228.312-.228.54 0 .204.072.384.216.528a.7.7 0 0 0 .516.216.7.7 0 0 0 .264-.048c0 .288-.084.552-.264.804a1.67 1.67 0 0 1-.768.528v.588a2.3 2.3 0 0 0 1.248-.78q.468-.612.468-1.404c0-.348-.084-.624-.24-.84a.79.79 0 0 0-.66-.336m31.572-8.496c.48.792.864 1.62 1.14 2.484.348 1.056.528 2.088.528 3.12 0 1.02-.18 2.064-.528 3.12-.276.852-.66 1.68-1.14 2.484h.84c.516-.78.924-1.608 1.236-2.472a9.7 9.7 0 0 0 .528-3.12c0-1.068-.18-2.112-.528-3.144a11 11 0 0 0-1.236-2.472zm3.996 0c.48.792.864 1.62 1.14 2.484.348 1.056.528 2.088.528 3.12 0 1.02-.18 2.064-.528 3.12-.276.852-.66 1.68-1.14 2.484h.84c.516-.78.924-1.608 1.236-2.472a9.7 9.7 0 0 0 .528-3.12c0-1.068-.18-2.112-.528-3.144a11 11 0 0 0-1.236-2.472zm3.828 0v.804h2.052v9.6h-2.052v.804h2.94V84.474zm-346.896 19.72 2.34 6.204h.972l2.352-6.204h-1.056l-1.776 5.004-1.776-5.004zm9.168-.168c-.744 0-1.332.144-1.788.432-.504.312-.828.804-.96 1.452l.948.072c.096-.396.3-.696.624-.888.288-.192.66-.276 1.116-.276 1.08 0 1.62.516 1.62 1.56v.324l-1.488.024c-.936.012-1.656.192-2.16.528-.576.36-.852.888-.852 1.596 0 .504.192.924.576 1.248.372.312.864.468 1.488.468a3.15 3.15 0 0 0 1.548-.384c.384-.216.708-.492.948-.828v1.044h.9v-3.984c0-.72-.192-1.284-.552-1.692-.432-.468-1.08-.696-1.968-.696m1.56 3.396v.528c0 .48-.228.912-.672 1.284a2.35 2.35 0 0 1-1.56.576c-.384 0-.696-.096-.936-.276a.85.85 0 0 1-.348-.708c0-.9.696-1.356 2.088-1.38zm2.64-5.76v8.736h.948v-8.736zm2.628 2.532v3.84c0 1.68.744 2.532 2.256 2.532.84 0 1.512-.384 2.016-1.128v.96h.96v-6.204h-.96v3.78q-.108.792-.612 1.296c-.324.312-.696.48-1.104.48-.564 0-.972-.156-1.224-.444s-.372-.732-.372-1.32v-3.792zm9.276-.168c-.9 0-1.608.324-2.136.972-.528.612-.78 1.38-.78 2.292 0 1.008.264 1.8.816 2.4.528.576 1.248.876 2.136.876.804 0 1.464-.24 1.98-.696.42-.384.696-.864.84-1.464h-.96c-.156.432-.36.756-.624.972-.312.252-.732.384-1.236.384-.588 0-1.056-.192-1.392-.576s-.516-.924-.564-1.62h4.896c-.024-1.08-.264-1.932-.72-2.532-.504-.672-1.26-1.008-2.256-1.008m.024.804c1.176 0 1.836.66 1.956 1.992h-3.876c.06-.612.252-1.092.588-1.452q.504-.54 1.332-.54m6.276-.804c-.696 0-1.272.156-1.704.468-.468.312-.696.72-.696 1.248s.228.924.708 1.212c.288.192.804.372 1.536.552.672.168 1.116.3 1.32.396.384.192.588.456.588.804 0 .696-.564 1.056-1.668 1.056q-.792 0-1.188-.288c-.264-.216-.444-.564-.516-1.056h-.936c.144 1.428 1.032 2.148 2.664 2.148 1.752 0 2.628-.648 2.628-1.92 0-.54-.252-.96-.744-1.272-.324-.204-.852-.396-1.596-.576-.624-.168-1.056-.3-1.284-.408-.36-.18-.528-.408-.528-.672q0-.414.396-.648c.24-.168.576-.24 1.008-.24.492 0 .876.096 1.14.288.24.168.396.456.48.84h.936c-.168-1.296-1.008-1.932-2.544-1.932m4.704.528a.66.66 0 0 0-.516.216.7.7 0 0 0-.216.516c0 .204.072.384.216.528.132.132.3.204.516.204a.76.76 0 0 0 .516-.204.73.73 0 0 0 .216-.528.7.7 0 0 0-.216-.516.72.72 0 0 0-.516-.216m0 4.392a.66.66 0 0 0-.516.216.7.7 0 0 0-.216.516c0 .204.072.384.216.528.132.132.3.204.516.204a.76.76 0 0 0 .516-.204.73.73 0 0 0 .216-.528.7.7 0 0 0-.216-.516.72.72 0 0 0-.516-.216m-22.572 8.716v3.672c-.48-.876-1.164-1.308-2.052-1.308s-1.572.324-2.076.996c-.468.6-.696 1.344-.696 2.256 0 .936.228 1.704.696 2.304.504.648 1.212.984 2.124.984.936 0 1.632-.396 2.064-1.188v1.02h.9v-8.736zm-1.848 3.156c.552 0 1.008.216 1.356.672.336.444.516 1.032.516 1.752v.12c0 .696-.156 1.26-.456 1.692-.348.48-.828.72-1.452.72-.672 0-1.176-.252-1.512-.732-.3-.432-.444-1.02-.444-1.764s.144-1.32.456-1.74c.336-.48.852-.72 1.536-.72m6.996-.792c-.744 0-1.332.144-1.788.432-.504.312-.828.804-.96 1.452l.948.072c.096-.396.3-.696.624-.888.288-.192.66-.276 1.116-.276 1.08 0 1.62.516 1.62 1.56v.324l-1.488.024c-.936.012-1.656.192-2.16.528-.576.36-.852.888-.852 1.596 0 .504.192.924.576 1.248.372.312.864.468 1.488.468a3.15 3.15 0 0 0 1.548-.384c.384-.216.708-.492.948-.828v1.044h.9v-3.984c0-.72-.192-1.284-.552-1.692-.432-.468-1.08-.696-1.968-.696m1.56 3.396v.528c0 .48-.228.912-.672 1.284a2.35 2.35 0 0 1-1.56.576c-.384 0-.696-.096-.936-.276a.85.85 0 0 1-.348-.708c0-.9.696-1.356 2.088-1.38zm4.104-5.232-.948.396v1.608h-1.248v.804h1.248v3.948c0 .468.096.816.3 1.056.216.264.588.396 1.092.396h.936v-.804h-.792c-.216 0-.372-.06-.456-.156-.096-.096-.132-.264-.132-.492v-3.948h1.536v-.804h-1.536zm5.304 1.836c-.744 0-1.332.144-1.788.432-.504.312-.828.804-.96 1.452l.948.072c.096-.396.3-.696.624-.888.288-.192.66-.276 1.116-.276 1.08 0 1.62.516 1.62 1.56v.324l-1.488.024c-.936.012-1.656.192-2.16.528-.576.36-.852.888-.852 1.596 0 .504.192.924.576 1.248.372.312.864.468 1.488.468a3.15 3.15 0 0 0 1.548-.384c.384-.216.708-.492.948-.828v1.044h.9v-3.984c0-.72-.192-1.284-.552-1.692-.432-.468-1.08-.696-1.968-.696m1.56 3.396v.528c0 .48-.228.912-.672 1.284a2.35 2.35 0 0 1-1.56.576c-.384 0-.696-.096-.936-.276a.85.85 0 0 1-.348-.708c0-.9.696-1.356 2.088-1.38zm2.232-6.948v11.208h2.94v-.804h-2.052v-9.6h2.052v-.804zm4.428 1.356.12 2.988h.78l.108-2.988zm46.92 0 .12 2.988h.78l.108-2.988zm2.496-1.356v.804h2.052v9.6h-2.052v.804h2.94v-11.208zm8.064 5.184v.804h6.06v-.804zm0 2.46v.816h6.06v-.816zm36.156-7.644a10.1 10.1 0 0 0-1.236 2.472 9.5 9.5 0 0 0-.528 3.144c0 1.044.168 2.088.528 3.12.3.864.708 1.692 1.236 2.472h.84a11 11 0 0 1-1.14-2.484 9.6 9.6 0 0 1-.528-3.12c0-1.032.168-2.064.528-3.12.264-.864.648-1.692 1.14-2.484zm1.596 3.72 2.34 6.204h.972l2.352-6.204h-1.056l-1.776 5.004-1.776-5.004zm9.168-.168c-.744 0-1.332.144-1.788.432-.504.312-.828.804-.96 1.452l.948.072c.096-.396.3-.696.624-.888.288-.192.66-.276 1.116-.276 1.08 0 1.62.516 1.62 1.56v.324l-1.488.024c-.936.012-1.656.192-2.16.528-.576.36-.852.888-.852 1.596 0 .504.192.924.576 1.248.372.312.864.468 1.488.468a3.15 3.15 0 0 0 1.548-.384c.384-.216.708-.492.948-.828v1.044h.9v-3.984c0-.72-.192-1.284-.552-1.692-.432-.468-1.08-.696-1.968-.696m1.56 3.396v.528c0 .48-.228.912-.672 1.284a2.35 2.35 0 0 1-1.56.576c-.384 0-.696-.096-.936-.276a.85.85 0 0 1-.348-.708c0-.9.696-1.356 2.088-1.38zm2.64-5.76v8.736h.948v-8.736zm2.628 2.532v3.84c0 1.68.744 2.532 2.256 2.532.84 0 1.512-.384 2.016-1.128v.96h.96v-6.204h-.96v3.78q-.108.792-.612 1.296c-.324.312-.696.48-1.104.48-.564 0-.972-.156-1.224-.444s-.372-.732-.372-1.32v-3.792zm9.276-.168c-.9 0-1.608.324-2.136.972-.528.612-.78 1.38-.78 2.292 0 1.008.264 1.8.816 2.4.528.576 1.248.876 2.136.876.804 0 1.464-.24 1.98-.696.42-.384.696-.864.84-1.464h-.96c-.156.432-.36.756-.624.972-.312.252-.732.384-1.236.384-.588 0-1.056-.192-1.392-.576s-.516-.924-.564-1.62h4.896c-.024-1.08-.264-1.932-.72-2.532-.504-.672-1.26-1.008-2.256-1.008m.024.804c1.176 0 1.836.66 1.956 1.992h-3.876c.06-.612.252-1.092.588-1.452q.504-.54 1.332-.54m6.276-.804c-.696 0-1.272.156-1.704.468-.468.312-.696.72-.696 1.248s.228.924.708 1.212c.288.192.804.372 1.536.552.672.168 1.116.3 1.32.396.384.192.588.456.588.804 0 .696-.564 1.056-1.668 1.056q-.792 0-1.188-.288c-.264-.216-.444-.564-.516-1.056h-.936c.144 1.428 1.032 2.148 2.664 2.148 1.752 0 2.628-.648 2.628-1.92 0-.54-.252-.96-.744-1.272-.324-.204-.852-.396-1.596-.576-.624-.168-1.056-.3-1.284-.408-.36-.18-.528-.408-.528-.672q0-.414.396-.648c.24-.168.576-.24 1.008-.24.492 0 .876.096 1.14.288.24.168.396.456.48.84h.936c-.168-1.296-1.008-1.932-2.544-1.932m3.816-3.552c.48.792.864 1.62 1.14 2.484.348 1.056.528 2.088.528 3.12 0 1.02-.18 2.064-.528 3.12-.276.852-.66 1.68-1.14 2.484h.84c.516-.78.924-1.608 1.236-2.472a9.7 9.7 0 0 0 .528-3.12c0-1.068-.18-2.112-.528-3.144a11 11 0 0 0-1.236-2.472zm12 .084-4.26 11.04h.864l4.248-11.04zm23.94-.084a10.1 10.1 0 0 0-1.236 2.472 9.5 9.5 0 0 0-.528 3.144c0 1.044.168 2.088.528 3.12.3.864.708 1.692 1.236 2.472h.84a11 11 0 0 1-1.14-2.484 9.6 9.6 0 0 1-.528-3.12c0-1.032.168-2.064.528-3.12.264-.864.648-1.692 1.14-2.484zm1.596 3.72 2.34 6.204h.972l2.352-6.204h-1.056l-1.776 5.004-1.776-5.004zm9.168-.168c-.744 0-1.332.144-1.788.432-.504.312-.828.804-.96 1.452l.948.072c.096-.396.3-.696.624-.888.288-.192.66-.276 1.116-.276 1.08 0 1.62.516 1.62 1.56v.324l-1.488.024c-.936.012-1.656.192-2.16.528-.576.36-.852.888-.852 1.596 0 .504.192.924.576 1.248.372.312.864.468 1.488.468a3.15 3.15 0 0 0 1.548-.384c.384-.216.708-.492.948-.828v1.044h.9v-3.984c0-.72-.192-1.284-.552-1.692-.432-.468-1.08-.696-1.968-.696m1.56 3.396v.528c0 .48-.228.912-.672 1.284a2.35 2.35 0 0 1-1.56.576c-.384 0-.696-.096-.936-.276a.85.85 0 0 1-.348-.708c0-.9.696-1.356 2.088-1.38zm2.64-5.76v8.736h.948v-8.736zm2.628 2.532v3.84c0 1.68.744 2.532 2.256 2.532.84 0 1.512-.384 2.016-1.128v.96h.96v-6.204h-.96v3.78q-.108.792-.612 1.296c-.324.312-.696.48-1.104.48-.564 0-.972-.156-1.224-.444s-.372-.732-.372-1.32v-3.792zm9.276-.168c-.9 0-1.608.324-2.136.972-.528.612-.78 1.38-.78 2.292 0 1.008.264 1.8.816 2.4.528.576 1.248.876 2.136.876.804 0 1.464-.24 1.98-.696.42-.384.696-.864.84-1.464h-.96c-.156.432-.36.756-.624.972-.312.252-.732.384-1.236.384-.588 0-1.056-.192-1.392-.576s-.516-.924-.564-1.62h4.896c-.024-1.08-.264-1.932-.72-2.532-.504-.672-1.26-1.008-2.256-1.008m.024.804c1.176 0 1.836.66 1.956 1.992h-3.876c.06-.612.252-1.092.588-1.452q.504-.54 1.332-.54m6.276-.804c-.696 0-1.272.156-1.704.468-.468.312-.696.72-.696 1.248s.228.924.708 1.212c.288.192.804.372 1.536.552.672.168 1.116.3 1.32.396.384.192.588.456.588.804 0 .696-.564 1.056-1.668 1.056q-.792 0-1.188-.288c-.264-.216-.444-.564-.516-1.056h-.936c.144 1.428 1.032 2.148 2.664 2.148 1.752 0 2.628-.648 2.628-1.92 0-.54-.252-.96-.744-1.272-.324-.204-.852-.396-1.596-.576-.624-.168-1.056-.3-1.284-.408-.36-.18-.528-.408-.528-.672q0-.414.396-.648c.24-.168.576-.24 1.008-.24.492 0 .876.096 1.14.288.24.168.396.456.48.84h.936c-.168-1.296-1.008-1.932-2.544-1.932m3.816-3.552c.48.792.864 1.62 1.14 2.484.348 1.056.528 2.088.528 3.12 0 1.02-.18 2.064-.528 3.12-.276.852-.66 1.68-1.14 2.484h.84c.516-.78.924-1.608 1.236-2.472a9.7 9.7 0 0 0 .528-3.12c0-1.068-.18-2.112-.528-3.144a11 11 0 0 0-1.236-2.472zm-269.7 35.552c-.432 0-.804.132-1.128.396-.264.204-.48.492-.648.852v-1.08h-.948v6.204h.948v-3.288c0-.576.156-1.068.492-1.476.324-.432.732-.636 1.212-.636.3 0 .612.036.924.132v-.96c-.228-.096-.516-.144-.852-.144m4.212 0c-.9 0-1.608.324-2.136.972-.528.612-.78 1.38-.78 2.292 0 1.008.264 1.8.816 2.4.528.576 1.248.876 2.136.876.804 0 1.464-.24 1.98-.696.42-.384.696-.864.84-1.464h-.96c-.156.432-.36.756-.624.972-.312.252-.732.384-1.236.384-.588 0-1.056-.192-1.392-.576s-.516-.924-.564-1.62h4.896c-.024-1.08-.264-1.932-.72-2.532-.504-.672-1.26-1.008-2.256-1.008m.024.804c1.176 0 1.836.66 1.956 1.992h-3.876c.06-.612.252-1.092.588-1.452q.504-.54 1.332-.54m6.276-.804c-.696 0-1.272.156-1.704.468-.468.312-.696.72-.696 1.248s.228.924.708 1.212c.288.192.804.372 1.536.552.672.168 1.116.3 1.32.396.384.192.588.456.588.804 0 .696-.564 1.056-1.668 1.056q-.792 0-1.188-.288c-.264-.216-.444-.564-.516-1.056h-.936c.144 1.428 1.032 2.148 2.664 2.148 1.752 0 2.628-.648 2.628-1.92 0-.54-.252-.96-.744-1.272-.324-.204-.852-.396-1.596-.576-.624-.168-1.056-.3-1.284-.408-.36-.18-.528-.408-.528-.672q0-.414.396-.648c.24-.168.576-.24 1.008-.24.492 0 .876.096 1.14.288.24.168.396.456.48.84h.936c-.168-1.296-1.008-1.932-2.544-1.932m3.864.168v3.84c0 1.68.744 2.532 2.256 2.532.84 0 1.512-.384 2.016-1.128v.96h.96v-6.204h-.96v3.78q-.108.792-.612 1.296c-.324.312-.696.48-1.104.48-.564 0-.972-.156-1.224-.444s-.372-.732-.372-1.32v-3.792zm6.912-2.532v8.736h.948v-8.736zm4.284.528-.948.396v1.608h-1.248v.804h1.248v3.948c0 .468.096.816.3 1.056.216.264.588.396 1.092.396h.936v-.804h-.792c-.216 0-.372-.06-.456-.156-.096-.096-.132-.264-.132-.492v-3.948h1.536v-.804h-1.536zm6.456 3.468v.804h6.06v-.804zm0 2.46v.816h6.06v-.816zm14.364-4.092c-.936 0-1.62.396-2.064 1.188v-1.02h-.9v8.58h.96v-3.504q.72 1.296 2.052 1.296c.888 0 1.572-.336 2.076-.984.456-.6.696-1.356.696-2.268 0-.936-.24-1.692-.708-2.292-.516-.672-1.224-.996-2.112-.996m-.12.792c.66 0 1.164.24 1.512.744.288.432.444 1.02.444 1.752q0 1.116-.468 1.764c-.348.456-.852.696-1.524.696-.576 0-1.02-.228-1.356-.66-.36-.444-.528-1.02-.528-1.74v-.12c0-.696.156-1.272.468-1.704.336-.492.828-.732 1.452-.732m6.912-.792c-.432 0-.804.132-1.128.396-.264.204-.48.492-.648.852v-1.08h-.948v6.204h.948v-3.288c0-.576.156-1.068.492-1.476.324-.432.732-.636 1.212-.636.3 0 .612.036.924.132v-.96c-.228-.096-.516-.144-.852-.144m4.428 0c-.936 0-1.668.312-2.22.96-.528.612-.792 1.38-.792 2.316 0 .924.264 1.692.792 2.292.552.648 1.284.972 2.22.972q1.386 0 2.232-.972c.516-.6.78-1.368.78-2.292 0-.936-.264-1.704-.792-2.316-.552-.648-1.296-.96-2.22-.96m0 .804q.972 0 1.548.756c.324.456.492 1.02.492 1.716 0 .672-.168 1.248-.492 1.704q-.576.756-1.548.756c-.66 0-1.176-.252-1.536-.756-.336-.456-.492-1.02-.492-1.704 0-.696.156-1.26.492-1.716.36-.504.876-.756 1.536-.756m6.936-.804c-.924 0-1.656.324-2.184.984-.492.6-.732 1.368-.732 2.316s.24 1.716.732 2.304c.516.624 1.236.936 2.172.936.768 0 1.38-.204 1.848-.6.48-.408.78-1.02.924-1.812h-.96c-.144 1.068-.756 1.608-1.812 1.608-.624 0-1.104-.228-1.428-.66-.336-.432-.492-1.032-.492-1.788q0-1.134.504-1.8c.348-.456.828-.684 1.428-.684.492 0 .888.108 1.2.348q.45.36.576 1.08h.948c-.108-.756-.396-1.32-.876-1.692-.468-.36-1.08-.54-1.848-.54m6.444 0c-.9 0-1.608.324-2.136.972-.528.612-.78 1.38-.78 2.292 0 1.008.264 1.8.816 2.4.528.576 1.248.876 2.136.876.804 0 1.464-.24 1.98-.696.42-.384.696-.864.84-1.464h-.96c-.156.432-.36.756-.624.972-.312.252-.732.384-1.236.384-.588 0-1.056-.192-1.392-.576s-.516-.924-.564-1.62h4.896c-.024-1.08-.264-1.932-.72-2.532-.504-.672-1.26-1.008-2.256-1.008m.024.804c1.176 0 1.836.66 1.956 1.992h-3.876c.06-.612.252-1.092.588-1.452q.504-.54 1.332-.54m6.276-.804c-.696 0-1.272.156-1.704.468-.468.312-.696.72-.696 1.248s.228.924.708 1.212c.288.192.804.372 1.536.552.672.168 1.116.3 1.32.396.384.192.588.456.588.804 0 .696-.564 1.056-1.668 1.056q-.792 0-1.188-.288c-.264-.216-.444-.564-.516-1.056h-.936c.144 1.428 1.032 2.148 2.664 2.148 1.752 0 2.628-.648 2.628-1.92 0-.54-.252-.96-.744-1.272-.324-.204-.852-.396-1.596-.576-.624-.168-1.056-.3-1.284-.408-.36-.18-.528-.408-.528-.672q0-.414.396-.648c.24-.168.576-.24 1.008-.24.492 0 .876.096 1.14.288.24.168.396.456.48.84h.936c-.168-1.296-1.008-1.932-2.544-1.932m6.06 0c-.696 0-1.272.156-1.704.468-.468.312-.696.72-.696 1.248s.228.924.708 1.212c.288.192.804.372 1.536.552.672.168 1.116.3 1.32.396.384.192.588.456.588.804 0 .696-.564 1.056-1.668 1.056q-.792 0-1.188-.288c-.264-.216-.444-.564-.516-1.056h-.936c.144 1.428 1.032 2.148 2.664 2.148 1.752 0 2.628-.648 2.628-1.92 0-.54-.252-.96-.744-1.272-.324-.204-.852-.396-1.596-.576-.624-.168-1.056-.3-1.284-.408-.36-.18-.528-.408-.528-.672q0-.414.396-.648c.24-.168.576-.24 1.008-.24.492 0 .876.096 1.14.288.24.168.396.456.48.84h.936c-.168-1.296-1.008-1.932-2.544-1.932m3.12 7.248v.804h6v-.804zm11.328-9.612v3.672c-.48-.876-1.164-1.308-2.052-1.308s-1.572.324-2.076.996c-.468.6-.696 1.344-.696 2.256 0 .936.228 1.704.696 2.304.504.648 1.212.984 2.124.984.936 0 1.632-.396 2.064-1.188v1.02h.9v-8.736zm-1.848 3.156c.552 0 1.008.216 1.356.672.336.444.516 1.032.516 1.752v.12c0 .696-.156 1.26-.456 1.692-.348.48-.828.72-1.452.72-.672 0-1.176-.252-1.512-.732-.3-.432-.444-1.02-.444-1.764s.144-1.32.456-1.74c.336-.48.852-.72 1.536-.72m6.996-.792c-.744 0-1.332.144-1.788.432-.504.312-.828.804-.96 1.452l.948.072c.096-.396.3-.696.624-.888.288-.192.66-.276 1.116-.276 1.08 0 1.62.516 1.62 1.56v.324l-1.488.024c-.936.012-1.656.192-2.16.528-.576.36-.852.888-.852 1.596 0 .504.192.924.576 1.248.372.312.864.468 1.488.468a3.15 3.15 0 0 0 1.548-.384c.384-.216.708-.492.948-.828v1.044h.9v-3.984c0-.72-.192-1.284-.552-1.692-.432-.468-1.08-.696-1.968-.696m1.56 3.396v.528c0 .48-.228.912-.672 1.284a2.35 2.35 0 0 1-1.56.576c-.384 0-.696-.096-.936-.276a.85.85 0 0 1-.348-.708c0-.9.696-1.356 2.088-1.38zm4.104-5.232-.948.396v1.608h-1.248v.804h1.248v3.948c0 .468.096.816.3 1.056.216.264.588.396 1.092.396h.936v-.804h-.792c-.216 0-.372-.06-.456-.156-.096-.096-.132-.264-.132-.492v-3.948h1.536v-.804h-1.536zm5.304 1.836c-.744 0-1.332.144-1.788.432-.504.312-.828.804-.96 1.452l.948.072c.096-.396.3-.696.624-.888.288-.192.66-.276 1.116-.276 1.08 0 1.62.516 1.62 1.56v.324l-1.488.024c-.936.012-1.656.192-2.16.528-.576.36-.852.888-.852 1.596 0 .504.192.924.576 1.248.372.312.864.468 1.488.468a3.15 3.15 0 0 0 1.548-.384c.384-.216.708-.492.948-.828v1.044h.9v-3.984c0-.72-.192-1.284-.552-1.692-.432-.468-1.08-.696-1.968-.696m1.56 3.396v.528c0 .48-.228.912-.672 1.284a2.35 2.35 0 0 1-1.56.576c-.384 0-.696-.096-.936-.276a.85.85 0 0 1-.348-.708c0-.9.696-1.356 2.088-1.38zm4.164-6.948a10.1 10.1 0 0 0-1.236 2.472 9.5 9.5 0 0 0-.528 3.144c0 1.044.168 2.088.528 3.12.3.864.708 1.692 1.236 2.472h.84a11 11 0 0 1-1.14-2.484 9.6 9.6 0 0 1-.528-3.12c0-1.032.168-2.064.528-3.12.264-.864.648-1.692 1.14-2.484zm113.82 8.496c-.24 0-.42.06-.552.204-.156.132-.228.312-.228.54 0 .204.072.384.216.528a.7.7 0 0 0 .516.216.7.7 0 0 0 .264-.048c0 .288-.084.552-.264.804a1.67 1.67 0 0 1-.768.528v.588a2.3 2.3 0 0 0 1.248-.78q.468-.612.468-1.404c0-.348-.084-.624-.24-.84a.79.79 0 0 0-.66-.336m20.676-8.496c.48.792.864 1.62 1.14 2.484.348 1.056.528 2.088.528 3.12 0 1.02-.18 2.064-.528 3.12-.276.852-.66 1.68-1.14 2.484h.84c.516-.78.924-1.608 1.236-2.472a9.7 9.7 0 0 0 .528-3.12c0-1.068-.18-2.112-.528-3.144a11 11 0 0 0-1.236-2.472zm-229.692 16a10.1 10.1 0 0 0-1.236 2.472 9.5 9.5 0 0 0-.528 3.144c0 1.044.168 2.088.528 3.12.3.864.708 1.692 1.236 2.472h.84a11 11 0 0 1-1.14-2.484 9.6 9.6 0 0 1-.528-3.12c0-1.032.168-2.064.528-3.12.264-.864.648-1.692 1.14-2.484zm76.2 0c-.492 0-.876.156-1.14.468-.264.288-.384.696-.384 1.2v2.436c0 .36-.084.624-.228.792-.168.192-.48.288-.912.312v.792c.432.012.744.12.912.312.144.168.228.432.228.792v2.448c0 .504.12.9.384 1.188.264.312.648.468 1.14.468h.828v-.756h-.672c-.528 0-.792-.3-.792-.876v-2.508c0-.708-.336-1.2-.984-1.464.648-.252.984-.744.984-1.464v-2.496c0-.6.264-.888.792-.888h.672v-.756zm4.548 3.552c-.432 0-.804.132-1.128.396-.264.204-.48.492-.648.852v-1.08h-.948v6.204h.948v-3.288c0-.576.156-1.068.492-1.476.324-.432.732-.636 1.212-.636.3 0 .612.036.924.132v-.96c-.228-.096-.516-.144-.852-.144m4.212 0c-.9 0-1.608.324-2.136.972-.528.612-.78 1.38-.78 2.292 0 1.008.264 1.8.816 2.4.528.576 1.248.876 2.136.876.804 0 1.464-.24 1.98-.696.42-.384.696-.864.84-1.464h-.96c-.156.432-.36.756-.624.972-.312.252-.732.384-1.236.384-.588 0-1.056-.192-1.392-.576s-.516-.924-.564-1.62h4.896c-.024-1.08-.264-1.932-.72-2.532-.504-.672-1.26-1.008-2.256-1.008m.024.804c1.176 0 1.836.66 1.956 1.992h-3.876c.06-.612.252-1.092.588-1.452q.504-.54 1.332-.54m6.276-.804c-.696 0-1.272.156-1.704.468-.468.312-.696.72-.696 1.248s.228.924.708 1.212c.288.192.804.372 1.536.552.672.168 1.116.3 1.32.396.384.192.588.456.588.804 0 .696-.564 1.056-1.668 1.056q-.792 0-1.188-.288c-.264-.216-.444-.564-.516-1.056h-.936c.144 1.428 1.032 2.148 2.664 2.148 1.752 0 2.628-.648 2.628-1.92 0-.54-.252-.96-.744-1.272-.324-.204-.852-.396-1.596-.576-.624-.168-1.056-.3-1.284-.408-.36-.18-.528-.408-.528-.672q0-.414.396-.648c.24-.168.576-.24 1.008-.24.492 0 .876.096 1.14.288.24.168.396.456.48.84h.936c-.168-1.296-1.008-1.932-2.544-1.932m3.864.168v3.84c0 1.68.744 2.532 2.256 2.532.84 0 1.512-.384 2.016-1.128v.96h.96v-6.204h-.96v3.78q-.108.792-.612 1.296c-.324.312-.696.48-1.104.48-.564 0-.972-.156-1.224-.444s-.372-.732-.372-1.32v-3.792zm6.912-2.532v8.736h.948v-8.736zm4.284.528-.948.396v1.608h-1.248v.804h1.248v3.948c0 .468.096.816.3 1.056.216.264.588.396 1.092.396h.936v-.804h-.792c-.216 0-.372-.06-.456-.156-.096-.096-.132-.264-.132-.492v-3.948h1.536v-.804h-1.536zm2.388-1.716v11.208h2.94v-.804h-2.052v-9.6h2.052v-.804zm98.652 0v.804h2.052v9.6h-2.052v.804h2.94v-11.208zm3.72 0v.756h.672c.528 0 .792.288.792.888v2.496c0 .72.324 1.212.984 1.464-.66.264-.984.756-.984 1.464v2.508c0 .576-.264.876-.792.876h-.672v.756h.828c.48 0 .864-.156 1.14-.468.252-.288.384-.684.384-1.188v-2.448c0-.36.072-.624.228-.792.168-.192.468-.3.912-.312v-.792c-.444-.024-.744-.12-.912-.3-.156-.18-.228-.444-.228-.804v-2.436c0-.504-.132-.912-.384-1.2-.276-.312-.66-.468-1.14-.468zm67.032 0c-.492 0-.876.156-1.14.468-.264.288-.384.696-.384 1.2v2.436c0 .36-.084.624-.228.792-.168.192-.48.288-.912.312v.792c.432.012.744.12.912.312.144.168.228.432.228.792v2.448c0 .504.12.9.384 1.188.264.312.648.468 1.14.468h.828v-.756h-.672c-.528 0-.792-.3-.792-.876v-2.508c0-.708-.336-1.2-.984-1.464.648-.252.984-.744.984-1.464v-2.496c0-.6.264-.888.792-.888h.672v-.756zm19.728 0a10.1 10.1 0 0 0-1.236 2.472 9.5 9.5 0 0 0-.528 3.144c0 1.044.168 2.088.528 3.12.3.864.708 1.692 1.236 2.472h.84a11 11 0 0 1-1.14-2.484 9.6 9.6 0 0 1-.528-3.12c0-1.032.168-2.064.528-3.12.264-.864.648-1.692 1.14-2.484zm5.004 3.552c-.432 0-.804.132-1.128.396-.264.204-.48.492-.648.852v-1.08h-.948v6.204h.948v-3.288c0-.576.156-1.068.492-1.476.324-.432.732-.636 1.212-.636.3 0 .612.036.924.132v-.96c-.228-.096-.516-.144-.852-.144m4.212 0c-.9 0-1.608.324-2.136.972-.528.612-.78 1.38-.78 2.292 0 1.008.264 1.8.816 2.4.528.576 1.248.876 2.136.876.804 0 1.464-.24 1.98-.696.42-.384.696-.864.84-1.464h-.96c-.156.432-.36.756-.624.972-.312.252-.732.384-1.236.384-.588 0-1.056-.192-1.392-.576s-.516-.924-.564-1.62h4.896c-.024-1.08-.264-1.932-.72-2.532-.504-.672-1.26-1.008-2.256-1.008m.024.804c1.176 0 1.836.66 1.956 1.992h-3.876c.06-.612.252-1.092.588-1.452q.504-.54 1.332-.54m6.276-.804c-.696 0-1.272.156-1.704.468-.468.312-.696.72-.696 1.248s.228.924.708 1.212c.288.192.804.372 1.536.552.672.168 1.116.3 1.32.396.384.192.588.456.588.804 0 .696-.564 1.056-1.668 1.056q-.792 0-1.188-.288c-.264-.216-.444-.564-.516-1.056h-.936c.144 1.428 1.032 2.148 2.664 2.148 1.752 0 2.628-.648 2.628-1.92 0-.54-.252-.96-.744-1.272-.324-.204-.852-.396-1.596-.576-.624-.168-1.056-.3-1.284-.408-.36-.18-.528-.408-.528-.672q0-.414.396-.648c.24-.168.576-.24 1.008-.24.492 0 .876.096 1.14.288.24.168.396.456.48.84h.936c-.168-1.296-1.008-1.932-2.544-1.932m3.864.168v3.84c0 1.68.744 2.532 2.256 2.532.84 0 1.512-.384 2.016-1.128v.96h.96v-6.204h-.96v3.78q-.108.792-.612 1.296c-.324.312-.696.48-1.104.48-.564 0-.972-.156-1.224-.444s-.372-.732-.372-1.32v-3.792zm6.912-2.532v8.736h.948v-8.736zm4.284.528-.948.396v1.608h-1.248v.804h1.248v3.948c0 .468.096.816.3 1.056.216.264.588.396 1.092.396h.936v-.804h-.792c-.216 0-.372-.06-.456-.156-.096-.096-.132-.264-.132-.492v-3.948h1.536v-.804h-1.536z"/><path fill="#A89FF8" d="M272.089 85.83c-.528 0-.936.144-1.212.444-.264.288-.396.684-.396 1.212v.708h-1.56v.804h1.56v5.4h.96v-5.4h1.752v-.804h-1.752v-.684q0-.45.18-.648c.12-.144.324-.204.588-.204h1.068v-.828zm2.184-.168v8.736h.948v-8.736zm5.4 2.364c-.936 0-1.668.312-2.22.96-.528.612-.792 1.38-.792 2.316 0 .924.264 1.692.792 2.292.552.648 1.284.972 2.22.972q1.386 0 2.232-.972c.516-.6.78-1.368.78-2.292 0-.936-.264-1.704-.792-2.316-.552-.648-1.296-.96-2.22-.96m0 .804q.972 0 1.548.756c.324.456.492 1.02.492 1.716 0 .672-.168 1.248-.492 1.704q-.576.756-1.548.756c-.66 0-1.176-.252-1.536-.756-.336-.456-.492-1.02-.492-1.704 0-.696.156-1.26.492-1.716.36-.504.876-.756 1.536-.756m6.96-.804c-.744 0-1.332.144-1.788.432-.504.312-.828.804-.96 1.452l.948.072c.096-.396.3-.696.624-.888.288-.192.66-.276 1.116-.276 1.08 0 1.62.516 1.62 1.56v.324l-1.488.024c-.936.012-1.656.192-2.16.528-.576.36-.852.888-.852 1.596 0 .504.192.924.576 1.248.372.312.864.468 1.488.468a3.15 3.15 0 0 0 1.548-.384c.384-.216.708-.492.948-.828v1.044h.9v-3.984c0-.72-.192-1.284-.552-1.692-.432-.468-1.08-.696-1.968-.696m1.56 3.396v.528c0 .48-.228.912-.672 1.284a2.35 2.35 0 0 1-1.56.576c-.384 0-.696-.096-.936-.276a.85.85 0 0 1-.348-.708c0-.9.696-1.356 2.088-1.38zm4.104-5.232-.948.396v1.608H290.1v.804h1.248v3.948c0 .468.096.816.3 1.056.216.264.588.396 1.092.396h.936v-.804h-.792c-.216 0-.372-.06-.456-.156-.096-.096-.132-.264-.132-.492v-3.948h1.536v-.804h-1.536zm150.768-.336a.69.69 0 0 0-.516.204c-.144.12-.204.288-.204.504 0 .204.06.372.204.516a.74.74 0 0 0 .516.204.74.74 0 0 0 .516-.204.7.7 0 0 0 .216-.516q0-.324-.216-.504a.69.69 0 0 0-.516-.204m-.48 2.34v6.204h.96v-6.204zm4.956-.168c-.696 0-1.272.156-1.704.468-.468.312-.696.72-.696 1.248s.228.924.708 1.212c.288.192.804.372 1.536.552.672.168 1.116.3 1.32.396.384.192.588.456.588.804 0 .696-.564 1.056-1.668 1.056q-.792 0-1.188-.288c-.264-.216-.444-.564-.516-1.056h-.936c.144 1.428 1.032 2.148 2.664 2.148 1.752 0 2.628-.648 2.628-1.92 0-.54-.252-.96-.744-1.272-.324-.204-.852-.396-1.596-.576-.624-.168-1.056-.3-1.284-.408-.36-.18-.528-.408-.528-.672q0-.414.396-.648c.24-.168.576-.24 1.008-.24.492 0 .876.096 1.14.288.24.168.396.456.48.84h.936c-.168-1.296-1.008-1.932-2.544-1.932m4.656-2.172a.69.69 0 0 0-.516.204c-.144.12-.204.288-.204.504 0 .204.06.372.204.516a.74.74 0 0 0 .516.204.74.74 0 0 0 .516-.204.7.7 0 0 0 .216-.516q0-.324-.216-.504a.69.69 0 0 0-.516-.204m-.48 2.34v6.204h.96v-6.204zm5.664-.168q-.612 0-1.116.288-.504.27-.828.792v-.912h-.96v6.204h.96v-3.744c.036-.564.216-1.008.552-1.344a1.52 1.52 0 0 1 1.116-.468c1.08 0 1.632.6 1.632 1.812v3.744h.96v-3.816c0-1.704-.78-2.556-2.316-2.556m6 0c-.696 0-1.272.156-1.704.468-.468.312-.696.72-.696 1.248s.228.924.708 1.212c.288.192.804.372 1.536.552.672.168 1.116.3 1.32.396.384.192.588.456.588.804 0 .696-.564 1.056-1.668 1.056q-.792 0-1.188-.288c-.264-.216-.444-.564-.516-1.056h-.936c.144 1.428 1.032 2.148 2.664 2.148 1.752 0 2.628-.648 2.628-1.92 0-.54-.252-.96-.744-1.272-.324-.204-.852-.396-1.596-.576-.624-.168-1.056-.3-1.284-.408-.36-.18-.528-.408-.528-.672q0-.414.396-.648c.24-.168.576-.24 1.008-.24.492 0 .876.096 1.14.288.24.168.396.456.48.84h.936c-.168-1.296-1.008-1.932-2.544-1.932m5.52-1.836-.948.396v1.608h-1.248v.804h1.248v3.948c0 .468.096.816.3 1.056.216.264.588.396 1.092.396h.936v-.804h-.792c-.216 0-.372-.06-.456-.156-.096-.096-.132-.264-.132-.492v-3.948h1.536v-.804H468.9zm5.304 1.836c-.744 0-1.332.144-1.788.432-.504.312-.828.804-.96 1.452l.948.072c.096-.396.3-.696.624-.888.288-.192.66-.276 1.116-.276 1.08 0 1.62.516 1.62 1.56v.324l-1.488.024c-.936.012-1.656.192-2.16.528-.576.36-.852.888-.852 1.596 0 .504.192.924.576 1.248.372.312.864.468 1.488.468a3.15 3.15 0 0 0 1.548-.384c.384-.216.708-.492.948-.828v1.044h.9v-3.984c0-.72-.192-1.284-.552-1.692-.432-.468-1.08-.696-1.968-.696m1.56 3.396v.528c0 .48-.228.912-.672 1.284a2.35 2.35 0 0 1-1.56.576c-.384 0-.696-.096-.936-.276a.85.85 0 0 1-.348-.708c0-.9.696-1.356 2.088-1.38zm5.352-3.396q-.612 0-1.116.288-.504.27-.828.792v-.912h-.96v6.204h.96v-3.744c.036-.564.216-1.008.552-1.344a1.52 1.52 0 0 1 1.116-.468c1.08 0 1.632.6 1.632 1.812v3.744h.96v-3.816c0-1.704-.78-2.556-2.316-2.556m6.48 0c-.924 0-1.656.324-2.184.984-.492.6-.732 1.368-.732 2.316s.24 1.716.732 2.304c.516.624 1.236.936 2.172.936.768 0 1.38-.204 1.848-.6.48-.408.78-1.02.924-1.812h-.96c-.144 1.068-.756 1.608-1.812 1.608-.624 0-1.104-.228-1.428-.66-.336-.432-.492-1.032-.492-1.788q0-1.134.504-1.8c.348-.456.828-.684 1.428-.684.492 0 .888.108 1.2.348q.45.36.576 1.08h.948c-.108-.756-.396-1.32-.876-1.692-.468-.36-1.08-.54-1.848-.54m6.444 0c-.9 0-1.608.324-2.136.972-.528.612-.78 1.38-.78 2.292 0 1.008.264 1.8.816 2.4.528.576 1.248.876 2.136.876.804 0 1.464-.24 1.98-.696.42-.384.696-.864.84-1.464h-.96c-.156.432-.36.756-.624.972-.312.252-.732.384-1.236.384-.588 0-1.056-.192-1.392-.576s-.516-.924-.564-1.62h4.896c-.024-1.08-.264-1.932-.72-2.532-.504-.672-1.26-1.008-2.256-1.008m.024.804c1.176 0 1.836.66 1.956 1.992h-3.876c.06-.612.252-1.092.588-1.452q.504-.54 1.332-.54m25.812-2.976a.69.69 0 0 0-.516.204c-.144.12-.204.288-.204.504 0 .204.06.372.204.516a.74.74 0 0 0 .516.204.74.74 0 0 0 .516-.204.7.7 0 0 0 .216-.516q0-.324-.216-.504a.69.69 0 0 0-.516-.204m-.48 2.34v6.204h.96v-6.204zm5.664-.168q-.612 0-1.116.288-.504.27-.828.792v-.912h-.96v6.204h.96v-3.744c.036-.564.216-1.008.552-1.344a1.52 1.52 0 0 1 1.116-.468c1.08 0 1.632.6 1.632 1.812v3.744h.96v-3.816c0-1.704-.78-2.556-2.316-2.556m5.46-1.836-.948.396v1.608h-1.248v.804h1.248v3.948c0 .468.096.816.3 1.056.216.264.588.396 1.092.396h.936v-.804h-.792c-.216 0-.372-.06-.456-.156-.096-.096-.132-.264-.132-.492v-3.948h1.536v-.804h-1.536zm12.252-.36c-.528 0-.936.144-1.212.444-.264.288-.396.684-.396 1.212v.708h-1.56v.804h1.56v5.4h.96v-5.4h1.752v-.804h-1.752v-.684q0-.45.18-.648c.12-.144.324-.204.588-.204h1.068v-.828zm2.184-.168v8.736h.948v-8.736zm5.4 2.364c-.936 0-1.668.312-2.22.96-.528.612-.792 1.38-.792 2.316 0 .924.264 1.692.792 2.292.552.648 1.284.972 2.22.972q1.386 0 2.232-.972c.516-.6.78-1.368.78-2.292 0-.936-.264-1.704-.792-2.316-.552-.648-1.296-.96-2.22-.96m0 .804q.972 0 1.548.756c.324.456.492 1.02.492 1.716 0 .672-.168 1.248-.492 1.704q-.576.756-1.548.756c-.66 0-1.176-.252-1.536-.756-.336-.456-.492-1.02-.492-1.704 0-.696.156-1.26.492-1.716.36-.504.876-.756 1.536-.756m6.96-.804c-.744 0-1.332.144-1.788.432-.504.312-.828.804-.96 1.452l.948.072c.096-.396.3-.696.624-.888.288-.192.66-.276 1.116-.276 1.08 0 1.62.516 1.62 1.56v.324l-1.488.024c-.936.012-1.656.192-2.16.528-.576.36-.852.888-.852 1.596 0 .504.192.924.576 1.248.372.312.864.468 1.488.468a3.15 3.15 0 0 0 1.548-.384c.384-.216.708-.492.948-.828v1.044h.9v-3.984c0-.72-.192-1.284-.552-1.692-.432-.468-1.08-.696-1.968-.696m1.56 3.396v.528c0 .48-.228.912-.672 1.284a2.35 2.35 0 0 1-1.56.576c-.384 0-.696-.096-.936-.276a.85.85 0 0 1-.348-.708c0-.9.696-1.356 2.088-1.38zm4.104-5.232-.948.396v1.608h-1.248v.804h1.248v3.948c0 .468.096.816.3 1.056.216.264.588.396 1.092.396h.936v-.804h-.792c-.216 0-.372-.06-.456-.156-.096-.096-.132-.264-.132-.492v-3.948h1.536v-.804h-1.536zm-227.4 33.836c-.696 0-1.272.156-1.704.468-.468.312-.696.72-.696 1.248s.228.924.708 1.212c.288.192.804.372 1.536.552.672.168 1.116.3 1.32.396.384.192.588.456.588.804 0 .696-.564 1.056-1.668 1.056q-.792 0-1.188-.288c-.264-.216-.444-.564-.516-1.056h-.936c.144 1.428 1.032 2.148 2.664 2.148 1.752 0 2.628-.648 2.628-1.92 0-.54-.252-.96-.744-1.272-.324-.204-.852-.396-1.596-.576-.624-.168-1.056-.3-1.284-.408-.36-.18-.528-.408-.528-.672q0-.414.396-.648c.24-.168.576-.24 1.008-.24.492 0 .876.096 1.14.288.24.168.396.456.48.84h.936c-.168-1.296-1.008-1.932-2.544-1.932m3.864.168v3.84c0 1.68.744 2.532 2.256 2.532.84 0 1.512-.384 2.016-1.128v.96h.96v-6.204h-.96v3.78q-.108.792-.612 1.296c-.324.312-.696.48-1.104.48-.564 0-.972-.156-1.224-.444s-.372-.732-.372-1.32v-3.792zm9.432-.168c-.696 0-1.284.324-1.752.996v-.828h-.96v6.204h.96v-3.78c0-.492.144-.912.432-1.248.288-.36.648-.528 1.092-.528.948 0 1.428.54 1.428 1.644v3.912h.96v-3.888c0-.504.132-.9.42-1.212.264-.312.612-.456 1.02-.456.528 0 .912.132 1.152.42.228.264.348.672.348 1.224v3.912h.96v-4.068c0-.708-.204-1.272-.588-1.692-.408-.408-.924-.612-1.572-.612-.432 0-.792.096-1.092.288-.336.18-.624.48-.864.888-.348-.792-.996-1.176-1.944-1.176m64.476-2.364v8.736h.948v-8.736zm5.184 2.364c-.9 0-1.608.324-2.136.972-.528.612-.78 1.38-.78 2.292 0 1.008.264 1.8.816 2.4.528.576 1.248.876 2.136.876.804 0 1.464-.24 1.98-.696.42-.384.696-.864.84-1.464h-.96c-.156.432-.36.756-.624.972-.312.252-.732.384-1.236.384-.588 0-1.056-.192-1.392-.576s-.516-.924-.564-1.62h4.896c-.024-1.08-.264-1.932-.72-2.532-.504-.672-1.26-1.008-2.256-1.008m.024.804c1.176 0 1.836.66 1.956 1.992h-3.876c.06-.612.252-1.092.588-1.452q.504-.54 1.332-.54m6.984-.804q-.612 0-1.116.288-.504.27-.828.792v-.912h-.96v6.204h.96v-3.744c.036-.564.216-1.008.552-1.344a1.52 1.52 0 0 1 1.116-.468c1.08 0 1.632.6 1.632 1.812v3.744h.96v-3.816c0-1.704-.78-2.556-2.316-2.556"/><path fill="#FFF" d="M269.917 120.026c-.744 0-1.332.144-1.788.432-.504.312-.828.804-.96 1.452l.948.072c.096-.396.3-.696.624-.888.288-.192.66-.276 1.116-.276 1.08 0 1.62.516 1.62 1.56v.324l-1.488.024c-.936.012-1.656.192-2.16.528-.576.36-.852.888-.852 1.596 0 .504.192.924.576 1.248.372.312.864.468 1.488.468a3.15 3.15 0 0 0 1.548-.384c.384-.216.708-.492.948-.828v1.044h.9v-3.984c0-.72-.192-1.284-.552-1.692-.432-.468-1.08-.696-1.968-.696m1.56 3.396v.528c0 .48-.228.912-.672 1.284a2.35 2.35 0 0 1-1.56.576c-.384 0-.696-.096-.936-.276a.85.85 0 0 1-.348-.708c0-.9.696-1.356 2.088-1.38zm1.764-3.228 2.34 6.204h.972l2.352-6.204h-1.056l-1.776 5.004-1.776-5.004zm9.024-.168c-.9 0-1.608.324-2.136.972-.528.612-.78 1.38-.78 2.292 0 1.008.264 1.8.816 2.4.528.576 1.248.876 2.136.876.804 0 1.464-.24 1.98-.696.42-.384.696-.864.84-1.464h-.96c-.156.432-.36.756-.624.972-.312.252-.732.384-1.236.384-.588 0-1.056-.192-1.392-.576s-.516-.924-.564-1.62h4.896c-.024-1.08-.264-1.932-.72-2.532-.504-.672-1.26-1.008-2.256-1.008m.024.804c1.176 0 1.836.66 1.956 1.992h-3.876c.06-.612.252-1.092.588-1.452q.504-.54 1.332-.54m6.804-.804c-.432 0-.804.132-1.128.396-.264.204-.48.492-.648.852v-1.08h-.948v6.204h.948v-3.288c0-.576.156-1.068.492-1.476.324-.432.732-.636 1.212-.636.3 0 .612.036.924.132v-.96c-.228-.096-.516-.144-.852-.144m4.356 0c-.744 0-1.332.144-1.788.432-.504.312-.828.804-.96 1.452l.948.072c.096-.396.3-.696.624-.888.288-.192.66-.276 1.116-.276 1.08 0 1.62.516 1.62 1.56v.324l-1.488.024c-.936.012-1.656.192-2.16.528-.576.36-.852.888-.852 1.596 0 .504.192.924.576 1.248.372.312.864.468 1.488.468a3.15 3.15 0 0 0 1.548-.384c.384-.216.708-.492.948-.828v1.044h.9v-3.984c0-.72-.192-1.284-.552-1.692-.432-.468-1.08-.696-1.968-.696m1.56 3.396v.528c0 .48-.228.912-.672 1.284a2.35 2.35 0 0 1-1.56.576c-.384 0-.696-.096-.936-.276a.85.85 0 0 1-.348-.708c0-.9.696-1.356 2.088-1.38zm5.004-3.396c-.864 0-1.548.3-2.052.912-.504.576-.744 1.308-.744 2.22 0 .9.24 1.632.744 2.208.504.588 1.188.888 2.052.888.936 0 1.632-.42 2.088-1.248v1.092c0 1.368-.624 2.064-1.872 2.064-.564 0-.984-.108-1.26-.312-.276-.192-.456-.504-.528-.924h-.96q.162 1.008.828 1.512c.432.336 1.08.504 1.92.504 1.884 0 2.832-.996 2.832-2.976v-5.772h-.96v1.068c-.456-.828-1.152-1.236-2.088-1.236m.144.792c.612 0 1.092.216 1.452.672.336.408.504.972.504 1.668 0 .672-.168 1.224-.504 1.644-.36.432-.84.648-1.464.648-.672 0-1.164-.24-1.5-.696-.3-.408-.444-.948-.444-1.596 0-.696.168-1.26.504-1.668.348-.456.828-.672 1.452-.672m6.948-.792c-.9 0-1.608.324-2.136.972-.528.612-.78 1.38-.78 2.292 0 1.008.264 1.8.816 2.4.528.576 1.248.876 2.136.876.804 0 1.464-.24 1.98-.696.42-.384.696-.864.84-1.464H309c-.156.432-.36.756-.624.972-.312.252-.732.384-1.236.384-.588 0-1.056-.192-1.392-.576s-.516-.924-.564-1.62h4.896c-.024-1.08-.264-1.932-.72-2.532-.504-.672-1.26-1.008-2.256-1.008m.024.804c1.176 0 1.836.66 1.956 1.992h-3.876c.06-.612.252-1.092.588-1.452q.504-.54 1.332-.54"/><path fill="#83BBF4" d="m320.485 149.83.12 2.988h.78l.108-2.988zm6.672-1.272-4.26 11.04h.864l4.248-11.04zm5.004 3.468c-.936 0-1.62.396-2.064 1.188v-1.02h-.9v8.58h.96v-3.504q.72 1.296 2.052 1.296c.888 0 1.572-.336 2.076-.984.456-.6.696-1.356.696-2.268 0-.936-.24-1.692-.708-2.292-.516-.672-1.224-.996-2.112-.996m-.12.792c.66 0 1.164.24 1.512.744.288.432.444 1.02.444 1.752q0 1.116-.468 1.764c-.348.456-.852.696-1.524.696-.576 0-1.02-.228-1.356-.66-.36-.444-.528-1.02-.528-1.74v-.12c0-.696.156-1.272.468-1.704.336-.492.828-.732 1.452-.732m6.888-.792c-.744 0-1.332.144-1.788.432-.504.312-.828.804-.96 1.452l.948.072c.096-.396.3-.696.624-.888.288-.192.66-.276 1.116-.276 1.08 0 1.62.516 1.62 1.56v.324l-1.488.024c-.936.012-1.656.192-2.16.528-.576.36-.852.888-.852 1.596 0 .504.192.924.576 1.248.372.312.864.468 1.488.468a3.15 3.15 0 0 0 1.548-.384c.384-.216.708-.492.948-.828v1.044h.9v-3.984c0-.72-.192-1.284-.552-1.692-.432-.468-1.08-.696-1.968-.696m1.56 3.396v.528c0 .48-.228.912-.672 1.284a2.35 2.35 0 0 1-1.56.576c-.384 0-.696-.096-.936-.276a.85.85 0 0 1-.348-.708c0-.9.696-1.356 2.088-1.38zm4.104-5.232-.948.396v1.608h-1.248v.804h1.248v3.948c0 .468.096.816.3 1.056.216.264.588.396 1.092.396h.936v-.804h-.792c-.216 0-.372-.06-.456-.156-.096-.096-.132-.264-.132-.492v-3.948h1.536v-.804h-1.536zm2.604-.528v8.736h.96v-3.54c0-.576.156-1.068.48-1.452q.468-.576 1.188-.576c.516 0 .912.156 1.2.468.264.312.408.756.408 1.332v3.768h.96v-3.912c0-.792-.192-1.404-.576-1.824-.384-.432-.948-.636-1.668-.636-.42 0-.792.096-1.128.288q-.54.306-.864.9v-3.552zm10.632-1.104-4.26 11.04h.864l4.248-11.04zm3.696 1.632-.948.396v1.608h-1.248v.804h1.248v3.948c0 .468.096.816.3 1.056.216.264.588.396 1.092.396h.936v-.804h-.792c-.216 0-.372-.06-.456-.156-.096-.096-.132-.264-.132-.492v-3.948h1.536v-.804h-1.536zm5.376 1.836c-.936 0-1.668.312-2.22.96-.528.612-.792 1.38-.792 2.316 0 .924.264 1.692.792 2.292.552.648 1.284.972 2.22.972q1.386 0 2.232-.972c.516-.6.78-1.368.78-2.292 0-.936-.264-1.704-.792-2.316-.552-.648-1.296-.96-2.22-.96m0 .804q.972 0 1.548.756c.324.456.492 1.02.492 1.716 0 .672-.168 1.248-.492 1.704q-.576.756-1.548.756c-.66 0-1.176-.252-1.536-.756-.336-.456-.492-1.02-.492-1.704 0-.696.156-1.26.492-1.716.36-.504.876-.756 1.536-.756m8.22-4.272-4.26 11.04h.864l4.248-11.04zm6.624 1.104v3.672c-.48-.876-1.164-1.308-2.052-1.308s-1.572.324-2.076.996c-.468.6-.696 1.344-.696 2.256 0 .936.228 1.704.696 2.304.504.648 1.212.984 2.124.984.936 0 1.632-.396 2.064-1.188v1.02h.9v-8.736zm-1.848 3.156c.552 0 1.008.216 1.356.672.336.444.516 1.032.516 1.752v.12c0 .696-.156 1.26-.456 1.692-.348.48-.828.72-1.452.72-.672 0-1.176-.252-1.512-.732-.3-.432-.444-1.02-.444-1.764s.144-1.32.456-1.74c.336-.48.852-.72 1.536-.72m6.996-.792c-.744 0-1.332.144-1.788.432-.504.312-.828.804-.96 1.452l.948.072c.096-.396.3-.696.624-.888.288-.192.66-.276 1.116-.276 1.08 0 1.62.516 1.62 1.56v.324l-1.488.024c-.936.012-1.656.192-2.16.528-.576.36-.852.888-.852 1.596 0 .504.192.924.576 1.248.372.312.864.468 1.488.468a3.15 3.15 0 0 0 1.548-.384c.384-.216.708-.492.948-.828v1.044h.9v-3.984c0-.72-.192-1.284-.552-1.692-.432-.468-1.08-.696-1.968-.696m1.56 3.396v.528c0 .48-.228.912-.672 1.284a2.35 2.35 0 0 1-1.56.576c-.384 0-.696-.096-.936-.276a.85.85 0 0 1-.348-.708c0-.9.696-1.356 2.088-1.38zm4.104-5.232-.948.396v1.608h-1.248v.804h1.248v3.948c0 .468.096.816.3 1.056.216.264.588.396 1.092.396h.936v-.804h-.792c-.216 0-.372-.06-.456-.156-.096-.096-.132-.264-.132-.492v-3.948h1.536v-.804h-1.536zm5.304 1.836c-.744 0-1.332.144-1.788.432-.504.312-.828.804-.96 1.452l.948.072c.096-.396.3-.696.624-.888.288-.192.66-.276 1.116-.276 1.08 0 1.62.516 1.62 1.56v.324l-1.488.024c-.936.012-1.656.192-2.16.528-.576.36-.852.888-.852 1.596 0 .504.192.924.576 1.248.372.312.864.468 1.488.468a3.15 3.15 0 0 0 1.548-.384c.384-.216.708-.492.948-.828v1.044h.9v-3.984c0-.72-.192-1.284-.552-1.692-.432-.468-1.08-.696-1.968-.696m1.56 3.396v.528c0 .48-.228.912-.672 1.284a2.35 2.35 0 0 1-1.56.576c-.384 0-.696-.096-.936-.276a.85.85 0 0 1-.348-.708c0-.9.696-1.356 2.088-1.38zm3.288 1.548a.66.66 0 0 0-.516.216.7.7 0 0 0-.216.528c0 .204.072.372.216.516.132.144.3.216.516.216a.72.72 0 0 0 .516-.216.7.7 0 0 0 .216-.516.7.7 0 0 0-.216-.528.72.72 0 0 0-.516-.216m3.24-7.116a.69.69 0 0 0-.516.204c-.144.12-.204.288-.204.504 0 .204.06.372.204.516a.74.74 0 0 0 .516.204.77.77 0 0 0 .528-.204.74.74 0 0 0 .204-.516.65.65 0 0 0-.204-.504.71.71 0 0 0-.528-.204m-.48 2.34v6.888c0 .588-.288.888-.852.888h-.504v.804h.576c1.152 0 1.74-.552 1.74-1.656v-6.924zm4.968-.168c-.696 0-1.272.156-1.704.468-.468.312-.696.72-.696 1.248s.228.924.708 1.212c.288.192.804.372 1.536.552.672.168 1.116.3 1.32.396.384.192.588.456.588.804 0 .696-.564 1.056-1.668 1.056q-.792 0-1.188-.288c-.264-.216-.444-.564-.516-1.056h-.936c.144 1.428 1.032 2.148 2.664 2.148 1.752 0 2.628-.648 2.628-1.92 0-.54-.252-.96-.744-1.272-.324-.204-.852-.396-1.596-.576-.624-.168-1.056-.3-1.284-.408-.36-.18-.528-.408-.528-.672q0-.414.396-.648c.24-.168.576-.24 1.008-.24.492 0 .876.096 1.14.288.24.168.396.456.48.84h.936c-.168-1.296-1.008-1.932-2.544-1.932m6.636 0c-.936 0-1.668.312-2.22.96-.528.612-.792 1.38-.792 2.316 0 .924.264 1.692.792 2.292.552.648 1.284.972 2.22.972q1.386 0 2.232-.972c.516-.6.78-1.368.78-2.292 0-.936-.264-1.704-.792-2.316-.552-.648-1.296-.96-2.22-.96m0 .804q.972 0 1.548.756c.324.456.492 1.02.492 1.716 0 .672-.168 1.248-.492 1.704q-.576.756-1.548.756c-.66 0-1.176-.252-1.536-.756-.336-.456-.492-1.02-.492-1.704 0-.696.156-1.26.492-1.716.36-.504.876-.756 1.536-.756m7.164-.804q-.612 0-1.116.288-.504.27-.828.792v-.912h-.96v6.204h.96v-3.744c.036-.564.216-1.008.552-1.344a1.52 1.52 0 0 1 1.116-.468c1.08 0 1.632.6 1.632 1.812v3.744h.96v-3.816c0-1.704-.78-2.556-2.316-2.556m4.02-2.196.12 2.988h.78l.108-2.988zm-92.328 16 .12 2.988h.78l.108-2.988zm5.676 2.196c-.936 0-1.62.396-2.064 1.188v-1.02h-.9v8.58h.96v-3.504q.72 1.296 2.052 1.296c.888 0 1.572-.336 2.076-.984.456-.6.696-1.356.696-2.268 0-.936-.24-1.692-.708-2.292-.516-.672-1.224-.996-2.112-.996m-.12.792c.66 0 1.164.24 1.512.744.288.432.444 1.02.444 1.752q0 1.116-.468 1.764c-.348.456-.852.696-1.524.696-.576 0-1.02-.228-1.356-.66-.36-.444-.528-1.02-.528-1.74v-.12c0-.696.156-1.272.468-1.704.336-.492.828-.732 1.452-.732m6.912-.792c-.432 0-.804.132-1.128.396-.264.204-.48.492-.648.852v-1.08h-.948v6.204h.948v-3.288c0-.576.156-1.068.492-1.476.324-.432.732-.636 1.212-.636.3 0 .612.036.924.132v-.96c-.228-.096-.516-.144-.852-.144m4.428 0c-.936 0-1.668.312-2.22.96-.528.612-.792 1.38-.792 2.316 0 .924.264 1.692.792 2.292.552.648 1.284.972 2.22.972q1.386 0 2.232-.972c.516-.6.78-1.368.78-2.292 0-.936-.264-1.704-.792-2.316-.552-.648-1.296-.96-2.22-.96m0 .804q.972 0 1.548.756c.324.456.492 1.02.492 1.716 0 .672-.168 1.248-.492 1.704q-.576.756-1.548.756c-.66 0-1.176-.252-1.536-.756-.336-.456-.492-1.02-.492-1.704 0-.696.156-1.26.492-1.716.36-.504.876-.756 1.536-.756m6.936-.804c-.924 0-1.656.324-2.184.984-.492.6-.732 1.368-.732 2.316s.24 1.716.732 2.304c.516.624 1.236.936 2.172.936.768 0 1.38-.204 1.848-.6.48-.408.78-1.02.924-1.812h-.96c-.144 1.068-.756 1.608-1.812 1.608-.624 0-1.104-.228-1.428-.66-.336-.432-.492-1.032-.492-1.788q0-1.134.504-1.8c.348-.456.828-.684 1.428-.684.492 0 .888.108 1.2.348q.45.36.576 1.08h.948c-.108-.756-.396-1.32-.876-1.692-.468-.36-1.08-.54-1.848-.54m6.444 0c-.9 0-1.608.324-2.136.972-.528.612-.78 1.38-.78 2.292 0 1.008.264 1.8.816 2.4.528.576 1.248.876 2.136.876.804 0 1.464-.24 1.98-.696.42-.384.696-.864.84-1.464h-.96c-.156.432-.36.756-.624.972-.312.252-.732.384-1.236.384-.588 0-1.056-.192-1.392-.576s-.516-.924-.564-1.62h4.896c-.024-1.08-.264-1.932-.72-2.532-.504-.672-1.26-1.008-2.256-1.008m.024.804c1.176 0 1.836.66 1.956 1.992h-3.876c.06-.612.252-1.092.588-1.452q.504-.54 1.332-.54m6.276-.804c-.696 0-1.272.156-1.704.468-.468.312-.696.72-.696 1.248s.228.924.708 1.212c.288.192.804.372 1.536.552.672.168 1.116.3 1.32.396.384.192.588.456.588.804 0 .696-.564 1.056-1.668 1.056q-.792 0-1.188-.288c-.264-.216-.444-.564-.516-1.056h-.936c.144 1.428 1.032 2.148 2.664 2.148 1.752 0 2.628-.648 2.628-1.92 0-.54-.252-.96-.744-1.272-.324-.204-.852-.396-1.596-.576-.624-.168-1.056-.3-1.284-.408-.36-.18-.528-.408-.528-.672q0-.414.396-.648c.24-.168.576-.24 1.008-.24.492 0 .876.096 1.14.288.24.168.396.456.48.84h.936c-.168-1.296-1.008-1.932-2.544-1.932m6.06 0c-.696 0-1.272.156-1.704.468-.468.312-.696.72-.696 1.248s.228.924.708 1.212c.288.192.804.372 1.536.552.672.168 1.116.3 1.32.396.384.192.588.456.588.804 0 .696-.564 1.056-1.668 1.056q-.792 0-1.188-.288c-.264-.216-.444-.564-.516-1.056h-.936c.144 1.428 1.032 2.148 2.664 2.148 1.752 0 2.628-.648 2.628-1.92 0-.54-.252-.96-.744-1.272-.324-.204-.852-.396-1.596-.576-.624-.168-1.056-.3-1.284-.408-.36-.18-.528-.408-.528-.672q0-.414.396-.648c.24-.168.576-.24 1.008-.24.492 0 .876.096 1.14.288.24.168.396.456.48.84h.936c-.168-1.296-1.008-1.932-2.544-1.932m6.42 0c-.9 0-1.608.324-2.136.972-.528.612-.78 1.38-.78 2.292 0 1.008.264 1.8.816 2.4.528.576 1.248.876 2.136.876.804 0 1.464-.24 1.98-.696.42-.384.696-.864.84-1.464h-.96c-.156.432-.36.756-.624.972-.312.252-.732.384-1.236.384-.588 0-1.056-.192-1.392-.576s-.516-.924-.564-1.62h4.896c-.024-1.08-.264-1.932-.72-2.532-.504-.672-1.26-1.008-2.256-1.008m.024.804c1.176 0 1.836.66 1.956 1.992h-3.876c.06-.612.252-1.092.588-1.452q.504-.54 1.332-.54m8.664-3.168v3.672c-.48-.876-1.164-1.308-2.052-1.308s-1.572.324-2.076.996c-.468.6-.696 1.344-.696 2.256 0 .936.228 1.704.696 2.304.504.648 1.212.984 2.124.984.936 0 1.632-.396 2.064-1.188v1.02h.9v-8.736zm-1.848 3.156c.552 0 1.008.216 1.356.672.336.444.516 1.032.516 1.752v.12c0 .696-.156 1.26-.456 1.692-.348.48-.828.72-1.452.72-.672 0-1.176-.252-1.512-.732-.3-.432-.444-1.02-.444-1.764s.144-1.32.456-1.74c.336-.48.852-.72 1.536-.72m3.552 6.456v.804h6v-.804zm6.936-9.612v8.736h.948v-8.736zm3.42.192a.69.69 0 0 0-.516.204c-.144.12-.204.288-.204.504 0 .204.06.372.204.516a.74.74 0 0 0 .516.204.74.74 0 0 0 .516-.204.7.7 0 0 0 .216-.516q0-.324-.216-.504a.69.69 0 0 0-.516-.204m-.48 2.34v6.204h.96v-6.204zm5.664-.168q-.612 0-1.116.288-.504.27-.828.792v-.912h-.96v6.204h.96v-3.744c.036-.564.216-1.008.552-1.344a1.52 1.52 0 0 1 1.116-.468c1.08 0 1.632.6 1.632 1.812v3.744h.96v-3.816c0-1.704-.78-2.556-2.316-2.556m6.36 0c-.9 0-1.608.324-2.136.972-.528.612-.78 1.38-.78 2.292 0 1.008.264 1.8.816 2.4.528.576 1.248.876 2.136.876.804 0 1.464-.24 1.98-.696.42-.384.696-.864.84-1.464h-.96c-.156.432-.36.756-.624.972-.312.252-.732.384-1.236.384-.588 0-1.056-.192-1.392-.576s-.516-.924-.564-1.62h4.896c-.024-1.08-.264-1.932-.72-2.532-.504-.672-1.26-1.008-2.256-1.008m.024.804c1.176 0 1.836.66 1.956 1.992h-3.876c.06-.612.252-1.092.588-1.452q.504-.54 1.332-.54m6.276-.804c-.696 0-1.272.156-1.704.468-.468.312-.696.72-.696 1.248s.228.924.708 1.212c.288.192.804.372 1.536.552.672.168 1.116.3 1.32.396.384.192.588.456.588.804 0 .696-.564 1.056-1.668 1.056q-.792 0-1.188-.288c-.264-.216-.444-.564-.516-1.056h-.936c.144 1.428 1.032 2.148 2.664 2.148 1.752 0 2.628-.648 2.628-1.92 0-.54-.252-.96-.744-1.272-.324-.204-.852-.396-1.596-.576-.624-.168-1.056-.3-1.284-.408-.36-.18-.528-.408-.528-.672q0-.414.396-.648c.24-.168.576-.24 1.008-.24.492 0 .876.096 1.14.288.24.168.396.456.48.84h.936c-.168-1.296-1.008-1.932-2.544-1.932m4.08-2.196.12 2.988h.78l.108-2.988zm14.892-.168v8.736h.948v-8.736zm3.42.192a.69.69 0 0 0-.516.204c-.144.12-.204.288-.204.504 0 .204.06.372.204.516a.74.74 0 0 0 .516.204.74.74 0 0 0 .516-.204.7.7 0 0 0 .216-.516q0-.324-.216-.504a.69.69 0 0 0-.516-.204m-.48 2.34v6.204h.96v-6.204zm5.664-.168q-.612 0-1.116.288-.504.27-.828.792v-.912h-.96v6.204h.96v-3.744c.036-.564.216-1.008.552-1.344a1.52 1.52 0 0 1 1.116-.468c1.08 0 1.632.6 1.632 1.812v3.744h.96v-3.816c0-1.704-.78-2.556-2.316-2.556m6.36 0c-.9 0-1.608.324-2.136.972-.528.612-.78 1.38-.78 2.292 0 1.008.264 1.8.816 2.4.528.576 1.248.876 2.136.876.804 0 1.464-.24 1.98-.696.42-.384.696-.864.84-1.464h-.96c-.156.432-.36.756-.624.972-.312.252-.732.384-1.236.384-.588 0-1.056-.192-1.392-.576s-.516-.924-.564-1.62h4.896c-.024-1.08-.264-1.932-.72-2.532-.504-.672-1.26-1.008-2.256-1.008m.024.804c1.176 0 1.836.66 1.956 1.992h-3.876c.06-.612.252-1.092.588-1.452q.504-.54 1.332-.54m6.276-.804c-.696 0-1.272.156-1.704.468-.468.312-.696.72-.696 1.248s.228.924.708 1.212c.288.192.804.372 1.536.552.672.168 1.116.3 1.32.396.384.192.588.456.588.804 0 .696-.564 1.056-1.668 1.056q-.792 0-1.188-.288c-.264-.216-.444-.564-.516-1.056h-.936c.144 1.428 1.032 2.148 2.664 2.148 1.752 0 2.628-.648 2.628-1.92 0-.54-.252-.96-.744-1.272-.324-.204-.852-.396-1.596-.576-.624-.168-1.056-.3-1.284-.408-.36-.18-.528-.408-.528-.672q0-.414.396-.648c.24-.168.576-.24 1.008-.24.492 0 .876.096 1.14.288.24.168.396.456.48.84h.936c-.168-1.296-1.008-1.932-2.544-1.932m7.176.168 2.112 6.204h.9l1.464-4.992 1.44 4.992h.912l2.112-6.204h-1.056l-1.524 5.028-1.44-5.028h-.9l-1.44 5.028-1.524-5.028zm10.536-2.34a.69.69 0 0 0-.516.204c-.144.12-.204.288-.204.504 0 .204.06.372.204.516a.74.74 0 0 0 .516.204.74.74 0 0 0 .516-.204.7.7 0 0 0 .216-.516q0-.324-.216-.504a.69.69 0 0 0-.516-.204m-.48 2.34v6.204h.96v-6.204zm4.416-2.004-.948.396v1.608h-1.248v.804h1.248v3.948c0 .468.096.816.3 1.056.216.264.588.396 1.092.396h.936v-.804h-.792c-.216 0-.372-.06-.456-.156-.096-.096-.132-.264-.132-.492v-3.948h1.536v-.804h-1.536zm2.604-.528v8.736h.96v-3.54c0-.576.156-1.068.48-1.452q.468-.576 1.188-.576c.516 0 .912.156 1.2.468.264.312.408.756.408 1.332v3.768h.96v-3.912c0-.792-.192-1.404-.576-1.824-.384-.432-.948-.636-1.668-.636-.42 0-.792.096-1.128.288q-.54.306-.864.9v-3.552z"/><path fill="#FFF" d="m438.649 149.83-.456 4.728h.936a1.7 1.7 0 0 1 .768-.768c.324-.18.684-.264 1.092-.264.624 0 1.116.18 1.464.564.36.372.552.9.552 1.584 0 .6-.204 1.092-.588 1.476-.396.384-.888.576-1.488.576-.528 0-.972-.132-1.308-.384-.384-.288-.6-.708-.648-1.248H438c.06.78.384 1.404.984 1.86.528.408 1.176.612 1.932.612.84 0 1.56-.264 2.136-.78.612-.552.924-1.26.924-2.124 0-.924-.264-1.644-.768-2.172-.504-.516-1.164-.768-1.98-.768-.396 0-.756.06-1.092.204-.372.144-.684.36-.924.648h-.048l.288-2.868h4.176v-.876zm9.54-.168c-1.032 0-1.8.444-2.316 1.356q-.684 1.152-.684 3.096t.684 3.096c.516.9 1.284 1.356 2.316 1.356 1.02 0 1.788-.456 2.316-1.356q.684-1.152.684-3.096t-.684-3.096c-.528-.912-1.296-1.356-2.316-1.356m0 .84c.768 0 1.32.408 1.656 1.236.24.576.372 1.368.372 2.376 0 .996-.132 1.788-.372 2.376-.336.816-.888 1.236-1.656 1.236s-1.32-.42-1.656-1.236q-.36-.882-.36-2.376 0-1.512.36-2.376c.336-.828.888-1.236 1.656-1.236"/><path fill="#A89FF8" d="M227.557 165.83c-.528 0-.936.144-1.212.444-.264.288-.396.684-.396 1.212v.708h-1.56v.804h1.56v5.4h.96v-5.4h1.752v-.804h-1.752v-.684q0-.45.18-.648c.12-.144.324-.204.588-.204h1.068v-.828zm4.404 0 .108 2.988h.78l.12-2.988zm-2.196 0 .12 2.988h.78l.108-2.988zm5.028 0v8.568h.984v-3.504h2.508c1.968 0 2.964-.852 2.964-2.544q0-2.52-2.952-2.52zm.984.852h2.46c.684 0 1.188.132 1.524.42.336.252.504.672.504 1.248s-.168.996-.492 1.272c-.336.276-.84.42-1.536.42h-2.46zm9.324 1.344c-.432 0-.804.132-1.128.396-.264.204-.48.492-.648.852v-1.08h-.948v6.204h.948v-3.288c0-.576.156-1.068.492-1.476.324-.432.732-.636 1.212-.636.3 0 .612.036.924.132v-.96c-.228-.096-.516-.144-.852-.144m4.428 0c-.936 0-1.668.312-2.22.96-.528.612-.792 1.38-.792 2.316 0 .924.264 1.692.792 2.292.552.648 1.284.972 2.22.972q1.386 0 2.232-.972c.516-.6.78-1.368.78-2.292 0-.936-.264-1.704-.792-2.316-.552-.648-1.296-.96-2.22-.96m0 .804q.972 0 1.548.756c.324.456.492 1.02.492 1.716 0 .672-.168 1.248-.492 1.704q-.576.756-1.548.756c-.66 0-1.176-.252-1.536-.756-.336-.456-.492-1.02-.492-1.704 0-.696.156-1.26.492-1.716.36-.504.876-.756 1.536-.756m6.936-.804c-.924 0-1.656.324-2.184.984-.492.6-.732 1.368-.732 2.316s.24 1.716.732 2.304c.516.624 1.236.936 2.172.936.768 0 1.38-.204 1.848-.6.48-.408.78-1.02.924-1.812h-.96c-.144 1.068-.756 1.608-1.812 1.608-.624 0-1.104-.228-1.428-.66-.336-.432-.492-1.032-.492-1.788q0-1.134.504-1.8c.348-.456.828-.684 1.428-.684.492 0 .888.108 1.2.348q.45.36.576 1.08h.948c-.108-.756-.396-1.32-.876-1.692-.468-.36-1.08-.54-1.848-.54m6.444 0c-.9 0-1.608.324-2.136.972-.528.612-.78 1.38-.78 2.292 0 1.008.264 1.8.816 2.4.528.576 1.248.876 2.136.876.804 0 1.464-.24 1.98-.696.42-.384.696-.864.84-1.464h-.96c-.156.432-.36.756-.624.972-.312.252-.732.384-1.236.384-.588 0-1.056-.192-1.392-.576s-.516-.924-.564-1.62h4.896c-.024-1.08-.264-1.932-.72-2.532-.504-.672-1.26-1.008-2.256-1.008m.024.804c1.176 0 1.836.66 1.956 1.992h-3.876c.06-.612.252-1.092.588-1.452q.504-.54 1.332-.54m6.276-.804c-.696 0-1.272.156-1.704.468-.468.312-.696.72-.696 1.248s.228.924.708 1.212c.288.192.804.372 1.536.552.672.168 1.116.3 1.32.396.384.192.588.456.588.804 0 .696-.564 1.056-1.668 1.056q-.792 0-1.188-.288c-.264-.216-.444-.564-.516-1.056h-.936c.144 1.428 1.032 2.148 2.664 2.148 1.752 0 2.628-.648 2.628-1.92 0-.54-.252-.96-.744-1.272-.324-.204-.852-.396-1.596-.576-.624-.168-1.056-.3-1.284-.408-.36-.18-.528-.408-.528-.672q0-.414.396-.648c.24-.168.576-.24 1.008-.24.492 0 .876.096 1.14.288.24.168.396.456.48.84h.936c-.168-1.296-1.008-1.932-2.544-1.932m6.06 0c-.696 0-1.272.156-1.704.468-.468.312-.696.72-.696 1.248s.228.924.708 1.212c.288.192.804.372 1.536.552.672.168 1.116.3 1.32.396.384.192.588.456.588.804 0 .696-.564 1.056-1.668 1.056q-.792 0-1.188-.288c-.264-.216-.444-.564-.516-1.056h-.936c.144 1.428 1.032 2.148 2.664 2.148 1.752 0 2.628-.648 2.628-1.92 0-.54-.252-.96-.744-1.272-.324-.204-.852-.396-1.596-.576-.624-.168-1.056-.3-1.284-.408-.36-.18-.528-.408-.528-.672q0-.414.396-.648c.24-.168.576-.24 1.008-.24.492 0 .876.096 1.14.288.24.168.396.456.48.84h.936c-.168-1.296-1.008-1.932-2.544-1.932m6.42 0c-.9 0-1.608.324-2.136.972-.528.612-.78 1.38-.78 2.292 0 1.008.264 1.8.816 2.4.528.576 1.248.876 2.136.876.804 0 1.464-.24 1.98-.696.42-.384.696-.864.84-1.464h-.96c-.156.432-.36.756-.624.972-.312.252-.732.384-1.236.384-.588 0-1.056-.192-1.392-.576s-.516-.924-.564-1.62h4.896c-.024-1.08-.264-1.932-.72-2.532-.504-.672-1.26-1.008-2.256-1.008m.024.804c1.176 0 1.836.66 1.956 1.992h-3.876c.06-.612.252-1.092.588-1.452q.504-.54 1.332-.54m8.664-3.168v3.672c-.48-.876-1.164-1.308-2.052-1.308s-1.572.324-2.076.996c-.468.6-.696 1.344-.696 2.256 0 .936.228 1.704.696 2.304.504.648 1.212.984 2.124.984.936 0 1.632-.396 2.064-1.188v1.02h.9v-8.736zm-1.848 3.156c.552 0 1.008.216 1.356.672.336.444.516 1.032.516 1.752v.12c0 .696-.156 1.26-.456 1.692-.348.48-.828.72-1.452.72-.672 0-1.176-.252-1.512-.732-.3-.432-.444-1.02-.444-1.764s.144-1.32.456-1.74c.336-.48.852-.72 1.536-.72"/><path fill="#FFF" d="M502.92 165.662v8.736h.949v-8.736zm5.185 2.364c-.9 0-1.608.324-2.136.972-.528.612-.78 1.38-.78 2.292 0 1.008.264 1.8.816 2.4.528.576 1.248.876 2.136.876.804 0 1.464-.24 1.98-.696.42-.384.696-.864.84-1.464H510c-.156.432-.36.756-.624.972-.312.252-.732.384-1.236.384-.588 0-1.056-.192-1.392-.576s-.516-.924-.564-1.62h4.896c-.024-1.08-.264-1.932-.72-2.532-.504-.672-1.26-1.008-2.256-1.008m.024.804c1.176 0 1.836.66 1.956 1.992h-3.876c.06-.612.252-1.092.588-1.452q.504-.54 1.332-.54m6.984-.804q-.612 0-1.116.288-.504.27-.828.792v-.912h-.96v6.204h.96v-3.744c.036-.564.216-1.008.552-1.344a1.52 1.52 0 0 1 1.116-.468c1.08 0 1.632.6 1.632 1.812v3.744h.96v-3.816c0-1.704-.78-2.556-2.316-2.556"/></g><rect width="84.686" height="36.365" x="487.795" y="74.034" fill="url(#e)" rx="0"/><rect width="62.743" height="395.612" x="573.334" y="127.257" fill="url(#f)" rx="0" transform="rotate(90 573.334 127.257)"/><rect width="128.757" height="25.169" x="11.984" fill="url(#g)" fill-opacity=".5" rx="0"/><path fill="#FFF" d="m31.993 7.703.13 3.585h.935l.144-3.585zm-2.635 0 .144 3.585h.936l.13-3.585zm9.49-.202c-1.066 0-1.945.23-2.622.691-.763.49-1.137 1.195-1.137 2.088 0 .864.389 1.527 1.18 1.987.332.173 1.124.461 2.362.836 1.152.33 1.887.576 2.175.748.676.36 1.022.864 1.022 1.512q0 .822-.778 1.296c-.518.317-1.21.476-2.044.476-.922 0-1.613-.202-2.088-.576-.519-.418-.836-1.08-.936-1.973h-1.167c.087 1.267.533 2.203 1.34 2.822q1.036.778 2.85.778c1.225 0 2.19-.26 2.91-.763.72-.519 1.08-1.239 1.08-2.132 0-.936-.433-1.656-1.282-2.174q-.648-.389-2.679-.994c-.993-.288-1.627-.504-1.886-.648-.59-.316-.878-.734-.878-1.252 0-.59.244-1.023.734-1.31.432-.26 1.022-.375 1.786-.375.835 0 1.483.173 1.944.547.446.36.734.907.864 1.656h1.166c-.1-1.08-.49-1.9-1.18-2.448-.663-.533-1.585-.792-2.737-.792m4.68 3.038 2.951 7.272-1.281 3.024h1.252l4.076-10.296h-1.268l-2.203 5.876-2.275-5.876zm11.447-.201q-.735 0-1.339.345a2.6 2.6 0 0 0-.994.95V10.54H51.49v7.445h1.152v-4.493c.044-.676.26-1.21.663-1.612q.56-.562 1.34-.562c1.295 0 1.957.72 1.957 2.174v4.493h1.152v-4.579c0-2.045-.936-3.067-2.779-3.067m6.552-2.203-1.137.475v1.93h-1.498v.964h1.498v4.738c0 .561.115.979.36 1.267.259.317.705.475 1.31.475h1.123v-.965h-.95c-.26 0-.447-.072-.547-.187-.116-.115-.159-.317-.159-.59v-4.738h1.843v-.965h-1.843zm6.365 2.203c-.893 0-1.598.173-2.146.518-.604.375-.993.965-1.152 1.743l1.138.086c.115-.475.36-.835.749-1.066.345-.23.792-.33 1.34-.33 1.295 0 1.943.618 1.943 1.871v.389l-1.786.029c-1.123.014-1.987.23-2.592.633-.69.432-1.022 1.066-1.022 1.916 0 .604.23 1.108.691 1.497.447.375 1.037.562 1.786.562a3.8 3.8 0 0 0 1.857-.461c.461-.26.85-.59 1.138-.994v1.253h1.08v-4.78c0-.865-.23-1.541-.662-2.031-.519-.562-1.296-.835-2.362-.835m1.872 4.075v.634c0 .576-.274 1.094-.806 1.54a2.82 2.82 0 0 1-1.872.692c-.461 0-.836-.116-1.124-.332-.288-.23-.417-.504-.417-.85 0-1.08.835-1.626 2.505-1.655zm2.434-3.874 2.635 3.5-2.952 3.945h1.368l2.232-3.096 2.217 3.096h1.368l-2.952-3.945 2.636-3.5h-1.354l-1.915 2.65-1.93-2.65zM84.97 7.703v10.281h7.532v-1.022h-6.35v-3.773h5.76v-1.022h-5.76V8.725h6.105V7.703zm12.298 2.635a2.07 2.07 0 0 0-1.354.475c-.316.245-.576.59-.777 1.022V10.54h-1.138v7.445h1.138V14.04c0-.692.187-1.282.59-1.772.39-.518.879-.763 1.455-.763.36 0 .734.043 1.108.159V10.51c-.273-.116-.619-.173-1.022-.173m5.256 0a2.07 2.07 0 0 0-1.354.475c-.316.245-.576.59-.777 1.022V10.54h-1.138v7.445h1.138V14.04c0-.692.187-1.282.59-1.772.39-.518.879-.763 1.455-.763.36 0 .734.043 1.108.159V10.51c-.273-.116-.619-.173-1.022-.173m5.314 0c-1.124 0-2.002.374-2.664 1.152-.634.734-.95 1.656-.95 2.779 0 1.109.316 2.03.95 2.75.662.778 1.54 1.167 2.664 1.167q1.662 0 2.678-1.167c.62-.72.936-1.641.936-2.75 0-1.123-.317-2.045-.95-2.78-.663-.777-1.556-1.151-2.664-1.151m0 .965q1.166 0 1.857.907c.39.547.59 1.224.59 2.059 0 .806-.2 1.498-.59 2.045q-.69.907-1.857.907c-.792 0-1.412-.302-1.844-.907-.403-.547-.59-1.224-.59-2.045 0-.835.187-1.512.59-2.06.432-.604 1.052-.906 1.844-.906m8.38-.965a2.07 2.07 0 0 0-1.353.475c-.317.245-.576.59-.778 1.022V10.54h-1.137v7.445h1.137V14.04c0-.692.187-1.282.59-1.772.39-.518.88-.763 1.455-.763.36 0 .734.043 1.109.159V10.51c-.274-.116-.62-.173-1.023-.173m4.882-2.635.13 3.585h.936l.144-3.585zm-2.635 0 .144 3.585h.936l.13-3.585z"/><circle cx="12.584" cy="12.584" r="12.584" fill="#608F4A"/><path fill="#FFF" d="M8 9.679v1.44h3.37v8.841h1.685V11.12h3.37v-1.44z"/><circle cx="12.584" cy="53.753" r="12.584" fill="#524A8F"/><rect width="128.757" height="25.169" x="11.984" y="41.169" fill="url(#h)" fill-opacity=".5" rx="0"/><path fill="#FFF" d="M12.839 49.647v6.898q0 1.101-.39 1.598c-.258.331-.676.504-1.237.504-1.023 0-1.527-.59-1.527-1.771v-.317H8v.331q0 1.512.821 2.376c.533.576 1.325.864 2.362.864 1.195 0 2.059-.302 2.606-.907.49-.576.735-1.44.735-2.62v-6.956zM31.993 48.871l.13 3.586h.935l.144-3.586zm-2.635 0 .144 3.586h.936l.13-3.586zm6.033 0v10.282h7.114V58.13h-5.947v-9.259zm11.65 2.635c-1.123 0-2.002.375-2.664 1.152-.634.735-.95 1.656-.95 2.78 0 1.108.316 2.03.95 2.75.662.778 1.54 1.166 2.664 1.166q1.663 0 2.678-1.166c.62-.72.936-1.642.936-2.75 0-1.124-.317-2.045-.95-2.78-.663-.777-1.555-1.152-2.664-1.152m0 .965q1.166 0 1.857.907c.39.548.59 1.224.59 2.06 0 .806-.2 1.497-.59 2.044q-.69.908-1.857.908c-.792 0-1.411-.303-1.843-.908-.404-.547-.59-1.224-.59-2.044 0-.836.186-1.512.59-2.06.432-.604 1.05-.907 1.843-.907m8.18-.965c-1.038 0-1.859.36-2.463 1.095-.605.69-.893 1.57-.893 2.664 0 1.08.288 1.958.893 2.65.604.705 1.425 1.065 2.462 1.065 1.123 0 1.958-.504 2.506-1.498v1.31c0 1.642-.75 2.478-2.247 2.478-.677 0-1.18-.13-1.512-.375-.33-.23-.547-.605-.633-1.109h-1.152q.194 1.21.993 1.815c.519.403 1.296.605 2.304.605 2.261 0 3.399-1.196 3.399-3.572v-6.926h-1.152v1.282c-.548-.994-1.383-1.484-2.506-1.484m.172.95c.734 0 1.31.26 1.742.807.403.49.605 1.167.605 2.002 0 .806-.202 1.469-.605 1.973-.432.518-1.008.777-1.757.777-.806 0-1.396-.288-1.8-.835-.36-.49-.532-1.138-.532-1.915 0-.835.201-1.512.604-2.002.418-.547.994-.806 1.743-.806m6.22-3.556a.83.83 0 0 0-.619.245c-.172.144-.244.345-.244.605 0 .244.072.446.244.619a.88.88 0 0 0 .62.245.88.88 0 0 0 .619-.245.84.84 0 0 0 .26-.62q0-.388-.26-.604a.83.83 0 0 0-.62-.245m-.575 2.808v7.445h1.152v-7.445zm6.523-.202c-1.109 0-1.987.39-2.62 1.181-.591.72-.88 1.642-.88 2.78s.289 2.059.88 2.764c.618.749 1.482 1.123 2.605 1.123.922 0 1.656-.244 2.218-.72.576-.49.936-1.224 1.109-2.174H69.72c-.173 1.282-.907 1.93-2.175 1.93-.748 0-1.324-.274-1.713-.792-.403-.519-.59-1.239-.59-2.146q0-1.36.604-2.16c.418-.547.994-.82 1.714-.82.59 0 1.065.129 1.44.417q.54.432.691 1.296h1.138c-.13-.907-.476-1.584-1.052-2.03-.561-.433-1.296-.649-2.217-.649m7.905 0c-.892 0-1.598.173-2.145.519-.605.374-.994.965-1.152 1.742l1.137.087c.116-.476.36-.836.75-1.066.345-.23.791-.331 1.338-.331 1.296 0 1.944.619 1.944 1.872v.389l-1.785.028c-1.123.015-1.987.23-2.592.634-.691.432-1.023 1.066-1.023 1.915 0 .605.23 1.109.692 1.498.446.374 1.036.561 1.785.561a3.8 3.8 0 0 0 1.858-.46c.46-.26.85-.59 1.137-.994v1.253h1.08v-4.781c0-.864-.23-1.54-.662-2.03-.518-.562-1.296-.836-2.362-.836m1.872 4.076v.633c0 .576-.273 1.095-.806 1.54a2.82 2.82 0 0 1-1.872.692c-.46 0-.835-.115-1.123-.331-.288-.23-.418-.504-.418-.85 0-1.08.835-1.627 2.506-1.656zm3.168-6.912v10.483h1.138V48.67zm8.093.201v10.282h7.531V58.13h-6.35v-3.772h5.76v-1.023h-5.76v-3.441h6.106V48.87zm12.298 2.635a2.07 2.07 0 0 0-1.354.476c-.317.244-.576.59-.777 1.022v-1.296h-1.138v7.445h1.138v-3.946c0-.691.187-1.281.59-1.771.389-.518.878-.763 1.454-.763.36 0 .735.043 1.11.158V51.68c-.274-.115-.62-.173-1.023-.173m5.256 0a2.07 2.07 0 0 0-1.354.476c-.317.244-.576.59-.777 1.022v-1.296h-1.138v7.445h1.138v-3.946c0-.691.187-1.281.59-1.771.389-.518.878-.763 1.454-.763.36 0 .735.043 1.11.158V51.68c-.274-.115-.62-.173-1.023-.173m5.313 0c-1.123 0-2.001.375-2.664 1.152-.633.735-.95 1.656-.95 2.78 0 1.108.317 2.03.95 2.75.663.778 1.541 1.166 2.664 1.166q1.664 0 2.679-1.166c.62-.72.936-1.642.936-2.75 0-1.124-.317-2.045-.95-2.78-.663-.777-1.556-1.152-2.665-1.152m0 .965q1.167 0 1.858.907c.389.548.59 1.224.59 2.06 0 .806-.201 1.497-.59 2.044q-.69.908-1.858.908c-.792 0-1.41-.303-1.843-.908-.403-.547-.59-1.224-.59-2.044 0-.836.187-1.512.59-2.06.432-.604 1.051-.907 1.843-.907m8.381-.965a2.07 2.07 0 0 0-1.353.476c-.317.244-.576.59-.778 1.022v-1.296h-1.138v7.445h1.138v-3.946c0-.691.187-1.281.59-1.771.39-.518.879-.763 1.455-.763.36 0 .734.043 1.109.158V51.68c-.274-.115-.62-.173-1.023-.173m4.882-2.635.13 3.586h.935l.144-3.586zm-2.635 0 .144 3.586h.936l.13-3.586z"/><rect width="128.757" height="25.169" x="11.984" y="82.337" fill="url(#i)" fill-opacity=".5" rx="0"/><circle cx="12.584" cy="94.921" r="12.584" fill="#A4A100"/><path fill="#FFF" d="m8.087 90.816 3.441 4.968-3.672 5.313h2.06l2.65-3.974 2.649 3.974h2.059l-3.7-5.313 3.47-4.968h-2.06l-2.419 3.629-2.42-3.63zM31.993 90.04l.13 3.585h.935l.144-3.585zm-2.635 0 .144 3.585h.936l.13-3.585zm6.033 0v10.281h1.181v-4.205h3.01c2.361 0 3.556-1.022 3.556-3.052q0-3.024-3.542-3.024zm1.181 1.022h2.952c.82 0 1.426.158 1.829.504.403.302.605.806.605 1.498 0 .69-.202 1.195-.59 1.526-.404.331-1.009.504-1.844.504h-2.952zm10.987 1.613c-1.08 0-1.93.389-2.563 1.166-.634.735-.936 1.656-.936 2.75 0 1.21.317 2.16.98 2.88.633.692 1.497 1.052 2.562 1.052.965 0 1.757-.288 2.376-.835.504-.461.836-1.037 1.008-1.757h-1.152c-.187.518-.432.907-.748 1.166-.375.303-.879.461-1.484.461-.705 0-1.267-.23-1.67-.691s-.62-1.109-.677-1.944h5.875c-.028-1.296-.316-2.319-.864-3.039-.604-.806-1.512-1.21-2.707-1.21m.03.965c1.41 0 2.202.792 2.346 2.39h-4.65c.071-.734.301-1.31.705-1.742q.605-.648 1.598-.648m8.164-.965a2.07 2.07 0 0 0-1.354.475c-.317.245-.576.59-.777 1.022v-1.296h-1.138v7.445h1.138v-3.945c0-.692.187-1.282.59-1.772.389-.518.878-.763 1.454-.763.36 0 .735.043 1.11.159v-1.152c-.274-.116-.62-.173-1.023-.173m4.968-2.635c-.634 0-1.123.172-1.455.532-.316.346-.475.821-.475 1.455v.85H56.92v.964h1.872v6.48h1.152v-6.48h2.103v-.965h-2.103v-.82q0-.54.216-.778c.144-.173.39-.245.706-.245h1.281v-.993zm5.717 2.635c-1.124 0-2.002.374-2.664 1.152-.634.734-.95 1.656-.95 2.78 0 1.108.316 2.03.95 2.75.662.777 1.54 1.166 2.664 1.166q1.662 0 2.678-1.167c.62-.72.936-1.641.936-2.75 0-1.123-.317-2.045-.95-2.78-.663-.777-1.556-1.151-2.664-1.151m0 .965q1.166 0 1.857.907c.39.547.59 1.224.59 2.06 0 .805-.2 1.497-.59 2.044q-.69.907-1.857.907c-.792 0-1.412-.302-1.844-.907-.403-.547-.59-1.224-.59-2.045 0-.835.187-1.512.59-2.06.432-.604 1.052-.906 1.844-.906m8.38-.965a2.07 2.07 0 0 0-1.353.475c-.317.245-.576.59-.778 1.022v-1.296H71.55v7.445h1.137v-3.945c0-.692.187-1.282.59-1.772.39-.518.88-.763 1.455-.763.36 0 .734.043 1.109.159v-1.152c-.274-.116-.62-.173-1.023-.173m5.242 0c-.835 0-1.54.389-2.102 1.195v-.994h-1.152v7.445h1.152v-4.536c0-.59.172-1.094.518-1.497a1.59 1.59 0 0 1 1.31-.634c1.138 0 1.714.648 1.714 1.973v4.694h1.152v-4.665c0-.605.158-1.08.504-1.455.317-.374.734-.547 1.224-.547.634 0 1.094.158 1.382.504.274.317.418.806.418 1.469v4.694h1.152V95.44c0-.85-.245-1.527-.706-2.03-.49-.49-1.108-.735-1.886-.735-.518 0-.95.115-1.31.345-.404.216-.75.576-1.037 1.066-.418-.95-1.195-1.411-2.333-1.411m12.298 0c-.893 0-1.599.173-2.146.518-.605.375-.994.965-1.152 1.743l1.138.086c.115-.475.36-.835.748-1.066.346-.23.792-.33 1.34-.33 1.296 0 1.944.618 1.944 1.871v.39l-1.786.028c-1.123.014-1.987.23-2.592.633-.691.432-1.022 1.066-1.022 1.916 0 .604.23 1.108.69 1.497.447.375 1.038.562 1.786.562a3.8 3.8 0 0 0 1.858-.46c.46-.26.85-.591 1.138-.995v1.253h1.08v-4.78c0-.865-.23-1.541-.663-2.03-.518-.563-1.296-.836-2.361-.836m1.872 4.075v.634c0 .576-.274 1.094-.807 1.54a2.82 2.82 0 0 1-1.872.692c-.46 0-.835-.116-1.123-.332-.288-.23-.418-.504-.418-.85 0-1.08.836-1.626 2.506-1.655zm6.422-4.075q-.735 0-1.34.345a2.6 2.6 0 0 0-.993.95v-1.094h-1.152v7.445h1.152v-4.493c.043-.676.26-1.21.663-1.612q.56-.562 1.339-.562c1.296 0 1.958.72 1.958 2.174v4.493h1.152v-4.579c0-2.045-.936-3.067-2.779-3.067m7.776 0c-1.109 0-1.987.389-2.62 1.18-.591.72-.88 1.642-.88 2.78s.289 2.06.88 2.765c.618.748 1.482 1.123 2.606 1.123.921 0 1.656-.245 2.217-.72.576-.49.936-1.224 1.11-2.175h-1.153c-.173 1.282-.907 1.93-2.174 1.93-.75 0-1.325-.274-1.714-.792-.403-.518-.59-1.238-.59-2.146q0-1.36.604-2.16c.418-.547.994-.82 1.714-.82.59 0 1.066.13 1.44.417q.54.432.691 1.296h1.138c-.13-.907-.475-1.584-1.051-2.03-.562-.432-1.296-.648-2.218-.648m7.733 0c-1.08 0-1.93.389-2.563 1.166-.634.735-.936 1.656-.936 2.75 0 1.21.316 2.16.979 2.88.633.692 1.497 1.052 2.563 1.052.965 0 1.757-.288 2.376-.835.504-.461.835-1.037 1.008-1.757h-1.152c-.187.518-.432.907-.749 1.166-.374.303-.878.461-1.483.461-.706 0-1.267-.23-1.67-.691-.404-.46-.62-1.109-.677-1.944h5.875c-.029-1.296-.317-2.319-.864-3.039-.605-.806-1.512-1.21-2.707-1.21m.029.965c1.41 0 2.203.792 2.347 2.39h-4.651c.072-.734.302-1.31.705-1.742q.605-.648 1.599-.648m10.641-3.572a.83.83 0 0 0-.619.245c-.173.144-.245.346-.245.605 0 .245.072.446.245.62a.88.88 0 0 0 .62.244.88.88 0 0 0 .618-.245.84.84 0 0 0 .26-.619q0-.389-.26-.605a.83.83 0 0 0-.619-.245m-.576 2.808v7.445h1.152v-7.445zm5.948-.201c-.835 0-1.527.187-2.045.561-.562.375-.835.864-.835 1.498s.273 1.109.849 1.454c.346.23.965.447 1.844.663.806.201 1.339.36 1.584.475.46.23.705.547.705.965 0 .835-.677 1.267-2.001 1.267q-.952 0-1.426-.346c-.317-.259-.533-.676-.62-1.267h-1.122c.172 1.714 1.238 2.578 3.196 2.578 2.103 0 3.154-.778 3.154-2.304 0-.648-.302-1.152-.893-1.527-.39-.244-1.022-.475-1.915-.69-.75-.202-1.267-.36-1.541-.49-.432-.216-.633-.49-.633-.807q0-.496.475-.777c.288-.202.69-.288 1.209-.288.59 0 1.052.115 1.368.345.288.202.476.547.576 1.008h1.124c-.202-1.555-1.21-2.318-3.053-2.318m7.272 0c-.835 0-1.527.187-2.045.561-.562.375-.835.864-.835 1.498s.273 1.109.849 1.454c.346.23.965.447 1.844.663.806.201 1.339.36 1.584.475.46.23.705.547.705.965 0 .835-.677 1.267-2.001 1.267q-.952 0-1.426-.346c-.317-.259-.533-.676-.62-1.267h-1.122c.172 1.714 1.238 2.578 3.196 2.578 2.103 0 3.154-.778 3.154-2.304 0-.648-.302-1.152-.893-1.527-.39-.244-1.022-.475-1.915-.69-.75-.202-1.267-.36-1.541-.49-.432-.216-.633-.49-.633-.807q0-.496.475-.777c.288-.202.69-.288 1.209-.288.59 0 1.052.115 1.368.345.288.202.476.547.576 1.008h1.124c-.202-1.555-1.21-2.318-3.053-2.318m4.637.201v4.608c0 2.016.892 3.039 2.707 3.039 1.008 0 1.814-.46 2.419-1.354v1.152h1.152v-7.445h-1.152v4.536q-.13.95-.734 1.556c-.39.374-.836.576-1.325.576-.677 0-1.167-.188-1.47-.533-.301-.346-.445-.879-.445-1.584v-4.55zm11.13-.201c-1.08 0-1.93.389-2.562 1.166-.634.735-.936 1.656-.936 2.75 0 1.21.316 2.16.979 2.88.633.692 1.497 1.052 2.563 1.052.965 0 1.757-.288 2.376-.835.504-.461.835-1.037 1.008-1.757h-1.152c-.187.518-.432.907-.75 1.166-.373.303-.877.461-1.482.461-.706 0-1.267-.23-1.67-.691-.404-.46-.62-1.109-.677-1.944h5.875c-.03-1.296-.317-2.319-.864-3.039-.605-.806-1.512-1.21-2.707-1.21m.03.965c1.41 0 2.203.792 2.347 2.39h-4.651c.072-.734.302-1.31.705-1.742q.604-.648 1.599-.648m7.79-3.6.13 3.585h.936l.144-3.585zm-2.635 0 .144 3.585h.936l.129-3.585z"/><rect width="128.757" height="25.169" x="13.341" y="123.506" fill="url(#j)" fill-opacity=".5" rx="0"/><path fill="#FFF" d="m33.35 131.208.13 3.586h.935l.144-3.586zm-2.636 0 .144 3.586h.936l.13-3.586zm9.49-.201c-1.066 0-1.944.23-2.62.69-.764.49-1.138 1.196-1.138 2.089 0 .864.388 1.526 1.18 1.987.332.173 1.124.46 2.362.835 1.152.331 1.886.576 2.174.749.677.36 1.023.864 1.023 1.512q0 .821-.778 1.296c-.518.317-1.21.475-2.045.475-.921 0-1.612-.201-2.088-.576-.518-.417-.835-1.08-.936-1.973h-1.166c.086 1.268.533 2.204 1.34 2.823q1.035.777 2.85.777c1.224 0 2.19-.259 2.91-.763.72-.518 1.08-1.238 1.08-2.131 0-.936-.433-1.656-1.282-2.174q-.648-.389-2.679-.994c-.993-.288-1.627-.504-1.886-.648-.59-.317-.879-.734-.879-1.253 0-.59.245-1.022.735-1.31.432-.26 1.022-.375 1.785-.375.836 0 1.484.173 1.944.548.447.36.735.907.864 1.656h1.167c-.101-1.08-.49-1.901-1.181-2.448-.662-.533-1.584-.792-2.736-.792m8.568 2.836c-1.08 0-1.93.39-2.563 1.167-.634.734-.936 1.656-.936 2.75 0 1.21.317 2.16.979 2.88.634.691 1.498 1.051 2.563 1.051.965 0 1.757-.288 2.376-.835.504-.46.835-1.037 1.008-1.757h-1.152c-.187.519-.432.908-.749 1.167-.374.302-.878.46-1.483.46-.705 0-1.267-.23-1.67-.69-.403-.461-.62-1.11-.677-1.945h5.875c-.029-1.296-.317-2.318-.864-3.038-.605-.806-1.512-1.21-2.707-1.21m.029.965c1.41 0 2.203.792 2.347 2.39h-4.651c.072-.734.302-1.31.705-1.742q.605-.648 1.599-.648m8.107-.965c-1.109 0-1.987.39-2.62 1.181-.591.72-.88 1.642-.88 2.78s.289 2.059.88 2.764c.618.749 1.482 1.123 2.606 1.123.921 0 1.656-.244 2.217-.72.576-.49.936-1.224 1.109-2.174h-1.152c-.173 1.282-.907 1.93-2.174 1.93-.75 0-1.325-.274-1.714-.792-.403-.519-.59-1.239-.59-2.146q0-1.36.604-2.16c.418-.547.994-.82 1.714-.82.59 0 1.066.129 1.44.417q.54.432.691 1.296h1.138c-.13-.907-.475-1.584-1.051-2.03-.562-.433-1.296-.649-2.218-.649m4.666.202v4.608c0 2.016.892 3.038 2.707 3.038 1.008 0 1.814-.46 2.419-1.353v1.152h1.152v-7.445H66.7v4.536q-.13.95-.734 1.555c-.39.375-.836.576-1.325.576-.677 0-1.167-.187-1.47-.533-.301-.345-.445-.878-.445-1.584v-4.55zm11.332-.202a2.07 2.07 0 0 0-1.353.476c-.317.244-.576.59-.778 1.022v-1.296h-1.137v7.445h1.137v-3.946c0-.691.187-1.281.59-1.771.39-.518.879-.763 1.455-.763.36 0 .734.043 1.109.158v-1.152c-.274-.115-.62-.173-1.023-.173m2.938-2.606a.83.83 0 0 0-.62.245c-.172.144-.244.345-.244.605 0 .244.072.446.245.619a.88.88 0 0 0 .619.245.88.88 0 0 0 .62-.245.84.84 0 0 0 .258-.62q0-.388-.259-.604a.83.83 0 0 0-.62-.245m-.576 2.808v7.445h1.152v-7.445zm5.3-2.405-1.138.475v1.93h-1.498v.965h1.498v4.737c0 .562.115.98.36 1.268.259.316.705.475 1.31.475h1.123v-.965h-.95c-.26 0-.447-.072-.547-.187-.116-.115-.159-.317-.159-.59v-4.738h1.843v-.965h-1.843zm2.303 2.405 2.952 7.272-1.281 3.024h1.252l4.076-10.296h-1.268L86.4 139.92l-2.275-5.875zm13.709-2.808a.83.83 0 0 0-.62.245c-.172.144-.244.345-.244.605 0 .244.072.446.245.619a.88.88 0 0 0 .619.245.88.88 0 0 0 .62-.245.84.84 0 0 0 .258-.62q0-.388-.259-.604a.83.83 0 0 0-.62-.245m-.576 2.808v7.445h1.152v-7.445zm5.947-.202c-.835 0-1.526.188-2.045.562-.561.374-.835.864-.835 1.498 0 .633.274 1.108.85 1.454.345.23.965.446 1.843.662.806.202 1.34.36 1.584.476.46.23.706.547.706.964 0 .836-.677 1.268-2.002 1.268q-.95 0-1.426-.346c-.316-.26-.532-.677-.619-1.267h-1.123c.173 1.713 1.238 2.577 3.197 2.577 2.102 0 3.153-.777 3.153-2.304 0-.648-.302-1.152-.892-1.526-.39-.245-1.023-.475-1.916-.691-.748-.202-1.267-.36-1.54-.49-.432-.216-.634-.49-.634-.806q0-.496.475-.778c.288-.201.691-.288 1.21-.288.59 0 1.05.115 1.368.346.288.201.475.547.576 1.008h1.123c-.202-1.555-1.21-2.319-3.053-2.319m7.272 0c-.835 0-1.526.188-2.045.562-.561.374-.835.864-.835 1.498 0 .633.274 1.108.85 1.454.345.23.965.446 1.843.662.806.202 1.34.36 1.584.476.46.23.706.547.706.964 0 .836-.677 1.268-2.002 1.268q-.95 0-1.426-.346c-.316-.26-.532-.677-.619-1.267h-1.123c.173 1.713 1.238 2.577 3.197 2.577 2.102 0 3.153-.777 3.153-2.304 0-.648-.302-1.152-.892-1.526-.39-.245-1.023-.475-1.916-.691-.748-.202-1.267-.36-1.54-.49-.432-.216-.634-.49-.634-.806q0-.496.475-.778c.288-.201.691-.288 1.21-.288.59 0 1.05.115 1.368.346.288.201.475.547.576 1.008h1.123c-.202-1.555-1.21-2.319-3.053-2.319m4.637.202v4.608c0 2.016.893 3.038 2.707 3.038 1.008 0 1.815-.46 2.42-1.353v1.152h1.151v-7.445h-1.152v4.536q-.129.95-.734 1.555c-.389.375-.835.576-1.325.576-.677 0-1.166-.187-1.469-.533-.302-.345-.446-.878-.446-1.584v-4.55zm11.131-.202c-1.08 0-1.93.39-2.563 1.167-.634.734-.936 1.656-.936 2.75 0 1.21.317 2.16.98 2.88.633.691 1.497 1.051 2.562 1.051.965 0 1.757-.288 2.376-.835.504-.46.836-1.037 1.008-1.757h-1.152c-.187.519-.432.908-.748 1.167-.375.302-.879.46-1.484.46-.705 0-1.267-.23-1.67-.69-.403-.461-.62-1.11-.677-1.945h5.875c-.028-1.296-.316-2.318-.864-3.038-.604-.806-1.512-1.21-2.707-1.21m.029.965c1.411 0 2.203.792 2.347 2.39h-4.651c.072-.734.302-1.31.706-1.742q.605-.648 1.598-.648m7.79-3.6.13 3.586h.936l.144-3.586zm-2.635 0 .144 3.586h.936l.13-3.586z"/><circle cx="12.584" cy="136.09" r="12.584" fill="#478CD3"/><path fill="#FFF" d="m5.456 131.984 2.952 10.282h1.8l2.016-7.733h.058l2.002 7.733h1.785l2.967-10.282h-1.901l-1.93 7.82h-.057l-2.03-7.82h-1.743l-2.03 7.82h-.058l-1.93-7.82z"/></svg>