<svg xmlns="http://www.w3.org/2000/svg" width="574" height="230.063" fill="none"><defs><linearGradient id="b" x1=".023" x2=".618" y1="-.036" y2=".581"><stop offset="0%" stop-color="#5677A8"/><stop offset="74.878%"/></linearGradient><linearGradient id="c" x1=".023" x2=".859" y1=".612" y2=".612"><stop offset="0%" stop-color="#262627"/><stop offset="100%" stop-color="#262627" stop-opacity=".1"/></linearGradient><linearGradient id="d" x1=".013" x2=".67" y1=".413" y2=".413"><stop offset="0%" stop-color="#06F"/><stop offset="100%" stop-color="#06F" stop-opacity="0"/></linearGradient><linearGradient id="e" x1="46.347" x2="96.786" y1="38.264" y2="40" gradientUnits="userSpaceOnUse"><stop offset="0%" stop-color="#06F"/><stop offset="100%" stop-color="#06F" stop-opacity="0"/></linearGradient><filter id="a" width="1" height="1" x="0" y="0" color-interpolation-filters="sRGB" filterUnits="objectBoundingBox"><feFlood flood-opacity="0" result="BackgroundImageFix"/><feBlend in="SourceGraphic" in2="BackgroundImageFix" result="shape"/><feGaussianBlur in="BackgroundImageFix" stdDeviation="5"/><feComposite in2="SourceAlpha" operator="in" result="effect1_foregroundBlur"/><feBlend in="SourceGraphic" in2="effect1_foregroundBlur" result="shape"/></filter></defs><g filter="url(#a)"><path fill="url(#b)" fill-rule="evenodd" d="M0 223.454h574V10c0-5.523-4.477-10-10-10H10C4.477 0 0 4.477 0 10zm573-1H1V10q0-3.728 2.636-6.364T10 1h554q3.728 0 6.364 2.636T573 10z"/></g><path fill="#79B3EE" d="M51.89 74.303c-1.368 0-2.4.444-3.12 1.356-.648.804-.96 1.836-.96 3.108 0 1.296.3 2.328.924 3.096.708.888 1.764 1.344 3.168 1.344q1.386 0 2.376-.792c.708-.564 1.152-1.344 1.344-2.34H54.35q-.252 1.008-.9 1.512c-.408.312-.936.468-1.56.468q-1.44 0-2.124-.9c-.432-.564-.648-1.356-.648-2.388 0-.996.216-1.788.66-2.364.468-.636 1.164-.948 2.088-.948.624 0 1.128.132 1.536.408s.684.708.828 1.284h1.272c-.132-.864-.516-1.56-1.14-2.064-.648-.528-1.476-.78-2.472-.78m7.788 2.364c-.936 0-1.692.312-2.256.936-.564.612-.84 1.392-.84 2.34 0 .936.276 1.716.828 2.316.576.624 1.332.948 2.268.948s1.692-.324 2.268-.948c.552-.6.828-1.38.828-2.316 0-.948-.288-1.728-.84-2.34-.564-.624-1.32-.936-2.256-.936m0 1.044c.588 0 1.044.228 1.38.696.288.396.432.912.432 1.536 0 .612-.144 1.116-.432 1.524a1.63 1.63 0 0 1-1.38.696c-.588 0-1.044-.24-1.368-.696-.288-.396-.42-.9-.42-1.524s.132-1.14.42-1.536c.324-.468.78-.696 1.368-.696m8.772-3.408v3.456c-.504-.732-1.14-1.092-1.896-1.092-.888 0-1.596.324-2.1.972-.48.6-.708 1.356-.708 2.268 0 .948.24 1.728.72 2.328.516.648 1.236.972 2.148.972.84 0 1.488-.312 1.92-.912v.744h1.188v-8.736zM66.842 77.7c.468 0 .852.18 1.164.564.312.408.48.948.48 1.62v.108c0 .624-.132 1.128-.396 1.524-.312.432-.732.66-1.284.66-.624 0-1.092-.228-1.38-.672-.252-.384-.372-.912-.372-1.596s.132-1.212.396-1.572c.3-.432.768-.636 1.392-.636m6.948-1.032c-.912 0-1.644.312-2.172.948-.552.624-.816 1.392-.816 2.316 0 1.02.288 1.824.864 2.424.528.564 1.26.852 2.172.852.828 0 1.512-.24 2.052-.708.432-.384.708-.876.852-1.452H75.47c-.168.36-.348.636-.564.804-.276.204-.636.312-1.08.312-.504 0-.9-.168-1.188-.48-.288-.324-.444-.792-.492-1.392h4.704c-.012-1.104-.264-1.968-.744-2.592-.528-.696-1.308-1.032-2.316-1.032m.036 1.044q1.512 0 1.692 1.62H72.17c.072-.528.252-.924.516-1.2.288-.288.66-.42 1.14-.42m4.104-3.408v8.736h1.188v-.744c.432.6 1.068.912 1.92.912.912 0 1.62-.324 2.148-.972.48-.6.72-1.38.72-2.328 0-.912-.24-1.668-.708-2.268-.516-.648-1.212-.972-2.1-.972-.768 0-1.392.36-1.896 1.092v-3.456zm2.88 3.396c.624 0 1.092.204 1.392.636.264.36.396.888.396 1.572s-.132 1.212-.372 1.596c-.3.444-.756.672-1.38.672-.552 0-.984-.228-1.284-.66-.264-.396-.396-.9-.396-1.524v-.108c0-.672.156-1.212.492-1.62.288-.384.672-.564 1.152-.564m7.092-1.032c-.768 0-1.392.132-1.848.42-.528.312-.864.816-.996 1.488l1.26.108a1.1 1.1 0 0 1 .54-.768c.24-.144.564-.216.96-.216q1.404 0 1.404 1.296v.252l-1.392.036c-.912.024-1.632.204-2.136.564-.552.372-.828.912-.828 1.608 0 .516.192.936.588 1.26.36.324.864.492 1.512.492a3.35 3.35 0 0 0 1.44-.3c.36-.18.66-.432.9-.744v.876h1.176v-3.96c0-.756-.192-1.332-.564-1.728q-.648-.684-2.016-.684m1.32 3.504v.36c0 .48-.204.888-.588 1.212s-.84.492-1.38.492c-.324 0-.588-.084-.78-.24a.7.7 0 0 1-.3-.588c0-.768.576-1.176 1.74-1.2zm5.028-3.504c-.744 0-1.356.156-1.824.48-.468.312-.696.756-.696 1.32 0 .528.24.948.72 1.248.288.192.804.372 1.536.54.636.144 1.056.264 1.248.36.36.168.552.408.552.708 0 .552-.504.84-1.488.84-.48 0-.816-.084-1.032-.24-.216-.168-.372-.468-.444-.888h-1.248c.144 1.44 1.056 2.172 2.76 2.172 1.836 0 2.76-.66 2.76-1.968 0-.552-.252-.984-.744-1.296-.336-.216-.864-.42-1.572-.588-.624-.156-1.032-.276-1.248-.372-.336-.156-.504-.336-.504-.552a.59.59 0 0 1 .336-.552c.192-.12.48-.168.864-.168.432 0 .768.072.984.216.204.132.348.36.444.696h1.236c-.144-1.308-1.032-1.956-2.64-1.956m6.552 0c-.912 0-1.644.312-2.172.948-.552.624-.816 1.392-.816 2.316 0 1.02.288 1.824.864 2.424.528.564 1.26.852 2.172.852.828 0 1.512-.24 2.052-.708.432-.384.708-.876.852-1.452h-1.272c-.168.36-.348.636-.564.804-.276.204-.636.312-1.08.312-.504 0-.9-.168-1.188-.48-.288-.324-.444-.792-.492-1.392h4.704c-.012-1.104-.264-1.968-.744-2.592-.528-.696-1.308-1.032-2.316-1.032m.036 1.044q1.512 0 1.692 1.62h-3.348c.072-.528.252-.924.516-1.2.288-.288.66-.42 1.14-.42"/><path fill="#79B3EE" fill-rule="evenodd" d="m35.53 74.68 4.58 3.753q.14.113.318.113.049 0 .097-.01.049-.01.094-.028.046-.019.086-.046.041-.027.076-.062t.062-.076.047-.086.028-.094q.01-.049.01-.098 0-.112-.048-.214t-.135-.173h-.001l-4.89-4.007q-.067-.054-.147-.083t-.166-.03q-.085 0-.166.027-.08.027-.148.08l-5.102 4.007q-.09.071-.14.175-.05.103-.05.218 0 .05.009.098.01.048.028.094.019.045.046.086.028.04.063.076.034.035.075.062t.087.046.094.029q.048.01.097.01.173 0 .309-.108zM30.93 79.466q0-.05.01-.098t.029-.094q.019-.045.046-.086.028-.041.062-.076.035-.035.076-.062t.087-.046.093-.029.098-.01.097.01.094.029.087.046.075.062.063.076q.027.04.046.086t.028.094.01.098v3.5h1.46V80.31q0-.29.204-.495.205-.205.495-.205h2.58q.29 0 .495.205t.205.495v2.656h1.56v-3.5q0-.05.01-.098t.029-.094q.019-.045.046-.086.028-.041.062-.076.035-.035.076-.062t.087-.046.093-.029.098-.01.097.01.094.029.087.046.075.062.063.076q.027.04.046.086t.028.094.01.098v3.8q0 .29-.205.495t-.495.205H37.07q-.29 0-.495-.205t-.205-.495V80.61h-1.98v2.656q0 .29-.205.495t-.495.205h-2.06q-.289 0-.494-.205t-.205-.495z"/><circle cx="40.816" cy="170.789" r="1.2" stroke="#9BA2AD"/><circle cx="46.595" cy="176.248" r="1.2" stroke="#9BA2AD"/><path fill="#9BA2AD" fill-rule="evenodd" d="M40.316 178.248v-6.11h1v6.11z"/><path fill="#9BA2AD" fill-rule="evenodd" d="M40.316 178.248v-3.2h1v3.2zM45.02 175.756h.75v1h-.75q-1.061 0-2.011-.475t-1.587-1.324l-1.006-1.34.8-.6 1.005 1.34q.496.66 1.235 1.03.739.369 1.565.369"/><path fill="#FFF" fill-opacity=".7" d="M58.298 169.991c-.528 0-.936.144-1.212.444-.264.288-.396.684-.396 1.212v.708h-1.56v.804h1.56v5.4h.96v-5.4h1.752v-.804H57.65v-.684q0-.45.18-.648c.12-.144.324-.204.588-.204h1.068v-.828zm2.784.024a.69.69 0 0 0-.516.204c-.144.12-.204.288-.204.504 0 .204.06.372.204.516a.74.74 0 0 0 .516.204.74.74 0 0 0 .516-.204.7.7 0 0 0 .216-.516q0-.324-.216-.504a.69.69 0 0 0-.516-.204m-.48 2.34v6.204h.96v-6.204zm2.952-2.532v8.736h.948v-8.736zm5.184 2.364c-.9 0-1.608.324-2.136.972-.528.612-.78 1.38-.78 2.292 0 1.008.264 1.8.816 2.4.528.576 1.248.876 2.136.876.804 0 1.464-.24 1.98-.696.42-.384.696-.864.84-1.464h-.96c-.156.432-.36.756-.624.972-.312.252-.732.384-1.236.384-.588 0-1.056-.192-1.392-.576s-.516-.924-.564-1.62h4.896c-.024-1.08-.264-1.932-.72-2.532-.504-.672-1.26-1.008-2.256-1.008m.024.804c1.176 0 1.836.66 1.956 1.992h-3.876c.06-.612.252-1.092.588-1.452q.504-.54 1.332-.54m11.052-3.168c-.864 0-1.572.288-2.1.864-.528.564-.804 1.332-.804 2.292h.984c.012-.756.192-1.332.528-1.716.312-.408.768-.6 1.356-.6.552 0 .996.144 1.308.432s.468.684.468 1.212c0 .552-.228 1.068-.66 1.536-.228.24-.672.588-1.344 1.068-.912.624-1.524 1.14-1.86 1.524-.576.636-.852 1.344-.852 2.124h5.712v-.876h-4.5c.156-.576.78-1.236 1.872-1.968.888-.6 1.476-1.068 1.776-1.38.552-.6.84-1.272.84-2.016s-.264-1.356-.768-1.812c-.516-.456-1.164-.684-1.956-.684"/><circle cx="40.816" cy="99.269" r="1.2" stroke="#9BA2AD"/><circle cx="46.595" cy="104.727" r="1.2" stroke="#9BA2AD"/><path fill="#9BA2AD" fill-rule="evenodd" d="M40.316 106.727v-6.109h1v6.11z"/><path fill="#9BA2AD" fill-rule="evenodd" d="M40.316 106.727v-3.2h1v3.2zM45.02 104.235h.75v1h-.75q-1.061 0-2.011-.474-.95-.475-1.587-1.324l-1.006-1.34.8-.6 1.005 1.34q.496.66 1.235 1.03.739.368 1.565.368"/><path fill="#FFF" fill-opacity=".7" d="M55.298 98.471c-.528 0-.936.144-1.212.444-.264.288-.396.684-.396 1.212v.708h-1.56v.804h1.56v5.4h.96v-5.4h1.752v-.804H54.65v-.684q0-.45.18-.648c.12-.144.324-.204.588-.204h1.068v-.828zm2.784.024a.69.69 0 0 0-.516.204c-.144.12-.204.288-.204.504 0 .204.06.372.204.516a.74.74 0 0 0 .516.204.74.74 0 0 0 .516-.204.7.7 0 0 0 .216-.516q0-.324-.216-.504a.69.69 0 0 0-.516-.204m-.48 2.34v6.204h.96v-6.204zm2.952-2.532v8.736h.948v-8.736zm5.184 2.364c-.9 0-1.608.324-2.136.972-.528.612-.78 1.38-.78 2.292 0 1.008.264 1.8.816 2.4.528.576 1.248.876 2.136.876.804 0 1.464-.24 1.98-.696.42-.384.696-.864.84-1.464h-.96c-.156.432-.36.756-.624.972-.312.252-.732.384-1.236.384-.588 0-1.056-.192-1.392-.576s-.516-.924-.564-1.62h4.896c-.024-1.08-.264-1.932-.72-2.532-.504-.672-1.26-1.008-2.256-1.008m.024.804c1.176 0 1.836.66 1.956 1.992h-3.876c.06-.612.252-1.092.588-1.452q.504-.54 1.332-.54m10.092-3a5 5 0 0 1-1.032.876 5 5 0 0 1-1.2.516v.984c.804-.24 1.476-.624 2.016-1.176v7.368h.984v-8.568z"/><path fill="#FFF" d="M76.398 119.303v3.672c-.48-.876-1.164-1.308-2.052-1.308s-1.572.324-2.076.996c-.468.6-.696 1.344-.696 2.256 0 .936.228 1.704.696 2.304.504.648 1.212.984 2.124.984.936 0 1.632-.396 2.064-1.188v1.02h.9v-8.736zm-1.848 3.156c.552 0 1.008.216 1.356.672.336.444.516 1.032.516 1.752v.12c0 .696-.156 1.26-.456 1.692-.348.48-.828.72-1.452.72-.672 0-1.176-.252-1.512-.732-.3-.432-.444-1.02-.444-1.764s.144-1.32.456-1.74c.336-.48.852-.72 1.536-.72m6.996-.792c-.744 0-1.332.144-1.788.432-.504.312-.828.804-.96 1.452l.948.072c.096-.396.3-.696.624-.888.288-.192.66-.276 1.116-.276 1.08 0 1.62.516 1.62 1.56v.324l-1.488.024c-.936.012-1.656.192-2.16.528-.576.36-.852.888-.852 1.596 0 .504.192.924.576 1.248.372.312.864.468 1.488.468a3.15 3.15 0 0 0 1.548-.384c.384-.216.708-.492.948-.828v1.044h.9v-3.984c0-.72-.192-1.284-.552-1.692-.432-.468-1.08-.696-1.968-.696m1.56 3.396v.528c0 .48-.228.912-.672 1.284a2.35 2.35 0 0 1-1.56.576c-.384 0-.696-.096-.936-.276a.85.85 0 0 1-.348-.708c0-.9.696-1.356 2.088-1.38zm4.104-5.232-.948.396v1.608h-1.248v.804h1.248v3.948c0 .468.096.816.3 1.056.216.264.588.396 1.092.396h.936v-.804h-.792c-.216 0-.372-.06-.456-.156-.096-.096-.132-.264-.132-.492v-3.948h1.536v-.804H87.21zm5.304 1.836c-.744 0-1.332.144-1.788.432-.504.312-.828.804-.96 1.452l.948.072c.096-.396.3-.696.624-.888.288-.192.66-.276 1.116-.276 1.08 0 1.62.516 1.62 1.56v.324l-1.488.024c-.936.012-1.656.192-2.16.528-.576.36-.852.888-.852 1.596 0 .504.192.924.576 1.248.372.312.864.468 1.488.468a3.15 3.15 0 0 0 1.548-.384c.384-.216.708-.492.948-.828v1.044h.9v-3.984c0-.72-.192-1.284-.552-1.692-.432-.468-1.08-.696-1.968-.696m1.56 3.396v.528c0 .48-.228.912-.672 1.284a2.35 2.35 0 0 1-1.56.576c-.384 0-.696-.096-.936-.276a.85.85 0 0 1-.348-.708c0-.9.696-1.356 2.088-1.38zm2.448-5.76v8.736h.9v-1.02c.42.792 1.104 1.188 2.064 1.188.9 0 1.608-.336 2.124-.984.456-.6.696-1.368.696-2.304 0-.912-.24-1.656-.696-2.256-.504-.672-1.2-.996-2.076-.996-.888 0-1.572.432-2.052 1.308v-3.672zm2.808 3.156c.672 0 1.176.24 1.524.72.312.42.468.996.468 1.74s-.156 1.332-.444 1.764c-.336.48-.84.732-1.512.732-.624 0-1.116-.24-1.452-.72q-.468-.648-.468-1.692v-.12c0-.72.168-1.308.528-1.752.336-.456.792-.672 1.356-.672m6.924-.792c-.744 0-1.332.144-1.788.432-.504.312-.828.804-.96 1.452l.948.072c.096-.396.3-.696.624-.888.288-.192.66-.276 1.116-.276 1.08 0 1.62.516 1.62 1.56v.324l-1.488.024c-.936.012-1.656.192-2.16.528-.576.36-.852.888-.852 1.596 0 .504.192.924.576 1.248.372.312.864.468 1.488.468a3.15 3.15 0 0 0 1.548-.384c.384-.216.708-.492.948-.828v1.044h.9v-3.984c0-.72-.192-1.284-.552-1.692-.432-.468-1.08-.696-1.968-.696m1.56 3.396v.528c0 .48-.228.912-.672 1.284a2.35 2.35 0 0 1-1.56.576c-.384 0-.696-.096-.936-.276a.85.85 0 0 1-.348-.708c0-.9.696-1.356 2.088-1.38zm4.644-3.396c-.696 0-1.272.156-1.704.468-.468.312-.696.72-.696 1.248s.228.924.708 1.212c.288.192.804.372 1.536.552.672.168 1.116.3 1.32.396.384.192.588.456.588.804 0 .696-.564 1.056-1.668 1.056q-.792 0-1.188-.288c-.264-.216-.444-.564-.516-1.056h-.936c.144 1.428 1.032 2.148 2.664 2.148 1.752 0 2.628-.648 2.628-1.92 0-.54-.252-.96-.744-1.272-.324-.204-.852-.396-1.596-.576-.624-.168-1.056-.3-1.284-.408-.36-.18-.528-.408-.528-.672q0-.414.396-.648c.24-.168.576-.24 1.008-.24.492 0 .876.096 1.14.288.24.168.396.456.48.84h.936c-.168-1.296-1.008-1.932-2.544-1.932m6.42 0c-.9 0-1.608.324-2.136.972-.528.612-.78 1.38-.78 2.292 0 1.008.264 1.8.816 2.4.528.576 1.248.876 2.136.876.804 0 1.464-.24 1.98-.696.42-.384.696-.864.84-1.464h-.96c-.156.432-.36.756-.624.972-.312.252-.732.384-1.236.384-.588 0-1.056-.192-1.392-.576s-.516-.924-.564-1.62h4.896c-.024-1.08-.264-1.932-.72-2.532-.504-.672-1.26-1.008-2.256-1.008m.024.804c1.176 0 1.836.66 1.956 1.992h-3.876c.06-.612.252-1.092.588-1.452q.504-.54 1.332-.54m4.92 4.14a.66.66 0 0 0-.516.216.7.7 0 0 0-.216.528c0 .204.072.372.216.516.132.144.3.216.516.216a.72.72 0 0 0 .516-.216.7.7 0 0 0 .216-.516.7.7 0 0 0-.216-.528.72.72 0 0 0-.516-.216m4.884-4.944c-.864 0-1.548.3-2.052.912-.504.576-.744 1.308-.744 2.22 0 .9.24 1.632.744 2.208.504.588 1.188.888 2.052.888.936 0 1.632-.42 2.088-1.248v1.092c0 1.368-.624 2.064-1.872 2.064-.564 0-.984-.108-1.26-.312-.276-.192-.456-.504-.528-.924h-.96q.162 1.008.828 1.512c.432.336 1.08.504 1.92.504 1.884 0 2.832-.996 2.832-2.976v-5.772h-.96v1.068c-.456-.828-1.152-1.236-2.088-1.236m.144.792c.612 0 1.092.216 1.452.672.336.408.504.972.504 1.668 0 .672-.168 1.224-.504 1.644-.36.432-.84.648-1.464.648-.672 0-1.164-.24-1.5-.696-.3-.408-.444-.948-.444-1.596 0-.696.168-1.26.504-1.668.348-.456.828-.672 1.452-.672m7.164-.792c-.936 0-1.668.312-2.22.96-.528.612-.792 1.38-.792 2.316 0 .924.264 1.692.792 2.292.552.648 1.284.972 2.22.972q1.386 0 2.232-.972c.516-.6.78-1.368.78-2.292 0-.936-.264-1.704-.792-2.316-.552-.648-1.296-.96-2.22-.96m0 .804q.972 0 1.548.756c.324.456.492 1.02.492 1.716 0 .672-.168 1.248-.492 1.704q-.576.756-1.548.756c-.66 0-1.176-.252-1.536-.756-.336-.456-.492-1.02-.492-1.704 0-.696.156-1.26.492-1.716.36-.504.876-.756 1.536-.756M74.49 143.667c-.924 0-1.656.324-2.184.984-.492.6-.732 1.368-.732 2.316s.24 1.716.732 2.304c.516.624 1.236.936 2.172.936.768 0 1.38-.204 1.848-.6.48-.408.78-1.02.924-1.812h-.96c-.144 1.068-.756 1.608-1.812 1.608-.624 0-1.104-.228-1.428-.66-.336-.432-.492-1.032-.492-1.788q0-1.134.504-1.8c.348-.456.828-.684 1.428-.684.492 0 .888.108 1.2.348q.45.36.576 1.08h.948c-.108-.756-.396-1.32-.876-1.692-.468-.36-1.08-.54-1.848-.54m6.66 0c-.936 0-1.668.312-2.22.96-.528.612-.792 1.38-.792 2.316 0 .924.264 1.692.792 2.292.552.648 1.284.972 2.22.972q1.386 0 2.232-.972c.516-.6.78-1.368.78-2.292 0-.936-.264-1.704-.792-2.316-.552-.648-1.296-.96-2.22-.96m0 .804q.972 0 1.548.756c.324.456.492 1.02.492 1.716 0 .672-.168 1.248-.492 1.704q-.576.756-1.548.756c-.66 0-1.176-.252-1.536-.756-.336-.456-.492-1.02-.492-1.704 0-.696.156-1.26.492-1.716.36-.504.876-.756 1.536-.756m7.164-.804q-.612 0-1.116.288-.504.27-.828.792v-.912h-.96v6.204h.96v-3.744c.036-.564.216-1.008.552-1.344a1.52 1.52 0 0 1 1.116-.468c1.08 0 1.632.6 1.632 1.812v3.744h.96v-3.816c0-1.704-.78-2.556-2.316-2.556m6.288-2.196c-.528 0-.936.144-1.212.444-.264.288-.396.684-.396 1.212v.708h-1.56v.804h1.56v5.4h.96v-5.4h1.752v-.804h-1.752v-.684q0-.45.18-.648c.12-.144.324-.204.588-.204h1.068v-.828zm2.784.024a.69.69 0 0 0-.516.204c-.144.12-.204.288-.204.504 0 .204.06.372.204.516a.74.74 0 0 0 .516.204.74.74 0 0 0 .516-.204.7.7 0 0 0 .216-.516q0-.324-.216-.504a.69.69 0 0 0-.516-.204m-.48 2.34v6.204h.96v-6.204zm5.316-.168c-.864 0-1.548.3-2.052.912-.504.576-.744 1.308-.744 2.22 0 .9.24 1.632.744 2.208.504.588 1.188.888 2.052.888.936 0 1.632-.42 2.088-1.248v1.092c0 1.368-.624 2.064-1.872 2.064-.564 0-.984-.108-1.26-.312-.276-.192-.456-.504-.528-.924h-.96q.162 1.008.828 1.512c.432.336 1.08.504 1.92.504 1.884 0 2.832-.996 2.832-2.976v-5.772h-.96v1.068c-.456-.828-1.152-1.236-2.088-1.236m.144.792c.612 0 1.092.216 1.452.672.336.408.504.972.504 1.668 0 .672-.168 1.224-.504 1.644-.36.432-.84.648-1.464.648-.672 0-1.164-.24-1.5-.696-.3-.408-.444-.948-.444-1.596 0-.696.168-1.26.504-1.668.348-.456.828-.672 1.452-.672m5.232 4.152a.66.66 0 0 0-.516.216.7.7 0 0 0-.216.528c0 .204.072.372.216.516.132.144.3.216.516.216a.72.72 0 0 0 .516-.216.7.7 0 0 0 .216-.516.7.7 0 0 0-.216-.528.72.72 0 0 0-.516-.216m5.292-4.944c-.936 0-1.62.396-2.064 1.188v-1.02h-.9v8.58h.96v-3.504q.72 1.296 2.052 1.296c.888 0 1.572-.336 2.076-.984.456-.6.696-1.356.696-2.268 0-.936-.24-1.692-.708-2.292-.516-.672-1.224-.996-2.112-.996m-.12.792c.66 0 1.164.24 1.512.744.288.432.444 1.02.444 1.752q0 1.116-.468 1.764c-.348.456-.852.696-1.524.696-.576 0-1.02-.228-1.356-.66-.36-.444-.528-1.02-.528-1.74v-.12c0-.696.156-1.272.468-1.704.336-.492.828-.732 1.452-.732m3.504-.624 2.46 6.06-1.068 2.52h1.044l3.396-8.58h-1.056l-1.836 4.896-1.896-4.896zM71.13 192.876l2.112 6.204h.9l1.464-4.992 1.44 4.992h.912l2.112-6.204h-1.056l-1.524 5.028-1.44-5.028h-.9l-1.44 5.028-1.524-5.028zm12.468-.168c-.432 0-.804.132-1.128.396-.264.204-.48.492-.648.852v-1.08h-.948v6.204h.948v-3.288c0-.576.156-1.068.492-1.476.324-.432.732-.636 1.212-.636.3 0 .612.036.924.132v-.96c-.228-.096-.516-.144-.852-.144m2.448-2.172a.69.69 0 0 0-.516.204c-.144.12-.204.288-.204.504 0 .204.06.372.204.516a.74.74 0 0 0 .516.204.74.74 0 0 0 .516-.204.7.7 0 0 0 .216-.516q0-.324-.216-.504a.69.69 0 0 0-.516-.204m-.48 2.34v6.204h.96v-6.204zm4.416-2.004-.948.396v1.608h-1.248v.804h1.248v3.948c0 .468.096.816.3 1.056.216.264.588.396 1.092.396h.936v-.804h-.792c-.216 0-.372-.06-.456-.156-.096-.096-.132-.264-.132-.492v-3.948h1.536v-.804h-1.536zm5.16 1.836c-.9 0-1.608.324-2.136.972-.528.612-.78 1.38-.78 2.292 0 1.008.264 1.8.816 2.4.528.576 1.248.876 2.136.876.804 0 1.464-.24 1.98-.696.42-.384.696-.864.84-1.464h-.96c-.156.432-.36.756-.624.972-.312.252-.732.384-1.236.384-.588 0-1.056-.192-1.392-.576s-.516-.924-.564-1.62h4.896c-.024-1.08-.264-1.932-.72-2.532-.504-.672-1.26-1.008-2.256-1.008m.024.804c1.176 0 1.836.66 1.956 1.992h-3.876c.06-.612.252-1.092.588-1.452q.504-.54 1.332-.54m6.804-.804c-.432 0-.804.132-1.128.396-.264.204-.48.492-.648.852v-1.08h-.948v6.204h.948v-3.288c0-.576.156-1.068.492-1.476.324-.432.732-.636 1.212-.636.3 0 .612.036.924.132v-.96c-.228-.096-.516-.144-.852-.144m2.496 4.944a.66.66 0 0 0-.516.216.7.7 0 0 0-.216.528c0 .204.072.372.216.516.132.144.3.216.516.216a.72.72 0 0 0 .516-.216.7.7 0 0 0 .216-.516.7.7 0 0 0-.216-.528.72.72 0 0 0-.516-.216m4.884-4.944c-.864 0-1.548.3-2.052.912-.504.576-.744 1.308-.744 2.22 0 .9.24 1.632.744 2.208.504.588 1.188.888 2.052.888.936 0 1.632-.42 2.088-1.248v1.092c0 1.368-.624 2.064-1.872 2.064-.564 0-.984-.108-1.26-.312-.276-.192-.456-.504-.528-.924h-.96q.162 1.008.828 1.512c.432.336 1.08.504 1.92.504 1.884 0 2.832-.996 2.832-2.976v-5.772h-.96v1.068c-.456-.828-1.152-1.236-2.088-1.236m.144.792c.612 0 1.092.216 1.452.672.336.408.504.972.504 1.668 0 .672-.168 1.224-.504 1.644-.36.432-.84.648-1.464.648-.672 0-1.164-.24-1.5-.696-.3-.408-.444-.948-.444-1.596 0-.696.168-1.26.504-1.668.348-.456.828-.672 1.452-.672m7.164-.792c-.936 0-1.668.312-2.22.96-.528.612-.792 1.38-.792 2.316 0 .924.264 1.692.792 2.292.552.648 1.284.972 2.22.972q1.386 0 2.232-.972c.516-.6.78-1.368.78-2.292 0-.936-.264-1.704-.792-2.316-.552-.648-1.296-.96-2.22-.96m0 .804q.972 0 1.548.756c.324.456.492 1.02.492 1.716 0 .672-.168 1.248-.492 1.704q-.576.756-1.548.756c-.66 0-1.176-.252-1.536-.756-.336-.456-.492-1.02-.492-1.704 0-.696.156-1.26.492-1.716.36-.504.876-.756 1.536-.756"/><path fill="#FFF" fill-opacity=".5" d="M130.848 192.708c-.924 0-1.656.324-2.184.984-.492.6-.732 1.368-.732 2.316s.24 1.716.732 2.304c.516.624 1.236.936 2.172.936.768 0 1.38-.204 1.848-.6.48-.408.78-1.02.924-1.812h-.96c-.144 1.068-.756 1.608-1.812 1.608-.624 0-1.104-.228-1.428-.66-.336-.432-.492-1.032-.492-1.788q0-1.134.504-1.8c.348-.456.828-.684 1.428-.684.492 0 .888.108 1.2.348q.45.36.576 1.08h.948c-.108-.756-.396-1.32-.876-1.692-.468-.36-1.08-.54-1.848-.54m6.6 0c-.696 0-1.284.324-1.752.996v-.828h-.96v6.204h.96v-3.78c0-.492.144-.912.432-1.248.288-.36.648-.528 1.092-.528.948 0 1.428.54 1.428 1.644v3.912h.96v-3.888c0-.504.132-.9.42-1.212.264-.312.612-.456 1.02-.456.528 0 .912.132 1.152.42.228.264.348.672.348 1.224v3.912h.96v-4.068c0-.708-.204-1.272-.588-1.692-.408-.408-.924-.612-1.572-.612-.432 0-.792.096-1.092.288-.336.18-.624.48-.864.888-.348-.792-.996-1.176-1.944-1.176m12.132-2.364v3.672c-.48-.876-1.164-1.308-2.052-1.308s-1.572.324-2.076.996c-.468.6-.696 1.344-.696 2.256 0 .936.228 1.704.696 2.304.504.648 1.212.984 2.124.984.936 0 1.632-.396 2.064-1.188v1.02h.9v-8.736zm-1.848 3.156c.552 0 1.008.216 1.356.672.336.444.516 1.032.516 1.752v.12c0 .696-.156 1.26-.456 1.692-.348.48-.828.72-1.452.72-.672 0-1.176-.252-1.512-.732-.3-.432-.444-1.02-.444-1.764s.144-1.32.456-1.74c.336-.48.852-.72 1.536-.72m8.256-4.26-4.26 11.04h.864l4.248-11.04zm4.716 3.468c-.924 0-1.656.324-2.184.984-.492.6-.732 1.368-.732 2.316s.24 1.716.732 2.304c.516.624 1.236.936 2.172.936.768 0 1.38-.204 1.848-.6.48-.408.78-1.02.924-1.812h-.96c-.144 1.068-.756 1.608-1.812 1.608-.624 0-1.104-.228-1.428-.66-.336-.432-.492-1.032-.492-1.788q0-1.134.504-1.8c.348-.456.828-.684 1.428-.684.492 0 .888.108 1.2.348q.45.36.576 1.08h.948c-.108-.756-.396-1.32-.876-1.692-.468-.36-1.08-.54-1.848-.54m6.66 0c-.936 0-1.668.312-2.22.96-.528.612-.792 1.38-.792 2.316 0 .924.264 1.692.792 2.292.552.648 1.284.972 2.22.972q1.386 0 2.232-.972c.516-.6.78-1.368.78-2.292 0-.936-.264-1.704-.792-2.316-.552-.648-1.296-.96-2.22-.96m0 .804q.972 0 1.548.756c.324.456.492 1.02.492 1.716 0 .672-.168 1.248-.492 1.704q-.576.756-1.548.756c-.66 0-1.176-.252-1.536-.756-.336-.456-.492-1.02-.492-1.704 0-.696.156-1.26.492-1.716.36-.504.876-.756 1.536-.756m8.844-3.168v3.672c-.48-.876-1.164-1.308-2.052-1.308s-1.572.324-2.076.996c-.468.6-.696 1.344-.696 2.256 0 .936.228 1.704.696 2.304.504.648 1.212.984 2.124.984.936 0 1.632-.396 2.064-1.188v1.02h.9v-8.736zm-1.848 3.156c.552 0 1.008.216 1.356.672.336.444.516 1.032.516 1.752v.12c0 .696-.156 1.26-.456 1.692-.348.48-.828.72-1.452.72-.672 0-1.176-.252-1.512-.732-.3-.432-.444-1.02-.444-1.764s.144-1.32.456-1.74c.336-.48.852-.72 1.536-.72m6.852-.792c-.9 0-1.608.324-2.136.972-.528.612-.78 1.38-.78 2.292 0 1.008.264 1.8.816 2.4.528.576 1.248.876 2.136.876.804 0 1.464-.24 1.98-.696.42-.384.696-.864.84-1.464h-.96c-.156.432-.36.756-.624.972-.312.252-.732.384-1.236.384-.588 0-1.056-.192-1.392-.576s-.516-.924-.564-1.62h4.896c-.024-1.08-.264-1.932-.72-2.532-.504-.672-1.26-1.008-2.256-1.008m.024.804c1.176 0 1.836.66 1.956 1.992h-3.876c.06-.612.252-1.092.588-1.452q.504-.54 1.332-.54m6.636-.804c-.864 0-1.548.3-2.052.912-.504.576-.744 1.308-.744 2.22 0 .9.24 1.632.744 2.208.504.588 1.188.888 2.052.888.936 0 1.632-.42 2.088-1.248v1.092c0 1.368-.624 2.064-1.872 2.064-.564 0-.984-.108-1.26-.312-.276-.192-.456-.504-.528-.924h-.96q.162 1.008.828 1.512c.432.336 1.08.504 1.92.504 1.884 0 2.832-.996 2.832-2.976v-5.772h-.96v1.068c-.456-.828-1.152-1.236-2.088-1.236m.144.792c.612 0 1.092.216 1.452.672.336.408.504.972.504 1.668 0 .672-.168 1.224-.504 1.644-.36.432-.84.648-1.464.648-.672 0-1.164-.24-1.5-.696-.3-.408-.444-.948-.444-1.596 0-.696.168-1.26.504-1.668.348-.456.828-.672 1.452-.672m7.116-.792c-.432 0-.804.132-1.128.396-.264.204-.48.492-.648.852v-1.08h-.948v6.204h.948v-3.288c0-.576.156-1.068.492-1.476.324-.432.732-.636 1.212-.636.3 0 .612.036.924.132v-.96c-.228-.096-.516-.144-.852-.144m4.356 0c-.744 0-1.332.144-1.788.432-.504.312-.828.804-.96 1.452l.948.072c.096-.396.3-.696.624-.888.288-.192.66-.276 1.116-.276 1.08 0 1.62.516 1.62 1.56v.324l-1.488.024c-.936.012-1.656.192-2.16.528-.576.36-.852.888-.852 1.596 0 .504.192.924.576 1.248.372.312.864.468 1.488.468a3.15 3.15 0 0 0 1.548-.384c.384-.216.708-.492.948-.828v1.044h.9v-3.984c0-.72-.192-1.284-.552-1.692-.432-.468-1.08-.696-1.968-.696m1.56 3.396v.528c0 .48-.228.912-.672 1.284a2.35 2.35 0 0 1-1.56.576c-.384 0-.696-.096-.936-.276a.85.85 0 0 1-.348-.708c0-.9.696-1.356 2.088-1.38zm5.412-3.396c-.936 0-1.62.396-2.064 1.188v-1.02h-.9v8.58h.96v-3.504q.72 1.296 2.052 1.296c.888 0 1.572-.336 2.076-.984.456-.6.696-1.356.696-2.268 0-.936-.24-1.692-.708-2.292-.516-.672-1.224-.996-2.112-.996m-.12.792c.66 0 1.164.24 1.512.744.288.432.444 1.02.444 1.752q0 1.116-.468 1.764c-.348.456-.852.696-1.524.696-.576 0-1.02-.228-1.356-.66-.36-.444-.528-1.02-.528-1.74v-.12c0-.696.156-1.272.468-1.704.336-.492.828-.732 1.452-.732m4.188-3.156v8.736h.96v-3.54c0-.576.156-1.068.48-1.452q.468-.576 1.188-.576c.516 0 .912.156 1.2.468.264.312.408.756.408 1.332v3.768h.96v-3.912c0-.792-.192-1.404-.576-1.824-.384-.432-.948-.636-1.668-.636-.42 0-.792.096-1.128.288q-.54.306-.864.9v-3.552zm10.632-1.104-4.26 11.04h.864l4.248-11.04zm5.004 3.468c-.936 0-1.62.396-2.064 1.188v-1.02h-.9v8.58h.96v-3.504q.72 1.296 2.052 1.296c.888 0 1.572-.336 2.076-.984.456-.6.696-1.356.696-2.268 0-.936-.24-1.692-.708-2.292-.516-.672-1.224-.996-2.112-.996m-.12.792c.66 0 1.164.24 1.512.744.288.432.444 1.02.444 1.752q0 1.116-.468 1.764c-.348.456-.852.696-1.524.696-.576 0-1.02-.228-1.356-.66-.36-.444-.528-1.02-.528-1.74v-.12c0-.696.156-1.272.468-1.704.336-.492.828-.732 1.452-.732m6.912-.792c-.432 0-.804.132-1.128.396-.264.204-.48.492-.648.852v-1.08h-.948v6.204h.948v-3.288c0-.576.156-1.068.492-1.476.324-.432.732-.636 1.212-.636.3 0 .612.036.924.132v-.96c-.228-.096-.516-.144-.852-.144m4.428 0c-.936 0-1.668.312-2.22.96-.528.612-.792 1.38-.792 2.316 0 .924.264 1.692.792 2.292.552.648 1.284.972 2.22.972q1.386 0 2.232-.972c.516-.6.78-1.368.78-2.292 0-.936-.264-1.704-.792-2.316-.552-.648-1.296-.96-2.22-.96m0 .804q.972 0 1.548.756c.324.456.492 1.02.492 1.716 0 .672-.168 1.248-.492 1.704q-.576.756-1.548.756c-.66 0-1.176-.252-1.536-.756-.336-.456-.492-1.02-.492-1.704 0-.696.156-1.26.492-1.716.36-.504.876-.756 1.536-.756m6.936-.804c-.924 0-1.656.324-2.184.984-.492.6-.732 1.368-.732 2.316s.24 1.716.732 2.304c.516.624 1.236.936 2.172.936.768 0 1.38-.204 1.848-.6.48-.408.78-1.02.924-1.812h-.96c-.144 1.068-.756 1.608-1.812 1.608-.624 0-1.104-.228-1.428-.66-.336-.432-.492-1.032-.492-1.788q0-1.134.504-1.8c.348-.456.828-.684 1.428-.684.492 0 .888.108 1.2.348q.45.36.576 1.08h.948c-.108-.756-.396-1.32-.876-1.692-.468-.36-1.08-.54-1.848-.54m6.66 0c-.936 0-1.668.312-2.22.96-.528.612-.792 1.38-.792 2.316 0 .924.264 1.692.792 2.292.552.648 1.284.972 2.22.972q1.386 0 2.232-.972c.516-.6.78-1.368.78-2.292 0-.936-.264-1.704-.792-2.316-.552-.648-1.296-.96-2.22-.96m0 .804q.972 0 1.548.756c.324.456.492 1.02.492 1.716 0 .672-.168 1.248-.492 1.704q-.576.756-1.548.756c-.66 0-1.176-.252-1.536-.756-.336-.456-.492-1.02-.492-1.704 0-.696.156-1.26.492-1.716.36-.504.876-.756 1.536-.756m5.916-2.64-.948.396v1.608H254.7v.804h1.248v3.948c0 .468.096.816.3 1.056.216.264.588.396 1.092.396h.936v-.804h-.792c-.216 0-.372-.06-.456-.156-.096-.096-.132-.264-.132-.492v-3.948h1.536v-.804h-1.536zm5.376 1.836c-.936 0-1.668.312-2.22.96-.528.612-.792 1.38-.792 2.316 0 .924.264 1.692.792 2.292.552.648 1.284.972 2.22.972q1.386 0 2.232-.972c.516-.6.78-1.368.78-2.292 0-.936-.264-1.704-.792-2.316-.552-.648-1.296-.96-2.22-.96m0 .804q.972 0 1.548.756c.324.456.492 1.02.492 1.716 0 .672-.168 1.248-.492 1.704q-.576.756-1.548.756c-.66 0-1.176-.252-1.536-.756-.336-.456-.492-1.02-.492-1.704 0-.696.156-1.26.492-1.716.36-.504.876-.756 1.536-.756m4.452-3.168v8.736h.948v-8.736zm6.588-1.104-4.26 11.04h.864l4.248-11.04zm1.356 3.636 2.112 6.204h.9l1.464-4.992 1.44 4.992h.912l2.112-6.204h-1.056l-1.524 5.028-1.44-5.028h-.9l-1.44 5.028-1.524-5.028zm12.468-.168c-.432 0-.804.132-1.128.396-.264.204-.48.492-.648.852v-1.08h-.948v6.204h.948v-3.288c0-.576.156-1.068.492-1.476.324-.432.732-.636 1.212-.636.3 0 .612.036.924.132v-.96c-.228-.096-.516-.144-.852-.144m2.448-2.172a.69.69 0 0 0-.516.204c-.144.12-.204.288-.204.504 0 .204.06.372.204.516a.74.74 0 0 0 .516.204.74.74 0 0 0 .516-.204.7.7 0 0 0 .216-.516q0-.324-.216-.504a.69.69 0 0 0-.516-.204m-.48 2.34v6.204h.96v-6.204zm4.416-2.004-.948.396v1.608h-1.248v.804h1.248v3.948c0 .468.096.816.3 1.056.216.264.588.396 1.092.396h.936v-.804h-.792c-.216 0-.372-.06-.456-.156-.096-.096-.132-.264-.132-.492v-3.948h1.536v-.804h-1.536zm5.16 1.836c-.9 0-1.608.324-2.136.972-.528.612-.78 1.38-.78 2.292 0 1.008.264 1.8.816 2.4.528.576 1.248.876 2.136.876.804 0 1.464-.24 1.98-.696.42-.384.696-.864.84-1.464h-.96c-.156.432-.36.756-.624.972-.312.252-.732.384-1.236.384-.588 0-1.056-.192-1.392-.576s-.516-.924-.564-1.62h4.896c-.024-1.08-.264-1.932-.72-2.532-.504-.672-1.26-1.008-2.256-1.008m.024.804c1.176 0 1.836.66 1.956 1.992h-3.876c.06-.612.252-1.092.588-1.452q.504-.54 1.332-.54m6.804-.804c-.432 0-.804.132-1.128.396-.264.204-.48.492-.648.852v-1.08h-.948v6.204h.948v-3.288c0-.576.156-1.068.492-1.476.324-.432.732-.636 1.212-.636.3 0 .612.036.924.132v-.96c-.228-.096-.516-.144-.852-.144M134.848 143.667c-.924 0-1.656.324-2.184.984-.492.6-.732 1.368-.732 2.316s.24 1.716.732 2.304c.516.624 1.236.936 2.172.936.768 0 1.38-.204 1.848-.6.48-.408.78-1.02.924-1.812h-.96c-.144 1.068-.756 1.608-1.812 1.608-.624 0-1.104-.228-1.428-.66-.336-.432-.492-1.032-.492-1.788q0-1.134.504-1.8c.348-.456.828-.684 1.428-.684.492 0 .888.108 1.2.348q.45.36.576 1.08h.948c-.108-.756-.396-1.32-.876-1.692-.468-.36-1.08-.54-1.848-.54m6.6 0c-.696 0-1.284.324-1.752.996v-.828h-.96v6.204h.96v-3.78c0-.492.144-.912.432-1.248.288-.36.648-.528 1.092-.528.948 0 1.428.54 1.428 1.644v3.912h.96v-3.888c0-.504.132-.9.42-1.212.264-.312.612-.456 1.02-.456.528 0 .912.132 1.152.42.228.264.348.672.348 1.224v3.912h.96v-4.068c0-.708-.204-1.272-.588-1.692-.408-.408-.924-.612-1.572-.612-.432 0-.792.096-1.092.288-.336.18-.624.48-.864.888-.348-.792-.996-1.176-1.944-1.176m12.132-2.364v3.672c-.48-.876-1.164-1.308-2.052-1.308s-1.572.324-2.076.996c-.468.6-.696 1.344-.696 2.256 0 .936.228 1.704.696 2.304.504.648 1.212.984 2.124.984.936 0 1.632-.396 2.064-1.188v1.02h.9v-8.736zm-1.848 3.156c.552 0 1.008.216 1.356.672.336.444.516 1.032.516 1.752v.12c0 .696-.156 1.26-.456 1.692-.348.48-.828.72-1.452.72-.672 0-1.176-.252-1.512-.732-.3-.432-.444-1.02-.444-1.764s.144-1.32.456-1.74c.336-.48.852-.72 1.536-.72m8.256-4.26-4.26 11.04h.864l4.248-11.04zm4.716 3.468c-.924 0-1.656.324-2.184.984-.492.6-.732 1.368-.732 2.316s.24 1.716.732 2.304c.516.624 1.236.936 2.172.936.768 0 1.38-.204 1.848-.6.48-.408.78-1.02.924-1.812h-.96c-.144 1.068-.756 1.608-1.812 1.608-.624 0-1.104-.228-1.428-.66-.336-.432-.492-1.032-.492-1.788q0-1.134.504-1.8c.348-.456.828-.684 1.428-.684.492 0 .888.108 1.2.348q.45.36.576 1.08h.948c-.108-.756-.396-1.32-.876-1.692-.468-.36-1.08-.54-1.848-.54m6.66 0c-.936 0-1.668.312-2.22.96-.528.612-.792 1.38-.792 2.316 0 .924.264 1.692.792 2.292.552.648 1.284.972 2.22.972q1.386 0 2.232-.972c.516-.6.78-1.368.78-2.292 0-.936-.264-1.704-.792-2.316-.552-.648-1.296-.96-2.22-.96m0 .804q.972 0 1.548.756c.324.456.492 1.02.492 1.716 0 .672-.168 1.248-.492 1.704q-.576.756-1.548.756c-.66 0-1.176-.252-1.536-.756-.336-.456-.492-1.02-.492-1.704 0-.696.156-1.26.492-1.716.36-.504.876-.756 1.536-.756m8.844-3.168v3.672c-.48-.876-1.164-1.308-2.052-1.308s-1.572.324-2.076.996c-.468.6-.696 1.344-.696 2.256 0 .936.228 1.704.696 2.304.504.648 1.212.984 2.124.984.936 0 1.632-.396 2.064-1.188v1.02h.9v-8.736zm-1.848 3.156c.552 0 1.008.216 1.356.672.336.444.516 1.032.516 1.752v.12c0 .696-.156 1.26-.456 1.692-.348.48-.828.72-1.452.72-.672 0-1.176-.252-1.512-.732-.3-.432-.444-1.02-.444-1.764s.144-1.32.456-1.74c.336-.48.852-.72 1.536-.72m6.852-.792c-.9 0-1.608.324-2.136.972-.528.612-.78 1.38-.78 2.292 0 1.008.264 1.8.816 2.4.528.576 1.248.876 2.136.876.804 0 1.464-.24 1.98-.696.42-.384.696-.864.84-1.464h-.96c-.156.432-.36.756-.624.972-.312.252-.732.384-1.236.384-.588 0-1.056-.192-1.392-.576s-.516-.924-.564-1.62h4.896c-.024-1.08-.264-1.932-.72-2.532-.504-.672-1.26-1.008-2.256-1.008m.024.804c1.176 0 1.836.66 1.956 1.992h-3.876c.06-.612.252-1.092.588-1.452q.504-.54 1.332-.54m6.636-.804c-.864 0-1.548.3-2.052.912-.504.576-.744 1.308-.744 2.22 0 .9.24 1.632.744 2.208.504.588 1.188.888 2.052.888.936 0 1.632-.42 2.088-1.248v1.092c0 1.368-.624 2.064-1.872 2.064-.564 0-.984-.108-1.26-.312-.276-.192-.456-.504-.528-.924h-.96q.162 1.008.828 1.512c.432.336 1.08.504 1.92.504 1.884 0 2.832-.996 2.832-2.976v-5.772h-.96v1.068c-.456-.828-1.152-1.236-2.088-1.236m.144.792c.612 0 1.092.216 1.452.672.336.408.504.972.504 1.668 0 .672-.168 1.224-.504 1.644-.36.432-.84.648-1.464.648-.672 0-1.164-.24-1.5-.696-.3-.408-.444-.948-.444-1.596 0-.696.168-1.26.504-1.668.348-.456.828-.672 1.452-.672m7.116-.792c-.432 0-.804.132-1.128.396-.264.204-.48.492-.648.852v-1.08h-.948v6.204h.948v-3.288c0-.576.156-1.068.492-1.476.324-.432.732-.636 1.212-.636.3 0 .612.036.924.132v-.96c-.228-.096-.516-.144-.852-.144m4.356 0c-.744 0-1.332.144-1.788.432-.504.312-.828.804-.96 1.452l.948.072c.096-.396.3-.696.624-.888.288-.192.66-.276 1.116-.276 1.08 0 1.62.516 1.62 1.56v.324l-1.488.024c-.936.012-1.656.192-2.16.528-.576.36-.852.888-.852 1.596 0 .504.192.924.576 1.248.372.312.864.468 1.488.468a3.15 3.15 0 0 0 1.548-.384c.384-.216.708-.492.948-.828v1.044h.9v-3.984c0-.72-.192-1.284-.552-1.692-.432-.468-1.08-.696-1.968-.696m1.56 3.396v.528c0 .48-.228.912-.672 1.284a2.35 2.35 0 0 1-1.56.576c-.384 0-.696-.096-.936-.276a.85.85 0 0 1-.348-.708c0-.9.696-1.356 2.088-1.38zm5.412-3.396c-.936 0-1.62.396-2.064 1.188v-1.02h-.9v8.58h.96v-3.504q.72 1.296 2.052 1.296c.888 0 1.572-.336 2.076-.984.456-.6.696-1.356.696-2.268 0-.936-.24-1.692-.708-2.292-.516-.672-1.224-.996-2.112-.996m-.12.792c.66 0 1.164.24 1.512.744.288.432.444 1.02.444 1.752q0 1.116-.468 1.764c-.348.456-.852.696-1.524.696-.576 0-1.02-.228-1.356-.66-.36-.444-.528-1.02-.528-1.74v-.12c0-.696.156-1.272.468-1.704.336-.492.828-.732 1.452-.732m4.188-3.156v8.736h.96v-3.54c0-.576.156-1.068.48-1.452q.468-.576 1.188-.576c.516 0 .912.156 1.2.468.264.312.408.756.408 1.332v3.768h.96v-3.912c0-.792-.192-1.404-.576-1.824-.384-.432-.948-.636-1.668-.636-.42 0-.792.096-1.128.288q-.54.306-.864.9v-3.552zm10.632-1.104-4.26 11.04h.864l4.248-11.04zm4.236 3.468c-.696 0-1.272.156-1.704.468-.468.312-.696.72-.696 1.248s.228.924.708 1.212c.288.192.804.372 1.536.552.672.168 1.116.3 1.32.396.384.192.588.456.588.804 0 .696-.564 1.056-1.668 1.056q-.792 0-1.188-.288c-.264-.216-.444-.564-.516-1.056h-.936c.144 1.428 1.032 2.148 2.664 2.148 1.752 0 2.628-.648 2.628-1.92 0-.54-.252-.96-.744-1.272-.324-.204-.852-.396-1.596-.576-.624-.168-1.056-.3-1.284-.408-.36-.18-.528-.408-.528-.672q0-.414.396-.648c.24-.168.576-.24 1.008-.24.492 0 .876.096 1.14.288.24.168.396.456.48.84h.936c-.168-1.296-1.008-1.932-2.544-1.932m6.54 0c-.924 0-1.656.324-2.184.984-.492.6-.732 1.368-.732 2.316s.24 1.716.732 2.304c.516.624 1.236.936 2.172.936.768 0 1.38-.204 1.848-.6.48-.408.78-1.02.924-1.812h-.96c-.144 1.068-.756 1.608-1.812 1.608-.624 0-1.104-.228-1.428-.66-.336-.432-.492-1.032-.492-1.788q0-1.134.504-1.8c.348-.456.828-.684 1.428-.684.492 0 .888.108 1.2.348q.45.36.576 1.08h.948c-.108-.756-.396-1.32-.876-1.692-.468-.36-1.08-.54-1.848-.54m4.68-2.172a.69.69 0 0 0-.516.204c-.144.12-.204.288-.204.504 0 .204.06.372.204.516a.74.74 0 0 0 .516.204.74.74 0 0 0 .516-.204.7.7 0 0 0 .216-.516q0-.324-.216-.504a.69.69 0 0 0-.516-.204m-.48 2.34v6.204h.96v-6.204zm5.724-.168c-.936 0-1.62.396-2.064 1.188v-1.02h-.9v8.58h.96v-3.504q.72 1.296 2.052 1.296c.888 0 1.572-.336 2.076-.984.456-.6.696-1.356.696-2.268 0-.936-.24-1.692-.708-2.292-.516-.672-1.224-.996-2.112-.996m-.12.792c.66 0 1.164.24 1.512.744.288.432.444 1.02.444 1.752q0 1.116-.468 1.764c-.348.456-.852.696-1.524.696-.576 0-1.02-.228-1.356-.66-.36-.444-.528-1.02-.528-1.74v-.12c0-.696.156-1.272.468-1.704.336-.492.828-.732 1.452-.732m8.148-4.26-4.26 11.04h.864l4.248-11.04zm4.764 3.468c-.432 0-.804.132-1.128.396-.264.204-.48.492-.648.852v-1.08h-.948v6.204h.948v-3.288c0-.576.156-1.068.492-1.476.324-.432.732-.636 1.212-.636.3 0 .612.036.924.132v-.96c-.228-.096-.516-.144-.852-.144m4.212 0c-.9 0-1.608.324-2.136.972-.528.612-.78 1.38-.78 2.292 0 1.008.264 1.8.816 2.4.528.576 1.248.876 2.136.876.804 0 1.464-.24 1.98-.696.42-.384.696-.864.84-1.464h-.96c-.156.432-.36.756-.624.972-.312.252-.732.384-1.236.384-.588 0-1.056-.192-1.392-.576s-.516-.924-.564-1.62h4.896c-.024-1.08-.264-1.932-.72-2.532-.504-.672-1.26-1.008-2.256-1.008m.024.804c1.176 0 1.836.66 1.956 1.992h-3.876c.06-.612.252-1.092.588-1.452q.504-.54 1.332-.54m6.78-.804c-.744 0-1.332.144-1.788.432-.504.312-.828.804-.96 1.452l.948.072c.096-.396.3-.696.624-.888.288-.192.66-.276 1.116-.276 1.08 0 1.62.516 1.62 1.56v.324l-1.488.024c-.936.012-1.656.192-2.16.528-.576.36-.852.888-.852 1.596 0 .504.192.924.576 1.248.372.312.864.468 1.488.468a3.15 3.15 0 0 0 1.548-.384c.384-.216.708-.492.948-.828v1.044h.9v-3.984c0-.72-.192-1.284-.552-1.692-.432-.468-1.08-.696-1.968-.696m1.56 3.396v.528c0 .48-.228.912-.672 1.284a2.35 2.35 0 0 1-1.56.576c-.384 0-.696-.096-.936-.276a.85.85 0 0 1-.348-.708c0-.9.696-1.356 2.088-1.38zm7.032-5.76v3.672c-.48-.876-1.164-1.308-2.052-1.308s-1.572.324-2.076.996c-.468.6-.696 1.344-.696 2.256 0 .936.228 1.704.696 2.304.504.648 1.212.984 2.124.984.936 0 1.632-.396 2.064-1.188v1.02h.9v-8.736zm-1.848 3.156c.552 0 1.008.216 1.356.672.336.444.516 1.032.516 1.752v.12c0 .696-.156 1.26-.456 1.692-.348.48-.828.72-1.452.72-.672 0-1.176-.252-1.512-.732-.3-.432-.444-1.02-.444-1.764s.144-1.32.456-1.74c.336-.48.852-.72 1.536-.72M151.451 121.667c-.924 0-1.656.324-2.184.984-.492.6-.732 1.368-.732 2.316s.24 1.716.732 2.304c.516.624 1.236.936 2.172.936.768 0 1.38-.204 1.848-.6.48-.408.78-1.02.924-1.812h-.96c-.144 1.068-.756 1.608-1.812 1.608-.624 0-1.104-.228-1.428-.66-.336-.432-.492-1.032-.492-1.788q0-1.134.504-1.8c.348-.456.828-.684 1.428-.684.492 0 .888.108 1.2.348q.45.36.576 1.08h.948c-.108-.756-.396-1.32-.876-1.692-.468-.36-1.08-.54-1.848-.54m6.6 0c-.696 0-1.284.324-1.752.996v-.828h-.96v6.204h.96v-3.78c0-.492.144-.912.432-1.248.288-.36.648-.528 1.092-.528.948 0 1.428.54 1.428 1.644v3.912h.96v-3.888c0-.504.132-.9.42-1.212.264-.312.612-.456 1.02-.456.528 0 .912.132 1.152.42.228.264.348.672.348 1.224v3.912h.96v-4.068c0-.708-.204-1.272-.588-1.692-.408-.408-.924-.612-1.572-.612-.432 0-.792.096-1.092.288-.336.18-.624.48-.864.888-.348-.792-.996-1.176-1.944-1.176m12.132-2.364v3.672c-.48-.876-1.164-1.308-2.052-1.308s-1.572.324-2.076.996c-.468.6-.696 1.344-.696 2.256 0 .936.228 1.704.696 2.304.504.648 1.212.984 2.124.984.936 0 1.632-.396 2.064-1.188v1.02h.9v-8.736zm-1.848 3.156c.552 0 1.008.216 1.356.672.336.444.516 1.032.516 1.752v.12c0 .696-.156 1.26-.456 1.692-.348.48-.828.72-1.452.72-.672 0-1.176-.252-1.512-.732-.3-.432-.444-1.02-.444-1.764s.144-1.32.456-1.74c.336-.48.852-.72 1.536-.72m8.256-4.26-4.26 11.04h.864l4.248-11.04zm4.716 3.468c-.924 0-1.656.324-2.184.984-.492.6-.732 1.368-.732 2.316s.24 1.716.732 2.304c.516.624 1.236.936 2.172.936.768 0 1.38-.204 1.848-.6.48-.408.78-1.02.924-1.812h-.96c-.144 1.068-.756 1.608-1.812 1.608-.624 0-1.104-.228-1.428-.66-.336-.432-.492-1.032-.492-1.788q0-1.134.504-1.8c.348-.456.828-.684 1.428-.684.492 0 .888.108 1.2.348q.45.36.576 1.08h.948c-.108-.756-.396-1.32-.876-1.692-.468-.36-1.08-.54-1.848-.54m6.66 0c-.936 0-1.668.312-2.22.96-.528.612-.792 1.38-.792 2.316 0 .924.264 1.692.792 2.292.552.648 1.284.972 2.22.972q1.386 0 2.232-.972c.516-.6.78-1.368.78-2.292 0-.936-.264-1.704-.792-2.316-.552-.648-1.296-.96-2.22-.96m0 .804q.972 0 1.548.756c.324.456.492 1.02.492 1.716 0 .672-.168 1.248-.492 1.704q-.576.756-1.548.756c-.66 0-1.176-.252-1.536-.756-.336-.456-.492-1.02-.492-1.704 0-.696.156-1.26.492-1.716.36-.504.876-.756 1.536-.756m8.844-3.168v3.672c-.48-.876-1.164-1.308-2.052-1.308s-1.572.324-2.076.996c-.468.6-.696 1.344-.696 2.256 0 .936.228 1.704.696 2.304.504.648 1.212.984 2.124.984.936 0 1.632-.396 2.064-1.188v1.02h.9v-8.736zm-1.848 3.156c.552 0 1.008.216 1.356.672.336.444.516 1.032.516 1.752v.12c0 .696-.156 1.26-.456 1.692-.348.48-.828.72-1.452.72-.672 0-1.176-.252-1.512-.732-.3-.432-.444-1.02-.444-1.764s.144-1.32.456-1.74c.336-.48.852-.72 1.536-.72m6.852-.792c-.9 0-1.608.324-2.136.972-.528.612-.78 1.38-.78 2.292 0 1.008.264 1.8.816 2.4.528.576 1.248.876 2.136.876.804 0 1.464-.24 1.98-.696.42-.384.696-.864.84-1.464h-.96c-.156.432-.36.756-.624.972-.312.252-.732.384-1.236.384-.588 0-1.056-.192-1.392-.576s-.516-.924-.564-1.62h4.896c-.024-1.08-.264-1.932-.72-2.532-.504-.672-1.26-1.008-2.256-1.008m.024.804c1.176 0 1.836.66 1.956 1.992h-3.876c.06-.612.252-1.092.588-1.452q.504-.54 1.332-.54m6.636-.804c-.864 0-1.548.3-2.052.912-.504.576-.744 1.308-.744 2.22 0 .9.24 1.632.744 2.208.504.588 1.188.888 2.052.888.936 0 1.632-.42 2.088-1.248v1.092c0 1.368-.624 2.064-1.872 2.064-.564 0-.984-.108-1.26-.312-.276-.192-.456-.504-.528-.924h-.96q.162 1.008.828 1.512c.432.336 1.08.504 1.92.504 1.884 0 2.832-.996 2.832-2.976v-5.772h-.96v1.068c-.456-.828-1.152-1.236-2.088-1.236m.144.792c.612 0 1.092.216 1.452.672.336.408.504.972.504 1.668 0 .672-.168 1.224-.504 1.644-.36.432-.84.648-1.464.648-.672 0-1.164-.24-1.5-.696-.3-.408-.444-.948-.444-1.596 0-.696.168-1.26.504-1.668.348-.456.828-.672 1.452-.672m7.116-.792c-.432 0-.804.132-1.128.396-.264.204-.48.492-.648.852v-1.08h-.948v6.204h.948v-3.288c0-.576.156-1.068.492-1.476.324-.432.732-.636 1.212-.636.3 0 .612.036.924.132v-.96c-.228-.096-.516-.144-.852-.144m4.356 0c-.744 0-1.332.144-1.788.432-.504.312-.828.804-.96 1.452l.948.072c.096-.396.3-.696.624-.888.288-.192.66-.276 1.116-.276 1.08 0 1.62.516 1.62 1.56v.324l-1.488.024c-.936.012-1.656.192-2.16.528-.576.36-.852.888-.852 1.596 0 .504.192.924.576 1.248.372.312.864.468 1.488.468a3.15 3.15 0 0 0 1.548-.384c.384-.216.708-.492.948-.828v1.044h.9v-3.984c0-.72-.192-1.284-.552-1.692-.432-.468-1.08-.696-1.968-.696m1.56 3.396v.528c0 .48-.228.912-.672 1.284a2.35 2.35 0 0 1-1.56.576c-.384 0-.696-.096-.936-.276a.85.85 0 0 1-.348-.708c0-.9.696-1.356 2.088-1.38zm5.412-3.396c-.936 0-1.62.396-2.064 1.188v-1.02h-.9v8.58h.96v-3.504q.72 1.296 2.052 1.296c.888 0 1.572-.336 2.076-.984.456-.6.696-1.356.696-2.268 0-.936-.24-1.692-.708-2.292-.516-.672-1.224-.996-2.112-.996m-.12.792c.66 0 1.164.24 1.512.744.288.432.444 1.02.444 1.752q0 1.116-.468 1.764c-.348.456-.852.696-1.524.696-.576 0-1.02-.228-1.356-.66-.36-.444-.528-1.02-.528-1.74v-.12c0-.696.156-1.272.468-1.704.336-.492.828-.732 1.452-.732m4.188-3.156v8.736h.96v-3.54c0-.576.156-1.068.48-1.452q.468-.576 1.188-.576c.516 0 .912.156 1.2.468.264.312.408.756.408 1.332v3.768h.96v-3.912c0-.792-.192-1.404-.576-1.824-.384-.432-.948-.636-1.668-.636-.42 0-.792.096-1.128.288q-.54.306-.864.9v-3.552zm10.632-1.104-4.26 11.04h.864l4.248-11.04zm4.236 3.468c-.696 0-1.272.156-1.704.468-.468.312-.696.72-.696 1.248s.228.924.708 1.212c.288.192.804.372 1.536.552.672.168 1.116.3 1.32.396.384.192.588.456.588.804 0 .696-.564 1.056-1.668 1.056q-.792 0-1.188-.288c-.264-.216-.444-.564-.516-1.056h-.936c.144 1.428 1.032 2.148 2.664 2.148 1.752 0 2.628-.648 2.628-1.92 0-.54-.252-.96-.744-1.272-.324-.204-.852-.396-1.596-.576-.624-.168-1.056-.3-1.284-.408-.36-.18-.528-.408-.528-.672q0-.414.396-.648c.24-.168.576-.24 1.008-.24.492 0 .876.096 1.14.288.24.168.396.456.48.84h.936c-.168-1.296-1.008-1.932-2.544-1.932m6.54 0c-.924 0-1.656.324-2.184.984-.492.6-.732 1.368-.732 2.316s.24 1.716.732 2.304c.516.624 1.236.936 2.172.936.768 0 1.38-.204 1.848-.6.48-.408.78-1.02.924-1.812h-.96c-.144 1.068-.756 1.608-1.812 1.608-.624 0-1.104-.228-1.428-.66-.336-.432-.492-1.032-.492-1.788q0-1.134.504-1.8c.348-.456.828-.684 1.428-.684.492 0 .888.108 1.2.348q.45.36.576 1.08h.948c-.108-.756-.396-1.32-.876-1.692-.468-.36-1.08-.54-1.848-.54m4.68-2.172a.69.69 0 0 0-.516.204c-.144.12-.204.288-.204.504 0 .204.06.372.204.516a.74.74 0 0 0 .516.204.74.74 0 0 0 .516-.204.7.7 0 0 0 .216-.516q0-.324-.216-.504a.69.69 0 0 0-.516-.204m-.48 2.34v6.204h.96v-6.204zm5.724-.168c-.936 0-1.62.396-2.064 1.188v-1.02h-.9v8.58h.96v-3.504q.72 1.296 2.052 1.296c.888 0 1.572-.336 2.076-.984.456-.6.696-1.356.696-2.268 0-.936-.24-1.692-.708-2.292-.516-.672-1.224-.996-2.112-.996m-.12.792c.66 0 1.164.24 1.512.744.288.432.444 1.02.444 1.752q0 1.116-.468 1.764c-.348.456-.852.696-1.524.696-.576 0-1.02-.228-1.356-.66-.36-.444-.528-1.02-.528-1.74v-.12c0-.696.156-1.272.468-1.704.336-.492.828-.732 1.452-.732m8.148-4.26-4.26 11.04h.864l4.248-11.04zm4.764 3.468c-.432 0-.804.132-1.128.396-.264.204-.48.492-.648.852v-1.08h-.948v6.204h.948v-3.288c0-.576.156-1.068.492-1.476.324-.432.732-.636 1.212-.636.3 0 .612.036.924.132v-.96c-.228-.096-.516-.144-.852-.144m4.212 0c-.9 0-1.608.324-2.136.972-.528.612-.78 1.38-.78 2.292 0 1.008.264 1.8.816 2.4.528.576 1.248.876 2.136.876.804 0 1.464-.24 1.98-.696.42-.384.696-.864.84-1.464h-.96c-.156.432-.36.756-.624.972-.312.252-.732.384-1.236.384-.588 0-1.056-.192-1.392-.576s-.516-.924-.564-1.62h4.896c-.024-1.08-.264-1.932-.72-2.532-.504-.672-1.26-1.008-2.256-1.008m.024.804c1.176 0 1.836.66 1.956 1.992h-3.876c.06-.612.252-1.092.588-1.452q.504-.54 1.332-.54m6.78-.804c-.744 0-1.332.144-1.788.432-.504.312-.828.804-.96 1.452l.948.072c.096-.396.3-.696.624-.888.288-.192.66-.276 1.116-.276 1.08 0 1.62.516 1.62 1.56v.324l-1.488.024c-.936.012-1.656.192-2.16.528-.576.36-.852.888-.852 1.596 0 .504.192.924.576 1.248.372.312.864.468 1.488.468a3.15 3.15 0 0 0 1.548-.384c.384-.216.708-.492.948-.828v1.044h.9v-3.984c0-.72-.192-1.284-.552-1.692-.432-.468-1.08-.696-1.968-.696m1.56 3.396v.528c0 .48-.228.912-.672 1.284a2.35 2.35 0 0 1-1.56.576c-.384 0-.696-.096-.936-.276a.85.85 0 0 1-.348-.708c0-.9.696-1.356 2.088-1.38zm7.032-5.76v3.672c-.48-.876-1.164-1.308-2.052-1.308s-1.572.324-2.076.996c-.468.6-.696 1.344-.696 2.256 0 .936.228 1.704.696 2.304.504.648 1.212.984 2.124.984.936 0 1.632-.396 2.064-1.188v1.02h.9v-8.736zm-1.848 3.156c.552 0 1.008.216 1.356.672.336.444.516 1.032.516 1.752v.12c0 .696-.156 1.26-.456 1.692-.348.48-.828.72-1.452.72-.672 0-1.176-.252-1.512-.732-.3-.432-.444-1.02-.444-1.764s.144-1.32.456-1.74c.336-.48.852-.72 1.536-.72"/><rect width="370" height="40" x="27.434" y="20" fill="url(#c)" rx="4"/><rect width="369" height="39" x="27.934" y="20.5" stroke="url(#d)" rx="3.5"/><path fill="#FFF" d="M48.754 34.808c-1.54 0-2.744.518-3.584 1.582-.77.952-1.148 2.17-1.148 3.654s.364 2.688 1.12 3.612c.826 1.022 2.016 1.54 3.57 1.54 1.064 0 1.988-.308 2.758-.91.826-.644 1.344-1.554 1.568-2.716h-1.106c-.196.868-.602 1.526-1.19 1.974-.56.42-1.232.63-2.03.63-1.176 0-2.058-.392-2.674-1.162-.588-.728-.868-1.722-.868-2.968s.294-2.24.882-2.996q.945-1.218 2.688-1.218c.784 0 1.442.182 1.988.56.56.392.924.952 1.064 1.68h1.106c-.14-.994-.588-1.792-1.344-2.38s-1.694-.882-2.8-.882m8.974 2.758c-1.092 0-1.946.364-2.59 1.12-.616.714-.924 1.61-.924 2.702 0 1.078.308 1.974.924 2.674.644.756 1.498 1.134 2.59 1.134q1.617 0 2.604-1.134c.602-.7.91-1.596.91-2.674 0-1.092-.308-1.988-.924-2.702-.644-.756-1.512-1.12-2.59-1.12m0 .938q1.134 0 1.806.882c.378.532.574 1.19.574 2.002 0 .784-.196 1.456-.574 1.988q-.672.882-1.806.882c-.77 0-1.372-.294-1.792-.882-.392-.532-.574-1.19-.574-1.988 0-.812.182-1.47.574-2.002.42-.588 1.022-.882 1.792-.882m8.358-.938q-.714 0-1.302.336-.588.315-.966.924v-1.064h-1.12V45h1.12v-4.368c.042-.658.252-1.176.644-1.568a1.78 1.78 0 0 1 1.302-.546c1.26 0 1.904.7 1.904 2.114V45h1.12v-4.452c0-1.988-.91-2.982-2.702-2.982m7.336-2.562c-.616 0-1.092.168-1.414.518-.308.336-.462.798-.462 1.414v.826h-1.82v.938h1.82V45h1.12v-6.3h2.044v-.938h-2.044v-.798q0-.525.21-.756c.14-.168.378-.238.686-.238h1.246v-.966zm3.248.028a.8.8 0 0 0-.602.238c-.168.14-.238.336-.238.588 0 .238.07.434.238.602a.86.86 0 0 0 .602.238.86.86 0 0 0 .602-.238.81.81 0 0 0 .252-.602q0-.378-.252-.588a.8.8 0 0 0-.602-.238m-.56 2.73V45h1.12v-7.238zm6.202-.196c-1.008 0-1.806.35-2.394 1.064-.588.672-.868 1.526-.868 2.59 0 1.05.28 1.904.868 2.576.588.686 1.386 1.036 2.394 1.036 1.092 0 1.904-.49 2.436-1.456v1.274c0 1.596-.728 2.408-2.184 2.408-.658 0-1.148-.126-1.47-.364-.322-.224-.532-.588-.616-1.078h-1.12q.189 1.176.966 1.764c.504.392 1.26.588 2.24.588 2.198 0 3.304-1.162 3.304-3.472v-6.734h-1.12v1.246c-.532-.966-1.344-1.442-2.436-1.442m.168.924c.714 0 1.274.252 1.694.784.392.476.588 1.134.588 1.946 0 .784-.196 1.428-.588 1.918-.42.504-.98.756-1.708.756-.784 0-1.358-.28-1.75-.812-.35-.476-.518-1.106-.518-1.862 0-.812.196-1.47.588-1.946.406-.532.966-.784 1.694-.784"/><path fill="url(#e)" fill-rule="evenodd" d="M63.369 37.762h-.67V45h1.12v-4.368c.035-.56.192-1.018.48-1.384a2.1 2.1 0 0 1 .52-.468q.42-.262.945-.262.31 0 .57.057c.884.192 1.334.875 1.334 2.057V45h1.12v-4.452c0-1.832-.773-2.82-2.297-2.964a4 4 0 0 0-.405-.018 2.6 2.6 0 0 0-1.302.336q-.588.315-.966.924v-1.064zm8.177-.826v.826h-1.82v.938h1.82V45h1.12v-6.3h2.044v-.938h-2.044v-.798q0-.107.009-.202.034-.37.201-.554a.6.6 0 0 1 .308-.19 1.3 1.3 0 0 1 .378-.048h1.246v-.966h-1.386q-.243 0-.458.035-.599.098-.956.483c-.308.336-.462.798-.462 1.414m4.522-1.666c-.168.14-.238.336-.238.588 0 .238.07.434.238.602a.86.86 0 0 0 .602.238.86.86 0 0 0 .602-.238.81.81 0 0 0 .252-.602q0-.378-.252-.588a.8.8 0 0 0-.602-.238.8.8 0 0 0-.602.238m.73.674q.032-.046.032-.086 0-.05-.055-.105l-.079.079zm-.128-.086.11.11-.025.027q-.044.037-.085.037-.038 0-.078-.031-.017-.018-.03-.035zm0-.055.074-.08q-.027-.025-.074-.025-.046 0-.074.025zm-.026.029-.098.107q-.022-.04-.022-.081 0-.064.041-.105zm8.092 9.155q-.087 1.216-.827 1.72-.514.351-1.345.351c-.658 0-1.148-.126-1.47-.364l-.017-.012c-.312-.225-.516-.585-.599-1.066h-1.12q.092.569.32 1a2.3 2.3 0 0 0 .859.909c.494.295 1.176.443 2.027.443q1.128 0 1.872-.407 1.431-.785 1.432-3.065v-6.734h-1.12v1.246q-.396-.72-1-1.079-.612-.363-1.436-.363-.705 0-1.274.23a2.8 2.8 0 0 0-1.12.834c-.588.672-.868 1.526-.868 2.59 0 1.05.28 1.904.868 2.576a2.85 2.85 0 0 0 1.419.91q.45.126.975.126.825 0 1.436-.37.604-.366 1-1.086v1.274q0 .175-.012.337m-.458-1.99c.323-.47.484-1.066.484-1.777 0-.748-.166-1.365-.499-1.83a2 2 0 0 0-.089-.116 2.2 2.2 0 0 0-.426-.411c-.352-.252-.773-.373-1.268-.373q-.592-.002-1.04.228-.376.193-.654.556c-.392.476-.588 1.134-.588 1.946 0 .756.168 1.386.518 1.862q.282.385.697.59.445.221 1.053.222.756 0 1.282-.364a2 2 0 0 0 .426-.392q.054-.068.104-.14M45.17 36.39c.84-1.064 2.044-1.582 3.584-1.582 1.106 0 2.044.294 2.8.882q.724.565 1.072 1.38.196.46.272 1h-1.106c-.14-.728-.504-1.288-1.064-1.68-.546-.378-1.204-.56-1.988-.56q-1.743 0-2.688 1.218c-.588.756-.882 1.75-.882 2.996s.28 2.24.868 2.968c.616.77 1.498 1.162 2.674 1.162.798 0 1.47-.21 2.03-.63.588-.448.994-1.106 1.19-1.974h1.106a5.4 5.4 0 0 1-.29 1 4.06 4.06 0 0 1-1.278 1.716c-.77.602-1.694.91-2.758.91-1.554 0-2.744-.518-3.57-1.54-.756-.924-1.12-2.128-1.12-3.612s.378-2.702 1.148-3.654m10.677 1.674q-.39.247-.709.622c-.616.714-.924 1.61-.924 2.702 0 1.078.308 1.974.924 2.674q.279.329.612.561c.546.382 1.202.573 1.978.573q1.095 0 1.9-.52.386-.248.704-.614c.602-.7.91-1.596.91-2.674 0-1.092-.308-1.988-.924-2.702a3.1 3.1 0 0 0-.788-.669q-.77-.453-1.802-.451c-.73 0-1.355.163-1.881.498m20.263.698v-1h1.12V45h-1.12zm-17.115.106q-.538-.364-1.267-.364-.757 0-1.293.378-.281.2-.499.504c-.392.532-.574 1.19-.574 2.002 0 .798.182 1.456.574 1.988q.18.25.402.43.563.452 1.39.452.768 0 1.324-.404.265-.193.482-.478c.378-.532.574-1.204.574-1.988 0-.812-.196-1.47-.574-2.002q-.24-.315-.54-.518"/></svg>