<svg xmlns="http://www.w3.org/2000/svg" xmlns:xlink="http://www.w3.org/1999/xlink" fill="none" version="1.1" width="323.5000915527344" height="38" viewBox="0 0 323.5000915527344 38"><defs><clipPath id="master_svg0_1_26454"><rect x="0" y="0" width="323.5000915527344" height="38" rx="0"/></clipPath><linearGradient x1="0.8318989276885986" y1="0.23354509472846985" x2="0.01724224165081978" y2="0.23354509472846985" id="master_svg1_1_1147"><stop offset="0%" stop-color="#B0CBF3" stop-opacity="1"/><stop offset="100%" stop-color="#DEEAFA" stop-opacity="1"/></linearGradient><linearGradient x1="1" y1="0.5" x2="0" y2="0.5" id="master_svg2_1_1150"><stop offset="0%" stop-color="#98B8E7" stop-opacity="1"/><stop offset="100%" stop-color="#7495C5" stop-opacity="1"/></linearGradient><linearGradient x1="0.5" y1="0.039383772760629654" x2="0.5" y2="1.020851969718933" id="master_svg3_1_1178"><stop offset="0%" stop-color="#ECA34A" stop-opacity="1"/><stop offset="100%" stop-color="#CA7604" stop-opacity="1"/></linearGradient><linearGradient x1="0.6394273042678833" y1="0.9153091907501221" x2="0.16735126533279146" y2="0.014369949532179183" id="master_svg4_1_1161"><stop offset="0%" stop-color="#EB9918" stop-opacity="1"/><stop offset="100%" stop-color="#FEF5A7" stop-opacity="1"/></linearGradient><linearGradient x1="0.7213248014450073" y1="0.7687666416168213" x2="0.07294611173889702" y2="0.09618088114354031" id="master_svg5_1_1162"><stop offset="0%" stop-color="#8CB0E4" stop-opacity="1"/><stop offset="100%" stop-color="#DEEAFA" stop-opacity="1"/></linearGradient><linearGradient x1="0.7213248014450073" y1="0.7687666416168213" x2="0.0729460502417519" y2="0.09618096096439079" id="master_svg6_1_1156"><stop offset="0%" stop-color="#B0CBF3" stop-opacity="1"/><stop offset="100%" stop-color="#DEEAFA" stop-opacity="1"/></linearGradient><mask id="master_svg7_1_26462" style="mask-type:alpha" maskUnits="objectBoundingBox"><g><path d="M12.842571875,3.973813328125L4.448610875,11.601826328125C4.052188875,11.962076328125,3.826171875,12.472866328125,3.826171875,13.008526328125L3.826171875,15.677136328125C3.826171875,16.170536328125,4.018025875,16.644636328125,4.361178875,16.999136328124997L21.317071875,34.516636328125C22.063971875,35.288336328125,23.301571875,35.288336328125,24.048571875,34.516636328125L41.004371875,16.999136328124997C41.347571875,16.644636328125,41.539471875,16.170536328125,41.539471875,15.677136328125L41.539471875,13.008526328125C41.539471875,12.472866328125,41.313371875,11.962076328125,40.916971875,11.601826328125L32.523071875,3.973813328125C32.173171875,3.655888328125,31.717371875,3.479736328125,31.244671875,3.479736328125L14.120871875,3.479736328125C13.648181875,3.479736328125,13.192421875,3.655888328125,12.842571875,3.973813328125" fill-rule="evenodd" fill="#FFFFFF" fill-opacity="1"/></g></mask><filter id="master_svg8_1_26463" filterUnits="objectBoundingBox" color-interpolation-filters="sRGB" x="0" y="0" width="1" height="1"><feFlood flood-opacity="0" result="BackgroundImageFix"/><feBlend mode="normal" in="SourceGraphic" in2="BackgroundImageFix" result="shape"/><feColorMatrix in="SourceAlpha" type="matrix" result="hardAlpha" values="0 0 0 0 0 0 0 0 0 0 0 0 0 0 0 0 0 0 127 0"/><feOffset dy="0" dx="0"/><feGaussianBlur stdDeviation="0.9503884315490723"/><feComposite in2="hardAlpha" operator="arithmetic" k2="-1" k3="1"/><feColorMatrix type="matrix" values="0 0 0 0 0.2078431397676468 0 0 0 0 0.2823529541492462 0 0 0 0 0.4431372582912445 0 0 0 1 0"/><feBlend mode="normal" in2="shape" result="effect1_innerShadow"/></filter><linearGradient x1="0.5948174595832825" y1="0" x2="-0.16350600124456868" y2="0.41285278897909045" id="master_svg9_1_1175"><stop offset="0%" stop-color="#FFFFFF" stop-opacity="1"/><stop offset="100%" stop-color="#FFFFFF" stop-opacity="0.47479718923568726"/></linearGradient></defs><g clip-path="url(#master_svg0_1_26454)"><g><g><path d="M24.871161328124998,8.4444580078125L320.494861328125,8.4444580078125C321.702861328125,8.4444580078125,322.682861328125,9.4241920078125,322.682861328125,10.6327580078125L322.682861328125,35.8117580078125C322.682861328125,37.0202580078125,321.702861328125,38.0000580078125,320.494861328125,38.0000580078125L24.871151328125,38.0000580078125C23.662595328125,38.0000580078125,22.682861328125,37.0202580078125,22.682861328125,35.8117580078125L22.682861328125,10.6327580078125C22.682861328125,9.4241920078125,23.662595328125,8.4444580078125,24.871161328124998,8.4444580078125" fill-rule="evenodd" fill="url(#master_svg1_1_1147)" fill-opacity="1"/><path d="M24.871161328124998,8.4444580078125L320.494861328125,8.4444580078125C321.702861328125,8.4444580078125,322.682861328125,9.4241920078125,322.682861328125,10.6327580078125L322.682861328125,35.8117580078125C322.682861328125,37.0202580078125,321.702861328125,38.0000580078125,320.494861328125,38.0000580078125L24.871151328125,38.0000580078125C23.662595328125,38.0000580078125,22.682861328125,37.0202580078125,22.682861328125,35.8117580078125L22.682861328125,10.6327580078125C22.682861328125,9.4241920078125,23.662595328125,8.4444580078125,24.871161328124998,8.4444580078125ZM24.871161328124998,8.8821170078125Q24.146021328125,8.8821170078125,23.633271328125,9.3948680078125Q23.120521328125,9.9076180078125,23.120521328125,10.6327580078125L23.120521328125,35.8117580078125Q23.120521328125,36.5368580078125,23.633270328125,37.0495580078125Q24.146021328125,37.5623580078125,24.871151328125,37.5623580078125L320.494861328125,37.5623580078125Q321.219861328125,37.5623580078125,321.732861328125,37.0495580078125Q322.244861328125,36.5368580078125,322.244861328125,35.8117580078125L322.244861328125,10.6327580078125Q322.244861328125,9.9076080078125,321.732861328125,9.3948670078125Q321.219861328125,8.8821180078125,320.494861328125,8.8821180078125L24.871161328124998,8.8821170078125Z" fill-rule="evenodd" fill="url(#master_svg2_1_1150)" fill-opacity="1"/></g><g><g><path d="M32.714771875,3.7628083281249998Q32.089571875000004,3.194619328125,31.244671875,3.194620328125L14.120871875,3.194619328125Q13.276071875,3.194619328125,12.650821875,3.7628083281249998L4.256859875,11.390816328125Q3.541054875,12.041306328125,3.541054875,13.008526328125L3.541054875,15.677136328125Q3.541054875,16.561736328125,4.156313875,17.197436328125L21.112171875,34.714936328125Q21.756471875,35.380536328125004,22.682771875,35.380536328125004Q23.609171875,35.380536328125004,24.253471875,34.714936328125L41.209271875,17.197436328125Q41.824571875,16.561736328125,41.824571875,15.677136328125L41.824571875,13.008526328125Q41.824571875,12.041306328125,41.108771875,11.390816328125L32.714771875,3.7628083281249998ZM14.120871875,3.764853328125L31.244671875,3.764853328125Q31.869171875,3.764853328125,32.331271875,4.184818328125L40.725271875,11.812836328125Q41.254271875,12.293626328125,41.254271875,13.008526328125L41.254271875,15.677136328125Q41.254271875,16.331036328125002,40.799571875,16.800836328125L23.843671875,34.318336328125Q23.367471875,34.810336328125004,22.682771875,34.810336328125004Q21.998071875,34.810336328125004,21.521871875,34.318336328125L4.566044875,16.800836328125Q4.111288875,16.331036328125002,4.111288875,15.677136328125L4.111288875,13.008526328125Q4.111288875,12.293626328125,4.640361875,11.812836328125L13.034321875,4.184818328125Q13.496461875,3.764853328125,14.120871875,3.764853328125Z" fill-rule="evenodd" fill="url(#master_svg3_1_1178)" fill-opacity="1"/></g><g><g><path d="M11.655224609375,1.9014866679687499L2.040163609375,10.63920966796875C1.643741609375,10.99945966796875,1.417724609375,11.51020966796875,1.417724609375,12.04590966796875L1.417724609375,15.26110966796875C1.417724609375,15.75450966796875,1.609578609375,16.22850966796875,1.952732609375,16.58310966796875L21.317224609375,36.58900966796875C22.064224609375,37.36070966796875,23.301724609375,37.36070966796875,24.048724609375,36.58900966796875L43.413224609375,16.58310966796875C43.756324609375,16.22850966796875,43.948224609375,15.75450966796875,43.948224609375,15.26110966796875L43.948224609375,12.04590966796875C43.948224609375,11.51020966796875,43.722224609375,10.99945966796875,43.325724609375,10.63920966796875L33.710624609375,1.9014866679687499C33.360824609375,1.58356166796875,32.905024609375005,1.40740966796875,32.432324609375,1.40740966796875L12.933624609375,1.40740966796875C12.460924609375,1.40740966796875,12.005124609375,1.58356166796875,11.655224609375,1.9014866679687499" fill-rule="evenodd" fill="url(#master_svg4_1_1161)" fill-opacity="1"/><path d="M11.655224609375,1.9014866679687499L2.040163609375,10.63920966796875C1.643741609375,10.99945966796875,1.417724609375,11.51020966796875,1.417724609375,12.04590966796875L1.417724609375,15.26110966796875C1.417724609375,15.75450966796875,1.609578609375,16.22850966796875,1.952732609375,16.58310966796875L21.317224609375,36.58900966796875C22.064224609375,37.36070966796875,23.301724609375,37.36070966796875,24.048724609375,36.58900966796875L43.413224609375,16.58310966796875C43.756324609375,16.22850966796875,43.948224609375,15.75450966796875,43.948224609375,15.26110966796875L43.948224609375,12.04590966796875C43.948224609375,11.51020966796875,43.722224609375,10.99945966796875,43.325724609375,10.63920966796875L33.710624609375,1.9014866679687499C33.360824609375,1.58356166796875,32.905024609375005,1.40740966796875,32.432324609375,1.40740966796875L12.933624609375,1.40740966796875C12.460924609375,1.40740966796875,12.005124609375,1.58356166796875,11.655224609375,1.9014866679687499" fill-rule="evenodd" fill="url(#master_svg5_1_1162)" fill-opacity="1"/></g><g mask="url(#master_svg7_1_26462)"><g><path d="M12.842571875,3.973813328125L4.448610875,11.601826328125C4.052188875,11.962076328125,3.826171875,12.472866328125,3.826171875,13.008526328125L3.826171875,15.677136328125C3.826171875,16.170536328125,4.018025875,16.644636328125,4.361178875,16.999136328124997L21.317071875,34.516636328125C22.063971875,35.288336328125,23.301571875,35.288336328125,24.048571875,34.516636328125L41.004371875,16.999136328124997C41.347571875,16.644636328125,41.539471875,16.170536328125,41.539471875,15.677136328125L41.539471875,13.008526328125C41.539471875,12.472866328125,41.313371875,11.962076328125,40.916971875,11.601826328125L32.523071875,3.973813328125C32.173171875,3.655888328125,31.717371875,3.479736328125,31.244671875,3.479736328125L14.120871875,3.479736328125C13.648181875,3.479736328125,13.192421875,3.655888328125,12.842571875,3.973813328125" fill-rule="evenodd" fill="url(#master_svg6_1_1156)" fill-opacity="1"/></g><g filter="url(#master_svg8_1_26463)"><path d="M13.26904296875,11.0306396484375L13.26904296875,13.349869648437501L14.39347296875,13.349869648437501L22.36669296875,26.412839648437497L23.097822968750002,26.412839648437497L31.04234296875,13.349869648437501L32.09564296875,13.349869648437501L32.09564296875,11.0306396484375L28.11364296875,11.0306396484375L22.68234296875,19.7167196484375L17.37328296875,11.0306396484375L13.26904296875,11.0306396484375Z" fill-rule="evenodd" fill="#354871" fill-opacity="1"/></g><g style="opacity:0.31872761249542236;"><path d="M41.53890234375,5.721897373046875Q21.38400234375,6.655157373046875,7.53208234375,23.033207373046874Q5.38017234375,26.234607373046874,0.21240234375000078,14.393707373046874L15.12370234375,-0.378692626953125Q27.12820234375,0.26021237304687495,32.09560234375,1.407427373046875Q37.06290234375,2.554637373046875,41.53890234375,5.721897373046875Z" fill-rule="evenodd" fill="url(#master_svg9_1_1175)" fill-opacity="1"/></g></g></g></g></g><g><path d="M51.894765625,17.0609638671875L51.894765625,29.9129638671875L61.434765625,29.9129638671875L61.434765625,28.2389638671875L53.856765625,28.2389638671875L53.856765625,24.152963867187502L60.696765625,24.152963867187502L60.696765625,22.478963867187503L53.856765625,22.478963867187503L53.856765625,18.7349638671875L61.128765625,18.7349638671875L61.128765625,17.0609638671875L51.894765625,17.0609638671875ZM67.968765625,20.3549638671875C67.392765625,20.3549638671875,66.870765625,20.4629638671875,66.402765625,20.7149638671875C65.934765625,20.9489638671875,65.520765625,21.2909638671875,65.160765625,21.7589638671875L65.160765625,20.606963867187503L63.252765625,20.606963867187503L63.252765625,29.9129638671875L65.160765625,29.9129638671875L65.160765625,24.3149638671875C65.232765625,23.5589638671875,65.502765625,22.9649638671875,65.934765625,22.532963867187497C66.330765625,22.1369638671875,66.816765625,21.9569638671875,67.35676562500001,21.9569638671875C68.796765625,21.9569638671875,69.534765625,22.7489638671875,69.534765625,24.3329638671875L69.534765625,29.9129638671875L71.44276562499999,29.9129638671875L71.44276562499999,24.1709638671875C71.44276562499999,21.614963867187498,70.272765625,20.3549638671875,67.968765625,20.3549638671875ZM76.446765625,17.6009638671875L74.538765625,18.3929638671875L74.538765625,20.606963867187503L72.810765625,20.606963867187503L72.810765625,22.1909638671875L74.538765625,22.1909638671875L74.538765625,27.5909638671875C74.538765625,28.3289638671875,74.700765625,28.8869638671875,75.060765625,29.2829638671875C75.420765625,29.6969638671875,76.014765625,29.9129638671875,76.806765625,29.9129638671875L78.336765625,29.9129638671875L78.336765625,28.3289638671875L77.11276562500001,28.3289638671875C76.878765625,28.3289638671875,76.716765625,28.2569638671875,76.608765625,28.1489638671875C76.500765625,28.0229638671875,76.446765625,27.8429638671875,76.446765625,27.5909638671875L76.446765625,22.1909638671875L78.570765625,22.1909638671875L78.570765625,20.606963867187503L76.446765625,20.606963867187503L76.446765625,17.6009638671875ZM84.042765625,20.3549638671875C82.67476562499999,20.3549638671875,81.57676562500001,20.8229638671875,80.784765625,21.7769638671875C79.956765625,22.7129638671875,79.560765625,23.864963867187498,79.560765625,25.2509638671875C79.560765625,26.780963867187502,79.992765625,27.9869638671875,80.85676562500001,28.8869638671875C81.648765625,29.7329638671875,82.746765625,30.1649638671875,84.11476562499999,30.1649638671875C85.35676562500001,30.1649638671875,86.38276562499999,29.8049638671875,87.19276562499999,29.1029638671875C87.840765625,28.5269638671875,88.254765625,27.7889638671875,88.470765625,26.9249638671875L86.562765625,26.9249638671875C86.310765625,27.4649638671875,86.040765625,27.8789638671875,85.716765625,28.1309638671875C85.302765625,28.4369638671875,84.762765625,28.5989638671875,84.096765625,28.5989638671875C83.340765625,28.5989638671875,82.746765625,28.3469638671875,82.314765625,27.8789638671875C81.882765625,27.3929638671875,81.648765625,26.6909638671875,81.57676562500001,25.7909638671875L88.63276562499999,25.7909638671875C88.61476562499999,24.1349638671875,88.236765625,22.838963867187502,87.516765625,21.902963867187502C86.724765625,20.858963867187498,85.554765625,20.3549638671875,84.042765625,20.3549638671875ZM84.096765625,21.9209638671875C85.60876562499999,21.9209638671875,86.454765625,22.730963867187498,86.634765625,24.350963867187502L81.61276562500001,24.350963867187502C81.720765625,23.5589638671875,81.990765625,22.9649638671875,82.386765625,22.550963867187498C82.818765625,22.1189638671875,83.37676562499999,21.9209638671875,84.096765625,21.9209638671875ZM94.572765625,20.3549638671875C93.996765625,20.3549638671875,93.492765625,20.5169638671875,93.060765625,20.8769638671875C92.700765625,21.1289638671875,92.39476562499999,21.5069638671875,92.16076562500001,22.0109638671875L92.16076562500001,20.606963867187503L90.252765625,20.606963867187503L90.252765625,29.9129638671875L92.16076562500001,29.9129638671875L92.16076562500001,24.980963867187498C92.16076562500001,24.1709638671875,92.39476562499999,23.5049638671875,92.88076562500001,23.0009638671875C93.330765625,22.532963867187497,93.852765625,22.2989638671875,94.428765625,22.2989638671875C94.860765625,22.2989638671875,95.310765625,22.352963867187498,95.778765625,22.4969638671875L95.778765625,20.588963867187502C95.454765625,20.4269638671875,95.040765625,20.3549638671875,94.572765625,20.3549638671875ZM101.610765625,20.3549638671875C100.35076562500001,20.3549638671875,99.378765625,20.8049638671875,98.730765625,21.722963867187502L98.730765625,20.606963867187503L96.948765625,20.606963867187503L96.948765625,33.4769638671875L98.85676562500001,33.4769638671875L98.85676562500001,28.5449638671875C99.61276562500001,29.6249638671875,100.548765625,30.1649638671875,101.700765625,30.1649638671875C103.032765625,30.1649638671875,104.09476562500001,29.6789638671875,104.85076562500001,28.7069638671875C105.552765625,27.8069638671875,105.91276562499999,26.672963867187498,105.91276562499999,25.3049638671875C105.91276562499999,23.864963867187498,105.552765625,22.7129638671875,104.83276562500001,21.8129638671875C104.040765625,20.8409638671875,102.978765625,20.3549638671875,101.610765625,20.3549638671875ZM101.322765625,21.902963867187502C102.258765625,21.902963867187502,102.94276562499999,22.2269638671875,103.39276562500001,22.910963867187498C103.752765625,23.486963867187498,103.950765625,24.2789638671875,103.950765625,25.3049638671875C103.950765625,26.3309638671875,103.734765625,27.1229638671875,103.33876562500001,27.6989638671875C102.88876562499999,28.3109638671875,102.204765625,28.6169638671875,101.268765625,28.6169638671875C100.548765625,28.6169638671875,99.972765625,28.3289638671875,99.540765625,27.7709638671875C99.036765625,27.1589638671875,98.802765625,26.3489638671875,98.802765625,25.358963867187498L98.802765625,25.1969638671875C98.802765625,24.2429638671875,99.000765625,23.468963867187497,99.396765625,22.8929638671875C99.846765625,22.2269638671875,100.494765625,21.902963867187502,101.322765625,21.902963867187502ZM112.032765625,20.3549638671875C111.456765625,20.3549638671875,110.952765625,20.5169638671875,110.520765625,20.8769638671875C110.16076562500001,21.1289638671875,109.854765625,21.5069638671875,109.62076562499999,22.0109638671875L109.62076562499999,20.606963867187503L107.712765625,20.606963867187503L107.712765625,29.9129638671875L109.62076562499999,29.9129638671875L109.62076562499999,24.980963867187498C109.62076562499999,24.1709638671875,109.854765625,23.5049638671875,110.340765625,23.0009638671875C110.790765625,22.532963867187497,111.312765625,22.2989638671875,111.88876562499999,22.2989638671875C112.320765625,22.2989638671875,112.770765625,22.352963867187498,113.238765625,22.4969638671875L113.238765625,20.588963867187502C112.914765625,20.4269638671875,112.500765625,20.3549638671875,112.032765625,20.3549638671875ZM115.758765625,16.8809638671875C115.380765625,16.8809638671875,115.074765625,16.9889638671875,114.822765625,17.2409638671875C114.570765625,17.4749638671875,114.444765625,17.780963867187502,114.444765625,18.158963867187502C114.444765625,18.5189638671875,114.570765625,18.8429638671875,114.822765625,19.094963867187502C115.074765625,19.3289638671875,115.380765625,19.4549638671875,115.758765625,19.4549638671875C116.118765625,19.4549638671875,116.442765625,19.3289638671875,116.694765625,19.094963867187502C116.946765625,18.8429638671875,117.090765625,18.5369638671875,117.090765625,18.158963867187502C117.090765625,17.780963867187502,116.964765625,17.4749638671875,116.712765625,17.2409638671875C116.460765625,16.9889638671875,116.136765625,16.8809638671875,115.758765625,16.8809638671875ZM114.804765625,20.606963867187503L114.804765625,29.9129638671875L116.712765625,29.9129638671875L116.712765625,20.606963867187503L114.804765625,20.606963867187503ZM122.760765625,20.3549638671875C121.644765625,20.3549638671875,120.726765625,20.588963867187502,120.024765625,21.0749638671875C119.322765625,21.542963867187503,118.980765625,22.2089638671875,118.980765625,23.0549638671875C118.980765625,23.846963867187497,119.340765625,24.4769638671875,120.060765625,24.9269638671875C120.492765625,25.2149638671875,121.266765625,25.4849638671875,122.364765625,25.736963867187498C123.318765625,25.9529638671875,123.948765625,26.1329638671875,124.236765625,26.2769638671875C124.776765625,26.5289638671875,125.064765625,26.8889638671875,125.064765625,27.3389638671875C125.064765625,28.1669638671875,124.308765625,28.5989638671875,122.832765625,28.5989638671875C122.112765625,28.5989638671875,121.608765625,28.4729638671875,121.284765625,28.2389638671875C120.960765625,27.9869638671875,120.726765625,27.5369638671875,120.618765625,26.9069638671875L118.746765625,26.9069638671875C118.962765625,29.0669638671875,120.330765625,30.1649638671875,122.886765625,30.1649638671875C125.640765625,30.1649638671875,127.026765625,29.1749638671875,127.026765625,27.2129638671875C127.026765625,26.3849638671875,126.648765625,25.736963867187498,125.910765625,25.2689638671875C125.406765625,24.9449638671875,124.614765625,24.6389638671875,123.552765625,24.3869638671875C122.616765625,24.152963867187502,122.004765625,23.972963867187502,121.680765625,23.8289638671875C121.176765625,23.594963867187502,120.924765625,23.3249638671875,120.924765625,23.0009638671875C120.924765625,22.6409638671875,121.086765625,22.352963867187498,121.428765625,22.172963867187498C121.716765625,21.9929638671875,122.148765625,21.9209638671875,122.724765625,21.9209638671875C123.372765625,21.9209638671875,123.876765625,22.0289638671875,124.200765625,22.2449638671875C124.506765625,22.4429638671875,124.722765625,22.7849638671875,124.866765625,23.288963867187498L126.720765625,23.288963867187498C126.504765625,21.3269638671875,125.172765625,20.3549638671875,122.760765625,20.3549638671875ZM132.588765625,20.3549638671875C131.220765625,20.3549638671875,130.122765625,20.8229638671875,129.330765625,21.7769638671875C128.502765625,22.7129638671875,128.10676562499998,23.864963867187498,128.10676562499998,25.2509638671875C128.10676562499998,26.780963867187502,128.538765625,27.9869638671875,129.402765625,28.8869638671875C130.194765625,29.7329638671875,131.29276562500002,30.1649638671875,132.660765625,30.1649638671875C133.902765625,30.1649638671875,134.92876562499998,29.8049638671875,135.73876562499998,29.1029638671875C136.386765625,28.5269638671875,136.800765625,27.7889638671875,137.016765625,26.9249638671875L135.108765625,26.9249638671875C134.85676562499998,27.4649638671875,134.586765625,27.8789638671875,134.262765625,28.1309638671875C133.848765625,28.4369638671875,133.308765625,28.5989638671875,132.64276562499998,28.5989638671875C131.886765625,28.5989638671875,131.29276562500002,28.3469638671875,130.860765625,27.8789638671875C130.42876562499998,27.3929638671875,130.194765625,26.6909638671875,130.122765625,25.7909638671875L137.17876562499998,25.7909638671875C137.160765625,24.1349638671875,136.782765625,22.838963867187502,136.062765625,21.902963867187502C135.270765625,20.858963867187498,134.100765625,20.3549638671875,132.588765625,20.3549638671875ZM132.64276562499998,21.9209638671875C134.15476562499998,21.9209638671875,135.00076562499999,22.730963867187498,135.180765625,24.350963867187502L130.158765625,24.350963867187502C130.266765625,23.5589638671875,130.536765625,22.9649638671875,130.932765625,22.550963867187498C131.36476562500002,22.1189638671875,131.922765625,21.9209638671875,132.64276562499998,21.9209638671875ZM144.972765625,17.0609638671875L144.972765625,29.9129638671875L146.934765625,29.9129638671875L146.934765625,24.908963867187502L150.264765625,24.908963867187502C153.342765625,24.908963867187502,154.890765625,23.594963867187502,154.890765625,20.966963867187502C154.890765625,18.3569638671875,153.360765625,17.0609638671875,150.300765625,17.0609638671875L144.972765625,17.0609638671875ZM146.934765625,18.7349638671875L150.13876562500002,18.7349638671875C151.092765625,18.7349638671875,151.794765625,18.914963867187502,152.244765625,19.274963867187502C152.694765625,19.5989638671875,152.92876562499998,20.1749638671875,152.92876562499998,20.966963867187502C152.92876562499998,21.7589638671875,152.694765625,22.3349638671875,152.262765625,22.6949638671875C151.812765625,23.0549638671875,151.110765625,23.2349638671875,150.13876562500002,23.2349638671875L146.934765625,23.2349638671875L146.934765625,18.7349638671875ZM160.848765625,20.3549638671875C160.272765625,20.3549638671875,159.76876562500001,20.5169638671875,159.336765625,20.8769638671875C158.97676562499998,21.1289638671875,158.670765625,21.5069638671875,158.43676562500002,22.0109638671875L158.43676562500002,20.606963867187503L156.528765625,20.606963867187503L156.528765625,29.9129638671875L158.43676562500002,29.9129638671875L158.43676562500002,24.980963867187498C158.43676562500002,24.1709638671875,158.670765625,23.5049638671875,159.156765625,23.0009638671875C159.60676562499998,22.532963867187497,160.128765625,22.2989638671875,160.704765625,22.2989638671875C161.136765625,22.2989638671875,161.586765625,22.352963867187498,162.05476562500002,22.4969638671875L162.05476562500002,20.588963867187502C161.730765625,20.4269638671875,161.31676562500002,20.3549638671875,160.848765625,20.3549638671875ZM164.574765625,16.8809638671875C164.196765625,16.8809638671875,163.890765625,16.9889638671875,163.63876562500002,17.2409638671875C163.386765625,17.4749638671875,163.260765625,17.780963867187502,163.260765625,18.158963867187502C163.260765625,18.5189638671875,163.386765625,18.8429638671875,163.63876562500002,19.094963867187502C163.890765625,19.3289638671875,164.196765625,19.4549638671875,164.574765625,19.4549638671875C164.934765625,19.4549638671875,165.258765625,19.3289638671875,165.510765625,19.094963867187502C165.762765625,18.8429638671875,165.906765625,18.5369638671875,165.906765625,18.158963867187502C165.906765625,17.780963867187502,165.78076562500002,17.4749638671875,165.528765625,17.2409638671875C165.276765625,16.9889638671875,164.95276562499998,16.8809638671875,164.574765625,16.8809638671875ZM163.620765625,20.606963867187503L163.620765625,29.9129638671875L165.528765625,29.9129638671875L165.528765625,20.606963867187503L163.620765625,20.606963867187503ZM167.112765625,20.606963867187503L170.568765625,29.9129638671875L172.47676562499998,29.9129638671875L175.932765625,20.606963867187503L173.862765625,20.606963867187503L171.522765625,27.5369638671875L169.182765625,20.606963867187503L167.112765625,20.606963867187503ZM181.296765625,20.3549638671875C180.144765625,20.3549638671875,179.208765625,20.5529638671875,178.524765625,20.9849638671875C177.732765625,21.4529638671875,177.228765625,22.2089638671875,177.03076562500002,23.216963867187502L178.920765625,23.3789638671875C179.028765625,22.856963867187503,179.298765625,22.478963867187503,179.730765625,22.2269638671875C180.090765625,22.0109638671875,180.576765625,21.902963867187502,181.170765625,21.902963867187502C182.574765625,21.902963867187502,183.276765625,22.550963867187498,183.276765625,23.846963867187497L183.276765625,24.224963867187498L181.188765625,24.2789638671875C179.820765625,24.3149638671875,178.740765625,24.5849638671875,177.984765625,25.1249638671875C177.156765625,25.6829638671875,176.742765625,26.4929638671875,176.742765625,27.5369638671875C176.742765625,28.3109638671875,177.03076562500002,28.9409638671875,177.624765625,29.4269638671875C178.164765625,29.9129638671875,178.920765625,30.1649638671875,179.892765625,30.1649638671875C180.720765625,30.1649638671875,181.440765625,30.0029638671875,182.052765625,29.7149638671875C182.592765625,29.4449638671875,183.042765625,29.0669638671875,183.402765625,28.5989638671875L183.402765625,29.9129638671875L185.166765625,29.9129638671875L185.166765625,23.972963867187502C185.166765625,22.838963867187502,184.878765625,21.974963867187498,184.320765625,21.3809638671875C183.672765625,20.6969638671875,182.664765625,20.3549638671875,181.296765625,20.3549638671875ZM183.276765625,25.6109638671875L183.276765625,26.1509638671875C183.276765625,26.8709638671875,182.970765625,27.4829638671875,182.394765625,27.9689638671875C181.818765625,28.4549638671875,181.134765625,28.7069638671875,180.324765625,28.7069638671875C179.838765625,28.7069638671875,179.442765625,28.5809638671875,179.154765625,28.3469638671875C178.848765625,28.1129638671875,178.704765625,27.8249638671875,178.704765625,27.4649638671875C178.704765625,26.3129638671875,179.568765625,25.7009638671875,181.314765625,25.664963867187502L183.276765625,25.6109638671875ZM190.170765625,17.6009638671875L188.262765625,18.3929638671875L188.262765625,20.606963867187503L186.534765625,20.606963867187503L186.534765625,22.1909638671875L188.262765625,22.1909638671875L188.262765625,27.5909638671875C188.262765625,28.3289638671875,188.424765625,28.8869638671875,188.784765625,29.2829638671875C189.144765625,29.6969638671875,189.738765625,29.9129638671875,190.530765625,29.9129638671875L192.060765625,29.9129638671875L192.060765625,28.3289638671875L190.836765625,28.3289638671875C190.602765625,28.3289638671875,190.440765625,28.2569638671875,190.332765625,28.1489638671875C190.224765625,28.0229638671875,190.170765625,27.8429638671875,190.170765625,27.5909638671875L190.170765625,22.1909638671875L192.294765625,22.1909638671875L192.294765625,20.606963867187503L190.170765625,20.606963867187503L190.170765625,17.6009638671875ZM197.766765625,20.3549638671875C196.398765625,20.3549638671875,195.300765625,20.8229638671875,194.508765625,21.7769638671875C193.680765625,22.7129638671875,193.284765625,23.864963867187498,193.284765625,25.2509638671875C193.284765625,26.780963867187502,193.716765625,27.9869638671875,194.580765625,28.8869638671875C195.372765625,29.7329638671875,196.470765625,30.1649638671875,197.838765625,30.1649638671875C199.080765625,30.1649638671875,200.106765625,29.8049638671875,200.916765625,29.1029638671875C201.564765625,28.5269638671875,201.978765625,27.7889638671875,202.194765625,26.9249638671875L200.286765625,26.9249638671875C200.034765625,27.4649638671875,199.764765625,27.8789638671875,199.440765625,28.1309638671875C199.026765625,28.4369638671875,198.486765625,28.5989638671875,197.820765625,28.5989638671875C197.064765625,28.5989638671875,196.470765625,28.3469638671875,196.038765625,27.8789638671875C195.606765625,27.3929638671875,195.372765625,26.6909638671875,195.300765625,25.7909638671875L202.356765625,25.7909638671875C202.338765625,24.1349638671875,201.960765625,22.838963867187502,201.240765625,21.902963867187502C200.448765625,20.858963867187498,199.278765625,20.3549638671875,197.766765625,20.3549638671875ZM197.820765625,21.9209638671875C199.332765625,21.9209638671875,200.178765625,22.730963867187498,200.358765625,24.350963867187502L195.336765625,24.350963867187502C195.444765625,23.5589638671875,195.714765625,22.9649638671875,196.110765625,22.550963867187498C196.542765625,22.1189638671875,197.100765625,21.9209638671875,197.820765625,21.9209638671875ZM210.150765625,17.0609638671875L210.150765625,29.9129638671875L214.794765625,29.9129638671875C216.864765625,29.9129638671875,218.430765625,29.3369638671875,219.510765625,28.1849638671875C220.536765625,27.0689638671875,221.058765625,25.5029638671875,221.058765625,23.486963867187498C221.058765625,21.4529638671875,220.554765625,19.8869638671875,219.546765625,18.8069638671875C218.466765625,17.6369638671875,216.900765625,17.0609638671875,214.830765625,17.0609638671875L210.150765625,17.0609638671875ZM212.112765625,18.7349638671875L214.470765625,18.7349638671875C216.090765625,18.7349638671875,217.278765625,19.1129638671875,218.034765625,19.8869638671875C218.754765625,20.6429638671875,219.132765625,21.8309638671875,219.132765625,23.486963867187498C219.132765625,25.106963867187503,218.754765625,26.294963867187498,218.016765625,27.0689638671875C217.260765625,27.8429638671875,216.054765625,28.2389638671875,214.434765625,28.2389638671875L212.112765625,28.2389638671875L212.112765625,18.7349638671875ZM226.818765625,20.3549638671875C225.450765625,20.3549638671875,224.352765625,20.8229638671875,223.560765625,21.7769638671875C222.732765625,22.7129638671875,222.336765625,23.864963867187498,222.336765625,25.2509638671875C222.336765625,26.780963867187502,222.768765625,27.9869638671875,223.632765625,28.8869638671875C224.424765625,29.7329638671875,225.522765625,30.1649638671875,226.890765625,30.1649638671875C228.132765625,30.1649638671875,229.158765625,29.8049638671875,229.968765625,29.1029638671875C230.616765625,28.5269638671875,231.030765625,27.7889638671875,231.246765625,26.9249638671875L229.338765625,26.9249638671875C229.086765625,27.4649638671875,228.816765625,27.8789638671875,228.492765625,28.1309638671875C228.078765625,28.4369638671875,227.538765625,28.5989638671875,226.872765625,28.5989638671875C226.116765625,28.5989638671875,225.522765625,28.3469638671875,225.090765625,27.8789638671875C224.658765625,27.3929638671875,224.424765625,26.6909638671875,224.352765625,25.7909638671875L231.408765625,25.7909638671875C231.390765625,24.1349638671875,231.012765625,22.838963867187502,230.292765625,21.902963867187502C229.500765625,20.858963867187498,228.330765625,20.3549638671875,226.818765625,20.3549638671875ZM226.872765625,21.9209638671875C228.384765625,21.9209638671875,229.230765625,22.730963867187498,229.410765625,24.350963867187502L224.388765625,24.350963867187502C224.496765625,23.5589638671875,224.766765625,22.9649638671875,225.162765625,22.550963867187498C225.594765625,22.1189638671875,226.152765625,21.9209638671875,226.872765625,21.9209638671875ZM237.690765625,20.3549638671875C236.430765625,20.3549638671875,235.458765625,20.8049638671875,234.810765625,21.722963867187502L234.810765625,20.606963867187503L233.028765625,20.606963867187503L233.028765625,33.4769638671875L234.936765625,33.4769638671875L234.936765625,28.5449638671875C235.692765625,29.6249638671875,236.628765625,30.1649638671875,237.780765625,30.1649638671875C239.112765625,30.1649638671875,240.174765625,29.6789638671875,240.930765625,28.7069638671875C241.632765625,27.8069638671875,241.992765625,26.672963867187498,241.992765625,25.3049638671875C241.992765625,23.864963867187498,241.632765625,22.7129638671875,240.912765625,21.8129638671875C240.120765625,20.8409638671875,239.058765625,20.3549638671875,237.690765625,20.3549638671875ZM237.402765625,21.902963867187502C238.338765625,21.902963867187502,239.022765625,22.2269638671875,239.472765625,22.910963867187498C239.832765625,23.486963867187498,240.030765625,24.2789638671875,240.030765625,25.3049638671875C240.030765625,26.3309638671875,239.814765625,27.1229638671875,239.418765625,27.6989638671875C238.968765625,28.3109638671875,238.284765625,28.6169638671875,237.348765625,28.6169638671875C236.628765625,28.6169638671875,236.052765625,28.3289638671875,235.620765625,27.7709638671875C235.116765625,27.1589638671875,234.882765625,26.3489638671875,234.882765625,25.358963867187498L234.882765625,25.1969638671875C234.882765625,24.2429638671875,235.080765625,23.468963867187497,235.476765625,22.8929638671875C235.926765625,22.2269638671875,236.574765625,21.902963867187502,237.402765625,21.902963867187502ZM244.008765625,16.8089638671875L244.008765625,29.9129638671875L245.916765625,29.9129638671875L245.916765625,16.8089638671875L244.008765625,16.8089638671875ZM252.576765625,20.3549638671875C251.172765625,20.3549638671875,250.038765625,20.8229638671875,249.192765625,21.7589638671875C248.346765625,22.6769638671875,247.932765625,23.846963867187497,247.932765625,25.2689638671875C247.932765625,26.672963867187498,248.346765625,27.8429638671875,249.174765625,28.7429638671875C250.038765625,29.6789638671875,251.172765625,30.1649638671875,252.576765625,30.1649638671875C253.980765625,30.1649638671875,255.114765625,29.6789638671875,255.978765625,28.7429638671875C256.806765625,27.8429638671875,257.220765625,26.672963867187498,257.220765625,25.2689638671875C257.220765625,23.846963867187497,256.788765625,22.6769638671875,255.960765625,21.7589638671875C255.114765625,20.8229638671875,253.980765625,20.3549638671875,252.576765625,20.3549638671875ZM252.576765625,21.9209638671875C253.458765625,21.9209638671875,254.142765625,22.2629638671875,254.646765625,22.9649638671875C255.078765625,23.5589638671875,255.294765625,24.3329638671875,255.294765625,25.2689638671875C255.294765625,26.1869638671875,255.078765625,26.9429638671875,254.646765625,27.5549638671875C254.142765625,28.2389638671875,253.458765625,28.5989638671875,252.576765625,28.5989638671875C251.694765625,28.5989638671875,251.010765625,28.2389638671875,250.524765625,27.5549638671875C250.092765625,26.9609638671875,249.894765625,26.2049638671875,249.894765625,25.2689638671875C249.894765625,24.3329638671875,250.092765625,23.5589638671875,250.524765625,22.9649638671875C251.010765625,22.2629638671875,251.694765625,21.9209638671875,252.576765625,21.9209638671875ZM258.048765625,20.606963867187503L261.73876562500004,29.6969638671875L260.11876562500004,33.4769638671875L262.15276562500003,33.4769638671875L267.210765625,20.606963867187503L265.122765625,20.606963867187503L262.67476562499996,27.3929638671875L260.11876562500004,20.606963867187503L258.048765625,20.606963867187503ZM272.84476562500004,20.3549638671875C271.908765625,20.3549638671875,271.04476562499997,20.7689638671875,270.288765625,21.6329638671875L270.288765625,20.606963867187503L268.380765625,20.606963867187503L268.380765625,29.9129638671875L270.288765625,29.9129638671875L270.288765625,24.3149638671875C270.288765625,23.666963867187498,270.468765625,23.108963867187498,270.864765625,22.658963867187502C271.22476562500003,22.1909638671875,271.728765625,21.9569638671875,272.340765625,21.9569638671875C273.600765625,21.9569638671875,274.24876562500003,22.6769638671875,274.24876562500003,24.152963867187502L274.24876562500003,29.9129638671875L276.156765625,29.9129638671875L276.156765625,24.1889638671875C276.156765625,23.5049638671875,276.336765625,22.9469638671875,276.696765625,22.550963867187498C277.056765625,22.1549638671875,277.48876562500004,21.9569638671875,278.028765625,21.9569638671875C278.74876562500003,21.9569638671875,279.288765625,22.1189638671875,279.612765625,22.478963867187503C279.936765625,22.8209638671875,280.098765625,23.3789638671875,280.098765625,24.1349638671875L280.098765625,29.9129638671875L282.006765625,29.9129638671875L282.006765625,23.8109638671875C282.006765625,22.7669638671875,281.682765625,21.9389638671875,281.07076562500004,21.3089638671875C280.44076562500004,20.660963867187498,279.648765625,20.3549638671875,278.694765625,20.3549638671875C278.064765625,20.3549638671875,277.542765625,20.4629638671875,277.110765625,20.6969638671875C276.64276562500004,20.9309638671875,276.192765625,21.344963867187502,275.778765625,21.9209638671875C275.202765625,20.8769638671875,274.212765625,20.3549638671875,272.84476562500004,20.3549638671875ZM288.108765625,20.3549638671875C286.740765625,20.3549638671875,285.64276562500004,20.8229638671875,284.850765625,21.7769638671875C284.02276562500003,22.7129638671875,283.62676562499996,23.864963867187498,283.62676562499996,25.2509638671875C283.62676562499996,26.780963867187502,284.058765625,27.9869638671875,284.922765625,28.8869638671875C285.71476562500004,29.7329638671875,286.812765625,30.1649638671875,288.180765625,30.1649638671875C289.422765625,30.1649638671875,290.44876562499996,29.8049638671875,291.258765625,29.1029638671875C291.906765625,28.5269638671875,292.32076562500004,27.7889638671875,292.536765625,26.9249638671875L290.628765625,26.9249638671875C290.37676562499996,27.4649638671875,290.106765625,27.8789638671875,289.782765625,28.1309638671875C289.36876562500004,28.4369638671875,288.82876562499996,28.5989638671875,288.162765625,28.5989638671875C287.406765625,28.5989638671875,286.812765625,28.3469638671875,286.380765625,27.8789638671875C285.94876562499996,27.3929638671875,285.71476562500004,26.6909638671875,285.64276562500004,25.7909638671875L292.69876562499996,25.7909638671875C292.680765625,24.1349638671875,292.302765625,22.838963867187502,291.582765625,21.902963867187502C290.790765625,20.858963867187498,289.620765625,20.3549638671875,288.108765625,20.3549638671875ZM288.162765625,21.9209638671875C289.67476562499996,21.9209638671875,290.52076562499997,22.730963867187498,290.70076562500003,24.350963867187502L285.678765625,24.350963867187502C285.786765625,23.5589638671875,286.056765625,22.9649638671875,286.452765625,22.550963867187498C286.884765625,22.1189638671875,287.442765625,21.9209638671875,288.162765625,21.9209638671875ZM299.034765625,20.3549638671875C298.458765625,20.3549638671875,297.936765625,20.4629638671875,297.468765625,20.7149638671875C297.000765625,20.9489638671875,296.586765625,21.2909638671875,296.226765625,21.7589638671875L296.226765625,20.606963867187503L294.31876562499997,20.606963867187503L294.31876562499997,29.9129638671875L296.226765625,29.9129638671875L296.226765625,24.3149638671875C296.298765625,23.5589638671875,296.56876562499997,22.9649638671875,297.000765625,22.532963867187497C297.396765625,22.1369638671875,297.882765625,21.9569638671875,298.422765625,21.9569638671875C299.862765625,21.9569638671875,300.600765625,22.7489638671875,300.600765625,24.3329638671875L300.600765625,29.9129638671875L302.508765625,29.9129638671875L302.508765625,24.1709638671875C302.508765625,21.614963867187498,301.338765625,20.3549638671875,299.034765625,20.3549638671875ZM307.512765625,17.6009638671875L305.604765625,18.3929638671875L305.604765625,20.606963867187503L303.87676562499996,20.606963867187503L303.87676562499996,22.1909638671875L305.604765625,22.1909638671875L305.604765625,27.5909638671875C305.604765625,28.3289638671875,305.766765625,28.8869638671875,306.12676562499996,29.2829638671875C306.486765625,29.6969638671875,307.080765625,29.9129638671875,307.872765625,29.9129638671875L309.402765625,29.9129638671875L309.402765625,28.3289638671875L308.178765625,28.3289638671875C307.944765625,28.3289638671875,307.782765625,28.2569638671875,307.674765625,28.1489638671875C307.566765625,28.0229638671875,307.512765625,27.8429638671875,307.512765625,27.5909638671875L307.512765625,22.1909638671875L309.636765625,22.1909638671875L309.636765625,20.606963867187503L307.512765625,20.606963867187503L307.512765625,17.6009638671875Z" fill="#2E3E58" fill-opacity="1"/></g></g></svg>