<svg xmlns="http://www.w3.org/2000/svg" xmlns:xlink="http://www.w3.org/1999/xlink" fill="none" version="1.1" width="297" height="40" viewBox="0 0 297 40"><defs><linearGradient x1="-0.10665636509656906" y1="0.5" x2="1.0454939603805542" y2="0.9259277582168579" id="master_svg0_113_22709"><stop offset="0%" stop-color="#FFFFFF" stop-opacity="1"/><stop offset="100%" stop-color="#0066FE" stop-opacity="1"/></linearGradient></defs><g><rect x="0" y="0" width="297" height="40" rx="20" fill="#FFFFFF" fill-opacity="0.10000000149011612"/><rect x="0.5" y="0.5" width="296" height="39" rx="19.5" stroke="url(#master_svg0_113_22709)" fill-opacity="0" fill="none" stroke-width="1"/><g><path d="M34.176,23.712C33.824,23.712,33.552,23.823999999999998,33.344,24.048C33.104,24.272,32.992,24.56,32.992,24.912C32.992,25.232,33.104,25.52,33.344,25.76C33.552,25.968,33.824,26.08,34.176,26.08C34.496,26.08,34.784,25.968,35.024,25.76C35.248,25.52,35.376,25.232,35.376,24.912C35.376,24.56,35.248,24.272,35.024,24.048C34.784,23.823999999999998,34.496,23.712,34.176,23.712ZM38.528,23.712C38.176,23.712,37.903999999999996,23.823999999999998,37.696,24.048C37.456,24.272,37.344,24.56,37.344,24.912C37.344,25.232,37.456,25.52,37.696,25.76C37.903999999999996,25.968,38.176,26.08,38.528,26.08C38.848,26.08,39.136,25.968,39.376,25.76C39.6,25.52,39.728,25.232,39.728,24.912C39.728,24.56,39.6,24.272,39.376,24.048C39.136,23.823999999999998,38.848,23.712,38.528,23.712ZM42.88,23.712C42.528,23.712,42.256,23.823999999999998,42.048,24.048C41.808,24.272,41.696,24.56,41.696,24.912C41.696,25.232,41.808,25.52,42.048,25.76C42.256,25.968,42.528,26.08,42.88,26.08C43.2,26.08,43.488,25.968,43.728,25.76C43.952,25.52,44.08,25.232,44.08,24.912C44.08,24.56,43.952,24.272,43.728,24.048C43.488,23.823999999999998,43.2,23.712,42.88,23.712ZM54.784,14.576L50.384,26L52.239999999999995,26L53.312,23.055999999999997L58.224000000000004,23.055999999999997L59.296,26L61.168,26L56.768,14.576L54.784,14.576ZM53.84,21.616L55.744,16.448L55.808,16.448L57.696,21.616L53.84,21.616ZM62.32,14.352L62.32,26L64.01599999999999,26L64.01599999999999,14.352L62.32,14.352ZM66.32,14.352L66.32,26L68.01599999999999,26L68.01599999999999,14.352L66.32,14.352ZM75.616,14.576L75.616,26L77.36,26L77.36,21.552L80.32,21.552C83.056,21.552,84.432,20.384,84.432,18.048000000000002C84.432,15.728,83.072,14.576,80.352,14.576L75.616,14.576ZM77.36,16.064L80.208,16.064C81.056,16.064,81.68,16.224,82.08,16.544C82.47999999999999,16.832,82.688,17.344,82.688,18.048000000000002C82.688,18.752000000000002,82.47999999999999,19.264,82.096,19.584C81.696,19.904,81.072,20.064,80.208,20.064L77.36,20.064L77.36,16.064ZM89.72800000000001,17.503999999999998C89.21600000000001,17.503999999999998,88.768,17.648,88.384,17.968C88.064,18.192,87.792,18.528,87.584,18.976L87.584,17.728L85.888,17.728L85.888,26L87.584,26L87.584,21.616C87.584,20.896,87.792,20.304000000000002,88.22399999999999,19.856C88.624,19.439999999999998,89.088,19.232,89.6,19.232C89.98400000000001,19.232,90.384,19.28,90.8,19.408L90.8,17.712C90.512,17.567999999999998,90.144,17.503999999999998,89.72800000000001,17.503999999999998ZM95.648,17.503999999999998C94.4,17.503999999999998,93.392,17.92,92.64,18.752000000000002C91.888,19.567999999999998,91.52000000000001,20.608,91.52000000000001,21.872C91.52000000000001,23.119999999999997,91.888,24.16,92.624,24.96C93.392,25.792,94.4,26.224,95.648,26.224C96.896,26.224,97.904,25.792,98.672,24.96C99.408,24.16,99.776,23.119999999999997,99.776,21.872C99.776,20.608,99.392,19.567999999999998,98.656,18.752000000000002C97.904,17.92,96.896,17.503999999999998,95.648,17.503999999999998ZM95.648,18.896C96.432,18.896,97.04,19.2,97.488,19.823999999999998C97.872,20.352,98.064,21.04,98.064,21.872C98.064,22.688000000000002,97.872,23.36,97.488,23.904C97.04,24.512,96.432,24.832,95.648,24.832C94.864,24.832,94.256,24.512,93.824,23.904C93.44,23.375999999999998,93.26400000000001,22.704,93.26400000000001,21.872C93.26400000000001,21.04,93.44,20.352,93.824,19.823999999999998C94.256,19.2,94.864,18.896,95.648,18.896ZM104.832,17.503999999999998C103.712,17.503999999999998,102.8,17.887999999999998,102.112,18.672C101.408,19.439999999999998,101.072,20.432000000000002,101.072,21.68C101.072,22.928,101.408,23.92,102.112,24.672C102.8,25.424,103.712,25.808,104.832,25.808C105.92,25.808,106.752,25.344,107.36,24.432L107.36,25.712C107.36,27.264,106.64,28.048,105.2,28.048C104.528,28.048,104.032,27.936,103.728,27.744C103.408,27.536,103.216,27.184,103.12,26.704L101.424,26.704C101.584,27.616,101.952,28.288,102.56,28.736C103.168,29.168,104.048,29.392,105.2,29.392C107.76,29.392,109.056,28.08,109.056,25.456L109.056,17.728L107.36,17.728L107.36,18.832C106.752,17.936,105.92,17.503999999999998,104.832,17.503999999999998ZM105.088,18.880000000000003C105.808,18.880000000000003,106.368,19.119999999999997,106.784,19.631999999999998C107.168,20.128,107.376,20.816000000000003,107.376,21.68C107.376,22.528,107.168,23.2,106.784,23.695999999999998C106.368,24.176,105.808,24.416,105.088,24.416C104.256,24.416,103.664,24.128,103.296,23.584C102.976,23.119999999999997,102.816,22.48,102.816,21.68C102.816,20.8,103.008,20.112000000000002,103.424,19.631999999999998C103.808,19.119999999999997,104.368,18.880000000000003,105.088,18.880000000000003ZM114.816,17.503999999999998C114.304,17.503999999999998,113.856,17.648,113.472,17.968C113.152,18.192,112.88,18.528,112.672,18.976L112.672,17.728L110.976,17.728L110.976,26L112.672,26L112.672,21.616C112.672,20.896,112.88,20.304000000000002,113.312,19.856C113.712,19.439999999999998,114.176,19.232,114.688,19.232C115.072,19.232,115.472,19.28,115.888,19.408L115.888,17.712C115.6,17.567999999999998,115.232,17.503999999999998,114.816,17.503999999999998ZM120.656,17.503999999999998C119.632,17.503999999999998,118.8,17.68,118.192,18.064C117.488,18.48,117.04,19.152,116.864,20.048000000000002L118.544,20.192C118.64,19.728,118.88,19.392,119.264,19.168C119.584,18.976,120.016,18.880000000000003,120.544,18.880000000000003C121.792,18.880000000000003,122.416,19.456,122.416,20.608L122.416,20.944000000000003L120.56,20.992C119.344,21.024,118.384,21.264,117.712,21.744C116.976,22.240000000000002,116.608,22.96,116.608,23.887999999999998C116.608,24.576,116.864,25.136,117.392,25.568C117.872,26,118.544,26.224,119.408,26.224C120.144,26.224,120.784,26.08,121.328,25.824C121.808,25.584,122.208,25.248,122.528,24.832L122.528,26L124.096,26L124.096,20.72C124.096,19.712,123.84,18.944000000000003,123.344,18.416C122.768,17.808,121.872,17.503999999999998,120.656,17.503999999999998ZM122.416,22.176000000000002L122.416,22.656C122.416,23.296,122.144,23.84,121.632,24.272C121.12,24.704,120.512,24.928,119.792,24.928C119.36,24.928,119.008,24.816,118.752,24.608C118.48,24.4,118.352,24.144,118.352,23.823999999999998C118.352,22.8,119.12,22.256,120.672,22.224L122.416,22.176000000000002ZM130,17.503999999999998C129.168,17.503999999999998,128.4,17.872,127.728,18.64L127.728,17.728L126.032,17.728L126.032,26L127.728,26L127.728,21.024C127.728,20.448,127.888,19.951999999999998,128.24,19.552C128.56,19.136,129.00799999999998,18.928,129.55200000000002,18.928C130.672,18.928,131.248,19.567999999999998,131.248,20.880000000000003L131.248,26L132.94400000000002,26L132.94400000000002,20.912C132.94400000000002,20.304000000000002,133.10399999999998,19.808,133.424,19.456C133.744,19.104,134.128,18.928,134.608,18.928C135.248,18.928,135.728,19.072,136.01600000000002,19.392C136.304,19.695999999999998,136.44799999999998,20.192,136.44799999999998,20.864L136.44799999999998,26L138.144,26L138.144,20.576C138.144,19.648,137.856,18.912,137.312,18.352C136.752,17.776,136.048,17.503999999999998,135.2,17.503999999999998C134.64,17.503999999999998,134.176,17.6,133.792,17.808C133.376,18.016,132.976,18.384,132.608,18.896C132.096,17.968,131.216,17.503999999999998,130,17.503999999999998ZM144.03199999999998,17.503999999999998C143.2,17.503999999999998,142.43200000000002,17.872,141.76,18.64L141.76,17.728L140.064,17.728L140.064,26L141.76,26L141.76,21.024C141.76,20.448,141.92000000000002,19.951999999999998,142.272,19.552C142.59199999999998,19.136,143.04000000000002,18.928,143.584,18.928C144.704,18.928,145.28,19.567999999999998,145.28,20.880000000000003L145.28,26L146.976,26L146.976,20.912C146.976,20.304000000000002,147.136,19.808,147.45600000000002,19.456C147.776,19.104,148.16,18.928,148.64,18.928C149.28,18.928,149.76,19.072,150.048,19.392C150.336,19.695999999999998,150.48000000000002,20.192,150.48000000000002,20.864L150.48000000000002,26L152.176,26L152.176,20.576C152.176,19.648,151.888,18.912,151.344,18.352C150.784,17.776,150.07999999999998,17.503999999999998,149.232,17.503999999999998C148.672,17.503999999999998,148.208,17.6,147.824,17.808C147.40800000000002,18.016,147.00799999999998,18.384,146.64,18.896C146.128,17.968,145.248,17.503999999999998,144.03199999999998,17.503999999999998ZM155.296,14.416C154.95999999999998,14.416,154.688,14.512,154.464,14.736C154.24,14.943999999999999,154.128,15.216000000000001,154.128,15.552C154.128,15.872,154.24,16.16,154.464,16.384C154.688,16.592,154.95999999999998,16.704,155.296,16.704C155.61599999999999,16.704,155.904,16.592,156.128,16.384C156.352,16.16,156.48000000000002,15.888,156.48000000000002,15.552C156.48000000000002,15.216000000000001,156.368,14.943999999999999,156.144,14.736C155.92000000000002,14.512,155.632,14.416,155.296,14.416ZM154.44799999999998,17.728L154.44799999999998,26L156.144,26L156.144,17.728L154.44799999999998,17.728ZM162.624,17.503999999999998C162.112,17.503999999999998,161.648,17.6,161.232,17.823999999999998C160.816,18.032,160.448,18.336,160.128,18.752000000000002L160.128,17.728L158.43200000000002,17.728L158.43200000000002,26L160.128,26L160.128,21.024C160.192,20.352,160.432,19.823999999999998,160.816,19.439999999999998C161.168,19.088,161.6,18.928,162.08,18.928C163.36,18.928,164.016,19.631999999999998,164.016,21.04L164.016,26L165.712,26L165.712,20.896C165.712,18.624000000000002,164.672,17.503999999999998,162.624,17.503999999999998ZM171.088,17.503999999999998C169.968,17.503999999999998,169.056,17.887999999999998,168.368,18.672C167.664,19.439999999999998,167.328,20.432000000000002,167.328,21.68C167.328,22.928,167.664,23.92,168.368,24.672C169.056,25.424,169.968,25.808,171.088,25.808C172.176,25.808,173.008,25.344,173.616,24.432L173.616,25.712C173.616,27.264,172.896,28.048,171.456,28.048C170.784,28.048,170.288,27.936,169.984,27.744C169.664,27.536,169.472,27.184,169.376,26.704L167.68,26.704C167.84,27.616,168.208,28.288,168.816,28.736C169.424,29.168,170.304,29.392,171.456,29.392C174.016,29.392,175.312,28.08,175.312,25.456L175.312,17.728L173.616,17.728L173.616,18.832C173.008,17.936,172.176,17.503999999999998,171.088,17.503999999999998ZM171.344,18.880000000000003C172.064,18.880000000000003,172.624,19.119999999999997,173.04,19.631999999999998C173.424,20.128,173.632,20.816000000000003,173.632,21.68C173.632,22.528,173.424,23.2,173.04,23.695999999999998C172.624,24.176,172.064,24.416,171.344,24.416C170.512,24.416,169.92,24.128,169.552,23.584C169.232,23.119999999999997,169.072,22.48,169.072,21.68C169.072,20.8,169.264,20.112000000000002,169.68,19.631999999999998C170.064,19.119999999999997,170.624,18.880000000000003,171.344,18.880000000000003ZM182.72,14.576L182.72,26L190.736,26L190.736,24.512L184.448,24.512L184.448,14.576L182.72,14.576ZM195.744,17.503999999999998C194.72,17.503999999999998,193.888,17.68,193.28,18.064C192.576,18.48,192.128,19.152,191.952,20.048000000000002L193.632,20.192C193.728,19.728,193.968,19.392,194.352,19.168C194.672,18.976,195.104,18.880000000000003,195.632,18.880000000000003C196.88,18.880000000000003,197.504,19.456,197.504,20.608L197.504,20.944000000000003L195.648,20.992C194.432,21.024,193.472,21.264,192.8,21.744C192.064,22.240000000000002,191.696,22.96,191.696,23.887999999999998C191.696,24.576,191.952,25.136,192.48,25.568C192.96,26,193.632,26.224,194.496,26.224C195.232,26.224,195.872,26.08,196.416,25.824C196.896,25.584,197.296,25.248,197.616,24.832L197.616,26L199.184,26L199.184,20.72C199.184,19.712,198.928,18.944000000000003,198.432,18.416C197.856,17.808,196.96,17.503999999999998,195.744,17.503999999999998ZM197.504,22.176000000000002L197.504,22.656C197.504,23.296,197.232,23.84,196.72,24.272C196.208,24.704,195.6,24.928,194.88,24.928C194.448,24.928,194.096,24.816,193.84,24.608C193.568,24.4,193.44,24.144,193.44,23.823999999999998C193.44,22.8,194.208,22.256,195.76,22.224L197.504,22.176000000000002ZM205.312,17.503999999999998C204.8,17.503999999999998,204.336,17.6,203.92,17.823999999999998C203.504,18.032,203.136,18.336,202.816,18.752000000000002L202.816,17.728L201.12,17.728L201.12,26L202.816,26L202.816,21.024C202.88,20.352,203.12,19.823999999999998,203.504,19.439999999999998C203.856,19.088,204.288,18.928,204.768,18.928C206.048,18.928,206.704,19.631999999999998,206.704,21.04L206.704,26L208.4,26L208.4,20.896C208.4,18.624000000000002,207.36,17.503999999999998,205.312,17.503999999999998ZM213.776,17.503999999999998C212.656,17.503999999999998,211.744,17.887999999999998,211.056,18.672C210.352,19.439999999999998,210.016,20.432000000000002,210.016,21.68C210.016,22.928,210.352,23.92,211.056,24.672C211.744,25.424,212.656,25.808,213.776,25.808C214.864,25.808,215.696,25.344,216.304,24.432L216.304,25.712C216.304,27.264,215.584,28.048,214.144,28.048C213.472,28.048,212.976,27.936,212.672,27.744C212.352,27.536,212.16,27.184,212.064,26.704L210.368,26.704C210.528,27.616,210.896,28.288,211.504,28.736C212.112,29.168,212.992,29.392,214.144,29.392C216.704,29.392,218,28.08,218,25.456L218,17.728L216.304,17.728L216.304,18.832C215.696,17.936,214.864,17.503999999999998,213.776,17.503999999999998ZM214.032,18.880000000000003C214.752,18.880000000000003,215.312,19.119999999999997,215.728,19.631999999999998C216.112,20.128,216.32,20.816000000000003,216.32,21.68C216.32,22.528,216.112,23.2,215.728,23.695999999999998C215.312,24.176,214.752,24.416,214.032,24.416C213.2,24.416,212.608,24.128,212.24,23.584C211.92,23.119999999999997,211.76,22.48,211.76,21.68C211.76,20.8,211.952,20.112000000000002,212.368,19.631999999999998C212.752,19.119999999999997,213.312,18.880000000000003,214.032,18.880000000000003ZM219.92,17.728L219.92,22.880000000000003C219.92,25.104,220.912,26.224,222.912,26.224C223.952,26.224,224.816,25.776,225.52,24.88L225.52,26L227.216,26L227.216,17.728L225.52,17.728L225.52,22.784C225.376,23.392,225.104,23.887999999999998,224.72,24.256C224.336,24.608,223.936,24.8,223.488,24.8C222.832,24.8,222.352,24.624,222.064,24.304C221.76,23.984,221.616,23.472,221.616,22.768L221.616,17.728L219.92,17.728ZM232.88,17.503999999999998C231.856,17.503999999999998,231.024,17.68,230.416,18.064C229.712,18.48,229.264,19.152,229.088,20.048000000000002L230.768,20.192C230.864,19.728,231.104,19.392,231.488,19.168C231.808,18.976,232.24,18.880000000000003,232.768,18.880000000000003C234.016,18.880000000000003,234.64,19.456,234.64,20.608L234.64,20.944000000000003L232.784,20.992C231.568,21.024,230.608,21.264,229.936,21.744C229.2,22.240000000000002,228.832,22.96,228.832,23.887999999999998C228.832,24.576,229.088,25.136,229.616,25.568C230.096,26,230.768,26.224,231.632,26.224C232.368,26.224,233.008,26.08,233.552,25.824C234.032,25.584,234.432,25.248,234.752,24.832L234.752,26L236.32,26L236.32,20.72C236.32,19.712,236.064,18.944000000000003,235.568,18.416C234.992,17.808,234.096,17.503999999999998,232.88,17.503999999999998ZM234.64,22.176000000000002L234.64,22.656C234.64,23.296,234.368,23.84,233.856,24.272C233.344,24.704,232.736,24.928,232.016,24.928C231.584,24.928,231.232,24.816,230.976,24.608C230.704,24.4,230.576,24.144,230.576,23.823999999999998C230.576,22.8,231.344,22.256,232.896,22.224L234.64,22.176000000000002ZM241.696,17.503999999999998C240.576,17.503999999999998,239.664,17.887999999999998,238.976,18.672C238.272,19.439999999999998,237.936,20.432000000000002,237.936,21.68C237.936,22.928,238.272,23.92,238.976,24.672C239.664,25.424,240.576,25.808,241.696,25.808C242.784,25.808,243.616,25.344,244.224,24.432L244.224,25.712C244.224,27.264,243.504,28.048,242.064,28.048C241.392,28.048,240.896,27.936,240.592,27.744C240.272,27.536,240.08,27.184,239.984,26.704L238.288,26.704C238.448,27.616,238.816,28.288,239.424,28.736C240.032,29.168,240.912,29.392,242.064,29.392C244.624,29.392,245.92,28.08,245.92,25.456L245.92,17.728L244.224,17.728L244.224,18.832C243.616,17.936,242.784,17.503999999999998,241.696,17.503999999999998ZM241.952,18.880000000000003C242.672,18.880000000000003,243.232,19.119999999999997,243.648,19.631999999999998C244.032,20.128,244.24,20.816000000000003,244.24,21.68C244.24,22.528,244.032,23.2,243.648,23.695999999999998C243.232,24.176,242.672,24.416,241.952,24.416C241.12,24.416,240.528,24.128,240.16,23.584C239.84,23.119999999999997,239.68,22.48,239.68,21.68C239.68,20.8,239.872,20.112000000000002,240.288,19.631999999999998C240.672,19.119999999999997,241.232,18.880000000000003,241.952,18.880000000000003ZM251.344,17.503999999999998C250.128,17.503999999999998,249.152,17.92,248.448,18.768C247.712,19.6,247.36,20.624000000000002,247.36,21.856C247.36,23.216,247.744,24.288,248.512,25.088C249.216,25.84,250.192,26.224,251.408,26.224C252.512,26.224,253.424,25.904,254.144,25.28C254.72,24.768,255.088,24.112,255.28,23.344L253.584,23.344C253.36,23.823999999999998,253.12,24.192,252.832,24.416C252.464,24.688,251.984,24.832,251.392,24.832C250.72,24.832,250.192,24.608,249.808,24.192C249.424,23.759999999999998,249.216,23.136,249.152,22.336L255.424,22.336C255.408,20.864,255.072,19.712,254.432,18.880000000000003C253.728,17.951999999999998,252.688,17.503999999999998,251.344,17.503999999999998ZM251.392,18.896C252.736,18.896,253.488,19.616,253.648,21.055999999999997L249.184,21.055999999999997C249.28,20.352,249.52,19.823999999999998,249.872,19.456C250.256,19.072,250.752,18.896,251.392,18.896ZM259.952,17.503999999999998C258.96000000000004,17.503999999999998,258.144,17.712,257.52,18.144C256.89599999999996,18.560000000000002,256.592,19.152,256.592,19.904C256.592,20.608,256.91200000000003,21.168,257.552,21.567999999999998C257.93600000000004,21.823999999999998,258.624,22.064,259.6,22.288C260.448,22.48,261.00800000000004,22.64,261.264,22.768C261.744,22.992,262,23.311999999999998,262,23.712C262,24.448,261.328,24.832,260.01599999999996,24.832C259.376,24.832,258.928,24.72,258.64,24.512C258.352,24.288,258.144,23.887999999999998,258.048,23.328L256.384,23.328C256.576,25.248,257.79200000000003,26.224,260.06399999999996,26.224C262.512,26.224,263.744,25.344,263.744,23.6C263.744,22.864,263.408,22.288,262.752,21.872C262.304,21.584,261.6,21.311999999999998,260.656,21.088C259.824,20.880000000000003,259.28,20.72,258.99199999999996,20.592C258.544,20.384,258.32,20.144,258.32,19.856C258.32,19.536,258.464,19.28,258.76800000000003,19.119999999999997C259.024,18.96,259.408,18.896,259.91999999999996,18.896C260.496,18.896,260.94399999999996,18.992,261.23199999999997,19.183999999999997C261.504,19.36,261.696,19.664,261.824,20.112000000000002L263.472,20.112000000000002C263.28,18.368000000000002,262.096,17.503999999999998,259.952,17.503999999999998Z" fill="#FFFFFF" fill-opacity="1"/></g></g></svg>