<svg xmlns="http://www.w3.org/2000/svg" xmlns:xlink="http://www.w3.org/1999/xlink" fill="none" version="1.1" width="253.5100860595703" height="38" viewBox="0 0 253.5100860595703 38"><defs><clipPath id="master_svg0_1_26439"><rect x="0" y="0" width="253.5100860595703" height="38" rx="0"/></clipPath><linearGradient x1="0.8318989276885986" y1="0.23354509472846985" x2="0.01724224165081978" y2="0.23354509472846985" id="master_svg1_1_1147"><stop offset="0%" stop-color="#B0CBF3" stop-opacity="1"/><stop offset="100%" stop-color="#DEEAFA" stop-opacity="1"/></linearGradient><linearGradient x1="1" y1="0.5" x2="0" y2="0.5" id="master_svg2_1_1150"><stop offset="0%" stop-color="#98B8E7" stop-opacity="1"/><stop offset="100%" stop-color="#7495C5" stop-opacity="1"/></linearGradient><linearGradient x1="0.5" y1="0.039383772760629654" x2="0.5" y2="1.020851969718933" id="master_svg3_1_1178"><stop offset="0%" stop-color="#ECA34A" stop-opacity="1"/><stop offset="100%" stop-color="#CA7604" stop-opacity="1"/></linearGradient><linearGradient x1="0.6394273042678833" y1="0.9153091907501221" x2="0.16735126533279146" y2="0.014369949532179183" id="master_svg4_1_1161"><stop offset="0%" stop-color="#EB9918" stop-opacity="1"/><stop offset="100%" stop-color="#FEF5A7" stop-opacity="1"/></linearGradient><linearGradient x1="0.7213248014450073" y1="0.7687666416168213" x2="0.07294611173889702" y2="0.09618088114354031" id="master_svg5_1_1162"><stop offset="0%" stop-color="#8CB0E4" stop-opacity="1"/><stop offset="100%" stop-color="#DEEAFA" stop-opacity="1"/></linearGradient><linearGradient x1="0.7213248014450073" y1="0.7687666416168213" x2="0.0729460502417519" y2="0.09618096096439079" id="master_svg6_1_1156"><stop offset="0%" stop-color="#B0CBF3" stop-opacity="1"/><stop offset="100%" stop-color="#DEEAFA" stop-opacity="1"/></linearGradient><mask id="master_svg7_1_26447" style="mask-type:alpha" maskUnits="objectBoundingBox"><g><path d="M12.842571875,3.973813328125L4.448610875,11.601826328125C4.052188875,11.962076328125,3.826171875,12.472866328125,3.826171875,13.008526328125L3.826171875,15.677136328125C3.826171875,16.170536328125,4.018025875,16.644636328125,4.361178875,16.999136328124997L21.317071875,34.516636328125C22.063971875,35.288336328125,23.301571875,35.288336328125,24.048571875,34.516636328125L41.004371875,16.999136328124997C41.347571875,16.644636328125,41.539471875,16.170536328125,41.539471875,15.677136328125L41.539471875,13.008526328125C41.539471875,12.472866328125,41.313371875,11.962076328125,40.916971875,11.601826328125L32.523071875,3.973813328125C32.173171875,3.655888328125,31.717371875,3.479736328125,31.244671875,3.479736328125L14.120871875,3.479736328125C13.648181875,3.479736328125,13.192421875,3.655888328125,12.842571875,3.973813328125" fill-rule="evenodd" fill="#FFFFFF" fill-opacity="1"/></g></mask><filter id="master_svg8_1_26448" filterUnits="objectBoundingBox" color-interpolation-filters="sRGB" x="0" y="0" width="1" height="1"><feFlood flood-opacity="0" result="BackgroundImageFix"/><feBlend mode="normal" in="SourceGraphic" in2="BackgroundImageFix" result="shape"/><feColorMatrix in="SourceAlpha" type="matrix" result="hardAlpha" values="0 0 0 0 0 0 0 0 0 0 0 0 0 0 0 0 0 0 127 0"/><feOffset dy="0" dx="0"/><feGaussianBlur stdDeviation="0.9503884315490723"/><feComposite in2="hardAlpha" operator="arithmetic" k2="-1" k3="1"/><feColorMatrix type="matrix" values="0 0 0 0 0.2078431397676468 0 0 0 0 0.2823529541492462 0 0 0 0 0.4431372582912445 0 0 0 1 0"/><feBlend mode="normal" in2="shape" result="effect1_innerShadow"/></filter><linearGradient x1="0.5948174595832825" y1="0" x2="-0.16350600124456868" y2="0.41285278897909045" id="master_svg9_1_1175"><stop offset="0%" stop-color="#FFFFFF" stop-opacity="1"/><stop offset="100%" stop-color="#FFFFFF" stop-opacity="0.47479718923568726"/></linearGradient></defs><g clip-path="url(#master_svg0_1_26439)"><g><g><path d="M24.871161328124998,8.4444580078125L251.321861328125,8.4444580078125C252.529861328125,8.4444580078125,253.509861328125,9.4241920078125,253.509861328125,10.6327580078125L253.509861328125,35.8117580078125C253.509861328125,37.0202580078125,252.529861328125,38.0000580078125,251.321861328125,38.0000580078125L24.871161328124998,38.0000580078125C23.662595328125,38.0000580078125,22.682861328125,37.0202580078125,22.682861328125,35.8117580078125L22.682861328125,10.6327580078125C22.682861328125,9.4241920078125,23.662595328125,8.4444580078125,24.871161328124998,8.4444580078125" fill-rule="evenodd" fill="url(#master_svg1_1_1147)" fill-opacity="1"/><path d="M24.871161328124998,8.4444580078125L251.321861328125,8.4444580078125C252.529861328125,8.4444580078125,253.509861328125,9.4241920078125,253.509861328125,10.6327580078125L253.509861328125,35.8117580078125C253.509861328125,37.0202580078125,252.529861328125,38.0000580078125,251.321861328125,38.0000580078125L24.871161328124998,38.0000580078125C23.662595328125,38.0000580078125,22.682861328125,37.0202580078125,22.682861328125,35.8117580078125L22.682861328125,10.6327580078125C22.682861328125,9.4241920078125,23.662595328125,8.4444580078125,24.871161328124998,8.4444580078125ZM24.871161328124998,8.8821170078125Q24.146021328125,8.8821170078125,23.633271328125,9.3948680078125Q23.120521328125,9.9076180078125,23.120521328125,10.6327580078125L23.120521328125,35.8117580078125Q23.120521328125,36.5368580078125,23.633271328125,37.0495580078125Q24.146021328125,37.5623580078125,24.871161328124998,37.5623580078125L251.321861328125,37.5623580078125Q252.046861328125,37.5623580078125,252.559861328125,37.0495580078125Q253.072861328125,36.5368580078125,253.072861328125,35.8117580078125L253.072861328125,10.6327580078125Q253.072861328125,9.9076180078125,252.559861328125,9.3948670078125Q252.046861328125,8.8821180078125,251.321861328125,8.8821180078125L24.871161328124998,8.8821170078125Z" fill-rule="evenodd" fill="url(#master_svg2_1_1150)" fill-opacity="1"/></g><g><g><path d="M32.714771875,3.7628083281249998Q32.089571875000004,3.194619328125,31.244671875,3.194620328125L14.120871875,3.194619328125Q13.276071875,3.194619328125,12.650821875,3.7628083281249998L4.256859875,11.390816328125Q3.541054875,12.041306328125,3.541054875,13.008526328125L3.541054875,15.677136328125Q3.541054875,16.561736328125,4.156313875,17.197436328125L21.112171875,34.714936328125Q21.756471875,35.380536328125004,22.682771875,35.380536328125004Q23.609171875,35.380536328125004,24.253471875,34.714936328125L41.209271875,17.197436328125Q41.824571875,16.561736328125,41.824571875,15.677136328125L41.824571875,13.008526328125Q41.824571875,12.041306328125,41.108771875,11.390816328125L32.714771875,3.7628083281249998ZM14.120871875,3.764853328125L31.244671875,3.764853328125Q31.869171875,3.764853328125,32.331271875,4.184818328125L40.725271875,11.812836328125Q41.254271875,12.293626328125,41.254271875,13.008526328125L41.254271875,15.677136328125Q41.254271875,16.331036328125002,40.799571875,16.800836328125L23.843671875,34.318336328125Q23.367471875,34.810336328125004,22.682771875,34.810336328125004Q21.998071875,34.810336328125004,21.521871875,34.318336328125L4.566044875,16.800836328125Q4.111288875,16.331036328125002,4.111288875,15.677136328125L4.111288875,13.008526328125Q4.111288875,12.293626328125,4.640361875,11.812836328125L13.034321875,4.184818328125Q13.496461875,3.764853328125,14.120871875,3.764853328125Z" fill-rule="evenodd" fill="url(#master_svg3_1_1178)" fill-opacity="1"/></g><g><g><path d="M11.655224609375,1.9014866679687499L2.040163609375,10.63920966796875C1.643741609375,10.99945966796875,1.417724609375,11.51020966796875,1.417724609375,12.04590966796875L1.417724609375,15.26110966796875C1.417724609375,15.75450966796875,1.609578609375,16.22850966796875,1.952732609375,16.58310966796875L21.317224609375,36.58900966796875C22.064224609375,37.36070966796875,23.301724609375,37.36070966796875,24.048724609375,36.58900966796875L43.413224609375,16.58310966796875C43.756324609375,16.22850966796875,43.948224609375,15.75450966796875,43.948224609375,15.26110966796875L43.948224609375,12.04590966796875C43.948224609375,11.51020966796875,43.722224609375,10.99945966796875,43.325724609375,10.63920966796875L33.710624609375,1.9014866679687499C33.360824609375,1.58356166796875,32.905024609375005,1.40740966796875,32.432324609375,1.40740966796875L12.933624609375,1.40740966796875C12.460924609375,1.40740966796875,12.005124609375,1.58356166796875,11.655224609375,1.9014866679687499" fill-rule="evenodd" fill="url(#master_svg4_1_1161)" fill-opacity="1"/><path d="M11.655224609375,1.9014866679687499L2.040163609375,10.63920966796875C1.643741609375,10.99945966796875,1.417724609375,11.51020966796875,1.417724609375,12.04590966796875L1.417724609375,15.26110966796875C1.417724609375,15.75450966796875,1.609578609375,16.22850966796875,1.952732609375,16.58310966796875L21.317224609375,36.58900966796875C22.064224609375,37.36070966796875,23.301724609375,37.36070966796875,24.048724609375,36.58900966796875L43.413224609375,16.58310966796875C43.756324609375,16.22850966796875,43.948224609375,15.75450966796875,43.948224609375,15.26110966796875L43.948224609375,12.04590966796875C43.948224609375,11.51020966796875,43.722224609375,10.99945966796875,43.325724609375,10.63920966796875L33.710624609375,1.9014866679687499C33.360824609375,1.58356166796875,32.905024609375005,1.40740966796875,32.432324609375,1.40740966796875L12.933624609375,1.40740966796875C12.460924609375,1.40740966796875,12.005124609375,1.58356166796875,11.655224609375,1.9014866679687499" fill-rule="evenodd" fill="url(#master_svg5_1_1162)" fill-opacity="1"/></g><g mask="url(#master_svg7_1_26447)"><g><path d="M12.842571875,3.973813328125L4.448610875,11.601826328125C4.052188875,11.962076328125,3.826171875,12.472866328125,3.826171875,13.008526328125L3.826171875,15.677136328125C3.826171875,16.170536328125,4.018025875,16.644636328125,4.361178875,16.999136328124997L21.317071875,34.516636328125C22.063971875,35.288336328125,23.301571875,35.288336328125,24.048571875,34.516636328125L41.004371875,16.999136328124997C41.347571875,16.644636328125,41.539471875,16.170536328125,41.539471875,15.677136328125L41.539471875,13.008526328125C41.539471875,12.472866328125,41.313371875,11.962076328125,40.916971875,11.601826328125L32.523071875,3.973813328125C32.173171875,3.655888328125,31.717371875,3.479736328125,31.244671875,3.479736328125L14.120871875,3.479736328125C13.648181875,3.479736328125,13.192421875,3.655888328125,12.842571875,3.973813328125" fill-rule="evenodd" fill="url(#master_svg6_1_1156)" fill-opacity="1"/></g><g filter="url(#master_svg8_1_26448)"><path d="M13.26904296875,11.0306396484375L13.26904296875,13.349869648437501L14.39347296875,13.349869648437501L22.36669296875,26.412839648437497L23.097822968750002,26.412839648437497L31.04234296875,13.349869648437501L32.09564296875,13.349869648437501L32.09564296875,11.0306396484375L28.11364296875,11.0306396484375L22.68234296875,19.7167196484375L17.37328296875,11.0306396484375L13.26904296875,11.0306396484375Z" fill-rule="evenodd" fill="#354871" fill-opacity="1"/></g><g style="opacity:0.31872761249542236;"><path d="M41.53890234375,5.721897373046875Q21.38400234375,6.655157373046875,7.53208234375,23.033207373046874Q5.38017234375,26.234607373046874,0.21240234375000078,14.393707373046874L15.12370234375,-0.378692626953125Q27.12820234375,0.26021237304687495,32.09560234375,1.407427373046875Q37.06290234375,2.554637373046875,41.53890234375,5.721897373046875Z" fill-rule="evenodd" fill="url(#master_svg9_1_1175)" fill-opacity="1"/></g></g></g></g></g><g><path d="M55.131826171875,15.999837158203125L55.131826171875,28.851837158203125L57.093826171875,28.851837158203125L57.093826171875,23.091837158203127L63.483826171875,23.091837158203127L63.483826171875,21.417837158203128L57.093826171875,21.417837158203128L57.093826171875,17.673837158203124L63.861826171875,17.673837158203124L63.861826171875,15.999837158203125L55.131826171875,15.999837158203125ZM69.729826171875,19.293837158203125C69.153826171875,19.293837158203125,68.649826171875,19.455837158203124,68.217826171875,19.815837158203124C67.857826171875,20.067837158203126,67.551826171875,20.445837158203126,67.317826171875,20.949837158203124L67.317826171875,19.545837158203128L65.409826171875,19.545837158203128L65.409826171875,28.851837158203125L67.317826171875,28.851837158203125L67.317826171875,23.919837158203123C67.317826171875,23.109837158203124,67.551826171875,22.443837158203124,68.037826171875,21.939837158203126C68.487826171875,21.471837158203122,69.009826171875,21.237837158203124,69.585826171875,21.237837158203124C70.017826171875,21.237837158203124,70.467826171875,21.291837158203123,70.935826171875,21.435837158203125L70.935826171875,19.527837158203127C70.611826171875,19.365837158203124,70.197826171875,19.293837158203125,69.729826171875,19.293837158203125ZM76.047826171875,19.293837158203125C74.67982617187499,19.293837158203125,73.58182617187501,19.761837158203125,72.789826171875,20.715837158203126C71.961826171875,21.651837158203126,71.565826171875,22.803837158203123,71.565826171875,24.189837158203126C71.565826171875,25.719837158203127,71.997826171875,26.925837158203127,72.861826171875,27.825837158203125C73.653826171875,28.671837158203125,74.751826171875,29.103837158203124,76.119826171875,29.103837158203124C77.361826171875,29.103837158203124,78.38782617187499,28.743837158203124,79.197826171875,28.041837158203126C79.845826171875,27.465837158203126,80.259826171875,26.727837158203126,80.475826171875,25.863837158203125L78.567826171875,25.863837158203125C78.315826171875,26.403837158203125,78.045826171875,26.817837158203126,77.721826171875,27.069837158203125C77.307826171875,27.375837158203126,76.767826171875,27.537837158203125,76.101826171875,27.537837158203125C75.345826171875,27.537837158203125,74.751826171875,27.285837158203126,74.31982617187501,26.817837158203126C73.88782617187499,26.331837158203125,73.653826171875,25.629837158203124,73.58182617187501,24.729837158203125L80.63782617187499,24.729837158203125C80.619826171875,23.073837158203126,80.241826171875,21.777837158203127,79.521826171875,20.841837158203127C78.729826171875,19.797837158203123,77.559826171875,19.293837158203125,76.047826171875,19.293837158203125ZM76.101826171875,20.859837158203124C77.613826171875,20.859837158203124,78.459826171875,21.669837158203123,78.639826171875,23.289837158203127L73.617826171875,23.289837158203127C73.725826171875,22.497837158203126,73.995826171875,21.903837158203125,74.391826171875,21.489837158203123C74.823826171875,21.057837158203125,75.381826171875,20.859837158203124,76.101826171875,20.859837158203124ZM86.199826171875,19.293837158203125C84.83182617187501,19.293837158203125,83.733826171875,19.761837158203125,82.941826171875,20.715837158203126C82.113826171875,21.651837158203126,81.717826171875,22.803837158203123,81.717826171875,24.189837158203126C81.717826171875,25.719837158203127,82.14982617187499,26.925837158203127,83.013826171875,27.825837158203125C83.805826171875,28.671837158203125,84.903826171875,29.103837158203124,86.271826171875,29.103837158203124C87.513826171875,29.103837158203124,88.539826171875,28.743837158203124,89.34982617187501,28.041837158203126C89.997826171875,27.465837158203126,90.41182617187499,26.727837158203126,90.627826171875,25.863837158203125L88.719826171875,25.863837158203125C88.467826171875,26.403837158203125,88.197826171875,26.817837158203126,87.87382617187501,27.069837158203125C87.459826171875,27.375837158203126,86.919826171875,27.537837158203125,86.253826171875,27.537837158203125C85.497826171875,27.537837158203125,84.903826171875,27.285837158203126,84.471826171875,26.817837158203126C84.039826171875,26.331837158203125,83.805826171875,25.629837158203124,83.733826171875,24.729837158203125L90.789826171875,24.729837158203125C90.771826171875,23.073837158203126,90.39382617187499,21.777837158203127,89.67382617187499,20.841837158203127C88.88182617187499,19.797837158203123,87.711826171875,19.293837158203125,86.199826171875,19.293837158203125ZM86.253826171875,20.859837158203124C87.765826171875,20.859837158203124,88.61182617187501,21.669837158203123,88.791826171875,23.289837158203127L83.769826171875,23.289837158203127C83.877826171875,22.497837158203126,84.147826171875,21.903837158203125,84.543826171875,21.489837158203123C84.975826171875,21.057837158203125,85.533826171875,20.859837158203124,86.253826171875,20.859837158203124ZM102.07582617187501,15.999837158203125C101.247826171875,15.999837158203125,100.63582617187501,16.215837158203126,100.203826171875,16.683837158203126C99.771826171875,17.115837158203124,99.555826171875,17.745837158203123,99.555826171875,18.537837158203125L99.555826171875,19.545837158203128L97.413826171875,19.545837158203128L97.413826171875,21.111837158203123L99.555826171875,21.111837158203123L99.555826171875,28.851837158203125L101.445826171875,28.851837158203125L101.445826171875,21.111837158203123L103.89382617187499,21.111837158203123L103.89382617187499,19.545837158203128L101.445826171875,19.545837158203128L101.445826171875,18.591837158203127C101.445826171875,18.249837158203125,101.517826171875,17.997837158203126,101.66182617187499,17.853837158203127C101.805826171875,17.691837158203125,102.039826171875,17.619837158203126,102.34582617187499,17.619837158203126L104.019826171875,17.619837158203126L104.019826171875,15.999837158203125L102.07582617187501,15.999837158203125ZM109.473826171875,19.293837158203125C108.06982617187501,19.293837158203125,106.935826171875,19.761837158203125,106.089826171875,20.697837158203125C105.243826171875,21.615837158203124,104.829826171875,22.785837158203122,104.829826171875,24.207837158203127C104.829826171875,25.611837158203123,105.243826171875,26.781837158203125,106.071826171875,27.681837158203123C106.935826171875,28.617837158203123,108.06982617187501,29.103837158203124,109.473826171875,29.103837158203124C110.877826171875,29.103837158203124,112.011826171875,28.617837158203123,112.87582617187499,27.681837158203123C113.703826171875,26.781837158203125,114.11782617187501,25.611837158203123,114.11782617187501,24.207837158203127C114.11782617187501,22.785837158203122,113.685826171875,21.615837158203124,112.85782617187499,20.697837158203125C112.011826171875,19.761837158203125,110.877826171875,19.293837158203125,109.473826171875,19.293837158203125ZM109.473826171875,20.859837158203124C110.35582617187501,20.859837158203124,111.039826171875,21.201837158203126,111.543826171875,21.903837158203125C111.975826171875,22.497837158203126,112.191826171875,23.271837158203127,112.191826171875,24.207837158203127C112.191826171875,25.125837158203126,111.975826171875,25.881837158203126,111.543826171875,26.493837158203124C111.039826171875,27.177837158203126,110.35582617187501,27.537837158203125,109.473826171875,27.537837158203125C108.591826171875,27.537837158203125,107.907826171875,27.177837158203126,107.421826171875,26.493837158203124C106.989826171875,25.899837158203123,106.791826171875,25.143837158203127,106.791826171875,24.207837158203127C106.791826171875,23.271837158203127,106.989826171875,22.497837158203126,107.421826171875,21.903837158203125C107.907826171875,21.201837158203126,108.591826171875,20.859837158203124,109.473826171875,20.859837158203124ZM120.255826171875,19.293837158203125C119.679826171875,19.293837158203125,119.175826171875,19.455837158203124,118.743826171875,19.815837158203124C118.383826171875,20.067837158203126,118.077826171875,20.445837158203126,117.84382617187501,20.949837158203124L117.84382617187501,19.545837158203128L115.935826171875,19.545837158203128L115.935826171875,28.851837158203125L117.84382617187501,28.851837158203125L117.84382617187501,23.919837158203123C117.84382617187501,23.109837158203124,118.077826171875,22.443837158203124,118.563826171875,21.939837158203126C119.013826171875,21.471837158203122,119.535826171875,21.237837158203124,120.111826171875,21.237837158203124C120.543826171875,21.237837158203124,120.993826171875,21.291837158203123,121.461826171875,21.435837158203125L121.461826171875,19.527837158203127C121.137826171875,19.365837158203124,120.723826171875,19.293837158203125,120.255826171875,19.293837158203125ZM128.805826171875,15.999837158203125L128.805826171875,28.851837158203125L130.76782617187502,28.851837158203125L130.76782617187502,23.847837158203127L134.097826171875,23.847837158203127C137.175826171875,23.847837158203127,138.723826171875,22.533837158203127,138.723826171875,19.905837158203127C138.723826171875,17.295837158203124,137.193826171875,15.999837158203125,134.133826171875,15.999837158203125L128.805826171875,15.999837158203125ZM130.76782617187502,17.673837158203124L133.971826171875,17.673837158203124C134.925826171875,17.673837158203124,135.627826171875,17.853837158203127,136.07782617187502,18.213837158203127C136.527826171875,18.537837158203125,136.761826171875,19.113837158203125,136.761826171875,19.905837158203127C136.761826171875,20.697837158203125,136.527826171875,21.273837158203126,136.095826171875,21.633837158203125C135.645826171875,21.993837158203124,134.943826171875,22.173837158203124,133.971826171875,22.173837158203124L130.76782617187502,22.173837158203124L130.76782617187502,17.673837158203124ZM144.30382617187502,19.293837158203125C142.935826171875,19.293837158203125,141.837826171875,19.761837158203125,141.045826171875,20.715837158203126C140.217826171875,21.651837158203126,139.821826171875,22.803837158203123,139.821826171875,24.189837158203126C139.821826171875,25.719837158203127,140.253826171875,26.925837158203127,141.11782617187498,27.825837158203125C141.909826171875,28.671837158203125,143.007826171875,29.103837158203124,144.37582617187502,29.103837158203124C145.61782617187498,29.103837158203124,146.643826171875,28.743837158203124,147.453826171875,28.041837158203126C148.10182617187502,27.465837158203126,148.515826171875,26.727837158203126,148.731826171875,25.863837158203125L146.823826171875,25.863837158203125C146.571826171875,26.403837158203125,146.301826171875,26.817837158203126,145.977826171875,27.069837158203125C145.563826171875,27.375837158203126,145.023826171875,27.537837158203125,144.357826171875,27.537837158203125C143.60182617187502,27.537837158203125,143.007826171875,27.285837158203126,142.575826171875,26.817837158203126C142.143826171875,26.331837158203125,141.909826171875,25.629837158203124,141.837826171875,24.729837158203125L148.893826171875,24.729837158203125C148.87582617187502,23.073837158203126,148.497826171875,21.777837158203127,147.777826171875,20.841837158203127C146.985826171875,19.797837158203123,145.81582617187502,19.293837158203125,144.30382617187502,19.293837158203125ZM144.357826171875,20.859837158203124C145.869826171875,20.859837158203124,146.715826171875,21.669837158203123,146.895826171875,23.289837158203127L141.873826171875,23.289837158203127C141.981826171875,22.497837158203126,142.251826171875,21.903837158203125,142.647826171875,21.489837158203123C143.079826171875,21.057837158203125,143.63782617187502,20.859837158203124,144.357826171875,20.859837158203124ZM154.833826171875,19.293837158203125C154.257826171875,19.293837158203125,153.753826171875,19.455837158203124,153.321826171875,19.815837158203124C152.961826171875,20.067837158203126,152.655826171875,20.445837158203126,152.421826171875,20.949837158203124L152.421826171875,19.545837158203128L150.513826171875,19.545837158203128L150.513826171875,28.851837158203125L152.421826171875,28.851837158203125L152.421826171875,23.919837158203123C152.421826171875,23.109837158203124,152.655826171875,22.443837158203124,153.14182617187498,21.939837158203126C153.591826171875,21.471837158203122,154.11382617187502,21.237837158203124,154.68982617187498,21.237837158203124C155.121826171875,21.237837158203124,155.571826171875,21.291837158203123,156.039826171875,21.435837158203125L156.039826171875,19.527837158203127C155.715826171875,19.365837158203124,155.301826171875,19.293837158203125,154.833826171875,19.293837158203125ZM160.683826171875,19.293837158203125C159.567826171875,19.293837158203125,158.64982617187502,19.527837158203127,157.947826171875,20.013837158203124C157.245826171875,20.481837158203128,156.90382617187498,21.147837158203124,156.90382617187498,21.993837158203124C156.90382617187498,22.785837158203122,157.263826171875,23.415837158203125,157.983826171875,23.865837158203124C158.41582617187498,24.153837158203125,159.18982617187498,24.423837158203124,160.287826171875,24.675837158203123C161.241826171875,24.891837158203124,161.871826171875,25.071837158203124,162.159826171875,25.215837158203126C162.699826171875,25.467837158203125,162.98782617187499,25.827837158203124,162.98782617187499,26.277837158203123C162.98782617187499,27.105837158203126,162.231826171875,27.537837158203125,160.75582617187501,27.537837158203125C160.035826171875,27.537837158203125,159.531826171875,27.411837158203124,159.207826171875,27.177837158203126C158.883826171875,26.925837158203127,158.64982617187502,26.475837158203124,158.54182617187502,25.845837158203125L156.669826171875,25.845837158203125C156.885826171875,28.005837158203125,158.253826171875,29.103837158203124,160.809826171875,29.103837158203124C163.563826171875,29.103837158203124,164.949826171875,28.113837158203125,164.949826171875,26.151837158203126C164.949826171875,25.323837158203126,164.571826171875,24.675837158203123,163.833826171875,24.207837158203127C163.329826171875,23.883837158203125,162.537826171875,23.577837158203124,161.47582617187498,23.325837158203125C160.539826171875,23.091837158203127,159.92782617187498,22.911837158203127,159.603826171875,22.767837158203125C159.099826171875,22.533837158203127,158.847826171875,22.263837158203124,158.847826171875,21.939837158203126C158.847826171875,21.579837158203127,159.009826171875,21.291837158203123,159.35182617187502,21.111837158203123C159.639826171875,20.931837158203123,160.071826171875,20.859837158203124,160.647826171875,20.859837158203124C161.295826171875,20.859837158203124,161.799826171875,20.967837158203125,162.123826171875,21.183837158203126C162.429826171875,21.381837158203126,162.645826171875,21.723837158203125,162.789826171875,22.227837158203123L164.643826171875,22.227837158203123C164.42782617187498,20.265837158203126,163.095826171875,19.293837158203125,160.683826171875,19.293837158203125ZM170.853826171875,19.293837158203125C169.449826171875,19.293837158203125,168.31582617187502,19.761837158203125,167.469826171875,20.697837158203125C166.623826171875,21.615837158203124,166.209826171875,22.785837158203122,166.209826171875,24.207837158203127C166.209826171875,25.611837158203123,166.623826171875,26.781837158203125,167.45182617187498,27.681837158203123C168.31582617187502,28.617837158203123,169.449826171875,29.103837158203124,170.853826171875,29.103837158203124C172.257826171875,29.103837158203124,173.39182617187498,28.617837158203123,174.25582617187501,27.681837158203123C175.083826171875,26.781837158203125,175.497826171875,25.611837158203123,175.497826171875,24.207837158203127C175.497826171875,22.785837158203122,175.06582617187502,21.615837158203124,174.23782617187499,20.697837158203125C173.39182617187498,19.761837158203125,172.257826171875,19.293837158203125,170.853826171875,19.293837158203125ZM170.853826171875,20.859837158203124C171.735826171875,20.859837158203124,172.419826171875,21.201837158203126,172.92382617187502,21.903837158203125C173.35582617187498,22.497837158203126,173.571826171875,23.271837158203127,173.571826171875,24.207837158203127C173.571826171875,25.125837158203126,173.35582617187498,25.881837158203126,172.92382617187502,26.493837158203124C172.419826171875,27.177837158203126,171.735826171875,27.537837158203125,170.853826171875,27.537837158203125C169.971826171875,27.537837158203125,169.287826171875,27.177837158203126,168.801826171875,26.493837158203124C168.369826171875,25.899837158203123,168.171826171875,25.143837158203127,168.171826171875,24.207837158203127C168.171826171875,23.271837158203127,168.369826171875,22.497837158203126,168.801826171875,21.903837158203125C169.287826171875,21.201837158203126,169.971826171875,20.859837158203124,170.853826171875,20.859837158203124ZM182.031826171875,19.293837158203125C181.455826171875,19.293837158203125,180.933826171875,19.401837158203126,180.465826171875,19.653837158203125C179.997826171875,19.887837158203126,179.583826171875,20.229837158203125,179.223826171875,20.697837158203125L179.223826171875,19.545837158203128L177.31582617187502,19.545837158203128L177.31582617187502,28.851837158203125L179.223826171875,28.851837158203125L179.223826171875,23.253837158203126C179.295826171875,22.497837158203126,179.56582617187502,21.903837158203125,179.997826171875,21.471837158203122C180.393826171875,21.075837158203125,180.87982617187498,20.895837158203125,181.419826171875,20.895837158203125C182.859826171875,20.895837158203125,183.597826171875,21.687837158203124,183.597826171875,23.271837158203127L183.597826171875,28.851837158203125L185.505826171875,28.851837158203125L185.505826171875,23.109837158203124C185.505826171875,20.553837158203123,184.335826171875,19.293837158203125,182.031826171875,19.293837158203125ZM191.877826171875,19.293837158203125C190.725826171875,19.293837158203125,189.789826171875,19.491837158203126,189.105826171875,19.923837158203124C188.313826171875,20.391837158203124,187.809826171875,21.147837158203124,187.611826171875,22.155837158203127L189.501826171875,22.317837158203126C189.609826171875,21.795837158203128,189.879826171875,21.417837158203128,190.311826171875,21.165837158203125C190.671826171875,20.949837158203124,191.157826171875,20.841837158203127,191.751826171875,20.841837158203127C193.155826171875,20.841837158203127,193.857826171875,21.489837158203123,193.857826171875,22.785837158203122L193.857826171875,23.163837158203123L191.769826171875,23.217837158203125C190.401826171875,23.253837158203126,189.321826171875,23.523837158203126,188.565826171875,24.063837158203125C187.737826171875,24.621837158203125,187.323826171875,25.431837158203123,187.323826171875,26.475837158203124C187.323826171875,27.249837158203125,187.611826171875,27.879837158203124,188.205826171875,28.365837158203124C188.745826171875,28.851837158203125,189.501826171875,29.103837158203124,190.473826171875,29.103837158203124C191.301826171875,29.103837158203124,192.021826171875,28.941837158203125,192.633826171875,28.653837158203125C193.173826171875,28.383837158203125,193.623826171875,28.005837158203125,193.983826171875,27.537837158203125L193.983826171875,28.851837158203125L195.747826171875,28.851837158203125L195.747826171875,22.911837158203127C195.747826171875,21.777837158203127,195.459826171875,20.913837158203123,194.901826171875,20.319837158203125C194.253826171875,19.635837158203124,193.245826171875,19.293837158203125,191.877826171875,19.293837158203125ZM193.857826171875,24.549837158203125L193.857826171875,25.089837158203125C193.857826171875,25.809837158203123,193.551826171875,26.421837158203125,192.975826171875,26.907837158203126C192.399826171875,27.393837158203127,191.715826171875,27.645837158203125,190.905826171875,27.645837158203125C190.419826171875,27.645837158203125,190.023826171875,27.519837158203124,189.735826171875,27.285837158203126C189.429826171875,27.051837158203124,189.285826171875,26.763837158203124,189.285826171875,26.403837158203125C189.285826171875,25.251837158203124,190.149826171875,24.639837158203125,191.895826171875,24.603837158203127L193.857826171875,24.549837158203125ZM198.141826171875,15.747837158203126L198.141826171875,28.851837158203125L200.049826171875,28.851837158203125L200.049826171875,15.747837158203126L198.141826171875,15.747837158203126ZM208.599826171875,15.999837158203125L208.599826171875,23.955837158203124C208.599826171875,25.629837158203124,209.067826171875,26.907837158203126,210.003826171875,27.807837158203125C210.903826171875,28.671837158203125,212.199826171875,29.103837158203124,213.909826171875,29.103837158203124C215.601826171875,29.103837158203124,216.897826171875,28.653837158203125,217.815826171875,27.789837158203124C218.733826171875,26.907837158203126,219.201826171875,25.629837158203124,219.201826171875,23.955837158203124L219.201826171875,15.999837158203125L217.239826171875,15.999837158203125L217.239826171875,23.991837158203126C217.239826171875,25.143837158203127,216.969826171875,25.989837158203127,216.447826171875,26.547837158203127C215.907826171875,27.105837158203126,215.061826171875,27.393837158203127,213.909826171875,27.393837158203127C212.739826171875,27.393837158203127,211.893826171875,27.105837158203126,211.353826171875,26.547837158203127C210.813826171875,25.989837158203127,210.561826171875,25.143837158203127,210.561826171875,23.991837158203126L210.561826171875,15.999837158203125L208.599826171875,15.999837158203125ZM225.015826171875,19.293837158203125C223.899826171875,19.293837158203125,222.981826171875,19.527837158203127,222.279826171875,20.013837158203124C221.577826171875,20.481837158203128,221.235826171875,21.147837158203124,221.235826171875,21.993837158203124C221.235826171875,22.785837158203122,221.595826171875,23.415837158203125,222.315826171875,23.865837158203124C222.747826171875,24.153837158203125,223.521826171875,24.423837158203124,224.619826171875,24.675837158203123C225.573826171875,24.891837158203124,226.203826171875,25.071837158203124,226.491826171875,25.215837158203126C227.031826171875,25.467837158203125,227.319826171875,25.827837158203124,227.319826171875,26.277837158203123C227.319826171875,27.105837158203126,226.563826171875,27.537837158203125,225.087826171875,27.537837158203125C224.367826171875,27.537837158203125,223.863826171875,27.411837158203124,223.539826171875,27.177837158203126C223.215826171875,26.925837158203127,222.981826171875,26.475837158203124,222.873826171875,25.845837158203125L221.001826171875,25.845837158203125C221.217826171875,28.005837158203125,222.585826171875,29.103837158203124,225.141826171875,29.103837158203124C227.895826171875,29.103837158203124,229.281826171875,28.113837158203125,229.281826171875,26.151837158203126C229.281826171875,25.323837158203126,228.903826171875,24.675837158203123,228.165826171875,24.207837158203127C227.661826171875,23.883837158203125,226.869826171875,23.577837158203124,225.807826171875,23.325837158203125C224.871826171875,23.091837158203127,224.259826171875,22.911837158203127,223.935826171875,22.767837158203125C223.431826171875,22.533837158203127,223.179826171875,22.263837158203124,223.179826171875,21.939837158203126C223.179826171875,21.579837158203127,223.341826171875,21.291837158203123,223.683826171875,21.111837158203123C223.971826171875,20.931837158203123,224.403826171875,20.859837158203124,224.979826171875,20.859837158203124C225.627826171875,20.859837158203124,226.131826171875,20.967837158203125,226.455826171875,21.183837158203126C226.761826171875,21.381837158203126,226.977826171875,21.723837158203125,227.121826171875,22.227837158203123L228.975826171875,22.227837158203123C228.759826171875,20.265837158203126,227.427826171875,19.293837158203125,225.015826171875,19.293837158203125ZM234.843826171875,19.293837158203125C233.475826171875,19.293837158203125,232.377826171875,19.761837158203125,231.585826171875,20.715837158203126C230.757826171875,21.651837158203126,230.361826171875,22.803837158203123,230.361826171875,24.189837158203126C230.361826171875,25.719837158203127,230.793826171875,26.925837158203127,231.657826171875,27.825837158203125C232.449826171875,28.671837158203125,233.547826171875,29.103837158203124,234.915826171875,29.103837158203124C236.157826171875,29.103837158203124,237.183826171875,28.743837158203124,237.993826171875,28.041837158203126C238.641826171875,27.465837158203126,239.055826171875,26.727837158203126,239.271826171875,25.863837158203125L237.363826171875,25.863837158203125C237.111826171875,26.403837158203125,236.841826171875,26.817837158203126,236.517826171875,27.069837158203125C236.103826171875,27.375837158203126,235.563826171875,27.537837158203125,234.897826171875,27.537837158203125C234.141826171875,27.537837158203125,233.547826171875,27.285837158203126,233.115826171875,26.817837158203126C232.683826171875,26.331837158203125,232.449826171875,25.629837158203124,232.377826171875,24.729837158203125L239.433826171875,24.729837158203125C239.415826171875,23.073837158203126,239.037826171875,21.777837158203127,238.317826171875,20.841837158203127C237.525826171875,19.797837158203123,236.355826171875,19.293837158203125,234.843826171875,19.293837158203125ZM234.897826171875,20.859837158203124C236.409826171875,20.859837158203124,237.255826171875,21.669837158203123,237.435826171875,23.289837158203127L232.413826171875,23.289837158203127C232.521826171875,22.497837158203126,232.791826171875,21.903837158203125,233.187826171875,21.489837158203123C233.619826171875,21.057837158203125,234.177826171875,20.859837158203124,234.897826171875,20.859837158203124Z" fill="#2E3E58" fill-opacity="1"/></g></g></svg>