<svg xmlns="http://www.w3.org/2000/svg" xmlns:xlink="http://www.w3.org/1999/xlink" fill="none" version="1.1" width="223.8701171875" height="50" viewBox="0 0 223.8701171875 50"><defs><clipPath id="master_svg0_503_54166"><rect x="218.738525390625" y="0.923583984375" width="5.131591320037842" height="5.1314697265625" rx="0"/></clipPath><linearGradient x1="9.370587833225727" y1="14.341796934604645" x2="216.49269890785217" y2="36.19763255119324" gradientUnits="userSpaceOnUse" id="master_svg1_113_31463"><stop offset="0%" stop-color="#2A7FFF" stop-opacity="1"/><stop offset="93.57143044471741%" stop-color="#FFFFFF" stop-opacity="1"/></linearGradient></defs><g><g><g clip-path="url(#master_svg0_503_54166)"><g><path d="M219.31438259375,3.919056318359375L220.28888859375,4.451996318359376C220.31208859375,4.464676318359375,220.33107859375,4.483666318359375,220.34375859375,4.506866318359375L220.87670859375,5.481346318359375C220.92065859375,5.561676318359375,220.98520859375,5.627626318359375,221.06338859375,5.672026318359375C221.13669859375,5.713666318359375,221.22048859375,5.735666318359375,221.30567859375,5.735666318359375C221.39086859375,5.735666318359375,221.47465859375,5.713666318359375,221.54797859375,5.672026318359375C221.62615859375,5.627626318359375,221.69074859375,5.561676318359375,221.73464859375,5.481346318359375L222.26760859375,4.506866318359375C222.28027859375,4.483666318359375,222.29927859375,4.464676318359375,222.32247859375,4.451996318359376L223.29707859375,3.919056318359375C223.37740859375,3.875106318359375,223.44335859375,3.810566318359375,223.48775859375,3.732386318359375C223.52940859375,3.659076318359375,223.55140859375,3.575286318359375,223.55140859375,3.490096318359375C223.55140859375,3.404906318359375,223.52940859375,3.321116318359375,223.48775859375,3.247806318359375C223.44335859375,3.169626318359375,223.37740859375,3.105036318359375,223.29707859375,3.0611363183593747L222.28709859375,2.5087563183593753L221.73474859375,1.498794318359375C221.69079859375,1.418465318359375,221.62625859375,1.352517318359375,221.54807859375,1.308118618359375C221.47475859375,1.266475518359375,221.39097859375,1.244476318359375,221.30577859375,1.244476318359375C221.22058859375,1.244476318359375,221.13679859375,1.266475518359375,221.06348859375,1.308118618359375C220.98530859375,1.352517318359375,220.92070859375,1.418465318359375,220.87680859375,1.498794318359375L220.34380859375,2.4732763183593747C220.33115859375,2.496446318359375,220.31210859375,2.515496318359375,220.28893859375,2.528146318359375L219.31438259375,3.061086318359375C219.23405159375,3.105036318359375,219.16810259375,3.169576318359375,219.12370239375,3.247756318359375C219.08205829375,3.321066318359375,219.06005859375,3.404856318359375,219.06005859375,3.490046318359375C219.06005859375,3.575236318359375,219.08205829375,3.659026318359375,219.12370239375,3.732336318359375C219.16815259375,3.810566318359375,219.23405159375,3.875106318359375,219.31438259375,3.919056318359375Z" fill="#0066FE" fill-opacity="1" style="mix-blend-mode:passthrough"/></g></g><g><g><path d="M206.159836921875,11.0778536328125L208.835019921875,12.5409136328125C208.898719921875,12.5757136328125,208.950859921875,12.6278536328125,208.985659921875,12.6915536328125L210.448719921875,15.3667736328125C210.569369921875,15.5872736328125,210.746549921875,15.7682736328125,210.961159921875,15.8901736328125C211.162429921875,16.0044736328125,211.392449921875,16.0648736328125,211.626319921875,16.0648736328125C211.860179921875,16.0648736328125,212.090199921875,16.0044736328125,212.291469921875,15.8901736328125C212.506069921875,15.7682736328125,212.683399921875,15.5872736328125,212.803909921875,15.3667736328125L214.266969921875,12.6915536328125C214.301769921875,12.6278536328125,214.353909921875,12.5757136328125,214.417609921875,12.5409136328125L217.09306992187499,11.0778536328125C217.313569921875,10.9572036328125,217.494669921875,10.7800136328125,217.616569921875,10.565403632812501C217.730869921875,10.3641436328125,217.791269921875,10.1341236328125,217.791269921875,9.9002536328125C217.791269921875,9.6663836328125,217.730869921875,9.4363736328125,217.616569921875,9.2351036328125C217.494669921875,9.0204936328125,217.313569921875,8.843173632812501,217.09306992187499,8.7226536328125L214.320479921875,7.2062236328125L212.804189921875,4.4336406328125C212.683539921875,4.2131166328125,212.506349921875,4.0320746328125,212.291739921875,3.9101876328125C212.090479921875,3.7958668328125,211.860459921875,3.7354736328125,211.626589921875,3.7354736328125C211.392719921875,3.7354736328125,211.162699921875,3.7958668328125,210.961439921875,3.9101876328125C210.746829921875,4.0320746328125,210.569499921875,4.2131166328125,210.448989921875,4.4336406328125L208.985799921875,7.1088236328125C208.951069921875,7.1724436328125005,208.898779921875,7.2247336328125,208.835159921875,7.2594636328124995L206.159836921875,8.7225236328125C205.939312921875,8.843173632812501,205.758270921875,9.020353632812501,205.636383921875,9.2349636328125C205.522063121875,9.436233632812499,205.461669921875,9.6662536328125,205.461669921875,9.9001236328125C205.461669921875,10.1339836328125,205.522063121875,10.3640036328125,205.636383921875,10.565273632812499C205.758407921875,10.7800136328125,205.939312921875,10.9572036328125,206.159836921875,11.0778536328125Z" fill="#FFFFFF" fill-opacity="1" style="mix-blend-mode:passthrough"/></g></g></g><g><g><path d="M11.976,11.792C9.24,11.792,6.972,12.404,5.172,13.628C3.264,14.924,2.328,16.688,2.328,18.956C2.328,21.188,3.3,22.916,5.28,24.104C6.072,24.536,8.016,25.22,11.184,26.228C14.028,27.092,15.72,27.668,16.296,27.956C17.916,28.784,18.744,29.9,18.744,31.34C18.744,32.492,18.168,33.392,17.016,34.04C15.864,34.688,14.316,35.048,12.372,35.048C10.212,35.048,8.628,34.652,7.584,33.86C6.432,32.996,5.712,31.52,5.424,29.504L1.536,29.504C1.752,32.744,2.904,35.12,5.028,36.632C6.792,37.856,9.24,38.504,12.372,38.504C15.612,38.504,18.132,37.856,19.932,36.56C21.732,35.228,22.632,33.428,22.632,31.124C22.632,28.748,21.516,26.912,19.32,25.58C18.312,24.968,16.044,24.14,12.588,23.06C10.176,22.34,8.7,21.8,8.124,21.476C6.828,20.792,6.216,19.892,6.216,18.74C6.216,17.444,6.756,16.508,7.872,15.932C8.772,15.428,10.068,15.176,11.76,15.176C13.704,15.176,15.144,15.536,16.152,16.292C17.16,17.012,17.808,18.236,18.168,19.892L22.056,19.892C21.804,17.084,20.796,15.032,18.996,13.7C17.304,12.404,14.964,11.792,11.976,11.792ZM31.56,13.376L27.744,14.96L27.744,19.388L24.288,19.388L24.288,22.556L27.744,22.556L27.744,33.356C27.744,34.832,28.068,35.948,28.788,36.74C29.508,37.568,30.696,38,32.28,38L35.34,38L35.34,34.832L32.892,34.832C32.424,34.832,32.1,34.688,31.884,34.472C31.668,34.22,31.56,33.86,31.56,33.356L31.56,22.556L35.808,22.556L35.808,19.388L31.56,19.388L31.56,13.376ZM47.508,18.884C46.356,18.884,45.348,19.208,44.484,19.928C43.764,20.432,43.152,21.188,42.684,22.196L42.684,19.388L38.868,19.388L38.868,38L42.684,38L42.684,28.136C42.684,26.516,43.152,25.184,44.124,24.176C45.024,23.24,46.068,22.772,47.22,22.772C48.084,22.772,48.984,22.88,49.92,23.168L49.92,19.352C49.272,19.028,48.444,18.884,47.508,18.884ZM54.96,11.936C54.204,11.936,53.592,12.152,53.088,12.656C52.584,13.124,52.332,13.736,52.332,14.492C52.332,15.212,52.584,15.86,53.088,16.364C53.592,16.832,54.204,17.084,54.96,17.084C55.68,17.084,56.328,16.832,56.832,16.364C57.336,15.86,57.624,15.248,57.624,14.492C57.624,13.736,57.372,13.124,56.868,12.656C56.364,12.152,55.716,11.936,54.96,11.936ZM53.052,19.388L53.052,38L56.868,38L56.868,19.388L53.052,19.388ZM70.296,18.884C67.416,18.884,65.184,19.856,63.564,21.8C62.052,23.6,61.296,25.904,61.296,28.712C61.296,31.592,62.052,33.896,63.6,35.696C65.184,37.568,67.38,38.504,70.224,38.504C72.6,38.504,74.544,37.892,75.984,36.704C77.424,35.48,78.396,33.608,78.828,31.124L75.048,31.124C74.688,33.932,73.104,35.372,70.26,35.372C68.604,35.372,67.38,34.76,66.552,33.608C65.652,32.42,65.22,30.764,65.22,28.676C65.22,26.588,65.652,24.932,66.588,23.78C67.488,22.592,68.712,22.016,70.296,22.016C71.592,22.016,72.636,22.304,73.428,22.916C74.22,23.492,74.724,24.428,74.976,25.688L78.756,25.688C78.396,23.384,77.46,21.656,76.02,20.504C74.58,19.424,72.672,18.884,70.296,18.884ZM87.756,13.376L83.94,14.96L83.94,19.388L80.484,19.388L80.484,22.556L83.94,22.556L83.94,33.356C83.94,34.832,84.264,35.948,84.984,36.74C85.704,37.568,86.892,38,88.476,38L91.536,38L91.536,34.832L89.088,34.832C88.62,34.832,88.296,34.688,88.08,34.472C87.864,34.22,87.756,33.86,87.756,33.356L87.756,22.556L92.004,22.556L92.004,19.388L87.756,19.388L87.756,13.376ZM107.412,12.296L107.412,38L111.336,38L111.336,19.64L111.48,19.64L119.364,38L122.748,38L130.632,19.64L130.776,19.64L130.776,38L134.7,38L134.7,12.296L130.056,12.296L121.128,32.888L121.02,32.888L112.056,12.296L107.412,12.296ZM147.948,18.884C145.14,18.884,142.872,19.82,141.18,21.692C139.488,23.528,138.66,25.868,138.66,28.712C138.66,31.52,139.488,33.86,141.144,35.66C142.872,37.532,145.14,38.504,147.948,38.504C150.756,38.504,153.024,37.532,154.752,35.66C156.408,33.86,157.236,31.52,157.236,28.712C157.236,25.868,156.372,23.528,154.716,21.692C153.024,19.82,150.756,18.884,147.948,18.884ZM147.948,22.016C149.712,22.016,151.08,22.7,152.088,24.104C152.952,25.292,153.384,26.84,153.384,28.712C153.384,30.548,152.952,32.06,152.088,33.284C151.08,34.652,149.712,35.372,147.948,35.372C146.184,35.372,144.816,34.652,143.844,33.284C142.98,32.096,142.584,30.584,142.584,28.712C142.584,26.84,142.98,25.292,143.844,24.104C144.816,22.7,146.184,22.016,147.948,22.016ZM174.264,11.792L174.264,22.16C172.752,19.964,170.844,18.884,168.576,18.884C165.912,18.884,163.788,19.856,162.276,21.8C160.836,23.6,160.152,25.868,160.152,28.604C160.152,31.448,160.872,33.788,162.312,35.588C163.86,37.532,166.02,38.504,168.756,38.504C171.276,38.504,173.22,37.568,174.516,35.768L174.516,38L178.08,38L178.08,11.792L174.264,11.792ZM169.44,21.98C170.844,21.98,171.996,22.52,172.932,23.672C173.868,24.896,174.372,26.516,174.372,28.532L174.372,28.856C174.372,30.728,173.976,32.24,173.184,33.428C172.248,34.724,170.988,35.408,169.332,35.408C167.46,35.408,166.056,34.724,165.192,33.392C164.436,32.24,164.076,30.656,164.076,28.604C164.076,26.552,164.472,24.968,165.264,23.888C166.164,22.592,167.568,21.98,169.44,21.98ZM190.284,18.884C187.548,18.884,185.352,19.82,183.768,21.728C182.112,23.6,181.32,25.904,181.32,28.676C181.32,31.736,182.184,34.148,183.912,35.948C185.496,37.64,187.692,38.504,190.428,38.504C192.912,38.504,194.964,37.784,196.584,36.38C197.88,35.228,198.708,33.752,199.14,32.024L195.324,32.024C194.82,33.104,194.28,33.932,193.632,34.436C192.804,35.048,191.724,35.372,190.392,35.372C188.88,35.372,187.692,34.868,186.828,33.932C185.964,32.96,185.496,31.556,185.352,29.756L199.464,29.756C199.428,26.444,198.672,23.852,197.232,21.98C195.648,19.892,193.308,18.884,190.284,18.884ZM190.392,22.016C193.416,22.016,195.108,23.636,195.468,26.876L185.424,26.876C185.64,25.292,186.18,24.104,186.972,23.276C187.836,22.412,188.952,22.016,190.392,22.016Z" fill="url(#master_svg1_113_31463)" fill-opacity="1"/></g></g></g></svg>