<svg xmlns="http://www.w3.org/2000/svg" width="572.86" height="220" fill="none"><defs><linearGradient id="b" x1=".023" x2=".724" y1="-.036" y2=".761"><stop offset="0%" stop-color="#5677A8"/><stop offset="74.878%"/></linearGradient><linearGradient id="c" x1=".5" x2=".5" y1="0" y2="1"><stop offset="0%" stop-color="#FFF" stop-opacity=".15"/><stop offset="100%" stop-color="#FFF" stop-opacity="0"/></linearGradient><linearGradient id="d" x1="425.116" x2="425.116" y1="63.429" y2="139.626" gradientUnits="userSpaceOnUse"><stop offset="0%" stop-color="#FFF"/><stop offset="100%" stop-color="#FFF"/></linearGradient><linearGradient id="f" x1=".023" x2=".587" y1="-.036" y2=".904"><stop offset="0%" stop-color="#5677A8"/><stop offset="74.878%"/></linearGradient><linearGradient id="g" x1=".5" x2=".5" y1="0" y2="1"><stop offset="0%" stop-color="#FFF" stop-opacity="0"/><stop offset="50.714%" stop-color="#D8D8D8" stop-opacity=".514"/><stop offset="100%" stop-color="#D8D8D8" stop-opacity="0"/></linearGradient><linearGradient id="h" x1=".019" x2=".962" y1="0" y2="0"><stop offset="0%" stop-color="#FFF" stop-opacity=".1"/><stop offset="100%" stop-color="#FFF" stop-opacity="0"/></linearGradient><linearGradient id="i" x1="11.688" x2="107.316" y1="65.517" y2="74.036" gradientUnits="userSpaceOnUse"><stop offset="0%" stop-color="#FFF"/><stop offset="100%" stop-color="#0066FE"/></linearGradient><filter id="a" width="1" height="1" x="0" y="0" color-interpolation-filters="sRGB" filterUnits="objectBoundingBox"><feFlood flood-opacity="0" result="BackgroundImageFix"/><feBlend in="SourceGraphic" in2="BackgroundImageFix" result="shape"/><feGaussianBlur in="BackgroundImageFix" stdDeviation="5"/><feComposite in2="SourceAlpha" operator="in" result="effect1_foregroundBlur"/><feBlend in="SourceGraphic" in2="effect1_foregroundBlur" result="shape"/></filter><filter id="e" width="1" height="1" x="0" y="0" color-interpolation-filters="sRGB" filterUnits="objectBoundingBox"><feFlood flood-opacity="0" result="BackgroundImageFix"/><feBlend in="SourceGraphic" in2="BackgroundImageFix" result="shape"/><feGaussianBlur in="BackgroundImageFix" stdDeviation="5"/><feComposite in2="SourceAlpha" operator="in" result="effect1_foregroundBlur"/><feBlend in="SourceGraphic" in2="effect1_foregroundBlur" result="shape"/></filter></defs><g filter="url(#a)"><path fill="url(#b)" fill-rule="evenodd" d="M279.279 10v210H572.86V10c0-5.523-4.477-10-10-10H289.279c-5.523 0-10 4.477-10 10M571.86 219H280.279V10q0-3.728 2.636-6.364T289.279 1H562.86q3.728 0 6.364 2.636T571.86 10z"/></g><path fill="#FFF" fill-opacity=".7" d="M296.272 30.004V40h1.526v-3.892h2.59c2.394 0 3.598-1.022 3.598-3.066 0-2.03-1.19-3.038-3.57-3.038zm1.526 1.302h2.492q1.113 0 1.638.42c.35.252.532.7.532 1.316s-.182 1.064-.518 1.344c-.35.28-.896.42-1.652.42h-2.492zm10.822 1.26c-.448 0-.84.126-1.176.406-.28.196-.518.49-.7.882v-1.092h-1.484V40h1.484v-3.836c0-.63.182-1.148.56-1.54.35-.364.756-.546 1.204-.546.336 0 .686.042 1.05.154v-1.484c-.252-.126-.574-.182-.938-.182m5.18 0c-1.092 0-1.974.364-2.632 1.092-.658.714-.98 1.624-.98 2.73 0 1.092.322 2.002.966 2.702.672.728 1.554 1.106 2.646 1.106s1.974-.378 2.646-1.106c.644-.7.966-1.61.966-2.702 0-1.106-.336-2.016-.98-2.73-.658-.728-1.54-1.092-2.632-1.092m0 1.218c.686 0 1.218.266 1.61.812.336.462.504 1.064.504 1.792 0 .714-.168 1.302-.504 1.778-.392.532-.924.812-1.61.812s-1.218-.28-1.596-.812c-.336-.462-.49-1.05-.49-1.778s.154-1.33.49-1.792c.378-.546.91-.812 1.596-.812m8.498-1.218c-.728 0-1.4.322-1.988.994v-.798h-1.484V40h1.484v-4.354c0-.504.14-.938.448-1.288.28-.364.672-.546 1.148-.546.98 0 1.484.56 1.484 1.708V40h1.484v-4.452c0-.532.14-.966.42-1.274s.616-.462 1.036-.462c.56 0 .98.126 1.232.406.252.266.378.7.378 1.288V40h1.484v-4.746c0-.812-.252-1.456-.728-1.946-.49-.504-1.106-.742-1.848-.742-.49 0-.896.084-1.232.266-.364.182-.714.504-1.036.952-.448-.812-1.218-1.218-2.282-1.218m12.432 0c-.98 0-1.736.35-2.24 1.064v-.868h-1.386v10.01h1.484v-3.836c.588.84 1.316 1.26 2.212 1.26 1.036 0 1.862-.378 2.45-1.134.546-.7.826-1.582.826-2.646 0-1.12-.28-2.016-.84-2.716-.616-.756-1.442-1.134-2.506-1.134m-.224 1.204c.728 0 1.26.252 1.61.784.28.448.434 1.064.434 1.862s-.168 1.414-.476 1.862c-.35.476-.882.714-1.61.714a1.62 1.62 0 0 1-1.344-.658c-.392-.476-.574-1.106-.574-1.876v-.126c0-.742.154-1.344.462-1.792.35-.518.854-.77 1.498-.77m7.168-3.346-1.484.616v1.722h-1.344v1.232h1.344v4.2c0 .574.126 1.008.406 1.316.28.322.742.49 1.358.49h1.19v-1.232h-.952c-.182 0-.308-.056-.392-.14-.084-.098-.126-.238-.126-.434v-4.2h1.652v-1.232h-1.652zm7.644-.42V40h3.612c1.61 0 2.828-.448 3.668-1.344.798-.868 1.204-2.086 1.204-3.654 0-1.582-.392-2.8-1.176-3.64-.84-.91-2.058-1.358-3.668-1.358zm1.526 1.302h1.834c1.26 0 2.184.294 2.772.896.56.588.854 1.512.854 2.8 0 1.26-.294 2.184-.868 2.786-.588.602-1.526.91-2.786.91h-1.806zm11.438 1.26c-1.064 0-1.918.364-2.534 1.106-.644.728-.952 1.624-.952 2.702 0 1.19.336 2.128 1.008 2.828.616.658 1.47.994 2.534.994.966 0 1.764-.28 2.394-.826.504-.448.826-1.022.994-1.694h-1.484c-.196.42-.406.742-.658.938-.322.238-.742.364-1.26.364-.588 0-1.05-.196-1.386-.56-.336-.378-.518-.924-.574-1.624h5.488c-.014-1.288-.308-2.296-.868-3.024-.616-.812-1.526-1.204-2.702-1.204m.042 1.218q1.764 0 1.974 1.89h-3.906c.084-.616.294-1.078.602-1.4.336-.336.77-.49 1.33-.49m7.644-3.78c-.644 0-1.12.168-1.456.532-.336.336-.504.826-.504 1.442v.784h-1.666v1.218h1.666V40h1.47v-6.02h1.904v-1.218h-1.904v-.742c0-.266.056-.462.168-.574.112-.126.294-.182.532-.182h1.302v-1.26zm3.472-.14c-.294 0-.532.084-.728.28a.93.93 0 0 0-.294.714c0 .28.098.532.294.728.196.182.434.28.728.28.28 0 .532-.098.728-.28a1 1 0 0 0 .308-.728.93.93 0 0 0-.294-.714c-.196-.196-.448-.28-.742-.28m-.742 2.898V40h1.484v-7.238zm7.154-.196c-.448 0-.854.084-1.218.28a2.8 2.8 0 0 0-.966.812v-.896h-1.484V40h1.484v-4.354c.056-.588.266-1.05.602-1.386a1.5 1.5 0 0 1 1.106-.448c1.12 0 1.694.616 1.694 1.848V40h1.484v-4.466c0-1.988-.91-2.968-2.702-2.968m5.446-2.702c-.294 0-.532.084-.728.28a.93.93 0 0 0-.294.714c0 .28.098.532.294.728.196.182.434.28.728.28.28 0 .532-.098.728-.28a1 1 0 0 0 .308-.728.93.93 0 0 0-.294-.714c-.196-.196-.448-.28-.742-.28m-.742 2.898V40h1.484v-7.238zm5.684-2.338-1.484.616v1.722h-1.344v1.232h1.344v4.2c0 .574.126 1.008.406 1.316.28.322.742.49 1.358.49h1.19v-1.232h-.952c-.182 0-.308-.056-.392-.14-.084-.098-.126-.238-.126-.434v-4.2h1.652v-1.232h-1.652zm3.892-.56c-.294 0-.532.084-.728.28a.93.93 0 0 0-.294.714c0 .28.098.532.294.728.196.182.434.28.728.28.28 0 .532-.098.728-.28a1 1 0 0 0 .308-.728.93.93 0 0 0-.294-.714c-.196-.196-.448-.28-.742-.28m-.742 2.898V40h1.484v-7.238zm6.818-.196c-1.092 0-1.974.364-2.632 1.092-.658.714-.98 1.624-.98 2.73 0 1.092.322 2.002.966 2.702.672.728 1.554 1.106 2.646 1.106s1.974-.378 2.646-1.106c.644-.7.966-1.61.966-2.702 0-1.106-.336-2.016-.98-2.73-.658-.728-1.54-1.092-2.632-1.092m0 1.218c.686 0 1.218.266 1.61.812.336.462.504 1.064.504 1.792 0 .714-.168 1.302-.504 1.778-.392.532-.924.812-1.61.812s-1.218-.28-1.596-.812c-.336-.462-.49-1.05-.49-1.778s.154-1.33.49-1.792c.378-.546.91-.812 1.596-.812m8.694-1.218c-.448 0-.854.084-1.218.28a2.8 2.8 0 0 0-.966.812v-.896h-1.484V40h1.484v-4.354c.056-.588.266-1.05.602-1.386a1.5 1.5 0 0 1 1.106-.448c1.12 0 1.694.616 1.694 1.848V40h1.484v-4.466c0-1.988-.91-2.968-2.702-2.968m7.056-1.274a.97.97 0 0 0-.742.308 1.01 1.01 0 0 0-.294.742c0 .28.098.532.294.728s.448.308.742.308c.28 0 .532-.112.742-.308.196-.196.308-.448.308-.728 0-.294-.112-.546-.308-.742a1.02 1.02 0 0 0-.742-.308m0 5.124a.97.97 0 0 0-.742.308 1.01 1.01 0 0 0-.294.742c0 .28.098.532.294.728s.448.308.742.308c.28 0 .532-.112.742-.308.196-.196.308-.448.308-.728 0-.294-.112-.546-.308-.742a1.02 1.02 0 0 0-.742-.308"/><rect width="257.615" height="131.322" x="295.792" y="55.695" stroke="url(#c)" rx="2.5"/><path fill="url(#d)" d="m303.902 67.861 3.42 5.088v3.48h.984v-3.48l3.42-5.088h-1.188l-2.724 4.176-2.724-4.176zm11.4 2.196c-.936 0-1.668.312-2.22.96-.528.612-.792 1.38-.792 2.316 0 .924.264 1.692.792 2.292.552.648 1.284.972 2.22.972q1.386 0 2.232-.972c.516-.6.78-1.368.78-2.292 0-.936-.264-1.704-.792-2.316-.552-.648-1.296-.96-2.22-.96m0 .804q.972 0 1.548.756c.324.456.492 1.02.492 1.716 0 .672-.168 1.248-.492 1.704q-.576.756-1.548.756c-.66 0-1.176-.252-1.536-.756-.336-.456-.492-1.02-.492-1.704 0-.696.156-1.26.492-1.716.36-.504.876-.756 1.536-.756m4.26-.636v3.84c0 1.68.744 2.532 2.256 2.532.84 0 1.512-.384 2.016-1.128v.96h.96v-6.204h-.96v3.78q-.108.792-.612 1.296c-.324.312-.696.48-1.104.48-.564 0-.972-.156-1.224-.444s-.372-.732-.372-1.32v-3.792zm13.416-.168c-.744 0-1.332.144-1.788.432-.504.312-.828.804-.96 1.452l.948.072c.096-.396.3-.696.624-.888.288-.192.66-.276 1.116-.276 1.08 0 1.62.516 1.62 1.56v.324l-1.488.024c-.936.012-1.656.192-2.16.528-.576.36-.852.888-.852 1.596 0 .504.192.924.576 1.248.372.312.864.468 1.488.468a3.15 3.15 0 0 0 1.548-.384c.384-.216.708-.492.948-.828v1.044h.9v-3.984c0-.72-.192-1.284-.552-1.692-.432-.468-1.08-.696-1.968-.696m1.56 3.396v.528c0 .48-.228.912-.672 1.284a2.35 2.35 0 0 1-1.56.576c-.384 0-.696-.096-.936-.276a.85.85 0 0 1-.348-.708c0-.9.696-1.356 2.088-1.38zm5.172-3.396c-.432 0-.804.132-1.128.396-.264.204-.48.492-.648.852v-1.08h-.948v6.204h.948v-3.288c0-.576.156-1.068.492-1.476.324-.432.732-.636 1.212-.636.3 0 .612.036.924.132v-.96c-.228-.096-.516-.144-.852-.144m4.212 0c-.9 0-1.608.324-2.136.972-.528.612-.78 1.38-.78 2.292 0 1.008.264 1.8.816 2.4.528.576 1.248.876 2.136.876.804 0 1.464-.24 1.98-.696.42-.384.696-.864.84-1.464h-.96c-.156.432-.36.756-.624.972-.312.252-.732.384-1.236.384-.588 0-1.056-.192-1.392-.576s-.516-.924-.564-1.62h4.896c-.024-1.08-.264-1.932-.72-2.532-.504-.672-1.26-1.008-2.256-1.008m.024.804c1.176 0 1.836.66 1.956 1.992h-3.876c.06-.612.252-1.092.588-1.452q.504-.54 1.332-.54m11.076-3.168c-.888 0-1.62.192-2.184.576-.636.408-.948.996-.948 1.74 0 .72.324 1.272.984 1.656.276.144.936.384 1.968.696.96.276 1.572.48 1.812.624.564.3.852.72.852 1.26q0 .684-.648 1.08c-.432.264-1.008.396-1.704.396-.768 0-1.344-.168-1.74-.48-.432-.348-.696-.9-.78-1.644h-.972c.072 1.056.444 1.836 1.116 2.352q.864.648 2.376.648c1.02 0 1.824-.216 2.424-.636.6-.432.9-1.032.9-1.776 0-.78-.36-1.38-1.068-1.812q-.54-.324-2.232-.828c-.828-.24-1.356-.42-1.572-.54-.492-.264-.732-.612-.732-1.044 0-.492.204-.852.612-1.092.36-.216.852-.312 1.488-.312.696 0 1.236.144 1.62.456.372.3.612.756.72 1.38h.972c-.084-.9-.408-1.584-.984-2.04-.552-.444-1.32-.66-2.28-.66m4.584 0v8.736h.96v-3.54c0-.576.156-1.068.48-1.452q.468-.576 1.188-.576c.516 0 .912.156 1.2.468.264.312.408.756.408 1.332v3.768h.96v-3.912c0-.792-.192-1.404-.576-1.824-.384-.432-.948-.636-1.668-.636-.42 0-.792.096-1.128.288q-.54.306-.864.9v-3.552zm9.228 2.364c-.9 0-1.608.324-2.136.972-.528.612-.78 1.38-.78 2.292 0 1.008.264 1.8.816 2.4.528.576 1.248.876 2.136.876.804 0 1.464-.24 1.98-.696.42-.384.696-.864.84-1.464h-.96c-.156.432-.36.756-.624.972-.312.252-.732.384-1.236.384-.588 0-1.056-.192-1.392-.576s-.516-.924-.564-1.62h4.896c-.024-1.08-.264-1.932-.72-2.532-.504-.672-1.26-1.008-2.256-1.008m.024.804c1.176 0 1.836.66 1.956 1.992h-3.876c.06-.612.252-1.092.588-1.452q.504-.54 1.332-.54m6.984-.804q-.612 0-1.116.288-.504.27-.828.792v-.912h-.96v6.204h.96v-3.744c.036-.564.216-1.008.552-1.344a1.52 1.52 0 0 1 1.116-.468c1.08 0 1.632.6 1.632 1.812v3.744h.96v-3.816c0-1.704-.78-2.556-2.316-2.556m6.516 0c-.696 0-1.284.324-1.752.996v-.828h-.96v6.204h.96v-3.78c0-.492.144-.912.432-1.248.288-.36.648-.528 1.092-.528.948 0 1.428.54 1.428 1.644v3.912h.96v-3.888c0-.504.132-.9.42-1.212.264-.312.612-.456 1.02-.456.528 0 .912.132 1.152.42.228.264.348.672.348 1.224v3.912h.96v-4.068c0-.708-.204-1.272-.588-1.692-.408-.408-.924-.612-1.572-.612-.432 0-.792.096-1.092.288-.336.18-.624.48-.864.888-.348-.792-.996-1.176-1.944-1.176m10.248 0c-.744 0-1.332.144-1.788.432-.504.312-.828.804-.96 1.452l.948.072c.096-.396.3-.696.624-.888.288-.192.66-.276 1.116-.276 1.08 0 1.62.516 1.62 1.56v.324l-1.488.024c-.936.012-1.656.192-2.16.528-.576.36-.852.888-.852 1.596 0 .504.192.924.576 1.248.372.312.864.468 1.488.468a3.15 3.15 0 0 0 1.548-.384c.384-.216.708-.492.948-.828v1.044h.9v-3.984c0-.72-.192-1.284-.552-1.692-.432-.468-1.08-.696-1.968-.696m1.56 3.396v.528c0 .48-.228.912-.672 1.284a2.35 2.35 0 0 1-1.56.576c-.384 0-.696-.096-.936-.276a.85.85 0 0 1-.348-.708c0-.9.696-1.356 2.088-1.38zm3.288 1.548c-.24 0-.42.06-.552.204-.156.132-.228.312-.228.54 0 .204.072.384.216.528a.7.7 0 0 0 .516.216.7.7 0 0 0 .264-.048c0 .288-.084.552-.264.804a1.67 1.67 0 0 1-.768.528v.588a2.3 2.3 0 0 0 1.248-.78q.468-.612.468-1.404c0-.348-.084-.624-.24-.84a.79.79 0 0 0-.66-.336m9.024-4.944c-.744 0-1.332.144-1.788.432-.504.312-.828.804-.96 1.452l.948.072c.096-.396.3-.696.624-.888.288-.192.66-.276 1.116-.276 1.08 0 1.62.516 1.62 1.56v.324l-1.488.024c-.936.012-1.656.192-2.16.528-.576.36-.852.888-.852 1.596 0 .504.192.924.576 1.248.372.312.864.468 1.488.468a3.15 3.15 0 0 0 1.548-.384c.384-.216.708-.492.948-.828v1.044h.9v-3.984c0-.72-.192-1.284-.552-1.692-.432-.468-1.08-.696-1.968-.696m1.56 3.396v.528c0 .48-.228.912-.672 1.284a2.35 2.35 0 0 1-1.56.576c-.384 0-.696-.096-.936-.276a.85.85 0 0 1-.348-.708c0-.9.696-1.356 2.088-1.38zm6.444-5.76v8.736h.96v-3.54c0-.576.156-1.068.48-1.452q.468-.576 1.188-.576c.516 0 .912.156 1.2.468.264.312.408.756.408 1.332v3.768h.96v-3.912c0-.792-.192-1.404-.576-1.824-.384-.432-.948-.636-1.668-.636-.42 0-.792.096-1.128.288q-.54.306-.864.9v-3.552zm7.464.192a.69.69 0 0 0-.516.204c-.144.12-.204.288-.204.504 0 .204.06.372.204.516a.74.74 0 0 0 .516.204.74.74 0 0 0 .516-.204.7.7 0 0 0 .216-.516q0-.324-.216-.504a.69.69 0 0 0-.516-.204m-.48 2.34v6.204h.96v-6.204zm5.316-.168c-.864 0-1.548.3-2.052.912-.504.576-.744 1.308-.744 2.22 0 .9.24 1.632.744 2.208.504.588 1.188.888 2.052.888.936 0 1.632-.42 2.088-1.248v1.092c0 1.368-.624 2.064-1.872 2.064-.564 0-.984-.108-1.26-.312-.276-.192-.456-.504-.528-.924h-.96q.162 1.008.828 1.512c.432.336 1.08.504 1.92.504 1.884 0 2.832-.996 2.832-2.976v-5.772h-.96v1.068c-.456-.828-1.152-1.236-2.088-1.236m.144.792c.612 0 1.092.216 1.452.672.336.408.504.972.504 1.668 0 .672-.168 1.224-.504 1.644-.36.432-.84.648-1.464.648-.672 0-1.164-.24-1.5-.696-.3-.408-.444-.948-.444-1.596 0-.696.168-1.26.504-1.668.348-.456.828-.672 1.452-.672m4.392-3.156v8.736h.96v-3.54c0-.576.156-1.068.48-1.452q.468-.576 1.188-.576c.516 0 .912.156 1.2.468.264.312.408.756.408 1.332v3.768h.96v-3.912c0-.792-.192-1.404-.576-1.824-.384-.432-.948-.636-1.668-.636-.42 0-.792.096-1.128.288q-.54.306-.864.9v-3.552zm6.864 0v8.736h.948v-8.736zm1.944 2.532 2.46 6.06-1.068 2.52h1.044l3.396-8.58h-1.056l-1.836 4.896-1.896-4.896zm12.828-.168c-.696 0-1.272.156-1.704.468-.468.312-.696.72-.696 1.248s.228.924.708 1.212c.288.192.804.372 1.536.552.672.168 1.116.3 1.32.396.384.192.588.456.588.804 0 .696-.564 1.056-1.668 1.056q-.792 0-1.188-.288c-.264-.216-.444-.564-.516-1.056h-.936c.144 1.428 1.032 2.148 2.664 2.148 1.752 0 2.628-.648 2.628-1.92 0-.54-.252-.96-.744-1.272-.324-.204-.852-.396-1.596-.576-.624-.168-1.056-.3-1.284-.408-.36-.18-.528-.408-.528-.672q0-.414.396-.648c.24-.168.576-.24 1.008-.24.492 0 .876.096 1.14.288.24.168.396.456.48.84h.936c-.168-1.296-1.008-1.932-2.544-1.932m3.864-2.364v8.736h.96v-2.196l.984-.888 2.424 3.084h1.236l-3-3.708 2.736-2.496h-1.272l-3.108 2.88v-5.412zm7.14.192a.69.69 0 0 0-.516.204c-.144.12-.204.288-.204.504 0 .204.06.372.204.516a.74.74 0 0 0 .516.204.74.74 0 0 0 .516-.204.7.7 0 0 0 .216-.516q0-.324-.216-.504a.69.69 0 0 0-.516-.204m-.48 2.34v6.204h.96v-6.204zm2.952-2.532v8.736h.948v-8.736zm2.82 0v8.736h.948v-8.736zm5.184 2.364c-.9 0-1.608.324-2.136.972-.528.612-.78 1.38-.78 2.292 0 1.008.264 1.8.816 2.4.528.576 1.248.876 2.136.876.804 0 1.464-.24 1.98-.696.42-.384.696-.864.84-1.464h-.96c-.156.432-.36.756-.624.972-.312.252-.732.384-1.236.384-.588 0-1.056-.192-1.392-.576s-.516-.924-.564-1.62h4.896c-.024-1.08-.264-1.932-.72-2.532-.504-.672-1.26-1.008-2.256-1.008m.024.804c1.176 0 1.836.66 1.956 1.992h-3.876c.06-.612.252-1.092.588-1.452q.504-.54 1.332-.54m8.664-3.168v3.672c-.48-.876-1.164-1.308-2.052-1.308s-1.572.324-2.076.996c-.468.6-.696 1.344-.696 2.256 0 .936.228 1.704.696 2.304.504.648 1.212.984 2.124.984.936 0 1.632-.396 2.064-1.188v1.02h.9v-8.736zm-1.848 3.156c.552 0 1.008.216 1.356.672.336.444.516 1.032.516 1.752v.12c0 .696-.156 1.26-.456 1.692-.348.48-.828.72-1.452.72-.672 0-1.176-.252-1.512-.732-.3-.432-.444-1.02-.444-1.764s.144-1.32.456-1.74c.336-.48.852-.72 1.536-.72m10.488-.792c-.696 0-1.272.156-1.704.468-.468.312-.696.72-.696 1.248s.228.924.708 1.212c.288.192.804.372 1.536.552.672.168 1.116.3 1.32.396.384.192.588.456.588.804 0 .696-.564 1.056-1.668 1.056q-.792 0-1.188-.288c-.264-.216-.444-.564-.516-1.056h-.936c.144 1.428 1.032 2.148 2.664 2.148 1.752 0 2.628-.648 2.628-1.92 0-.54-.252-.96-.744-1.272-.324-.204-.852-.396-1.596-.576-.624-.168-1.056-.3-1.284-.408-.36-.18-.528-.408-.528-.672q0-.414.396-.648c.24-.168.576-.24 1.008-.24.492 0 .876.096 1.14.288.24.168.396.456.48.84h.936c-.168-1.296-1.008-1.932-2.544-1.932m6.636 0c-.936 0-1.668.312-2.22.96-.528.612-.792 1.38-.792 2.316 0 .924.264 1.692.792 2.292.552.648 1.284.972 2.22.972q1.386 0 2.232-.972c.516-.6.78-1.368.78-2.292 0-.936-.264-1.704-.792-2.316-.552-.648-1.296-.96-2.22-.96m0 .804q.972 0 1.548.756c.324.456.492 1.02.492 1.716 0 .672-.168 1.248-.492 1.704q-.576.756-1.548.756c-.66 0-1.176-.252-1.536-.756-.336-.456-.492-1.02-.492-1.704 0-.696.156-1.26.492-1.716.36-.504.876-.756 1.536-.756m6.744-3c-.528 0-.936.144-1.212.444-.264.288-.396.684-.396 1.212v.708h-1.56v.804h1.56v5.4h.96v-5.4h1.752v-.804h-1.752v-.684q0-.45.18-.648c.12-.144.324-.204.588-.204h1.068v-.828zm3.648.36-.948.396v1.608h-1.248v.804h1.248v3.948c0 .468.096.816.3 1.056.216.264.588.396 1.092.396h.936v-.804h-.792c-.216 0-.372-.06-.456-.156-.096-.096-.132-.264-.132-.492V71.03h1.536v-.804h-1.536zm1.92 2.004 2.112 6.204h.9l1.464-4.992 1.44 4.992h.912l2.112-6.204h-1.056l-1.524 5.028-1.44-5.028h-.9l-1.44 5.028-1.524-5.028zm12.444-.168c-.744 0-1.332.144-1.788.432-.504.312-.828.804-.96 1.452l.948.072c.096-.396.3-.696.624-.888.288-.192.66-.276 1.116-.276 1.08 0 1.62.516 1.62 1.56v.324l-1.488.024c-.936.012-1.656.192-2.16.528-.576.36-.852.888-.852 1.596 0 .504.192.924.576 1.248.372.312.864.468 1.488.468a3.15 3.15 0 0 0 1.548-.384c.384-.216.708-.492.948-.828v1.044h.9v-3.984c0-.72-.192-1.284-.552-1.692-.432-.468-1.08-.696-1.968-.696m1.56 3.396v.528c0 .48-.228.912-.672 1.284a2.35 2.35 0 0 1-1.56.576c-.384 0-.696-.096-.936-.276a.85.85 0 0 1-.348-.708c0-.9.696-1.356 2.088-1.38zm5.172-3.396c-.432 0-.804.132-1.128.396-.264.204-.48.492-.648.852v-1.08h-.948v6.204h.948v-3.288c0-.576.156-1.068.492-1.476.324-.432.732-.636 1.212-.636.3 0 .612.036.924.132v-.96c-.228-.096-.516-.144-.852-.144m4.212 0c-.9 0-1.608.324-2.136.972-.528.612-.78 1.38-.78 2.292 0 1.008.264 1.8.816 2.4.528.576 1.248.876 2.136.876.804 0 1.464-.24 1.98-.696.42-.384.696-.864.84-1.464h-.96c-.156.432-.36.756-.624.972-.312.252-.732.384-1.236.384-.588 0-1.056-.192-1.392-.576s-.516-.924-.564-1.62h4.896c-.024-1.08-.264-1.932-.72-2.532-.504-.672-1.26-1.008-2.256-1.008m.024.804c1.176 0 1.836.66 1.956 1.992h-3.876c.06-.612.252-1.092.588-1.452q.504-.54 1.332-.54m-226.98 16.196c-.9 0-1.608.324-2.136.972-.528.612-.78 1.38-.78 2.292 0 1.008.264 1.8.816 2.4.528.576 1.248.876 2.136.876.804 0 1.464-.24 1.98-.696.42-.384.696-.864.84-1.464h-.96c-.156.432-.36.756-.624.972-.312.252-.732.384-1.236.384-.588 0-1.056-.192-1.392-.576s-.516-.924-.564-1.62h4.896c-.024-1.08-.264-1.932-.72-2.532-.504-.672-1.26-1.008-2.256-1.008m.024.804c1.176 0 1.836.66 1.956 1.992h-3.876c.06-.612.252-1.092.588-1.452q.504-.54 1.332-.54m6.984-.804q-.612 0-1.116.288-.504.27-.828.792v-.912h-.96v6.204h.96v-3.744c.036-.564.216-1.008.552-1.344a1.52 1.52 0 0 1 1.116-.468c1.08 0 1.632.6 1.632 1.812v3.744h.96v-3.816c0-1.704-.78-2.556-2.316-2.556m6.36 0c-.864 0-1.548.3-2.052.912-.504.576-.744 1.308-.744 2.22 0 .9.24 1.632.744 2.208.504.588 1.188.888 2.052.888.936 0 1.632-.42 2.088-1.248v1.092c0 1.368-.624 2.064-1.872 2.064-.564 0-.984-.108-1.26-.312-.276-.192-.456-.504-.528-.924h-.96q.162 1.008.828 1.512c.432.336 1.08.504 1.92.504 1.884 0 2.832-.996 2.832-2.976v-5.772h-.96v1.068c-.456-.828-1.152-1.236-2.088-1.236m.144.792c.612 0 1.092.216 1.452.672.336.408.504.972.504 1.668 0 .672-.168 1.224-.504 1.644-.36.432-.84.648-1.464.648-.672 0-1.164-.24-1.5-.696-.3-.408-.444-.948-.444-1.596 0-.696.168-1.26.504-1.668.348-.456.828-.672 1.452-.672m5.184-2.964a.69.69 0 0 0-.516.204c-.144.12-.204.288-.204.504 0 .204.06.372.204.516a.74.74 0 0 0 .516.204.74.74 0 0 0 .516-.204.7.7 0 0 0 .216-.516q0-.324-.216-.504a.69.69 0 0 0-.516-.204m-.48 2.34v6.204h.96v-6.204zm5.664-.168q-.612 0-1.116.288-.504.27-.828.792v-.912h-.96v6.204h.96v-3.744c.036-.564.216-1.008.552-1.344a1.52 1.52 0 0 1 1.116-.468c1.08 0 1.632.6 1.632 1.812v3.744h.96v-3.816c0-1.704-.78-2.556-2.316-2.556m6.36 0c-.9 0-1.608.324-2.136.972-.528.612-.78 1.38-.78 2.292 0 1.008.264 1.8.816 2.4.528.576 1.248.876 2.136.876.804 0 1.464-.24 1.98-.696.42-.384.696-.864.84-1.464h-.96c-.156.432-.36.756-.624.972-.312.252-.732.384-1.236.384-.588 0-1.056-.192-1.392-.576s-.516-.924-.564-1.62h4.896c-.024-1.08-.264-1.932-.72-2.532-.504-.672-1.26-1.008-2.256-1.008m.024.804c1.176 0 1.836.66 1.956 1.992h-3.876c.06-.612.252-1.092.588-1.452q.504-.54 1.332-.54m6.636-.804c-.9 0-1.608.324-2.136.972-.528.612-.78 1.38-.78 2.292 0 1.008.264 1.8.816 2.4.528.576 1.248.876 2.136.876.804 0 1.464-.24 1.98-.696.42-.384.696-.864.84-1.464h-.96c-.156.432-.36.756-.624.972-.312.252-.732.384-1.236.384-.588 0-1.056-.192-1.392-.576s-.516-.924-.564-1.62h4.896c-.024-1.08-.264-1.932-.72-2.532-.504-.672-1.26-1.008-2.256-1.008m.024.804c1.176 0 1.836.66 1.956 1.992h-3.876c.06-.612.252-1.092.588-1.452q.504-.54 1.332-.54m6.804-.804c-.432 0-.804.132-1.128.396-.264.204-.48.492-.648.852v-1.08h-.948v6.204h.948v-3.288c0-.576.156-1.068.492-1.476.324-.432.732-.636 1.212-.636.3 0 .612.036.924.132v-.96c-.228-.096-.516-.144-.852-.144m4.968.168 2.112 6.204h.9l1.464-4.992 1.44 4.992h.912l2.112-6.204h-1.056l-1.524 5.028-1.44-5.028h-.9l-1.44 5.028-1.524-5.028zm10.536-2.34a.69.69 0 0 0-.516.204c-.144.12-.204.288-.204.504 0 .204.06.372.204.516a.74.74 0 0 0 .516.204.74.74 0 0 0 .516-.204.7.7 0 0 0 .216-.516q0-.324-.216-.504a.69.69 0 0 0-.516-.204m-.48 2.34v6.204h.96v-6.204zm4.416-2.004-.948.396v1.608h-1.248v.804h1.248v3.948c0 .468.096.816.3 1.056.216.264.588.396 1.092.396h.936v-.804h-.792c-.216 0-.372-.06-.456-.156-.096-.096-.132-.264-.132-.492V88.03h1.536v-.804h-1.536zm2.604-.528v8.736h.96v-3.54c0-.576.156-1.068.48-1.452q.468-.576 1.188-.576c.516 0 .912.156 1.2.468.264.312.408.756.408 1.332v3.768h.96v-3.912c0-.792-.192-1.404-.576-1.824-.384-.432-.948-.636-1.668-.636-.42 0-.792.096-1.128.288q-.54.306-.864.9v-3.552zm13.224 2.364c-.9 0-1.608.324-2.136.972-.528.612-.78 1.38-.78 2.292 0 1.008.264 1.8.816 2.4.528.576 1.248.876 2.136.876.804 0 1.464-.24 1.98-.696.42-.384.696-.864.84-1.464h-.96c-.156.432-.36.756-.624.972-.312.252-.732.384-1.236.384-.588 0-1.056-.192-1.392-.576s-.516-.924-.564-1.62h4.896c-.024-1.08-.264-1.932-.72-2.532-.504-.672-1.26-1.008-2.256-1.008m.024.804c1.176 0 1.836.66 1.956 1.992h-3.876c.06-.612.252-1.092.588-1.452q.504-.54 1.332-.54m3.66-.636 2.196 2.916-2.46 3.288h1.14l1.86-2.58 1.848 2.58h1.14l-2.46-3.288 2.196-2.916h-1.128l-1.596 2.208-1.608-2.208zm8.184-2.004-.948.396v1.608h-1.248v.804h1.248v3.948c0 .468.096.816.3 1.056.216.264.588.396 1.092.396h.936v-.804h-.792c-.216 0-.372-.06-.456-.156-.096-.096-.132-.264-.132-.492V88.03h1.536v-.804h-1.536zm5.16 1.836c-.9 0-1.608.324-2.136.972-.528.612-.78 1.38-.78 2.292 0 1.008.264 1.8.816 2.4.528.576 1.248.876 2.136.876.804 0 1.464-.24 1.98-.696.42-.384.696-.864.84-1.464h-.96c-.156.432-.36.756-.624.972-.312.252-.732.384-1.236.384-.588 0-1.056-.192-1.392-.576s-.516-.924-.564-1.62h4.896c-.024-1.08-.264-1.932-.72-2.532-.504-.672-1.26-1.008-2.256-1.008m.024.804c1.176 0 1.836.66 1.956 1.992h-3.876c.06-.612.252-1.092.588-1.452q.504-.54 1.332-.54m6.984-.804q-.612 0-1.116.288-.504.27-.828.792v-.912h-.96v6.204h.96v-3.744c.036-.564.216-1.008.552-1.344a1.52 1.52 0 0 1 1.116-.468c1.08 0 1.632.6 1.632 1.812v3.744h.96v-3.816c0-1.704-.78-2.556-2.316-2.556m6 0c-.696 0-1.272.156-1.704.468-.468.312-.696.72-.696 1.248s.228.924.708 1.212c.288.192.804.372 1.536.552.672.168 1.116.3 1.32.396.384.192.588.456.588.804 0 .696-.564 1.056-1.668 1.056q-.792 0-1.188-.288c-.264-.216-.444-.564-.516-1.056h-.936c.144 1.428 1.032 2.148 2.664 2.148 1.752 0 2.628-.648 2.628-1.92 0-.54-.252-.96-.744-1.272-.324-.204-.852-.396-1.596-.576-.624-.168-1.056-.3-1.284-.408-.36-.18-.528-.408-.528-.672q0-.414.396-.648c.24-.168.576-.24 1.008-.24.492 0 .876.096 1.14.288.24.168.396.456.48.84h.936c-.168-1.296-1.008-1.932-2.544-1.932m4.656-2.172a.69.69 0 0 0-.516.204c-.144.12-.204.288-.204.504 0 .204.06.372.204.516a.74.74 0 0 0 .516.204.74.74 0 0 0 .516-.204.7.7 0 0 0 .216-.516q0-.324-.216-.504a.69.69 0 0 0-.516-.204m-.48 2.34v6.204h.96v-6.204zm2.076 0 2.34 6.204h.972l2.352-6.204h-1.056l-1.776 5.004-1.776-5.004zm9.024-.168c-.9 0-1.608.324-2.136.972-.528.612-.78 1.38-.78 2.292 0 1.008.264 1.8.816 2.4.528.576 1.248.876 2.136.876.804 0 1.464-.24 1.98-.696.42-.384.696-.864.84-1.464h-.96c-.156.432-.36.756-.624.972-.312.252-.732.384-1.236.384-.588 0-1.056-.192-1.392-.576s-.516-.924-.564-1.62h4.896c-.024-1.08-.264-1.932-.72-2.532-.504-.672-1.26-1.008-2.256-1.008m.024.804c1.176 0 1.836.66 1.956 1.992h-3.876c.06-.612.252-1.092.588-1.452q.504-.54 1.332-.54m8.076-3.168v8.736h.96v-2.196l.984-.888 2.424 3.084h1.236l-3-3.708 2.736-2.496h-1.272l-3.108 2.88v-5.412zm9.252 2.364q-.612 0-1.116.288-.504.27-.828.792v-.912h-.96v6.204h.96v-3.744c.036-.564.216-1.008.552-1.344a1.52 1.52 0 0 1 1.116-.468c1.08 0 1.632.6 1.632 1.812v3.744h.96v-3.816c0-1.704-.78-2.556-2.316-2.556m6.576 0c-.936 0-1.668.312-2.22.96-.528.612-.792 1.38-.792 2.316 0 .924.264 1.692.792 2.292.552.648 1.284.972 2.22.972q1.386 0 2.232-.972c.516-.6.78-1.368.78-2.292 0-.936-.264-1.704-.792-2.316-.552-.648-1.296-.96-2.22-.96m0 .804q.972 0 1.548.756c.324.456.492 1.02.492 1.716 0 .672-.168 1.248-.492 1.704q-.576.756-1.548.756c-.66 0-1.176-.252-1.536-.756-.336-.456-.492-1.02-.492-1.704 0-.696.156-1.26.492-1.716.36-.504.876-.756 1.536-.756m3.576-.636 2.112 6.204h.9l1.464-4.992 1.44 4.992h.912l2.112-6.204h-1.056l-1.524 5.028-1.44-5.028h-.9l-1.44 5.028-1.524-5.028zm9.936-2.532v8.736h.948v-8.736zm5.184 2.364c-.9 0-1.608.324-2.136.972-.528.612-.78 1.38-.78 2.292 0 1.008.264 1.8.816 2.4.528.576 1.248.876 2.136.876.804 0 1.464-.24 1.98-.696.42-.384.696-.864.84-1.464h-.96c-.156.432-.36.756-.624.972-.312.252-.732.384-1.236.384-.588 0-1.056-.192-1.392-.576s-.516-.924-.564-1.62h4.896c-.024-1.08-.264-1.932-.72-2.532-.504-.672-1.26-1.008-2.256-1.008m.024.804c1.176 0 1.836.66 1.956 1.992h-3.876c.06-.612.252-1.092.588-1.452q.504-.54 1.332-.54m8.664-3.168v3.672c-.48-.876-1.164-1.308-2.052-1.308s-1.572.324-2.076.996c-.468.6-.696 1.344-.696 2.256 0 .936.228 1.704.696 2.304.504.648 1.212.984 2.124.984.936 0 1.632-.396 2.064-1.188v1.02h.9v-8.736zm-1.848 3.156c.552 0 1.008.216 1.356.672.336.444.516 1.032.516 1.752v.12c0 .696-.156 1.26-.456 1.692-.348.48-.828.72-1.452.72-.672 0-1.176-.252-1.512-.732-.3-.432-.444-1.02-.444-1.764s.144-1.32.456-1.74c.336-.48.852-.72 1.536-.72m6.852-.792c-.864 0-1.548.3-2.052.912-.504.576-.744 1.308-.744 2.22 0 .9.24 1.632.744 2.208.504.588 1.188.888 2.052.888.936 0 1.632-.42 2.088-1.248v1.092c0 1.368-.624 2.064-1.872 2.064-.564 0-.984-.108-1.26-.312-.276-.192-.456-.504-.528-.924h-.96q.162 1.008.828 1.512c.432.336 1.08.504 1.92.504 1.884 0 2.832-.996 2.832-2.976v-5.772h-.96v1.068c-.456-.828-1.152-1.236-2.088-1.236m.144.792c.612 0 1.092.216 1.452.672.336.408.504.972.504 1.668 0 .672-.168 1.224-.504 1.644-.36.432-.84.648-1.464.648-.672 0-1.164-.24-1.5-.696-.3-.408-.444-.948-.444-1.596 0-.696.168-1.26.504-1.668.348-.456.828-.672 1.452-.672m6.948-.792c-.9 0-1.608.324-2.136.972-.528.612-.78 1.38-.78 2.292 0 1.008.264 1.8.816 2.4.528.576 1.248.876 2.136.876.804 0 1.464-.24 1.98-.696.42-.384.696-.864.84-1.464h-.96c-.156.432-.36.756-.624.972-.312.252-.732.384-1.236.384-.588 0-1.056-.192-1.392-.576s-.516-.924-.564-1.62h4.896c-.024-1.08-.264-1.932-.72-2.532-.504-.672-1.26-1.008-2.256-1.008m.024.804c1.176 0 1.836.66 1.956 1.992h-3.876c.06-.612.252-1.092.588-1.452q.504-.54 1.332-.54m8.868-2.976a.69.69 0 0 0-.516.204c-.144.12-.204.288-.204.504 0 .204.06.372.204.516a.74.74 0 0 0 .516.204.74.74 0 0 0 .516-.204.7.7 0 0 0 .216-.516q0-.324-.216-.504a.69.69 0 0 0-.516-.204m-.48 2.34v6.204h.96v-6.204zm5.664-.168q-.612 0-1.116.288-.504.27-.828.792v-.912h-.96v6.204h.96v-3.744c.036-.564.216-1.008.552-1.344a1.52 1.52 0 0 1 1.116-.468c1.08 0 1.632.6 1.632 1.812v3.744h.96v-3.816c0-1.704-.78-2.556-2.316-2.556m10.512 0c-.696 0-1.284.324-1.752.996v-.828h-.96v6.204h.96v-3.78c0-.492.144-.912.432-1.248.288-.36.648-.528 1.092-.528.948 0 1.428.54 1.428 1.644v3.912h.96v-3.888c0-.504.132-.9.42-1.212.264-.312.612-.456 1.02-.456.528 0 .912.132 1.152.42.228.264.348.672.348 1.224v3.912h.96v-4.068c0-.708-.204-1.272-.588-1.692-.408-.408-.924-.612-1.572-.612-.432 0-.792.096-1.092.288-.336.18-.624.48-.864.888-.348-.792-.996-1.176-1.944-1.176m10.248 0c-.744 0-1.332.144-1.788.432-.504.312-.828.804-.96 1.452l.948.072c.096-.396.3-.696.624-.888.288-.192.66-.276 1.116-.276 1.08 0 1.62.516 1.62 1.56v.324l-1.488.024c-.936.012-1.656.192-2.16.528-.576.36-.852.888-.852 1.596 0 .504.192.924.576 1.248.372.312.864.468 1.488.468a3.15 3.15 0 0 0 1.548-.384c.384-.216.708-.492.948-.828v1.044h.9v-3.984c0-.72-.192-1.284-.552-1.692-.432-.468-1.08-.696-1.968-.696m1.56 3.396v.528c0 .48-.228.912-.672 1.284a2.35 2.35 0 0 1-1.56.576c-.384 0-.696-.096-.936-.276a.85.85 0 0 1-.348-.708c0-.9.696-1.356 2.088-1.38zm5.352-3.396q-.612 0-1.116.288-.504.27-.828.792v-.912h-.96v6.204h.96v-3.744c.036-.564.216-1.008.552-1.344a1.52 1.52 0 0 1 1.116-.468c1.08 0 1.632.6 1.632 1.812v3.744h.96v-3.816c0-1.704-.78-2.556-2.316-2.556m3.12.168 2.46 6.06-1.068 2.52h1.044l3.396-8.58h-1.056l-1.836 4.896-1.896-4.896zM307.55 104.057c-.936 0-1.62.396-2.064 1.188v-1.02h-.9v8.58h.96v-3.504q.72 1.296 2.052 1.296c.888 0 1.572-.336 2.076-.984.456-.6.696-1.356.696-2.268 0-.936-.24-1.692-.708-2.292-.516-.672-1.224-.996-2.112-.996m-.12.792c.66 0 1.164.24 1.512.744.288.432.444 1.02.444 1.752q0 1.116-.468 1.764c-.348.456-.852.696-1.524.696-.576 0-1.02-.228-1.356-.66-.36-.444-.528-1.02-.528-1.74v-.12c0-.696.156-1.272.468-1.704.336-.492.828-.732 1.452-.732m6.912-.792c-.432 0-.804.132-1.128.396-.264.204-.48.492-.648.852v-1.08h-.948v6.204h.948v-3.288c0-.576.156-1.068.492-1.476.324-.432.732-.636 1.212-.636.3 0 .612.036.924.132v-.96c-.228-.096-.516-.144-.852-.144m4.428 0c-.936 0-1.668.312-2.22.96-.528.612-.792 1.38-.792 2.316 0 .924.264 1.692.792 2.292.552.648 1.284.972 2.22.972q1.386 0 2.232-.972c.516-.6.78-1.368.78-2.292 0-.936-.264-1.704-.792-2.316-.552-.648-1.296-.96-2.22-.96m0 .804q.972 0 1.548.756c.324.456.492 1.02.492 1.716 0 .672-.168 1.248-.492 1.704q-.576.756-1.548.756c-.66 0-1.176-.252-1.536-.756-.336-.456-.492-1.02-.492-1.704 0-.696.156-1.26.492-1.716.36-.504.876-.756 1.536-.756m6.816-.804c-.864 0-1.548.3-2.052.912-.504.576-.744 1.308-.744 2.22 0 .9.24 1.632.744 2.208.504.588 1.188.888 2.052.888.936 0 1.632-.42 2.088-1.248v1.092c0 1.368-.624 2.064-1.872 2.064-.564 0-.984-.108-1.26-.312-.276-.192-.456-.504-.528-.924h-.96q.162 1.008.828 1.512c.432.336 1.08.504 1.92.504 1.884 0 2.832-.996 2.832-2.976v-5.772h-.96v1.068c-.456-.828-1.152-1.236-2.088-1.236m.144.792c.612 0 1.092.216 1.452.672.336.408.504.972.504 1.668 0 .672-.168 1.224-.504 1.644-.36.432-.84.648-1.464.648-.672 0-1.164-.24-1.5-.696-.3-.408-.444-.948-.444-1.596 0-.696.168-1.26.504-1.668.348-.456.828-.672 1.452-.672m7.116-.792c-.432 0-.804.132-1.128.396-.264.204-.48.492-.648.852v-1.08h-.948v6.204h.948v-3.288c0-.576.156-1.068.492-1.476.324-.432.732-.636 1.212-.636.3 0 .612.036.924.132v-.96c-.228-.096-.516-.144-.852-.144m4.356 0c-.744 0-1.332.144-1.788.432-.504.312-.828.804-.96 1.452l.948.072c.096-.396.3-.696.624-.888.288-.192.66-.276 1.116-.276 1.08 0 1.62.516 1.62 1.56v.324l-1.488.024c-.936.012-1.656.192-2.16.528-.576.36-.852.888-.852 1.596 0 .504.192.924.576 1.248.372.312.864.468 1.488.468a3.15 3.15 0 0 0 1.548-.384c.384-.216.708-.492.948-.828v1.044h.9v-3.984c0-.72-.192-1.284-.552-1.692-.432-.468-1.08-.696-1.968-.696m1.56 3.396v.528c0 .48-.228.912-.672 1.284a2.35 2.35 0 0 1-1.56.576c-.384 0-.696-.096-.936-.276a.85.85 0 0 1-.348-.708c0-.9.696-1.356 2.088-1.38zm5.16-3.396c-.696 0-1.284.324-1.752.996v-.828h-.96v6.204h.96v-3.78c0-.492.144-.912.432-1.248.288-.36.648-.528 1.092-.528.948 0 1.428.54 1.428 1.644v3.912h.96v-3.888c0-.504.132-.9.42-1.212.264-.312.612-.456 1.02-.456.528 0 .912.132 1.152.42.228.264.348.672.348 1.224v3.912h.96v-4.068c0-.708-.204-1.272-.588-1.692-.408-.408-.924-.612-1.572-.612-.432 0-.792.096-1.092.288-.336.18-.624.48-.864.888-.348-.792-.996-1.176-1.944-1.176m10.26 0c-.696 0-1.284.324-1.752.996v-.828h-.96v6.204h.96v-3.78c0-.492.144-.912.432-1.248.288-.36.648-.528 1.092-.528.948 0 1.428.54 1.428 1.644v3.912h.96v-3.888c0-.504.132-.9.42-1.212.264-.312.612-.456 1.02-.456.528 0 .912.132 1.152.42.228.264.348.672.348 1.224v3.912h.96v-4.068c0-.708-.204-1.272-.588-1.692-.408-.408-.924-.612-1.572-.612-.432 0-.792.096-1.092.288-.336.18-.624.48-.864.888-.348-.792-.996-1.176-1.944-1.176m8.34-2.172a.69.69 0 0 0-.516.204c-.144.12-.204.288-.204.504 0 .204.06.372.204.516a.74.74 0 0 0 .516.204.74.74 0 0 0 .516-.204.7.7 0 0 0 .216-.516q0-.324-.216-.504a.69.69 0 0 0-.516-.204m-.48 2.34v6.204h.96v-6.204zm5.664-.168q-.612 0-1.116.288-.504.27-.828.792v-.912h-.96v6.204h.96v-3.744c.036-.564.216-1.008.552-1.344a1.52 1.52 0 0 1 1.116-.468c1.08 0 1.632.6 1.632 1.812v3.744h.96v-3.816c0-1.704-.78-2.556-2.316-2.556m6.36 0c-.864 0-1.548.3-2.052.912-.504.576-.744 1.308-.744 2.22 0 .9.24 1.632.744 2.208.504.588 1.188.888 2.052.888.936 0 1.632-.42 2.088-1.248v1.092c0 1.368-.624 2.064-1.872 2.064-.564 0-.984-.108-1.26-.312-.276-.192-.456-.504-.528-.924h-.96q.162 1.008.828 1.512c.432.336 1.08.504 1.92.504 1.884 0 2.832-.996 2.832-2.976v-5.772h-.96v1.068c-.456-.828-1.152-1.236-2.088-1.236m.144.792c.612 0 1.092.216 1.452.672.336.408.504.972.504 1.668 0 .672-.168 1.224-.504 1.644-.36.432-.84.648-1.464.648-.672 0-1.164-.24-1.5-.696-.3-.408-.444-.948-.444-1.596 0-.696.168-1.26.504-1.668.348-.456.828-.672 1.452-.672m8.58-3.156v8.736h.948v-8.736zm5.328 2.364c-.744 0-1.332.144-1.788.432-.504.312-.828.804-.96 1.452l.948.072c.096-.396.3-.696.624-.888.288-.192.66-.276 1.116-.276 1.08 0 1.62.516 1.62 1.56v.324l-1.488.024c-.936.012-1.656.192-2.16.528-.576.36-.852.888-.852 1.596 0 .504.192.924.576 1.248.372.312.864.468 1.488.468a3.15 3.15 0 0 0 1.548-.384c.384-.216.708-.492.948-.828v1.044h.9v-3.984c0-.72-.192-1.284-.552-1.692-.432-.468-1.08-.696-1.968-.696m1.56 3.396v.528c0 .48-.228.912-.672 1.284a2.35 2.35 0 0 1-1.56.576c-.384 0-.696-.096-.936-.276a.85.85 0 0 1-.348-.708c0-.9.696-1.356 2.088-1.38zm5.352-3.396q-.612 0-1.116.288-.504.27-.828.792v-.912h-.96v6.204h.96v-3.744c.036-.564.216-1.008.552-1.344a1.52 1.52 0 0 1 1.116-.468c1.08 0 1.632.6 1.632 1.812v3.744h.96v-3.816c0-1.704-.78-2.556-2.316-2.556m6.36 0c-.864 0-1.548.3-2.052.912-.504.576-.744 1.308-.744 2.22 0 .9.24 1.632.744 2.208.504.588 1.188.888 2.052.888.936 0 1.632-.42 2.088-1.248v1.092c0 1.368-.624 2.064-1.872 2.064-.564 0-.984-.108-1.26-.312-.276-.192-.456-.504-.528-.924h-.96q.162 1.008.828 1.512c.432.336 1.08.504 1.92.504 1.884 0 2.832-.996 2.832-2.976v-5.772h-.96v1.068c-.456-.828-1.152-1.236-2.088-1.236m.144.792c.612 0 1.092.216 1.452.672.336.408.504.972.504 1.668 0 .672-.168 1.224-.504 1.644-.36.432-.84.648-1.464.648-.672 0-1.164-.24-1.5-.696-.3-.408-.444-.948-.444-1.596 0-.696.168-1.26.504-1.668.348-.456.828-.672 1.452-.672m4.392-.624v3.84c0 1.68.744 2.532 2.256 2.532.84 0 1.512-.384 2.016-1.128v.96h.96v-6.204h-.96v3.78q-.108.792-.612 1.296c-.324.312-.696.48-1.104.48-.564 0-.972-.156-1.224-.444s-.372-.732-.372-1.32v-3.792zm9.42-.168c-.744 0-1.332.144-1.788.432-.504.312-.828.804-.96 1.452l.948.072c.096-.396.3-.696.624-.888.288-.192.66-.276 1.116-.276 1.08 0 1.62.516 1.62 1.56v.324l-1.488.024c-.936.012-1.656.192-2.16.528-.576.36-.852.888-.852 1.596 0 .504.192.924.576 1.248.372.312.864.468 1.488.468a3.15 3.15 0 0 0 1.548-.384c.384-.216.708-.492.948-.828v1.044h.9v-3.984c0-.72-.192-1.284-.552-1.692-.432-.468-1.08-.696-1.968-.696m1.56 3.396v.528c0 .48-.228.912-.672 1.284a2.35 2.35 0 0 1-1.56.576c-.384 0-.696-.096-.936-.276a.85.85 0 0 1-.348-.708c0-.9.696-1.356 2.088-1.38zm5.004-3.396c-.864 0-1.548.3-2.052.912-.504.576-.744 1.308-.744 2.22 0 .9.24 1.632.744 2.208.504.588 1.188.888 2.052.888.936 0 1.632-.42 2.088-1.248v1.092c0 1.368-.624 2.064-1.872 2.064-.564 0-.984-.108-1.26-.312-.276-.192-.456-.504-.528-.924h-.96q.162 1.008.828 1.512c.432.336 1.08.504 1.92.504 1.884 0 2.832-.996 2.832-2.976v-5.772h-.96v1.068c-.456-.828-1.152-1.236-2.088-1.236m.144.792c.612 0 1.092.216 1.452.672.336.408.504.972.504 1.668 0 .672-.168 1.224-.504 1.644-.36.432-.84.648-1.464.648-.672 0-1.164-.24-1.5-.696-.3-.408-.444-.948-.444-1.596 0-.696.168-1.26.504-1.668.348-.456.828-.672 1.452-.672m6.948-.792c-.9 0-1.608.324-2.136.972-.528.612-.78 1.38-.78 2.292 0 1.008.264 1.8.816 2.4.528.576 1.248.876 2.136.876.804 0 1.464-.24 1.98-.696.42-.384.696-.864.84-1.464h-.96c-.156.432-.36.756-.624.972-.312.252-.732.384-1.236.384-.588 0-1.056-.192-1.392-.576s-.516-.924-.564-1.62h4.896c-.024-1.08-.264-1.932-.72-2.532-.504-.672-1.26-1.008-2.256-1.008m.024.804c1.176 0 1.836.66 1.956 1.992h-3.876c.06-.612.252-1.092.588-1.452q.504-.54 1.332-.54m6.276-.804c-.696 0-1.272.156-1.704.468-.468.312-.696.72-.696 1.248s.228.924.708 1.212c.288.192.804.372 1.536.552.672.168 1.116.3 1.32.396.384.192.588.456.588.804 0 .696-.564 1.056-1.668 1.056q-.792 0-1.188-.288c-.264-.216-.444-.564-.516-1.056h-.936c.144 1.428 1.032 2.148 2.664 2.148 1.752 0 2.628-.648 2.628-1.92 0-.54-.252-.96-.744-1.272-.324-.204-.852-.396-1.596-.576-.624-.168-1.056-.3-1.284-.408-.36-.18-.528-.408-.528-.672q0-.414.396-.648c.24-.168.576-.24 1.008-.24.492 0 .876.096 1.14.288.24.168.396.456.48.84h.936c-.168-1.296-1.008-1.932-2.544-1.932m4.704 4.944c-.24 0-.42.06-.552.204-.156.132-.228.312-.228.54 0 .204.072.384.216.528a.7.7 0 0 0 .516.216.7.7 0 0 0 .264-.048c0 .288-.084.552-.264.804a1.67 1.67 0 0 1-.768.528v.588a2.3 2.3 0 0 0 1.248-.78q.468-.612.468-1.404c0-.348-.084-.624-.24-.84a.79.79 0 0 0-.66-.336m8.808-7.14c-.528 0-.936.144-1.212.444-.264.288-.396.684-.396 1.212v.708h-1.56v.804h1.56v5.4h.96v-5.4h1.752v-.804h-1.752v-.684q0-.45.18-.648c.12-.144.324-.204.588-.204h1.068v-.828zm4.716 2.196c-.432 0-.804.132-1.128.396-.264.204-.48.492-.648.852v-1.08h-.948v6.204h.948v-3.288c0-.576.156-1.068.492-1.476.324-.432.732-.636 1.212-.636.3 0 .612.036.924.132v-.96c-.228-.096-.516-.144-.852-.144m4.356 0c-.744 0-1.332.144-1.788.432-.504.312-.828.804-.96 1.452l.948.072c.096-.396.3-.696.624-.888.288-.192.66-.276 1.116-.276 1.08 0 1.62.516 1.62 1.56v.324l-1.488.024c-.936.012-1.656.192-2.16.528-.576.36-.852.888-.852 1.596 0 .504.192.924.576 1.248.372.312.864.468 1.488.468a3.15 3.15 0 0 0 1.548-.384c.384-.216.708-.492.948-.828v1.044h.9v-3.984c0-.72-.192-1.284-.552-1.692-.432-.468-1.08-.696-1.968-.696m1.56 3.396v.528c0 .48-.228.912-.672 1.284a2.35 2.35 0 0 1-1.56.576c-.384 0-.696-.096-.936-.276a.85.85 0 0 1-.348-.708c0-.9.696-1.356 2.088-1.38zm5.16-3.396c-.696 0-1.284.324-1.752.996v-.828h-.96v6.204h.96v-3.78c0-.492.144-.912.432-1.248.288-.36.648-.528 1.092-.528.948 0 1.428.54 1.428 1.644v3.912h.96v-3.888c0-.504.132-.9.42-1.212.264-.312.612-.456 1.02-.456.528 0 .912.132 1.152.42.228.264.348.672.348 1.224v3.912h.96v-4.068c0-.708-.204-1.272-.588-1.692-.408-.408-.924-.612-1.572-.612-.432 0-.792.096-1.092.288-.336.18-.624.48-.864.888-.348-.792-.996-1.176-1.944-1.176m10.104 0c-.9 0-1.608.324-2.136.972-.528.612-.78 1.38-.78 2.292 0 1.008.264 1.8.816 2.4.528.576 1.248.876 2.136.876.804 0 1.464-.24 1.98-.696.42-.384.696-.864.84-1.464h-.96c-.156.432-.36.756-.624.972-.312.252-.732.384-1.236.384-.588 0-1.056-.192-1.392-.576s-.516-.924-.564-1.62h4.896c-.024-1.08-.264-1.932-.72-2.532-.504-.672-1.26-1.008-2.256-1.008m.024.804c1.176 0 1.836.66 1.956 1.992h-3.876c.06-.612.252-1.092.588-1.452q.504-.54 1.332-.54m3.396-.636 2.112 6.204h.9l1.464-4.992 1.44 4.992h.912l2.112-6.204h-1.056l-1.524 5.028-1.44-5.028h-.9l-1.44 5.028-1.524-5.028zm12.516-.168c-.936 0-1.668.312-2.22.96-.528.612-.792 1.38-.792 2.316 0 .924.264 1.692.792 2.292.552.648 1.284.972 2.22.972q1.386 0 2.232-.972c.516-.6.78-1.368.78-2.292 0-.936-.264-1.704-.792-2.316-.552-.648-1.296-.96-2.22-.96m0 .804q.972 0 1.548.756c.324.456.492 1.02.492 1.716 0 .672-.168 1.248-.492 1.704q-.576.756-1.548.756c-.66 0-1.176-.252-1.536-.756-.336-.456-.492-1.02-.492-1.704 0-.696.156-1.26.492-1.716.36-.504.876-.756 1.536-.756m6.984-.804c-.432 0-.804.132-1.128.396-.264.204-.48.492-.648.852v-1.08h-.948v6.204h.948v-3.288c0-.576.156-1.068.492-1.476.324-.432.732-.636 1.212-.636.3 0 .612.036.924.132v-.96c-.228-.096-.516-.144-.852-.144m1.656-2.364v8.736h.96v-2.196l.984-.888 2.424 3.084h1.236l-3-3.708 2.736-2.496h-1.272l-3.108 2.88v-5.412zm8.544 2.364c-.696 0-1.272.156-1.704.468-.468.312-.696.72-.696 1.248s.228.924.708 1.212c.288.192.804.372 1.536.552.672.168 1.116.3 1.32.396.384.192.588.456.588.804 0 .696-.564 1.056-1.668 1.056q-.792 0-1.188-.288c-.264-.216-.444-.564-.516-1.056h-.936c.144 1.428 1.032 2.148 2.664 2.148 1.752 0 2.628-.648 2.628-1.92 0-.54-.252-.96-.744-1.272-.324-.204-.852-.396-1.596-.576-.624-.168-1.056-.3-1.284-.408-.36-.18-.528-.408-.528-.672q0-.414.396-.648c.24-.168.576-.24 1.008-.24.492 0 .876.096 1.14.288.24.168.396.456.48.84h.936c-.168-1.296-1.008-1.932-2.544-1.932m4.704 4.944c-.24 0-.42.06-.552.204-.156.132-.228.312-.228.54 0 .204.072.384.216.528a.7.7 0 0 0 .516.216.7.7 0 0 0 .264-.048c0 .288-.084.552-.264.804a1.67 1.67 0 0 1-.768.528v.588a2.3 2.3 0 0 0 1.248-.78q.468-.612.468-1.404c0-.348-.084-.624-.24-.84a.79.79 0 0 0-.66-.336m-203.364 9.692v3.672c-.48-.876-1.164-1.308-2.052-1.308s-1.572.324-2.076.996c-.468.6-.696 1.344-.696 2.256 0 .936.228 1.704.696 2.304.504.648 1.212.984 2.124.984.936 0 1.632-.396 2.064-1.188v1.02h.9v-8.736zm-1.848 3.156c.552 0 1.008.216 1.356.672.336.444.516 1.032.516 1.752v.12c0 .696-.156 1.26-.456 1.692-.348.48-.828.72-1.452.72-.672 0-1.176-.252-1.512-.732-.3-.432-.444-1.02-.444-1.764s.144-1.32.456-1.74c.336-.48.852-.72 1.536-.72m6.852-.792c-.9 0-1.608.324-2.136.972-.528.612-.78 1.38-.78 2.292 0 1.008.264 1.8.816 2.4.528.576 1.248.876 2.136.876.804 0 1.464-.24 1.98-.696.42-.384.696-.864.84-1.464h-.96c-.156.432-.36.756-.624.972-.312.252-.732.384-1.236.384-.588 0-1.056-.192-1.392-.576s-.516-.924-.564-1.62h4.896c-.024-1.08-.264-1.932-.72-2.532-.504-.672-1.26-1.008-2.256-1.008m.024.804c1.176 0 1.836.66 1.956 1.992h-3.876c.06-.612.252-1.092.588-1.452q.504-.54 1.332-.54m6.276-.804c-.696 0-1.272.156-1.704.468-.468.312-.696.72-.696 1.248s.228.924.708 1.212c.288.192.804.372 1.536.552.672.168 1.116.3 1.32.396.384.192.588.456.588.804 0 .696-.564 1.056-1.668 1.056q-.792 0-1.188-.288c-.264-.216-.444-.564-.516-1.056h-.936c.144 1.428 1.032 2.148 2.664 2.148 1.752 0 2.628-.648 2.628-1.92 0-.54-.252-.96-.744-1.272-.324-.204-.852-.396-1.596-.576-.624-.168-1.056-.3-1.284-.408-.36-.18-.528-.408-.528-.672q0-.414.396-.648c.24-.168.576-.24 1.008-.24.492 0 .876.096 1.14.288.24.168.396.456.48.84h.936c-.168-1.296-1.008-1.932-2.544-1.932m4.656-2.172a.69.69 0 0 0-.516.204c-.144.12-.204.288-.204.504 0 .204.06.372.204.516a.74.74 0 0 0 .516.204.74.74 0 0 0 .516-.204.7.7 0 0 0 .216-.516q0-.324-.216-.504a.69.69 0 0 0-.516-.204m-.48 2.34v6.204h.96v-6.204zm5.316-.168c-.864 0-1.548.3-2.052.912-.504.576-.744 1.308-.744 2.22 0 .9.24 1.632.744 2.208.504.588 1.188.888 2.052.888.936 0 1.632-.42 2.088-1.248v1.092c0 1.368-.624 2.064-1.872 2.064-.564 0-.984-.108-1.26-.312-.276-.192-.456-.504-.528-.924h-.96q.162 1.008.828 1.512c.432.336 1.08.504 1.92.504 1.884 0 2.832-.996 2.832-2.976v-5.772h-.96v1.068c-.456-.828-1.152-1.236-2.088-1.236m.144.792c.612 0 1.092.216 1.452.672.336.408.504.972.504 1.668 0 .672-.168 1.224-.504 1.644-.36.432-.84.648-1.464.648-.672 0-1.164-.24-1.5-.696-.3-.408-.444-.948-.444-1.596 0-.696.168-1.26.504-1.668.348-.456.828-.672 1.452-.672m7.296-.792q-.612 0-1.116.288-.504.27-.828.792v-.912h-.96v6.204h.96v-3.744c.036-.564.216-1.008.552-1.344a1.52 1.52 0 0 1 1.116-.468c1.08 0 1.632.6 1.632 1.812v3.744h.96v-3.816c0-1.704-.78-2.556-2.316-2.556m10.764 0c-.936 0-1.62.396-2.064 1.188v-1.02h-.9v8.58h.96v-3.504q.72 1.296 2.052 1.296c.888 0 1.572-.336 2.076-.984.456-.6.696-1.356.696-2.268 0-.936-.24-1.692-.708-2.292-.516-.672-1.224-.996-2.112-.996m-.12.792c.66 0 1.164.24 1.512.744.288.432.444 1.02.444 1.752q0 1.116-.468 1.764c-.348.456-.852.696-1.524.696-.576 0-1.02-.228-1.356-.66-.36-.444-.528-1.02-.528-1.74v-.12c0-.696.156-1.272.468-1.704.336-.492.828-.732 1.452-.732m6.888-.792c-.744 0-1.332.144-1.788.432-.504.312-.828.804-.96 1.452l.948.072c.096-.396.3-.696.624-.888.288-.192.66-.276 1.116-.276 1.08 0 1.62.516 1.62 1.56v.324l-1.488.024c-.936.012-1.656.192-2.16.528-.576.36-.852.888-.852 1.596 0 .504.192.924.576 1.248.372.312.864.468 1.488.468a3.15 3.15 0 0 0 1.548-.384c.384-.216.708-.492.948-.828v1.044h.9v-3.984c0-.72-.192-1.284-.552-1.692-.432-.468-1.08-.696-1.968-.696m1.56 3.396v.528c0 .48-.228.912-.672 1.284a2.35 2.35 0 0 1-1.56.576c-.384 0-.696-.096-.936-.276a.85.85 0 0 1-.348-.708c0-.9.696-1.356 2.088-1.38zm4.104-5.232-.948.396v1.608h-1.248v.804h1.248v3.948c0 .468.096.816.3 1.056.216.264.588.396 1.092.396h.936v-.804h-.792c-.216 0-.372-.06-.456-.156-.096-.096-.132-.264-.132-.492v-3.948h1.536v-.804h-1.536zm4.26 0-.948.396v1.608h-1.248v.804h1.248v3.948c0 .468.096.816.3 1.056.216.264.588.396 1.092.396h.936v-.804h-.792c-.216 0-.372-.06-.456-.156-.096-.096-.132-.264-.132-.492v-3.948h1.536v-.804h-1.536zm5.16 1.836c-.9 0-1.608.324-2.136.972-.528.612-.78 1.38-.78 2.292 0 1.008.264 1.8.816 2.4.528.576 1.248.876 2.136.876.804 0 1.464-.24 1.98-.696.42-.384.696-.864.84-1.464h-.96c-.156.432-.36.756-.624.972-.312.252-.732.384-1.236.384-.588 0-1.056-.192-1.392-.576s-.516-.924-.564-1.62h4.896c-.024-1.08-.264-1.932-.72-2.532-.504-.672-1.26-1.008-2.256-1.008m.024.804c1.176 0 1.836.66 1.956 1.992h-3.876c.06-.612.252-1.092.588-1.452q.504-.54 1.332-.54m6.804-.804c-.432 0-.804.132-1.128.396-.264.204-.48.492-.648.852v-1.08h-.948v6.204h.948v-3.288c0-.576.156-1.068.492-1.476.324-.432.732-.636 1.212-.636.3 0 .612.036.924.132v-.96c-.228-.096-.516-.144-.852-.144m4.56 0q-.612 0-1.116.288-.504.27-.828.792v-.912h-.96v6.204h.96v-3.744c.036-.564.216-1.008.552-1.344a1.52 1.52 0 0 1 1.116-.468c1.08 0 1.632.6 1.632 1.812v3.744h.96v-3.816c0-1.704-.78-2.556-2.316-2.556m6 0c-.696 0-1.272.156-1.704.468-.468.312-.696.72-.696 1.248s.228.924.708 1.212c.288.192.804.372 1.536.552.672.168 1.116.3 1.32.396.384.192.588.456.588.804 0 .696-.564 1.056-1.668 1.056q-.792 0-1.188-.288c-.264-.216-.444-.564-.516-1.056h-.936c.144 1.428 1.032 2.148 2.664 2.148 1.752 0 2.628-.648 2.628-1.92 0-.54-.252-.96-.744-1.272-.324-.204-.852-.396-1.596-.576-.624-.168-1.056-.3-1.284-.408-.36-.18-.528-.408-.528-.672q0-.414.396-.648c.24-.168.576-.24 1.008-.24.492 0 .876.096 1.14.288.24.168.396.456.48.84h.936c-.168-1.296-1.008-1.932-2.544-1.932m4.704 4.944c-.24 0-.42.06-.552.204-.156.132-.228.312-.228.54 0 .204.072.384.216.528a.7.7 0 0 0 .516.216.7.7 0 0 0 .264-.048c0 .288-.084.552-.264.804a1.67 1.67 0 0 1-.768.528v.588a2.3 2.3 0 0 0 1.248-.78q.468-.612.468-1.404c0-.348-.084-.624-.24-.84a.79.79 0 0 0-.66-.336m9.024-4.944c-.744 0-1.332.144-1.788.432-.504.312-.828.804-.96 1.452l.948.072c.096-.396.3-.696.624-.888.288-.192.66-.276 1.116-.276 1.08 0 1.62.516 1.62 1.56v.324l-1.488.024c-.936.012-1.656.192-2.16.528-.576.36-.852.888-.852 1.596 0 .504.192.924.576 1.248.372.312.864.468 1.488.468a3.15 3.15 0 0 0 1.548-.384c.384-.216.708-.492.948-.828v1.044h.9v-3.984c0-.72-.192-1.284-.552-1.692-.432-.468-1.08-.696-1.968-.696m1.56 3.396v.528c0 .48-.228.912-.672 1.284a2.35 2.35 0 0 1-1.56.576c-.384 0-.696-.096-.936-.276a.85.85 0 0 1-.348-.708c0-.9.696-1.356 2.088-1.38zm5.352-3.396q-.612 0-1.116.288-.504.27-.828.792v-.912h-.96v6.204h.96v-3.744c.036-.564.216-1.008.552-1.344a1.52 1.52 0 0 1 1.116-.468c1.08 0 1.632.6 1.632 1.812v3.744h.96v-3.816c0-1.704-.78-2.556-2.316-2.556m8.388-2.364v3.672c-.48-.876-1.164-1.308-2.052-1.308s-1.572.324-2.076.996c-.468.6-.696 1.344-.696 2.256 0 .936.228 1.704.696 2.304.504.648 1.212.984 2.124.984.936 0 1.632-.396 2.064-1.188v1.02h.9v-8.736zm-1.848 3.156c.552 0 1.008.216 1.356.672.336.444.516 1.032.516 1.752v.12c0 .696-.156 1.26-.456 1.692-.348.48-.828.72-1.452.72-.672 0-1.176-.252-1.512-.732-.3-.432-.444-1.02-.444-1.764s.144-1.32.456-1.74c.336-.48.852-.72 1.536-.72m8.292-3.156v8.736h.9v-1.02c.42.792 1.104 1.188 2.064 1.188.9 0 1.608-.336 2.124-.984.456-.6.696-1.368.696-2.304 0-.912-.24-1.656-.696-2.256-.504-.672-1.2-.996-2.076-.996-.888 0-1.572.432-2.052 1.308v-3.672zm2.808 3.156c.672 0 1.176.24 1.524.72.312.42.468.996.468 1.74s-.156 1.332-.444 1.764c-.336.48-.84.732-1.512.732-.624 0-1.116-.24-1.452-.72q-.468-.648-.468-1.692v-.12c0-.72.168-1.308.528-1.752.336-.456.792-.672 1.356-.672m6.78-.792c-.9 0-1.608.324-2.136.972-.528.612-.78 1.38-.78 2.292 0 1.008.264 1.8.816 2.4.528.576 1.248.876 2.136.876.804 0 1.464-.24 1.98-.696.42-.384.696-.864.84-1.464h-.96c-.156.432-.36.756-.624.972-.312.252-.732.384-1.236.384-.588 0-1.056-.192-1.392-.576s-.516-.924-.564-1.62h4.896c-.024-1.08-.264-1.932-.72-2.532-.504-.672-1.26-1.008-2.256-1.008m.024.804c1.176 0 1.836.66 1.956 1.992h-3.876c.06-.612.252-1.092.588-1.452q.504-.54 1.332-.54m6.276-.804c-.696 0-1.272.156-1.704.468-.468.312-.696.72-.696 1.248s.228.924.708 1.212c.288.192.804.372 1.536.552.672.168 1.116.3 1.32.396.384.192.588.456.588.804 0 .696-.564 1.056-1.668 1.056q-.792 0-1.188-.288c-.264-.216-.444-.564-.516-1.056h-.936c.144 1.428 1.032 2.148 2.664 2.148 1.752 0 2.628-.648 2.628-1.92 0-.54-.252-.96-.744-1.272-.324-.204-.852-.396-1.596-.576-.624-.168-1.056-.3-1.284-.408-.36-.18-.528-.408-.528-.672q0-.414.396-.648c.24-.168.576-.24 1.008-.24.492 0 .876.096 1.14.288.24.168.396.456.48.84h.936c-.168-1.296-1.008-1.932-2.544-1.932m5.52-1.836-.948.396v1.608h-1.248v.804h1.248v3.948c0 .468.096.816.3 1.056.216.264.588.396 1.092.396h.936v-.804h-.792c-.216 0-.372-.06-.456-.156-.096-.096-.132-.264-.132-.492v-3.948h1.536v-.804h-1.536zm9.564 1.836c-.936 0-1.62.396-2.064 1.188v-1.02h-.9v8.58h.96v-3.504q.72 1.296 2.052 1.296c.888 0 1.572-.336 2.076-.984.456-.6.696-1.356.696-2.268 0-.936-.24-1.692-.708-2.292-.516-.672-1.224-.996-2.112-.996m-.12.792c.66 0 1.164.24 1.512.744.288.432.444 1.02.444 1.752q0 1.116-.468 1.764c-.348.456-.852.696-1.524.696-.576 0-1.02-.228-1.356-.66-.36-.444-.528-1.02-.528-1.74v-.12c0-.696.156-1.272.468-1.704.336-.492.828-.732 1.452-.732m6.912-.792c-.432 0-.804.132-1.128.396-.264.204-.48.492-.648.852v-1.08h-.948v6.204h.948v-3.288c0-.576.156-1.068.492-1.476.324-.432.732-.636 1.212-.636.3 0 .612.036.924.132v-.96c-.228-.096-.516-.144-.852-.144m4.356 0c-.744 0-1.332.144-1.788.432-.504.312-.828.804-.96 1.452l.948.072c.096-.396.3-.696.624-.888.288-.192.66-.276 1.116-.276 1.08 0 1.62.516 1.62 1.56v.324l-1.488.024c-.936.012-1.656.192-2.16.528-.576.36-.852.888-.852 1.596 0 .504.192.924.576 1.248.372.312.864.468 1.488.468a3.15 3.15 0 0 0 1.548-.384c.384-.216.708-.492.948-.828v1.044h.9v-3.984c0-.72-.192-1.284-.552-1.692-.432-.468-1.08-.696-1.968-.696m1.56 3.396v.528c0 .48-.228.912-.672 1.284a2.35 2.35 0 0 1-1.56.576c-.384 0-.696-.096-.936-.276a.85.85 0 0 1-.348-.708c0-.9.696-1.356 2.088-1.38zm5.124-3.396c-.924 0-1.656.324-2.184.984-.492.6-.732 1.368-.732 2.316s.24 1.716.732 2.304c.516.624 1.236.936 2.172.936.768 0 1.38-.204 1.848-.6.48-.408.78-1.02.924-1.812h-.96c-.144 1.068-.756 1.608-1.812 1.608-.624 0-1.104-.228-1.428-.66-.336-.432-.492-1.032-.492-1.788q0-1.134.504-1.8c.348-.456.828-.684 1.428-.684.492 0 .888.108 1.2.348q.45.36.576 1.08h.948c-.108-.756-.396-1.32-.876-1.692-.468-.36-1.08-.54-1.848-.54m5.544-1.836-.948.396v1.608h-1.248v.804h1.248v3.948c0 .468.096.816.3 1.056.216.264.588.396 1.092.396h.936v-.804h-.792c-.216 0-.372-.06-.456-.156-.096-.096-.132-.264-.132-.492v-3.948h1.536v-.804h-1.536zm3.396-.336a.69.69 0 0 0-.516.204c-.144.12-.204.288-.204.504 0 .204.06.372.204.516a.74.74 0 0 0 .516.204.74.74 0 0 0 .516-.204.7.7 0 0 0 .216-.516q0-.324-.216-.504a.69.69 0 0 0-.516-.204m-.48 2.34v6.204h.96v-6.204zm5.436-.168c-.924 0-1.656.324-2.184.984-.492.6-.732 1.368-.732 2.316s.24 1.716.732 2.304c.516.624 1.236.936 2.172.936.768 0 1.38-.204 1.848-.6.48-.408.78-1.02.924-1.812h-.96c-.144 1.068-.756 1.608-1.812 1.608-.624 0-1.104-.228-1.428-.66-.336-.432-.492-1.032-.492-1.788q0-1.134.504-1.8c.348-.456.828-.684 1.428-.684.492 0 .888.108 1.2.348q.45.36.576 1.08h.948c-.108-.756-.396-1.32-.876-1.692-.468-.36-1.08-.54-1.848-.54m6.444 0c-.9 0-1.608.324-2.136.972-.528.612-.78 1.38-.78 2.292 0 1.008.264 1.8.816 2.4.528.576 1.248.876 2.136.876.804 0 1.464-.24 1.98-.696.42-.384.696-.864.84-1.464h-.96c-.156.432-.36.756-.624.972-.312.252-.732.384-1.236.384-.588 0-1.056-.192-1.392-.576s-.516-.924-.564-1.62h4.896c-.024-1.08-.264-1.932-.72-2.532-.504-.672-1.26-1.008-2.256-1.008m.024.804c1.176 0 1.836.66 1.956 1.992h-3.876c.06-.612.252-1.092.588-1.452q.504-.54 1.332-.54m6.276-.804c-.696 0-1.272.156-1.704.468-.468.312-.696.72-.696 1.248s.228.924.708 1.212c.288.192.804.372 1.536.552.672.168 1.116.3 1.32.396.384.192.588.456.588.804 0 .696-.564 1.056-1.668 1.056q-.792 0-1.188-.288c-.264-.216-.444-.564-.516-1.056h-.936c.144 1.428 1.032 2.148 2.664 2.148 1.752 0 2.628-.648 2.628-1.92 0-.54-.252-.96-.744-1.272-.324-.204-.852-.396-1.596-.576-.624-.168-1.056-.3-1.284-.408-.36-.18-.528-.408-.528-.672q0-.414.396-.648c.24-.168.576-.24 1.008-.24.492 0 .876.096 1.14.288.24.168.396.456.48.84h.936c-.168-1.296-1.008-1.932-2.544-1.932m4.704 4.944a.66.66 0 0 0-.516.216.7.7 0 0 0-.216.528c0 .204.072.372.216.516.132.144.3.216.516.216a.72.72 0 0 0 .516-.216.7.7 0 0 0 .216-.516.7.7 0 0 0-.216-.528.72.72 0 0 0-.516-.216"/><g filter="url(#e)"><path fill="url(#f)" fill-rule="evenodd" d="M0 10v210h242.549V10c0-5.523-4.477-10-10-10H10C4.477 0 0 4.477 0 10m241.549 209H1V10q0-3.728 2.636-6.364T10 1h222.549q3.728 0 6.364 2.636T241.549 10z"/></g><path fill="url(#g)" fill-rule="evenodd" d="M259.985 187.517v-162h1v162z"/><rect width="204.914" height="24" x="12.977" y="53.517" fill="url(#h)" rx="2"/><path fill="url(#i)" d="M25.916 60.325c-1.512 0-2.688.504-3.556 1.512-.826.952-1.232 2.184-1.232 3.696 0 1.498.406 2.73 1.232 3.682.868.994 2.044 1.498 3.542 1.498s2.688-.504 3.556-1.498c.812-.952 1.232-2.17 1.232-3.682 0-1.526-.42-2.758-1.232-3.71-.868-1.008-2.058-1.498-3.542-1.498m0 1.022c1.148 0 2.044.378 2.688 1.148.616.756.938 1.764.938 3.038 0 1.26-.322 2.254-.938 3.01-.644.756-1.554 1.148-2.702 1.148s-2.058-.392-2.702-1.176q-.924-1.134-.924-2.982c0-1.246.308-2.24.924-2.996.658-.798 1.568-1.19 2.716-1.19m9.408 1.736c-.504 0-.938.154-1.316.462-.308.238-.56.574-.756.994v-1.26h-1.106v7.238h1.106v-3.836c0-.672.182-1.246.574-1.722.378-.504.854-.742 1.414-.742.35 0 .714.042 1.078.154v-1.12c-.266-.112-.602-.168-.994-.168m5.054 0c-1.078 0-1.932.378-2.548 1.148-.574.7-.854 1.596-.854 2.702s.28 2.002.854 2.688c.602.728 1.442 1.092 2.534 1.092.896 0 1.61-.238 2.156-.7.56-.476.91-1.19 1.078-2.114h-1.12c-.168 1.246-.882 1.876-2.114 1.876-.728 0-1.288-.266-1.666-.77-.392-.504-.574-1.204-.574-2.086q0-1.323.588-2.1c.406-.532.966-.798 1.666-.798.574 0 1.036.126 1.4.406q.525.42.672 1.26h1.106c-.126-.882-.462-1.54-1.022-1.974-.546-.42-1.26-.63-2.156-.63m4.536-2.758v10.192h1.12v-4.13c0-.672.182-1.246.56-1.694q.546-.672 1.386-.672c.602 0 1.064.182 1.4.546.308.364.476.882.476 1.554v4.396h1.12v-4.564c0-.924-.224-1.638-.672-2.128-.448-.504-1.106-.742-1.946-.742-.49 0-.924.112-1.316.336q-.63.357-1.008 1.05v-4.144zm10.766 2.758c-1.05 0-1.876.378-2.492 1.134-.616.714-.91 1.61-.91 2.674 0 1.176.308 2.1.952 2.8.616.672 1.456 1.022 2.492 1.022.938 0 1.708-.28 2.31-.812.49-.448.812-1.008.98-1.708h-1.12c-.182.504-.42.882-.728 1.134-.364.294-.854.448-1.442.448-.686 0-1.232-.224-1.624-.672s-.602-1.078-.658-1.89h5.712c-.028-1.26-.308-2.254-.84-2.954-.588-.784-1.47-1.176-2.632-1.176m.028.938c1.372 0 2.142.77 2.282 2.324h-4.522c.07-.714.294-1.274.686-1.694q.588-.63 1.554-.63m7.322-.938c-.812 0-1.484.182-1.988.546-.546.364-.812.84-.812 1.456s.266 1.078.826 1.414c.336.224.938.434 1.792.644.784.196 1.302.35 1.54.462.448.224.686.532.686.938 0 .812-.658 1.232-1.946 1.232q-.924 0-1.386-.336c-.308-.252-.518-.658-.602-1.232h-1.092c.168 1.666 1.204 2.506 3.108 2.506 2.044 0 3.066-.756 3.066-2.24 0-.63-.294-1.12-.868-1.484-.378-.238-.994-.462-1.862-.672-.728-.196-1.232-.35-1.498-.476-.42-.21-.616-.476-.616-.784q0-.483.462-.756c.28-.196.672-.28 1.176-.28.574 0 1.022.112 1.33.336.28.196.462.532.56.98h1.092c-.196-1.512-1.176-2.254-2.968-2.254m6.44-2.142-1.106.462v1.876h-1.456v.938h1.456v4.606c0 .546.112.952.35 1.232.252.308.686.462 1.274.462h1.092v-.938h-.924c-.252 0-.434-.07-.532-.182-.112-.112-.154-.308-.154-.574v-4.606h1.792v-.938H69.47zm6.216 2.142c-.504 0-.938.154-1.316.462-.308.238-.56.574-.756.994v-1.26h-1.106v7.238h1.106v-3.836c0-.672.182-1.246.574-1.722.378-.504.854-.742 1.414-.742.35 0 .714.042 1.078.154v-1.12c-.266-.112-.602-.168-.994-.168m5.082 0c-.868 0-1.554.168-2.086.504-.588.364-.966.938-1.12 1.694l1.106.084c.112-.462.35-.812.728-1.036.336-.224.77-.322 1.302-.322 1.26 0 1.89.602 1.89 1.82v.378l-1.736.028c-1.092.014-1.932.224-2.52.616-.672.42-.994 1.036-.994 1.862 0 .588.224 1.078.672 1.456.434.364 1.008.546 1.736.546.672 0 1.274-.154 1.806-.448a3.4 3.4 0 0 0 1.106-.966v1.218h1.05V65.87c0-.84-.224-1.498-.644-1.974-.504-.546-1.26-.812-2.296-.812m1.82 3.962v.616c0 .56-.266 1.064-.784 1.498a2.74 2.74 0 0 1-1.82.672c-.448 0-.812-.112-1.092-.322-.28-.224-.406-.49-.406-.826 0-1.05.812-1.582 2.436-1.61zm4.788-6.104-1.106.462v1.876h-1.456v.938h1.456v4.606c0 .546.112.952.35 1.232.252.308.686.462 1.274.462h1.092v-.938h-.924c-.252 0-.434-.07-.532-.182-.112-.112-.154-.308-.154-.574v-4.606h1.792v-.938h-1.792zm6.272 2.142c-1.092 0-1.946.364-2.59 1.12-.616.714-.924 1.61-.924 2.702 0 1.078.308 1.974.924 2.674.644.756 1.498 1.134 2.59 1.134q1.617 0 2.604-1.134c.602-.7.91-1.596.91-2.674 0-1.092-.308-1.988-.924-2.702-.644-.756-1.512-1.12-2.59-1.12m0 .938q1.134 0 1.806.882c.378.532.574 1.19.574 2.002 0 .784-.196 1.456-.574 1.988q-.672.882-1.806.882c-.77 0-1.372-.294-1.792-.882-.392-.532-.574-1.19-.574-1.988 0-.812.182-1.47.574-2.002.42-.588 1.022-.882 1.792-.882m8.148-.938c-.504 0-.938.154-1.316.462-.308.238-.56.574-.756.994v-1.26h-1.106v7.238h1.106v-3.836c0-.672.182-1.246.574-1.722.378-.504.854-.742 1.414-.742.35 0 .714.042 1.078.154v-1.12c-.266-.112-.602-.168-.994-.168"/><path fill="#FFF" d="M25.86 88.325c-1.54 0-2.744.518-3.584 1.582-.77.952-1.148 2.17-1.148 3.654s.364 2.688 1.12 3.612c.826 1.022 2.016 1.54 3.57 1.54 1.064 0 1.988-.308 2.758-.91.826-.644 1.344-1.554 1.568-2.716h-1.106c-.196.868-.602 1.526-1.19 1.974-.56.42-1.232.63-2.03.63-1.176 0-2.058-.392-2.674-1.162-.588-.728-.868-1.722-.868-2.968s.294-2.24.882-2.996q.945-1.218 2.688-1.218c.784 0 1.442.182 1.988.56.56.392.924.952 1.064 1.68h1.106c-.14-.994-.588-1.792-1.344-2.38s-1.694-.882-2.8-.882m8.974 2.758c-1.092 0-1.946.364-2.59 1.12-.616.714-.924 1.61-.924 2.702 0 1.078.308 1.974.924 2.674.644.756 1.498 1.134 2.59 1.134q1.617 0 2.604-1.134c.602-.7.91-1.596.91-2.674 0-1.092-.308-1.988-.924-2.702-.644-.756-1.512-1.12-2.59-1.12m0 .938q1.134 0 1.806.882c.378.532.574 1.19.574 2.002 0 .784-.196 1.456-.574 1.988q-.672.882-1.806.882c-.77 0-1.372-.294-1.792-.882-.392-.532-.574-1.19-.574-1.988 0-.812.182-1.47.574-2.002.42-.588 1.022-.882 1.792-.882m10.318-3.696v4.284c-.56-1.022-1.358-1.526-2.394-1.526s-1.834.378-2.422 1.162c-.546.7-.812 1.568-.812 2.632 0 1.092.266 1.988.812 2.688.588.756 1.414 1.148 2.478 1.148 1.092 0 1.904-.462 2.408-1.386v1.19h1.05V88.325zm-2.156 3.682c.644 0 1.176.252 1.582.784.392.518.602 1.204.602 2.044v.14c0 .812-.182 1.47-.532 1.974-.406.56-.966.84-1.694.84-.784 0-1.372-.294-1.764-.854-.35-.504-.518-1.19-.518-2.058s.168-1.54.532-2.03c.392-.56.994-.84 1.792-.84m7.994-.924c-1.05 0-1.876.378-2.492 1.134-.616.714-.91 1.61-.91 2.674 0 1.176.308 2.1.952 2.8.616.672 1.456 1.022 2.492 1.022.938 0 1.708-.28 2.31-.812.49-.448.812-1.008.98-1.708h-1.12c-.182.504-.42.882-.728 1.134-.364.294-.854.448-1.442.448-.686 0-1.232-.224-1.624-.672s-.602-1.078-.658-1.89h5.712c-.028-1.26-.308-2.254-.84-2.954-.588-.784-1.47-1.176-2.632-1.176m.028.938c1.372 0 2.142.77 2.282 2.324h-4.522c.07-.714.294-1.274.686-1.694q.588-.63 1.554-.63M24.474 116.521l-3.934 9.996h1.232l1.064-2.8h4.592l1.064 2.8h1.246l-3.934-9.996zm-1.274 6.23 1.918-4.998h.056l1.89 4.998zm10.584-3.668c-.504 0-.938.154-1.316.462-.308.238-.56.574-.756.994v-1.26h-1.106v7.238h1.106v-3.836c0-.672.182-1.246.574-1.722.378-.504.854-.742 1.414-.742.35 0 .714.042 1.078.154v-1.12c-.266-.112-.602-.168-.994-.168m5.054 0c-1.078 0-1.932.378-2.548 1.148-.574.7-.854 1.596-.854 2.702s.28 2.002.854 2.688c.602.728 1.442 1.092 2.534 1.092.896 0 1.61-.238 2.156-.7.56-.476.91-1.19 1.078-2.114h-1.12c-.168 1.246-.882 1.876-2.114 1.876-.728 0-1.288-.266-1.666-.77-.392-.504-.574-1.204-.574-2.086q0-1.323.588-2.1c.406-.532.966-.798 1.666-.798.574 0 1.036.126 1.4.406q.525.42.672 1.26h1.106c-.126-.882-.462-1.54-1.022-1.974-.546-.42-1.26-.63-2.156-.63m4.536-2.758v10.192h1.12v-4.13c0-.672.182-1.246.56-1.694q.546-.672 1.386-.672c.602 0 1.064.182 1.4.546.308.364.476.882.476 1.554v4.396h1.12v-4.564c0-.924-.224-1.638-.672-2.128-.448-.504-1.106-.742-1.946-.742-.49 0-.924.112-1.316.336q-.63.357-1.008 1.05v-4.144zm8.708.224a.8.8 0 0 0-.602.238c-.168.14-.238.336-.238.588 0 .238.07.434.238.602a.86.86 0 0 0 .602.238.86.86 0 0 0 .602-.238.81.81 0 0 0 .252-.602q0-.378-.252-.588a.8.8 0 0 0-.602-.238m-.56 2.73v7.238h1.12v-7.238zm5.152-2.338-1.106.462v1.876h-1.456v.938h1.456v4.606c0 .546.112.952.35 1.232.252.308.686.462 1.274.462h1.092v-.938h-.924c-.252 0-.434-.07-.532-.182-.112-.112-.154-.308-.154-.574v-4.606h1.792v-.938h-1.792zm6.02 2.142c-1.05 0-1.876.378-2.492 1.134-.616.714-.91 1.61-.91 2.674 0 1.176.308 2.1.952 2.8.616.672 1.456 1.022 2.492 1.022.938 0 1.708-.28 2.31-.812.49-.448.812-1.008.98-1.708h-1.12c-.182.504-.42.882-.728 1.134-.364.294-.854.448-1.442.448-.686 0-1.232-.224-1.624-.672s-.602-1.078-.658-1.89h5.712c-.028-1.26-.308-2.254-.84-2.954-.588-.784-1.47-1.176-2.632-1.176m.028.938c1.372 0 2.142.77 2.282 2.324h-4.522c.07-.714.294-1.274.686-1.694q.588-.63 1.554-.63m7.882-.938c-1.078 0-1.932.378-2.548 1.148-.574.7-.854 1.596-.854 2.702s.28 2.002.854 2.688c.602.728 1.442 1.092 2.534 1.092.896 0 1.61-.238 2.156-.7.56-.476.91-1.19 1.078-2.114h-1.12c-.168 1.246-.882 1.876-2.114 1.876-.728 0-1.288-.266-1.666-.77-.392-.504-.574-1.204-.574-2.086q0-1.323.588-2.1c.406-.532.966-.798 1.666-.798.574 0 1.036.126 1.4.406q.525.42.672 1.26h1.106c-.126-.882-.462-1.54-1.022-1.974-.546-.42-1.26-.63-2.156-.63m6.468-2.142-1.106.462v1.876H74.51v.938h1.456v4.606c0 .546.112.952.35 1.232.252.308.686.462 1.274.462h1.092v-.938h-.924c-.252 0-.434-.07-.532-.182-.112-.112-.154-.308-.154-.574v-4.606h1.792v-.938h-1.792zM24.474 144.521l-3.934 9.996h1.232l1.064-2.8h4.592l1.064 2.8h1.246l-3.934-9.996zm-1.274 6.23 1.918-4.998h.056l1.89 4.998zm9.968-3.668c-.812 0-1.484.182-1.988.546-.546.364-.812.84-.812 1.456s.266 1.078.826 1.414c.336.224.938.434 1.792.644.784.196 1.302.35 1.54.462.448.224.686.532.686.938 0 .812-.658 1.232-1.946 1.232q-.924 0-1.386-.336c-.308-.252-.518-.658-.602-1.232h-1.092c.168 1.666 1.204 2.506 3.108 2.506 2.044 0 3.066-.756 3.066-2.24 0-.63-.294-1.12-.868-1.484-.378-.238-.994-.462-1.862-.672-.728-.196-1.232-.35-1.498-.476-.42-.21-.616-.476-.616-.784q0-.483.462-.756c.28-.196.672-.28 1.176-.28.574 0 1.022.112 1.33.336.28.196.462.532.56.98h1.092c-.196-1.512-1.176-2.254-2.968-2.254m4.508-2.758v10.192h1.12v-2.562l1.148-1.036 2.828 3.598h1.442l-3.5-4.326 3.192-2.912h-1.484l-3.626 3.36v-6.314zM21.548 172.521v9.996h3.472c1.568 0 2.772-.462 3.612-1.372.798-.868 1.204-2.086 1.204-3.626 0-1.568-.378-2.786-1.12-3.626-.812-.924-2.002-1.372-3.584-1.372zm1.148.994h2.254c1.316 0 2.268.336 2.884 1.022.574.644.868 1.638.868 2.982 0 1.302-.322 2.296-.938 2.968-.658.686-1.638 1.036-2.94 1.036h-2.128zm11.578 1.568c-1.05 0-1.876.378-2.492 1.134-.616.714-.91 1.61-.91 2.674 0 1.176.308 2.1.952 2.8.616.672 1.456 1.022 2.492 1.022.938 0 1.708-.28 2.31-.812.49-.448.812-1.008.98-1.708h-1.12c-.182.504-.42.882-.728 1.134-.364.294-.854.448-1.442.448-.686 0-1.232-.224-1.624-.672s-.602-1.078-.658-1.89h5.712c-.028-1.26-.308-2.254-.84-2.954-.588-.784-1.47-1.176-2.632-1.176m.028.938c1.372 0 2.142.77 2.282 2.324h-4.522c.07-.714.294-1.274.686-1.694q.588-.63 1.554-.63m4.76-3.696v10.192h1.05v-1.19c.49.924 1.288 1.386 2.408 1.386 1.05 0 1.876-.392 2.478-1.148.532-.7.812-1.596.812-2.688 0-1.064-.28-1.932-.812-2.632-.588-.784-1.4-1.162-2.422-1.162-1.036 0-1.834.504-2.394 1.526v-4.284zm3.276 3.682c.784 0 1.372.28 1.778.84.364.49.546 1.162.546 2.03s-.182 1.554-.518 2.058c-.392.56-.98.854-1.764.854-.728 0-1.302-.28-1.694-.84q-.546-.756-.546-1.974v-.14c0-.84.196-1.526.616-2.044.392-.532.924-.784 1.582-.784m4.928-.728v4.48c0 1.96.868 2.954 2.632 2.954.98 0 1.764-.448 2.352-1.316v1.12h1.12v-7.238h-1.12v4.41q-.126.924-.714 1.512c-.378.364-.812.56-1.288.56-.658 0-1.134-.182-1.428-.518s-.434-.854-.434-1.54v-4.424zm10.822-.196c-1.008 0-1.806.35-2.394 1.064-.588.672-.868 1.526-.868 2.59 0 1.05.28 1.904.868 2.576.588.686 1.386 1.036 2.394 1.036 1.092 0 1.904-.49 2.436-1.456v1.274c0 1.596-.728 2.408-2.184 2.408-.658 0-1.148-.126-1.47-.364-.322-.224-.532-.588-.616-1.078h-1.12q.189 1.176.966 1.764c.504.392 1.26.588 2.24.588 2.198 0 3.304-1.162 3.304-3.472v-6.734h-1.12v1.246c-.532-.966-1.344-1.442-2.436-1.442m.168.924c.714 0 1.274.252 1.694.784.392.476.588 1.134.588 1.946 0 .784-.196 1.428-.588 1.918-.42.504-.98.756-1.708.756-.784 0-1.358-.28-1.75-.812-.35-.476-.518-1.106-.518-1.862 0-.812.196-1.47.588-1.946.406-.532.966-.784 1.694-.784"/><ellipse cx="216.646" cy="65.518" fill="#0066FE" rx="7.087" ry="7"/><path fill="#FFF" fill-rule="evenodd" d="m215.55 68.903 5.784-5.713-.703-.711-5.08 5.018-2.315-2.287-.703.712z"/><path fill="#FFF" fill-opacity=".7" d="M13.957 29.004V39h1.526v-7.14h.056L18.605 39h1.316l3.066-7.14h.056V39h1.526v-9.996h-1.806l-3.472 8.008h-.042l-3.486-8.008zm15.764 2.562c-1.092 0-1.974.364-2.632 1.092-.658.714-.98 1.624-.98 2.73 0 1.092.322 2.002.966 2.702.672.728 1.554 1.106 2.646 1.106s1.974-.378 2.646-1.106c.644-.7.966-1.61.966-2.702 0-1.106-.336-2.016-.98-2.73-.658-.728-1.54-1.092-2.632-1.092m0 1.218c.686 0 1.218.266 1.61.812.336.462.504 1.064.504 1.792 0 .714-.168 1.302-.504 1.778-.392.532-.924.812-1.61.812s-1.218-.28-1.596-.812c-.336-.462-.49-1.05-.49-1.778s.154-1.33.49-1.792c.378-.546.91-.812 1.596-.812m10.234-3.976v4.032c-.588-.854-1.33-1.274-2.212-1.274-1.036 0-1.862.378-2.45 1.134-.56.7-.826 1.582-.826 2.646 0 1.106.28 2.016.84 2.716.602.756 1.442 1.134 2.506 1.134.98 0 1.736-.364 2.24-1.064V39h1.386V28.808zM38.08 32.77c.546 0 .994.21 1.358.658.364.476.56 1.106.56 1.89v.126c0 .728-.154 1.316-.462 1.778-.364.504-.854.77-1.498.77-.728 0-1.274-.266-1.61-.784-.294-.448-.434-1.064-.434-1.862s.154-1.414.462-1.834c.35-.504.896-.742 1.624-.742m8.106-1.204c-1.064 0-1.918.364-2.534 1.106-.644.728-.952 1.624-.952 2.702 0 1.19.336 2.128 1.008 2.828.616.658 1.47.994 2.534.994.966 0 1.764-.28 2.394-.826.504-.448.826-1.022.994-1.694h-1.484c-.196.42-.406.742-.658.938-.322.238-.742.364-1.26.364-.588 0-1.05-.196-1.386-.56-.336-.378-.518-.924-.574-1.624h5.488c-.014-1.288-.308-2.296-.868-3.024-.616-.812-1.526-1.204-2.702-1.204m.042 1.218q1.764 0 1.974 1.89h-3.906c.084-.616.294-1.078.602-1.4.336-.336.77-.49 1.33-.49m7.49-1.218c-.868 0-1.582.182-2.128.56-.546.364-.812.882-.812 1.54 0 .616.28 1.106.84 1.456.336.224.938.434 1.792.63.742.168 1.232.308 1.456.42.42.196.644.476.644.826 0 .644-.588.98-1.736.98-.56 0-.952-.098-1.204-.28-.252-.196-.434-.546-.518-1.036h-1.456c.168 1.68 1.232 2.534 3.22 2.534 2.142 0 3.22-.77 3.22-2.296 0-.644-.294-1.148-.868-1.512-.392-.252-1.008-.49-1.834-.686-.728-.182-1.204-.322-1.456-.434-.392-.182-.588-.392-.588-.644 0-.28.126-.504.392-.644.224-.14.56-.196 1.008-.196.504 0 .896.084 1.148.252.238.154.406.42.518.812h1.442c-.168-1.526-1.204-2.282-3.08-2.282m7.238-1.274a.97.97 0 0 0-.742.308 1.01 1.01 0 0 0-.294.742c0 .28.098.532.294.728s.448.308.742.308c.28 0 .532-.112.742-.308.196-.196.308-.448.308-.728 0-.294-.112-.546-.308-.742a1.02 1.02 0 0 0-.742-.308m0 5.124a.97.97 0 0 0-.742.308 1.01 1.01 0 0 0-.294.742c0 .28.098.532.294.728s.448.308.742.308c.28 0 .532-.112.742-.308.196-.196.308-.448.308-.728 0-.294-.112-.546-.308-.742a1.02 1.02 0 0 0-.742-.308"/></svg>