<svg xmlns="http://www.w3.org/2000/svg" xmlns:xlink="http://www.w3.org/1999/xlink" fill="none" version="1.1" width="520.6884765625" height="64" viewBox="0 0 520.6884765625 64"><defs><radialGradient cx="0" cy="0" r="1" gradientUnits="userSpaceOnUse" id="master_svg0_113_30029" gradientTransform="translate(260.34429931640625 32) rotate(90) scale(32 260.34429931640625)"><stop offset="25.714287161827087%" stop-color="#00297C" stop-opacity="1"/><stop offset="100%" stop-color="#16274A" stop-opacity="0"/></radialGradient><linearGradient x1="-0.10665636509656906" y1="0.5" x2="1.0478367951747485" y2="0.506447954639242" id="master_svg1_113_29631"><stop offset="0%" stop-color="#0066FE" stop-opacity="0"/><stop offset="51.428574323654175%" stop-color="#FFFFFF" stop-opacity="1"/><stop offset="100%" stop-color="#0066FE" stop-opacity="0"/></linearGradient><clipPath id="master_svg2_129_11704"><rect x="157.84429931640625" y="8" width="48" height="48" rx="2"/></clipPath></defs><g><rect x="0" y="0" width="520.6885986328125" height="64" rx="0" fill="url(#master_svg0_113_30029)" fill-opacity="1"/><path d="M520.689,0L0,0L0,2L520.689,2L520.689,0ZM520.689,62L0,62L0,64L520.689,64L520.689,62Z" fill-rule="evenodd" fill="url(#master_svg1_113_29631)" fill-opacity="1"/><g><g clip-path="url(#master_svg2_129_11704)"><g><g><path d="M202.33567666015625,14.722186718749999L193.25427666015625,10.34998571875C192.20307666015626,9.84315271875,190.94637666015626,10.05671851875,190.12157666015625,10.88233471875L160.39347766015624,37.98493671875C159.64238266015624,38.66643671875,159.58597166015625,39.82783671875,160.26747766015626,40.57893671875C160.30685266015624,40.621436718750005,160.34622766015625,40.66243671875,160.38875266015626,40.70023671875L162.81582666015626,42.90523671875C163.47022666015624,43.50083671875,164.45647666015626,43.54453671875,165.16100666015626,43.00913671875L200.96857666015626,15.85618671875C201.52027666015624,15.43754671875,202.26147666015623,15.367486718750001,202.88187666015625,15.67532671875C203.50217666015624,15.983166718749999,203.89467666015625,16.61579671875,203.89497666015626,17.30833671875L203.89497666015626,17.20280671875C203.89487666015626,16.14505671875,203.28887666015623,15.18086671875,202.33567666015625,14.722186718749999Z" fill="#0084DC" fill-opacity="1"/></g><g><path d="M202.33567666015625,49.27764609375L193.25427666015625,53.65144609375C192.20287666015625,54.15674609375,190.94707666015626,53.94334609375,190.12157666015625,53.11904609375L160.39347766015624,26.01488609375C159.64238266015624,25.333356093749998,159.58597166015625,24.17198609375,160.26747766015626,23.42086609375C160.30685266015624,23.37833609375,160.34622766015625,23.33738609375,160.38875266015626,23.29958609375L162.81582666015626,21.09459009375C163.47099666015626,20.49640309375,164.46029666015625,20.45264009375,165.16572666015625,20.99064109375L200.96857666015626,48.14364609375C201.52027666015624,48.562246093750005,202.26147666015623,48.63234609375,202.88187666015625,48.32444609375C203.50217666015624,48.01664609375,203.89467666015625,47.38404609375,203.89497666015626,46.69144609375L203.89497666015626,46.80484609375C203.89147666015626,47.85964609375,203.28607666015625,48.819946093750005,202.33567666015625,49.27764609375Z" fill="#0065A8" fill-opacity="1"/></g><g><path d="M193.2540823046875,53.65086015625C192.2027023046875,54.15626015625,190.9468433046875,53.94286015625,190.1214107646875,53.11856015625C190.5838443046875,53.57496015625,191.2748223046875,53.70966015625,191.8748223046875,53.46036015625C192.4748223046875,53.21106015625,192.8669123046875,52.62636015625,192.8697823046875,51.97666015625L192.8697823046875,12.02206015625C192.8703223046875,11.36913015625,192.4771323046875,10.78029115625,191.8738423046875,10.53055915625C191.2705523046875,10.28082715625,190.5762153046875,10.41948215625,190.1151123046875,10.88176415625C190.9399493046875,10.05649775625,192.1961523046875,9.84239415625,193.2477823046875,10.34783915625L202.3276123046875,14.713740156250001C203.2838123046875,15.17017015625,203.8933123046875,16.13482015625,203.8948123046875,17.19436015625L203.8948123046875,46.80436015625C203.8950123046875,47.86306015625,203.2882123046875,48.82806015625,202.3339123046875,49.28656015625L193.2540823046875,53.65086015625Z" fill="#45B4FF" fill-opacity="1"/></g></g></g><g><path d="M217.92429931640626,26.576L222.02029931640624,38L224.13229931640626,38L228.22829931640626,26.576L226.34029931640626,26.576L223.10829931640626,36.048L223.06029931640626,36.048L219.81229931640624,26.576L217.92429931640626,26.576ZM230.46829931640625,26.416C230.13229931640626,26.416,229.86029931640624,26.512,229.63629931640625,26.736C229.41229931640626,26.944,229.30029931640624,27.216,229.30029931640624,27.552C229.30029931640624,27.872,229.41229931640626,28.16,229.63629931640625,28.384C229.86029931640624,28.592,230.13229931640626,28.704,230.46829931640625,28.704C230.78829931640624,28.704,231.07629931640625,28.592,231.30029931640624,28.384C231.52429931640626,28.16,231.65229931640624,27.887999999999998,231.65229931640624,27.552C231.65229931640624,27.216,231.54029931640625,26.944,231.31629931640626,26.736C231.09229931640624,26.512,230.80429931640626,26.416,230.46829931640625,26.416ZM229.62029931640626,29.728L229.62029931640626,38L231.31629931640626,38L231.31629931640626,29.728L229.62029931640626,29.728ZM236.69229931640626,29.503999999999998C235.70029931640624,29.503999999999998,234.88429931640624,29.712,234.26029931640625,30.144C233.63629931640625,30.560000000000002,233.33229931640625,31.152,233.33229931640625,31.904C233.33229931640625,32.608000000000004,233.65229931640624,33.168,234.29229931640626,33.568C234.67629931640624,33.824,235.36429931640626,34.064,236.34029931640626,34.288C237.18829931640624,34.480000000000004,237.74829931640625,34.64,238.00429931640625,34.768C238.48429931640624,34.992000000000004,238.74029931640627,35.312,238.74029931640627,35.712C238.74029931640627,36.448,238.06829931640624,36.832,236.75629931640626,36.832C236.11629931640624,36.832,235.66829931640626,36.72,235.38029931640625,36.512C235.09229931640624,36.288,234.88429931640624,35.888,234.78829931640624,35.328L233.12429931640625,35.328C233.31629931640626,37.248000000000005,234.53229931640624,38.224000000000004,236.80429931640626,38.224000000000004C239.25229931640627,38.224000000000004,240.48429931640624,37.344,240.48429931640624,35.6C240.48429931640624,34.864000000000004,240.14829931640625,34.288,239.49229931640625,33.872C239.04429931640624,33.584,238.34029931640626,33.312,237.39629931640624,33.088C236.56429931640625,32.88,236.02029931640624,32.72,235.73229931640626,32.592C235.28429931640625,32.384,235.06029931640626,32.144,235.06029931640626,31.856C235.06029931640626,31.536,235.20429931640626,31.28,235.50829931640624,31.119999999999997C235.76429931640627,30.96,236.14829931640625,30.896,236.66029931640625,30.896C237.23629931640625,30.896,237.68429931640625,30.992,237.97229931640624,31.183999999999997C238.24429931640626,31.36,238.43629931640623,31.664,238.56429931640625,32.112L240.21229931640624,32.112C240.02029931640624,30.368000000000002,238.83629931640624,29.503999999999998,236.69229931640626,29.503999999999998ZM241.92429931640623,29.728L241.92429931640623,34.88C241.92429931640623,37.104,242.91629931640625,38.224000000000004,244.91629931640625,38.224000000000004C245.95629931640624,38.224000000000004,246.82029931640625,37.775999999999996,247.52429931640626,36.879999999999995L247.52429931640626,38L249.22029931640625,38L249.22029931640625,29.728L247.52429931640626,29.728L247.52429931640626,34.784C247.38029931640625,35.391999999999996,247.10829931640626,35.888,246.72429931640625,36.256C246.34029931640626,36.608000000000004,245.94029931640625,36.8,245.49229931640625,36.8C244.83629931640624,36.8,244.35629931640625,36.623999999999995,244.06829931640624,36.304C243.76429931640627,35.984,243.62029931640626,35.472,243.62029931640626,34.768L243.62029931640626,29.728L241.92429931640623,29.728ZM254.88429931640624,29.503999999999998C253.86029931640624,29.503999999999998,253.02829931640625,29.68,252.42029931640624,30.064C251.71629931640626,30.48,251.26829931640626,31.152,251.09229931640624,32.048L252.77229931640625,32.192C252.86829931640625,31.728,253.10829931640626,31.392,253.49229931640625,31.168C253.81229931640627,30.976,254.24429931640626,30.880000000000003,254.77229931640625,30.880000000000003C256.02029931640624,30.880000000000003,256.64429931640626,31.456,256.64429931640626,32.608000000000004L256.64429931640626,32.944L254.78829931640627,32.992000000000004C253.57229931640626,33.024,252.61229931640625,33.263999999999996,251.94029931640625,33.744C251.20429931640626,34.24,250.83629931640624,34.96,250.83629931640624,35.888C250.83629931640624,36.576,251.09229931640624,37.135999999999996,251.62029931640626,37.568C252.10029931640625,38,252.77229931640625,38.224000000000004,253.63629931640625,38.224000000000004C254.37229931640624,38.224000000000004,255.01229931640626,38.08,255.55629931640624,37.824C256.03629931640626,37.584,256.43629931640623,37.248000000000005,256.7562993164062,36.832L256.7562993164062,38L258.32429931640627,38L258.32429931640627,32.72C258.32429931640627,31.712,258.06829931640624,30.944000000000003,257.57229931640626,30.416C256.99629931640624,29.808,256.1002993164062,29.503999999999998,254.88429931640624,29.503999999999998ZM256.64429931640626,34.176L256.64429931640626,34.656C256.64429931640626,35.296,256.37229931640627,35.84,255.86029931640624,36.272C255.34829931640624,36.704,254.74029931640627,36.928,254.02029931640624,36.928C253.58829931640625,36.928,253.23629931640625,36.816,252.98029931640625,36.608000000000004C252.70829931640625,36.4,252.58029931640624,36.144,252.58029931640624,35.824C252.58029931640624,34.8,253.34829931640624,34.256,254.90029931640623,34.224000000000004L256.64429931640626,34.176ZM260.45229931640625,26.352L260.45229931640625,38L262.1482993164062,38L262.1482993164062,26.352L260.45229931640625,26.352ZM273.74829931640625,26.352C272.53229931640624,26.352,271.52429931640626,26.624,270.72429931640625,27.168C269.87629931640623,27.744,269.46029931640624,28.528,269.46029931640624,29.536C269.46029931640624,30.528,269.89229931640625,31.296,270.77229931640625,31.823999999999998C271.1242993164062,32.016,271.98829931640626,32.32,273.39629931640627,32.768C274.6602993164063,33.152,275.41229931640623,33.408,275.66829931640626,33.536C276.38829931640623,33.903999999999996,276.7562993164062,34.4,276.7562993164062,35.04C276.7562993164062,35.552,276.50029931640626,35.952,275.98829931640626,36.239999999999995C275.47629931640626,36.528,274.78829931640627,36.688,273.92429931640623,36.688C272.96429931640625,36.688,272.26029931640625,36.512,271.79629931640625,36.16C271.28429931640625,35.775999999999996,270.96429931640625,35.12,270.83629931640627,34.224000000000004L269.10829931640626,34.224000000000004C269.20429931640626,35.664,269.71629931640626,36.72,270.6602993164063,37.391999999999996C271.4442993164063,37.936,272.53229931640624,38.224000000000004,273.92429931640623,38.224000000000004C275.36429931640623,38.224000000000004,276.48429931640624,37.936,277.28429931640625,37.36C278.08429931640626,36.768,278.48429931640624,35.968,278.48429931640624,34.944C278.48429931640624,33.888,277.98829931640626,33.072,277.01229931640626,32.480000000000004C276.5642993164063,32.208,275.55629931640624,31.84,274.02029931640624,31.36C272.94829931640623,31.04,272.29229931640623,30.8,272.03629931640626,30.656C271.46029931640624,30.352,271.18829931640624,29.951999999999998,271.18829931640624,29.439999999999998C271.18829931640624,28.864,271.42829931640625,28.448,271.92429931640623,28.192C272.32429931640627,27.968,272.90029931640623,27.856,273.65229931640624,27.856C274.5162993164063,27.856,275.15629931640626,28.016,275.60429931640624,28.352C276.0522993164062,28.672,276.34029931640623,29.216,276.50029931640626,29.951999999999998L278.22829931640626,29.951999999999998C278.11629931640624,28.704,277.66829931640626,27.792,276.86829931640625,27.2C276.11629931640624,26.624,275.0762993164062,26.352,273.74829931640625,26.352ZM282.45229931640625,27.056L280.7562993164062,27.759999999999998L280.7562993164062,29.728L279.2202993164062,29.728L279.2202993164062,31.136L280.7562993164062,31.136L280.7562993164062,35.936C280.7562993164062,36.592,280.90029931640623,37.088,281.2202993164062,37.44C281.5402993164063,37.808,282.06829931640624,38,282.77229931640625,38L284.13229931640626,38L284.13229931640626,36.592L283.04429931640624,36.592C282.83629931640627,36.592,282.69229931640626,36.528,282.59629931640626,36.432C282.50029931640626,36.32,282.45229931640625,36.16,282.45229931640625,35.936L282.45229931640625,31.136L284.34029931640623,31.136L284.34029931640623,29.728L282.45229931640625,29.728L282.45229931640625,27.056ZM285.70029931640624,29.728L285.70029931640624,34.88C285.70029931640624,37.104,286.69229931640626,38.224000000000004,288.69229931640626,38.224000000000004C289.7322993164063,38.224000000000004,290.59629931640626,37.775999999999996,291.30029931640627,36.879999999999995L291.30029931640627,38L292.99629931640624,38L292.99629931640624,29.728L291.30029931640627,29.728L291.30029931640627,34.784C291.15629931640626,35.391999999999996,290.88429931640627,35.888,290.50029931640626,36.256C290.11629931640624,36.608000000000004,289.71629931640626,36.8,289.2682993164062,36.8C288.6122993164063,36.8,288.13229931640626,36.623999999999995,287.84429931640625,36.304C287.5402993164063,35.984,287.39629931640627,35.472,287.39629931640627,34.768L287.39629931640627,29.728L285.70029931640624,29.728ZM300.88429931640627,26.352L300.88429931640627,30.96C300.21229931640624,29.984,299.36429931640623,29.503999999999998,298.35629931640625,29.503999999999998C297.1722993164062,29.503999999999998,296.22829931640626,29.936,295.55629931640624,30.8C294.91629931640625,31.6,294.6122993164063,32.608000000000004,294.6122993164063,33.824C294.6122993164063,35.088,294.9322993164062,36.128,295.57229931640626,36.928C296.26029931640625,37.792,297.2202993164062,38.224000000000004,298.43629931640623,38.224000000000004C299.55629931640624,38.224000000000004,300.4202993164063,37.808,300.99629931640624,37.007999999999996L300.99629931640624,38L302.58029931640624,38L302.58029931640624,26.352L300.88429931640627,26.352ZM298.74029931640627,30.880000000000003C299.36429931640623,30.880000000000003,299.87629931640623,31.119999999999997,300.29229931640623,31.631999999999998C300.7082993164063,32.176,300.9322993164062,32.896,300.9322993164062,33.792L300.9322993164062,33.936C300.9322993164062,34.768,300.7562993164063,35.44,300.40429931640625,35.968C299.98829931640626,36.544,299.42829931640625,36.848,298.69229931640626,36.848C297.86029931640627,36.848,297.23629931640625,36.544,296.85229931640623,35.952C296.5162993164063,35.44,296.35629931640625,34.736000000000004,296.35629931640625,33.824C296.35629931640625,32.912,296.53229931640624,32.208,296.88429931640627,31.728C297.28429931640625,31.152,297.9082993164062,30.880000000000003,298.74029931640627,30.880000000000003ZM305.70029931640624,26.416C305.36429931640623,26.416,305.09229931640624,26.512,304.86829931640625,26.736C304.64429931640626,26.944,304.53229931640624,27.216,304.53229931640624,27.552C304.53229931640624,27.872,304.64429931640626,28.16,304.86829931640625,28.384C305.09229931640624,28.592,305.36429931640623,28.704,305.70029931640624,28.704C306.02029931640624,28.704,306.30829931640625,28.592,306.53229931640624,28.384C306.7562993164063,28.16,306.88429931640627,27.887999999999998,306.88429931640627,27.552C306.88429931640627,27.216,306.77229931640625,26.944,306.54829931640626,26.736C306.32429931640627,26.512,306.03629931640626,26.416,305.70029931640624,26.416ZM304.85229931640623,29.728L304.85229931640623,38L306.54829931640626,38L306.54829931640626,29.728L304.85229931640623,29.728ZM312.64429931640626,29.503999999999998C311.39629931640627,29.503999999999998,310.38829931640623,29.92,309.6362993164063,30.752000000000002C308.88429931640627,31.567999999999998,308.5162993164063,32.608000000000004,308.5162993164063,33.872C308.5162993164063,35.12,308.88429931640627,36.16,309.62029931640626,36.96C310.38829931640623,37.792,311.39629931640627,38.224000000000004,312.64429931640626,38.224000000000004C313.89229931640625,38.224000000000004,314.90029931640623,37.792,315.66829931640626,36.96C316.40429931640625,36.16,316.77229931640625,35.12,316.77229931640625,33.872C316.77229931640625,32.608000000000004,316.38829931640623,31.567999999999998,315.65229931640624,30.752000000000002C314.90029931640623,29.92,313.89229931640625,29.503999999999998,312.64429931640626,29.503999999999998ZM312.64429931640626,30.896C313.42829931640625,30.896,314.03629931640626,31.2,314.48429931640624,31.823999999999998C314.86829931640625,32.352000000000004,315.06029931640626,33.04,315.06029931640626,33.872C315.06029931640626,34.688,314.86829931640625,35.36,314.48429931640624,35.903999999999996C314.03629931640626,36.512,313.42829931640625,36.832,312.64429931640626,36.832C311.86029931640627,36.832,311.25229931640627,36.512,310.82029931640625,35.903999999999996C310.43629931640623,35.376,310.26029931640625,34.704,310.26029931640625,33.872C310.26029931640625,33.04,310.43629931640623,32.352000000000004,310.82029931640625,31.823999999999998C311.25229931640627,31.2,311.86029931640627,30.896,312.64429931640626,30.896ZM328.83629931640627,26.352C327.01229931640626,26.352,325.6362993164063,26.944,324.67629931640624,28.16C323.81229931640627,29.232,323.39629931640627,30.608,323.39629931640627,32.304C323.39629931640627,34.032,323.79629931640625,35.408,324.62829931640624,36.432C325.57229931640626,37.616,326.9802993164062,38.224000000000004,328.85229931640623,38.224000000000004C330.08429931640626,38.224000000000004,331.14029931640624,37.872,332.02029931640624,37.168C332.96429931640625,36.416,333.55629931640624,35.376,333.81229931640627,34.048L332.11629931640624,34.048C331.89229931640625,34.944,331.4922993164063,35.616,330.91629931640625,36.064C330.37229931640627,36.480000000000004,329.66829931640626,36.688,328.83629931640627,36.688C327.55629931640624,36.688,326.6122993164063,36.288,326.0042993164062,35.488C325.42829931640625,34.736000000000004,325.14029931640624,33.68,325.14029931640624,32.304C325.14029931640624,30.976,325.42829931640625,29.92,326.02029931640624,29.152C326.64429931640626,28.304000000000002,327.57229931640626,27.887999999999998,328.80429931640623,27.887999999999998C329.6362993164063,27.887999999999998,330.30829931640625,28.064,330.85229931640623,28.432000000000002C331.39629931640627,28.8,331.76429931640627,29.375999999999998,331.9562993164062,30.144L333.65229931640624,30.144C333.47629931640626,28.992,332.96429931640625,28.064,332.13229931640626,27.392C331.2682993164062,26.688,330.16429931640624,26.352,328.83629931640627,26.352ZM339.2202993164062,29.503999999999998C337.97229931640624,29.503999999999998,336.96429931640625,29.92,336.21229931640624,30.752000000000002C335.46029931640624,31.567999999999998,335.09229931640624,32.608000000000004,335.09229931640624,33.872C335.09229931640624,35.12,335.46029931640624,36.16,336.1962993164062,36.96C336.96429931640625,37.792,337.97229931640624,38.224000000000004,339.2202993164062,38.224000000000004C340.4682993164063,38.224000000000004,341.47629931640626,37.792,342.2442993164062,36.96C342.9802993164062,36.16,343.34829931640627,35.12,343.34829931640627,33.872C343.34829931640627,32.608000000000004,342.96429931640625,31.567999999999998,342.22829931640626,30.752000000000002C341.47629931640626,29.92,340.4682993164063,29.503999999999998,339.2202993164062,29.503999999999998ZM339.2202993164062,30.896C340.0042993164062,30.896,340.6122993164063,31.2,341.06029931640626,31.823999999999998C341.4442993164063,32.352000000000004,341.6362993164063,33.04,341.6362993164063,33.872C341.6362993164063,34.688,341.4442993164063,35.36,341.06029931640626,35.903999999999996C340.6122993164063,36.512,340.0042993164062,36.832,339.2202993164062,36.832C338.43629931640623,36.832,337.82829931640623,36.512,337.39629931640627,35.903999999999996C337.01229931640626,35.376,336.83629931640627,34.704,336.83629931640627,33.872C336.83629931640627,33.04,337.01229931640626,32.352000000000004,337.39629931640627,31.823999999999998C337.82829931640623,31.2,338.43629931640623,30.896,339.2202993164062,30.896ZM350.91629931640625,26.352L350.91629931640625,30.96C350.2442993164062,29.984,349.39629931640627,29.503999999999998,348.38829931640623,29.503999999999998C347.20429931640626,29.503999999999998,346.26029931640625,29.936,345.5882993164063,30.8C344.94829931640623,31.6,344.64429931640626,32.608000000000004,344.64429931640626,33.824C344.64429931640626,35.088,344.96429931640625,36.128,345.60429931640624,36.928C346.29229931640623,37.792,347.25229931640627,38.224000000000004,348.4682993164063,38.224000000000004C349.5882993164063,38.224000000000004,350.45229931640625,37.808,351.0282993164062,37.007999999999996L351.0282993164062,38L352.6122993164063,38L352.6122993164063,26.352L350.91629931640625,26.352ZM348.77229931640625,30.880000000000003C349.39629931640627,30.880000000000003,349.9082993164062,31.119999999999997,350.32429931640627,31.631999999999998C350.7402993164062,32.176,350.96429931640625,32.896,350.96429931640625,33.792L350.96429931640625,33.936C350.96429931640625,34.768,350.7882993164062,35.44,350.43629931640623,35.968C350.02029931640624,36.544,349.46029931640624,36.848,348.72429931640625,36.848C347.89229931640625,36.848,347.2682993164062,36.544,346.8842993164062,35.952C346.54829931640626,35.44,346.38829931640623,34.736000000000004,346.38829931640623,33.824C346.38829931640623,32.912,346.5642993164063,32.208,346.91629931640625,31.728C347.31629931640623,31.152,347.94029931640625,30.880000000000003,348.77229931640625,30.880000000000003ZM358.03629931640626,29.503999999999998C356.82029931640625,29.503999999999998,355.84429931640625,29.92,355.14029931640624,30.768C354.40429931640625,31.6,354.0522993164062,32.624,354.0522993164062,33.856C354.0522993164062,35.216,354.43629931640623,36.288,355.20429931640626,37.088C355.9082993164062,37.84,356.8842993164062,38.224000000000004,358.1002993164062,38.224000000000004C359.20429931640626,38.224000000000004,360.11629931640624,37.903999999999996,360.8362993164062,37.28C361.41229931640623,36.768,361.7802993164063,36.111999999999995,361.97229931640624,35.344L360.27629931640627,35.344C360.0522993164062,35.824,359.8122993164062,36.192,359.52429931640626,36.416C359.15629931640626,36.688,358.67629931640624,36.832,358.08429931640626,36.832C357.41229931640623,36.832,356.8842993164062,36.608000000000004,356.50029931640626,36.192C356.11629931640624,35.76,355.9082993164062,35.135999999999996,355.84429931640625,34.336L362.11629931640624,34.336C362.1002993164062,32.864000000000004,361.7642993164062,31.712,361.1242993164062,30.880000000000003C360.4202993164063,29.951999999999998,359.38029931640625,29.503999999999998,358.03629931640626,29.503999999999998ZM358.08429931640626,30.896C359.42829931640625,30.896,360.18029931640626,31.616,360.34029931640623,33.056L355.8762993164063,33.056C355.97229931640624,32.352000000000004,356.21229931640624,31.823999999999998,356.5642993164063,31.456C356.9482993164063,31.072,357.4442993164063,30.896,358.08429931640626,30.896Z" fill="#FFFFFF" fill-opacity="1"/></g></g></g></svg>