<svg xmlns="http://www.w3.org/2000/svg" xmlns:xlink="http://www.w3.org/1999/xlink" fill="none" version="1.1" width="1204" height="1172" viewBox="0 0 1204 1172"><defs><linearGradient x1="0" y1="0" x2="1" y2="1" id="master_svg0_2_29400"><stop offset="0%" stop-color="#20CC94" stop-opacity="0.23999999463558197"/><stop offset="20.000000298023224%" stop-color="#20CC94" stop-opacity="1"/><stop offset="36.41940951347351%" stop-color="#A8A8A8" stop-opacity="1"/><stop offset="50.91226100921631%" stop-color="#D4D4D4" stop-opacity="1"/><stop offset="67.61897802352905%" stop-color="#1C6EFF" stop-opacity="1"/><stop offset="99.99996423721313%" stop-color="#959595" stop-opacity="0.550000011920929"/></linearGradient></defs><g><path d="M0,7L0,1165C0,1168.87,3.13401,1172,7,1172L1197,1172C1200.87,1172,1204,1168.87,1204,1165L1204,7C1204,3.13401,1200.87,0,1197,0L7,0C3.13401,0,0,3.13401,0,7ZM2,8L2,1164C2,1167.31,4.68629,1170,8,1170L1196,1170C1199.31,1170,1202,1167.31,1202,1164L1202,8C1202,4.68629,1199.31,2,1196,2L8,2C4.68629,2,2,4.68629,2,8Z" fill-rule="evenodd" fill="url(#master_svg0_2_29400)" fill-opacity="1"/></g></svg>