<svg xmlns="http://www.w3.org/2000/svg" xmlns:xlink="http://www.w3.org/1999/xlink" fill="none" version="1.1" width="16" height="16" viewBox="0 0 16 16"><g><g><path d="M2.994967462600708,2.287891715335083L13.712103462600709,13.005095015335083C13.790203462600708,13.083195015335082,13.790203462600708,13.209795015335082,13.712103462600709,13.287895015335083L13.287903462600708,13.712195015335084C13.209803462600709,13.790295015335083,13.083103462600707,13.790295015335083,13.005003462600708,13.712195015335084L2.287861062600708,2.9949980153350833C2.209756262600708,2.916894015335083,2.209756262600708,2.790261015335083,2.287861162600708,2.7121560153350828L2.712125462600708,2.287891715335083C2.790230462600708,2.209786815335083,2.916863462600708,2.209786815335083,2.994967462600708,2.287891715335083" fill="#5E6573" fill-opacity="1"/></g><g><path d="M13.287903462600708,2.287891715335083L13.712103462600709,2.7121560153350828C13.790203462600708,2.790261015335083,13.790203462600708,2.916894015335083,13.712103462600709,2.9949980153350833L2.994967462600708,13.712195015335084C2.916863462600708,13.790295015335083,2.790230462600708,13.790295015335083,2.712125462600708,13.712195015335084L2.287861162600708,13.287895015335083C2.209756262600708,13.209795015335082,2.209756262600708,13.083195015335082,2.287861162600708,13.005095015335083L13.005003462600708,2.287891615335083C13.083103462600707,2.209786815335083,13.209803462600709,2.209786815335083,13.287903462600708,2.287891715335083" fill="#5E6573" fill-opacity="1"/></g></g></svg>