<svg xmlns="http://www.w3.org/2000/svg" xmlns:xlink="http://www.w3.org/1999/xlink" fill="none" version="1.1" width="193.566162109375" height="48.1292724609375" viewBox="0 0 193.566162109375 48.1292724609375"><defs><linearGradient x1="0.5890387296676636" y1="0.06297919154167175" x2="0.021225182161078663" y2="0.96098819645706" id="master_svg0_667_53777"><stop offset="0%" stop-color="#0066FF" stop-opacity="1"/><stop offset="100%" stop-color="#00FFB7" stop-opacity="1"/></linearGradient><clipPath id="master_svg1_667_54712"><rect x="10.5986328125" y="5.3770751953125" width="39.153564453125" height="39.153564453125" rx="0"/></clipPath></defs><g><g><path d="M45.083251953125,13.7197L80.334951953125,13.7197L67.786851953125,1.17157C67.036651953125,0.421427,66.019251953125,0,64.958351953125,0L45.083251953125,0L45.083251953125,13.7197Z" fill="#0032A5" fill-opacity="1"/></g><g><path d="M25.288330078125,8.7313232421875L25.288330078125,48.1292232421875L193.566330078125,48.1292232421875L193.566330078125,8.7313232421875L25.288330078125,8.7313232421875Z" fill="#34F4C7" fill-opacity="1"/></g><g><path d="M36.187744140625,6.2230224609375L36.187744140625,46.2230224609375L193.417744140625,46.2230224609375L193.417744140625,6.2230224609375L36.187744140625,6.2230224609375Z" fill="#FFFFFF" fill-opacity="1"/></g><g><path d="M79.40311523437501,25.983022460937498L78.187115234375,23.2950224609375L79.659115234375,23.2950224609375L81.515115234375,27.2310224609375L79.963115234375,27.2310224609375L79.627115234375,26.4790224609375Q78.971115234375,28.0950224609375,77.787115234375,29.6150224609375Q79.115115234375,31.3590224609375,81.099115234375,32.703022460937504L79.659115234375,33.471022460937505Q78.075115234375,32.319022460937504,76.843115234375,30.719022460937502Q75.211115234375,32.447022460937504,73.179115234375,33.471022460937505L71.835115234375,32.6230224609375Q74.379115234375,31.2790224609375,76.011115234375,29.5190224609375Q75.211115234375,28.1910224609375,74.63511523437501,26.847022460937502L74.427115234375,27.2310224609375L73.211115234375,27.2310224609375L73.307115234375,27.471022460937498L72.107115234375,28.1910224609375Q71.803115234375,27.2950224609375,71.419115234375,26.3670224609375L70.539115234375,33.5030224609375L69.067115234375,33.5030224609375L69.915115234375,26.6390224609375Q69.019115234375,28.527022460937502,68.171115234375,29.6790224609375L66.971115234375,28.975022460937502Q68.619115234375,26.911022460937502,70.075115234375,23.5510224609375L68.251115234375,23.5510224609375L68.443115234375,22.1430224609375L70.475115234375,22.1430224609375L70.779115234375,19.6310224609375L72.25111523437499,19.6310224609375L71.947115234375,22.1430224609375L73.371115234375,22.1430224609375L73.195115234375,23.5510224609375L71.771115234375,23.5510224609375L71.707115234375,24.0630224609375Q72.267115234375,25.167022460937503,73.003115234375,26.7990224609375L75.099115234375,23.2950224609375L76.683115234375,23.2950224609375L75.131115234375,25.983022460937498L75.819115234375,25.983022460937498Q76.331115234375,27.279022460937497,76.971115234375,28.3830224609375Q77.787115234375,27.279022460937497,78.283115234375,25.983022460937498L79.40311523437501,25.983022460937498ZM81.48311523437499,21.2790224609375L81.307115234375,22.655022460937502L73.707115234375,22.655022460937502L73.867115234375,21.2790224609375L76.923115234375,21.2790224609375L76.363115234375,19.6470224609375L77.947115234375,19.6470224609375L78.507115234375,21.2790224609375L81.48311523437499,21.2790224609375ZM95.99511523437499,33.215022460937504L83.515115234375,33.215022460937504L84.955115234375,21.2630224609375Q85.051115234375,20.7030224609375,85.419115234375,20.3190224609375Q85.787115234375,19.9350224609375,86.347115234375,19.9350224609375L96.107115234375,19.9350224609375Q96.731115234375,19.9350224609375,97.123115234375,20.3830224609375Q97.515115234375,20.8310224609375,97.435115234375,21.5190224609375L95.99511523437499,33.215022460937504ZM85.243115234375,31.7750224609375L94.587115234375,31.7750224609375L95.835115234375,21.3750224609375L86.539115234375,21.3750224609375L85.243115234375,31.7750224609375ZM87.611115234375,22.6230224609375L94.331115234375,22.6230224609375L94.187115234375,23.983022460937498L87.467115234375,23.983022460937498L87.611115234375,22.6230224609375ZM94.667115234375,25.2310224609375L94.523115234375,26.6070224609375L92.603115234375,26.6070224609375L92.299115234375,29.1350224609375Q92.283115234375,29.1830224609375,92.283115234375,29.2630224609375Q92.283115234375,29.3750224609375,92.355115234375,29.4230224609375Q92.42711523437501,29.471022460937498,92.603115234375,29.471022460937498L93.003115234375,29.471022460937498Q93.91511523437501,29.3750224609375,94.395115234375,29.1510224609375L94.219115234375,30.6390224609375Q93.627115234375,30.847022460937502,92.827115234375,30.847022460937502L92.075115234375,30.847022460937502Q91.387115234375,30.847022460937502,91.059115234375,30.4870224609375Q90.731115234375,30.1270224609375,90.795115234375,29.4230224609375L91.14711523437501,26.6070224609375L89.851115234375,26.6070224609375Q89.259115234375,29.5030224609375,87.131115234375,31.167022460937503L85.899115234375,30.4470224609375Q86.907115234375,29.6310224609375,87.523115234375,28.6950224609375Q88.139115234375,27.7590224609375,88.411115234375,26.6070224609375L86.587115234375,26.6070224609375L86.747115234375,25.2310224609375L94.667115234375,25.2310224609375ZM100.71511523437499,33.1510224609375Q99.851115234375,32.959022460937504,99.307115234375,32.7350224609375L99.499115234375,31.3430224609375Q99.579115234375,31.3590224609375,99.803115234375,31.4550224609375Q100.155115234375,31.5670224609375,100.475115234375,31.6470224609375Q100.523115234375,31.6630224609375,100.603115234375,31.6630224609375Q100.66711523437499,31.6630224609375,100.69111523437499,31.6150224609375Q100.71511523437499,31.5670224609375,100.731115234375,31.4550224609375L101.163115234375,27.855022460937498L99.547115234375,28.335022460937502L99.755115234375,26.7350224609375Q100.027115234375,26.655022460937502,100.571115234375,26.527022460937502Q101.051115234375,26.4150224609375,101.355115234375,26.3190224609375L101.70711523437501,23.5190224609375L100.091115234375,23.5190224609375L100.25111523437499,22.0950224609375L101.883115234375,22.0950224609375L102.187115234375,19.6470224609375L103.643115234375,19.6470224609375L103.339115234375,22.0950224609375L104.619115234375,22.0950224609375L104.443115234375,23.5190224609375L103.17911523437499,23.5190224609375L102.907115234375,25.8230224609375L103.579115234375,25.5830224609375Q104.17111523437501,25.3750224609375,104.283115234375,25.3270224609375L104.107115234375,26.8630224609375L103.40311523437501,27.103022460937503L102.71511523437499,27.343022460937497L102.155115234375,32.0630224609375Q102.011115234375,33.1830224609375,101.067115234375,33.1830224609375Q100.97111523437499,33.1830224609375,100.71511523437499,33.1510224609375ZM107.43511523437499,19.7110224609375L108.89111523437501,19.7110224609375L108.075115234375,26.2070224609375Q107.70711523437501,28.9910224609375,107.035115234375,30.5750224609375Q106.699115234375,31.3590224609375,106.21911523437501,32.0390224609375Q105.73911523437499,32.719022460937495,105.067115234375,33.4230224609375L103.643115234375,32.7990224609375Q104.763115234375,31.6310224609375,105.339115234375,30.6230224609375Q105.96311523437501,29.5190224609375,106.315115234375,27.983022460937498Q105.819115234375,28.335022460937502,105.17911523437499,28.663022460937498Q104.539115234375,28.9910224609375,103.979115234375,29.2150224609375L104.155115234375,27.6150224609375Q104.63511523437501,27.4230224609375,105.323115234375,27.0310224609375Q106.011115234375,26.6390224609375,106.63511523437501,26.1910224609375L106.63511523437501,26.1590224609375L107.43511523437499,19.7110224609375ZM112.63511523437501,29.4390224609375Q111.627115234375,28.3030224609375,110.539115234375,27.3270224609375L110.011115234375,31.5190224609375L110.011115234375,31.5990224609375Q110.011115234375,31.8390224609375,110.267115234375,31.8390224609375L110.955115234375,31.8390224609375Q112.059115234375,31.8390224609375,113.131115234375,31.3270224609375L112.97111523437499,32.8790224609375Q112.555115234375,33.0710224609375,112.059115234375,33.1670224609375Q111.563115234375,33.2630224609375,110.827115234375,33.2630224609375L109.755115234375,33.2630224609375Q109.14711523437501,33.2630224609375,108.843115234375,32.9270224609375Q108.539115234375,32.591022460937495,108.539115234375,31.9510224609375Q108.539115234375,31.7430224609375,108.555115234375,31.6310224609375L109.99511523437499,19.727022460937498L111.48311523437499,19.727022460937498L110.747115234375,25.6310224609375L111.275115234375,26.111022460937498L112.395115234375,27.167022460937503L112.89111523437501,27.663022460937498L112.63511523437501,29.4390224609375ZM105.339115234375,25.1350224609375L104.875115234375,21.6310224609375L106.139115234375,21.6310224609375L106.619115234375,25.1350224609375L105.339115234375,25.1350224609375ZM111.051115234375,25.1350224609375L112.107115234375,21.6310224609375L113.419115234375,21.6310224609375L112.379115234375,25.1350224609375L111.051115234375,25.1350224609375ZM125.467115234375,19.6150224609375Q125.43511523437499,20.7030224609375,125.43511523437499,21.3270224609375Q125.43511523437499,22.5750224609375,125.45111523437501,23.2470224609375L129.291115234375,22.719022460937502L129.115115234375,24.1910224609375L125.48311523437499,24.6710224609375Q125.531115234375,25.9670224609375,125.627115234375,27.3110224609375L125.723115234375,28.2870224609375Q126.747115234375,26.9910224609375,127.547115234375,25.3270224609375L129.131115234375,25.3270224609375Q127.883115234375,28.0950224609375,125.979115234375,30.111022460937498Q126.187115234375,31.167022460937503,126.603115234375,31.7270224609375Q126.763115234375,31.8550224609375,126.89111523437501,31.8550224609375Q126.93911523437501,31.8550224609375,127.067115234375,31.8230224609375Q127.73911523437499,31.6150224609375,128.923115234375,30.8950224609375L128.87511523437502,32.5590224609375Q128.027115234375,32.9910224609375,127.17911523437499,33.2630224609375Q126.987115234375,33.3270224609375,126.731115234375,33.3270224609375Q126.363115234375,33.3270224609375,126.043115234375,33.1670224609375Q125.611115234375,32.8790224609375,125.315115234375,32.4230224609375Q125.019115234375,31.9670224609375,124.795115234375,31.2470224609375Q123.675115234375,32.2070224609375,122.347115234375,32.959022460937504L121.035115234375,32.1750224609375L120.987115234375,32.5270224609375L115.307115234375,32.5270224609375L115.979115234375,27.2630224609375Q116.075115234375,26.527022460937502,116.45911523437499,26.1590224609375Q116.843115234375,25.791022460937498,117.563115234375,25.791022460937498L118.17111523437501,25.791022460937498L118.92311523437499,19.6310224609375L120.475115234375,19.6310224609375L120.187115234375,21.983022460937498L122.45911523437499,21.983022460937498L122.299115234375,23.3110224609375L120.027115234375,23.3110224609375L119.723115234375,25.791022460937498L120.411115234375,25.791022460937498Q121.819115234375,25.791022460937498,121.675115234375,27.2470224609375L121.035115234375,32.0950224609375Q122.92311523437499,31.0870224609375,124.45911523437499,29.663022460937498Q124.363115234375,29.103022460937503,124.20311523437499,27.4550224609375L124.091115234375,24.8630224609375L122.235115234375,25.103022460937503L122.411115234375,23.6470224609375L124.043115234375,23.4390224609375Q123.99511523437499,22.0950224609375,123.99511523437499,20.9590224609375L124.011115234375,19.6150224609375L125.467115234375,19.6150224609375ZM127.115115234375,22.271022460937502L126.267115234375,20.0150224609375L127.627115234375,20.0150224609375L128.539115234375,22.271022460937502L127.115115234375,22.271022460937502ZM116.987115234375,31.1510224609375L119.65911523437501,31.1510224609375L120.17111523437501,27.167022460937503L117.467115234375,27.167022460937503L116.987115234375,31.1510224609375ZM135.291115234375,31.103022460937503L133.91511523437498,31.103022460937503L134.155115234375,29.1190224609375Q133.227115234375,29.6470224609375,132.443115234375,30.0310224609375L131.355115234375,29.1830224609375Q133.627115234375,28.2550224609375,134.98711523437498,27.1510224609375L132.123115234375,27.1510224609375L132.267115234375,26.1270224609375L135.723115234375,26.1270224609375L135.835115234375,25.3590224609375L133.659115234375,25.3590224609375L133.787115234375,24.3670224609375L135.96311523437498,24.3670224609375L136.05911523437499,23.663022460937498L133.755115234375,23.663022460937498L133.867115234375,22.8310224609375L132.635115234375,22.8310224609375L132.795115234375,21.727022460937498Q132.87511523437502,21.0710224609375,133.187115234375,20.7830224609375Q133.49911523437498,20.4950224609375,134.187115234375,20.4950224609375L138.219115234375,20.4950224609375L137.89911523437502,19.5350224609375L139.579115234375,19.5350224609375L139.931115234375,20.4950224609375L143.675115234375,20.4950224609375Q144.42711523437498,20.4950224609375,144.779115234375,20.7430224609375Q145.131115234375,20.9910224609375,145.131115234375,21.5030224609375Q145.131115234375,21.6630224609375,145.115115234375,21.7590224609375L144.955115234375,22.9110224609375L143.979115234375,22.9110224609375L143.867115234375,23.663022460937498L141.595115234375,23.663022460937498L141.49911523437498,24.3670224609375L143.739115234375,24.3670224609375L143.595115234375,25.3590224609375L141.371115234375,25.3590224609375L141.259115234375,26.1270224609375L144.87511523437502,26.1270224609375L144.747115234375,27.1510224609375L141.883115234375,27.1510224609375Q143.40311523437498,28.3670224609375,145.371115234375,28.9910224609375L144.41111523437502,29.9990224609375Q143.531115234375,29.663022460937498,142.683115234375,29.1350224609375L142.443115234375,31.103022460937503L141.067115234375,31.103022460937503L141.323115234375,28.911022460937502L135.54711523437498,28.911022460937502L135.291115234375,31.103022460937503ZM136.203115234375,22.6710224609375L136.299115234375,21.9350224609375L137.707115234375,21.9350224609375L137.611115234375,22.6710224609375L140.347115234375,22.6710224609375L140.443115234375,21.9350224609375L141.835115234375,21.9350224609375L141.739115234375,22.6710224609375L143.49911523437498,22.6710224609375L143.627115234375,21.6310224609375L134.267115234375,21.6310224609375L134.091115234375,22.6710224609375L136.203115234375,22.6710224609375ZM140.203115234375,23.663022460937498L137.467115234375,23.663022460937498L137.371115234375,24.3670224609375L140.107115234375,24.3670224609375L140.203115234375,23.663022460937498ZM139.979115234375,25.3590224609375L137.243115234375,25.3590224609375L137.131115234375,26.1270224609375L139.867115234375,26.1270224609375L139.979115234375,25.3590224609375ZM140.97111523437502,27.8870224609375Q140.555115234375,27.5190224609375,140.187115234375,27.1510224609375L136.699115234375,27.1510224609375Q136.539115234375,27.3270224609375,135.89911523437502,27.8870224609375L140.97111523437502,27.8870224609375ZM143.195115234375,33.5830224609375Q142.47511523437498,33.215022460937504,140.779115234375,32.4950224609375L139.371115234375,31.9190224609375L138.05911523437499,31.3910224609375Q137.243115234375,32.1430224609375,136.003115234375,32.615022460937496Q134.763115234375,33.087022460937504,133.03511523437498,33.4230224609375L132.171115234375,32.463022460937495Q134.555115234375,31.9830224609375,135.85111523437502,31.3750224609375Q136.667115234375,30.9910224609375,137.163115234375,30.4950224609375Q137.659115234375,29.9990224609375,137.787115234375,29.3270224609375L139.195115234375,29.3270224609375Q139.051115234375,29.983022460937498,138.779115234375,30.463022460937502Q140.01111523437498,30.911022460937502,141.659115234375,31.5510224609375Q143.115115234375,32.111022460937505,144.123115234375,32.575022460937504L143.195115234375,33.5830224609375ZM151.067115234375,29.6310224609375L157.627115234375,27.103022460937503L151.675115234375,24.5750224609375L151.91511523437498,22.6870224609375L160.043115234375,26.1430224609375L159.819115234375,28.047022460937498L150.82711523437501,31.5190224609375L151.067115234375,29.6310224609375ZM162.203115234375,29.6310224609375L168.763115234375,27.103022460937503L162.811115234375,24.5750224609375L163.051115234375,22.6870224609375L171.179115234375,26.1430224609375L170.955115234375,28.047022460937498L161.96311523437498,31.5190224609375L162.203115234375,29.6310224609375Z" fill="#14126C" fill-opacity="1"/></g><g><g><path d="M0,48.129L37.4128,48.129C43.8403,48.129,49.442,43.7525,50.997,37.516L60.3508,0L22.938,0C16.5105,0,10.9088,4.37656,9.35385,10.6131L0,48.129Z" fill="url(#master_svg0_667_53777)" fill-opacity="1"/></g></g><g><g clip-path="url(#master_svg1_667_54712)"><g><path d="M28.176544484375,36.5941676171875L33.887096484375,36.5941676171875C32.878886484375,35.5761676171875,31.140466484375,33.4325176171875,33.849896484375,30.1142496171875C32.912166484375,30.2943556171875,31.919626484375,30.5508126171875,30.905546484375,30.5508126171875C29.807286484375,30.5508126171875,28.752096484375,30.2767376171875,27.743896484375,30.0653076171875C29.255226484375,31.4865776171875,30.930996484375,33.6811376171875,28.176544484375,36.5941676171875Z" fill="#FAD95C" fill-opacity="1" style="mix-blend-mode:passthrough"/></g><g><path d="M31.46157275,30.6742058515625C31.46157275,30.6742058515625,30.17733675,33.5167578515625,31.44786975,36.3318978515625C33.29787875,36.3906278515625,33.86168875,36.4513178515625,33.86168875,36.4513178515625C33.86168875,36.4513178515625,30.68829075,34.4525178515625,33.56607875,30.3061615515625C32.66945875,30.1397588515625,31.46157275,30.6742058515625,31.46157275,30.6742058515625Z" fill="#FC992D" fill-opacity="1" style="mix-blend-mode:passthrough"/></g><g><path d="M40.22218984375,12.7537054296875L21.60657984375,12.7537054296875C20.76281884375,12.7537054296875,20.07958984375,12.0704754296875,20.07958984375,11.2267154296875L20.07958984375,10.9565554296875C20.07958984375,10.1127954296875,20.762819843750002,9.4295654296875,21.60657984375,9.4295654296875L40.22208984375,9.4295654296875C41.06588984375,9.4295654296875,41.74908984375,10.1127954296875,41.74908984375,10.9565554296875L41.74908984375,11.2267154296875C41.74908984375,12.0685154296875,41.06588984375,12.7537054296875,40.22218984375,12.7537054296875Z" fill="#FFAC48" fill-opacity="1" style="mix-blend-mode:passthrough"/></g><g><path d="M38.904594859375,9.7447540046875C38.904594859375,9.7447540046875,39.993060859375,10.2557083046875,39.993060859375,10.9996223046875C39.993060859375,11.7435423046875,39.793380859375,12.1664023046875,38.671630859375,12.2877823046875C39.993060859375,12.2877823046875,41.381060859375,12.5422723046875,41.414340859375,11.0661823046875C41.447620859375,9.5900973046875,39.570204859374996,9.7447540046875,38.904594859375,9.7447540046875Z" fill="#FC992D" fill-opacity="1" style="mix-blend-mode:passthrough"/></g><g><path d="M31.684808125,30.5468912109375L30.566978125,30.5468912109375C25.792198125,30.5468912109375,21.923828125,26.6764912109375,21.923828125,21.9037012109375L21.923828125,13.3173282109375C21.923828125,13.1861642109375,22.029543125,13.0784912109375,22.162665125,13.0784912109375L40.093028125000004,13.0784912109375C40.224228124999996,13.0784912109375,40.331828125,13.1842062109375,40.331828125,13.3173282109375L40.331828125,21.901751210937498C40.327928125,26.6764912109375,36.459628125,30.5468912109375,31.684808125,30.5468912109375Z" fill="#FAD95C" fill-opacity="1" style="mix-blend-mode:passthrough"/></g><g><path d="M38.182261015625,12.7398681640625L38.182261015625,20.351318164062498C38.182261015625,22.0388381640625,37.442261015625,29.2665681640625,29.623291015625,30.3041681640625C33.088381015625004,30.3041681640625,38.626651015625,29.7109681640625,40.316091015625,22.099528164062498C40.464891015625,15.0205581640625,40.181091015625,12.7535710640625,40.181091015625,12.7535710640625L38.182261015625,12.7398681640625Z" fill="#E8A200" fill-opacity="1" style="mix-blend-mode:passthrough"/></g><g><path d="M20.788428671875,24.6523271484375C15.716088671875,24.0551971484375,15.643648671875,21.1989471484375,15.643648671875,20.0693671484375L15.643648671875,17.2150771484375C15.643648671875,17.0369271484375,15.792438671875,16.8940171484375,15.974498671875,16.8940171484375L19.602078671875,16.8940171484375L19.602078671875,14.3353271484375L16.779108671875,14.3353271484375C15.146398671875,14.3353271484375,13.817138671875,15.6273971484375,13.817138671875,17.215067148437498L13.817138671875,20.0713271484375C13.817138671875,24.352727148437502,16.675348671875,26.9330271484375,21.865158671875,27.3402271484375C21.900388671875,27.3421271484375,21.937588671874998,27.3441271484375,21.972828671875,27.3441271484375C22.348698671875,27.3441271484375,22.313458671875,27.0680271484375,22.180338671875,26.7568271484375C21.618488671875,26.0912271484375,21.160388671875,25.447127148437502,20.788428671875,24.6523271484375Z" fill="#FAD95C" fill-opacity="1" style="mix-blend-mode:passthrough"/></g><g><path d="M18.200208984375,14.3980712890625L18.200208984375,16.4634212890625C18.200208984375,16.4634212890625,16.056558984375002,16.2852712890625,15.623908984375,16.2852712890625C15.191260984375,16.2852712890625,14.314221306475,16.2735312890625,14.314221306475,17.3619912890625L14.314221306475,20.2946012890625C14.314221306475,20.6606812890625,14.280940784375,23.759691289062502,17.657938984375,25.214271289062502C18.613278984375,25.592071289062503,19.580378984375,25.7134712890625,19.580378984375,25.7134712890625L20.383018984375,27.1601712890625L21.434298984375,27.011371289062502L20.263608984375,25.041971289062502C20.263608984375,25.041971289062502,15.672848984375,23.9456712890625,15.406608984375,21.1775112890625C15.140360984375,18.4073912890625,15.598458984375,16.9861212890625,15.598458984375,16.9861212890625L19.255398984375,16.9273912890625L19.417888984375,14.4979125890625L18.200208984375,14.3980712890625Z" fill="#FC992D" fill-opacity="1" style="mix-blend-mode:passthrough"/></g><g><path d="M44.809070234375,14.3472900390625L41.780540234375,14.3472900390625L41.780540234375,16.9040200390625L45.613680234374996,16.9040200390625C45.795740234375,16.9040200390625,45.944530234375,17.0488900390625,45.944530234375,17.2250800390625L45.944530234375,20.0813300390625C45.944530234375,21.2128700390625,45.942570234375,24.1513400390625,40.864350234375,24.7464900390625C40.492390234375,25.5392900390625,40.020593234375,26.2753900390625,39.458740234375,26.9390900390625C39.708635234375,27.203390039062498,40.056182234375,27.3534900390625,40.419961234375,27.3540900390625C40.455197234375,27.3540900390625,40.490440234375,27.3540900390625,40.527630234375,27.3501900390625C44.814950234375,26.837290039062502,47.771040234375,24.3627900390625,47.771040234375,20.0813300390625L47.771040234375,17.227030039062498C47.771040234375,15.6393600390625,46.441780234375,14.3472900390625,44.809070234375,14.3472900390625Z" fill="#FAD95C" fill-opacity="1" style="mix-blend-mode:passthrough"/></g><g><path d="M45.480560234375,14.6094736953125C44.513460234375,14.4646051953125,43.935950234375,14.6642886953125,43.935950234375,14.6642886953125C43.935950234375,14.6642886953125,46.424160234375,15.4747676953125,46.424160234375,17.4069926953125L46.424160234375,20.7389626953125C46.424160234375,21.2499226953125,46.101140234375,23.2722026953125,44.824740234375,24.204052695312498C43.638380234375,25.071262695312498,42.326740234375,25.774162695312498,40.083240234375,26.1088626953125C39.889429234375,26.394662695312498,39.683875234375,26.6746626953125,39.458740234375,26.938962695312497C39.574242234375,27.060262695312503,39.713239234375,27.1601626953125,39.867894234375,27.2306626953125L42.369810234375,26.9819626953125C42.514680234375,26.9408626953125,42.659540234375,26.895862695312502,42.800500234375,26.848862695312498C43.708860234375,26.3046626953125,47.673160234375004,23.7420426953125,47.534160234375,20.5157826953125C47.379500234375,16.8745026953125,47.491090234375,14.9970926953125,45.480560234375,14.6094736953125Z" fill="#FC992D" fill-opacity="1" style="mix-blend-mode:passthrough"/></g><g><path d="M38.356564453125,40.6172472265625L23.278564453125,40.6172472265625L23.278564453125,38.1916872265625C23.278565946715,37.3429472265625,23.966603453125,36.6549072265625,24.815344453125,36.6549072265625L36.819864453125,36.6549072265625C37.668564453125,36.6549072265625,38.356564453125,37.3429472265625,38.356564453125,38.1916872265625L38.356564453125,40.6172472265625Z" fill="#787CF5" fill-opacity="1" style="mix-blend-mode:passthrough"/></g><g><path d="M35.030517578125,36.9290771484375C35.030517578125,36.9290771484375,36.737617578125,37.2325181484375,36.737617578125,38.2368071484375L36.737617578125,40.2590871484375L38.196087578125,40.2590871484375L38.196087578125,37.1561651484375L35.030517578125,36.9290771484375Z" fill="#787CF5" fill-opacity="1" style="mix-blend-mode:passthrough"/></g><g><path d="M12.738426046875,20.2672598046875C13.063401046875,20.2672598046875,13.325733046875,20.0049398046875,13.325733046875,19.6799598046875L13.325733046875,19.2571028046875C13.325733046875,18.9321278046875,13.063401046875,18.6697998046875,12.738426046875,18.6697998046875C12.413452046875,18.6697998046875,12.151123046875,18.9321278046875,12.151123046875,19.2571028046875L12.151123046875,19.6799598046875C12.151123046875,20.0029798046875,12.413452046875,20.2672698046875,12.738426046875,20.2672598046875Z" fill="#333333" fill-opacity="1" style="mix-blend-mode:passthrough"/></g><g><path d="M44.480269921875,13.759849960937501L40.915269921875,13.759849960937501L40.915269921875,13.4329199609375C40.915269921875,13.3624499609375,40.907469921875,13.295889960937501,40.897669921875,13.2273699609375C41.731669921874996,12.943499960937501,42.336569921875,12.154559960937501,42.336569921875,11.224659960937501L42.336569921875,10.9544999609375C42.336569921875,9.7877259609375,41.387069921874996,8.8402099609375,40.222269921875,8.8402099609375L27.759669921875002,8.8402099609375C27.434769921875002,8.8402099609375,27.172369921875,9.1025389609375,27.172369921875,9.4275129609375C27.172369921875,9.7524879609375,27.434769921875002,10.0148199609375,27.759669921875002,10.0148199609375L40.220269921875,10.0148199609375C40.739069921875,10.0148199609375,41.159969921875,10.4357199609375,41.159969921875,10.9544999609375L41.159969921875,11.224659960937501C41.159969921875,11.7434499609375,40.737169921875,12.1643499609375,40.220269921875,12.1643499609375L39.867969921875,12.1643499609375C39.789669921875,12.1486899609375,39.709369921874995,12.140859960937501,39.625169921875,12.140859960937501L20.631789921875,12.140859960937501C20.549569921874998,12.140859960937501,20.467339921875002,12.1486899609375,20.389039921875,12.1643499609375L19.842839921875,12.1643499609375C19.324059921875,12.1643499609375,18.903159921875,11.7434499609375,18.903159921875,11.224659960937501L18.903159921875,10.9544999609375C18.903159921875,10.4357199609375,19.326019921875,10.0148199609375,19.842839921875,10.0148199609375L24.791869921874998,10.0148199609375C25.116869921875,10.0148199609375,25.379169921875,9.7524879609375,25.379169921875,9.4275129609375C25.379169921875,9.1025389609375,25.116869921875,8.8402099609375,24.791869921874998,8.8402099609375L19.842849921875,8.8402099609375C18.676069921875,8.8402099609375,17.728549921875,9.7896839609375,17.728549921875,10.9544999609375L17.728549921875,11.224659960937501C17.728549921875,12.2211199609375,18.423529921875,13.057049960937501,19.351469921875,13.280219960937501C19.345599921875,13.329169960937499,19.341679921875,13.380069960937501,19.341679921875,13.4309699609375L19.341679921875,13.746149960937501L15.698439921875,13.746149960937501C13.740759921875,13.746149960937501,12.149169921875,15.3005499609375,12.149169921875,17.2131999609375C12.149169921875,17.538169960937502,12.411498921875,17.8004999609375,12.736472921875,17.8004999609375C13.061447921875,17.8004999609375,13.323779921875,17.538169960937502,13.323779921875,17.2131999609375C13.323779921875,15.948539960937499,14.388749921875,14.920759960937499,15.698439921875,14.920759960937499L18.938399921875,14.920759960937499L18.938399921875,16.3028799609375L15.698439921875,16.3028799609375C15.191399921875,16.3028799609375,14.780289921875,16.7100799609375,14.780289921875,17.211239960937498L14.780289921875,20.0675099609375C14.780289921875,21.1814099609375,14.780289921875,24.5251099609375,20.052319921875,25.2730099609375C20.246129921875,25.6567099609375,20.463429921875,26.0267099609375,20.704219921875,26.3830099609375C20.778619921875,26.5063099609375,20.854969921875,26.6296099609375,20.935229921875,26.7490099609375C20.901949921875,26.7510099609375,20.868669921875,26.7530099609375,20.833429921875002,26.7490099609375C17.814689921875,26.5122099609375,14.077479921875,25.3826099609375,13.423619921875,21.3400099609375C13.371989921875,21.0198099609375,13.070283921875,20.8023099609375,12.750177921875,20.8545099609375C12.430102921875,20.9063099609375,12.212699921875,21.2079099609375,12.264673921875,21.5279099609375C12.869595921875,25.2710099609375,15.880509921875,27.5419099609375,20.741419921875,27.9217099609375C21.068129921875,27.9475099609375,21.395949921875,27.8882099609375,21.692849921875002,27.7494099609375C22.783269921875,29.0160099609375,24.192769921874998,29.9988099609375,25.798069921874998,30.5704099609375C25.819669921875,30.5939099609375,25.843169921875003,30.6155099609375,25.868569921875,30.6350099609375C26.845469921875,31.3711099609375,27.973069921875002,32.3597099609375,28.004369921875,33.489309960937504C28.027869921875002,34.2861099609375,27.503269921875003,35.1514099609375,26.451969921874998,36.0637099609375L23.429269921874997,36.0637099609375C22.258669921875,36.0637099609375,21.305229921875,37.0171099609375,21.305229921875,38.1878099609375C21.305229921875,38.5127099609375,21.567559921875002,38.7751099609375,21.892539921875,38.7751099609375C22.217469921875,38.7751099609375,22.479869921875,38.5127099609375,22.479869921875,38.1878099609375C22.479869921875,37.6651099609375,22.904669921874998,37.2383099609375,23.429269921874997,37.2383099609375L36.819869921875,37.2383099609375C37.342569921875,37.2383099609375,37.769269921875,37.663109960937504,37.769269921875,38.1878099609375L37.769269921875,40.0260099609375L22.479869921875,40.0260099609375L22.479869921875,39.7970099609375C22.479869921875,39.4720099609375,22.217469921875,39.2097099609375,21.892539921875,39.2097099609375C21.567559921875002,39.2097099609375,21.305229921875,39.4720099609375,21.305229921875,39.7970099609375L21.305229921875,40.6133099609375C21.305229921875,40.9383099609375,21.567559921875002,41.2006099609375,21.892539921875,41.2006099609375L38.354669921875,41.2006099609375C38.679669921875,41.2006099609375,38.941969921875,40.9383099609375,38.941969921875,40.6133099609375L38.941969921875,38.1878099609375C38.941969921875,37.0171099609375,37.988569921875,36.0637099609375,36.817869921875,36.0637099609375L34.169169921874996,36.0637099609375C33.423269921875004,35.4509099609375,32.681269921875,34.6953099609375,32.634269921875,33.700809960937505C32.591269921874996,32.790409960937495,33.143269921875,31.7666099609375,34.278769921874996,30.6585099609375C34.290469921875,30.6468099609375,34.298369921875,30.6350099609375,34.310069921875,30.6213099609375C35.946169921875,30.0674099609375,37.405069921875,29.0876099609375,38.536669921875,27.7827099609375C38.820469921875,27.9041099609375,39.129469921875,27.9552099609375,39.437269921875,27.9315099609375C44.897169921875,27.5047099609375,48.027569921875,24.6406099609375,48.027569921875,20.077309960937498L48.027569921875,17.2268999609375C48.029469921875,15.314249960937499,46.437869921875,13.759849960937501,44.480269921875,13.759849960937501ZM15.954899921875,20.0714099609375L15.954899921875,17.479439960937498L19.341679921875,17.479439960937498L19.341679921875,21.4379099609375C19.341679921875,22.334509960937503,19.466969921875,23.2017099609375,19.696019921875,24.0279099609375C15.956849921875,23.3172099609375,15.954899921875,21.1481099609375,15.954899921875,20.0714099609375ZM31.463669921875,33.7614099609375C31.506669921875,34.6855099609375,31.937369921875,35.4372099609375,32.415069921875,36.0069099609375L28.159069921875,36.0069099609375C28.859869921875,35.1612099609375,29.200569921875,34.3076099609375,29.177069921875,33.4600099609375C29.151569921875,32.5496099609375,28.713069921875,31.7627099609375,28.123869921875,31.0892099609375C28.425269921875,31.1186099609375,28.730669921875,31.1342099609375,29.039969921875,31.1342099609375L31.222869921875,31.1342099609375C31.618269921875,31.1342099609375,32.005869921875004,31.1068099609375,32.389569921875,31.0618099609375C31.731869921875,31.9839099609375,31.422469921875,32.888309960937505,31.463669921875,33.7614099609375ZM31.220869921875,29.9596099609375L29.038069921875,29.9596099609375C26.369769921874997,29.9596099609375,23.985269921875002,28.7263099609375,22.421069921875002,26.7999099609375C22.401569921875,26.7118099609375,22.362369921875,26.6257099609375,22.299769921875,26.5533099609375C22.074099921875,26.2846099609375,21.863649921875002,26.0036099609375,21.669359921875,25.7115099609375C20.912809921875002,24.4151099609375,20.514829921875,22.9408099609375,20.516289921875,21.439809960937502L20.516289921875,13.4329199609375C20.516289921875,13.393769960937501,20.535859921875,13.3624399609375,20.565229921875,13.3409099609375L39.691769921875,13.3409099609375C39.721069921875,13.3624399609375,39.740669921874996,13.393769960937501,39.740669921874996,13.4329199609375L39.740669921874996,21.439809960937502C39.740669921874996,22.6144099609375,39.501869921875,23.7342099609375,39.069169921875,24.7542099609375C38.740269921875,25.4022099609375,38.342869921875,26.0110099609375,37.876969921875,26.5631099609375C37.790869921875,26.6668099609375,37.745769921874995,26.7901099609375,37.739969921875,26.9174099609375C36.177669921875,28.7752099609375,33.834369921874995,29.9596099609375,31.220869921875,29.9596099609375ZM46.854869921875,20.0812099609375C46.854869921875,25.1203099609375,42.773169921874995,26.4965099609375,39.347169921875,26.7647099609375L39.315869921875,26.7647099609375C39.613569921875,26.3134099609375,39.872869921875,25.8380099609375,40.091069921875004,25.3434099609375C40.100869921875,25.3238099609375,40.110669921875,25.3062099609375,40.120469921875,25.2886099609375C45.398369921875,24.5408099609375,45.398369921875,21.1951099609375,45.398369921875,20.0812099609375L45.398369921875,19.8619099609375C45.398369921875,19.5370099609375,45.136069921875,19.2746099609375,44.811069921875,19.2746099609375C44.486069921875,19.2746099609375,44.223769921875,19.5370099609375,44.223769921875,19.8619099609375L44.223769921875,20.0812099609375C44.223769921875,21.152009960937498,44.221769921875,23.2957099609375,40.562869921875,24.022009960937503C40.796069921875,23.1804099609375,40.914569921875,22.3112099609375,40.915269921875,21.4379099609375L40.915269921875,17.4911899609375L44.223769921875,17.4911899609375L44.223769921875,18.0197599609375C44.223769921875,18.344739960937503,44.486069921875,18.6070699609375,44.811069921875,18.6070699609375C45.136069921875,18.6070699609375,45.398369921875,18.344739960937503,45.398369921875,18.0197599609375L45.398369921875,17.2249499609375C45.398369921875,16.7237799609375,44.987269921875,16.3165799609375,44.480269921875,16.3165799609375L41.234369921875,16.3165799609375L41.234369921875,14.934459960937499L44.480269921875,14.934459960937499C45.789869921875,14.934459960937499,46.854869921875,15.962239960937499,46.854869921875,17.2268999609375L46.854869921875,20.0812099609375Z" fill="#000000" fill-opacity="1" style="mix-blend-mode:passthrough"/></g><g><path d="M31.126761484375,17.0683191171875L31.992051484375,18.7734601171875C32.058611484375,18.9026601171875,32.185861484374996,18.9927201171875,32.332681484375,19.0142501171875L34.266871484375,19.2883301171875C34.636871484375,19.3411801171875,34.785661484375,19.7836201171875,34.517451484375,20.0381201171875L33.117711484375,21.3654201171875C33.012001484375,21.4672201171875,32.963061484375004,21.6120901171875,32.988511484374996,21.7550001171875L33.319351484375,23.6285001171875C33.382001484375,23.9867501171875,32.994381484375,24.2608301171875,32.663531484375,24.0924701171875L30.932941484375,23.2076001171875C30.801781484375,23.1410401171875,30.643211484375,23.1410401171875,30.512041484375,23.2076001171875L28.781451484375,24.0924701171875C28.450611484375,24.2627901171875,28.062991484375,23.9887101171875,28.125631484375,23.6285001171875L28.456481484375,21.7550001171875C28.481931484375,21.6120901171875,28.432991484375002,21.4672201171875,28.327271484375,21.3654201171875L26.927535484375,20.0381201171875C26.659332484375,19.7836201171875,26.808116584375,19.3411801171875,27.178117484375,19.2883301171875L29.112301484375,19.0142501171875C29.259131484375,18.9927201171875,29.386381484375,18.9026601171875,29.452941484375,18.7734601171875L30.318231484375,17.0683191171875C30.482671484375,16.7413871171875,30.962311484375,16.7413871171875,31.126761484375,17.0683191171875Z" fill="#34F4C7" fill-opacity="1" style="mix-blend-mode:passthrough"/></g><g><path d="M32.553897578125,24.9538677734375C32.377707578125,24.9538677734375,32.201517578125,24.912747773437502,32.037077578125,24.8285677734375L30.014787578125002,23.7949177734375L27.992507578125,24.8285677734375C27.606847578125,25.0243377734375,27.152667578125,24.9871477734375,26.804197578125,24.730687773437502C26.465517578125,24.4801077734375,26.299117578125,24.068997773437502,26.371547578125,23.6559277734375L26.755257578125,21.4848577734375C26.546517578125,21.2571277734375,26.549077578125,20.9068577734375,26.761127578125,20.6822077734375C26.984437578125,20.4471377734375,27.355987578125,20.4375077734375,27.591187578125002,20.6606777734375C27.859387578125002,20.9151777734375,27.982717578125,21.2851777734375,27.918117578125,21.6473477734375L27.550077578125,23.7322677734375L29.497967578125,22.7358177734375C29.820977578125,22.5713677734375,30.206647578125,22.5713677734375,30.529657578125,22.7358177734375L32.477547578125,23.7322677734375L32.109507578125,21.6473477734375C32.044897578125,21.2851777734375,32.168237578125,20.9151677734375,32.436437578125,20.6606777734375L33.979087578125004,19.1982877734375L31.831517578125002,18.8948477734375C31.469407578125,18.8446877734375,31.154507578125,18.6211177734375,30.987757578125,18.2957977734375L30.012827578125,16.3733577734375L29.037907578125,18.2977577734375C28.871157578125,18.6230777734375,28.556257578125,18.8466477734375,28.194147578125,18.8968077734375L26.050497578125,19.2002477734375L26.301077578125,19.4253777734375C26.542477578125,19.642847773437502,26.560917578125,20.0151777734375,26.342187578125,20.2554377734375C26.124717578125,20.496827773437502,25.752389578125,20.5152677734375,25.512133578125,20.2965477734375L25.136259578125,19.9578677734375C24.817158378125,19.6544277734375,24.703612578125,19.221777773437502,24.832818578125,18.8184977734375C24.963982578124998,18.4093477734375,25.312449578125,18.1176477734375,25.743139578125,18.0550077734375L28.000337578125,17.7358977734375L29.006587578125,15.7527757734375C29.198567578125,15.3762557734375,29.586277578125,15.1399947434375,30.008917578125,15.1419804689375C30.435697578125,15.1419804689375,30.819397578125,15.3769017734375,31.011247578125,15.7527757734375L32.017497578125,17.7359077734375L34.274697578125,18.0550077734375C34.705387578125,18.1156977734375,35.053817578125,18.4073877734375,35.185017578125,18.8184977734375C35.314217578124996,19.221777773437502,35.202617578125,19.6544277734375,34.891417578125,19.9480777734375L33.268457578125,21.4868177734375L33.650197578125,23.6559277734375C33.722637578125,24.067037773437498,33.558187578125,24.4801077734375,33.217557578124996,24.730687773437502C33.023747578125,24.8775177734375,32.788817578125,24.9538677734375,32.553897578125,24.9538677734375Z" fill="#333333" fill-opacity="1" style="mix-blend-mode:passthrough"/></g><g><path d="M23.137633984375,22.005666601562503C22.867333984375,22.005666601562503,22.648215984375,21.786566601562498,22.648215984375,21.5162666015625L22.648215984375,20.9974666015625C22.648215984375,20.7271666015625,22.867333984375,20.5080366015625,23.137633984375,20.5080366015625C23.407933984375,20.5080366015625,23.627053984375,20.7271666015625,23.627053984375,20.9974666015625L23.627053984375,21.5162666015625C23.627053984375,21.7863666015625,23.409753984375,22.005666601562503,23.137633984375,22.005666601562503ZM23.137633984375,19.7210466015625C22.867333984375,19.7210466015625,22.648215984375,19.501926601562502,22.648215984375,19.2316266015625L22.648215984375,15.5923066015625C22.648215984375,15.3220066015625,22.867333984375,15.1028866015625,23.137633984375,15.1028866015625C23.407933984375,15.1028866015625,23.627053984375,15.3220066015625,23.627053984375,15.5923066015625L23.627053984375,19.2316266015625C23.627053984375,19.5017866015625,23.409753984375,19.7210466015625,23.137633984375,19.7210466015625ZM28.278493984375,38.7300666015625L26.391293984375,38.7300666015625C26.120993984374998,38.7300666015625,25.901873984375,38.5109666015625,25.901873984375,38.240666601562495C25.901873984375,37.9703666015625,26.120993984374998,37.7512666015625,26.391293984375,37.7512666015625L28.278493984375,37.7512666015625C28.548793984375,37.7512666015625,28.767913984375,37.9703666015625,28.767913984375,38.240666601562495C28.767913984375,38.5109666015625,28.548793984375,38.7300666015625,28.278493984375,38.7300666015625ZM24.862353984374998,38.7300666015625L24.580443984375,38.7300666015625C24.310143984375,38.7300666015625,24.091023984375,38.5109666015625,24.091023984375,38.240666601562495C24.091023984375,37.9703666015625,24.310143984375,37.7512666015625,24.580443984375,37.7512666015625L24.862353984374998,37.7512666015625C25.132653984375,37.7512666015625,25.351773984375,37.9703666015625,25.351773984375,38.240666601562495C25.351773984375,38.5109666015625,25.132643984375,38.7300666015625,24.862353984374998,38.7300666015625ZM28.998923984375,11.5771056015625L24.098853984375,11.5771056015625C23.828553984375,11.5771056015625,23.609433984375,11.3579856015625,23.609433984375,11.0876866015625C23.609433984375,10.8173866015625,23.828553984375,10.5982666015625,24.098853984375,10.5982666015625L28.998923984375,10.5982666015625C29.269223984375,10.5982666015625,29.488343984375,10.8173866015625,29.488343984375,11.0876866015625C29.488343984375,11.3579856015625,29.269223984375,11.5771056015625,28.998923984375,11.5771056015625ZM22.569908984375,11.5771056015625L22.288003984375,11.5771056015625C22.017704984375,11.5771056015625,21.798583984375,11.3579856015625,21.798583984375,11.0876866015625C21.798583984375,10.8173866015625,22.017704984375,10.5982666015625,22.288003984375,10.5982666015625L22.569908984375,10.5982666015625C22.840203984375,10.5982666015625,23.059323984375,10.8173866015625,23.059323984375,11.0876866015625C23.059323984375,11.3579856015625,22.840203984375,11.5771056015625,22.569908984375,11.5771056015625Z" fill="#FFFFFF" fill-opacity="1" style="mix-blend-mode:passthrough"/></g><g><path d="M28.250998171875,20.3729899609375C28.016078171875,20.3729899609375,27.810520871875,20.2046309609375,27.769409811875,19.9657939609375C27.724382571875,19.6995499609375,27.902532171875,19.4470089609375,28.168776171875,19.4019833609375L28.485921171875,19.3471686009375C28.752165171875,19.3021413609375,29.004701171875,19.4802909609375,29.049731171875,19.7465349609375C29.094761171875,20.0127799609375,28.916611171875,20.2653199609375,28.650365171875,20.3103459609375L28.333220171875,20.3651599609375C28.305813171875,20.3710299609375,28.278406171875,20.3729899609375,28.250998171875,20.3729899609375Z" fill="#FFFFFF" fill-opacity="1" style="mix-blend-mode:passthrough"/></g></g></g></g></svg>