<svg xmlns="http://www.w3.org/2000/svg" xmlns:xlink="http://www.w3.org/1999/xlink" fill="none" version="1.1" width="16" height="16" viewBox="0 0 16 16"><g><g><path d="M5.99975,2.2L5.99959,7.999L3.48259,8C3.42955,8,3.37868,8.02107,3.34117,8.05858C3.26307,8.13668,3.26307,8.26332,3.34117,8.34142L7.85833,12.8586C7.93643,12.9367,8.06307,12.9367,8.141169999999999,12.8586L12.6583,8.34142C12.6958,8.30391,12.7169,8.25304,12.7169,8.2C12.7169,8.08954,12.6274,8,12.5169,8L9.99959,8L9.99975,2.2C9.99975,2.0895431,9.91021,2,9.79975,2L6.19975,2C6.08929,2,5.99975,2.0895431,5.99975,2.2ZM10.58599,8.99902L7.99999,11.58602L5.41199,8.99802L6.9998,8.99863L6.99899,2.999023L8.99899,2.999023L8.9998,9.00002L10.58599,8.99902ZM14.7969,15L1.203088,15C1.0926309,15,1,14.9195,1,14.8091L1,12.1909C1,12.0805,1.0869198,12,1.197377,12L1.802623,12C1.91308,12,2,12.088,2,12.1985L2,14L14,14L14,12.1985C14,12.088,14.0869,12,14.1974,12L14.8026,12C14.9131,12,15,12.0805,15,12.1909L15,14.8091C15,14.9195,14.9074,15,14.7969,15Z" fill-rule="evenodd" fill="#5E6573" fill-opacity="1"/></g></g></svg>