<svg xmlns="http://www.w3.org/2000/svg" xmlns:xlink="http://www.w3.org/1999/xlink" fill="none" version="1.1" width="127" height="40" viewBox="0 0 127 40"><defs><linearGradient x1="-0.10665636509656906" y1="0.5" x2="1.0454939603805542" y2="0.9259277582168579" id="master_svg0_113_22709"><stop offset="0%" stop-color="#FFFFFF" stop-opacity="1"/><stop offset="100%" stop-color="#0066FE" stop-opacity="1"/></linearGradient><clipPath id="master_svg1_120_14846"><rect x="32" y="8" width="24.000001907348633" height="24" rx="0"/></clipPath></defs><g><rect x="0" y="0" width="127" height="40" rx="20" fill="#FFFFFF" fill-opacity="0.10000000149011612"/><rect x="0.5" y="0.5" width="126" height="39" rx="19.5" stroke="url(#master_svg0_113_22709)" fill-opacity="0" fill="none" stroke-width="1"/><g clip-path="url(#master_svg1_120_14846)"><g><path d="M49.908497034375,26.92606938125L49.818115234375,26.92606938125L49.818115234375,26.87548828125L50.061529234375,26.87548828125L50.061529234375,26.92606938125L49.971680234375,26.92606938125L49.971680234375,27.17844528125L49.908497034375,27.17844528125L49.908497034375,26.92606938125ZM50.393994234375,26.93924748125L50.392574234375,26.93924748125L50.302946234375,27.17853528125L50.261948234375,27.17853528125L50.172941234375,26.93924748125L50.171877234375,26.93924748125L50.171877234375,27.17853528125L50.112288234375,27.17853528125L50.112288234375,26.87557617185L50.199963234375,26.87557617185L50.282492234375,27.09010428125L50.364754234375,26.87557617185L50.452118234375,26.87557617185L50.452118234375,27.17853528125L50.393949234375,27.17853528125L50.393994234375,26.93924748125Z" fill="#E76F00" fill-opacity="1" style="mix-blend-mode:passthrough"/></g><g><path d="M41.81438693359375,20.73053265625Q41.18530693359375,21.09636265625,42.26207693359375,21.22015265625C43.56655693359375,21.36897265625,44.23325693359375,21.34763265625,45.67080693359375,21.07555265625Q46.04874693359375,21.31253265625,46.57657693359375,21.517792656250002C43.35397693359375,22.89894265625,39.28320693359375,21.43779265625,41.81438693359375,20.73053265625ZM41.42060093359375,18.92822265625Q40.71502993359375,19.45050165625,41.79259693359375,19.56195865625C43.18608693359375,19.705717656250002,44.28654693359375,19.71747565625,46.19077693359375,19.35080165625Q46.45419693359375,19.61782065625,46.86834693359375,19.76384165625C42.97199693359375,20.90317265625,38.63221693359375,19.85369065625,41.42060093359375,18.92822265625Z" fill="#0080D4" fill-opacity="1" style="mix-blend-mode:passthrough"/></g><g><path d="M44.74032992578125,15.8712246875Q45.53437392578125,16.7854246875,44.53174692578125,17.608134687499998Q46.547873925781246,16.5673046875,45.62196392578125,15.2639346875C44.75714692578125,14.048424687499999,44.09394802578125,13.4445446875,47.68423392578125,11.3623046875C47.68428392578125,11.3622602844,42.04866392578125,12.7697646875,44.74032992578125,15.8712246875Z" fill="#E76F00" fill-opacity="1" style="mix-blend-mode:passthrough"/></g><g><path d="M49.00243583984375,22.06419375Q49.46793583984375,22.44781375,48.489735839843746,22.74451375C46.62963583984375,23.30801375,40.74772583984375,23.47817375,39.11375583984375,22.76701375C38.52638183984375,22.511443749999998,39.62786583984375,22.15683375,39.97435583984375,22.08242375Q40.33570583984375,22.00407375,40.54219583984375,22.01866375C39.88898583984375,21.55850375,36.32008583984375,22.92217375,38.72937483984375,23.312763750000002C45.29986583984375,24.37831375,50.70683583984375,22.83294375,49.00243583984375,22.06419375ZM42.11688583984375,17.06138475Q39.12497583984375,17.77201375,41.05737583984375,18.03007375C41.87329583984375,18.13931375,43.49981583984375,18.11459375,45.01482583984375,17.98765375Q46.25301583984375,17.88320575,47.49635583984375,17.66117875Q47.059755839843746,17.84815375,46.74388583984375,18.06379375C43.70564583984375,18.86289375,37.83633913984375,18.49112375,39.52603583984375,17.67377975Q40.95501583984375,16.98302735,42.11688583984375,17.06138475ZM47.48401583984375,20.06141375C50.57253583984375,18.45651375,49.14453583984375,16.91416415,48.14783583984375,17.12199375Q47.90349583984375,17.17284175,47.79456583984375,17.21690075Q47.88530583984375,17.07482775,48.05843583984375,17.01333175C50.03023583984375,16.32009375,51.54673583984375,19.05794375,47.42190583984375,20.142343750000002Q47.46977583984375,20.09966375,47.48401583984375,20.06141375Z" fill="#0080D4" fill-opacity="1" style="mix-blend-mode:passthrough"/></g><g><path d="M45.621950908203125,8Q47.33241090820312,9.711,43.99965090820312,12.34214C41.327110908203124,14.45269,43.39023090820312,15.656089999999999,43.998540908203125,17.03107C42.438579908203124,15.62352,41.293744908203124,14.38453,42.061789908203124,13.231359999999999C43.18905090820313,11.5386,46.31208090820313,10.717880000000001,45.621950908203125,8Z" fill="#E76F00" fill-opacity="1" style="mix-blend-mode:passthrough"/></g><g><path d="M42.420397578125,24.40985546875C45.384987578125,24.59962546875,49.937437578125,24.30456546875,50.045207578125,22.90185546875Q49.838007578125,23.43358646875,47.595137578125,23.85594346875C45.064857578125,24.33207546875,41.943997578125,24.276525468750002,40.093017578125,23.971345468750002C40.093106384325,23.97126546875,40.471981578125,24.28491546875,42.420397578125,24.40985546875Z" fill="#0080D4" fill-opacity="1" style="mix-blend-mode:passthrough"/></g><g><path d="M41.934514150390626,29.77040171875C41.65484415039062,30.012971718750002,41.359474150390625,30.149151718749998,41.09441415039063,30.149151718749998C40.71606415039062,30.149151718749998,40.511654150390626,29.92228171875,40.511654150390626,29.558401718749998C40.511654150390626,29.16480171875,40.73070415039062,28.87701171875,41.60932415039063,28.87701171875L41.934464150390625,28.87701171875L41.934514150390626,29.77040171875ZM42.70619415039062,30.64107171875L42.70619415039062,27.94595171875C42.70619415039062,27.25742171875,42.31352415039063,26.80316171875,41.366754150390626,26.80316171875C40.814034150390626,26.80316171875,40.32987415039062,26.93964171875,39.93635415039063,27.11370171875L40.04993415039063,27.59077171875C40.35977415039063,27.47705171875,40.76083415039062,27.37118171875,41.15448415039062,27.37118171875C41.69988415039062,27.37118171875,41.934514150390626,27.59077171875,41.934514150390626,28.04476171875L41.934514150390626,28.385441718750002L41.662304150390625,28.385441718750002C40.33719415039062,28.385441718750002,39.73943415039062,28.89982171875,39.73943415039062,29.67186171875C39.73943415039062,30.33821171875,40.13335415039062,30.71695171875,40.87504415039062,30.71695171875C41.35180415039063,30.71695171875,41.70769415039062,30.52008171875,42.040374150390626,30.23203171875L42.100764150390624,30.64116171875L42.70619415039062,30.64107171875ZM45.28156415039062,30.64107171875L44.319134150390624,30.64107171875L43.160804150390625,26.87140171875L44.001354150390625,26.87140171875L44.72006415039063,29.18747171875L44.87983415039062,29.884031718750002C45.24344415039062,28.87692171875,45.50066415039063,27.85517171875,45.62929415039062,26.87140171875L46.44689415039063,26.87140171875C46.22779415039062,28.11270171875,45.83361415039062,29.47521171875,45.28156415039062,30.64107171875ZM48.97380415039063,29.77040171875C48.69360415039063,30.012971718750002,48.397704150390624,30.149151718749998,48.13260415039063,30.149151718749998C47.75490415039062,30.149151718749998,47.55000415039063,29.92228171875,47.55000415039063,29.558401718749998C47.55000415039063,29.16480171875,47.769504150390624,28.87701171875,48.648004150390626,28.87701171875L48.97380415039063,28.87701171875L48.97380415039063,29.77040171875ZM49.74540415039063,30.64107171875L49.74540415039063,27.94595171875C49.74540415039063,27.25742171875,49.35180415039063,26.80316171875,48.40600415039063,26.80316171875C47.85290415039063,26.80316171875,47.36859415039062,26.93964171875,46.975254150390626,27.11370171875L47.088704150390626,27.59077171875C47.39863415039063,27.47705171875,47.80040415039063,27.37118171875,48.193804150390626,27.37118171875C48.73880415039062,27.37118171875,48.97380415039063,27.59077171875,48.97380415039063,28.04476171875L48.97380415039063,28.385441718750002L48.70110415039063,28.385441718750002C47.37560415039063,28.385441718750002,46.77807415039062,28.89982171875,46.77807415039062,29.67186171875C46.77807415039062,30.33821171875,47.171684150390625,30.71695171875,47.91320415039063,30.71695171875C48.39030415039063,30.71695171875,48.74610415039062,30.52008171875,49.07930415039063,30.23203171875L49.13990415039063,30.64116171875L49.74540415039063,30.64107171875ZM38.89330415039063,31.28120171875C38.673314150390624,31.602401718750002,38.31800115039063,31.85650171875,37.92900915039063,32.00026171875L37.548004150390625,31.55190171875C37.844085150390626,31.39998171875,38.09801515039062,31.15461171875,38.21599415039063,30.92611171875C38.318045150390624,30.72285171875,38.36028615039063,30.46089171875,38.36028615039063,29.83443171875L38.36028615039063,25.53076171875L39.18015415039063,25.53076171875L39.18015415039063,29.77546171875C39.18011415039062,30.61294171875,39.11315415039063,30.95126171875,38.89330415039063,31.28120171875Z" fill="#E76F00" fill-opacity="1" style="mix-blend-mode:passthrough"/></g></g><g><path d="M65.664,14.576L65.664,22.256C65.664,23.104,65.504,23.712,65.216,24.096C64.912,24.48,64.432,24.688,63.76,24.688C62.576,24.688,61.984,24,61.984,22.64L61.984,22.272L60.24,22.272L60.24,22.656C60.24,23.776,60.544,24.64,61.152,25.28C61.728,25.904,62.592,26.224,63.728,26.224C65.04,26.224,66,25.872,66.608,25.2C67.136,24.56,67.408,23.6,67.408,22.32L67.408,14.576L65.664,14.576ZM73.216,17.503999999999998C72.19200000000001,17.503999999999998,71.36,17.68,70.752,18.064C70.048,18.48,69.6,19.152,69.424,20.048000000000002L71.104,20.192C71.2,19.728,71.44,19.392,71.824,19.168C72.144,18.976,72.576,18.880000000000003,73.104,18.880000000000003C74.352,18.880000000000003,74.976,19.456,74.976,20.608L74.976,20.944000000000003L73.12,20.992C71.904,21.024,70.944,21.264,70.272,21.744C69.536,22.240000000000002,69.168,22.96,69.168,23.887999999999998C69.168,24.576,69.424,25.136,69.952,25.568C70.432,26,71.104,26.224,71.968,26.224C72.70400000000001,26.224,73.344,26.08,73.888,25.824C74.368,25.584,74.768,25.248,75.088,24.832L75.088,26L76.656,26L76.656,20.72C76.656,19.712,76.4,18.944000000000003,75.904,18.416C75.328,17.808,74.432,17.503999999999998,73.216,17.503999999999998ZM74.976,22.176000000000002L74.976,22.656C74.976,23.296,74.70400000000001,23.84,74.19200000000001,24.272C73.68,24.704,73.072,24.928,72.352,24.928C71.92,24.928,71.568,24.816,71.312,24.608C71.03999999999999,24.4,70.912,24.144,70.912,23.823999999999998C70.912,22.8,71.68,22.256,73.232,22.224L74.976,22.176000000000002ZM77.712,17.728L80.78399999999999,26L82.48,26L85.55199999999999,17.728L83.712,17.728L81.632,23.887999999999998L79.55199999999999,17.728L77.712,17.728ZM90.32,17.503999999999998C89.29599999999999,17.503999999999998,88.464,17.68,87.856,18.064C87.152,18.48,86.70400000000001,19.152,86.52799999999999,20.048000000000002L88.208,20.192C88.304,19.728,88.544,19.392,88.928,19.168C89.248,18.976,89.68,18.880000000000003,90.208,18.880000000000003C91.456,18.880000000000003,92.08,19.456,92.08,20.608L92.08,20.944000000000003L90.224,20.992C89.008,21.024,88.048,21.264,87.376,21.744C86.64,22.240000000000002,86.27199999999999,22.96,86.27199999999999,23.887999999999998C86.27199999999999,24.576,86.52799999999999,25.136,87.056,25.568C87.536,26,88.208,26.224,89.072,26.224C89.80799999999999,26.224,90.44800000000001,26.08,90.992,25.824C91.47200000000001,25.584,91.872,25.248,92.19200000000001,24.832L92.19200000000001,26L93.75999999999999,26L93.75999999999999,20.72C93.75999999999999,19.712,93.50399999999999,18.944000000000003,93.00800000000001,18.416C92.432,17.808,91.536,17.503999999999998,90.32,17.503999999999998ZM92.08,22.176000000000002L92.08,22.656C92.08,23.296,91.80799999999999,23.84,91.29599999999999,24.272C90.78399999999999,24.704,90.176,24.928,89.456,24.928C89.024,24.928,88.672,24.816,88.416,24.608C88.144,24.4,88.01599999999999,24.144,88.01599999999999,23.823999999999998C88.01599999999999,22.8,88.78399999999999,22.256,90.336,22.224L92.08,22.176000000000002Z" fill="#FFFFFF" fill-opacity="1"/></g></g></svg>