<svg xmlns="http://www.w3.org/2000/svg" xmlns:xlink="http://www.w3.org/1999/xlink" fill="none" version="1.1" width="172" height="40" viewBox="0 0 172 40"><defs><linearGradient x1="-0.10665636509656906" y1="0.5" x2="1.0454939603805542" y2="0.9259277582168579" id="master_svg0_113_22709"><stop offset="0%" stop-color="#FFFFFF" stop-opacity="1"/><stop offset="100%" stop-color="#0066FE" stop-opacity="1"/></linearGradient></defs><g><rect x="0" y="0" width="172" height="40" rx="20" fill="#FFFFFF" fill-opacity="0.10000000149011612"/><rect x="0.5" y="0.5" width="171" height="39" rx="19.5" stroke="url(#master_svg0_113_22709)" fill-opacity="0" fill="none" stroke-width="1"/><g><path d="M32,10L32,30L52,30L52,10L32,10ZM42.7143,25.5357C42.7143,27.4826,41.56429,28.4317,39.89955,28.4317C38.39598,28.4317,37.52321,27.6531,37.08036,26.7134L38.61071,25.787100000000002C38.9058,26.3107,39.12991,26.7536,39.77411,26.7536C40.30982,26.7536,40.75,26.5121,40.75,25.5723L40.75,19.28571L42.7143,19.28571L42.7143,25.5357ZM47.1496,28.3871C45.4045,28.3871,44.2768,27.5996,43.7263,26.5121L45.2589,25.625C45.6607,26.283,46.1853,26.7214,47.111599999999996,26.7214C47.8902,26.7214,48.3424,26.3768,48.3424,25.8397C48.3424,25.1955,47.8768,24.967399999999998,47.0174,24.5897L46.5478,24.387900000000002C45.1915,23.8112,44.2924,23.086199999999998,44.2924,21.5554C44.2924,20.146,45.3661,19.11652,47.044200000000004,19.11652C48.2393,19.11652,49.0978,19.487949999999998,49.7161,20.575400000000002L48.25,21.517899999999997C47.9277,20.9406,47.5804,20.7143,47.042,20.7143C46.4915,20.7143,46.1424,21.0634,46.1424,21.517899999999997C46.1424,22.081699999999998,46.4915,22.3098,47.2969,22.6589L47.7665,22.860300000000002C49.3643,23.545099999999998,50.2638,24.2442,50.2638,25.8138C50.2643,27.5058,48.9353,28.3871,47.1496,28.3871Z" fill="#FFFFFF" fill-opacity="1" style="mix-blend-mode:passthrough"/></g><g><path d="M65.664,14.576L65.664,22.256C65.664,23.104,65.504,23.712,65.216,24.096C64.912,24.48,64.432,24.688,63.76,24.688C62.576,24.688,61.984,24,61.984,22.64L61.984,22.272L60.24,22.272L60.24,22.656C60.24,23.776,60.544,24.64,61.152,25.28C61.728,25.904,62.592,26.224,63.728,26.224C65.04,26.224,66,25.872,66.608,25.2C67.136,24.56,67.408,23.6,67.408,22.32L67.408,14.576L65.664,14.576ZM73.216,17.503999999999998C72.19200000000001,17.503999999999998,71.36,17.68,70.752,18.064C70.048,18.48,69.6,19.152,69.424,20.048000000000002L71.104,20.192C71.2,19.728,71.44,19.392,71.824,19.168C72.144,18.976,72.576,18.880000000000003,73.104,18.880000000000003C74.352,18.880000000000003,74.976,19.456,74.976,20.608L74.976,20.944000000000003L73.12,20.992C71.904,21.024,70.944,21.264,70.272,21.744C69.536,22.240000000000002,69.168,22.96,69.168,23.887999999999998C69.168,24.576,69.424,25.136,69.952,25.568C70.432,26,71.104,26.224,71.968,26.224C72.70400000000001,26.224,73.344,26.08,73.888,25.824C74.368,25.584,74.768,25.248,75.088,24.832L75.088,26L76.656,26L76.656,20.72C76.656,19.712,76.4,18.944000000000003,75.904,18.416C75.328,17.808,74.432,17.503999999999998,73.216,17.503999999999998ZM74.976,22.176000000000002L74.976,22.656C74.976,23.296,74.70400000000001,23.84,74.19200000000001,24.272C73.68,24.704,73.072,24.928,72.352,24.928C71.92,24.928,71.568,24.816,71.312,24.608C71.03999999999999,24.4,70.912,24.144,70.912,23.823999999999998C70.912,22.8,71.68,22.256,73.232,22.224L74.976,22.176000000000002ZM77.712,17.728L80.78399999999999,26L82.48,26L85.55199999999999,17.728L83.712,17.728L81.632,23.887999999999998L79.55199999999999,17.728L77.712,17.728ZM90.32,17.503999999999998C89.29599999999999,17.503999999999998,88.464,17.68,87.856,18.064C87.152,18.48,86.70400000000001,19.152,86.52799999999999,20.048000000000002L88.208,20.192C88.304,19.728,88.544,19.392,88.928,19.168C89.248,18.976,89.68,18.880000000000003,90.208,18.880000000000003C91.456,18.880000000000003,92.08,19.456,92.08,20.608L92.08,20.944000000000003L90.224,20.992C89.008,21.024,88.048,21.264,87.376,21.744C86.64,22.240000000000002,86.27199999999999,22.96,86.27199999999999,23.887999999999998C86.27199999999999,24.576,86.52799999999999,25.136,87.056,25.568C87.536,26,88.208,26.224,89.072,26.224C89.80799999999999,26.224,90.44800000000001,26.08,90.992,25.824C91.47200000000001,25.584,91.872,25.248,92.19200000000001,24.832L92.19200000000001,26L93.75999999999999,26L93.75999999999999,20.72C93.75999999999999,19.712,93.50399999999999,18.944000000000003,93.00800000000001,18.416C92.432,17.808,91.536,17.503999999999998,90.32,17.503999999999998ZM92.08,22.176000000000002L92.08,22.656C92.08,23.296,91.80799999999999,23.84,91.29599999999999,24.272C90.78399999999999,24.704,90.176,24.928,89.456,24.928C89.024,24.928,88.672,24.816,88.416,24.608C88.144,24.4,88.01599999999999,24.144,88.01599999999999,23.823999999999998C88.01599999999999,22.8,88.78399999999999,22.256,90.336,22.224L92.08,22.176000000000002ZM99.856,14.352C98.64,14.352,97.632,14.623999999999999,96.832,15.168C95.98400000000001,15.744,95.568,16.528,95.568,17.536C95.568,18.528,96,19.296,96.88,19.823999999999998C97.232,20.016,98.096,20.32,99.50399999999999,20.768C100.768,21.152,101.52000000000001,21.408,101.77600000000001,21.536C102.49600000000001,21.904,102.864,22.4,102.864,23.04C102.864,23.552,102.608,23.951999999999998,102.096,24.24C101.584,24.528,100.896,24.688,100.032,24.688C99.072,24.688,98.368,24.512,97.904,24.16C97.392,23.776,97.072,23.119999999999997,96.944,22.224L95.21600000000001,22.224C95.312,23.664,95.824,24.72,96.768,25.392C97.55199999999999,25.936,98.64,26.224,100.032,26.224C101.47200000000001,26.224,102.592,25.936,103.392,25.36C104.19200000000001,24.768,104.592,23.968,104.592,22.944000000000003C104.592,21.887999999999998,104.096,21.072,103.12,20.48C102.672,20.208,101.664,19.84,100.128,19.36C99.056,19.04,98.4,18.8,98.144,18.656C97.568,18.352,97.29599999999999,17.951999999999998,97.29599999999999,17.439999999999998C97.29599999999999,16.864,97.536,16.448,98.032,16.192C98.432,15.968,99.00800000000001,15.856,99.75999999999999,15.856C100.624,15.856,101.26400000000001,16.016,101.712,16.352C102.16,16.672,102.44800000000001,17.216,102.608,17.951999999999998L104.336,17.951999999999998C104.22399999999999,16.704,103.77600000000001,15.792,102.976,15.2C102.22399999999999,14.623999999999999,101.184,14.352,99.856,14.352ZM109.72800000000001,17.503999999999998C108.44800000000001,17.503999999999998,107.456,17.936,106.73599999999999,18.8C106.064,19.6,105.72800000000001,20.624000000000002,105.72800000000001,21.872C105.72800000000001,23.152,106.064,24.176,106.75200000000001,24.976C107.456,25.808,108.432,26.224,109.696,26.224C110.75200000000001,26.224,111.616,25.952,112.256,25.424C112.896,24.88,113.328,24.048,113.52000000000001,22.944000000000003L111.84,22.944000000000003C111.68,24.192,110.976,24.832,109.712,24.832C108.976,24.832,108.432,24.56,108.064,24.048C107.664,23.52,107.47200000000001,22.784,107.47200000000001,21.856C107.47200000000001,20.928,107.664,20.192,108.08,19.68C108.47999999999999,19.152,109.024,18.896,109.72800000000001,18.896C110.304,18.896,110.768,19.024,111.12,19.296C111.47200000000001,19.552,111.696,19.968,111.80799999999999,20.528L113.488,20.528C113.328,19.503999999999998,112.912,18.736,112.27199999999999,18.224C111.632,17.744,110.78399999999999,17.503999999999998,109.72800000000001,17.503999999999998ZM118.816,17.503999999999998C118.304,17.503999999999998,117.856,17.648,117.47200000000001,17.968C117.152,18.192,116.88,18.528,116.672,18.976L116.672,17.728L114.976,17.728L114.976,26L116.672,26L116.672,21.616C116.672,20.896,116.88,20.304000000000002,117.312,19.856C117.712,19.439999999999998,118.176,19.232,118.688,19.232C119.072,19.232,119.47200000000001,19.28,119.888,19.408L119.888,17.712C119.6,17.567999999999998,119.232,17.503999999999998,118.816,17.503999999999998ZM122.128,14.416C121.792,14.416,121.52000000000001,14.512,121.29599999999999,14.736C121.072,14.943999999999999,120.96000000000001,15.216000000000001,120.96000000000001,15.552C120.96000000000001,15.872,121.072,16.16,121.29599999999999,16.384C121.52000000000001,16.592,121.792,16.704,122.128,16.704C122.44800000000001,16.704,122.73599999999999,16.592,122.96000000000001,16.384C123.184,16.16,123.312,15.888,123.312,15.552C123.312,15.216000000000001,123.2,14.943999999999999,122.976,14.736C122.75200000000001,14.512,122.464,14.416,122.128,14.416ZM121.28,17.728L121.28,26L122.976,26L122.976,17.728L121.28,17.728ZM129.40800000000002,17.503999999999998C128.288,17.503999999999998,127.424,17.904,126.848,18.72L126.848,17.728L125.264,17.728L125.264,29.168L126.96,29.168L126.96,24.784C127.632,25.744,128.464,26.224,129.488,26.224C130.672,26.224,131.61599999999999,25.792,132.288,24.928C132.912,24.128,133.232,23.119999999999997,133.232,21.904C133.232,20.624000000000002,132.912,19.6,132.272,18.8C131.56799999999998,17.936,130.624,17.503999999999998,129.40800000000002,17.503999999999998ZM129.152,18.880000000000003C129.98399999999998,18.880000000000003,130.59199999999998,19.168,130.99200000000002,19.776C131.312,20.288,131.488,20.992,131.488,21.904C131.488,22.816000000000003,131.296,23.52,130.94400000000002,24.032C130.54399999999998,24.576,129.936,24.848,129.10399999999998,24.848C128.464,24.848,127.952,24.592,127.568,24.096C127.12,23.552,126.912,22.832,126.912,21.951999999999998L126.912,21.808C126.912,20.96,127.088,20.272,127.44,19.759999999999998C127.84,19.168,128.416,18.880000000000003,129.152,18.880000000000003ZM137.344,15.056000000000001L135.648,15.76L135.648,17.728L134.112,17.728L134.112,19.136L135.648,19.136L135.648,23.936C135.648,24.592,135.792,25.088,136.112,25.44C136.43200000000002,25.808,136.95999999999998,26,137.664,26L139.024,26L139.024,24.592L137.936,24.592C137.728,24.592,137.584,24.528,137.488,24.432C137.392,24.32,137.344,24.16,137.344,23.936L137.344,19.136L139.232,19.136L139.232,17.728L137.344,17.728L137.344,15.056000000000001Z" fill="#FFFFFF" fill-opacity="1"/></g></g></svg>