<svg xmlns="http://www.w3.org/2000/svg" xmlns:xlink="http://www.w3.org/1999/xlink" fill="none" version="1.1" width="16" height="16" viewBox="0 0 16 16"><g><g><path d="M13.9922875,2.199882L13.9997875,14.7999C13.9997875,14.9104,13.9102875,15,13.7997875,15L8.314197499999999,15C8.203737499999999,15,8.1141975,14.9105,8.1141975,14.8L8.1141975,14.2077C8.1141975,14.0974,8.2035375,14.0079,8.3138675,14.0077L13.0001875,14L13.0001875,2.969L1.9928675,2.969L1.9922175,7.80003C1.9921975,7.91047,1.9026605,8,1.7922145,8L1.1921875,8C1.0817306,8,0.9921875,7.91046,0.9921875,7.8L0.9921875,2.2C0.9921875,2.0895431,1.0817306,2,1.1921875,2L13.7922875,2C13.9026875,2,13.9922875,2.089471,13.9922875,2.199882ZM4.1998774999999995,7L8.263607499999999,7L2.2870875,13.005C2.2093075,13.0831,2.2094475,13.2095,2.2873975,13.2874L2.7116375,13.7118C2.7898674999999997,13.7901,2.9167775000000002,13.79,2.9948375,13.7115L9.0019575,7.67578L9.0025375,11.80003C9.0025475,11.91047,9.0920875,12,9.2025375,12L9.8025675,12C9.9130175,12,10.0025675,11.91046,10.0025675,11.8L10.0025675,6.2C10.0025675,6.08954,9.9130175,6,9.8025675,6L4.1998774999999995,6C4.0894175,6,3.9998775,6.08954,3.9998775,6.2L3.9998775,6.8C3.9998775,6.91046,4.0894175,7,4.1998774999999995,7Z" fill-rule="evenodd" fill="#458FFF" fill-opacity="1"/></g></g></svg>