<svg xmlns="http://www.w3.org/2000/svg" xmlns:xlink="http://www.w3.org/1999/xlink" fill="none" version="1.1" width="20" height="20" viewBox="0 0 20 20"><defs><linearGradient x1="0.04661983996629715" y1="0.2868359386920929" x2="0.9506159439832484" y2="0.9079971451061746" id="master_svg0_129_12839"><stop offset="0%" stop-color="#2A7FFF" stop-opacity="1"/><stop offset="93.57143044471741%" stop-color="#FFFFFF" stop-opacity="1"/></linearGradient></defs><g><g><g><path d="M9.375,1.25C13.172,1.25,16.25,4.32805,16.25,8.125C16.25,10.79648,14.7263,13.1121,12.5005,14.2501L12.5,15.625C12.5,15.9702,12.22017,16.25,11.875,16.25L6.875,16.25C6.52982,16.25,6.25,15.9702,6.25,15.625L6.25078,14.2508C4.0243199999999995,13.1129,2.5,10.79699,2.5,8.125C2.5,4.32805,5.57805,1.25,9.375,1.25ZM9.375,2.5C6.2684,2.5,3.75,5.0184,3.75,8.125C3.75,10.26121,4.95062,12.1826,6.81959,13.1377L7.50121,13.486L7.50035,15L11.25021,15L11.25076,13.4852L11.93143,13.1371C13.7999,12.1818,15,10.26078,15,8.125C15,5.0184,12.4816,2.5,9.375,2.5ZM9.374880000000001,3.75C9.72006,3.75,9.999880000000001,4.02982,9.999880000000001,4.375C9.999880000000001,4.72018,9.72006,5,9.374880000000001,5C7.8793,5,6.60119,6.05887,6.31094,7.50664C6.2430699999999995,7.8451,5.91371,8.06445,5.5752500000000005,7.9966C5.23682,7.92873,5.01746,7.59937,5.08531,7.26092C5.49211,5.23189,7.28082,3.75,9.374880000000001,3.75ZM11.25,17.5C11.59518,17.5,11.875,17.7798,11.875,18.125C11.875,18.4702,11.59518,18.75,11.25,18.75L7.5,18.75C7.15482,18.75,6.875,18.4702,6.875,18.125C6.875,17.7798,7.15482,17.5,7.5,17.5L11.25,17.5Z" fill-rule="evenodd" fill="url(#master_svg0_129_12839)" fill-opacity="1"/></g></g></g></svg>