<svg xmlns="http://www.w3.org/2000/svg" xmlns:xlink="http://www.w3.org/1999/xlink" fill="none" version="1.1" width="280" height="40" viewBox="0 0 280 40"><defs><linearGradient x1="-0.03444395214319229" y1="0.7222934365272522" x2="1.1647591121905692" y2="0.711567521280017" id="master_svg0_86_36807"><stop offset="0%" stop-color="#0167FF" stop-opacity="1"/><stop offset="46.42857015132904%" stop-color="#48FFCB" stop-opacity="1"/><stop offset="99.99999403953552%" stop-color="#005EFF" stop-opacity="1"/></linearGradient><linearGradient x1="0.01669413223862648" y1="-0.04983149468898773" x2="1.0413239664541238" y2="-0.027516135676158626" id="master_svg1_1_6465"><stop offset="0%" stop-color="#0066FF" stop-opacity="1"/><stop offset="42.24049150943756%" stop-color="#00FFB7" stop-opacity="1"/><stop offset="53.546565771102905%" stop-color="#F7FFFD" stop-opacity="1"/><stop offset="60.372161865234375%" stop-color="#FFFFFF" stop-opacity="1"/><stop offset="99.99999403953552%" stop-color="#005EFF" stop-opacity="1"/></linearGradient></defs><g><path d="M0,20C0,31.0457,8.9543,40,20,40L260,40C271.046,40,280,31.0457,280,20C280,8.9543,271.046,0,260,0L20,0C8.9543,0,0,8.9543,0,20Z" fill="url(#master_svg0_86_36807)" fill-opacity="0.30000001192092896"/><path d="M0,20C0,31.0457,8.9543,40,20,40L260,40C271.046,40,280,31.0457,280,20C280,8.9543,271.046,0,260,0L20,0C8.9543,0,0,8.9543,0,20ZM1,20Q1,27.87,6.56497,33.435Q12.1299,39,20,39L260,39Q267.87,39,273.435,33.435Q279,27.8701,279,20Q279,12.1299,273.435,6.56497Q267.87,1.00001,260,1L20,1Q12.1299,1,6.56497,6.56497Q1.00001,12.1299,1,20Z" fill-rule="evenodd" fill="url(#master_svg1_1_6465)" fill-opacity="1"/></g></svg>