<svg xmlns="http://www.w3.org/2000/svg" xmlns:xlink="http://www.w3.org/1999/xlink" fill="none" version="1.1" width="15.399999976158142" height="14.749221205711365" viewBox="0 0 15.399999976158142 14.749221205711365"><g><path d="M5.124419988079071,3.871359988079071L5.1242799880790715,3.871629988079071Q4.941529988079071,4.241249988079071,4.532959988079071,4.300689988079071L0.9210479880790711,4.828679988079071Q0.258757988079071,4.922309988079071,0.05230298807907108,5.558529988079071Q-0.154149011920929,6.194739988079071,0.324975988079071,6.657499988079071L2.939849988079071,9.203089988079071Q3.235799988079071,9.491279988079071,3.165949988079071,9.89848998807907L2.549769988079071,13.49279998807907Q2.434299988079071,14.150899988079072,2.974709988079071,14.54399998807907Q3.515129988079071,14.936999988079071,4.103999988079071,14.625299988079071L7.335219988079071,12.925999988079072Q7.700279988079071,12.734299988079071,8.06500998807907,12.92579998807907L11.29409998807907,14.623599988079071Q11.885099988079071,14.938199988079072,12.426799988079072,14.54479998807907Q12.96849998807907,14.15129998807907,12.85259998807907,13.495399988079072L12.23539998807907,9.898179988079072Q12.16579998807907,9.49111998807907,12.461399988079071,9.203099988079071L15.07669998807907,6.656419988079071Q15.553399988079072,6.191579988079071,15.347499988079072,5.558409988079071Q15.14159998807907,4.925179988079071,14.483599988079071,4.829859988079071L10.86799998807907,4.300749988079071Q10.46013998807907,4.240879988079071,10.27761998807907,3.8715299880790712L8.660459988079072,0.5958889880790711Q8.365509988079072,-0.0000010119209289394249,7.700629988079071,-1.1920928910669204e-8Q7.035739988079071,-1.1920928910669204e-8,6.740429988079071,0.5966339880790711L5.124419988079071,3.871359988079071ZM4.735459988079071,5.685969988079071Q5.8710899880790715,5.520759988079071,6.379599988079071,4.491459988079071L6.379729988079071,4.491179988079072L7.700689988079071,1.814359988079071L9.02226998807907,4.4912799880790715Q9.530309988079072,5.519399988079071,10.66468998807907,5.685909988079071L13.622099988079071,6.118709988079071L11.484699988079072,8.200079988079072Q10.661939988079071,9.001839988079071,10.855399988079071,10.133959988079072L11.36029998807907,13.07669998807907L8.716519988079071,11.686699988079072Q7.700279988079071,11.15309998807907,6.684369988079071,11.68649998807907L4.0415799880790715,13.076299988079072L4.545819988079071,10.135049988079071Q4.740149988079071,9.002109988079072,3.916589988079071,8.20009998807907L1.778089988079071,6.118259988079071L4.735459988079071,5.685969988079071Z" fill-rule="evenodd" fill="#12FFBB" fill-opacity="1"/></g></svg>