<svg xmlns="http://www.w3.org/2000/svg" xmlns:xlink="http://www.w3.org/1999/xlink" fill="none" version="1.1" width="1919.818359375" height="500" viewBox="0.181640625 0.204833984375 1919.818359375 500"><defs><clipPath id="master_svg0_106_15363"><rect x="0" y="0" width="1920" height="8231.5361328125" rx="0"/></clipPath><filter id="master_svg1_106_15775" filterUnits="objectBoundingBox" color-interpolation-filters="sRGB" x="-0.215440950840483" y="-0.5558279368991382" width="1.430881901680966" height="2.1116558737982767"><feFlood flood-opacity="0" result="BackgroundImageFix"/><feBlend mode="normal" in="SourceGraphic" in2="BackgroundImageFix" result="shape"/><feGaussianBlur stdDeviation="30.5" result="effect1_foregroundBlur"/></filter><linearGradient x1="0.5" y1="0" x2="0.5" y2="0.9452483057975769" id="master_svg2_86_23929"><stop offset="0%" stop-color="#005DFF" stop-opacity="0"/><stop offset="100%" stop-color="#005DFF" stop-opacity="1"/></linearGradient><filter id="master_svg3_106_15764" filterUnits="objectBoundingBox" color-interpolation-filters="sRGB" x="-0.8026450682838135" y="-2.8484559418131576" width="2.605290136567627" height="6.696911883626315"><feFlood flood-opacity="0" result="BackgroundImageFix"/><feBlend mode="normal" in="SourceGraphic" in2="BackgroundImageFix" result="shape"/><feGaussianBlur stdDeviation="66.5" result="effect1_foregroundBlur"/></filter><filter id="master_svg4_106_15765" filterUnits="objectBoundingBox" color-interpolation-filters="sRGB" x="-0.06277081984422232" y="-0.060530799024834936" width="1.1255416396884446" height="1.1210615980496699"><feFlood flood-opacity="0" result="BackgroundImageFix"/><feBlend mode="normal" in="SourceGraphic" in2="BackgroundImageFix" result="shape"/><feGaussianBlur stdDeviation="10" result="effect1_foregroundBlur"/></filter><linearGradient x1="0.6503454446792603" y1="0.01603294163942337" x2="0.6557493301979371" y2="0.31165971649652807" id="master_svg5_86_35425"><stop offset="0%" stop-color="#FFFFFF" stop-opacity="1"/><stop offset="100%" stop-color="#FFFFFF" stop-opacity="0"/></linearGradient><filter id="master_svg6_106_15787" filterUnits="objectBoundingBox" color-interpolation-filters="sRGB" x="-0.10935952938157116" y="-0.07231823554804986" width="1.2187190587631422" height="1.1446364710960997"><feFlood flood-opacity="0" result="BackgroundImageFix"/><feBlend mode="normal" in="SourceGraphic" in2="BackgroundImageFix" result="shape"/><feGaussianBlur stdDeviation="10" result="effect1_foregroundBlur"/></filter><linearGradient x1="0.5134281516075134" y1="0.011411147192120552" x2="0.5075557392381663" y2="1.0480791378890533" id="master_svg7_86_33535"><stop offset="0%" stop-color="#FFFFFF" stop-opacity="1"/><stop offset="100%" stop-color="#FFFFFF" stop-opacity="0"/></linearGradient><filter id="master_svg8_106_15784" filterUnits="objectBoundingBox" color-interpolation-filters="sRGB" x="-0.014143271582840476" y="-0.014143271582840476" width="1.028286543165681" height="1.028286543165681"><feFlood flood-opacity="0" result="BackgroundImageFix"/><feBlend mode="normal" in="SourceGraphic" in2="BackgroundImageFix" result="shape"/><feGaussianBlur stdDeviation="2.5" result="effect1_foregroundBlur"/></filter><linearGradient x1="0.8454115390777588" y1="0.08596844226121902" x2="0.8454115390777588" y2="0.2551500201225281" id="master_svg9_86_36051"><stop offset="0%" stop-color="#0066FF" stop-opacity="1"/><stop offset="100%" stop-color="#005EFF" stop-opacity="0"/></linearGradient><linearGradient x1="0.5" y1="0" x2="0.5" y2="0.907957136631012" id="master_svga_86_35919"><stop offset="0%" stop-color="#000000" stop-opacity="0"/><stop offset="100%" stop-color="#000000" stop-opacity="1"/></linearGradient><linearGradient x1="0.5" y1="0" x2="0.5" y2="0.22593499720096588" id="master_svgb_86_31224"><stop offset="0%" stop-color="#FFFFFF" stop-opacity="1"/><stop offset="100%" stop-color="#005EFF" stop-opacity="0"/></linearGradient><filter id="master_svgc_106_15769" filterUnits="objectBoundingBox" color-interpolation-filters="sRGB" x="-0.012689752815480817" y="-0.09010207821255933" width="1.0253795056309616" height="1.1802041564251187"><feFlood flood-opacity="0" result="BackgroundImageFix"/><feBlend mode="normal" in="SourceGraphic" in2="BackgroundImageFix" result="shape"/><feGaussianBlur stdDeviation="1" result="effect1_foregroundBlur"/></filter><linearGradient x1="0.5" y1="0.06945636123418808" x2="0.5" y2="1.0480363368988037" id="master_svgd_86_31434"><stop offset="0%" stop-color="#FFFFFF" stop-opacity="1"/><stop offset="100%" stop-color="#FFFFFF" stop-opacity="0"/></linearGradient><filter id="master_svge_113_32432" filterUnits="objectBoundingBox" color-interpolation-filters="sRGB" x="-0.26082337672268824" y="-0.7025845330422438" width="1.5216467534453766" height="2.4051690660844876"><feFlood flood-opacity="0" result="BackgroundImageFix"/><feBlend mode="normal" in="SourceGraphic" in2="BackgroundImageFix" result="shape"/><feGaussianBlur stdDeviation="56" result="effect1_foregroundBlur"/></filter><linearGradient x1="0" y1="0.4687500596046448" x2="1.0000742610585351" y2="0.47219564518781" id="master_svgf_113_32661"><stop offset="0%" stop-color="#0066FF" stop-opacity="1"/><stop offset="100%" stop-color="#0066FF" stop-opacity="0"/></linearGradient></defs><g clip-path="url(#master_svg0_106_15363)"><rect x="0" y="0" width="1920" height="8231.5361328125" rx="0" fill="#000000" fill-opacity="1"/><g><g><g style="opacity:0.5;" filter="url(#master_svg1_106_15775)"><path d="M673.4197387695312,317.77032031249996Q674.6151687695312,315.7073203125,675.8565687695312,313.6603203125Q677.0979687695312,311.6143203125,678.3849287695313,309.5853203125Q679.6718887695313,307.5573203125,681.0040087695312,305.5483203125Q682.3361287695312,303.5383203125,683.7129387695312,301.5483203125Q685.0898387695313,299.5583203125,686.5109387695312,297.5883203125Q687.9321387695312,295.6173203125,689.3970387695313,293.6683203125Q690.8620387695313,291.7183203125,692.3703387695313,289.7903203125Q693.8787387695312,287.8623203125,695.4299387695313,285.9563203125Q696.9811387695313,284.04932031249996,698.5747387695312,282.16632031250003Q700.1683387695313,280.2823203125,701.8038387695312,278.42132031250003Q703.4392387695312,276.5613203125,705.1161387695313,274.7243203125Q706.7929387695312,272.88732031250004,708.5105387695312,271.0743203125Q710.2281387695313,269.2613203125,711.9860387695312,267.4733203125Q713.7439387695313,265.6863203125,715.5415387695313,263.9233203125Q717.3391387695312,262.16132031250004,719.1759387695313,260.4253203125Q721.0126387695312,258.68832031249997,722.8878387695313,256.9793203125Q724.7631387695312,255.2693203125,726.6763387695313,253.5863203125Q728.5895387695313,251.9043203125,730.5400387695313,250.2493203125Q732.4905387695312,248.5943203125,734.4778387695312,246.9673203125Q736.4650387695312,245.3403203125,738.4883387695313,243.7423203125Q740.5116387695313,242.1443203125,742.5703387695312,240.5753203125Q744.6290387695312,239.0063203125,746.7224387695312,237.4673203125Q748.8159387695313,235.9283203125,750.9434387695312,234.4193203125Q753.0709387695313,232.9103203125,755.2319387695312,231.4323203125Q757.3928387695313,229.9543203125,759.5865387695312,228.5073203125Q761.7802387695313,227.0603203125,764.0058387695312,225.64432031249999Q766.2315387695312,224.2293203125,768.4885387695313,222.84632031249998Q770.7454387695312,221.4623203125,773.0330387695312,220.1123203125Q775.3207387695312,218.7613203125,777.6377387695312,217.44332031250002Q779.9557387695313,216.12532031249998,782.3017387695313,214.8413203125Q784.6487387695313,213.55632031250002,787.0227387695312,212.30632031250002Q789.3977387695312,211.0553203125,791.8007387695312,209.8393203125Q852.8187387695313,175.8768203125,931.9227387695312,171.5532203125Q946.7937387695313,170.4322203125,961.7307387695312,170.4322203125Q967.0187387695312,170.4322203125,972.3037387695313,170.5730203125Q977.5887387695312,170.7138203125,982.8657387695313,170.9952203125Q988.1417387695312,171.2766203125,993.4037387695312,171.69832031250002Q998.6647387695313,172.1200203125,1003.9067387695313,172.6815203125Q1009.1477387695313,173.2430203125,1014.3627387695312,173.9438203125Q1019.5777387695313,174.6445203125,1024.7607387695311,175.4838203125Q1029.9437387695311,176.3230203125,1035.0887387695311,177.2997203125Q1040.2337387695313,178.2764203125,1045.3357387695312,179.3895203125Q1050.4377387695313,180.5027203125,1055.4897387695312,181.7510203125Q1060.5427387695313,182.9994203125,1065.5407387695313,184.38152031250002Q1070.5387387695314,185.7637203125,1075.4757387695313,187.2781203125Q1080.4137387695314,188.7926203125,1085.2857387695312,190.4376203125Q1090.1577387695313,192.0827203125,1094.9587387695312,193.85652031249998Q1099.7587387695312,195.6304203125,1104.4837387695313,197.5310203125Q1109.2077387695313,199.43132031250002,1113.8507387695313,201.4573203125Q1118.4937387695313,203.4823203125,1123.0497387695314,205.6303203125Q1127.6057387695312,207.7783203125,1132.0697387695313,210.0463203125Q1136.5337387695313,212.3143203125,1140.9007387695312,214.6993203125Q1145.2677387695312,217.08532031250002,1149.5337387695313,219.58532031250002Q1153.7997387695314,222.0863203125,1157.9587387695312,224.69832031250002Q1162.1177387695311,227.3113203125,1166.1667387695313,230.0333203125Q1170.2147387695313,232.7553203125,1174.1477387695313,235.5833203125Q1178.0807387695313,238.4113203125,1181.8937387695312,241.3433203125Q1185.7067387695313,244.2743203125,1189.3957387695314,247.3053203125Q1193.0847387695312,250.3363203125,1196.6457387695314,253.4643203125Q1200.2067387695313,256.59232031249996,1203.6357387695311,259.81332031249997Q1207.0647387695312,263.0343203125,1210.3577387695314,266.34432031250003Q1213.6507387695312,269.6543203125,1216.8047387695312,273.0503203125Q1219.9587387695312,276.4463203125,1222.9687387695312,279.9253203125Q1225.9797387695312,283.4033203125,1228.8437387695312,286.95932031250004Q1231.7077387695313,290.5163203125,1234.4227387695314,294.1463203125Q1237.137738769531,297.7773203125,1239.6997387695312,301.4783203125L1239.6997387695312,98.2783203125L673.4197387695312,98.2783203125L673.4197387695312,317.77032031249996Z" fill-rule="evenodd" fill="url(#master_svg2_86_23929)" fill-opacity="1"/></g><g filter="url(#master_svg3_106_15764)"><ellipse cx="956.5600433349609" cy="154.69092559814453" rx="165.70213317871094" ry="46.69196319580078" fill="#1975FF" fill-opacity="0.699999988079071"/></g><g filter="url(#master_svg4_106_15765)"><path d="M1210.6973771972657,699.6868889160156Q1207.7773771972657,702.8108889160156,1204.7723771972655,705.8598889160156Q1201.7673771972657,708.9088889160156,1198.6783771972655,711.8818889160157Q1195.5903771972658,714.8548889160156,1192.4203771972657,717.7488889160156Q1189.2503771972656,720.6438889160156,1186.0013771972656,723.4568889160156Q1182.7523771972656,726.2708889160157,1179.4273771972657,729.0018889160157Q1176.1013771972657,731.7338889160156,1172.7013771972656,734.3808889160156Q1169.3013771972655,737.0268889160157,1165.8283771972656,739.5878889160156Q1162.3563771972656,742.1488889160156,1158.8143771972655,744.6208889160156Q1155.2723771972655,747.0938889160157,1151.6633771972656,749.4768889160156Q1148.0543771972657,751.8588889160156,1144.3803771972657,754.1508889160157Q1140.7063771972657,756.4418889160156,1136.9703771972656,758.6408889160156Q1133.2343771972655,760.8388889160157,1129.4383771972657,762.9428889160156Q1125.6423771972657,765.0468889160156,1121.7903771972656,767.0548889160157Q1117.9373771972655,769.0628889160156,1114.0303771972656,770.9728889160157Q1110.1233771972657,772.8838889160156,1106.1653771972656,774.6958889160156Q1102.2063771972657,776.5078889160156,1098.1993771972657,778.2198889160156Q1094.1923771972656,779.9318889160156,1090.1383771972655,781.5418889160156Q1086.0853771972656,783.1528889160156,1081.9893771972656,784.6618889160156Q1077.8923771972657,786.1698889160157,1073.7553771972657,787.5748889160157Q1069.6183771972655,788.9798889160156,1065.4443771972656,790.2808889160157Q1061.2703771972656,791.5818889160156,1057.0613771972658,792.7778889160156Q1052.8523771972657,793.9728889160157,1048.6113771972655,795.0628889160156Q1044.3713771972657,796.1528889160156,1040.1023771972657,797.1348889160156Q1035.8323771972655,798.1178889160157,1031.5373771972656,798.9938889160156Q1027.2423771972656,799.8688889160156,1022.9253771972656,800.6358889160156Q1018.6073771972656,801.4028889160156,1014.2703771972656,802.0618889160156Q1009.9323771972656,802.7208889160156,1005.5783771972656,803.2698889160156Q1001.2243771972657,803.8198889160157,996.8563771972656,804.2598889160156Q992.4883771972657,804.6998889160157,988.1093771972656,805.0298889160156Q983.7313771972656,805.3608889160156,979.3443771972657,805.5808889160156Q974.9583771972657,805.8018889160156,970.5673771972656,805.9118889160156Q966.1773771972656,806.0218889160157,961.7843771972656,806.0218889160157Q956.6713771972657,806.0218889160157,951.5613771972656,805.8728889160157Q946.4503771972657,805.7228889160157,941.3473771972656,805.4248889160157Q936.2433771972655,805.1258889160156,931.1523771972657,804.6788889160156Q926.0603771972656,804.2308889160156,920.9863771972656,803.6348889160156Q915.9113771972657,803.0388889160156,910.8583771972656,802.2948889160157Q905.8053771972657,801.5508889160157,900.7793771972656,800.6598889160156Q895.7523771972656,799.7688889160156,890.7573771972657,798.7308889160156Q885.7613771972656,797.6938889160157,880.8013771972657,796.5108889160156Q875.8423771972656,795.3278889160156,870.9233771972656,793.9998889160156Q866.0033771972656,792.6728889160156,861.1293771972656,791.2028889160156Q856.2553771972656,789.7318889160156,851.4313771972656,788.1198889160156Q846.6063771972656,786.5078889160156,841.8363771972656,784.7558889160156Q837.0663771972656,783.0028889160156,832.3543771972656,781.1128889160157Q827.6433771972656,779.2218889160156,822.9953771972656,777.1938889160157Q818.3463771972656,775.1668889160156,813.7663771972657,773.0048889160156Q809.1853771972657,770.8418889160156,804.6763771972657,768.5468889160156Q800.1673771972656,766.2518889160157,795.7343771972656,763.8258889160156Q791.3013771972657,761.4008889160157,786.9493771972657,758.8468889160156Q782.5973771972656,756.2918889160156,778.3283771972656,753.6118889160156Q774.0603771972657,750.9318889160156,769.8813771972657,748.1288889160156Q765.7013771972656,745.3258889160156,761.6133771972657,742.4008889160157Q757.5263771972657,739.4768889160156,753.5353771972657,736.4348889160157Q749.5443771972656,733.3928889160156,745.6533771972656,730.2348889160156Q741.7613771972656,727.0778889160156,737.9743771972657,723.8088889160156Q734.1864771972656,720.5388889160156,730.5059771972656,717.1598889160156Q726.8255771972656,713.7818889160156,723.2557771972656,710.2968889160156Q719.6859771972656,706.8128889160156,716.2301771972657,703.2258889160156Q712.7743771972656,699.6378889160156,709.4358771972657,695.9518889160156Q706.0973771972656,692.2658889160156,702.8792771972657,688.4828889160157Q699.6611771972656,684.7008889160156,696.5664771972656,680.8268889160156Q693.4717771972656,676.9518889160156,690.5034771972656,672.9888889160156Q687.5351771972656,669.0258889160157,684.6959771972656,664.9788889160156Q687.5014771972657,669.2478889160157,690.4375771972657,673.4278889160156Q693.3736771972656,677.6078889160157,696.4375771972657,681.6948889160157Q699.5014771972657,685.7818889160156,702.6903771972657,689.7728889160156Q705.8791771972656,693.7638889160156,709.1897771972656,697.6538889160156Q712.5004771972656,701.5438889160156,715.9297771972656,705.3298889160156Q719.3591771972656,709.1158889160156,722.9038771972656,712.7948889160157Q726.4485771972656,716.4728889160157,730.1053771972656,720.0398889160156Q733.7620771972656,723.6068889160156,737.5273771972657,727.0588889160156Q741.2923771972656,730.5108889160156,745.1623771972656,733.8448889160156Q749.0333771972656,737.1788889160156,753.0043771972656,740.3918889160157Q756.9753771972656,743.6048889160156,761.0443771972656,746.6928889160156Q765.1133771972657,749.7818889160156,769.2753771972656,752.7428889160157Q773.4383771972656,755.7038889160157,777.6903771972657,758.5348889160156Q781.9423771972656,761.3658889160156,786.2793771972656,764.0648889160157Q790.6163771972656,766.7628889160156,795.0353771972657,769.3258889160156Q799.4543771972656,771.8888889160156,803.9503771972657,774.3138889160156Q808.4453771972657,776.7398889160156,813.0143771972656,779.0248889160156Q817.5833771972657,781.3098889160157,822.2203771972656,783.4518889160156Q826.8573771972656,785.5948889160156,831.5583771972656,787.5938889160157Q836.2593771972656,789.5918889160156,841.0203771972656,791.4438889160157Q845.7813771972656,793.2958889160157,850.5963771972656,794.9998889160156Q855.4123771972656,796.7038889160157,860.2783771972656,798.2588889160156Q865.1443771972656,799.8128889160156,870.0563771972656,801.2158889160156Q874.9683771972657,802.6188889160156,879.9203771972657,803.8698889160156Q884.8733771972657,805.1208889160156,889.8623771972657,806.2168889160156Q894.8513771972656,807.3138889160156,899.8723771972657,808.2568889160157Q904.8933771972656,809.1988889160157,909.9403771972657,809.9848889160156Q914.9873771972657,810.7718889160157,920.0573771972656,811.4018889160157Q925.1263771972656,812.0318889160156,930.2123771972656,812.5048889160156Q935.2983771972656,812.9778889160157,940.3973771972655,813.2938889160156Q945.4953771972656,813.6098889160156,950.6013771972656,813.7678889160156Q955.7073771972656,813.9258889160157,960.8153771972657,813.9258889160157Q965.2433771972655,813.9258889160157,969.6693771972657,813.8068889160156Q974.0953771972656,813.6878889160156,978.5173771972657,813.4508889160156Q982.9383771972657,813.2138889160157,987.3523771972657,812.8578889160157Q991.7653771972657,812.5028889160156,996.1673771972656,812.0288889160156Q1000.5703771972655,811.5548889160157,1004.9583771972657,810.9638889160157Q1009.3463771972656,810.3718889160157,1013.7173771972657,809.6628889160156Q1018.0873771972656,808.9538889160157,1022.4373771972656,808.1278889160156Q1026.7873771972656,807.3028889160156,1031.1143771972656,806.3598889160156Q1035.4403771972657,805.4178889160156,1039.7403771972656,804.3608889160156Q1044.0393771972656,803.3028889160156,1048.3093771972656,802.1308889160156Q1052.5793771972656,800.9578889160156,1056.8163771972656,799.6718889160156Q1061.0523771972657,798.3848889160156,1065.2533771972658,796.9858889160156Q1069.4543771972656,795.5858889160156,1073.6163771972656,794.0738889160157Q1077.7773771972657,792.5628889160156,1081.8973771972655,790.9398889160157Q1086.0173771972657,789.3178889160156,1090.0923771972657,787.5848889160156Q1094.1673771972655,785.8528889160157,1098.1943771972656,784.0118889160157Q1102.2203771972656,782.1708889160157,1106.1973771972657,780.2228889160157Q1110.1733771972656,778.2738889160156,1114.0953771972656,776.2198889160156Q1118.0183771972656,774.1658889160157,1121.8843771972656,772.0078889160156Q1125.7503771972656,769.8488889160157,1129.5573771972656,767.5878889160156Q1133.3633771972657,765.3268889160156,1137.1083771972656,762.9638889160157Q1140.8533771972657,760.6018889160156,1144.5333771972655,758.1398889160156Q1148.2133771972656,755.6778889160156,1151.8263771972656,753.1178889160157Q1155.4393771972655,750.5578889160156,1158.9823771972656,747.9028889160156Q1162.5253771972657,745.2468889160157,1165.9963771972657,742.4978889160157Q1169.4673771972657,739.7478889160157,1172.8623771972657,736.9058889160157Q1176.2583771972656,734.0648889160157,1179.5763771972656,731.1328889160156Q1182.8943771972656,728.2018889160156,1186.1333771972656,725.1818889160156Q1189.3713771972657,722.1628889160156,1192.5283771972656,719.0578889160156Q1195.6843771972656,715.9518889160156,1198.7563771972655,712.7638889160156Q1201.8293771972658,709.5748889160157,1204.8143771972655,706.3048889160157Q1207.8003771972658,703.0358889160157,1210.6973771972657,699.6868889160156ZM1273.8443771972657,377.7598889160156Q1271.6313771972655,372.1298889160156,1269.1963771972655,366.58288891601563Q1266.7623771972658,361.03688891601564,1264.1083771972658,355.58288891601563Q1261.4543771972658,350.12788891601565,1258.5853771972656,344.77288891601563Q1255.7163771972655,339.4178889160156,1252.6363771972656,334.17088891601566Q1249.5563771972656,328.9228889160156,1246.2693771972656,323.79088891601566Q1242.9823771972656,318.6578889160156,1239.4933771972655,313.64788891601563Q1236.0043771972655,308.63688891601566,1232.3183771972656,303.7568889160156Q1228.6333771972656,298.8758889160156,1224.7553771972657,294.13088891601564Q1220.8783771972658,289.38688891601566,1216.8143771972655,284.78488891601563Q1212.7513771972656,280.18388891601563,1208.5073771972657,275.7328889160156Q1204.2633771972655,271.2808889160156,1199.8463771972656,266.9858889160156Q1195.4283771972655,262.69088891601564,1190.8423771972657,258.55888891601563Q1186.2563771972655,254.42588891601562,1181.5093771972656,250.46178891601562Q1176.7623771972658,246.49748891601564,1171.8613771972655,242.7072889160156Q1166.9603771972656,238.91718891601562,1161.9113771972657,235.3064889160156Q1156.8633771972657,231.69588891601563,1151.6743771972656,228.26988891601565Q1146.4853771972657,224.84388891601563,1141.1643771972656,221.60758891601563Q1135.8423771972657,218.37118891601563,1130.3963771972656,215.32918891601562Q1124.9503771972657,212.28708891601562,1119.3863771972656,209.44368891601562Q1113.8223771972657,206.60028891601561,1108.1503771972657,203.95958891601563Q1102.4773771972657,201.31888891601562,1096.7033771972656,198.88468891601562Q1090.9293771972657,196.45048891601562,1085.0633771972657,194.22628891601562Q1079.1963771972655,192.00218891601563,1073.2453771972655,189.99118891601563Q1067.2943771972657,187.98018891601563,1061.2673771972657,186.18538891601563Q1055.2413771972656,184.3904889160156,1049.1473771972655,182.8142889160156Q1043.0533771972655,181.23818891601562,1036.9013771972657,179.88288891601562Q1030.7493771972656,178.52768891601562,1024.5473771972656,177.39528891601563Q1018.3453771972656,176.26298891601562,1012.1033771972657,175.35508891601563Q1005.8613771972656,174.44728891601562,999.5873771972656,173.76518891601563Q993.3133771972657,173.08318891601562,987.0163771972657,172.62798891601562Q980.7203771972656,172.17278891601563,974.4093771972656,171.94498891601563Q968.0993771972657,171.71718891601563,961.7843771972656,171.71718891601563Q954.7493771972656,171.71718891601563,947.7193771972657,171.99988891601564Q940.6903771972657,172.28268891601562,933.6793771972657,172.84758891601564Q926.6693771972657,173.41258891601564,919.6903771972657,174.25868891601561Q912.7103771972656,175.10488891601562,905.7753771972657,176.23078891601563Q898.8393771972655,177.35658891601562,891.9603771972656,178.76018891601564Q885.0813771972656,180.16378891601562,878.2703771972656,181.8424889160156Q871.4593771972657,183.52128891601564,864.7283771972657,185.47228891601563Q857.9983771972657,187.42318891601562,851.3603771972656,189.64288891601564Q844.7223771972656,191.86258891601562,838.1883771972656,194.34708891601562Q831.6543771972656,196.83158891601562,825.2373771972657,199.57638891601562Q818.8193771972656,202.32118891601561,812.5293771972656,205.32138891601562Q806.2393771972656,208.32158891601563,800.0873771972656,211.57198891601564Q793.9363771972656,214.82228891601562,787.9343771972656,218.31698891601565Q781.9323771972656,221.81158891601564,776.0913771972656,225.54428891601563Q770.2493771972656,229.27698891601563,764.5783771972656,233.24108891601563Q758.9083771972656,237.2052889160156,753.4183771972656,241.3936889160156Q747.9283771972656,245.58218891601564,742.6283771972656,249.98758891601562Q737.3293771972657,254.39288891601564,732.2302771972657,259.0068889160156Q727.1310771972657,263.6218889160156,722.2410771972657,268.4368889160156Q717.3509771972656,273.2518889160156,712.6788771972656,278.2588889160156Q708.0067771972656,283.26688891601566,703.5608771972657,288.45788891601563Q699.1149771972656,293.64788891601563,694.9032771972657,299.01288891601564Q690.6914771972656,304.37788891601565,686.7214771972656,309.90688891601565Q682.7513771972656,315.43588891601564,679.0300771972657,321.1198889160156Q675.3087771972656,326.80388891601564,671.8427771972656,332.6318889160156Q668.3768771972656,338.45988891601564,665.1724771972656,344.42188891601563Q661.9680771972656,350.3848889160156,659.0309771972657,356.46988891601563Q656.0938771972657,362.55588891601565,653.4292771972656,368.7548889160156Q650.7646771972657,374.95288891601564,648.3773771972657,381.25288891601565Q645.9899871972656,387.5528889160156,643.8841671972656,393.9428889160156Q641.7783371972656,400.33288891601563,639.9577871972656,406.8028889160156Q638.1372271972656,413.2718889160156,636.6051890412656,419.8078889160156Q637.9758671972656,412.83288891601563,639.6452971972657,405.9228889160156Q641.3147271972656,399.01288891601564,643.2798171972656,392.18088891601565Q645.2449071972657,385.34888891601565,647.5020771972656,378.6078889160156Q649.7591771972657,371.8668889160156,652.3040771972657,365.22888891601565Q654.8490771972656,358.5908889160156,657.6771771972657,352.0688889160156Q660.5052771972656,345.54688891601563,663.6112771972656,339.1528889160156Q666.7172771972656,332.75788891601565,670.0954771972656,326.50288891601565Q673.4736771972656,320.24788891601565,677.1177771972656,314.1438889160156Q680.7617771972656,308.04088891601566,684.6650771972656,302.09888891601565Q688.5682771972656,296.1578889160156,692.7234771972657,290.3898889160156Q696.8785771972656,284.6208889160156,701.2779771972656,279.03688891601564Q705.6774771972656,273.45288891601564,710.3129771972656,268.0638889160156Q714.9484771972657,262.67388891601564,719.8114771972656,257.48888891601564Q724.6745771972656,252.30338891601562,729.7560771972657,247.3320889160156Q734.8376771972656,242.36078891601562,740.1283771972656,237.61258891601562Q745.4193771972656,232.86438891601563,750.9093771972656,228.34818891601563Q756.3993771972656,223.83198891601563,762.0783771972656,219.55608891601563Q767.7573771972657,215.28018891601562,773.6153771972656,211.25248891601564Q779.4733771972656,207.22478891601563,785.4983771972657,203.45278891601563Q791.5243771972656,199.68078891601562,797.7063771972656,196.17148891601562Q803.8893771972656,192.66208891601562,810.2163771972656,189.42188891601563Q816.5443771972656,186.18168891601562,823.0053771972656,183.2166889160156Q829.4663771972656,180.25158891601563,836.0483771972656,177.56718891601562Q842.6313771972657,174.8827889160156,849.3233771972656,172.48398891601562Q856.0153771972656,170.08518891601562,862.8043771972657,167.97648891601563Q869.5933771972657,165.86768891601562,876.4663771972656,164.05288891601563Q883.3393771972657,162.23810891601562,890.2843771972656,160.72060891601564Q897.2293771972656,159.20310891601562,904.2333771972656,157.98571891601563Q911.2373771972657,156.76833891601564,918.2873771972656,155.8533289160156Q925.3373771972656,154.93830891601561,932.4193771972657,154.3273589160156Q939.5023771972656,153.71640691601561,946.6043771972656,153.41064791601562Q953.7063771972656,153.10488891601562,960.8153771972657,153.10488891601562Q967.2443771972656,153.10488891601562,973.6673771972656,153.35492391601562Q980.0903771972656,153.60495791601562,986.4993771972656,154.10464891601563Q992.9083771972656,154.60433891601562,999.2923771972656,155.35292891601563Q1005.6773771972656,156.10151891601564,1012.0283771972656,157.09787891601562Q1018.3783771972656,158.09423891601563,1024.6853771972656,159.3368489160156Q1030.9923771972656,160.57946891601563,1037.2463771972657,162.06646891601562Q1043.5003771972656,163.55348891601562,1049.6913771972656,165.2825889160156Q1055.8833771972656,167.01168891601563,1062.0023771972656,168.9803889160156Q1068.1223771972657,170.94898891601562,1074.1603771972657,173.1540889160156Q1080.1983771972657,175.35928891601563,1086.1463771972656,177.79768891601563Q1092.0943771972657,180.23598891601563,1097.9423771972656,182.90388891601563Q1103.7913771972655,185.57178891601563,1109.5313771972656,188.46508891601562Q1115.2713771972656,191.35838891601563,1120.8953771972656,194.47278891601562Q1126.5183771972656,197.58718891601563,1132.0163771972657,200.91798891601562Q1137.5143771972657,204.24878891601563,1142.8793771972655,207.79088891601563Q1148.2433771972655,211.3329889160156,1153.4653771972658,215.08108891601563Q1158.6883771972657,218.82918891601562,1163.7613771972656,222.77758891601565Q1168.8333771972657,226.72598891601564,1173.7493771972656,230.86868891601563Q1178.6643771972656,235.01138891601562,1183.4153771972656,239.34218891601563Q1188.1653771972656,243.67298891601564,1192.7443771972657,248.18518891601562Q1197.3223771972657,252.69748891601563,1201.7223771972656,257.3848889160156Q1206.1213771972657,262.07088891601563,1210.3353771972656,266.92588891601565Q1214.5493771972656,271.77988891601564,1218.5703771972658,276.7948889160156Q1222.5923771972657,281.80988891601567,1226.4163771972658,286.97688891601564Q1230.2403771972656,292.1448889160156,1233.8603771972657,297.4568889160156Q1237.4793771972656,302.7688889160156,1240.8903771972655,308.2178889160156Q1244.3003771972658,313.66688891601564,1247.4963771972657,319.24388891601564Q1250.6923771972656,324.8218889160156,1253.6693771972655,330.5198889160156Q1256.6463771972658,336.2168889160156,1259.3983771972657,342.0258889160156Q1262.1513771972657,347.83488891601564,1264.6763771972655,353.7468889160156Q1267.2003771972657,359.6588889160156,1269.4933771972655,365.6638889160156Q1271.7863771972657,371.6698889160156,1273.8443771972657,377.7598889160156Z" fill-rule="evenodd" fill="url(#master_svg5_86_35425)" fill-opacity="1"/></g><g transform="matrix(0.9716836810112,-0.23628543317317963,0.23628543317317963,0.9716836810112,-27.392041169347294,175.21073178065762)" filter="url(#master_svg6_106_15787)"><path d="M932.403904296875,750.385830444336Q919.516904296875,752.4028304443359,906.469904296875,753.5408304443359Q893.421904296875,754.678830444336,880.303904296875,754.9308304443359Q883.196904296875,755.0028304443359,886.089904296875,755.0028304443359Q897.740904296875,755.0028304443359,909.343904296875,753.8458304443359Q920.946904296875,752.6898304443359,932.403904296875,750.385830444336ZM1083.092904296875,303.33383044433594Q1080.4079042968751,301.38413044433594,1077.668904296875,299.4847304443359Q1074.929904296875,297.5853304443359,1072.138904296875,295.7372304443359Q1069.347904296875,293.88913044433593,1066.505904296875,292.093230444336Q1063.663904296875,290.29733044433596,1060.772904296875,288.55463044433594Q1057.881904296875,286.81183044433595,1054.943904296875,285.12323044433595Q1052.0049042968749,283.4345304443359,1049.020904296875,281.80083044433593Q1046.035904296875,280.16713044433595,1043.005904296875,278.5891304443359Q1039.976904296875,277.0112304443359,1036.903904296875,275.48983044433595Q1033.831904296875,273.96853044433595,1030.717904296875,272.50453044433596Q1027.603904296875,271.04053044433596,1024.449904296875,269.6346304443359Q1021.295904296875,268.2288304443359,1018.103904296875,266.88183044433595Q1014.911904296875,265.53483044433597,1011.682904296875,264.24733044433594Q1008.453904296875,262.95993044433595,1005.190904296875,261.73263044433594Q1001.926904296875,260.50543044433596,998.629904296875,259.33903044433595Q995.332904296875,258.17263044433594,992.003904296875,257.0676304443359Q988.6759042968749,255.96273044433593,985.316904296875,254.91973044433593Q981.9589042968751,253.87683044433595,978.571904296875,252.89643044433595Q975.1859042968749,251.91603044433595,971.772904296875,250.99873044433593Q968.359904296875,250.08143044433592,964.922904296875,249.22763044433594Q961.484904296875,248.37383044433594,958.024904296875,247.58403044433595Q954.563904296875,246.79413044433593,951.082904296875,246.06873044433593Q947.600904296875,245.34333044433595,944.100904296875,244.68263044433593Q940.599904296875,244.02193044433594,937.081904296875,243.42633044433595Q933.562904296875,242.83073044433593,930.029904296875,242.30053044433595Q926.495904296875,241.77033044433594,922.947904296875,241.30583044433592Q919.4009042968751,240.84133044433594,915.840904296875,240.44273044433595Q912.280904296875,240.04413044433593,908.710904296875,239.71163044433592Q905.141904296875,239.37913044433594,901.562904296875,239.11293044433594Q897.984904296875,238.84673044433595,894.4009042968751,238.64693044433594Q890.815904296875,238.44723044433593,887.226904296875,238.31393044433594Q883.637904296875,238.18073044433595,880.045904296875,238.11413044433593Q876.453904296875,238.04743044433593,872.860904296875,238.04743044433593Q867.778904296875,238.04743044433593,862.699904296875,238.18073044433595Q857.620904296875,238.31403044433594,852.549904296875,238.58043044433595Q847.478904296875,238.84683044433592,842.420904296875,239.24603044433593Q837.3629042968751,239.64533044433594,832.323904296875,240.17703044433594Q827.283904296875,240.70873044433594,822.267904296875,241.37223044433594Q817.251804296875,242.03583044433594,812.264304296875,242.83063044433595Q807.276804296875,243.62543044433593,802.323204296875,244.55063044433592Q797.369504296875,245.47583044433594,792.454804296875,246.53043044433593Q787.540104296875,247.58513044433593,782.669304296875,248.76813044433595Q777.798604296875,249.95103044433594,772.976904296875,251.26113044433595Q768.155204296875,252.57123044433592,763.387404296875,254.00713044433593Q758.6197042968749,255.44303044433593,753.910804296875,257.00323044433594Q749.202004296875,258.56343044433595,744.556904296875,260.24633044433597Q739.911804296875,261.92913044433595,735.335304296875,263.73303044433595Q730.758804296875,265.5368304443359,726.255484296875,267.45973044433595Q721.752214296875,269.3826304443359,717.326849926675,271.4227304443359Q719.484974296875,269.3457304443359,721.685854296875,267.32243044433596Q723.886724296875,265.29913044433596,726.129204296875,263.3305304443359Q728.371704296875,261.36193044433594,730.654604296875,259.44903044433596Q732.937604296875,257.53603044433595,735.259804296875,255.67983044433595Q737.582104296875,253.82363044433595,739.942404296875,252.02493044433595Q742.302704296875,250.22633044433593,744.700004296875,248.48633044433592Q747.097204296875,246.74623044433594,749.530104296875,245.06563044433594Q751.9630042968749,243.38503044433594,754.430304296875,241.76463044433592Q756.897604296875,240.14433044433594,759.398004296875,238.58523044433593Q761.898504296875,237.02603044433593,764.430804296875,235.52873044433593Q766.963104296875,234.03153044433594,769.525904296875,232.59703044433593Q772.088804296875,231.16243044433594,774.680904296875,229.79133044433593Q777.273004296875,228.42023044433594,779.893104296875,227.11333044433593Q782.513104296875,225.80633044433594,785.159704296875,224.56423044433595Q787.8063042968749,223.32213044433593,790.478104296875,222.14543044433594Q793.150004296875,220.96873044433593,795.845604296875,219.85813044433593Q798.541304296875,218.74753044433595,801.259404296875,217.70353044433594Q803.9775042968749,216.65953044433593,806.716704296875,215.68273044433593Q809.455904296875,214.70583044433593,812.214804296875,213.79663044433593Q814.973604296875,212.88753044433594,817.750904296875,212.04643044433593Q820.527904296875,211.20543044433595,823.321904296875,210.43295044433594Q826.115904296875,209.66048044433595,828.924904296875,208.95696044433595Q831.733904296875,208.25344044433595,834.557904296875,207.61924044433593Q837.380904296875,206.98504044433594,840.216904296875,206.42048044433594Q843.051904296875,205.85593044433594,845.898904296875,205.36131044433594Q848.745904296875,204.86668044433594,851.601904296875,204.44225044433594Q854.4589042968751,204.01782044433594,857.322904296875,203.66379044433594Q860.187904296875,203.30976044433595,863.058904296875,203.02632044433594Q865.9299042968751,202.74288044433592,868.805904296875,202.53017244433593Q871.681904296875,202.31746444433594,874.561904296875,202.17559844433595Q877.441904296875,202.03373244433593,880.324904296875,201.96278154433594Q883.206904296875,201.89183044433594,886.089904296875,201.89183044433594Q889.609904296875,201.89183044433594,893.128904296875,201.99761744433593Q896.647904296875,202.10340444433595,900.162904296875,202.31489644433594Q903.677904296875,202.52638944433593,907.185904296875,202.84342644433593Q910.6949042968749,203.16046044433594,914.193904296875,203.58280044433593Q917.691904296875,204.00514044433595,921.178904296875,204.53246044433592Q924.6659042968749,205.05977044433592,928.137904296875,205.69167044433593Q931.609904296875,206.32356044433593,935.063904296875,207.05954044433594Q938.518904296875,207.79553044433592,941.953904296875,208.63504044433594Q945.387904296875,209.47455044433593,948.799904296875,210.41695044433592Q952.211904296875,211.35935044433594,955.597904296875,212.40393044433594Q958.984904296875,213.44843044433594,962.343904296875,214.59443044433593Q965.701904296875,215.74033044433594,969.029904296875,216.98673044433593Q972.358904296875,218.23313044433593,975.653904296875,219.57913044433593Q978.9489042968751,220.92513044433593,982.2089042968751,222.36953044433594Q985.4679042968751,223.81403044433594,988.689904296875,225.35583044433594Q991.911904296875,226.89773044433593,995.0929042968751,228.53583044433594Q998.273904296875,230.17393044433595,1001.411904296875,231.90693044433593Q1004.5509042968749,233.64003044433593,1007.643904296875,235.46673044433595Q1010.7369042968751,237.29343044433594,1013.7819042968749,239.21233044433595Q1016.826904296875,241.13133044433593,1019.822904296875,243.14103044433594Q1022.817904296875,245.15073044433592,1025.760904296875,247.24973044433594Q1028.703904296875,249.34863044433592,1031.5919042968749,251.53523044433592Q1034.480904296875,253.72183044433592,1037.3119042968751,255.99443044433593Q1040.143904296875,258.2669304443359,1042.916904296875,260.62373044433593Q1045.689904296875,262.9804304443359,1048.400904296875,265.41963044433595Q1051.112904296875,267.8588304443359,1053.761904296875,270.37863044433595Q1056.409904296875,272.89833044433595,1058.993904296875,275.4967304443359Q1061.576904296875,278.09513044433595,1064.092904296875,280.7701304443359Q1066.609904296875,283.4451304443359,1069.056904296875,286.19473044433596Q1071.5039042968751,288.94433044433595,1073.8799042968749,291.7664304443359Q1076.256904296875,294.58853044433596,1078.559904296875,297.48093044433597Q1080.863904296875,300.3733304443359,1083.092904296875,303.33383044433594Z" fill-rule="evenodd" fill="url(#master_svg7_86_33535)" fill-opacity="1"/></g><g filter="url(#master_svg8_106_15784)"><path d="M960.3765625,865.71162109375Q969.0555625,865.71162109375,977.7235625000001,865.28562109375Q986.3915625,864.85962109375,995.0275624999999,864.00962109375Q1003.6645625,863.15862109375,1012.2495625,861.88562109375Q1020.8335625,860.61162109375,1029.3455625000001,858.91862109375Q1037.8575624999999,857.22562109375,1046.2765625,855.11662109375Q1054.6945625,853.00762109375,1062.9995625000001,850.48862109375Q1071.3045625,847.96962109375,1079.4755625,845.04562109375Q1087.6465625,842.12262109375,1095.6645625,838.80062109375Q1103.6825625000001,835.47962109375,1111.5275625,831.76962109375Q1119.3735625,828.05862109375,1127.0275625,823.96762109375Q1134.6805625,819.87662109375,1142.1245625000001,815.41462109375Q1149.5685625,810.95362109375,1156.7845625,806.13162109375Q1164.0005625,801.31062109375,1170.9715625,796.14062109375Q1177.9415625000001,790.97062109375,1184.6505625,785.46462109375Q1191.3585625,779.95962109375,1197.7895625,774.13162109375Q1204.2195625,768.30262109375,1210.3565625,762.16662109375Q1216.4925625,756.02962109375,1222.3215625,749.59962109375Q1228.1495625,743.16862109375,1233.6545624999999,736.46062109375Q1239.1605625,729.75162109375,1244.3305625,722.78162109375Q1249.5005625,715.81062109375,1254.3215625,708.59462109375Q1259.1435625,701.37862109375,1263.6045625000002,693.93462109375Q1268.0665625000001,686.49062109375,1272.1575625,678.83762109375Q1276.2485625,671.18362109375,1279.9595625,663.3376210937499Q1283.6695625,655.49262109375,1286.9905625000001,647.47462109375Q1290.3125625,639.4566210937501,1293.2355625,631.28562109375Q1296.1595625,623.11462109375,1298.6785625,614.80962109375Q1301.1985625,606.5046210937501,1303.3065625,598.08662109375Q1305.4155624999999,589.66762109375,1307.1085625,581.15562109375Q1308.8015625,572.64362109375,1310.0755625000002,564.05962109375Q1311.3485624999998,555.47462109375,1312.1995625,546.83862109375Q1313.0495624999999,538.20162109375,1313.4755625,529.5336210937501Q1313.9015625,520.86562109375,1313.9015625,512.18662109375Q1313.9015625,503.50762109375,1313.4755625,494.83962109375Q1313.0495624999999,486.17162109375,1312.1995625,477.53562109375Q1311.3485624999998,468.89862109375,1310.0755625000002,460.31362109375Q1308.8015625,451.72862109375,1307.1085625,443.21762109375Q1305.4155624999999,434.70562109375,1303.3065625,426.28662109375Q1301.1975625,417.86862109375,1298.6785625,409.56362109375Q1296.1595625,401.25862109375,1293.2355625,393.08762109375Q1290.3125625,384.91662109375,1286.9905625000001,376.89862109374997Q1283.6695625,368.88062109375,1279.9595625,361.03562109375Q1276.2485625,353.18962109375,1272.1575625,345.53562109375Q1268.0665625000001,337.88262109375,1263.6045625000002,330.43862109375Q1259.1435625,322.99462109374997,1254.3215625,315.77862109374996Q1249.5005625,308.56262109375,1244.3305625,301.59162109375Q1239.1605625,294.62162109375004,1233.6545624999999,287.91262109375Q1228.1495625,281.20362109375003,1222.3215625,274.77362109374997Q1216.4925625,268.34362109375,1210.3565625,262.20662109375Q1204.2195625,256.07002109375003,1197.7895625,250.24182109375Q1191.3585625,244.41372109374998,1184.6505625,238.90812109375Q1177.9415625000001,233.40252109375,1170.9715625,228.23262109375Q1164.0005625,223.06282109375002,1156.7845625,218.24132109375Q1149.5685625,213.41982109375,1142.1245625000001,208.95812109375Q1134.6805625,204.49642109375,1127.0275625,200.40542109375Q1119.3735625,196.31432109375,1111.5275625,192.60382109375Q1103.6825625000001,188.89322109375001,1095.6645625,185.57212109375Q1087.6465625,182.25092109375,1079.4755625,179.32722109375Q1071.3045625,176.40352109375,1062.9995625000001,173.88432109375Q1054.6945625,171.36502109375,1046.2765625,169.25632109375Q1037.8575624999999,167.14760109375,1029.3455625000001,165.45450109375Q1020.8335625,163.76140109375,1012.2495625,162.48799109375Q1003.6645625,161.21459109375,995.0285625,160.36394109375Q986.3915625,159.51329409375,977.7235625000001,159.08745709375Q969.0555625,158.66162109375,960.3765625,158.66162109375Q951.6975625,158.66162109375,943.0295625,159.08745709375Q934.3615625,159.51329409375,925.7255625,160.36394109375Q917.0885625000001,161.21459109375,908.5035625,162.48799109375Q899.9185625,163.76140109375,891.4075625,165.45450109375Q882.8955625,167.14760109375,874.4765625,169.25632109375Q866.0585625,171.36502109375,857.7535625,173.88432109375Q849.4485625,176.40352109375,841.2775624999999,179.32722109375Q833.1065625,182.25092109375,825.0885625,185.57212109375Q817.0705625,188.89322109375001,809.2255625,192.60382109375Q801.3795625,196.31432109375,793.7255625,200.40542109375Q786.0725625,204.49642109375,778.6285625,208.95812109375Q771.1845625,213.41982109375,763.9685625,218.24132109375Q756.7525625000001,223.06282109375002,749.7815625000001,228.23262109375Q742.8115625,233.40252109375,736.1025625,238.90812109375Q729.3935625,244.41372109374998,722.9635625,250.24182109375Q716.5335625,256.07002109375003,710.3965625,262.20662109375Q704.2599625,268.34362109375,698.4317625,274.77362109374997Q692.6036625,281.20362109375003,687.0980625,287.91262109375Q681.5924625,294.62162109375004,676.4225625,301.59162109375Q671.2527625,308.56262109375,666.4312625,315.77862109374996Q661.6097625,322.99462109374997,657.1480625,330.43862109375Q652.6863625,337.88262109375,648.5953625,345.53562109375Q644.5042625,353.18962109375,640.7937625,361.03562109375Q637.0831625,368.88062109375,633.7620625,376.89862109374997Q630.4408625,384.91662109375,627.5171625,393.08762109375Q624.5934625,401.25862109375,622.0742625,409.56362109375Q619.5549625,417.86862109375,617.4462625,426.28662109375Q615.3375425,434.70562109375,613.6444425,443.21762109375Q611.9513425,451.72862109375,610.6779325,460.31362109375Q609.4045325,468.89862109375,608.5538825,477.53562109375Q607.7032355,486.17162109375,607.2773985,494.83962109375Q606.8515625,503.50762109375,606.8515625,512.18662109375Q606.8515625,520.86562109375,607.2773985,529.5336210937501Q607.7032355,538.20162109375,608.5538825,546.8376210937499Q609.4045325,555.47462109375,610.6779325,564.05962109375Q611.9513425,572.64362109375,613.6444425,581.15562109375Q615.3375425,589.66762109375,617.4462625,598.08662109375Q619.5549625,606.5046210937501,622.0742625,614.80962109375Q624.5934625,623.11462109375,627.5171625,631.28562109375Q630.4408625,639.4566210937501,633.7620625,647.47462109375Q637.0831625,655.49262109375,640.7937625,663.3376210937499Q644.5042625,671.18362109375,648.5953625,678.83762109375Q652.6863625,686.49062109375,657.1480625,693.93462109375Q661.6097625,701.37862109375,666.4312625,708.59462109375Q671.2527625,715.81062109375,676.4225625,722.78162109375Q681.5924625,729.75162109375,687.0980625,736.46062109375Q692.6036625,743.16862109375,698.4317625,749.59962109375Q704.2599625,756.02962109375,710.3965625,762.16662109375Q716.5335625,768.30262109375,722.9635625,774.13162109375Q729.3935625,779.95962109375,736.1025625,785.46462109375Q742.8115625,790.97062109375,749.7815625000001,796.14062109375Q756.7525625000001,801.31062109375,763.9685625,806.13162109375Q771.1845625,810.95362109375,778.6285625,815.41462109375Q786.0725625,819.87662109375,793.7255625,823.96762109375Q801.3795625,828.05862109375,809.2255625,831.76962109375Q817.0705625,835.47962109375,825.0885625,838.80062109375Q833.1065625,842.12262109375,841.2775624999999,845.04562109375Q849.4485625,847.96962109375,857.7535625,850.48862109375Q866.0585625,853.00862109375,874.4765625,855.11662109375Q882.8955625,857.22562109375,891.4075625,858.91862109375Q899.9185625,860.61162109375,908.5035625,861.88562109375Q917.0885625000001,863.15862109375,925.7255625,864.00962109375Q934.3615625,864.85962109375,943.0295625,865.28562109375Q951.6975625,865.71162109375,960.3765625,865.71162109375ZM960.3765625,813.21162109375Q967.7655625,813.21162109375,975.1465625000001,812.84962109375Q982.5275624999999,812.48662109375,989.8815625,811.76262109375Q997.2355625,811.03762109375,1004.5455625,809.95362109375Q1011.8555625,808.86962109375,1019.1035625,807.42762109375Q1026.3515625,805.98562109375,1033.5195625000001,804.19062109375Q1040.6875625,802.39462109375,1047.7595625,800.24962109375Q1054.8305625,798.10462109375,1061.7885625,795.61462109375Q1068.7465625,793.12562109375,1075.5735625,790.29762109375Q1082.4005625,787.46962109375,1089.0805625,784.30962109375Q1095.7615625,781.15062109375,1102.2785625000001,777.66662109375Q1108.7955625,774.18362109375,1115.1345625,770.38462109375Q1121.4725625,766.58562109375,1127.6165624999999,762.47962109375Q1133.7615624999999,758.37462109375,1139.6965625,753.97262109375Q1145.6325625,749.57062109375,1151.3445625,744.88262109375Q1157.0565625,740.19462109375,1162.5325625,735.23162109375Q1168.0075625,730.26862109375,1173.2335625,725.04362109375Q1178.4585625,719.81862109375,1183.4215625000002,714.34262109375Q1188.3835625000002,708.86762109375,1193.0715625,703.15462109375Q1197.7595625,697.44262109375,1202.1615625,691.50762109375Q1206.5635625,685.57162109375,1210.6695625,679.42762109375Q1214.7745625,673.28262109375,1218.5735625,666.94462109375Q1222.3735625,660.60562109375,1225.8565625,654.08862109375Q1229.3405625,647.5716210937501,1232.4995625000001,640.89162109375Q1235.6595625,634.21162109375,1238.4875625,627.38362109375Q1241.3155625,620.55662109375,1243.8045625,613.59862109375Q1246.2945625,606.64162109375,1248.4395625,599.56962109375Q1250.5845625,592.49762109375,1252.3795625,585.32962109375Q1254.1755625,578.16162109375,1255.6175625,570.91362109375Q1257.0585624999999,563.66562109375,1258.1435625,556.3566210937499Q1259.2275625,549.04662109375,1259.9515625,541.69262109375Q1260.6765625,534.3376210937499,1261.0385625,526.95762109375Q1261.4015625,519.57662109375,1261.4015625,512.18662109375Q1261.4015625,504.79662109375,1261.0385625,497.41562109375Q1260.6765625,490.03562109375,1259.9515625,482.68062109375Q1259.2275625,475.32662109375,1258.1435625,468.01662109375Q1257.0585624999999,460.70762109375,1255.6175625,453.45962109375Q1254.1755625,446.21162109375,1252.3795625,439.04362109375Q1250.5845625,431.87562109375,1248.4395625,424.80362109375Q1246.2945625,417.73162109375,1243.8045625,410.77462109375Q1241.3155625,403.81662109375,1238.4875625,396.98962109375Q1235.6595625,390.16162109375,1232.4995625000001,383.48162109375Q1229.3405625,376.80162109375,1225.8565625,370.28462109375Q1222.3735625,363.76762109375,1218.5735625,357.42862109375Q1214.7745625,351.09062109375,1210.6695625,344.94562109375Q1206.5635625,338.80162109375,1202.1615625,332.86662109375004Q1197.7595625,326.93062109375,1193.0715625,321.21862109375Q1188.3835625000002,315.50562109375,1183.4215625000002,310.03062109375Q1178.4585625,304.55462109375003,1173.2335625,299.32962109375Q1168.0075625,294.10462109375,1162.5325625,289.14162109375Q1157.0565625,284.17862109375,1151.3445625,279.49062109375Q1145.6325625,274.80262109375,1139.6965625,270.40062109375003Q1133.7615624999999,265.99862109375,1127.6165624999999,261.89362109374997Q1121.4725625,257.78782109375,1115.1345625,253.98872109375Q1108.7955625,250.18972109375,1102.2785625000001,246.70612109375Q1095.7615625,243.22262109375,1089.0805625,240.06312109375Q1082.4005625,236.90362109375002,1075.5735625,234.07562109375Q1068.7465625,231.24772109375,1061.7885625,228.75822109375Q1054.8305625,226.26862109375,1047.7595625,224.12352109375Q1040.6875625,221.97842109375,1033.5195625000001,220.18282109375Q1026.3505625,218.38732109375002,1019.1035625,216.94562109375Q1011.8555625,215.50392109375,1004.5455625,214.41962109375Q997.2355625,213.33532109375,989.8815625,212.61102109375Q982.5275624999999,211.88672109375,975.1465625000001,211.52412109375Q967.7655625,211.16152109375,960.3765625,211.16152109375Q952.9865625,211.16152109375,945.6055625,211.52412109375Q938.2245625,211.88672109375,930.8705625,212.61102109375Q923.5165625,213.33532109375,916.2065625,214.41962109375Q908.8965625000001,215.50392109375,901.6495625,216.94562109375Q894.4015625,218.38732109375002,887.2335625000001,220.18282109375Q880.0645625,221.97842109375,872.9935625,224.12352109375Q865.9215624999999,226.26862109375,858.9635625,228.75822109375Q852.0065625,231.24772109375,845.1785625,234.07562109375Q838.3515625,236.90362109375002,831.6715624999999,240.06312109375Q824.9915625,243.22262109375,818.4735625000001,246.70612109375Q811.9565625,250.18972109375,805.6185625,253.98872109375Q799.2795625,257.78782109375,793.1355625,261.89362109374997Q786.9915625,265.99862109375,781.0555625,270.40062109375003Q775.1205625,274.80262109375,769.4075625,279.49062109375Q763.6955625,284.17862109375,758.2205625,289.14162109375Q752.7445625,294.10462109375,747.5195625,299.32962109375Q742.2935625,304.55462109375003,737.3315625,310.03062109375Q732.3685625,315.50562109375,727.6805625,321.21862109375Q722.9925625,326.93062109375,718.5905625,332.86662109375004Q714.1885625,338.80162109375,710.0825625,344.94562109375Q705.9774625,351.09062109375,702.1783625,357.42862109375Q698.3792625,363.76762109375,694.8957625,370.28462109375Q691.4122625,376.80162109375,688.2527625,383.48162109375Q685.0931625000001,390.16162109375,682.2652625000001,396.98962109375Q679.4372625,403.81662109375,676.9477625,410.77462109375Q674.4582625,417.73262109375,672.3130625,424.80362109375Q670.1679625,431.87562109375,668.3724625,439.04362109375Q666.5768625,446.21162109375,665.1351625,453.45962109375Q663.6935625,460.70762109375,662.6092625,468.01662109375Q661.5249625,475.32662109375,660.8005625,482.68062109375Q660.0762625,490.03562109375,659.7136625,497.41562109375Q659.3510625,504.79662109375,659.3510625,512.18662109375Q659.3510625,519.57662109375,659.7136625,526.95762109375Q660.0762625,534.3376210937499,660.8005625,541.69262109375Q661.5248625,549.04662109375,662.6091625,556.3566210937499Q663.6934625,563.66562109375,665.1351625,570.91362109375Q666.5768625,578.16162109375,668.3724625,585.32962109375Q670.1679625,592.49762109375,672.3130625,599.56962109375Q674.4582625,606.64162109375,676.9477625,613.59862109375Q679.4372625,620.55662109375,682.2652625000001,627.38362109375Q685.0931625000001,634.21162109375,688.2526625,640.89162109375Q691.4122625,647.5716210937501,694.8957625,654.08862109375Q698.3792625,660.60562109375,702.1783625,666.94462109375Q705.9774625,673.28262109375,710.0825625,679.42762109375Q714.1885625,685.57162109375,718.5905625,691.50762109375Q722.9925625,697.44262109375,727.6805625,703.15462109375Q732.3685625,708.86762109375,737.3315625,714.34262109375Q742.2935625,719.81862109375,747.5195625,725.04362109375Q752.7445625,730.26862109375,758.2205625,735.23162109375Q763.6955625,740.19462109375,769.4075625,744.88262109375Q775.1205625,749.57062109375,781.0555625,753.97262109375Q786.9915625,758.37462109375,793.1355625,762.47962109375Q799.2795625,766.58562109375,805.6185625,770.38462109375Q811.9565625,774.18362109375,818.4735625000001,777.66662109375Q824.9915625,781.15062109375,831.6715624999999,784.30962109375Q838.3515625,787.46962109375,845.1785625,790.29762109375Q852.0065625,793.12562109375,858.9635625,795.61462109375Q865.9215624999999,798.10462109375,872.9935625,800.24962109375Q880.0645625,802.39462109375,887.2335625000001,804.19062109375Q894.4015625,805.98562109375,901.6495625,807.42762109375Q908.8965625000001,808.86962109375,916.2065625,809.95362109375Q923.5165625,811.03762109375,930.8705625,811.76262109375Q938.2245625,812.48662109375,945.6055625,812.84962109375Q952.9865625,813.21162109375,960.3765625,813.21162109375Z" fill-rule="evenodd" fill="url(#master_svg9_86_36051)" fill-opacity="1"/></g><g><rect x="460.9044189453125" y="247.1573486328125" width="978.49462890625" height="121.14002227783203" rx="0" fill="url(#master_svga_86_35919)" fill-opacity="1"/></g><g><path d="M960.3765625,864.9374359130859Q969.0555625,864.9374359130859,977.7235625000001,864.511435913086Q986.3915625,864.0854359130859,995.0275624999999,863.2354359130859Q1003.6645625,862.3844359130859,1012.2495625,861.111435913086Q1020.8335625,859.837435913086,1029.3455625000001,858.1444359130859Q1037.8575624999999,856.4514359130859,1046.2765625,854.342435913086Q1054.6945625,852.2334359130859,1062.9995625000001,849.7144359130859Q1071.3045625,847.1954359130859,1079.4755625,844.271435913086Q1087.6465625,841.348435913086,1095.6645625,838.026435913086Q1103.6825625000001,834.7054359130859,1111.5275625,830.9954359130859Q1119.3735625,827.284435913086,1127.0275625,823.193435913086Q1134.6805625,819.102435913086,1142.1245625000001,814.640435913086Q1149.5685625,810.179435913086,1156.7845625,805.357435913086Q1164.0005625,800.5364359130859,1170.9715625,795.366435913086Q1177.9415625000001,790.1964359130859,1184.6505625,784.6904359130859Q1191.3585625,779.1854359130859,1197.7895625,773.357435913086Q1204.2195625,767.5284359130859,1210.3565625,761.3924359130859Q1216.4925625,755.255435913086,1222.3215625,748.8254359130859Q1228.1495625,742.3944359130859,1233.6545624999999,735.6864359130859Q1239.1605625,728.977435913086,1244.3305625,722.0074359130859Q1249.5005625,715.0364359130859,1254.3215625,707.8204359130859Q1259.1435625,700.6044359130859,1263.6045625000002,693.160435913086Q1268.0665625000001,685.7164359130859,1272.1575625,678.063435913086Q1276.2485625,670.409435913086,1279.9595625,662.5634359130859Q1283.6695625,654.718435913086,1286.9905625000001,646.7004359130859Q1290.3125625,638.682435913086,1293.2355625,630.511435913086Q1296.1595625,622.3404359130859,1298.6785625,614.035435913086Q1301.1985625,605.730435913086,1303.3065625,597.3124359130859Q1305.4155624999999,588.8934359130859,1307.1085625,580.381435913086Q1308.8015625,571.8694359130859,1310.0755625000002,563.285435913086Q1311.3485624999998,554.7004359130859,1312.1995625,546.064435913086Q1313.0495624999999,537.4274359130859,1313.4755625,528.759435913086Q1313.9015625,520.0914359130859,1313.9015625,511.4124359130859Q1313.9015625,502.73343591308594,1313.4755625,494.06543591308593Q1313.0495624999999,485.3974359130859,1312.1995625,476.76143591308596Q1311.3485624999998,468.12443591308596,1310.0755625000002,459.5394359130859Q1308.8015625,450.95443591308594,1307.1085625,442.4434359130859Q1305.4155624999999,433.9314359130859,1303.3065625,425.51243591308594Q1301.1975625,417.09443591308593,1298.6785625,408.7894359130859Q1296.1595625,400.4844359130859,1293.2355625,392.3134359130859Q1290.3125625,384.14243591308593,1286.9905625000001,376.1244359130859Q1283.6695625,368.10643591308593,1279.9595625,360.26143591308596Q1276.2485625,352.41543591308596,1272.1575625,344.76143591308596Q1268.0665625000001,337.10843591308594,1263.6045625000002,329.6644359130859Q1259.1435625,322.2204359130859,1254.3215625,315.0044359130859Q1249.5005625,307.78843591308595,1244.3305625,300.81743591308594Q1239.1605625,293.847435913086,1233.6545624999999,287.1384359130859Q1228.1495625,280.42943591308597,1222.3215625,273.9994359130859Q1216.4925625,267.56943591308595,1210.3565625,261.43243591308595Q1204.2195625,255.29583591308594,1197.7895625,249.46763591308593Q1191.3585625,243.63953591308592,1184.6505625,238.13393591308593Q1177.9415625000001,232.62833591308595,1170.9715625,227.45843591308594Q1164.0005625,222.28863591308595,1156.7845625,217.46713591308594Q1149.5685625,212.64563591308593,1142.1245625000001,208.18393591308595Q1134.6805625,203.72223591308594,1127.0275625,199.63123591308593Q1119.3735625,195.54013591308595,1111.5275625,191.82963591308595Q1103.6825625000001,188.11903591308595,1095.6645625,184.79793591308595Q1087.6465625,181.47673591308595,1079.4755625,178.55303591308595Q1071.3045625,175.62933591308592,1062.9995625000001,173.11013591308594Q1054.6945625,170.59083591308593,1046.2765625,168.48213591308593Q1037.8575624999999,166.37341591308595,1029.3455625000001,164.68031591308593Q1020.8335625,162.98721591308595,1012.2495625,161.71380591308593Q1003.6645625,160.44040591308593,995.0285625,159.58975591308592Q986.3915625,158.73910891308594,977.7235625000001,158.31327191308594Q969.0555625,157.88743591308594,960.3765625,157.88743591308594Q951.6975625,157.88743591308594,943.0295625,158.31327191308594Q934.3615625,158.73910891308594,925.7255625,159.58975591308592Q917.0885625000001,160.44040591308593,908.5035625,161.71380591308593Q899.9185625,162.98721591308595,891.4075625,164.68031591308593Q882.8955625,166.37341591308595,874.4765625,168.48213591308593Q866.0585625,170.59083591308593,857.7535625,173.11013591308594Q849.4485625,175.62933591308592,841.2775624999999,178.55303591308595Q833.1065625,181.47673591308595,825.0885625,184.79793591308595Q817.0705625,188.11903591308595,809.2255625,191.82963591308595Q801.3795625,195.54013591308595,793.7255625,199.63123591308593Q786.0725625,203.72223591308594,778.6285625,208.18393591308595Q771.1845625,212.64563591308593,763.9685625,217.46713591308594Q756.7525625000001,222.28863591308595,749.7815625000001,227.45843591308594Q742.8115625,232.62833591308595,736.1025625,238.13393591308593Q729.3935625,243.63953591308592,722.9635625,249.46763591308593Q716.5335625,255.29583591308594,710.3965625,261.43243591308595Q704.2599625,267.56943591308595,698.4317625,273.9994359130859Q692.6036625,280.42943591308597,687.0980625,287.1384359130859Q681.5924625,293.847435913086,676.4225625,300.81743591308594Q671.2527625,307.78843591308595,666.4312625,315.0044359130859Q661.6097625,322.2204359130859,657.1480625,329.6644359130859Q652.6863625,337.10843591308594,648.5953625,344.76143591308596Q644.5042625,352.41543591308596,640.7937625,360.26143591308596Q637.0831625,368.10643591308593,633.7620625,376.1244359130859Q630.4408625,384.14243591308593,627.5171625,392.3134359130859Q624.5934625,400.4844359130859,622.0742625,408.7894359130859Q619.5549625,417.09443591308593,617.4462625,425.51243591308594Q615.3375425,433.9314359130859,613.6444425,442.4434359130859Q611.9513425,450.95443591308594,610.6779325,459.5394359130859Q609.4045325,468.12443591308596,608.5538825,476.76143591308596Q607.7032355,485.3974359130859,607.2773985,494.06543591308593Q606.8515625,502.73343591308594,606.8515625,511.4124359130859Q606.8515625,520.0914359130859,607.2773985,528.759435913086Q607.7032355,537.4274359130859,608.5538825,546.0634359130859Q609.4045325,554.7004359130859,610.6779325,563.285435913086Q611.9513425,571.8694359130859,613.6444425,580.381435913086Q615.3375425,588.8934359130859,617.4462625,597.3124359130859Q619.5549625,605.730435913086,622.0742625,614.035435913086Q624.5934625,622.3404359130859,627.5171625,630.511435913086Q630.4408625,638.682435913086,633.7620625,646.7004359130859Q637.0831625,654.718435913086,640.7937625,662.5634359130859Q644.5042625,670.409435913086,648.5953625,678.063435913086Q652.6863625,685.7164359130859,657.1480625,693.160435913086Q661.6097625,700.6044359130859,666.4312625,707.8204359130859Q671.2527625,715.0364359130859,676.4225625,722.0074359130859Q681.5924625,728.977435913086,687.0980625,735.6864359130859Q692.6036625,742.3944359130859,698.4317625,748.8254359130859Q704.2599625,755.255435913086,710.3965625,761.3924359130859Q716.5335625,767.5284359130859,722.9635625,773.357435913086Q729.3935625,779.1854359130859,736.1025625,784.6904359130859Q742.8115625,790.1964359130859,749.7815625000001,795.366435913086Q756.7525625000001,800.5364359130859,763.9685625,805.357435913086Q771.1845625,810.179435913086,778.6285625,814.640435913086Q786.0725625,819.102435913086,793.7255625,823.193435913086Q801.3795625,827.284435913086,809.2255625,830.9954359130859Q817.0705625,834.7054359130859,825.0885625,838.026435913086Q833.1065625,841.348435913086,841.2775624999999,844.271435913086Q849.4485625,847.1954359130859,857.7535625,849.7144359130859Q866.0585625,852.2344359130859,874.4765625,854.342435913086Q882.8955625,856.4514359130859,891.4075625,858.1444359130859Q899.9185625,859.837435913086,908.5035625,861.111435913086Q917.0885625000001,862.3844359130859,925.7255625,863.2354359130859Q934.3615625,864.0854359130859,943.0295625,864.511435913086Q951.6975625,864.9374359130859,960.3765625,864.9374359130859ZM960.3765625,862.7974359130859Q969.0025625000001,862.7974359130859,977.6175625000001,862.3744359130859Q986.2335625000001,861.9514359130859,994.8185625,861.1054359130859Q1003.4025624999999,860.260435913086,1011.9355625000001,858.9944359130859Q1020.4675625,857.728435913086,1028.9285625,856.045435913086Q1037.3885625,854.362435913086,1045.7555625,852.2674359130859Q1054.1235625,850.1714359130859,1062.3775625,847.6674359130859Q1070.6325625,845.1634359130859,1078.7545625,842.2574359130859Q1086.8765625,839.351435913086,1094.8455625000001,836.049435913086Q1102.8145625,832.7484359130859,1110.6125625,829.0604359130859Q1118.4105625,825.372435913086,1126.0185625,821.3064359130859Q1133.6255625,817.2404359130859,1141.0245625,812.805435913086Q1148.4235625000001,808.3704359130859,1155.5955625000001,803.578435913086Q1162.7675625000002,798.7864359130859,1169.6965625,793.6474359130859Q1176.6245625000001,788.5094359130859,1183.2925625,783.0364359130859Q1189.9605625,777.564435913086,1196.3525625,771.771435913086Q1202.7435625,765.978435913086,1208.8435625,759.8794359130859Q1214.9425625,753.779435913086,1220.7355625,747.3884359130859Q1226.5285625000001,740.996435913086,1232.0005625,734.328435913086Q1237.4725625,727.660435913086,1242.6115625,720.732435913086Q1247.7495625000001,713.803435913086,1252.5425625,706.631435913086Q1257.3345625,699.4594359130859,1261.7695625000001,692.0604359130859Q1266.2045625,684.6614359130859,1270.2705624999999,677.054435913086Q1274.3365625000001,669.4464359130859,1278.0245625,661.6484359130859Q1281.7125624999999,653.8514359130859,1285.0135625,645.881435913086Q1288.3145625,637.9124359130859,1291.2205625000001,629.790435913086Q1294.1265625,621.6684359130859,1296.6305625,613.414435913086Q1299.1345625,605.1594359130859,1301.2305625,596.7924359130859Q1303.3265625,588.424435913086,1305.0095625,579.9644359130859Q1306.6925625,571.5044359130859,1307.9585625,562.971435913086Q1309.2235624999998,554.4384359130859,1310.0695624999998,545.8544359130859Q1310.9145625,537.269435913086,1311.3385625,528.654435913086Q1311.7615624999999,520.038435913086,1311.7615624999999,511.4124359130859Q1311.7615624999999,502.78643591308594,1311.3385625,494.17043591308595Q1310.9145625,485.55543591308594,1310.0695624999998,476.97043591308596Q1309.2235624999998,468.38643591308596,1307.9585625,459.85343591308595Q1306.6925625,451.32043591308593,1305.0095625,442.86043591308595Q1303.3265625,434.4004359130859,1301.2305625,426.0324359130859Q1299.1345625,417.66543591308596,1296.6305625,409.41043591308596Q1294.1265625,401.15643591308594,1291.2205625000001,393.03443591308593Q1288.3145625,384.9124359130859,1285.0135625,376.943435913086Q1281.7125624999999,368.97343591308595,1278.0245625,361.17543591308595Q1274.3365625000001,353.3784359130859,1270.2705624999999,345.770435913086Q1266.2035624999999,338.16343591308595,1261.7695625000001,330.76443591308595Q1257.3345625,323.36543591308595,1252.5425625,316.193435913086Q1247.7495625000001,309.02143591308595,1242.6115625,302.092435913086Q1237.4725625,295.1644359130859,1232.0005625,288.496435913086Q1226.5285625000001,281.82843591308597,1220.7355625,275.4364359130859Q1214.9425625,269.04543591308595,1208.8435625,262.94543591308593Q1202.7435625,256.84613591308596,1196.3515625,251.05323591308593Q1189.9605625,245.26033591308595,1183.2925625,239.78803591308593Q1176.6245625000001,234.31583591308595,1169.6955625,229.17723591308595Q1162.7675625000002,224.03873591308593,1155.5955625000001,219.24643591308595Q1148.4235625000001,214.45403591308593,1141.0245625,210.01933591308594Q1133.6255625,205.58473591308592,1126.0185625,201.51843591308594Q1118.4105625,197.45213591308595,1110.6125625,193.76403591308593Q1102.8145625,190.07593591308594,1094.8455625000001,186.77493591308593Q1086.8765625,183.47393591308594,1078.7545625,180.56783591308593Q1070.6325625,177.66183591308595,1062.3775625,175.15783591308593Q1054.1235625,172.65383591308594,1045.7555625,170.55793591308594Q1037.3885625,168.46193591308594,1028.9285625,166.77909591308594Q1020.4675625,165.09624591308594,1011.9355625000001,163.83054591308593Q1003.4025624999999,162.56484591308595,994.8185625,161.71934591308593Q986.2335625000001,160.87384591308594,977.6175625000001,160.45058591308594Q969.0025625000001,160.02732591308595,960.3765625,160.02732591308595Q951.7505625,160.02732591308595,943.1345625,160.45058591308594Q934.5185624999999,160.87384591308594,925.9345625000001,161.71934591308593Q917.3505625,162.56484591308595,908.8175625,163.83054591308593Q900.2845625,165.09624591308594,891.8245625,166.77909591308594Q883.3645624999999,168.46193591308594,874.9965625,170.55793591308594Q866.6295625,172.65383591308594,858.3745625,175.15783591308593Q850.1195625,177.66183591308595,841.9985624999999,180.56783591308593Q833.8765625,183.47393591308594,825.9065625000001,186.77493591308593Q817.9375625,190.07593591308594,810.1395625,193.76403591308593Q802.3415625,197.45213591308595,794.7345625,201.51843591308594Q787.1265625,205.58473591308592,779.7285625,210.01933591308594Q772.3295625000001,214.45403591308593,765.1575625,219.24643591308595Q757.9845625,224.03873591308593,751.0565625,229.17723591308595Q744.1275625000001,234.31583591308595,737.4595625,239.78813591308594Q730.7915625,245.26033591308595,724.4005625,251.05323591308593Q718.0085625,256.84613591308596,711.9095625,262.94543591308593Q705.8099625,269.04543591308595,700.0171625,275.4364359130859Q694.2242625,281.82843591308597,688.7519625,288.496435913086Q683.2796625,295.1644359130859,678.1411625,302.092435913086Q673.0026625,309.02143591308595,668.2102625,316.193435913086Q663.4178625,323.36543591308595,658.9832625,330.76443591308595Q654.5485625,338.16343591308595,650.4823625,345.770435913086Q646.4160625,353.3784359130859,642.7279625,361.17543591308595Q639.0398625,368.97343591308595,635.7387625,376.943435913086Q632.4377625,384.9124359130859,629.5317625,393.03443591308593Q626.6257625,401.15643591308594,624.1217625,409.41043591308596Q621.6177625,417.66543591308596,619.5217625,426.0324359130859Q617.4258625,434.4004359130859,615.7429725,442.86043591308595Q614.0601225,451.32043591308593,612.7944225,459.85343591308595Q611.5287225,468.38643591308596,610.6832225,476.97043591308596Q609.8377325,485.55543591308594,609.4144725,494.17043591308595Q608.9912125,502.78643591308594,608.9912125,511.4124359130859Q608.9912125,520.038435913086,609.4144725,528.654435913086Q609.8377325,537.269435913086,610.6832225,545.8544359130859Q611.5287225,554.4384359130859,612.7944225,562.971435913086Q614.0601225,571.5044359130859,615.7429725,579.9644359130859Q617.4258625,588.424435913086,619.5217625,596.7924359130859Q621.6177625,605.1594359130859,624.1217625,613.414435913086Q626.6257625,621.6684359130859,629.5317625,629.790435913086Q632.4377625,637.9124359130859,635.7387625,645.881435913086Q639.0398625,653.8514359130859,642.7279625,661.6484359130859Q646.4160625,669.4464359130859,650.4823625,677.054435913086Q654.5485625,684.6614359130859,658.9832625,692.0604359130859Q663.4178625,699.4594359130859,668.2102625,706.631435913086Q673.0026625,713.803435913086,678.1411625,720.732435913086Q683.2796625,727.660435913086,688.7519625,734.328435913086Q694.2242625,740.996435913086,700.0171625,747.3884359130859Q705.8099625,753.779435913086,711.9095625,759.8794359130859Q718.0085625,765.978435913086,724.4005625,771.771435913086Q730.7915625,777.564435913086,737.4595625,783.0364359130859Q744.1275625000001,788.5094359130859,751.0565625,793.6474359130859Q757.9845625,798.7864359130859,765.1575625,803.578435913086Q772.3295625000001,808.3704359130859,779.7285625,812.805435913086Q787.1265625,817.2404359130859,794.7345625,821.3064359130859Q802.3415625,825.372435913086,810.1395625,829.0604359130859Q817.9375625,832.7484359130859,825.9065625000001,836.049435913086Q833.8765625,839.351435913086,841.9985624999999,842.2574359130859Q850.1195625,845.1634359130859,858.3745625,847.6674359130859Q866.6295625,850.1714359130859,874.9965625,852.2674359130859Q883.3645624999999,854.362435913086,891.8245625,856.045435913086Q900.2845625,857.728435913086,908.8175625,858.9944359130859Q917.3505625,860.260435913086,925.9345625000001,861.1054359130859Q934.5185624999999,861.9514359130859,943.1345625,862.3744359130859Q951.7505625,862.7974359130859,960.3765625,862.7974359130859Z" fill-rule="evenodd" fill="url(#master_svgb_86_31224)" fill-opacity="1"/></g><g filter="url(#master_svgc_106_15769)"><path d="M794.4738846282969,201.38167934570313Q799.2370981542969,198.91687934570314,804.0785781542969,196.59427934570311Q808.9200581542968,194.27167934570312,813.8350581542969,192.09367934570312Q818.7501581542969,189.91567934570313,823.7340581542969,187.88427934570313Q828.7178581542969,185.85287934570312,833.7657581542969,183.97007934570314Q838.8135581542969,182.0872793457031,843.9205581542968,180.35487934570313Q849.0274581542968,178.62257934570312,854.1885581542969,177.04227934570312Q859.3496581542969,175.46197934570313,864.5599581542969,174.03537934570312Q869.7702581542969,172.6087793457031,875.0245581542969,171.33707934570313Q880.2789581542969,170.06547934570312,885.5723581542969,168.95007934570313Q890.8657581542968,167.8347793457031,896.1933581542969,166.8766893457031Q901.5203581542969,165.91863934570313,906.8763581542969,165.11883934570312Q912.2323581542969,164.31903934570312,917.6123581542969,163.67827934570312Q922.9913581542969,163.0375093457031,928.3893581542968,162.55638934570314Q933.7873581542968,162.07526934570313,939.1983581542969,161.75425934570313Q944.6093581542968,161.43324934570313,950.0283581542969,161.27266934570312Q955.4473581542968,161.1120893457031,960.8683581542969,161.1120893457031Q965.6743581542969,161.1120893457031,970.4773581542969,161.2382593457031Q975.2813581542969,161.3644193457031,980.0793581542969,161.61664934570314Q984.8773581542969,161.86887934570314,989.6663581542969,162.24698934570313Q994.4553581542968,162.62509934570312,999.2313581542969,163.12879934570313Q1004.0083581542968,163.63248934570314,1008.7673581542969,164.26139934570313Q1013.5273581542968,164.8902993457031,1018.2673581542969,165.64392934570313Q1023.0073581542969,166.39755934570312,1027.7233581542969,167.27537934570313Q1032.4393581542968,168.15307934570313,1037.1283581542968,169.15437934570312Q1041.817358154297,170.15567934570313,1046.4753581542968,171.27967934570313Q1051.133358154297,172.40367934570313,1055.757358154297,173.64947934570313Q1060.3803581542968,174.89537934570313,1064.9663581542968,176.26217934570312Q1069.5523581542968,177.62887934570313,1074.097358154297,179.1155793457031Q1078.641358154297,180.60227934570312,1083.141358154297,182.20767934570313Q1087.641358154297,183.81307934570313,1092.092358154297,185.53597934570314Q1096.5443581542968,187.25897934570312,1100.9443581542969,189.09807934570313Q1105.344358154297,190.93727934570313,1109.6883581542968,192.8911793457031Q1105.3583581542969,190.68867934570312,1100.9643581542969,188.61437934570313Q1096.5713581542968,186.54007934570313,1092.1183581542969,184.59577934570314Q1087.6663581542969,182.6515793457031,1083.1583581542968,180.8390793457031Q1078.650358154297,179.02667934570312,1074.0913581542968,177.34747934570314Q1069.5323581542968,175.66837934570313,1064.9253581542969,174.12397934570313Q1060.3193581542969,172.5796793457031,1055.6693581542968,171.17137934570312Q1051.019358154297,169.76317934570312,1046.3293581542969,168.49227934570314Q1041.6403581542968,167.22127934570312,1036.9153581542969,166.08883934570312Q1032.191358154297,164.95634934570313,1027.4353581542969,163.9632693457031Q1022.6793581542969,162.97019934570312,1017.8963581542969,162.11738934570312Q1013.1123581542969,161.2645793457031,1008.3063581542968,160.55276934570313Q1003.5003581542969,159.84096934570312,998.6753581542969,159.27077934570312Q993.8503581542968,158.70059934570313,989.0113581542969,158.27252934570313Q984.1713581542969,157.84445934570311,979.3213581542968,157.55887434570312Q974.4713581542969,157.27328834570312,969.6143581542968,157.13043434570312Q964.7583581542968,156.98757934570312,959.8993581542968,156.98757934570312Q954.4853581542968,156.98757934570312,949.0733581542969,157.16500634570312Q943.6613581542969,157.3424343457031,938.2583581542968,157.69709834570313Q932.8553581542969,158.05175934570312,927.4663581542968,158.58327934570312Q922.0773581542969,159.11479934570312,916.7093581542969,159.8226093457031Q911.3413581542968,160.53040934570313,905.9983581542969,161.41373934570314Q900.6563581542969,162.29706934570314,895.3463581542969,163.35497934570313Q890.0356581542969,164.41288934570312,884.7627581542969,165.64422934570314Q879.4898581542968,166.87557934570313,874.2601581542968,168.2790793457031Q869.0304581542969,169.68247934570311,863.8494581542968,171.25657934570313Q858.6685581542969,172.83067934570312,853.5419581542969,174.5736793457031Q848.4153581542969,176.31667934570314,843.3486581542969,178.22667934570313Q838.2819581542968,180.13667934570313,833.2805581542968,182.21177934570312Q828.2791581542969,184.2867793457031,823.3484581542968,186.52457934570313Q818.4177581542968,188.76237934570312,813.5629581542969,191.16057934570313Q808.7082581542969,193.55877934570313,803.9346881542969,196.1146793457031Q799.1611281542969,198.67067934570312,794.4738846282969,201.38167934570313Z" fill-rule="evenodd" fill="url(#master_svgd_86_31434)" fill-opacity="1"/></g><g><rect x="560" y="68.000244140625" width="800" height="275.999755859375" rx="0" fill="#D8D8D8" fill-opacity="0"/></g></g></g><g><g transform="matrix(0.8660253882408142,0.5,-0.5,0.8660253882408142,-90.99736419113651,-28.79897758770676)" filter="url(#master_svge_113_32432)"><rect x="8.240936279296875" y="-184.202880859375" width="858.8187255859375" height="318.8228454589844" rx="100" fill="url(#master_svgf_113_32661)" fill-opacity="0.800000011920929"/></g><g><rect x="0" y="0.000244140625" width="610.6425170898438" height="477.82275390625" rx="0" fill="#D8D8D8" fill-opacity="0"/></g></g><g><rect x="0" y="0.000244140625" width="1920" height="68" rx="0" fill="#D8D8D8" fill-opacity="0"/></g></g></svg>