<svg xmlns="http://www.w3.org/2000/svg" xmlns:xlink="http://www.w3.org/1999/xlink" fill="none" version="1.1" width="16" height="16" viewBox="0 0 16 16"><defs><clipPath id="master_svg0_390_26861"><rect x="0" y="0" width="16" height="16" rx="0"/></clipPath></defs><g clip-path="url(#master_svg0_390_26861)"><g><path d="M7.361273373069763,9.38506080078125Q8.721833373069764,9.58985380078125,9.753663373069763,10.50000080078125L9.754773373069764,10.49875080078125Q9.845883373069762,10.57912080078125,9.959523373069763,10.62208080078125Q10.073173373069762,10.66504080078125,10.194663373069764,10.66504080078125Q10.260163373069764,10.66504080078125,10.324403373069764,10.65226080078125Q10.388643373069764,10.63948080078125,10.449153373069763,10.61442080078125Q10.509663373069763,10.58935080078125,10.564123373069764,10.55296080078125Q10.618573373069763,10.516570800781249,10.664893373069763,10.47026080078125Q10.711203373069763,10.42395080078125,10.747593373069764,10.36949080078125Q10.783983373069763,10.31503080078125,10.809043373069763,10.25452080078125Q10.834113373069764,10.19401080078125,10.846893373069763,10.12977080078125Q10.859663373069763,10.06553080078125,10.859663373069763,10.00004080078125Q10.859663373069763,9.85691080078125,10.800783373069763,9.726450800781251Q10.741903373069762,9.59600180078125,10.634563373069764,9.50132280078125L10.635663373069763,9.50007280078125Q9.309023373069763,8.32988580078125,7.559733373069763,8.06657980078125Q5.810453373069763,7.80327480078125,4.198113373069763,8.53108180078125Q2.5857833730697632,9.25888880078125,1.6261753730697632,10.74498080078125Q0.6665693730697632,12.23108080078125,0.6666663730697632,14.00007080078125L0.6683333730697631,14.00007080078125Q0.6683363730697632,14.06557080078125,0.6811173730697632,14.12980080078125Q0.6938973730697632,14.19404080078125,0.7189633730697632,14.25455080078125Q0.7440293730697631,14.31505080078125,0.7804183730697631,14.36951080078125Q0.8168073730697631,14.42396080078125,0.8631203730697632,14.47027080078125Q0.9094333730697632,14.51659080078125,0.9638903730697632,14.55297080078125Q1.0183473730697632,14.58936080078125,1.0788573730697633,14.61442080078125Q1.1393663730697632,14.63948080078125,1.2036023730697631,14.65226080078125Q1.2678388730697632,14.665040800781249,1.3333333730697632,14.665040800781249Q1.3988301730697632,14.665030800781249,1.4630683730697631,14.65226080078125Q1.5273063730697631,14.63948080078125,1.5878173730697631,14.61441080078125Q1.6483293730697632,14.58935080078125,1.7027873730697631,14.55296080078125Q1.7572463730697632,14.516570800781249,1.8035593730697632,14.47026080078125Q1.849872373069763,14.423950800781249,1.8862603730697631,14.36949080078125Q1.9226483730697632,14.315030800781251,1.9477133730697633,14.25452080078125Q1.9727773730697633,14.19401080078125,1.9855553730697633,14.12977080078125Q1.9983333730697632,14.06553080078125,1.9983333730697632,14.00004080078125L1.9983333730697632,14.000000800781251L1.9999993730697632,14.000000800781251Q1.9999243730697631,12.62412080078125,2.746283373069763,11.46826080078125Q3.4926433730697632,10.312410800781251,4.746683373069763,9.74634080078125Q6.000723373069763,9.18026780078125,7.361273373069763,9.38506080078125Z" fill-rule="evenodd" fill="#12FFBB" fill-opacity="1" style="mix-blend-mode:passthrough"/></g><g><ellipse cx="6.6666669845581055" cy="5.333333492279053" rx="3.3333334922790527" ry="3.3333334922790527" fill-opacity="0" stroke-opacity="1" stroke="#12FFBB" fill="none" stroke-width="1.3333333730697632" stroke-linecap="ROUND" stroke-linejoin="round" style="mix-blend-mode:passthrough"/></g><g><path d="M12.001666984558106,10.66668701171875Q12.001666984558106,10.60119021171875,12.014444984558105,10.53695201171875Q12.027222984558106,10.47271401171875,12.052286984558105,10.41220301171875Q12.077351984558106,10.35169101171875,12.113739984558105,10.29723301171875Q12.150127984558106,10.24277401171875,12.196440984558105,10.19646101171875Q12.242753984558105,10.15014801171875,12.297212984558106,10.11376001171875Q12.351670984558105,10.07737201171875,12.412182984558106,10.05230701171875Q12.472693984558106,10.02724301171875,12.536931984558105,10.01446501171875Q12.601170184558105,10.00168701171875,12.666666984558105,10.00168701171875Q12.732163784558105,10.00168701171875,12.796401984558106,10.01446501171875Q12.860639984558105,10.02724301171875,12.921150984558105,10.05230701171875Q12.981662984558106,10.07737201171875,13.036120984558105,10.11376001171875Q13.090579984558106,10.15014801171875,13.136892984558106,10.19646101171875Q13.183205984558105,10.24277401171875,13.219593984558106,10.29723301171875Q13.255981984558105,10.35169101171875,13.281046984558106,10.41220301171875Q13.306110984558105,10.47271401171875,13.318888984558106,10.53695201171875Q13.331666984558105,10.60119021171875,13.331666984558105,10.66668701171875L13.333333984558106,10.66668701171875L13.333333984558106,14.66668701171875L13.331666984558105,14.66668701171875Q13.331666984558105,14.73218701171875,13.318888984558106,14.79641701171875Q13.306110984558105,14.86065701171875,13.281046984558106,14.921167011718751Q13.255981984558105,14.981687011718751,13.219593984558106,15.03613701171875Q13.183205984558105,15.09059701171875,13.136892984558106,15.13691701171875Q13.090579984558106,15.183227011718749,13.036120984558105,15.21961701171875Q12.981662984558106,15.255997011718751,12.921150984558105,15.28106701171875Q12.860639984558105,15.30612701171875,12.796401984558106,15.31890701171875Q12.732163784558105,15.33168701171875,12.666666984558105,15.33168701171875Q12.601170184558105,15.33168701171875,12.536931984558105,15.31890701171875Q12.472693984558106,15.30612701171875,12.412182984558106,15.28106701171875Q12.351670984558105,15.255997011718751,12.297212984558106,15.21961701171875Q12.242753984558105,15.183227011718749,12.196440984558105,15.13691701171875Q12.150127984558106,15.09059701171875,12.113739984558105,15.03613701171875Q12.077351984558106,14.981687011718751,12.052286984558105,14.921167011718751Q12.027222984558106,14.86065701171875,12.014444984558105,14.79641701171875Q12.001666984558106,14.73218701171875,12.001666984558106,14.66668701171875L11.999999984558105,14.66668701171875L11.999999984558105,10.66668701171875L12.001666984558106,10.66668701171875Z" fill-rule="evenodd" fill="#12FFBB" fill-opacity="1" style="mix-blend-mode:passthrough"/></g><g><path d="M14.666666984558105,12.00002001171875L10.666666984558105,12.00002001171875L10.666666984558105,12.00168701171875Q10.601170184558105,12.00168701171875,10.536931984558105,12.01446501171875Q10.472693984558106,12.02724301171875,10.412182984558106,12.05230701171875Q10.351670984558105,12.07737201171875,10.297212984558106,12.11376001171875Q10.242753984558105,12.15014801171875,10.196440984558105,12.19646101171875Q10.150127984558106,12.24277401171875,10.113739984558105,12.29723301171875Q10.077351984558106,12.35169101171875,10.052286984558105,12.41220301171875Q10.027222984558106,12.47271401171875,10.014444984558105,12.53695201171875Q10.001666984558106,12.60119021171875,10.001666984558106,12.66668701171875Q10.001666984558106,12.73218381171875,10.014444984558105,12.79642201171875Q10.027222984558106,12.86066001171875,10.052286984558105,12.92117101171875Q10.077351984558106,12.98168301171875,10.113739984558105,13.03614101171875Q10.150127984558106,13.09060001171875,10.196440984558105,13.13691301171875Q10.242753984558105,13.18322601171875,10.297212984558106,13.21961401171875Q10.351670984558105,13.25600201171875,10.412182984558106,13.28106701171875Q10.472693984558106,13.30613101171875,10.536931984558105,13.31890901171875Q10.601170184558105,13.33168701171875,10.666666984558105,13.33168701171875L10.666666984558105,13.33335401171875L14.666666984558105,13.33335401171875L14.666666984558105,13.33168701171875Q14.732166984558106,13.33168701171875,14.796396984558106,13.31890901171875Q14.860636984558106,13.30613101171875,14.921146984558106,13.28106701171875Q14.981666984558107,13.25600201171875,15.036116984558106,13.21961401171875Q15.090576984558105,13.18322601171875,15.136896984558106,13.13691301171875Q15.183206984558105,13.09060001171875,15.219596984558105,13.03614101171875Q15.255976984558107,12.98168301171875,15.281046984558106,12.92117101171875Q15.306106984558106,12.86066001171875,15.318886984558105,12.79642201171875Q15.331666984558105,12.73218381171875,15.331666984558105,12.66668701171875Q15.331666984558105,12.60119021171875,15.318886984558105,12.53695201171875Q15.306106984558106,12.47271401171875,15.281046984558106,12.41220301171875Q15.255976984558107,12.35169101171875,15.219596984558105,12.29723301171875Q15.183206984558105,12.24277401171875,15.136896984558106,12.19646101171875Q15.090576984558105,12.15014801171875,15.036116984558106,12.11376001171875Q14.981666984558107,12.07737201171875,14.921146984558106,12.05230701171875Q14.860636984558106,12.02724301171875,14.796396984558106,12.01446501171875Q14.732166984558106,12.00168701171875,14.666666984558105,12.00168701171875L14.666666984558105,12.00002001171875Z" fill-rule="evenodd" fill="#12FFBB" fill-opacity="1" style="mix-blend-mode:passthrough"/></g></g></svg>