<svg xmlns="http://www.w3.org/2000/svg" xmlns:xlink="http://www.w3.org/1999/xlink" fill="none" version="1.1" width="200" height="40" viewBox="0 0 200 40"><defs><linearGradient x1="1" y1="0.5" x2="0" y2="0.5" id="master_svg0_1_08371"><stop offset="0%" stop-color="#1974FF" stop-opacity="1"/><stop offset="100%" stop-color="#7CB4FF" stop-opacity="1"/></linearGradient><clipPath id="master_svg1_494_25322"><rect x="12" y="8" width="24" height="24" rx="2"/></clipPath></defs><g><rect x="0" y="0" width="200" height="40" rx="2" fill="url(#master_svg0_1_08371)" fill-opacity="1"/><g clip-path="url(#master_svg1_494_25322)"><rect x="12" y="8" width="24" height="24" rx="2" fill="#FFFFFF" fill-opacity="1"/><g><g><path d="M32.363600000000005,12.948548515625L28.6572,11.164131515625C28.2282,10.957279215625,27.7153,11.044441225625,27.378700000000002,11.381397515625L15.245856,22.442678515624998C14.9393141,22.720878515625,14.9162911,23.194878515625,15.194432,23.501378515625C15.210502,23.518778515625,15.226572,23.535478515625,15.243928,23.550878515625L16.23448,24.450778515625C16.50156,24.693878515625002,16.90407,24.711778515625,17.19161,24.493278515625L31.8057,13.411358515625C32.0308,13.240508515625,32.3333,13.211908515625,32.5865,13.337548515625C32.8397,13.463188515625,32.9999,13.721378515625,33,14.004028515625L33,13.960958515625C33,13.529258515625,32.7526,13.135748515625,32.363600000000005,12.948548515625Z" fill="#0065A9" fill-opacity="1"/></g><g><path d="M32.363600000000005,27.051470189666748L28.6572,28.836570189666748C28.228099999999998,29.042770189666747,27.715600000000002,28.955670189666748,27.378700000000002,28.61927018966675L15.245856,17.557320189666747C14.9393141,17.279160189666747,14.9162911,16.80518018966675,15.194432,16.49862018966675C15.210502,16.48127018966675,15.226572,16.46455018966675,15.243928,16.449130189666747L16.23448,15.549208189666748C16.50187,15.305071089666749,16.90564,15.287210489666748,17.19354,15.506783189666749L31.8057,26.58867018966675C32.0308,26.75947018966675,32.3333,26.788070189666747,32.5865,26.66247018966675C32.8397,26.53687018966675,32.9999,26.278670189666748,33,25.99597018966675L33,26.04227018966675C32.998599999999996,26.472770189666747,32.7515,26.864670189666747,32.363600000000005,27.051470189666748Z" fill="#007ACC" fill-opacity="1"/></g><g><path d="M28.6570765625,28.836290234375C28.2279785625,29.042590234375,27.7154285625,28.955490234375,27.3785471325,28.619090234375C27.5672785625,28.805290234375,27.8492835625,28.860290234375,28.0941615625,28.758590234375C28.3390395625,28.656790234375,28.4990565625,28.418190234375,28.5002365625,28.152990234375L28.5002365625,11.846463234375C28.5004565625,11.579983234375,28.3399805625,11.339661234375,28.0937625625,11.237739234375C27.8475445625,11.135816534375,27.5641655625,11.192405234375,27.3759765625,11.381075234375C27.7126145625,11.044261414375,28.2253045625,10.956879934375,28.6545065625,11.163166234375L32.3602465625,12.945010234375C32.750496562500004,13.131290234375001,32.9992165625,13.524990234375,32.9998365625,13.957420234375L32.9998365625,26.042090234375C32.9999365625,26.474190234375,32.7522765625,26.867990234375,32.3628165625,27.055090234375L28.6570765625,28.836290234375Z" fill="#1F9CF0" fill-opacity="1"/></g></g></g><g><path d="M46.279989,14.576L50.50399,26L52.11999,26L56.344,14.576L54.90399,14.576L51.33599,24.576L51.28799,24.576L47.71999,14.576L46.279989,14.576ZM58.472,14.608C58.2,14.608,57.976,14.688,57.784,14.88C57.592,15.04,57.512,15.264,57.512,15.552C57.512,15.824,57.592,16.048,57.784,16.24C57.976,16.416,58.2,16.512,58.472,16.512C58.744,16.512,58.968,16.416,59.16,16.24C59.352000000000004,16.048,59.448,15.824,59.448,15.552C59.448,15.264,59.352000000000004,15.04,59.16,14.88C58.968,14.688,58.744,14.608,58.472,14.608ZM57.832,17.728L57.832,26L59.112,26L59.112,17.728L57.832,17.728ZM64.44,17.504C63.512,17.504,62.744,17.712,62.168,18.128C61.544,18.544,61.24,19.088,61.24,19.792C61.24,20.496,61.544,21.024,62.184,21.408C62.568,21.664,63.256,21.904,64.232,22.144C65.128,22.368,65.72,22.544,65.992,22.672C66.504,22.928,66.776,23.28,66.776,23.744C66.776,24.672,66.024,25.152,64.55199999999999,25.152C63.848,25.152,63.32,25.024,62.968,24.768C62.616,24.48,62.376000000000005,24.016,62.28,23.36L61.032,23.36C61.224000000000004,25.264,62.408,26.224,64.584,26.224C66.92,26.224,68.088,25.36,68.088,23.664C68.088,22.944,67.752,22.384,67.096,21.968C66.664,21.696,65.96000000000001,21.44,64.968,21.2C64.136,20.976,63.56,20.8,63.256,20.656C62.775999999999996,20.416,62.552,20.112,62.552,19.76C62.552,19.392,62.728,19.104,63.08,18.896C63.4,18.672,63.848,18.576,64.424,18.576C65.08,18.576,65.592,18.704,65.944,18.96C66.264,19.184,66.47200000000001,19.568,66.584,20.08L67.832,20.08C67.608,18.352,66.488,17.504,64.44,17.504ZM69.592,17.728L69.592,22.848C69.592,25.088,70.584,26.224,72.6,26.224C73.72,26.224,74.616,25.712,75.288,24.72L75.288,26L76.568,26L76.568,17.728L75.288,17.728L75.288,22.768C75.19200000000001,23.472,74.92,24.048,74.47200000000001,24.496C74.03999999999999,24.912,73.544,25.136,73,25.136C72.248,25.136,71.70400000000001,24.928,71.368,24.544C71.032,24.16,70.872,23.568,70.872,22.784L70.872,17.728L69.592,17.728ZM82.152,17.504C81.16,17.504,80.376,17.696,79.768,18.08C79.096,18.496,78.664,19.152,78.488,20.016L79.75200000000001,20.112C79.88,19.584,80.152,19.184,80.584,18.928C80.968,18.672,81.464,18.56,82.072,18.56C83.512,18.56,84.232,19.248,84.232,20.64L84.232,21.072L82.24799999999999,21.104C81,21.12,80.03999999999999,21.36,79.368,21.808C78.6,22.288,78.232,22.992,78.232,23.936C78.232,24.608,78.488,25.168,79,25.6C79.49600000000001,26.016,80.152,26.224,80.98400000000001,26.224C81.75200000000001,26.224,82.44,26.048,83.048,25.712C83.56,25.424,83.99199999999999,25.056,84.312,24.608L84.312,26L85.512,26L85.512,20.688C85.512,19.728,85.256,18.976,84.77600000000001,18.432C84.2,17.808,83.336,17.504,82.152,17.504ZM84.232,22.032L84.232,22.736C84.232,23.376,83.928,23.952,83.336,24.448C82.72800000000001,24.96,82.03999999999999,25.216,81.256,25.216C80.744,25.216,80.328,25.088,80.00800000000001,24.848C79.688,24.592,79.544,24.288,79.544,23.904C79.544,22.704,80.47200000000001,22.096,82.328,22.064L84.232,22.032ZM87.75200000000001,14.352L87.75200000000001,26L89.01599999999999,26L89.01599999999999,14.352L87.75200000000001,14.352ZM100.584,14.352C99.4,14.352,98.424,14.608,97.672,15.12C96.824,15.664,96.408,16.448,96.408,17.44C96.408,18.4,96.84,19.136,97.72,19.648C98.088,19.84,98.968,20.16,100.344,20.576C101.624,20.944,102.44,21.216,102.75999999999999,21.408C103.512,21.808,103.896,22.368,103.896,23.088C103.896,23.696,103.608,24.176,103.032,24.528C102.456,24.88,101.688,25.056,100.75999999999999,25.056C99.73599999999999,25.056,98.968,24.832,98.44,24.416C97.864,23.952,97.512,23.216,97.4,22.224L96.104,22.224C96.2,23.632,96.696,24.672,97.592,25.36C98.36,25.936,99.416,26.224,100.75999999999999,26.224C102.12,26.224,103.19200000000001,25.936,103.99199999999999,25.376C104.792,24.8,105.19200000000001,24,105.19200000000001,23.008C105.19200000000001,21.968,104.712,21.168,103.768,20.592C103.288,20.304,102.29599999999999,19.936,100.792,19.488C99.688,19.168,98.98400000000001,18.928,98.696,18.768C98.03999999999999,18.416,97.72,17.952,97.72,17.376C97.72,16.72,97.99199999999999,16.24,98.536,15.92C99.01599999999999,15.632,99.672,15.504,100.52000000000001,15.504C101.44800000000001,15.504,102.168,15.696,102.68,16.112C103.176,16.512,103.49600000000001,17.12,103.64,17.952L104.936,17.952C104.824,16.752,104.392,15.84,103.624,15.232C102.888,14.64,101.864,14.352,100.584,14.352ZM108.904,15.056L107.64,15.584L107.64,17.728L105.976,17.728L105.976,18.8L107.64,18.8L107.64,24.064C107.64,24.688,107.768,25.152,108.03999999999999,25.472C108.328,25.824,108.824,26,109.49600000000001,26L110.744,26L110.744,24.928L109.688,24.928C109.4,24.928,109.19200000000001,24.848,109.08,24.72C108.952,24.592,108.904,24.368,108.904,24.064L108.904,18.8L110.952,18.8L110.952,17.728L108.904,17.728L108.904,15.056ZM112.376,17.728L112.376,22.848C112.376,25.088,113.368,26.224,115.384,26.224C116.504,26.224,117.4,25.712,118.072,24.72L118.072,26L119.352,26L119.352,17.728L118.072,17.728L118.072,22.768C117.976,23.472,117.704,24.048,117.256,24.496C116.824,24.912,116.328,25.136,115.784,25.136C115.032,25.136,114.488,24.928,114.152,24.544C113.816,24.16,113.656,23.568,113.656,22.784L113.656,17.728L112.376,17.728ZM127.448,14.352L127.448,19.248C126.808,18.08,125.896,17.504,124.712,17.504C123.528,17.504,122.616,17.936,121.944,18.832C121.32,19.632,121.016,20.624,121.016,21.84C121.016,23.088,121.32,24.112,121.944,24.912C122.616,25.776,123.56,26.224,124.776,26.224C126.024,26.224,126.952,25.696,127.528,24.64L127.528,26L128.728,26L128.728,14.352L127.448,14.352ZM124.984,18.56C125.72,18.56,126.328,18.848,126.792,19.456C127.24,20.048,127.48,20.832,127.48,21.792L127.48,21.952C127.48,22.88,127.272,23.632,126.872,24.208C126.408,24.848,125.768,25.168,124.936,25.168C124.04,25.168,123.368,24.832,122.92,24.192C122.52,23.616,122.328,22.832,122.328,21.84C122.328,20.848,122.52,20.08,122.936,19.52C123.384,18.88,124.072,18.56,124.984,18.56ZM131.768,14.608C131.49599999999998,14.608,131.272,14.688,131.07999999999998,14.88C130.888,15.04,130.808,15.264,130.808,15.552C130.808,15.824,130.888,16.048,131.07999999999998,16.24C131.272,16.416,131.49599999999998,16.512,131.768,16.512C132.04000000000002,16.512,132.264,16.416,132.45600000000002,16.24C132.648,16.048,132.744,15.824,132.744,15.552C132.744,15.264,132.648,15.04,132.45600000000002,14.88C132.264,14.688,132.04000000000002,14.608,131.768,14.608ZM131.128,17.728L131.128,26L132.40800000000002,26L132.40800000000002,17.728L131.128,17.728ZM138.50400000000002,17.504C137.256,17.504,136.28,17.92,135.54399999999998,18.784C134.84,19.6,134.488,20.624,134.488,21.872C134.488,23.104,134.84,24.128,135.54399999999998,24.928C136.28,25.792,137.256,26.224,138.50400000000002,26.224C139.736,26.224,140.728,25.792,141.48000000000002,24.928C142.168,24.128,142.51999999999998,23.104,142.51999999999998,21.872C142.51999999999998,20.624,142.168,19.6,141.464,18.784C140.728,17.92,139.736,17.504,138.50400000000002,17.504ZM138.50400000000002,18.576C139.368,18.576,140.05599999999998,18.912,140.56799999999998,19.584C141,20.192,141.224,20.944,141.224,21.872C141.224,22.768,141,23.536,140.56799999999998,24.144C140.05599999999998,24.816,139.368,25.152,138.50400000000002,25.152C137.624,25.152,136.936,24.816,136.45600000000002,24.144C136.00799999999998,23.536,135.8,22.784,135.8,21.872C135.8,20.944,136.00799999999998,20.192,136.45600000000002,19.584C136.936,18.912,137.624,18.576,138.50400000000002,18.576ZM154.6,14.352C152.84,14.352,151.464,14.944,150.50400000000002,16.16C149.624,17.248,149.192,18.64,149.192,20.336C149.192,22.032,149.608,23.408,150.47199999999998,24.464C151.416,25.632,152.776,26.224,154.55200000000002,26.224C155.768,26.224,156.824,25.872,157.704,25.184C158.648,24.448,159.24,23.408,159.49599999999998,22.08L158.232,22.08C158.00799999999998,23.072,157.54399999999998,23.824,156.872,24.336C156.232,24.816,155.464,25.056,154.55200000000002,25.056C153.208,25.056,152.2,24.608,151.49599999999998,23.728C150.824,22.896,150.50400000000002,21.76,150.50400000000002,20.336C150.50400000000002,18.912,150.84,17.776,151.512,16.912C152.232,15.984,153.256,15.52,154.584,15.52C155.48000000000002,15.52,156.232,15.728,156.856,16.16C157.49599999999998,16.608,157.912,17.248,158.072,18.08L159.336,18.08C159.176,16.944,158.664,16.032,157.8,15.36C156.936,14.688,155.864,14.352,154.6,14.352ZM164.856,17.504C163.608,17.504,162.632,17.92,161.89600000000002,18.784C161.192,19.6,160.84,20.624,160.84,21.872C160.84,23.104,161.192,24.128,161.89600000000002,24.928C162.632,25.792,163.608,26.224,164.856,26.224C166.088,26.224,167.07999999999998,25.792,167.832,24.928C168.51999999999998,24.128,168.872,23.104,168.872,21.872C168.872,20.624,168.51999999999998,19.6,167.816,18.784C167.07999999999998,17.92,166.088,17.504,164.856,17.504ZM164.856,18.576C165.72,18.576,166.40800000000002,18.912,166.92000000000002,19.584C167.352,20.192,167.576,20.944,167.576,21.872C167.576,22.768,167.352,23.536,166.92000000000002,24.144C166.40800000000002,24.816,165.72,25.152,164.856,25.152C163.976,25.152,163.288,24.816,162.808,24.144C162.36,23.536,162.152,22.784,162.152,21.872C162.152,20.944,162.36,20.192,162.808,19.584C163.288,18.912,163.976,18.576,164.856,18.576ZM176.648,14.352L176.648,19.248C176.008,18.08,175.096,17.504,173.912,17.504C172.728,17.504,171.816,17.936,171.144,18.832C170.51999999999998,19.632,170.216,20.624,170.216,21.84C170.216,23.088,170.51999999999998,24.112,171.144,24.912C171.816,25.776,172.76,26.224,173.976,26.224C175.224,26.224,176.152,25.696,176.728,24.64L176.728,26L177.928,26L177.928,14.352L176.648,14.352ZM174.184,18.56C174.92,18.56,175.528,18.848,175.992,19.456C176.44,20.048,176.68,20.832,176.68,21.792L176.68,21.952C176.68,22.88,176.472,23.632,176.072,24.208C175.608,24.848,174.968,25.168,174.136,25.168C173.24,25.168,172.56799999999998,24.832,172.12,24.192C171.72,23.616,171.52800000000002,22.832,171.52800000000002,21.84C171.52800000000002,20.848,171.72,20.08,172.136,19.52C172.584,18.88,173.272,18.56,174.184,18.56ZM183.32,17.504C182.12,17.504,181.176,17.936,180.472,18.8C179.768,19.616,179.432,20.64,179.432,21.856C179.432,23.2,179.784,24.256,180.52,25.056C181.224,25.824,182.184,26.224,183.368,26.224C184.44,26.224,185.32,25.904,186.008,25.296C186.568,24.784,186.936,24.144,187.128,23.344L185.848,23.344C185.64,23.92,185.368,24.352,185.016,24.64C184.6,24.976,184.04,25.152,183.368,25.152C182.584,25.152,181.96,24.896,181.512,24.384C181.064,23.872,180.824,23.152,180.76,22.224L187.288,22.224C187.256,20.784,186.936,19.648,186.328,18.848C185.656,17.952,184.648,17.504,183.32,17.504ZM183.352,18.576C184.92,18.576,185.8,19.456,185.96,21.232L180.792,21.232C180.872,20.416,181.128,19.776,181.576,19.296C182.024,18.816,182.616,18.576,183.352,18.576Z" fill="#F4F8FF" fill-opacity="1"/></g></g></svg>