<svg xmlns="http://www.w3.org/2000/svg" xmlns:xlink="http://www.w3.org/1999/xlink" fill="none" version="1.1" width="201" height="41" viewBox="0 0 201 41"><defs><clipPath id="master_svg0_499_28255"><rect x="12.5" y="8.5" width="24" height="24" rx="2"/></clipPath></defs><g><rect x="0.5" y="0.5" width="200" height="40" rx="2" fill-opacity="0" stroke-opacity="0.5" stroke="#FFFFFF" fill="none" stroke-width="1"/><g clip-path="url(#master_svg0_499_28255)"><rect x="12.5" y="8.5" width="24" height="24" rx="2" fill="#FFFFFF" fill-opacity="1"/><g><g><path d="M32.863600000000005,13.448548515625L29.1572,11.664131515625C28.7282,11.457279215625,28.2153,11.544441225625,27.878700000000002,11.881397515625L15.745856,22.942678515624998C15.4393141,23.220878515625,15.4162911,23.694878515625,15.694432,24.001378515625C15.710502,24.018778515625,15.726572,24.035478515625,15.743928,24.050878515625L16.73448,24.950778515625C17.00156,25.193878515625002,17.40407,25.211778515625,17.69161,24.993278515625L32.3057,13.911358515625C32.5308,13.740508515625,32.8333,13.711908515625,33.0865,13.837548515625C33.3397,13.963188515625,33.4999,14.221378515625,33.5,14.504028515625L33.5,14.460958515625C33.5,14.029258515625,33.2526,13.635748515625,32.863600000000005,13.448548515625Z" fill="#0065A9" fill-opacity="1"/></g><g><path d="M32.863600000000005,27.551470189666748L29.1572,29.336570189666748C28.728099999999998,29.542770189666747,28.215600000000002,29.455670189666748,27.878700000000002,29.11927018966675L15.745856,18.057320189666747C15.4393141,17.779160189666747,15.4162911,17.30518018966675,15.694432,16.99862018966675C15.710502,16.98127018966675,15.726572,16.96455018966675,15.743928,16.949130189666747L16.73448,16.049208189666746C17.00187,15.805071089666749,17.40564,15.787210489666748,17.69354,16.00678318966675L32.3057,27.08867018966675C32.5308,27.25947018966675,32.8333,27.288070189666747,33.0865,27.16247018966675C33.3397,27.03687018966675,33.4999,26.778670189666748,33.5,26.49597018966675L33.5,26.54227018966675C33.498599999999996,26.972770189666747,33.2515,27.364670189666747,32.863600000000005,27.551470189666748Z" fill="#007ACC" fill-opacity="1"/></g><g><path d="M29.1570765625,29.336290234375C28.7279785625,29.542590234375,28.2154285625,29.455490234375,27.8785471325,29.119090234375C28.0672785625,29.305290234375,28.3492835625,29.360290234375,28.5941615625,29.258590234375C28.8390395625,29.156790234375,28.9990565625,28.918190234375,29.0002365625,28.652990234375L29.0002365625,12.346463234375C29.0004565625,12.079983234375,28.8399805625,11.839661234375,28.5937625625,11.737739234375C28.3475445625,11.635816534375,28.0641655625,11.692405234375,27.8759765625,11.881075234375C28.2126145625,11.544261414375,28.7253045625,11.456879934375,29.1545065625,11.663166234375L32.8602465625,13.445010234375C33.250496562500004,13.631290234375001,33.4992165625,14.024990234375,33.4998365625,14.457420234375L33.4998365625,26.542090234375C33.4999365625,26.974190234375,33.2522765625,27.367990234375,32.8628165625,27.555090234375L29.1570765625,29.336290234375Z" fill="#1F9CF0" fill-opacity="1"/></g></g></g><g><path d="M46.779989,15.076L51.00399,26.5L52.61999,26.5L56.844,15.076L55.40399,15.076L51.83599,25.076L51.78799,25.076L48.21999,15.076L46.779989,15.076ZM58.972,15.108C58.7,15.108,58.476,15.188,58.284,15.38C58.092,15.54,58.012,15.764,58.012,16.052C58.012,16.323999999999998,58.092,16.548,58.284,16.74C58.476,16.916,58.7,17.012,58.972,17.012C59.244,17.012,59.468,16.916,59.66,16.74C59.852000000000004,16.548,59.948,16.323999999999998,59.948,16.052C59.948,15.764,59.852000000000004,15.54,59.66,15.38C59.468,15.188,59.244,15.108,58.972,15.108ZM58.332,18.228L58.332,26.5L59.612,26.5L59.612,18.228L58.332,18.228ZM64.94,18.004C64.012,18.004,63.244,18.212,62.668,18.628C62.044,19.044,61.74,19.588,61.74,20.292C61.74,20.996,62.044,21.524,62.684,21.908C63.068,22.164,63.756,22.404,64.732,22.644C65.628,22.868,66.22,23.044,66.492,23.172C67.004,23.428,67.276,23.78,67.276,24.244C67.276,25.172,66.524,25.652,65.05199999999999,25.652C64.348,25.652,63.82,25.524,63.468,25.268C63.116,24.98,62.876000000000005,24.516,62.78,23.86L61.532,23.86C61.724000000000004,25.764,62.908,26.724,65.084,26.724C67.42,26.724,68.588,25.86,68.588,24.164C68.588,23.444,68.252,22.884,67.596,22.468C67.164,22.196,66.46000000000001,21.94,65.468,21.7C64.636,21.476,64.06,21.3,63.756,21.156C63.275999999999996,20.916,63.052,20.612,63.052,20.26C63.052,19.892,63.228,19.604,63.58,19.396C63.9,19.172,64.348,19.076,64.924,19.076C65.58,19.076,66.092,19.204,66.444,19.46C66.764,19.684,66.97200000000001,20.068,67.084,20.58L68.332,20.58C68.108,18.852,66.988,18.004,64.94,18.004ZM70.092,18.228L70.092,23.348C70.092,25.588,71.084,26.724,73.1,26.724C74.22,26.724,75.116,26.212,75.788,25.22L75.788,26.5L77.068,26.5L77.068,18.228L75.788,18.228L75.788,23.268C75.69200000000001,23.972,75.42,24.548,74.97200000000001,24.996C74.53999999999999,25.412,74.044,25.636,73.5,25.636C72.748,25.636,72.20400000000001,25.428,71.868,25.044C71.532,24.66,71.372,24.068,71.372,23.284L71.372,18.228L70.092,18.228ZM82.652,18.004C81.66,18.004,80.876,18.196,80.268,18.58C79.596,18.996,79.164,19.652,78.988,20.516L80.25200000000001,20.612C80.38,20.084,80.652,19.684,81.084,19.428C81.468,19.172,81.964,19.06,82.572,19.06C84.012,19.06,84.732,19.748,84.732,21.14L84.732,21.572L82.74799999999999,21.604C81.5,21.62,80.53999999999999,21.86,79.868,22.308C79.1,22.788,78.732,23.492,78.732,24.436C78.732,25.108,78.988,25.668,79.5,26.1C79.99600000000001,26.516,80.652,26.724,81.48400000000001,26.724C82.25200000000001,26.724,82.94,26.548,83.548,26.212C84.06,25.924,84.49199999999999,25.556,84.812,25.108L84.812,26.5L86.012,26.5L86.012,21.188C86.012,20.228,85.756,19.476,85.27600000000001,18.932C84.7,18.308,83.836,18.004,82.652,18.004ZM84.732,22.532L84.732,23.236C84.732,23.876,84.428,24.452,83.836,24.948C83.22800000000001,25.46,82.53999999999999,25.716,81.756,25.716C81.244,25.716,80.828,25.588,80.50800000000001,25.348C80.188,25.092,80.044,24.788,80.044,24.404C80.044,23.204,80.97200000000001,22.596,82.828,22.564L84.732,22.532ZM88.25200000000001,14.852L88.25200000000001,26.5L89.51599999999999,26.5L89.51599999999999,14.852L88.25200000000001,14.852ZM101.084,14.852C99.9,14.852,98.924,15.108,98.172,15.62C97.324,16.164,96.908,16.948,96.908,17.94C96.908,18.9,97.34,19.636,98.22,20.148C98.588,20.34,99.468,20.66,100.844,21.076C102.124,21.444,102.94,21.716,103.25999999999999,21.908C104.012,22.308,104.396,22.868,104.396,23.588C104.396,24.196,104.108,24.676,103.532,25.028C102.956,25.38,102.188,25.556,101.25999999999999,25.556C100.23599999999999,25.556,99.468,25.332,98.94,24.916C98.364,24.452,98.012,23.716,97.9,22.724L96.604,22.724C96.7,24.132,97.196,25.172,98.092,25.86C98.86,26.436,99.916,26.724,101.25999999999999,26.724C102.62,26.724,103.69200000000001,26.436,104.49199999999999,25.876C105.292,25.3,105.69200000000001,24.5,105.69200000000001,23.508C105.69200000000001,22.468,105.212,21.668,104.268,21.092C103.788,20.804,102.79599999999999,20.436,101.292,19.988C100.188,19.668,99.48400000000001,19.428,99.196,19.268C98.53999999999999,18.916,98.22,18.452,98.22,17.876C98.22,17.22,98.49199999999999,16.74,99.036,16.42C99.51599999999999,16.131999999999998,100.172,16.003999999999998,101.02000000000001,16.003999999999998C101.94800000000001,16.003999999999998,102.668,16.195999999999998,103.18,16.612C103.676,17.012,103.99600000000001,17.62,104.14,18.452L105.436,18.452C105.324,17.252,104.892,16.34,104.124,15.732C103.388,15.14,102.364,14.852,101.084,14.852ZM109.404,15.556L108.14,16.084L108.14,18.228L106.476,18.228L106.476,19.3L108.14,19.3L108.14,24.564C108.14,25.188,108.268,25.652,108.53999999999999,25.972C108.828,26.324,109.324,26.5,109.99600000000001,26.5L111.244,26.5L111.244,25.428L110.188,25.428C109.9,25.428,109.69200000000001,25.348,109.58,25.22C109.452,25.092,109.404,24.868,109.404,24.564L109.404,19.3L111.452,19.3L111.452,18.228L109.404,18.228L109.404,15.556ZM112.876,18.228L112.876,23.348C112.876,25.588,113.868,26.724,115.884,26.724C117.004,26.724,117.9,26.212,118.572,25.22L118.572,26.5L119.852,26.5L119.852,18.228L118.572,18.228L118.572,23.268C118.476,23.972,118.204,24.548,117.756,24.996C117.324,25.412,116.828,25.636,116.284,25.636C115.532,25.636,114.988,25.428,114.652,25.044C114.316,24.66,114.156,24.068,114.156,23.284L114.156,18.228L112.876,18.228ZM127.948,14.852L127.948,19.748C127.308,18.58,126.396,18.004,125.212,18.004C124.028,18.004,123.116,18.436,122.444,19.332C121.82,20.132,121.516,21.124,121.516,22.34C121.516,23.588,121.82,24.612,122.444,25.412C123.116,26.276,124.06,26.724,125.276,26.724C126.524,26.724,127.452,26.196,128.02800000000002,25.14L128.02800000000002,26.5L129.228,26.5L129.228,14.852L127.948,14.852ZM125.484,19.06C126.22,19.06,126.828,19.348,127.292,19.956C127.74,20.548,127.98,21.332,127.98,22.292L127.98,22.452C127.98,23.38,127.772,24.132,127.372,24.708C126.908,25.348,126.268,25.668,125.436,25.668C124.54,25.668,123.868,25.332,123.42,24.692C123.02,24.116,122.828,23.332,122.828,22.34C122.828,21.348,123.02,20.58,123.436,20.02C123.884,19.38,124.572,19.06,125.484,19.06ZM132.268,15.108C131.99599999999998,15.108,131.772,15.188,131.57999999999998,15.38C131.388,15.54,131.308,15.764,131.308,16.052C131.308,16.323999999999998,131.388,16.548,131.57999999999998,16.74C131.772,16.916,131.99599999999998,17.012,132.268,17.012C132.54000000000002,17.012,132.764,16.916,132.95600000000002,16.74C133.148,16.548,133.244,16.323999999999998,133.244,16.052C133.244,15.764,133.148,15.54,132.95600000000002,15.38C132.764,15.188,132.54000000000002,15.108,132.268,15.108ZM131.628,18.228L131.628,26.5L132.90800000000002,26.5L132.90800000000002,18.228L131.628,18.228ZM139.00400000000002,18.004C137.756,18.004,136.78,18.42,136.04399999999998,19.284C135.34,20.1,134.988,21.124,134.988,22.372C134.988,23.604,135.34,24.628,136.04399999999998,25.428C136.78,26.292,137.756,26.724,139.00400000000002,26.724C140.236,26.724,141.228,26.292,141.98000000000002,25.428C142.668,24.628,143.01999999999998,23.604,143.01999999999998,22.372C143.01999999999998,21.124,142.668,20.1,141.964,19.284C141.228,18.42,140.236,18.004,139.00400000000002,18.004ZM139.00400000000002,19.076C139.868,19.076,140.55599999999998,19.412,141.06799999999998,20.084C141.5,20.692,141.724,21.444,141.724,22.372C141.724,23.268,141.5,24.036,141.06799999999998,24.644C140.55599999999998,25.316,139.868,25.652,139.00400000000002,25.652C138.124,25.652,137.436,25.316,136.95600000000002,24.644C136.50799999999998,24.036,136.3,23.284,136.3,22.372C136.3,21.444,136.50799999999998,20.692,136.95600000000002,20.084C137.436,19.412,138.124,19.076,139.00400000000002,19.076ZM155.1,14.852C153.34,14.852,151.964,15.444,151.00400000000002,16.66C150.124,17.748,149.692,19.14,149.692,20.836C149.692,22.532,150.108,23.908,150.97199999999998,24.964C151.916,26.132,153.276,26.724,155.05200000000002,26.724C156.268,26.724,157.324,26.372,158.204,25.684C159.148,24.948,159.74,23.908,159.99599999999998,22.58L158.732,22.58C158.50799999999998,23.572,158.04399999999998,24.324,157.372,24.836C156.732,25.316,155.964,25.556,155.05200000000002,25.556C153.708,25.556,152.7,25.108,151.99599999999998,24.228C151.324,23.396,151.00400000000002,22.26,151.00400000000002,20.836C151.00400000000002,19.412,151.34,18.276,152.012,17.412C152.732,16.484,153.756,16.02,155.084,16.02C155.98000000000002,16.02,156.732,16.228,157.356,16.66C157.99599999999998,17.108,158.412,17.748,158.572,18.58L159.836,18.58C159.676,17.444,159.164,16.532,158.3,15.86C157.436,15.188,156.364,14.852,155.1,14.852ZM165.356,18.004C164.108,18.004,163.132,18.42,162.39600000000002,19.284C161.692,20.1,161.34,21.124,161.34,22.372C161.34,23.604,161.692,24.628,162.39600000000002,25.428C163.132,26.292,164.108,26.724,165.356,26.724C166.588,26.724,167.57999999999998,26.292,168.332,25.428C169.01999999999998,24.628,169.372,23.604,169.372,22.372C169.372,21.124,169.01999999999998,20.1,168.316,19.284C167.57999999999998,18.42,166.588,18.004,165.356,18.004ZM165.356,19.076C166.22,19.076,166.90800000000002,19.412,167.42000000000002,20.084C167.852,20.692,168.076,21.444,168.076,22.372C168.076,23.268,167.852,24.036,167.42000000000002,24.644C166.90800000000002,25.316,166.22,25.652,165.356,25.652C164.476,25.652,163.788,25.316,163.308,24.644C162.86,24.036,162.652,23.284,162.652,22.372C162.652,21.444,162.86,20.692,163.308,20.084C163.788,19.412,164.476,19.076,165.356,19.076ZM177.148,14.852L177.148,19.748C176.508,18.58,175.596,18.004,174.412,18.004C173.228,18.004,172.316,18.436,171.644,19.332C171.01999999999998,20.132,170.716,21.124,170.716,22.34C170.716,23.588,171.01999999999998,24.612,171.644,25.412C172.316,26.276,173.26,26.724,174.476,26.724C175.724,26.724,176.652,26.196,177.228,25.14L177.228,26.5L178.428,26.5L178.428,14.852L177.148,14.852ZM174.684,19.06C175.42,19.06,176.028,19.348,176.492,19.956C176.94,20.548,177.18,21.332,177.18,22.292L177.18,22.452C177.18,23.38,176.972,24.132,176.572,24.708C176.108,25.348,175.468,25.668,174.636,25.668C173.74,25.668,173.06799999999998,25.332,172.62,24.692C172.22,24.116,172.02800000000002,23.332,172.02800000000002,22.34C172.02800000000002,21.348,172.22,20.58,172.636,20.02C173.084,19.38,173.772,19.06,174.684,19.06ZM183.82,18.004C182.62,18.004,181.676,18.436,180.972,19.3C180.268,20.116,179.932,21.14,179.932,22.356C179.932,23.7,180.284,24.756,181.02,25.556C181.724,26.324,182.684,26.724,183.868,26.724C184.94,26.724,185.82,26.404,186.508,25.796C187.068,25.284,187.436,24.644,187.628,23.844L186.348,23.844C186.14,24.42,185.868,24.852,185.516,25.14C185.1,25.476,184.54,25.652,183.868,25.652C183.084,25.652,182.46,25.396,182.012,24.884C181.564,24.372,181.324,23.652,181.26,22.724L187.788,22.724C187.756,21.284,187.436,20.148,186.828,19.348C186.156,18.452,185.148,18.004,183.82,18.004ZM183.852,19.076C185.42,19.076,186.3,19.956,186.46,21.732L181.292,21.732C181.372,20.916,181.628,20.276,182.076,19.796C182.524,19.316,183.116,19.076,183.852,19.076Z" fill="#F4F8FF" fill-opacity="1"/></g></g></svg>